<?xml version="1.0" encoding="utf-8"?>
<!-- Generator: Adobe Illustrator 18.0.0, SVG Export Plug-In . SVG Version: 6.00 Build 0)  -->
<!DOCTYPE svg PUBLIC "-//W3C//DTD SVG 1.1//EN" "http://www.w3.org/Graphics/SVG/1.1/DTD/svg11.dtd">
<svg version="1.1" id="Layer_1" xmlns="http://www.w3.org/2000/svg" xmlns:xlink="http://www.w3.org/1999/xlink" x="0px" y="0px"
	 viewBox="0 0 50 50" enable-background="new 0 0 50 50" xml:space="preserve">
<g>
	<g>
		<path fill="#F4F4F4" d="M37.2,5v36.3H16.3V45c0,2.1-1.7,3.8-3.8,3.8l0,0c-2.1,0-3.8-1.7-3.8-3.8V5c0-2.1-1.7-3.8-3.8-3.8h28.5
			C35.4,1.2,37.2,2.9,37.2,5z"/>
	</g>
	<g>
		<path fill="#CCCACA" d="M8.7,10.7V5c0-2.1-1.7-3.8-3.8-3.8S1,2.9,1,5v5.7H8.7z"/>
	</g>
	<g>
		<path fill="#E5E5E5" d="M44.8,41.3V45c0,2.1-1.7,3.8-3.8,3.8H12.5c2.1,0,3.8-1.7,3.8-3.8v-3.6h28.5V41.3z"/>
	</g>
	<g>
		<g>
			<ellipse fill="#ABB734" cx="16" cy="16.5" rx="2.5" ry="2.5"/>
		</g>
		<g>
			<g>
				<rect x="22.3" y="14.4" fill="#CCCACA" width="10.1" height="1.1"/>
			</g>
			<g>
				<g>
					<rect x="22.3" y="17.4" fill="#CCCACA" width="7.1" height="1.1"/>
				</g>
			</g>
		</g>
	</g>
	<g>
		<g>
			<ellipse fill="#6CD8D5" cx="16" cy="25.5" rx="2.5" ry="2.5"/>
		</g>
		<g>
			<g>
				<rect x="22.3" y="23.5" fill="#CCCACA" width="5.8" height="1.1"/>
			</g>
			<g>
				<g>
					<rect x="22.3" y="26.5" fill="#CCCACA" width="6" height="1.1"/>
				</g>
			</g>
		</g>
	</g>
	<g>
		<g>
			<ellipse fill="#559AFF" cx="16" cy="34.6" rx="2.5" ry="2.5"/>
		</g>
		<g>
			<g>
				<rect x="22.3" y="32.5" fill="#CCCACA" width="9" height="1.1"/>
			</g>
			<g>
				<g>
					<rect x="22.3" y="35.5" fill="#CCCACA" width="6" height="1.1"/>
				</g>
			</g>
		</g>
	</g>
	<g>
		<rect x="13.5" y="5.4" fill="#CCCACA" width="18.8" height="1.1"/>
	</g>
	<g>
		<rect x="13.5" y="8.9" fill="#CCCACA" width="18.8" height="1.1"/>
	</g>
	<g>
		<path fill="#FECD04" d="M49,19.3v7c0,4.6-8.3,9.8-8.3,9.8l0,0c0,0-8.3-5.2-8.3-9.8v-7c0.4,0.1,0.8,0.1,1.2,0.1
			c2.8,0,5.3-1.1,7.1-2.9c1.8,1.8,4.3,2.9,7.1,2.9C48.2,19.4,48.6,19.4,49,19.3z"/>
	</g>
	<g opacity="0.4">
		<g>
			<path fill="#FECD04" d="M40,20.2c0.2-0.1,0.5-0.3,0.7-0.5 M34.9,21.9c1-0.1,2-0.3,2.9-0.7"/>
			<path fill="#FFFFFF" d="M34.9,22.5l-0.1-1.1c0.9-0.1,1.9-0.3,2.8-0.6l0.4,1.1C37,22.1,36,22.4,34.9,22.5z M40.2,20.7l-0.6-1
				c0.2-0.1,0.5-0.3,0.7-0.4l0.6,0.9C40.7,20.4,40.5,20.6,40.2,20.7z"/>
		</g>
	</g>
	<g>
		<polygon fill="#425060" points="39.1,28.8 37.4,27.1 38.2,26.3 39.1,27.2 43.1,23.2 44,24 		"/>
	</g>
	<g>
		<g>
			<rect x="29.8" y="43.5" fill="#F4F4F4" width="6.8" height="1.1"/>
		</g>
		<g>
			<rect x="39.4" y="43.5" fill="#F4F4F4" width="1.2" height="1.1"/>
		</g>
	</g>
</g>
</svg>
