<?xml version="1.0" encoding="utf-8"?>
<!-- Generator: Adobe Illustrator 18.0.0, SVG Export Plug-In . SVG Version: 6.00 Build 0)  -->
<!DOCTYPE svg PUBLIC "-//W3C//DTD SVG 1.1//EN" "http://www.w3.org/Graphics/SVG/1.1/DTD/svg11.dtd">
<svg version="1.1" id="Layer_1" xmlns="http://www.w3.org/2000/svg" xmlns:xlink="http://www.w3.org/1999/xlink" x="0px" y="0px"
	 viewBox="0 0 50 50" enable-background="new 0 0 50 50" xml:space="preserve">
<g>
	<g opacity="0.2">
		<path fill="#FFFFFF" d="M3.5,25h-1c0-0.9,0.7-1.6,1.6-1.6v1C3.8,24.4,3.5,24.7,3.5,25z"/>
	</g>
	<g>
		<circle fill="#FA4968" cx="25" cy="4.1" r="3.1"/>
	</g>
	<g opacity="0.2">
		<path fill="#FFFFFF" d="M24.4,4.1h-1c0-0.9,0.7-1.6,1.6-1.6v1C24.7,3.5,24.4,3.8,24.4,4.1z"/>
	</g>
	<g>
		<circle fill="#ABB734" cx="25" cy="45.9" r="3.1"/>
	</g>
	<g opacity="0.2">
		<path fill="#FFFFFF" d="M24.4,45.9h-1c0-0.9,0.7-1.6,1.6-1.6v1C24.7,45.3,24.4,45.5,24.4,45.9z"/>
	</g>
	<g>
		<circle fill="#6CD8D5" cx="45.9" cy="25" r="3.1"/>
	</g>
	<g opacity="0.2">
		<path fill="#FFFFFF" d="M45.3,25h-1c0-0.9,0.7-1.6,1.6-1.6v1C45.5,24.4,45.3,24.7,45.3,25z"/>
	</g>
	<g>
		<circle fill="#FECD04" cx="4.1" cy="25" r="3.1"/>
	</g>
	<g>
		<circle fill="#FFB95C" cx="39.8" cy="10.2" r="3.1"/>
	</g>
	<g opacity="0.2">
		<path fill="#FFFFFF" d="M39.1,10.2h-1c0-0.4,0.2-0.8,0.5-1.1s0.7-0.5,1.1-0.5v1c-0.2,0-0.3,0.1-0.4,0.2
			C39.2,9.9,39.1,10.1,39.1,10.2z"/>
	</g>
	<g>
		<circle fill="#6E9583" cx="10.2" cy="39.8" r="3.1"/>
	</g>
	<g opacity="0.2">
		<path fill="#FFFFFF" d="M9.6,39.8h-1c0-0.4,0.2-0.8,0.5-1.1s0.7-0.5,1.1-0.5v1c-0.2,0-0.3,0.1-0.4,0.2C9.7,39.4,9.6,39.6,9.6,39.8
			z"/>
	</g>
	<g>
		<circle fill="#FF8C83" cx="39.8" cy="39.8" r="3.1"/>
	</g>
	<g opacity="0.2">
		<path fill="#FFFFFF" d="M39.1,39.8h-1c0-0.4,0.2-0.8,0.5-1.1s0.7-0.5,1.1-0.5v1c-0.2,0-0.3,0.1-0.4,0.2
			C39.2,39.4,39.1,39.6,39.1,39.8z"/>
	</g>
	<g>
		<circle fill="#E8CEC1" cx="10.2" cy="10.2" r="3.1"/>
	</g>
	<g opacity="0.2">
		<path fill="#FFFFFF" d="M9.6,10.2h-1c0-0.4,0.2-0.8,0.5-1.1s0.7-0.5,1.1-0.5v1c-0.2,0-0.3,0.1-0.4,0.2C9.7,9.9,9.6,10.1,9.6,10.2z
			"/>
	</g>
	<g>
		<rect x="24.5" y="7.2" fill="#616B77" width="1" height="3.7"/>
	</g>
	<g>
		<rect x="24.5" y="39" fill="#616B77" width="1" height="3.7"/>
	</g>
	<g>
		<rect x="39" y="24.5" fill="#616B77" width="3.7" height="1"/>
	</g>
	<g>
		<rect x="7.2" y="24.5" fill="#616B77" width="3.7" height="1"/>
	</g>
	<g>
		
			<rect x="35.7" y="11.9" transform="matrix(-0.7071 -0.7072 0.7072 -0.7071 52.1222 49.0362)" fill="#616B77" width="1" height="3.7"/>
	</g>
	<g>
		
			<rect x="13.3" y="34.4" transform="matrix(-0.7072 -0.7071 0.7071 -0.7072 -2.1252 71.6842)" fill="#616B77" width="1" height="3.7"/>
	</g>
	<g>
		
			<rect x="34.4" y="35.7" transform="matrix(-0.7071 -0.7071 0.7071 -0.7071 36.3232 87.4783)" fill="#616B77" width="3.7" height="1"/>
	</g>
	<g>
		
			<rect x="11.9" y="13.3" transform="matrix(-0.7071 -0.7071 0.7071 -0.7071 13.6756 33.2304)" fill="#616B77" width="3.7" height="1"/>
	</g>
	<g>
		<path fill="#FA4968" d="M28.9,25.7L25,28.3l-3.9-2.6c-2.5,0.6-4.2,2.1-4.2,5.1c0,0.6,0.1,1.2,0.2,1.8c0.2,1,1.1,1.7,2.2,1.7h11.4
			c1.1,0,2-0.7,2.2-1.7c0.1-0.6,0.2-1.2,0.2-1.8C33.1,27.8,31.4,26.3,28.9,25.7z"/>
	</g>
	<g>
		<path fill="#FFD731" d="M26.7,34.3L25.9,29l0.5-1.2c0-1.1-2.7-1.1-2.7,0l0.5,1.2l-0.8,5.3H26.7z"/>
	</g>
	<g>
		<path fill="#EABE06" d="M23.6,27.8l0.5,1.2h1.8l0.5-1.2C26.4,26.7,23.6,26.7,23.6,27.8z"/>
	</g>
	<g>
		<path fill="#FF6989" d="M18.3,31.7c0-0.3-0.1-0.6-0.1-0.9c0-0.5,0-0.9,0.2-1.3l1,0.3c-0.1,0.3-0.1,0.6-0.1,1c0,0.2,0,0.5,0.1,0.8
			L18.3,31.7z"/>
	</g>
	<g>
		<polygon fill="#FF6989" points="28.1,24.4 25,27 26.8,28.1 28.9,25.7 		"/>
	</g>
	<g>
		<polygon fill="#FF6989" points="21.9,24.4 25,27 23.2,28.1 21.1,25.7 		"/>
	</g>
	<g>
		<path fill="#FFFFFF" d="M26.8,28.1"/>
	</g>
	<g>
		<path fill="#525F70" d="M22.3,17.5c0.5-0.1,1.1,0,1.6,0.1s1,0.3,1.5,0.5c0.6,0.1,1.3,0.2,1.9,0c0.5-0.1,0.9-0.4,1.3-0.7v-0.9
			c0-1.1-0.9-2-2.1-2h-3c-1.2,0-2.1,0.9-2.1,2V18C21.6,17.7,21.9,17.6,22.3,17.5z"/>
	</g>
	<g>
		<path fill="#FFA49F" d="M28.6,18.7v-1.4c-0.3,0.4-0.8,0.6-1.3,0.7c-0.6,0.2-1.3,0.1-1.9,0c-0.5-0.1-1-0.3-1.5-0.5
			c-0.5-0.1-1.1-0.2-1.6-0.1c-0.3,0.1-0.7,0.2-0.9,0.5v0.7c-0.5,0-0.9,0.4-0.9,0.9s0.4,0.9,0.9,0.9l0,0c0.2,1.7,1.7,3.1,3.6,3.1
			c1.8,0,3.4-1.3,3.6-3.1l0,0c0.5,0,0.9-0.4,0.9-0.9C29.5,19.1,29.1,18.7,28.6,18.7z"/>
	</g>
</g>
</svg>
