<?xml version="1.0" encoding="utf-8"?>
<!-- Generator: Adobe Illustrator 18.0.0, SVG Export Plug-In . SVG Version: 6.00 Build 0)  -->
<!DOCTYPE svg PUBLIC "-//W3C//DTD SVG 1.1//EN" "http://www.w3.org/Graphics/SVG/1.1/DTD/svg11.dtd">
<svg version="1.1" id="Layer_1" xmlns="http://www.w3.org/2000/svg" xmlns:xlink="http://www.w3.org/1999/xlink" x="0px" y="0px"
	 viewBox="0 0 50 50" enable-background="new 0 0 50 50" xml:space="preserve">
<g>
	<g>
		<path fill="#8CF2ED" d="M49,12.9c0,0.5-0.1,1-0.1,1.5c-0.3,1.6-1.7,2.7-3.3,2.7h-7.1c-1.6,0-3-1.1-3.3-2.7c-0.1-0.5-0.1-1-0.1-1.5
			c0-2.9,1.8-3.9,4.3-4.3l2.7,2.3l2.7-2.3C47.2,9,49,10,49,12.9z"/>
	</g>
	<g opacity="0.2">
		<path fill="#FFFFFF" d="M45.6,15.4h-7.1c-0.8,0-1.5-0.5-1.6-1.3c-0.1-0.4-0.1-0.9-0.1-1.2h1c0,0.3,0,0.7,0.1,1.1
			c0,0.2,0.3,0.4,0.6,0.4h7.1c0.3,0,0.6-0.2,0.6-0.4c0.1-0.4,0.1-0.7,0.1-1.1h1c0,0.4,0,0.8-0.1,1.2C47,14.9,46.4,15.4,45.6,15.4z"
			/>
	</g>
	<g>
		<ellipse fill="#8CF2ED" cx="42" cy="4.4" rx="3.3" ry="3.4"/>
	</g>
	<g>
		<ellipse fill="#FA4968" cx="8" cy="4.4" rx="3.3" ry="3.4"/>
	</g>
	<g>
		<path fill="#FA4968" d="M15,12.9c0,0.5-0.1,1-0.1,1.5c-0.3,1.6-1.7,2.7-3.3,2.7H4.4c-1.6,0-3-1.1-3.3-2.7C1,13.9,1,13.4,1,12.9
			C1,10,2.8,9,5.3,8.7L8,10.9l2.7-2.3C13.2,9,15,10,15,12.9z"/>
	</g>
	<g opacity="0.2">
		<path fill="#FFFFFF" d="M11.5,15.4H4.4c-0.8,0-1.5-0.5-1.6-1.3c-0.1-0.4-0.1-0.9-0.1-1.2h1c0,0.3,0,0.7,0.1,1.1
			c0,0.2,0.3,0.4,0.6,0.4h7.1c0.3,0,0.6-0.2,0.6-0.4c0.1-0.4,0.1-0.7,0.1-1.1h1c0,0.4,0,0.8-0.1,1.2C13,14.9,12.3,15.4,11.5,15.4z"
			/>
	</g>
	<g>
		<path fill="#D9BAA8" d="M49,44.7c0,0.5-0.1,1-0.1,1.5c-0.3,1.6-1.7,2.7-3.3,2.7h-7.1c-1.6,0-3-1.1-3.3-2.7c-0.1-0.5-0.1-1-0.1-1.5
			c0-2.9,1.8-3.9,4.3-4.3l2.7,2.3l2.7-2.3C47.2,40.8,49,41.8,49,44.7z"/>
	</g>
	<g opacity="0.2">
		<path fill="#FFFFFF" d="M45.6,47.3h-7.1c-0.8,0-1.5-0.5-1.6-1.3c-0.1-0.4-0.1-0.9-0.1-1.2h1c0,0.3,0,0.7,0.1,1.1
			c0,0.2,0.3,0.4,0.6,0.4h7.1c0.3,0,0.6-0.2,0.6-0.4c0.1-0.4,0.1-0.7,0.1-1.1h1c0,0.4,0,0.8-0.1,1.2C47,46.7,46.4,47.3,45.6,47.3z"
			/>
	</g>
	<g>
		<ellipse fill="#D9BAA8" cx="42" cy="36.2" rx="3.3" ry="3.4"/>
	</g>
	<g>
		<ellipse fill="#ABB734" cx="8" cy="36.2" rx="3.3" ry="3.4"/>
	</g>
	<g>
		<path fill="#ABB734" d="M15,44.7c0,0.5-0.1,1-0.1,1.5c-0.3,1.6-1.7,2.7-3.3,2.7H4.4c-1.6,0-3-1.1-3.3-2.7C1,45.7,1,45.2,1,44.7
			c0-2.9,1.8-3.9,4.3-4.3L8,42.8l2.7-2.3C13.2,40.8,15,41.8,15,44.7z"/>
	</g>
	<g opacity="0.2">
		<path fill="#FFFFFF" d="M11.5,47.3H4.4c-0.8,0-1.5-0.5-1.6-1.3c-0.1-0.4-0.1-0.9-0.1-1.2h1c0,0.3,0,0.7,0.1,1.1
			c0,0.2,0.3,0.4,0.6,0.4h7.1c0.3,0,0.6-0.2,0.6-0.4c0.1-0.4,0.1-0.7,0.1-1.1h1c0,0.4,0,0.8-0.1,1.2C13,46.7,12.3,47.3,11.5,47.3z"
			/>
	</g>
	<g>
		<g>
			<g>
				<g>
					<path fill="#559AFF" d="M36.7,29.7c0.2-1.3,0.2-2.6,0-3.9c-1.4-0.1-2.5-0.7-3-1.7c-0.4-1-0.1-2.3,0.9-3.3c-0.8-1-1.7-2-2.7-2.7
						c-1,0.9-2.2,1.3-3.3,0.9c-1-0.4-1.6-1.5-1.7-2.9c-1.3-0.2-2.6-0.2-3.8,0c-0.1,1.4-0.7,2.5-1.7,3c-1,0.4-2.3,0.1-3.3-0.8
						c-1,0.8-1.9,1.7-2.7,2.8c0.9,1,1.3,2.3,0.9,3.3c-0.4,1.1-1.5,1.7-2.9,1.8c-0.2,1.3-0.2,2.6,0,3.9c1.4,0.1,2.5,0.6,3,1.7
						c0.4,1,0.1,2.3-0.9,3.3c0.7,1,1.7,2,2.7,2.7c1-0.9,2.2-1.3,3.3-0.9c1,0.4,1.6,1.5,1.7,2.9c1.3,0.2,2.6,0.2,3.8-0.1
						c0.1-1.4,0.7-2.5,1.7-3c1-0.4,2.2-0.1,3.3,0.8c1-0.8,1.9-1.7,2.7-2.8c-0.9-1-1.3-2.2-0.9-3.3C34.2,30.4,35.3,29.8,36.7,29.7z
						 M23.8,32.6c-1.7-0.4-3-1.8-3.4-3.4c-0.9-3.5,2.3-6.7,5.8-5.8c1.7,0.4,3,1.8,3.4,3.4C30.5,30.3,27.4,33.4,23.8,32.6z"/>
				</g>
			</g>
		</g>
	</g>
</g>
</svg>
