<?xml version="1.0" encoding="utf-8"?>
<!-- Generator: Adobe Illustrator 18.0.0, SVG Export Plug-In . SVG Version: 6.00 Build 0)  -->
<!DOCTYPE svg PUBLIC "-//W3C//DTD SVG 1.1//EN" "http://www.w3.org/Graphics/SVG/1.1/DTD/svg11.dtd">
<svg version="1.1" id="Layer_1" xmlns="http://www.w3.org/2000/svg" xmlns:xlink="http://www.w3.org/1999/xlink" x="0px" y="0px"
	 viewBox="0 0 50 50" enable-background="new 0 0 50 50" xml:space="preserve">
<g>
	<g>
		<g>
			<g>
				<g>
					<path fill="#E5E5E5" d="M44.7,41.3c2.1,0,3.8-1.6,3.8-3.6l0,0c0-3.7-3.1-4.3-6.9-4.3c-3.8,0-6.9,0.6-6.9,4.3l0,0
						c0,2,1.8,3.6,3.8,3.6H44.7z"/>
				</g>
				<g>
					<path fill="#559AFF" d="M48.5,37.7L48.5,37.7c0,2-1.8,3.6-3.8,3.6h-6.1c-2.1,0-3.8-1.6-3.8-3.6l0,0c0-3.7,3.1-4.3,6.8-4.3
						c0.6,0,1.1,0,1.6,0c0.6,0,1.1,0.1,1.6,0.2C47.1,34.1,48.5,35.2,48.5,37.7z"/>
				</g>
				<g>
					<path fill="#D9BAA8" d="M40.4,29.7c0,0-0.3,3.7-0.3,4.1c0,0.9,0.7,1.5,1.6,1.5c0.9,0,1.6-0.7,1.6-1.5c0-0.4-0.3-4.1-0.3-4.1
						S40.4,29.7,40.4,29.7z"/>
				</g>
				<g>
					<path fill="#C9A28F" d="M46.9,28.1c-0.2,0.7-0.7,1.1-1.5,0.8c-0.8-0.2-1.6-1-1.4-1.7c0.2-0.7,1.6-1,2.4-0.8
						C47.2,26.8,47.1,27.4,46.9,28.1z"/>
				</g>
				<g>
					<path fill="#C9A28F" d="M36.4,28.1c0.2,0.7,0.7,1.1,1.5,0.8c0.8-0.2,1.6-1,1.4-1.7c-0.2-0.7-1.6-1-2.4-0.8
						C36.1,26.8,36.2,27.4,36.4,28.1z"/>
				</g>
				<g>
					<path fill="#E8CEC1" d="M45.7,26c0,2.8-1.1,6.4-4,6.4s-4-3.6-4-6.4s1.1-3.8,4-3.8C44.5,22.2,45.7,23.2,45.7,26z"/>
				</g>
				<g>
					<path fill="#894D47" d="M35.5,25c2.6-0.7,2.1-5.5,4.7-3.4C41.8,23,38.4,27.3,35.5,25z"/>
				</g>
				<g>
					<path fill="#894D47" d="M45.8,26.3C43.9,23.4,38.6,26,40,22C40.9,19.4,47.2,21.8,45.8,26.3z"/>
				</g>
				<g>
					<polygon fill="#FA4968" points="41.1,35.4 40.4,39.2 41.6,40.1 42.8,39.2 42.1,35.4 					"/>
				</g>
				<g>
					<path fill="#DDEDEB" d="M44.9,33.7l-1.7,2.9l-1.6-1.2l1.6-1.9C43.9,33.5,44.4,33.5,44.9,33.7z"/>
				</g>
				<g>
					<path fill="#DDEDEB" d="M38.4,33.7l1.7,2.9l1.6-1.2l-1.7-2C39.4,33.5,38.9,33.5,38.4,33.7z"/>
				</g>
			</g>
			<g>
				<g>
					<path fill="#E5E5E5" d="M11.4,41.3c2.1,0,3.8-1.6,3.8-3.6l0,0c0-3.7-3.1-4.3-6.9-4.3S1.5,34,1.5,37.7l0,0c0,2,1.8,3.6,3.8,3.6
						H11.4z"/>
				</g>
				<g>
					<path fill="#FFB95C" d="M15.2,37.7L15.2,37.7c0,2-1.8,3.6-3.8,3.6H5.3c-2.1,0-3.8-1.6-3.8-3.6l0,0c0-3.7,3.1-4.3,6.8-4.3
						c0.6,0,1.1,0,1.6,0c0.6,0,1.1,0.1,1.6,0.2C13.8,34.1,15.2,35.2,15.2,37.7z"/>
				</g>
				<g>
					<path fill="#D9BAA8" d="M7.1,29.7c0,0-0.3,3.7-0.3,4.1c0,0.9,0.7,1.5,1.6,1.5s1.6-0.7,1.6-1.5c0-0.4-0.3-4.1-0.3-4.1
						S7.1,29.7,7.1,29.7z"/>
				</g>
				<g>
					<path fill="#C9A28F" d="M13.6,28.1c-0.2,0.7-0.7,1.1-1.5,0.8c-0.8-0.2-1.6-1-1.4-1.7c0.2-0.7,1.6-1,2.4-0.8
						C13.9,26.8,13.8,27.4,13.6,28.1z"/>
				</g>
				<g>
					<path fill="#C9A28F" d="M3.1,28.1c0.2,0.7,0.7,1.1,1.5,0.8c0.8-0.2,1.6-1,1.4-1.7s-1.6-1-2.4-0.8S2.9,27.4,3.1,28.1z"/>
				</g>
				<g>
					<path fill="#E8CEC1" d="M12.4,26c0,2.8-1.1,6.4-4,6.4s-4-3.6-4-6.4s1.1-3.8,4-3.8S12.4,23.2,12.4,26z"/>
				</g>
				<g>
					<path fill="#894D47" d="M2.2,25c2.6-0.7,2.1-5.5,4.7-3.4C8.5,23,5.1,27.3,2.2,25z"/>
				</g>
				<g>
					<path fill="#894D47" d="M12.5,26.3C10.6,23.4,5.3,26,6.7,22C7.6,19.4,13.9,21.8,12.5,26.3z"/>
				</g>
				<g>
					<polygon fill="#FA4968" points="7.8,35.4 7.1,39.2 8.3,40.1 9.5,39.2 8.8,35.4 					"/>
				</g>
				<g>
					<path fill="#DDEDEB" d="M11.6,33.7l-1.7,2.9l-1.6-1.2l1.6-1.9C10.6,33.5,11.1,33.5,11.6,33.7z"/>
				</g>
				<g>
					<path fill="#DDEDEB" d="M5.1,33.7l1.7,2.9l1.6-1.2l-1.6-1.9C6.1,33.5,5.6,33.5,5.1,33.7z"/>
				</g>
			</g>
		</g>
		<g>
			<g>
				<path fill="#E5E5E5" d="M28.6,48.5c2.6,0,4.9-2,4.9-4.6l0,0c0-4.7-3.9-5.5-8.8-5.5s-8.8,0.8-8.8,5.5l0,0c0,2.6,2.3,4.6,4.9,4.6
					H28.6z"/>
			</g>
			<g>
				<path fill="#6CD8D5" d="M33.5,43.8L33.5,43.8c0,2.6-2.3,4.6-4.9,4.6h-7.8c-2.6,0-4.9-2-4.9-4.6l0,0c0-4.7,3.9-5.5,8.8-5.5
					c0.7,0,1.4,0,2.1,0.1s1.5,0.1,2.1,0.3C31.6,39.2,33.5,40.6,33.5,43.8z"/>
			</g>
			<g>
				<path fill="#D9BAA8" d="M23.1,33.6c0,0-0.4,4.8-0.4,5.2c0,1.1,0.9,2,2,2s2-0.9,2-2c0-0.5-0.4-5.2-0.4-5.2H23.1z"/>
			</g>
			<g>
				<path fill="#C9A28F" d="M31.4,31.6c-0.3,0.9-0.9,1.4-1.9,1.1s-2-1.3-1.7-2.2c0.3-0.9,2.1-1.3,3.1-1S31.7,30.7,31.4,31.6z"/>
			</g>
			<g>
				<path fill="#C9A28F" d="M18,31.6c0.3,0.9,0.9,1.4,1.9,1.1s2-1.3,1.7-2.2c-0.3-0.9-2.1-1.3-3.1-1S17.7,30.7,18,31.6z"/>
			</g>
			<g>
				<path fill="#E8CEC1" d="M29.9,28.9c0,3.6-1.5,8.2-5.2,8.2s-5.2-4.6-5.2-8.2S21,24,24.7,24S29.9,25.3,29.9,28.9z"/>
			</g>
			<g>
				<path fill="#894D47" d="M16.8,27.6c3.3-0.9,2.7-7.1,6-4.4C24.9,25,20.5,30.5,16.8,27.6z"/>
			</g>
			<g>
				<path fill="#894D47" d="M30,29.2c-2.5-3.7-9.3-0.4-7.5-5.5C23.7,20.4,31.8,23.5,30,29.2z"/>
			</g>
			<g>
				<polygon fill="#FA4968" points="24,40.9 23.1,45.8 24.6,46.9 26.2,45.8 25.2,40.9 				"/>
			</g>
			<g>
				<path fill="#DDEDEB" d="M28.9,38.7l-2.2,3.8l-2-1.6l2.1-2.4C27.6,38.5,28.3,38.5,28.9,38.7z"/>
			</g>
			<g>
				<path fill="#DDEDEB" d="M20.5,38.7l2.2,3.8l2-1.6l-2.1-2.4C21.8,38.5,21.1,38.5,20.5,38.7z"/>
			</g>
		</g>
	</g>
	<g>
		<g>
			<path fill="#FFB95C" d="M21.3,14.9h5.9c0.3-1,0.8-1.8,1.5-2.6c1.2-1.3,1.9-3.1,1.6-5.1C29.9,4.4,27.7,2.3,25,2
				c-3.7-0.4-6.9,2.5-6.9,6.1c0,1.6,0.6,3,1.6,4.1C20.4,13,21,13.9,21.3,14.9z"/>
		</g>
		<g>
			<path fill="#FFCA8A" d="M20.2,6.5l-0.9-0.4C19.7,5,20.6,4,21.6,3.4l0.5,0.9C21.2,4.8,20.6,5.6,20.2,6.5z"/>
		</g>
		<g>
			<path fill="#FFCA8A" d="M22.9,3.9l-0.3-1c0.2-0.1,0.5-0.1,0.8-0.2l0.2,1C23.4,3.8,23.1,3.9,22.9,3.9z"/>
		</g>
		<g>
			<path fill="#FFFFFF" d="M25.7,14.9h-1V9.4h-0.9v5.3h-1V9.4h-0.4C21.6,9.4,21,8.7,21,8s0.6-1.4,1.4-1.4s1.4,0.6,1.4,1.4v0.4h0.9V8
				c0-0.8,0.6-1.4,1.4-1.4s1.4,0.6,1.4,1.4s-0.6,1.4-1.4,1.4h-0.4C25.7,9.4,25.7,14.9,25.7,14.9z M25.7,8.4h0.4
				c0.2,0,0.4-0.2,0.4-0.4c0-0.2-0.2-0.4-0.4-0.4c-0.2,0-0.4,0.2-0.4,0.4V8.4z M22.4,7.6C22.2,7.6,22,7.7,22,8
				c0,0.2,0.2,0.4,0.4,0.4h0.4V8C22.8,7.7,22.6,7.6,22.4,7.6z"/>
		</g>
		<g>
			<path fill="#616B77" d="M26.7,14.9h-5c-0.5,0-1,0.4-1,1l0,0c0,0.5,0.4,1,1,1h5c0.5,0,1-0.4,1-1l0,0
				C27.7,15.3,27.3,14.9,26.7,14.9z"/>
		</g>
		<g>
			<path fill="#616B77" d="M26.7,16.9h-5c-0.5,0-1,0.4-1,1c0,0.5,0.4,1,1,1h5c0.5,0,1-0.4,1-1S27.3,16.9,26.7,16.9z"/>
		</g>
		<g>
			<path fill="#616B77" d="M22.2,18.9c0.2,1,1,1.7,2,1.7s1.8-0.7,2-1.7H22.2z"/>
		</g>
		<g>
			<g>
				<g>
					<rect x="32" y="7.6" fill="#616B77" width="1" height="1"/>
					
						<rect x="29.6" y="1.7" transform="matrix(-0.7049 0.7093 -0.7093 -0.7049 52.7903 -17.6162)" fill="#616B77" width="1" height="1"/>
					
						<rect x="31.3" y="4.4" transform="matrix(-0.3844 -0.9232 0.9232 -0.3844 39.5504 36.1494)" fill="#616B77" width="1" height="1"/>
					
						<rect x="31.3" y="10.8" transform="matrix(0.9233 0.384 -0.384 0.9233 6.7724 -11.3601)" fill="#616B77" width="1" height="1"/>
				</g>
				<g>
					<rect x="15.6" y="7.6" fill="#616B77" width="1" height="1"/>
					
						<rect x="18" y="1.8" transform="matrix(-0.7091 0.7052 -0.7052 -0.7091 33.172 -9.0718)" fill="#616B77" width="1" height="1"/>
					
						<rect x="16.2" y="10.7" transform="matrix(-0.9233 0.384 -0.384 -0.9233 36.3816 15.1078)" fill="#616B77" width="1" height="1"/>
					<rect x="16.1" y="4.4" transform="matrix(0.923 0.3848 -0.3848 0.923 3.1702 -6.0151)" fill="#616B77" width="1" height="1"/>
				</g>
			</g>
		</g>
	</g>
</g>
</svg>
