<?xml version="1.0" encoding="utf-8"?>
<!-- Generator: Adobe Illustrator 18.0.0, SVG Export Plug-In . SVG Version: 6.00 Build 0)  -->
<!DOCTYPE svg PUBLIC "-//W3C//DTD SVG 1.1//EN" "http://www.w3.org/Graphics/SVG/1.1/DTD/svg11.dtd">
<svg version="1.1" id="Layer_1" xmlns="http://www.w3.org/2000/svg" xmlns:xlink="http://www.w3.org/1999/xlink" x="0px" y="0px"
	 viewBox="0 0 50 50" enable-background="new 0 0 50 50" xml:space="preserve">
<g>
	<g>
		<g>
			<ellipse fill="#525F70" cx="11.8" cy="16.6" rx="10.3" ry="10.3"/>
		</g>
		<g>
			<g>
				<path fill="#525F70" d="M10.4,8c0.4-0.1,0.9-0.1,1.3-0.1"/>
				<path fill="#616B77" d="M10.5,8.5l-0.2-1c0.5-0.1,0.9-0.1,1.4-0.1v1C11.4,8.4,10.9,8.4,10.5,8.5z"/>
			</g>
			<g>
				<path fill="#525F70" d="M3.1,16.6c0-3.5,2.1-6.5,5-7.9"/>
				<path fill="#616B77" d="M3.6,16.6h-1c0-3.6,2.1-6.8,5.3-8.3l0.4,0.9C5.5,10.5,3.6,13.4,3.6,16.6z"/>
			</g>
		</g>
		<g>
			<ellipse fill="#525F70" cx="38.2" cy="16.6" rx="10.3" ry="10.3"/>
		</g>
		<g>
			<g>
				<path fill="#525F70" d="M46.8,15.2c0.1,0.4,0.1,0.9,0.1,1.4"/>
				<path fill="#616B77" d="M47.4,16.6h-1c0-0.4,0-0.9-0.1-1.3l1-0.2C47.4,15.6,47.4,16.1,47.4,16.6z"/>
			</g>
			<g>
				<path fill="#525F70" d="M38.2,7.9c3.6,0,6.7,2.3,8,5.4"/>
				<path fill="#616B77" d="M45.8,13.5c-1.3-3.1-4.2-5.1-7.6-5.1v-1c3.8,0,7.1,2.3,8.5,5.7L45.8,13.5z"/>
			</g>
		</g>
		<g>
			<g>
				<ellipse fill="#559AFF" cx="38.2" cy="16.6" rx="6.9" ry="6.9"/>
			</g>
			<g>
				<path fill="#559AFF" d="M39.1,12.5c-0.3-0.1-0.6-0.1-0.9-0.1"/>
				<path fill="#6EB0FF" d="M39,13c-0.3-0.1-0.5-0.1-0.8-0.1v-1c0.3,0,0.6,0,1,0.1L39,13z"/>
			</g>
			<g>
				<path fill="#559AFF" d="M36.9,12.7c-1,0.3-1.8,1.1-2.3,2"/>
				<path fill="#6EB0FF" d="M35,14.9l-0.9-0.5c0.6-1.1,1.5-1.9,2.6-2.3L37,13C36.2,13.4,35.5,14.1,35,14.9z"/>
			</g>
		</g>
		<g>
			<g>
				<ellipse fill="#559AFF" cx="11.8" cy="16.6" rx="6.9" ry="6.9"/>
			</g>
			<g>
				<path fill="#559AFF" d="M12.6,12.5c-0.3-0.1-0.6-0.1-0.9-0.1"/>
				<path fill="#6EB0FF" d="M12.5,13c-0.3-0.1-0.5-0.1-0.8-0.1v-1c0.3,0,0.6,0,1,0.1L12.5,13z"/>
			</g>
			<g>
				<path fill="#559AFF" d="M10.4,12.7c-1,0.3-1.8,1.1-2.3,2"/>
				<path fill="#6EB0FF" d="M8.6,14.9l-0.9-0.5c0.6-1.1,1.5-1.9,2.6-2.3l0.3,0.9C9.7,13.4,9,14.1,8.6,14.9z"/>
			</g>
		</g>
		<g>
			<circle fill="#616B77" cx="25" cy="13.6" r="4.1"/>
		</g>
		<g>
			<circle fill="#425060" cx="25" cy="13.6" r="1.9"/>
		</g>
	</g>
	<g>
		<g>
			<g>
				<g>
					<path fill="#ABB734" d="M37.8,36.8L37.8,36.8c0,3.9-3.3,6.9-7.1,6.9H19.3c-3.9,0-7.1-3-7.1-6.8v-0.1c0-6,4.2-7.7,9.7-8.1
						l3.1,3.6l3.1-3.6c1.1,0.1,2.1,0.2,3.1,0.4C35.1,29.9,37.8,32,37.8,36.8z"/>
				</g>
				<g>
					<polygon fill="#FA4968" points="24,32.4 22.6,40.6 24.9,42.3 27.1,40.6 25.8,32.4 					"/>
				</g>
				<g>
					<path fill="#DDEDEB" d="M31.1,29.1L28,34.7l-3-2.4l3.1-3.6C29.2,28.8,30.2,28.9,31.1,29.1z"/>
				</g>
				<g>
					<path fill="#DDEDEB" d="M18.8,29.1l3.2,5.6l3-2.4l-3.1-3.6C20.8,28.8,19.8,28.9,18.8,29.1z"/>
				</g>
			</g>
		</g>
	</g>
</g>
</svg>
