<?xml version="1.0" encoding="utf-8"?>
<!-- Generator: Adobe Illustrator 18.0.0, SVG Export Plug-In . SVG Version: 6.00 Build 0)  -->
<!DOCTYPE svg PUBLIC "-//W3C//DTD SVG 1.1//EN" "http://www.w3.org/Graphics/SVG/1.1/DTD/svg11.dtd">
<svg version="1.1" id="Layer_1" xmlns="http://www.w3.org/2000/svg" xmlns:xlink="http://www.w3.org/1999/xlink" x="0px" y="0px"
	 viewBox="0 0 50 50" enable-background="new 0 0 50 50" xml:space="preserve">
<g>
	<g>
		<polygon fill="#ED2F58" points="21.8,15.5 29,15.5 19.8,2.1 12.6,2.1 		"/>
	</g>
	<g>
		<path fill="#6EB0FF" d="M44.7,10.7H5.3c-2.1,0-3.9,1.7-3.9,3.9V44c0,2.1,1.7,3.9,3.9,3.9h39.3c2.1,0,3.9-1.7,3.9-3.9V14.6
			C48.5,12.5,46.8,10.7,44.7,10.7z M29.7,16.8h-9.3c-0.9,0-1.6-0.7-1.6-1.6s0.7-1.6,1.6-1.6h9.3c0.9,0,1.6,0.7,1.6,1.6
			C31.2,16.1,30.5,16.8,29.7,16.8z"/>
	</g>
	<g>
		<path fill="#E5E5E5" d="M4.7,44.1V20c0-0.3,0.3-0.6,0.6-0.6h39.4c0.3,0,0.6,0.3,0.6,0.6v24.1c0,0.3-0.3,0.6-0.6,0.6H5.3
			C5,44.7,4.7,44.4,4.7,44.1z"/>
	</g>
	<g>
		<path fill="#E5E5E5" d="M17.7,41.5c1.9,0,3.5-1.5,3.5-3.3l0,0c0-3.4-2.9-4-6.4-4s-6.4,0.6-6.4,4l0,0c0,1.9,1.6,3.3,3.5,3.3H17.7z"
			/>
	</g>
	<g>
		<path fill="#FA4968" d="M21.3,38.1L21.3,38.1c0,1.9-1.6,3.4-3.5,3.4h-5.6c-1.9,0-3.5-1.5-3.5-3.3l0,0c0-3.4,2.9-4,6.4-4
			c0.5,0,1,0,1.5,0s1.1,0.1,1.5,0.2C19.9,34.8,21.3,35.8,21.3,38.1z"/>
	</g>
	<g>
		<path fill="#D9BAA8" d="M13.7,30.7c0,0-0.3,3.5-0.3,3.8c0,0.8,0.7,1.4,1.5,1.4s1.5-0.6,1.5-1.4c0-0.3-0.3-3.8-0.3-3.8H13.7z"/>
	</g>
	<g>
		<path fill="#C9A28F" d="M19.8,29.3c-0.2,0.7-0.7,1-1.4,0.8c-0.7-0.2-1.5-0.9-1.3-1.6s1.5-0.9,2.3-0.7C20.1,28,20,28.6,19.8,29.3z"
			/>
	</g>
	<g>
		<path fill="#C9A28F" d="M10,29.3c0.2,0.7,0.7,1,1.4,0.8s1.5-0.9,1.3-1.6s-1.5-0.9-2.3-0.7S9.8,28.6,10,29.3z"/>
	</g>
	<g>
		<path fill="#E8CEC1" d="M18.6,27.3c0,2.6-1.1,5.9-3.7,5.9c-2.7,0-3.7-3.3-3.7-5.9s1.1-3.5,3.7-3.5C17.6,23.8,18.6,24.7,18.6,27.3z
			"/>
	</g>
	<g>
		<path fill="#894D47" d="M9.2,26.4c2.4-0.7,2-5.1,4.3-3.2C15.1,24.5,11.9,28.5,9.2,26.4z"/>
	</g>
	<g>
		<path fill="#894D47" d="M18.8,27.5c-1.8-2.7-6.7-0.3-5.4-4C14.2,21.2,20.1,23.4,18.8,27.5z"/>
	</g>
	<g>
		<polygon fill="#FFB95C" points="14.4,36 13.7,39.6 14.8,40.4 16,39.6 15.3,36 		"/>
	</g>
	<g>
		<path fill="#DDEDEB" d="M18,34.4l-1.6,2.7L14.9,36l1.5-1.8C17,34.2,17.5,34.3,18,34.4z"/>
	</g>
	<g>
		<path fill="#DDEDEB" d="M11.8,34.4l1.6,2.7l1.5-1.1l-1.5-1.8C12.8,34.2,12.3,34.3,11.8,34.4z"/>
	</g>
	<g>
		<rect x="23.6" y="24.3" fill="#FFB95C" width="18" height="3.5"/>
	</g>
	<g>
		<g>
			<line fill="none" x1="23.6" y1="31" x2="41.6" y2="31"/>
			<rect x="23.6" y="30.5" fill="#CCCACA" width="18" height="1"/>
		</g>
		<g>
			<line fill="none" x1="23.6" y1="33.9" x2="41.6" y2="33.9"/>
			<rect x="23.6" y="33.4" fill="#CCCACA" width="18" height="1"/>
		</g>
		<g>
			<line fill="none" x1="23.6" y1="36.8" x2="29.6" y2="36.8"/>
			<rect x="23.6" y="36.3" fill="#CCCACA" width="6.1" height="1"/>
		</g>
		<g>
			<line fill="none" x1="23.6" y1="39.7" x2="34.9" y2="39.7"/>
			<rect x="23.6" y="39.2" fill="#CCCACA" width="11.4" height="1"/>
		</g>
	</g>
	<g>
		<polygon fill="#FA4968" points="29.1,15.5 21.9,15.5 31.1,2.1 38.3,2.1 		"/>
	</g>
</g>
</svg>
