<?xml version="1.0" encoding="utf-8"?>
<!-- Generator: Adobe Illustrator 18.0.0, SVG Export Plug-In . SVG Version: 6.00 Build 0)  -->
<!DOCTYPE svg PUBLIC "-//W3C//DTD SVG 1.1//EN" "http://www.w3.org/Graphics/SVG/1.1/DTD/svg11.dtd">
<svg version="1.1" id="Layer_1" xmlns="http://www.w3.org/2000/svg" xmlns:xlink="http://www.w3.org/1999/xlink" x="0px" y="0px"
	 viewBox="0 0 50 50" enable-background="new 0 0 50 50" xml:space="preserve">
<g>
	<g>
		<g>
			<g>
				<path fill="#F4F4F4" d="M36.9,49H13.1c-2.3,0-4.2-1.9-4.2-4.2V11.2c0-2.3,1.9-4.2,4.2-4.2H37c2.3,0,4.2,1.9,4.2,4.2v33.6
					C41.1,47.1,39.2,49,36.9,49z"/>
			</g>
		</g>
		<g>
			<path fill="#FECD04" d="M33.4,7.3L33.4,7.3c0,1.2-1,2.2-2.2,2.2H18.8c-1.2,0-2.2-1-2.2-2.2l0,0c0-1.5,1.3-2.8,2.8-2.8H22V4
				c0-1.7,1.3-3,3-3l0,0c1.7,0,3,1.3,3,3v0.5h2.6C32.1,4.5,33.4,5.8,33.4,7.3z"/>
		</g>
	</g>
	<g>
		<polygon fill="#425060" points="21.3,19.8 19.6,17.4 16.8,19.4 16.2,18.6 19.9,16 21.5,18.4 26.1,15.2 27.9,17.8 33.2,14.1 
			33.8,14.9 27.7,19.2 25.8,16.6 		"/>
	</g>
	<g>
		<polygon fill="#425060" points="33.6,17.2 32.6,17.1 33,14.9 30.8,14.5 31,13.5 34.1,14.1 		"/>
	</g>
	<g>
		<g>
			<rect x="14.2" y="22.9" fill="#FECD04" width="2.3" height="4.4"/>
		</g>
		<g>
			<rect x="19" y="24.6" fill="#ABB734" width="2.3" height="2.7"/>
		</g>
		<g>
			<rect x="23.9" y="21.7" fill="#FFB95C" width="2.3" height="5.6"/>
		</g>
		<g>
			<rect x="28.7" y="23.8" fill="#FA4968" width="2.3" height="3.5"/>
		</g>
		<g>
			<rect x="33.5" y="22.4" fill="#559AFF" width="2.3" height="5"/>
		</g>
	</g>
	<g>
		<g>
			<rect x="14.2" y="26" fill="#EABE06" width="2.3" height="1.3"/>
		</g>
		<g>
			<rect x="19" y="26" fill="#9B9B1B" width="2.3" height="1.3"/>
		</g>
		<g>
			<rect x="23.9" y="26" fill="#F9A846" width="2.3" height="1.3"/>
		</g>
		<g>
			<rect x="28.7" y="26" fill="#ED2F58" width="2.3" height="1.3"/>
		</g>
		<g>
			<rect x="33.5" y="26" fill="#3A8BED" width="2.3" height="1.3"/>
		</g>
	</g>
	<g>
		<g>
			<g>
				<path fill="#6CD8D5" d="M18.4,38.1L16,34.6c-1.1,0.7-1.9,2-1.9,3.5c0,2.3,1.9,4.2,4.2,4.2c1.8,0,3.4-1.2,3.9-2.9L18.4,38.1z"/>
			</g>
			<g>
				<path fill="#C5DFDC" d="M18.4,33.9c-0.9,0-1.7,0.3-2.3,0.7l2.3,3.5l3-2.9C20.6,34.4,19.5,33.9,18.4,33.9z"/>
			</g>
			<g>
				<path fill="#FECD04" d="M18.4,38.1L18.4,38.1l3.9,1.3c0.1-0.4,0.2-0.9,0.2-1.3c0-1.2-0.5-2.2-1.2-2.9L18.4,38.1z"/>
			</g>
		</g>
	</g>
	<g>
		<g>
			<line fill="none" x1="24.7" y1="32.7" x2="35.8" y2="32.7"/>
			<rect x="24.7" y="32.2" fill="#CCCACA" width="11.1" height="1"/>
		</g>
		<g>
			<line fill="none" x1="24.7" y1="35.4" x2="35.8" y2="35.4"/>
			<rect x="24.7" y="34.9" fill="#CCCACA" width="11.1" height="1"/>
		</g>
		<g>
			<line fill="none" x1="24.7" y1="38.1" x2="35.8" y2="38.1"/>
			<rect x="24.7" y="37.6" fill="#CCCACA" width="11.1" height="1"/>
		</g>
		<g>
			<line fill="none" x1="24.7" y1="40.8" x2="35.8" y2="40.8"/>
			<rect x="24.7" y="40.3" fill="#CCCACA" width="11.1" height="1"/>
		</g>
		<g>
			<line fill="none" x1="24.7" y1="43.5" x2="35.8" y2="43.5"/>
			<rect x="24.7" y="43" fill="#CCCACA" width="11.1" height="1"/>
		</g>
	</g>
</g>
</svg>
