<?xml version="1.0" encoding="utf-8"?>
<!-- Generator: Adobe Illustrator 18.0.0, SVG Export Plug-In . SVG Version: 6.00 Build 0)  -->
<!DOCTYPE svg PUBLIC "-//W3C//DTD SVG 1.1//EN" "http://www.w3.org/Graphics/SVG/1.1/DTD/svg11.dtd">
<svg version="1.1" id="Layer_1" xmlns="http://www.w3.org/2000/svg" xmlns:xlink="http://www.w3.org/1999/xlink" x="0px" y="0px"
	 viewBox="0 0 50 50" enable-background="new 0 0 50 50" xml:space="preserve">
<g>
	<g>
		<path fill="#9B9B1B" d="M38.8,13.3c-1,2-2.3,4-3.7,5.8c-1.4,1.8-3.1,3.5-4.8,4.6c-0.8,0.4-1,1.4-0.5,2.2c1.5,2,4.1-0.9,5.4-1.7
			c3-2.6,5.3-5.5,7.4-8.9C43.8,12.8,40.1,10.8,38.8,13.3L38.8,13.3z"/>
	</g>
	<g>
		<path fill="#6E9583" d="M36.1,46.7c0.2,2.4,3.8,2.3,3.8-0.1c0-4.3-0.1-8.4,1.3-12.6c-0.1,2.9,0.2,5.8,1.1,8.6
			c0.4,1.5,0.8,3,1.3,4.5c0.3,1,1.3,1.5,2.3,1.2c0.9-0.3,1.5-1.2,1.3-2.1c-0.9-4.3-2-8.6-1.1-13.1c0.2-1.5,0.4-3,0.7-4.5l0,0
			c0.8-4.4,1.1-9.2,0.8-14.3c-0.1-2.4-2.2-2.9-4.6-2.7c-2.5,0.1-4.4,0.8-4.3,3.3c0.3,4.6,0,8.8-0.7,12.5c0,0.1-0.1,0.1-0.1,0.2
			c-0.8,3.3-1.5,6.2-2,9.6C35.6,40.4,35.9,43.5,36.1,46.7z"/>
	</g>
	<g>
		<path fill="#ABB734" d="M46.6,28.7v0.1l-8.9-1.3c0-0.1,0-0.1,0.1-0.2c0.7-3.7,1-7.9,0.7-12.5c-0.1-2.4,1.8-3.1,4.3-3.3
			c2.5-0.1,4.5,0.3,4.6,2.7C47.7,19.4,47.5,24.3,46.6,28.7L46.6,28.7z"/>
	</g>
	<g>
		<path fill="#C6CC4A" d="M44.9,13.6c-1.4,0.3-1.8,1.8-0.8,4.7c0.2,1.1,0.3,2.2,0.3,3.3c0.1,2.3,0,4.7-0.6,6.7c-0.3,0.8,0.2,1.7,1,2
			c2.4,0.6,2.5-3.3,2.9-4.8c0.4-3.2,0.4-6.4,0-9.6C47.5,14.3,46.2,13.3,44.9,13.6z"/>
	</g>
	<g>
		<ellipse fill="#616B77" cx="42.3" cy="5.2" rx="3.8" ry="3.7"/>
	</g>
	<g>
		
			<rect x="37.7" y="27.4" transform="matrix(-0.9902 -0.1396 0.1396 -0.9902 77.1097 61.195)" fill="#425060" width="6" height="1"/>
	</g>
	<g>
		<path fill="#ED2F58" d="M11.3,13.3c1,2,2.3,4,3.7,5.8c1.4,1.8,3.1,3.5,4.8,4.6c0.8,0.4,1,1.4,0.5,2.2c-1.5,2-4.1-0.9-5.4-1.7
			c-3-2.6-5.3-5.5-7.4-8.9C6.3,12.8,10,10.8,11.3,13.3L11.3,13.3z"/>
	</g>
	<g>
		<path fill="#559AFF" d="M14,46.7c-0.2,2.4-3.8,2.3-3.8-0.1c0-4.3,0.1-8.4-1.3-12.6c0.1,2.9-0.2,5.8-1.1,8.6
			c-0.4,1.5-0.8,3-1.3,4.5c-0.3,1-1.3,1.5-2.3,1.2c-0.9-0.3-1.5-1.2-1.3-2.1c0.9-4.3,2-8.6,1.1-13.1c-0.2-1.5-0.4-3-0.7-4.5l0,0
			c-0.8-4.4-1.1-9.2-0.8-14.3c0.1-2.4,2.2-2.9,4.6-2.7c2.5,0.1,4.4,0.8,4.3,3.3c-0.3,4.6,0,8.8,0.7,12.5c0,0.1,0.1,0.1,0.1,0.2
			c0.8,3.3,1.5,6.2,2,9.6C14.5,40.4,14.2,43.5,14,46.7z"/>
	</g>
	<g>
		<path fill="#FA4968" d="M3.4,28.7v0.1l8.9-1.3c0-0.1,0-0.1-0.1-0.2c-0.7-3.7-1-7.9-0.7-12.5c0.1-2.4-1.8-3.1-4.3-3.3
			c-2.5-0.1-4.5,0.3-4.6,2.7C2.3,19.4,2.6,24.3,3.4,28.7L3.4,28.7z"/>
	</g>
	<g>
		<path fill="#FF6989" d="M5.1,13.6c1.4,0.3,1.8,1.8,0.8,4.7c-0.2,1.1-0.3,2.2-0.3,3.3c-0.1,2.3,0,4.7,0.6,6.7c0.3,0.8-0.2,1.7-1,2
			c-2.4,0.6-2.5-3.3-2.9-4.8c-0.4-3.2-0.4-6.4,0-9.6C2.5,14.3,3.8,13.3,5.1,13.6z"/>
	</g>
	<g>
		<ellipse fill="#616B77" cx="7.8" cy="5.2" rx="3.8" ry="3.7"/>
	</g>
	<g>
		
			<rect x="8.8" y="24.9" transform="matrix(-0.1387 -0.9903 0.9903 -0.1387 -16.9806 41.0056)" fill="#425060" width="1" height="6"/>
	</g>
	<g>
		<polygon fill="#FFB95C" points="25,4.2 27.2,8.6 32.1,9.3 28.6,12.7 29.4,17.5 25,15.2 20.7,17.5 21.5,12.7 18,9.3 22.9,8.6 		"/>
	</g>
	<g>
		<polygon fill="#FECD04" points="25,30.3 27.2,34.7 32.1,35.4 28.6,38.8 29.4,43.6 25,41.3 20.7,43.6 21.5,38.8 18,35.4 22.9,34.7 
					"/>
	</g>
</g>
</svg>
