<?xml version="1.0" encoding="utf-8"?>
<!-- Generator: Adobe Illustrator 18.0.0, SVG Export Plug-In . SVG Version: 6.00 Build 0)  -->
<!DOCTYPE svg PUBLIC "-//W3C//DTD SVG 1.1//EN" "http://www.w3.org/Graphics/SVG/1.1/DTD/svg11.dtd">
<svg version="1.1" id="Layer_1" xmlns="http://www.w3.org/2000/svg" xmlns:xlink="http://www.w3.org/1999/xlink" x="0px" y="0px"
	 viewBox="0 0 50 50" enable-background="new 0 0 50 50" xml:space="preserve">
<g>
	<g>
		<path fill="#E5E5E5" d="M24.6,32.7c3,0,5.6-2.4,5.6-5.3c0,0,0,0,0-0.1c0-5.5-4.5-6.4-10-6.4s-10,0.9-10,6.4c0,0,0,0,0,0.1
			c0,3,2.6,5.3,5.6,5.3H24.6z"/>
	</g>
	<g>
		<path fill="#616B77" d="M30.1,27.3L30.1,27.3c0,3-2.6,5.4-5.6,5.4h-8.9c-3,0-5.6-2.4-5.6-5.3v-0.1c0-5.5,4.5-6.4,10-6.4
			c0.8,0,1.6,0,2.4,0.1c0.9,0.1,1.7,0.2,2.4,0.3C28,21.9,30.1,23.6,30.1,27.3z"/>
	</g>
	<g>
		<path fill="#D9BAA8" d="M18.2,15.4c0,0-0.5,5.6-0.5,6.1c0,1.3,1,2.3,2.3,2.3s2.3-1,2.3-2.3c0-0.5-0.5-6.1-0.5-6.1H18.2z"/>
	</g>
	<g>
		<path fill="#C9A28F" d="M27.8,13.1c-0.3,1-1.1,1.6-2.2,1.2c-1.2-0.4-2.3-1.5-2-2.5s2.4-1.5,3.6-1.1C28.3,11,28.1,12,27.8,13.1z"/>
	</g>
	<g>
		<path fill="#C9A28F" d="M12.4,13.1c0.3,1,1.1,1.6,2.2,1.2c1.2-0.4,2.3-1.5,2-2.5c-0.3-1-2.4-1.5-3.6-1.1
			C11.9,11,12.1,12,12.4,13.1z"/>
	</g>
	<g>
		<path fill="#E8CEC1" d="M26,9.9c0,4.2-1.7,9.5-5.9,9.5s-5.9-5.3-5.9-9.5s1.7-5.7,5.9-5.7S26,5.7,26,9.9z"/>
	</g>
	<g>
		<path fill="#894D47" d="M11.1,8.4C15,7.3,14.2,0.2,18,3.3C20.4,5.4,15.3,11.8,11.1,8.4z"/>
	</g>
	<g>
		<path fill="#894D47" d="M26.2,10.3C23.4,6,15.6,9.9,17.6,3.9C18.9,0,28.3,3.7,26.2,10.3z"/>
	</g>
	<g>
		<polygon fill="#FA4968" points="19.3,23.8 18.2,29.6 20,30.9 21.8,29.6 20.7,23.8 		"/>
	</g>
	<g>
		<path fill="#DDEDEB" d="M24.9,21.3l-2.5,4.4l-2.3-1.8l2.4-2.8C23.4,21,24.2,21.1,24.9,21.3z"/>
	</g>
	<g>
		<path fill="#DDEDEB" d="M15.3,21.3l2.5,4.4l2.3-1.8L17.7,21C16.8,21,16,21.1,15.3,21.3z"/>
	</g>
	<g>
		<path fill="#A7CEC8" d="M36.7,41.5H19.1c-1.2,0-2.1-1.2-1.7-2.3l2.7-9.7c0.2-0.8,0.9-1.3,1.7-1.3h17.6c1.2,0,2.1,1.2,1.7,2.3
			l-2.7,9.7C38.2,41,37.5,41.5,36.7,41.5z"/>
	</g>
	<g>
		<ellipse fill="#DDEDEB" cx="29.5" cy="34" rx="1.6" ry="1.6"/>
	</g>
	<g>
		<polygon fill="#9AB2A5" points="32.6,47.7 26.3,47.7 27.1,38.2 30.5,38.2 		"/>
	</g>
	<g>
		<line fill="none" x1="24.6" y1="47.7" x2="34.4" y2="47.7"/>
	</g>
	<g>
		<path fill="#FECD04" d="M48.5,41c-0.2,0.7-0.4,1.4-0.8,2c-0.7-0.3-1.4-0.2-1.8,0.2c-0.4,0.4-0.5,1.1-0.2,1.9
			c-0.6,0.4-1.2,0.7-1.9,0.8c-0.3-0.7-0.9-1.1-1.5-1.1s-1.1,0.4-1.5,1.1c-0.7-0.2-1.4-0.4-1.9-0.8c0.3-0.7,0.2-1.4-0.2-1.9
			c-0.4-0.4-1.1-0.5-1.8-0.2c-0.4-0.6-0.6-1.3-0.8-2c0.7-0.3,1.1-0.9,1.1-1.5s-0.4-1.2-1.1-1.5c0.2-0.7,0.4-1.4,0.8-2
			c0.7,0.3,1.4,0.2,1.9-0.2c0.4-0.4,0.5-1.1,0.2-1.9c0.6-0.4,1.2-0.7,1.9-0.8c0.3,0.7,0.9,1.1,1.5,1.1s1.2-0.4,1.5-1.1
			c0.7,0.2,1.3,0.4,1.9,0.8c-0.3,0.7-0.2,1.4,0.2,1.9c0.4,0.4,1.1,0.5,1.8,0.2c0.4,0.6,0.6,1.3,0.8,2c-0.7,0.3-1.1,0.9-1.1,1.5
			C47.4,40.1,47.8,40.7,48.5,41z"/>
	</g>
	<g>
		<circle fill="#FFFFFF" cx="42.2" cy="39.5" r="2.9"/>
	</g>
	<g>
		<path fill="#559AFF" d="M15,43.2c0,0.5,0,1-0.1,1.5c-0.3,1.5-1.6,2.6-3.2,2.6H4.8c-1.5,0-2.9-1.1-3.2-2.6c-0.1-0.5-0.1-1-0.1-1.5
			c0-2.8,1.7-3.8,4.1-4.1l2.6,2.2l2.6-2.2C13.3,39.4,15,40.4,15,43.2z"/>
	</g>
	<g opacity="0.2">
		<path fill="#FFFFFF" d="M11.7,45.7H4.8c-0.8,0-1.4-0.5-1.6-1.2c-0.1-0.4-0.1-0.8-0.1-1.2h1c0,0.3,0,0.7,0.1,1
			c0,0.2,0.3,0.4,0.6,0.4h6.8c0.3,0,0.5-0.2,0.6-0.4c0.1-0.4,0.1-0.7,0.1-1h1c0,0.4,0,0.8-0.1,1.2C13.1,45.1,12.4,45.7,11.7,45.7z"
			/>
	</g>
	<g>
		<ellipse fill="#559AFF" cx="8.2" cy="35" rx="3.2" ry="3.3"/>
	</g>
	<g>
		<path fill="#6CD8D5" d="M45.6,18.9c0,0.5-0.1,1.1-0.2,1.6c-0.3,1.7-1.8,2.9-3.5,2.9h-7.6c-1.7,0-3.2-1.2-3.5-2.9
			c-0.1-0.6-0.1-1.1-0.1-1.6c0-3.1,1.9-4.2,4.6-4.6l2.9,2.5l2.9-2.5C43.7,14.7,45.6,15.8,45.6,18.9z"/>
	</g>
	<g opacity="0.2">
		<path fill="#FFFFFF" d="M41.9,21.6h-7.6c-0.8,0-1.5-0.6-1.7-1.3c-0.1-0.5-0.1-0.9-0.1-1.3h1c0,0.3,0,0.7,0.1,1.1
			c0.1,0.3,0.4,0.5,0.7,0.5h7.6c0.3,0,0.6-0.2,0.7-0.5c0.1-0.4,0.1-0.8,0.1-1.1h1c0,0.4,0,0.8-0.1,1.3C43.4,21,42.7,21.6,41.9,21.6z
			"/>
	</g>
	<g>
		<ellipse fill="#6CD8D5" cx="38.1" cy="9.7" rx="3.6" ry="3.6"/>
	</g>
	<g>
		<path fill="#FA4968" d="M10.6,16.8c0,3-3.5,4.3-3.5,4.3s-3.5-1.3-3.5-4.3c0-1.1,0.9-2,2-2c0.6,0,1.2,0.3,1.5,0.7
			c0.4-0.4,0.9-0.7,1.5-0.7C9.8,14.8,10.6,15.7,10.6,16.8z"/>
	</g>
</g>
</svg>
