<?xml version="1.0" encoding="utf-8"?>
<!-- Generator: Adobe Illustrator 18.0.0, SVG Export Plug-In . SVG Version: 6.00 Build 0)  -->
<!DOCTYPE svg PUBLIC "-//W3C//DTD SVG 1.1//EN" "http://www.w3.org/Graphics/SVG/1.1/DTD/svg11.dtd">
<svg version="1.1" id="Layer_1" xmlns="http://www.w3.org/2000/svg" xmlns:xlink="http://www.w3.org/1999/xlink" x="0px" y="0px"
	 viewBox="0 0 50 50" enable-background="new 0 0 50 50" xml:space="preserve">
<g>
	<g>
		<path fill="#8CF2ED" d="M48.5,13.2c0,0.5,0,1-0.1,1.5c-0.3,1.5-1.7,2.6-3.2,2.6h-6.9c-1.6,0-2.9-1.1-3.2-2.6
			c-0.1-0.5-0.1-1-0.1-1.5c0-2.9,1.7-3.9,4.2-4.2l2.6,2.3L44.3,9C46.8,9.3,48.5,10.3,48.5,13.2z"/>
	</g>
	<g opacity="0.2">
		<path fill="#FFFFFF" d="M45.1,15.6h-6.9c-0.8,0-1.4-0.5-1.6-1.3c-0.1-0.4-0.1-0.8-0.1-1.2h1c0,0.3,0,0.7,0.1,1
			c0,0.2,0.3,0.4,0.6,0.4h6.9c0.3,0,0.5-0.2,0.6-0.4c0.1-0.4,0.1-0.7,0.1-1h1c0,0.4,0,0.8-0.1,1.2C46.6,15.1,45.9,15.6,45.1,15.6z"
			/>
	</g>
	<g>
		<ellipse fill="#8CF2ED" cx="41.7" cy="4.8" rx="3.3" ry="3.3"/>
	</g>
	<g>
		<ellipse fill="#FA4968" cx="8.3" cy="4.8" rx="3.3" ry="3.3"/>
	</g>
	<g>
		<path fill="#FA4968" d="M15.2,13.2c0,0.5,0,1-0.1,1.5c-0.3,1.5-1.7,2.6-3.2,2.6h-7c-1.6,0-2.9-1.1-3.2-2.6c-0.1-0.5-0.1-1-0.1-1.5
			c0-2.9,1.7-3.9,4.2-4.2l2.6,2.3L11,9C13.4,9.3,15.2,10.3,15.2,13.2z"/>
	</g>
	<g opacity="0.2">
		<path fill="#FFFFFF" d="M11.8,15.6H4.9c-0.8,0-1.4-0.5-1.6-1.3c-0.1-0.4-0.1-0.8-0.1-1.2h1c0,0.3,0,0.7,0.1,1
			c0,0.2,0.3,0.4,0.6,0.4h6.9c0.3,0,0.5-0.2,0.6-0.4c0.1-0.4,0.1-0.7,0.1-1h1c0,0.4,0,0.8-0.1,1.2C13.2,15.1,12.6,15.6,11.8,15.6z"
			/>
	</g>
	<g>
		<path fill="#D9BAA8" d="M48.5,44.3c0,0.5,0,1-0.1,1.5c-0.3,1.5-1.7,2.6-3.2,2.6h-6.9c-1.6,0-2.9-1.1-3.2-2.6
			c-0.1-0.5-0.1-1-0.1-1.5c0-2.9,1.7-3.9,4.2-4.2l2.6,2.3l2.6-2.3C46.8,40.5,48.5,41.5,48.5,44.3z"/>
	</g>
	<g opacity="0.2">
		<path fill="#FFFFFF" d="M45.1,46.8h-6.9c-0.8,0-1.4-0.5-1.6-1.3c-0.1-0.4-0.1-0.8-0.1-1.2h1c0,0.3,0,0.7,0.1,1
			c0,0.2,0.3,0.4,0.6,0.4h6.9c0.3,0,0.5-0.2,0.6-0.4c0.1-0.4,0.1-0.7,0.1-1h1c0,0.4,0,0.8-0.1,1.2C46.6,46.3,45.9,46.8,45.1,46.8z"
			/>
	</g>
	<g>
		<ellipse fill="#D9BAA8" cx="41.7" cy="36" rx="3.3" ry="3.3"/>
	</g>
	<g>
		<ellipse fill="#ABB734" cx="8.3" cy="36" rx="3.3" ry="3.3"/>
	</g>
	<g>
		<path fill="#ABB734" d="M15.2,44.3c0,0.5,0,1-0.1,1.5c-0.3,1.5-1.7,2.6-3.2,2.6h-7c-1.6,0-2.9-1.1-3.2-2.6c-0.1-0.5-0.1-1-0.1-1.5
			c0-2.9,1.7-3.9,4.2-4.2l2.6,2.3l2.6-2.3C13.4,40.5,15.2,41.5,15.2,44.3z"/>
	</g>
	<g opacity="0.2">
		<path fill="#FFFFFF" d="M11.8,46.8H4.9c-0.8,0-1.4-0.5-1.6-1.3c-0.1-0.4-0.1-0.8-0.1-1.2h1c0,0.3,0,0.7,0.1,1
			c0,0.2,0.3,0.4,0.6,0.4h6.9c0.3,0,0.5-0.2,0.6-0.4c0.1-0.4,0.1-0.7,0.1-1h1c0,0.4,0,0.8-0.1,1.2C13.2,46.3,12.6,46.8,11.8,46.8z"
			/>
	</g>
	<g>
		<path fill="#559AFF" d="M14.5,34.3c0,0,2.6-0.1,4.8-1.6c1.8,1,3.9,1.6,6.3,1.6c5.9,0,10.6-3.7,10.6-8.3s-4.7-8.3-10.6-8.3
			S15,21.4,15,26c0,1.6,0.5,3,1.5,4.3C16.1,31.5,15.5,32.9,14.5,34.3z"/>
	</g>
	<g>
		<ellipse fill="#FFFFFF" cx="31.2" cy="25.9" rx="1.9" ry="1.9"/>
	</g>
	<g>
		<ellipse fill="#FFFFFF" cx="25.5" cy="25.9" rx="1.9" ry="1.9"/>
	</g>
	<g>
		<ellipse fill="#FFFFFF" cx="19.9" cy="25.9" rx="1.9" ry="1.9"/>
	</g>
</g>
</svg>
