<?xml version="1.0" encoding="utf-8"?>
<!-- Generator: Adobe Illustrator 18.0.0, SVG Export Plug-In . SVG Version: 6.00 Build 0)  -->
<!DOCTYPE svg PUBLIC "-//W3C//DTD SVG 1.1//EN" "http://www.w3.org/Graphics/SVG/1.1/DTD/svg11.dtd">
<svg version="1.1" id="Layer_1" xmlns="http://www.w3.org/2000/svg" xmlns:xlink="http://www.w3.org/1999/xlink" x="0px" y="0px"
	 viewBox="0 0 50 50" enable-background="new 0 0 50 50" xml:space="preserve">
<g>
	<g>
		<g>
			<path fill="#6CD8D5" d="M28.4,38.2c0,1.7,2.5,1.8,2.7,0.1c0.3-3,1-8.7,1-8.7l6.8,0.7c1.5,0.2,2.9-1,2.9-2.5c0-0.4,0-0.7,0.1-1
				l0,0c0.9-3,1.3-6.3,1.5-9.9c0.1-1.7-1.3-2.1-3-2.2c-1.7-0.1-3.1,0.3-3.2,2c-0.1,3.2-0.6,6.1-1.3,8.6l-0.1,0.1L32.6,25
				c-1.6-0.2-3.1,0.9-3.3,2.6C29,31.2,28.5,36.7,28.4,38.2z"/>
		</g>
		<g>
			<path fill="#FA4968" d="M42,26.9L42,26.9c0,0.1-6.1-1.4-6.1-1.4s0-0.1,0.1-0.1c0.8-2.5,1.2-5.4,1.3-8.6c0.1-1.7,1.5-2,3.2-2
				c1.7,0.1,3.1,0.5,3,2.2C43.4,20.6,42.9,23.9,42,26.9L42,26.9z"/>
		</g>
		<g>
			<path fill="#FF6989" d="M41.7,16.4c-1,0.1-1.3,1.1-0.9,3.2c0,0.8,0,1.5,0,2.3c-0.1,1.6-0.3,3.2-0.8,4.6c-0.2,0.6,0,1.2,0.6,1.4
				c1.7,0.6,2-2.1,2.3-3.2c0.5-2.2,0.7-4.4,0.6-6.7C43.5,17.1,42.7,16.2,41.7,16.4z"/>
		</g>
		<g>
			<ellipse fill="#616B77" cx="40.5" cy="10.5" rx="2.6" ry="2.6"/>
		</g>
		<g>
			
				<rect x="35.9" y="25.5" transform="matrix(-0.9733 -0.2296 0.2296 -0.9733 69.0145 60.041)" fill="#425060" width="4.2" height="1"/>
		</g>
	</g>
	<g>
		<g>
			<path fill="#6CD8D5" d="M21.1,38.2c0,1.7-2.5,1.8-2.7,0.1c-0.3-3-1-8.7-1-8.7l-6.8,0.7c-1.5,0.2-2.9-1-2.9-2.5c0-0.4,0-0.7-0.1-1
				l0,0c-0.9-3-1.3-6.3-1.5-9.9c-0.1-1.7,1.3-2.1,3-2.2c1.7-0.1,3.1,0.3,3.2,2c0.1,3.2,0.6,6.1,1.3,8.6l0.1,0.1l3.2-0.4
				c1.6-0.2,3.1,0.9,3.3,2.6C20.5,31.2,21,36.7,21.1,38.2z"/>
		</g>
		<g>
			<path fill="#ABB734" d="M7.5,26.9L7.5,26.9c0,0.1,6.1-1.4,6.1-1.4s0-0.1-0.1-0.1c-0.8-2.5-1.2-5.4-1.3-8.6c-0.1-1.7-1.5-2-3.2-2
				c-1.7,0.1-3,0.5-3,2.2C6.2,20.6,6.6,23.9,7.5,26.9L7.5,26.9z"/>
		</g>
		<g>
			<path fill="#C6CC4A" d="M7.8,16.4c1,0.1,1.3,1.1,0.9,3.2c0,0.8,0,1.5,0,2.3c0.1,1.6,0.3,3.2,0.8,4.6c0.2,0.6,0,1.2-0.6,1.4
				c-1.7,0.6-2-2.1-2.3-3.2C6.1,22.5,5.9,20.3,6,18C6,17.1,6.8,16.2,7.8,16.4z"/>
		</g>
		<g>
			<ellipse fill="#616B77" cx="9" cy="10.4" rx="2.6" ry="2.6"/>
		</g>
		<g>
			
				<rect x="11" y="23.9" transform="matrix(-0.2306 -0.9731 0.9731 -0.2306 -11.0822 43.1716)" fill="#425060" width="1" height="4.2"/>
		</g>
	</g>
	<g>
		<g>
			<path fill="#D9BAA8" d="M36.1,35.8c-0.2,0-0.4,0-0.5-0.1c-0.8-0.1-1.4-0.9-1.3-1.7c0.1-0.8,0.9-1.4,1.7-1.3
				c2,0.2,5.4,0.2,6.3-0.6c1.2-0.9,2.5-6.7,3.1-11.5c0.1-0.8,0.9-1.4,1.7-1.3s1.5,0.9,1.4,1.7c-0.3,2.6-1.5,11.3-4.2,13.5
				C42.2,36.1,37.8,35.9,36.1,35.8z"/>
		</g>
	</g>
	<g>
		<g>
			<path fill="#559AFF" d="M13.9,35.8c0.2,0,0.4,0,0.5-0.1c0.8-0.1,1.4-0.9,1.3-1.7c-0.1-0.8-0.9-1.4-1.7-1.3
				c-2,0.2-5.4,0.2-6.3-0.6c-1.2-0.9-2.5-6.7-3.1-11.5c-0.1-0.8-0.9-1.4-1.7-1.3S1.4,20.2,1.5,21C1.8,23.6,3,32.3,5.7,34.5
				C7.8,36.1,12.2,35.9,13.9,35.8z"/>
		</g>
	</g>
	<g>
		<g>
			<rect x="16.1" y="19.2" fill="#E5E5E5" width="17.7" height="2.9"/>
		</g>
		<g>
			<rect x="23.6" y="22.1" fill="#E5E5E5" width="2.8" height="17.4"/>
		</g>
	</g>
	<g>
		<g>
			<g>
				<polygon fill="#425060" points="43.8,42.2 39.9,39.8 36.1,42.2 35.6,41.3 39.9,38.6 44.3,41.3 				"/>
			</g>
			<g>
				<rect x="39.4" y="35.9" fill="#425060" width="1" height="3.3"/>
			</g>
		</g>
		<g>
			<g>
				<polygon fill="#425060" points="13.9,42.2 10.1,39.8 6.2,42.2 5.7,41.3 10.1,38.6 14.4,41.3 				"/>
			</g>
			<g>
				<rect x="9.6" y="35.9" fill="#425060" width="1" height="3.3"/>
			</g>
		</g>
	</g>
</g>
</svg>
