<?xml version="1.0" encoding="utf-8"?>
<!-- Generator: Adobe Illustrator 18.0.0, SVG Export Plug-In . SVG Version: 6.00 Build 0)  -->
<!DOCTYPE svg PUBLIC "-//W3C//DTD SVG 1.1//EN" "http://www.w3.org/Graphics/SVG/1.1/DTD/svg11.dtd">
<svg version="1.1" id="Layer_1" xmlns="http://www.w3.org/2000/svg" xmlns:xlink="http://www.w3.org/1999/xlink" x="0px" y="0px"
	 viewBox="0 0 50 50" enable-background="new 0 0 50 50" xml:space="preserve">
<g>
	<g>
		<path fill="#E5E5E5" d="M12.1,26.1c2.3,0,4.3-1.8,4.3-4l0,0c0-4.1-3.5-4.8-7.7-4.8C4.4,17.3,1,18,1,22.1l0,0c0,2.2,2,4,4.3,4
			C5.3,26.1,12.1,26.1,12.1,26.1z"/>
	</g>
	<g>
		<path fill="#616B77" d="M16.4,22.1L16.4,22.1c0,2.3-2,4.1-4.3,4.1H5.3c-2.3,0-4.3-1.8-4.3-4l0,0c0-4.1,3.5-4.8,7.7-4.8
			c0.6,0,1.3,0,1.9,0.1c0.7,0,1.3,0.1,1.8,0.2C14.8,18,16.4,19.2,16.4,22.1z"/>
	</g>
	<g>
		<path fill="#D9BAA8" d="M7.3,13.1c0,0-0.4,4.2-0.4,4.6c0,1,0.8,1.7,1.8,1.7s1.8-0.8,1.8-1.7c0-0.4-0.4-4.6-0.4-4.6H7.3z"/>
	</g>
	<g>
		<path fill="#C9A28F" d="M14.6,11.3c-0.3,0.8-0.8,1.2-1.7,0.9s-1.8-1.1-1.5-1.9c0.3-0.8,1.8-1.1,2.7-0.8S14.9,10.6,14.6,11.3z"/>
	</g>
	<g>
		<path fill="#C9A28F" d="M2.8,11.3c0.3,0.8,0.8,1.2,1.7,0.9c0.9-0.2,1.8-1,1.5-1.8C5.8,9.6,4.2,9.3,3.3,9.5
			C2.4,9.8,2.6,10.6,2.8,11.3z"/>
	</g>
	<g>
		<path fill="#E8CEC1" d="M13.3,9c0,3.2-1.3,7.2-4.5,7.2c-3.3,0-4.5-4-4.5-7.2s1.3-4.3,4.5-4.3C12,4.7,13.3,5.8,13.3,9z"/>
	</g>
	<g>
		<path fill="#894D47" d="M1.8,7.8C4.8,7,4.2,1.6,7.1,4C8.9,5.5,5,10.4,1.8,7.8z"/>
	</g>
	<g>
		<path fill="#894D47" d="M13.4,9.3C11.2,6,5.3,8.9,6.8,4.4C7.8,1.5,15,4.3,13.4,9.3z"/>
	</g>
	<g>
		<polygon fill="#FA4968" points="8.1,19.4 7.3,23.8 8.7,24.8 10,23.8 9.2,19.4 		"/>
	</g>
	<g>
		<path fill="#DDEDEB" d="M12.4,17.5l-1.9,3.3l-1.8-1.4l1.9-2.1C11.2,17.3,11.9,17.4,12.4,17.5z"/>
	</g>
	<g>
		<path fill="#DDEDEB" d="M5,17.5l1.9,3.3l1.8-1.4l-1.9-2.1C6.2,17.3,5.6,17.4,5,17.5z"/>
	</g>
	<g>
		<path fill="#E5E5E5" d="M44.5,3.4H23.8c-2.5,0-4.5,2-4.5,4.5v13.8c0,2.5,2,4.5,4.5,4.5h20.8c2.5,0,4.5-2,4.5-4.5V7.9
			C49,5.4,47,3.4,44.5,3.4z"/>
	</g>
	<g opacity="0.3">
		<path fill="#FFFFFF" d="M21.9,8h-1c0-1.7,1.4-3,3-3h4.3v1h-4.3C22.8,6,21.9,6.9,21.9,8z"/>
	</g>
	<g opacity="0.3">
		<rect x="30.4" y="4.9" fill="#FFFFFF" width="1.4" height="1"/>
	</g>
	<g>
		<ellipse fill="#559AFF" cx="41.5" cy="33.4" rx="3.5" ry="3.5"/>
	</g>
	<g opacity="0.3">
		<path fill="#FFFFFF" d="M40.6,33.4h-1c0-1.1,0.9-2,2-2v1C41,32.5,40.6,32.9,40.6,33.4z"/>
	</g>
	<g>
		<path fill="#559AFF" d="M48.8,42.3c0,0.5-0.1,1-0.2,1.6c-0.3,1.6-1.8,2.8-3.4,2.8h-7.4c-1.7,0-3.1-1.2-3.4-2.8
			c-0.1-0.6-0.1-1.1-0.1-1.6c0-3,1.8-4.1,4.5-4.5l2.8,2.4l2.8-2.4C46.9,38.2,48.8,39.3,48.8,42.3z"/>
	</g>
	<g opacity="0.3">
		<path fill="#FFFFFF" d="M45.2,44.9h-7.4c-0.8,0-1.5-0.6-1.6-1.3c-0.1-0.5-0.1-0.9-0.1-1.3h1c0,0.3,0,0.7,0.1,1.1
			c0,0.3,0.3,0.5,0.6,0.5h7.4c0.3,0,0.6-0.2,0.6-0.5c0.1-0.4,0.1-0.8,0.1-1.1h1c0,0.4,0,0.8-0.1,1.3C46.7,44.4,46,44.9,45.2,44.9z"
			/>
	</g>
	<g>
		<ellipse fill="#ABB734" cx="25" cy="33.4" rx="3.5" ry="3.5"/>
	</g>
	<g opacity="0.3">
		<path fill="#FFFFFF" d="M24.1,33.4h-1c0-1.1,0.9-2,2-2v1C24.5,32.5,24.1,32.9,24.1,33.4z"/>
	</g>
	<g>
		<path fill="#ABB734" d="M32.3,42.3c0,0.5-0.1,1-0.2,1.6c-0.3,1.6-1.8,2.8-3.4,2.8h-7.4c-1.7,0-3.1-1.2-3.4-2.8
			c-0.1-0.6-0.1-1.1-0.1-1.6c0-3,1.8-4.1,4.5-4.5l2.8,2.4l2.8-2.4C30.4,38.2,32.3,39.3,32.3,42.3z"/>
	</g>
	<g opacity="0.3">
		<path fill="#FFFFFF" d="M28.7,44.9h-7.4c-0.8,0-1.5-0.6-1.6-1.3c-0.1-0.5-0.1-0.9-0.1-1.3h1c0,0.3,0,0.7,0.1,1.1
			c0,0.3,0.3,0.5,0.6,0.5h7.4c0.3,0,0.6-0.2,0.6-0.5c0.1-0.4,0.1-0.8,0.1-1.1h1c0,0.4,0,0.8-0.1,1.3C30.2,44.4,29.5,44.9,28.7,44.9z
			"/>
	</g>
	<g>
		<ellipse fill="#FA4968" cx="8.5" cy="33.4" rx="3.5" ry="3.5"/>
	</g>
	<g opacity="0.3">
		<path fill="#FFFFFF" d="M7.6,33.4h-1c0-1.1,0.9-2,2-2v1C8,32.5,7.6,32.9,7.6,33.4z"/>
	</g>
	<g>
		<path fill="#FA4968" d="M15.8,42.3c0,0.5-0.1,1-0.2,1.6c-0.3,1.6-1.8,2.8-3.4,2.8H4.8c-1.7,0-3.1-1.2-3.4-2.8
			c-0.1-0.6-0.1-1.1-0.1-1.6c0-3,1.8-4.1,4.5-4.5l2.8,2.4l2.8-2.4C13.9,38.2,15.8,39.3,15.8,42.3z"/>
	</g>
	<g opacity="0.3">
		<path fill="#FFFFFF" d="M12.2,44.9H4.8c-0.8,0-1.5-0.6-1.6-1.3C3.1,43.2,3,42.7,3,42.3h1c0,0.3,0,0.7,0.1,1.1
			c0,0.3,0.3,0.5,0.6,0.5h7.4c0.3,0,0.6-0.2,0.6-0.5c0.1-0.4,0.1-0.8,0.1-1.1h1c0,0.4,0,0.8-0.1,1.3C13.7,44.4,13,44.9,12.2,44.9z"
			/>
	</g>
	<g>
		<polygon fill="#425060" points="30.4,13.1 28.7,10.6 25.7,12.7 25.1,11.9 28.9,9.2 30.6,11.6 35.2,8.4 37.1,11.1 42.6,7.3 
			43.2,8.1 36.9,12.5 35,9.8 		"/>
	</g>
	<g>
		<polygon fill="#425060" points="42.9,10.5 41.9,10.3 42.3,8.1 40.1,7.7 40.2,6.7 43.5,7.3 		"/>
	</g>
	<g>
		<g>
			<rect x="23.1" y="16.3" fill="#FECD04" width="2.3" height="4.5"/>
		</g>
		<g>
			<rect x="28" y="18" fill="#ABB734" width="2.3" height="2.8"/>
		</g>
		<g>
			<rect x="33" y="15" fill="#FFB95C" width="2.3" height="5.8"/>
		</g>
		<g>
			<rect x="37.9" y="17.2" fill="#FA4968" width="2.3" height="3.6"/>
		</g>
		<g>
			<rect x="42.9" y="15.7" fill="#559AFF" width="2.3" height="5.1"/>
		</g>
	</g>
	<g>
		<g>
			<rect x="23.1" y="19.5" fill="#EABE06" width="2.3" height="1.3"/>
		</g>
		<g>
			<rect x="28" y="19.5" fill="#9B9B1B" width="2.3" height="1.3"/>
		</g>
		<g>
			<rect x="33" y="19.5" fill="#F9A846" width="2.3" height="1.3"/>
		</g>
		<g>
			<rect x="37.9" y="19.5" fill="#ED2F58" width="2.3" height="1.3"/>
		</g>
		<g>
			<rect x="42.9" y="19.5" fill="#3A8BED" width="2.3" height="1.3"/>
		</g>
	</g>
</g>
</svg>
