<?xml version="1.0" encoding="utf-8"?>
<!-- Generator: Adobe Illustrator 18.0.0, SVG Export Plug-In . SVG Version: 6.00 Build 0)  -->
<!DOCTYPE svg PUBLIC "-//W3C//DTD SVG 1.1//EN" "http://www.w3.org/Graphics/SVG/1.1/DTD/svg11.dtd">
<svg version="1.1" id="Layer_1" xmlns="http://www.w3.org/2000/svg" xmlns:xlink="http://www.w3.org/1999/xlink" x="0px" y="0px"
	 viewBox="0 0 50 50" enable-background="new 0 0 50 50" xml:space="preserve">
<g>
	<g>
		<g>
			<g>
				<ellipse fill="#559AFF" cx="42" cy="33.2" rx="3.4" ry="3.4"/>
			</g>
			<g>
				<path fill="#559AFF" d="M49,41.8c0,0.5-0.1,1-0.1,1.5c-0.3,1.6-1.7,2.7-3.3,2.7h-7.1c-1.6,0-3-1.1-3.3-2.7
					C35,42.8,35,42.2,35,41.8c0-2.9,1.8-4,4.3-4.3l2.7,2.3l2.7-2.3C47.2,37.8,49,38.8,49,41.8z"/>
			</g>
			<g opacity="0.2">
				<path fill="#FFFFFF" d="M45.6,44.3h-7.1c-0.8,0-1.5-0.5-1.6-1.3c-0.1-0.4-0.1-0.9-0.1-1.2h1c0,0.3,0,0.7,0.1,1.1
					c0,0.3,0.3,0.4,0.6,0.4h7.1c0.3,0,0.6-0.2,0.6-0.4c0.1-0.4,0.1-0.7,0.1-1.1h1c0,0.4,0,0.8-0.1,1.2C47,43.7,46.3,44.3,45.6,44.3z
					"/>
			</g>
		</g>
		<g>
			<g>
				<ellipse fill="#ABB734" cx="26.1" cy="33.2" rx="3.4" ry="3.4"/>
			</g>
			<g>
				<path fill="#ABB734" d="M33.1,41.8c0,0.5-0.1,1-0.1,1.5c-0.3,1.6-1.7,2.7-3.3,2.7h-7.1c-1.6,0-3-1.1-3.3-2.7
					c-0.1-0.5-0.1-1.1-0.1-1.5c0-2.9,1.8-4,4.3-4.3l2.7,2.3l2.7-2.3C31.3,37.8,33.1,38.8,33.1,41.8z"/>
			</g>
			<g opacity="0.2">
				<path fill="#FFFFFF" d="M29.7,44.3h-7.1c-0.8,0-1.5-0.5-1.6-1.3c-0.1-0.4-0.1-0.9-0.1-1.2h1c0,0.3,0,0.7,0.1,1.1
					c0,0.3,0.3,0.4,0.6,0.4h7.1c0.3,0,0.6-0.2,0.6-0.4c0.1-0.4,0.1-0.7,0.1-1.1h1c0,0.4,0,0.8-0.1,1.2
					C31.1,43.7,30.4,44.3,29.7,44.3z"/>
			</g>
		</g>
	</g>
	<g>
		<ellipse fill="#616B77" cx="8.7" cy="7.3" rx="3.1" ry="3.1"/>
	</g>
	<g>
		<path fill="#FA4968" d="M24.6,3.8c-1.1,2.5-2.4,5-4,7.4c-1.4,1.9-3.5,3.8-4.9,5c-0.9,0.8-1.5,1.9-1.5,3.1L14,31.2v3l-0.2,12.5
			c0,1.1-1,1.9-2.2,1.9s-2.2-0.9-2.2-1.9c0,1.1-1,1.9-2.2,1.9C6,48.6,5,47.8,5,46.7L4.8,34.2v-3L4.6,19.4c0-1,0.1,6.9,0.1,10
			c0,0.7-0.5,1.3-1.2,1.5l0,0c-0.9,0.2-1.8-0.4-1.8-1.4L1,17.9c0-2.4,2-4.4,4.4-4.3c2.5,0.1,5.5-0.1,7.7-1.2
			c1.6-0.8,2.9-2.3,4.2-3.8c1.6-1.9,2.9-4,4.1-6.3C22.4,0.4,25.4,1.7,24.6,3.8z"/>
	</g>
	<g>
		<path fill="#616B77" d="M4.7,27.2v4v3L5,46.7c0,1.1,1,1.9,2.2,1.9s2.2-0.9,2.2-1.9c0,1.1,1,1.9,2.2,1.9s2.2-0.9,2.2-1.9L14,34.2
			v-3v-4H4.7z"/>
	</g>
	<g>
		<rect x="8.9" y="31.2" fill="#425060" width="1" height="15.5"/>
	</g>
	<g>
		<g>
			<path fill="#FECD04" d="M23.2,25.5c0,0,2.8-0.1,5.1-1.7c1.9,1.1,4.2,1.7,6.7,1.7c6.3,0,11.3-4,11.3-8.9S41.2,7.7,35,7.7
				c-6.3,0-11.3,4-11.3,8.9c0,1.7,0.6,3.2,1.6,4.6C24.9,22.6,24.3,24.1,23.2,25.5z"/>
		</g>
	</g>
	<g>
		<g>
			<rect x="29.5" y="13.3" fill="#FFFFFF" width="10.9" height="1"/>
		</g>
		<g>
			<rect x="29.5" y="16.1" fill="#FFFFFF" width="10.9" height="1"/>
		</g>
		<g>
			<rect x="29.5" y="18.8" fill="#FFFFFF" width="7.4" height="1"/>
		</g>
	</g>
</g>
</svg>
