<?xml version="1.0" encoding="utf-8"?>
<!-- Generator: Adobe Illustrator 18.0.0, SVG Export Plug-In . SVG Version: 6.00 Build 0)  -->
<!DOCTYPE svg PUBLIC "-//W3C//DTD SVG 1.1//EN" "http://www.w3.org/Graphics/SVG/1.1/DTD/svg11.dtd">
<svg version="1.1" id="Layer_1" xmlns="http://www.w3.org/2000/svg" xmlns:xlink="http://www.w3.org/1999/xlink" x="0px" y="0px"
	 viewBox="0 0 50 50" enable-background="new 0 0 50 50" xml:space="preserve">
<g>
	<g>
		<path fill="#E5E5E5" d="M19.4,27.8c-0.2,0.2-0.3,0.3-0.4,0.5l3.7,3.7c0.2-0.1,0.4-0.2,0.5-0.4c1-1,1-2.7,0-3.8
			C22.2,26.8,20.5,26.8,19.4,27.8z"/>
	</g>
	<g>
		<path fill="#CCCACA" d="M19.9,27.5c-0.2,0.1-0.3,0.2-0.5,0.4c-0.2,0.2-0.3,0.3-0.4,0.5l3.7,3.7c0.2-0.1,0.4-0.2,0.5-0.4
			c0.1-0.1,0.3-0.3,0.4-0.5L19.9,27.5z"/>
	</g>
	<g>
		<g>
			<path fill="#FFCA8A" d="M16.8,26.2l8.1,8.1c0.8,0.8,0.4,2.3-0.7,2.5c-3.8,0.8-7.4,2.4-11,5L9.4,38c2.5-3.6,4.2-7.2,5-11
				C14.6,25.8,16,25.3,16.8,26.2z"/>
		</g>
		<g>
			<path fill="#F9A846" d="M11.3,39.9l1.8,1.8c3.5-2.5,7.2-4.2,11-5c1.2-0.2,1.6-1.7,0.7-2.5l-3.9-3.9L11.3,39.9z"/>
		</g>
		<g>
			<path fill="#FFB95C" d="M18.2,27.5l5.4,5.4c-3.6,1.7-7.4,4.2-11.5,7.8L10.4,39C13.9,34.9,16.5,31.1,18.2,27.5z"/>
		</g>
	</g>
	<g>
		<path fill="#E5E5E5" d="M9.3,37.9l3.9,3.9c0.7,0.7,0.7,1.9,0,2.6L9.6,48c-0.7,0.7-1.9,0.7-2.6,0l-3.8-4c-0.7-0.7-0.7-1.9,0-2.6
			l3.6-3.6C7.4,37.1,8.6,37.1,9.3,37.9z"/>
	</g>
	<g>
		<path fill="#FFB95C" d="M5.5,48.3l1-1l-2.8-2.8l-1,1c-0.5,0.5-0.5,1.4,0,1.9l0.9,0.9C4.1,48.9,5,48.9,5.5,48.3z"/>
	</g>
	<g>
		<g>
			<ellipse fill="#FA4968" cx="39.6" cy="5.2" rx="3.8" ry="3.9"/>
		</g>
		<g>
			<path fill="#FA4968" d="M47.7,15c0,0.6-0.1,1.2-0.2,1.8c-0.3,1.8-1.9,3.1-3.8,3.1h-8.2c-1.8,0-3.5-1.3-3.8-3.1
				c-0.1-0.6-0.2-1.2-0.2-1.8c0-3.4,2-4.5,4.9-4.9l3.1,2.6l3.1-2.6C45.6,10.4,47.7,11.6,47.7,15z"/>
		</g>
		<g>
			<path fill="#ED2F58" d="M43.7,17.8h-8.2c-0.9,0-1.6-0.6-1.8-1.4c-0.1-0.5-0.1-1-0.1-1.4h1c0,0.4,0,0.8,0.1,1.2
				c0.1,0.3,0.4,0.6,0.8,0.6h8.2c0.4,0,0.7-0.3,0.8-0.6c0.1-0.4,0.1-0.9,0.1-1.2h1c0,0.4,0,0.9-0.1,1.4
				C45.3,17.2,44.6,17.8,43.7,17.8z"/>
		</g>
	</g>
	<g>
		<g>
			<ellipse fill="#ABB734" cx="18.2" cy="5.2" rx="3.8" ry="3.9"/>
		</g>
		<g>
			<path fill="#ABB734" d="M26.2,15c0,0.6-0.1,1.2-0.2,1.8c-0.3,1.8-1.9,3.1-3.8,3.1H14c-1.8,0-3.5-1.3-3.8-3.1
				C10.1,16.2,10,15.6,10,15c0-3.4,2-4.5,4.9-4.9l3.1,2.6l3.1-2.6C24.2,10.4,26.2,11.6,26.2,15z"/>
		</g>
		<g>
			<path fill="#9B9B1B" d="M22.3,17.8h-8.2c-0.9,0-1.6-0.6-1.8-1.4c-0.1-0.5-0.1-1-0.1-1.4h1c0,0.4,0,0.8,0.1,1.2
				c0.1,0.3,0.4,0.6,0.8,0.6h8.2c0.4,0,0.7-0.3,0.8-0.6c0.1-0.4,0.1-0.8,0.1-1.2h1c0,0.4,0,0.9-0.1,1.4
				C23.9,17.2,23.1,17.8,22.3,17.8z"/>
		</g>
	</g>
	<g>
		<g>
			<ellipse fill="#559AFF" cx="39.6" cy="28" rx="3.8" ry="3.9"/>
		</g>
		<g>
			<path fill="#559AFF" d="M47.7,37.8c0,0.6-0.1,1.2-0.2,1.8c-0.3,1.8-1.9,3.1-3.8,3.1h-8.2c-1.8,0-3.5-1.3-3.8-3.1
				c-0.1-0.6-0.2-1.2-0.2-1.8c0-3.4,2-4.5,4.9-4.9l3.1,2.6l3.1-2.6C45.6,33.3,47.7,34.4,47.7,37.8z"/>
		</g>
		<g>
			<path fill="#3A8BED" d="M43.7,40.6h-8.2c-0.9,0-1.6-0.6-1.8-1.4c-0.1-0.5-0.1-1-0.1-1.4h1c0,0.4,0,0.8,0.1,1.2
				c0.1,0.3,0.4,0.6,0.8,0.6h8.2c0.4,0,0.7-0.3,0.8-0.6c0.1-0.4,0.1-0.9,0.1-1.2h1c0,0.4,0,0.9-0.1,1.4C45.3,40,44.6,40.6,43.7,40.6
				z"/>
		</g>
	</g>
</g>
</svg>
