<?xml version="1.0" encoding="utf-8"?>
<!-- Generator: Adobe Illustrator 18.0.0, SVG Export Plug-In . SVG Version: 6.00 Build 0)  -->
<!DOCTYPE svg PUBLIC "-//W3C//DTD SVG 1.1//EN" "http://www.w3.org/Graphics/SVG/1.1/DTD/svg11.dtd">
<svg version="1.1" id="Layer_1" xmlns="http://www.w3.org/2000/svg" xmlns:xlink="http://www.w3.org/1999/xlink" x="0px" y="0px"
	 viewBox="0 0 50 50" enable-background="new 0 0 50 50" xml:space="preserve">
<g>
	<g>
		<g>
			<path fill="#E8CEC1" d="M16,44.7c-0.6,1.3-0.2,2.7,0.3,4c0,0.1,0.1,0.2,0.1,0.3h18.9c-6.2-6.4,0.6-18.8,1.9-23.9
				c1.8-7.3-1.2-12-4.6-14.8C28.9,7.2,23.9,6,19.1,6.9c-13.2,2.3-13,12.4-12.5,16c0.1,0.9-0.1,1.9-0.5,2.6l-2.8,4.6
				c-0.5,0.9-0.2,2,0.7,2.4l1.6,0.8l-0.1,2.5l1.7,1l-1.5,1.6l1.7,1.2l-0.3,2.3c-0.2,1.4,0.9,2.7,2.3,2.8c2.8,0.2,7.4,0.2,11.2-1.4"
				/>
		</g>
	</g>
	<g>
		<g>
			<path fill="#6CD8D5" d="M21.4,20.8c0,0,3.1-0.1,5.6-1.9c2.1,1.2,4.6,1.9,7.4,1.9c6.9,0,12.5-4.4,12.5-9.9C47,5.4,41.4,1,34.4,1
				c-6.9,0-12.5,4.4-12.5,9.9c0,1.9,0.6,3.6,1.8,5.1C23.3,17.5,22.6,19.2,21.4,20.8z"/>
		</g>
		<g>
			<g>
				<ellipse fill="#FFFFFF" cx="41.1" cy="10.9" rx="2.2" ry="2.3"/>
			</g>
			<g>
				<ellipse fill="#FFFFFF" cx="34.4" cy="10.9" rx="2.2" ry="2.3"/>
			</g>
			<g>
				<ellipse fill="#FFFFFF" cx="27.8" cy="10.9" rx="2.2" ry="2.3"/>
			</g>
		</g>
	</g>
</g>
</svg>
