<?xml version="1.0" encoding="utf-8"?>
<!-- Generator: Adobe Illustrator 18.0.0, SVG Export Plug-In . SVG Version: 6.00 Build 0)  -->
<!DOCTYPE svg PUBLIC "-//W3C//DTD SVG 1.1//EN" "http://www.w3.org/Graphics/SVG/1.1/DTD/svg11.dtd">
<svg version="1.1" id="Layer_1" xmlns="http://www.w3.org/2000/svg" xmlns:xlink="http://www.w3.org/1999/xlink" x="0px" y="0px"
	 viewBox="0 0 50 50" enable-background="new 0 0 50 50" xml:space="preserve">
<g>
	<g>
		<g>
			<path fill="#FECD04" d="M21.6,46.2c4.2,0,7.7-3.3,7.8-7.4c0,0,0,0,0-0.1c0-7.6-6.2-8.9-13.9-8.9S1.6,31.1,1.6,38.7c0,0,0,0,0,0.1
				c0,4.2,3.6,7.4,7.8,7.4H21.6z"/>
		</g>
		<g>
			<path fill="#F4F4F4" d="M10.3,30.8C10,36,12,41.1,15.4,46.2c3.1-4.5,5-9.6,5.1-15.4C20.5,30.8,10.3,30.8,10.3,30.8z"/>
		</g>
		<g>
			<path fill="#D9BAA8" d="M12.9,22.1c0,0-0.7,7.8-0.7,8.5c0,1.8,1.4,3.2,3.2,3.2s3.2-1.4,3.2-3.2c0-0.7-0.7-8.5-0.7-8.5
				S12.9,22.1,12.9,22.1z"/>
		</g>
		<g>
			<g>
				<path fill="#C9A28F" d="M25.2,18.8c-0.5,1.5-1.5,2.2-3.1,1.7s-3.2-2.1-2.8-3.6c0.5-1.5,3.3-2.1,4.9-1.6
					C25.9,16,25.6,17.4,25.2,18.8z"/>
			</g>
			<g>
				<path fill="#C9A28F" d="M5.7,18.8c0.5,1.5,1.5,2.2,3.1,1.7s3.2-2.1,2.8-3.6c-0.5-1.5-3.3-2.1-4.9-1.6C5,16,5.2,17.4,5.7,18.8z"
					/>
			</g>
		</g>
		<g>
			<path fill="#E8CEC1" d="M23.6,14.4c0,5.8-2.3,13.2-8.2,13.2s-8.2-7.4-8.2-13.2s2.3-7.9,8.2-7.9S23.6,8.6,23.6,14.4z"/>
		</g>
		<g>
			<path fill="#FA4968" d="M3,12.3c5.3-1.5,4.3-11.5,9.5-7.1C15.8,8.1,8.8,17,3,12.3z"/>
		</g>
		<g opacity="0.3">
			<path fill="#FFFFFF" d="M7.3,12.1l-0.2-1c0.8-0.2,1.6-0.6,2.3-1.3l0.7,0.7C9.3,11.3,8.3,11.9,7.3,12.1z"/>
		</g>
		<g>
			<path fill="#FA4968" d="M23.9,15C20,8.9,9.2,14.4,12,6C13.8,0.6,26.8,5.7,23.9,15z"/>
		</g>
		<g opacity="0.3">
			<path fill="#FFFFFF" d="M20.7,9.1c-0.7-1-1.8-1.8-3-2.3l0.4-0.9c1.4,0.6,2.6,1.5,3.4,2.7L20.7,9.1z"/>
		</g>
		<g opacity="0.3">
			<path fill="#FFFFFF" d="M16.3,6.4c-0.2,0-0.5-0.1-0.7-0.1v-1c0.3,0,0.6,0,0.9,0.1L16.3,6.4z"/>
		</g>
		<g>
			<g>
				<line fill="none" x1="17.5" y1="15.6" x2="19.7" y2="15.6"/>
			</g>
			<g>
				<circle fill="#616B77" cx="18.3" cy="17.4" r="0.5"/>
			</g>
		</g>
		<g>
			<path fill="#E5E5E5" d="M14.4,20.5c0.7,0.5,1.4,0.5,2.1,0"/>
			<path fill="#C9A28F" d="M15.4,21.3c-0.5,0-0.9-0.1-1.3-0.4l0.6-0.8c0.5,0.4,1,0.4,1.6,0l0.5,0.8C16.3,21.2,15.9,21.3,15.4,21.3z"
				/>
		</g>
		<g>
			<g>
				<line fill="none" x1="13.3" y1="15.6" x2="11.2" y2="15.6"/>
			</g>
			<g>
				<circle fill="#616B77" cx="12.6" cy="17.4" r="0.5"/>
			</g>
		</g>
		<g>
			<path fill="#425060" d="M15.4,24.8c-1.2,0-2.3-0.5-3.1-1.5l0.8-0.6c0.6,0.7,1.4,1.1,2.3,1.1c0.9,0,1.7-0.4,2.3-1.1l0.8,0.6
				C17.7,24.2,16.6,24.8,15.4,24.8z"/>
		</g>
		<g opacity="0.2">
			<circle fill="#FFFFFF" cx="19.7" cy="21" r="0.8"/>
		</g>
		<g opacity="0.2">
			<circle fill="#FFFFFF" cx="11.9" cy="21" r="0.8"/>
		</g>
		<g>
			<path fill="#FFD731" d="M20.9,33.9l1.5,3c-0.3,3.3-3.1,7.1-7,9.2c1.9-5.2,3.2-11.2,3.2-16.3c1.4,0.1,2.8,0.3,4,0.5l0.6,3
				L20.9,33.9z"/>
		</g>
		<g>
			<path fill="#FFD731" d="M10,33.9l-1.5,3c0.3,3.3,3.1,7.1,7,9.2c-2-5.1-3.3-11.1-3.3-16.3c-1.4,0.1-2.8,0.3-4,0.5l-0.6,3L10,33.9z
				"/>
		</g>
	</g>
	<g>
		<path fill="#FA4968" d="M46.2,19c0,2.4-1,4.6-2.6,6.2s-3.8,2.6-6.3,2.6c-1.9,0-3.6-0.6-5.1-1.6l-3.8,1.6l1.6-3.7
			c-1-1.4-1.6-3.2-1.6-5.1c0-2.4,1-4.6,2.6-6.2s3.8-2.6,6.3-2.6s4.7,1,6.3,2.6C45.2,14.3,46.2,16.5,46.2,19z"/>
	</g>
	<g opacity="0.3">
		<path fill="#FFFFFF" d="M31.8,15.9l-0.9-0.5c0.3-0.6,0.7-1.1,1.2-1.6c0.8-0.8,1.9-1.5,3-1.8l0.3,1c-1,0.3-1.9,0.8-2.6,1.6
			C32.4,14.9,32.1,15.3,31.8,15.9z"/>
	</g>
	<g opacity="0.3">
		<path fill="#FFFFFF" d="M37.9,12.7c-0.3,0-0.7,0-1,0l-0.1-1c0.4,0,0.8,0,1.2,0L37.9,12.7z"/>
	</g>
	<g>
		<polygon fill="#FFB95C" points="34.5,16.1 31.8,18.8 37.5,24.5 48.5,13.6 45.8,10.8 37.5,19.1 		"/>
	</g>
	<g opacity="0.3">
		<g>
			
				<rect x="43.3" y="13.4" transform="matrix(-0.7071 -0.7071 0.7071 -0.7071 63.8059 57.2575)" fill="#FFFFFF" width="1" height="4"/>
		</g>
		<g>
			
				<rect x="40.2" y="18" transform="matrix(-0.7071 -0.7072 0.7072 -0.7071 56.4894 60.1896)" fill="#FFFFFF" width="1" height="0.8"/>
		</g>
	</g>
</g>
</svg>
