<?xml version="1.0" encoding="utf-8"?>
<!-- Generator: Adobe Illustrator 18.0.0, SVG Export Plug-In . SVG Version: 6.00 Build 0)  -->
<!DOCTYPE svg PUBLIC "-//W3C//DTD SVG 1.1//EN" "http://www.w3.org/Graphics/SVG/1.1/DTD/svg11.dtd">
<svg version="1.1" id="Layer_1" xmlns="http://www.w3.org/2000/svg" xmlns:xlink="http://www.w3.org/1999/xlink" x="0px" y="0px"
	 viewBox="0 0 50 50" enable-background="new 0 0 50 50" xml:space="preserve">
<g>
	<g>
		<path fill="#F4F4F4" d="M11.7,2.5L5.2,8.9c-1,1-1.6,2.4-1.6,3.8v33.1C3.6,47.6,5,49,6.8,49h29.1c1.8,0,3.2-1.4,3.2-3.2V4.2
			c0-1.8-1.4-3.2-3.2-3.2H15.5C14.1,1,12.7,1.5,11.7,2.5z"/>
	</g>
	<g>
		<path fill="#F4F4F4" d="M39.1,4.2v41.6c0,1.8-1.4,3.2-3.2,3.2H6.8c-1.8,0-3.2-1.4-3.2-3.2V12.7c0-0.8,0.2-1.6,0.5-2.2
			c0.3-0.6,0.6-1.1,1.1-1.6l6.5-6.4c0.5-0.5,1-0.8,1.6-1.1C13.9,1.2,14.7,1,15.5,1h20.4C37.7,1,39.1,2.4,39.1,4.2z"/>
	</g>
	<g>
		<path fill="#CCCACA" d="M13.3,1.5V8c0,1.4-1.1,2.5-2.5,2.5H4.1c0.3-0.6,0.6-1.1,1.1-1.6l6.5-6.4C12.2,2.1,12.7,1.7,13.3,1.5z"/>
	</g>
	<g>
		<g>
			<line fill="none" x1="17.3" y1="4" x2="23.5" y2="4"/>
			<rect x="17.3" y="3.5" fill="#FFFFFF" width="6.2" height="1"/>
		</g>
		<g>
			<line fill="none" x1="26.3" y1="4" x2="27.5" y2="4"/>
			<rect x="26.3" y="3.5" fill="#FFFFFF" width="1.2" height="1"/>
		</g>
	</g>
	<g>
		<g>
			<ellipse fill="#FECD04" cx="39.1" cy="13.2" rx="7.3" ry="7.4"/>
		</g>
		<g>
			<g>
				<path fill="#425060" d="M40.3,17h-2.9c-0.9,0-1.6-0.7-1.6-1.6h1c0,0.3,0.3,0.6,0.6,0.6h2.9c0.6,0,1.1-0.5,1.1-1.1
					s-0.5-1.1-1.1-1.1H38c-1.2,0-2.2-1-2.2-2.2s1-2.2,2.2-2.2h2.9c0.9,0,1.6,0.7,1.6,1.6h-1c0-0.3-0.3-0.6-0.6-0.6H38
					c-0.6,0-1.1,0.5-1.1,1.1s0.5,1.1,1.1,1.1h2.3c1.2,0,2.1,1,2.1,2.2C42.4,16,41.4,17,40.3,17z"/>
			</g>
			<g>
				<rect x="38.6" y="8.3" fill="#425060" width="1" height="9.6"/>
			</g>
		</g>
	</g>
	<g>
		<path fill="#425060" d="M11.4,42.4H9.3c-1,0-1.9-0.9-1.9-1.9v-4.7c0-1,0.9-1.9,1.9-1.9h2.1c1,0,1.9,0.9,1.9,1.9h-1
			c0-0.5-0.4-0.9-0.9-0.9H9.3c-0.5,0-0.9,0.4-0.9,0.9v4.7c0,0.5,0.4,0.9,0.9,0.9h2.1c0.5,0,0.9-0.4,0.9-0.9h1
			C13.3,41.6,12.4,42.4,11.4,42.4z"/>
	</g>
	<g>
		<path fill="#425060" d="M18.9,42.4h-2.4c-1,0-1.7-0.8-1.7-1.7v-5c0-1,0.8-1.7,1.7-1.7h2.4c1,0,1.7,0.8,1.7,1.7v5
			C20.6,41.7,19.8,42.4,18.9,42.4z M16.5,35c-0.4,0-0.7,0.3-0.7,0.7v5c0,0.4,0.3,0.7,0.7,0.7h2.4c0.4,0,0.7-0.3,0.7-0.7v-5
			c0-0.4-0.3-0.7-0.7-0.7H16.5z"/>
	</g>
	<g>
		<path fill="#425060" d="M26.1,42.4H24c-1,0-1.9-0.9-1.9-1.9h1c0,0.5,0.4,0.9,0.9,0.9h2.1c0.5,0,0.9-0.4,0.9-0.9v-1
			c0-0.5-0.4-0.9-0.9-0.9H24c-1,0-1.9-0.9-1.9-1.9v-1c0-1,0.9-1.9,1.9-1.9h2.1c1,0,1.9,0.9,1.9,1.9h-1c0-0.5-0.4-0.9-0.9-0.9H24
			c-0.5,0-0.9,0.4-0.9,0.9v1c0,0.5,0.4,0.9,0.9,0.9h2.1c1,0,1.9,0.9,1.9,1.9v1C28,41.6,27.1,42.4,26.1,42.4z"/>
	</g>
	<g>
		<path fill="#425060" d="M35.3,35.8h-1c0-0.5-0.4-0.9-0.9-0.9h-2.1c-0.5,0-0.9,0.4-0.9,0.9h-1c0-1,0.9-1.9,1.9-1.9h2.1
			C34.5,33.9,35.3,34.8,35.3,35.8z"/>
	</g>
	<g>
		<rect x="31.9" y="34.5" fill="#425060" width="1" height="7.5"/>
	</g>
	<g>
		<g>
			<rect x="11.7" y="26" fill="#FF8C83" width="3.3" height="3.3"/>
		</g>
		<g>
			<rect x="17.1" y="22.7" fill="#ABB734" width="3.3" height="6.6"/>
		</g>
		<g>
			<rect x="22.4" y="24.6" fill="#FFB95C" width="3.3" height="4.8"/>
		</g>
		<g>
			<rect x="27.7" y="20.5" fill="#FA4968" width="3.3" height="8.8"/>
		</g>
	</g>
</g>
</svg>
