<?xml version="1.0" encoding="utf-8"?>
<!-- Generator: Adobe Illustrator 18.0.0, SVG Export Plug-In . SVG Version: 6.00 Build 0)  -->
<!DOCTYPE svg PUBLIC "-//W3C//DTD SVG 1.1//EN" "http://www.w3.org/Graphics/SVG/1.1/DTD/svg11.dtd">
<svg version="1.1" id="Layer_1" xmlns="http://www.w3.org/2000/svg" xmlns:xlink="http://www.w3.org/1999/xlink" x="0px" y="0px"
	 viewBox="0 0 50 50" enable-background="new 0 0 50 50" xml:space="preserve">
<g>
	<g>
		<path fill="#F9A846" d="M20.8,47.3c0,2.2,3.2,2.4,3.5,0.2c0.4-3.9,1.4-11.3,1.4-11.3l8.9,0.9c2,0.3,3.8-1.2,3.8-3.3
			c0-0.5,0-0.9,0.1-1.3l0,0c1.1-3.8,1.8-8.2,1.9-12.8c0.1-2.2-1.7-2.8-3.9-2.9s-4,0.4-4.1,2.6c-0.1,4.2-0.7,7.9-1.7,11.2
			c0,0.1-0.1,0.2-0.1,0.2l-4.2-0.6c-2.1-0.3-4.1,1.2-4.3,3.4C21.6,38.1,20.9,45.3,20.8,47.3z"/>
	</g>
	<g>
		<path fill="#ABB734" d="M38.4,32.5L38.4,32.5c0,0.1-7.8-1.8-7.9-1.8c0-0.1,0-0.1,0.1-0.2c1-3.3,1.6-7,1.7-11.2
			c0.1-2.2,1.9-2.7,4.1-2.6c2.2,0.1,4,0.6,3.9,2.9C40.2,24.3,39.5,28.6,38.4,32.5L38.4,32.5z"/>
	</g>
	<g>
		<path fill="#C6CC4A" d="M38.1,18.8C36.8,19,36.4,20.2,37,23c0,1,0,2,0,3c-0.1,2.1-0.4,4.2-1.1,5.9c-0.3,0.7,0,1.6,0.8,1.9
			c2.1,0.7,2.5-2.8,3-4.1c0.7-2.9,0.9-5.7,0.8-8.7C40.4,19.7,39.3,18.6,38.1,18.8z"/>
	</g>
	<g>
		<ellipse fill="#616B77" cx="36.5" cy="11.1" rx="3.4" ry="3.4"/>
	</g>
	<g>
		<rect x="30.5" y="30.8" transform="matrix(-0.9732 -0.23 0.23 -0.9732 58.4183 69.4424)" fill="#425060" width="5.5" height="1"/>
	</g>
	<g>
		<g>
			<path fill="#559AFF" d="M30.8,44.1c-0.3,0-0.5,0-0.6-0.1c-1.1-0.1-1.9-1.1-1.8-2.2c0.1-1.1,1.2-1.9,2.2-1.7
				c2.6,0.3,7,0.3,8.2-0.8c1.5-1.2,3.3-8.7,4-15c0.1-1.1,1.1-1.9,2.2-1.8c1.1,0.1,1.9,1.1,1.8,2.2c-0.4,3.4-1.9,14.8-5.4,17.6
				C38.7,44.5,33,44.3,30.8,44.1z"/>
		</g>
	</g>
	<g>
		<circle fill="#559AFF" cx="16.4" cy="14.2" r="13.2"/>
	</g>
	<g>
		<circle fill="#E8CEC1" cx="16.4" cy="14.2" r="11.1"/>
	</g>
	<g>
		<g>
			<rect x="15.9" y="3.2" fill="#425060" width="1" height="1.3"/>
		</g>
		<g>
			<rect x="15.9" y="24.1" fill="#425060" width="1" height="1.3"/>
		</g>
	</g>
	<g>
		<g>
			
				<rect x="10.5" y="4.7" transform="matrix(-0.4997 -0.8662 0.8662 -0.4997 12.2541 17.4357)" fill="#425060" width="1.3" height="1"/>
		</g>
		<g>
			
				<rect x="21" y="22.8" transform="matrix(-0.4997 -0.8662 0.8662 -0.4997 12.2408 53.7141)" fill="#425060" width="1.3" height="1"/>
		</g>
	</g>
	<g>
		<g>
			
				<rect x="6.7" y="8.5" transform="matrix(-0.8658 -0.5003 0.5003 -0.8658 9.2323 20.481)" fill="#425060" width="1.3" height="1"/>
		</g>
		<g>
			
				<rect x="24.8" y="19" transform="matrix(-0.8662 -0.4997 0.4997 -0.8662 37.7279 49.0971)" fill="#425060" width="1.3" height="1"/>
		</g>
	</g>
	<g>
		<g>
			<rect x="5.3" y="13.8" fill="#425060" width="1.3" height="1"/>
		</g>
		<g>
			<rect x="26.2" y="13.8" fill="#425060" width="1.3" height="1"/>
		</g>
	</g>
	<g>
		<g>
			
				<rect x="6.9" y="18.9" transform="matrix(-0.5003 -0.8658 0.8658 -0.5003 -5.7926 35.6644)" fill="#425060" width="1" height="1.3"/>
		</g>
		<g>
			
				<rect x="25" y="8.4" transform="matrix(-0.5003 -0.8658 0.8658 -0.5003 30.3202 35.6619)" fill="#425060" width="1" height="1.3"/>
		</g>
	</g>
	<g>
		<g>
			
				<rect x="10.7" y="22.7" transform="matrix(-0.8661 -0.4999 0.4999 -0.8661 9.171 49.1696)" fill="#425060" width="1" height="1.3"/>
		</g>
		<g>
			
				<rect x="21.1" y="4.6" transform="matrix(-0.8661 -0.4999 0.4999 -0.8661 37.6531 20.5494)" fill="#425060" width="1" height="1.3"/>
		</g>
	</g>
	<g>
		<circle fill="#FF6989" cx="16.4" cy="14.3" r="1.6"/>
	</g>
	<g>
		<rect x="15.9" y="8.5" fill="#425060" width="1" height="4.1"/>
	</g>
	<g>
		<rect x="17" y="16.4" transform="matrix(-0.7072 -0.707 0.707 -0.7072 20.5703 42.3267)" fill="#425060" width="4.1" height="1"/>
	</g>
</g>
</svg>
