<?xml version="1.0" encoding="utf-8"?>
<!-- Generator: Adobe Illustrator 18.0.0, SVG Export Plug-In . SVG Version: 6.00 Build 0)  -->
<!DOCTYPE svg PUBLIC "-//W3C//DTD SVG 1.1//EN" "http://www.w3.org/Graphics/SVG/1.1/DTD/svg11.dtd">
<svg version="1.1" id="Layer_1" xmlns="http://www.w3.org/2000/svg" xmlns:xlink="http://www.w3.org/1999/xlink" x="0px" y="0px"
	 viewBox="0 0 50 50" enable-background="new 0 0 50 50" xml:space="preserve">
<g>
	<g>
		<path fill="#FA4968" d="M41.9,37.4l-5.2,3.4l-5.2-3.4c-3.4,0.8-5.7,2.8-5.7,6.8c0,0.8,0.1,1.6,0.3,2.4c0.3,1.4,1.5,2.3,2.9,2.3
			h15.3c1.4,0,2.7-1,2.9-2.3c0.2-0.8,0.3-1.7,0.3-2.4C47.6,40.2,45.3,38.2,41.9,37.4z"/>
	</g>
	<g>
		<g>
			<path fill="#FECD04" d="M39,48.9l-1.1-7.4l0.6-1.7c0-1-3.6-1-3.6,0l0.6,1.7l-1.1,7.4H39z"/>
		</g>
	</g>
	<g>
		<path fill="#E5E5E5" d="M16,39.2l-4.4,2.9l-4.4-2.9c-2.9,0.7-4.8,2.4-4.8,5.8c0,0.7,0.1,1.4,0.2,2.1c0.2,1.2,1.3,2,2.5,2h13
			c1.2,0,2.3-0.8,2.5-2c0.1-0.7,0.2-1.4,0.2-2.1C20.9,41.5,18.9,39.9,16,39.2z"/>
	</g>
	<g>
		<path fill="#559AFF" d="M13.6,49l-0.9-6.3l0.5-1.4c0-0.9-3.1-0.9-3.1,0l0.5,1.4L9.7,49H13.6z"/>
	</g>
	<g>
		<path fill="#F4F4F4" d="M5.9,42.6l-0.7-0.8c0.1-0.1,0.3-0.2,0.4-0.3l0.6,0.9C6.2,42.4,6,42.5,5.9,42.6z"/>
	</g>
	<g>
		<path fill="#F4F4F4" d="M4.1,46C4,45.6,4,45.3,4,45c0-0.6,0.1-1.2,0.3-1.7l1,0.3C5.1,44,5,44.4,5,45c0,0.3,0,0.6,0.1,0.9L4.1,46z"
			/>
	</g>
	<g>
		<polygon fill="#F4F4F4" points="15.2,37.7 11.6,40.6 13.7,41.9 16,39.2 		"/>
	</g>
	<g>
		<polygon fill="#F4F4F4" points="8.1,37.7 11.6,40.6 9.5,41.9 7.2,39.2 		"/>
	</g>
	<g>
		<path fill="#FFFFFF" d="M13.7,41.9"/>
	</g>
	<g>
		<path fill="#525F70" d="M8.5,29.8c0.6-0.1,1.2,0,1.8,0.1c0.6,0.2,1.1,0.4,1.7,0.5c0.7,0.2,1.5,0.2,2.2,0c0.6-0.2,1.1-0.4,1.5-0.8
			v-1.1c0-1.3-1.1-2.3-2.4-2.3H9.9c-1.3,0-2.4,1-2.4,2.3v1.8C7.8,30.1,8.2,29.9,8.5,29.8z"/>
	</g>
	<g>
		<path fill="#FFA49F" d="M15.7,31.2v-1.5c-0.4,0.4-0.9,0.7-1.5,0.8c-0.7,0.2-1.5,0.2-2.2,0c-0.6-0.1-1.1-0.4-1.7-0.5
			c-0.6-0.2-1.2-0.3-1.8-0.1c-0.4,0.1-0.8,0.3-1,0.6v0.8c-0.6,0-1,0.4-1,1c0,0.5,0.4,1,1,1l0,0c0.2,2,2,3.5,4.1,3.5s3.8-1.5,4.1-3.5
			l0,0c0.5,0,1-0.4,1-1C16.7,31.6,16.3,31.2,15.7,31.2z"/>
	</g>
	<g>
		<g>
			<path fill="#FF6989" d="M30,41.3l-0.7-0.8c0.2-0.1,0.3-0.3,0.5-0.4l0.6,0.9C30.3,41.1,30.1,41.2,30,41.3z"/>
		</g>
		<g>
			<path fill="#FF6989" d="M28,45.4c-0.1-0.5-0.1-0.8-0.1-1.2c0-0.8,0.1-1.4,0.3-2l1,0.3C29,43,29,43.5,29,44.1c0,0.3,0,0.7,0.1,1.1
				L28,45.4z"/>
		</g>
	</g>
	<g>
		<polygon fill="#FF6989" points="40.9,35.6 36.8,39.1 39.2,40.6 41.9,37.4 		"/>
	</g>
	<g>
		<polygon fill="#FF6989" points="32.6,35.6 36.8,39.1 34.3,40.6 31.6,37.4 		"/>
	</g>
	<g>
		<path fill="#FFFFFF" d="M39.2,40.6"/>
	</g>
	<g>
		<path fill="#525F70" d="M33.1,26.4c0.7-0.1,1.4,0,2.1,0.2c0.7,0.2,1.3,0.5,2,0.6c0.9,0.2,1.8,0.2,2.6,0c0.7-0.2,1.3-0.5,1.7-1V25
			c0-1.5-1.3-2.7-2.8-2.7h-4c-1.5,0-2.8,1.2-2.8,2.7v2.1C32.2,26.7,32.7,26.5,33.1,26.4z"/>
	</g>
	<g>
		<path fill="#FFA49F" d="M41.6,28v-1.8c-0.4,0.5-1.1,0.8-1.7,1c-0.8,0.2-1.8,0.2-2.6,0c-0.7-0.2-1.3-0.4-2-0.6s-1.4-0.3-2.1-0.2
			c-0.5,0.1-0.9,0.3-1.2,0.7V28c-0.6,0-1.2,0.5-1.2,1.1s0.5,1.1,1.2,1.1l0,0c0.3,2.3,2.3,4.1,4.8,4.1s4.5-1.8,4.8-4.1l0,0
			c0.6,0,1.2-0.5,1.2-1.1C42.7,28.5,42.2,28,41.6,28z"/>
	</g>
	<g>
		<g>
			<path fill="#FECD04" d="M26.9,19l0.3,3.4L23.9,22c-1.3,0.8-2.8,1.2-4.5,1.2c-4.8,0-8.7-3.9-8.7-8.8s3.9-8.8,8.7-8.8
				s8.7,3.9,8.7,8.8C28.1,16.1,27.7,17.6,26.9,19z"/>
		</g>
		<g>
			<g>
				<path fill="#425060" d="M20.6,18.4h-3c-0.9,0-1.7-0.8-1.7-1.7H17c0,0.3,0.3,0.6,0.6,0.6h3c0.6,0,1.2-0.5,1.2-1.2
					c0-0.7-0.5-1.2-1.2-1.2h-2.4C17,15,16,14,16,12.7c0-1.2,1-2.2,2.2-2.2h3c0.9,0,1.7,0.8,1.7,1.7h-1.1c0-0.3-0.3-0.6-0.6-0.6h-3
					c-0.6,0-1.2,0.5-1.2,1.2c0,0.6,0.5,1.2,1.2,1.2h2.4c1.2,0,2.2,1,2.2,2.2C22.8,17.4,21.8,18.4,20.6,18.4z"/>
			</g>
		</g>
		<g>
			<rect x="18.9" y="9.5" fill="#425060" width="1.1" height="10"/>
		</g>
		<g>
			<g>
				<g>
					<g>
						<rect x="30.8" y="13.9" fill="#425060" width="2" height="1.1"/>
					</g>
					<g>
						<rect x="6" y="13.9" fill="#425060" width="2" height="1.1"/>
					</g>
				</g>
				<g>
					<g>
						<rect x="18.9" y="1" fill="#425060" width="1.1" height="2"/>
					</g>
				</g>
			</g>
			<g>
				<g>
					<g>
						
							<rect x="9.6" y="5.1" transform="matrix(-0.7074 -0.7069 0.7069 -0.7074 14.1476 17.1185)" fill="#425060" width="2" height="1.1"/>
					</g>
				</g>
				<g>
					<g>
						
							<rect x="27.7" y="4.6" transform="matrix(-0.7072 -0.7071 0.7071 -0.7072 44.2869 29.6404)" fill="#425060" width="1.1" height="2"/>
					</g>
				</g>
			</g>
		</g>
		<g>
			<g>
				<g>
					<g>
						
							<rect x="30.4" y="8.7" transform="matrix(-0.3829 -0.9238 0.9238 -0.3829 33.7529 42.0281)" fill="#425060" width="1.1" height="2"/>
					</g>
					<g>
						
							<rect x="7.4" y="18.2" transform="matrix(-0.3829 -0.9238 0.9238 -0.3829 -6.7586 33.9117)" fill="#425060" width="1.1" height="2"/>
					</g>
				</g>
				<g>
					<g>
						
							<rect x="13.7" y="2.4" transform="matrix(-0.3829 -0.9238 0.9238 -0.3829 17.5865 17.5499)" fill="#425060" width="2" height="1.1"/>
					</g>
				</g>
			</g>
			<g>
				<g>
					<g>
						
							<rect x="6.9" y="9.2" transform="matrix(-0.9238 -0.3828 0.3828 -0.9238 11.4358 21.7367)" fill="#425060" width="2" height="1.1"/>
					</g>
				</g>
				<g>
					<g>
						
							<rect x="23.6" y="1.9" transform="matrix(-0.9238 -0.3829 0.3829 -0.9238 45.4044 14.8273)" fill="#425060" width="1.1" height="2"/>
					</g>
				</g>
			</g>
		</g>
	</g>
</g>
</svg>
