<?xml version="1.0" encoding="utf-8"?>
<!-- Generator: Adobe Illustrator 18.0.0, SVG Export Plug-In . SVG Version: 6.00 Build 0)  -->
<!DOCTYPE svg PUBLIC "-//W3C//DTD SVG 1.1//EN" "http://www.w3.org/Graphics/SVG/1.1/DTD/svg11.dtd">
<svg version="1.1" id="Layer_1" xmlns="http://www.w3.org/2000/svg" xmlns:xlink="http://www.w3.org/1999/xlink" x="0px" y="0px"
	 viewBox="0 0 50 50" enable-background="new 0 0 50 50" xml:space="preserve">
<g>
	<g>
		<path fill="#559AFF" d="M45.7,44.6c0,0.4,0,0.9-0.1,1.4c-0.3,1.4-1.5,2.5-3,2.5h-6.4c-1.4,0-2.7-1-3-2.5c-0.1-0.5-0.1-1-0.1-1.4
			c0-2.7,1.6-3.6,3.9-3.9l2.5,2.1l2.5-2.1C44.1,41,45.7,42,45.7,44.6z"/>
	</g>
	<g opacity="0.3">
		<path fill="#FFFFFF" d="M42.6,47h-6.4c-0.7,0-1.4-0.5-1.5-1.2c-0.1-0.4-0.1-0.8-0.1-1.1h1c0,0.3,0,0.6,0.1,1
			c0,0.2,0.3,0.4,0.5,0.4h6.4c0.2,0,0.5-0.2,0.5-0.4c0.1-0.3,0.1-0.7,0.1-1h1c0,0.3,0,0.7-0.1,1.1C44,46.4,43.3,47,42.6,47z"/>
	</g>
	<g>
		<ellipse fill="#559AFF" cx="39.4" cy="36.9" rx="3" ry="3.1"/>
	</g>
	<g>
		<path fill="#8CF2ED" d="M31.3,44.6c0,0.4,0,0.9-0.1,1.4c-0.3,1.4-1.5,2.5-3,2.5h-6.4c-1.4,0-2.7-1-3-2.5c-0.1-0.5-0.1-1-0.1-1.4
			c0-2.7,1.6-3.6,3.9-3.9l2.5,2.1l2.5-2.1C29.7,41,31.3,42,31.3,44.6z"/>
	</g>
	<g opacity="0.3">
		<path fill="#FFFFFF" d="M28.2,47h-6.4c-0.7,0-1.4-0.5-1.5-1.2c-0.1-0.4-0.1-0.8-0.1-1.1h1c0,0.3,0,0.6,0.1,1
			c0,0.2,0.3,0.4,0.5,0.4h6.4c0.2,0,0.5-0.2,0.5-0.4c0.1-0.3,0.1-0.7,0.1-1h1c0,0.3,0,0.7-0.1,1.1C29.6,46.4,29,47,28.2,47z"/>
	</g>
	<g>
		<g>
			<ellipse fill="#8CF2ED" cx="25" cy="36.9" rx="3" ry="3.1"/>
		</g>
		<g>
			<ellipse fill="#FA4968" cx="10.6" cy="36.9" rx="3" ry="3.1"/>
		</g>
	</g>
	<g>
		<path fill="#FA4968" d="M17,44.6c0,0.4,0,0.9-0.1,1.4c-0.3,1.4-1.5,2.5-3,2.5H7.4c-1.4,0-2.7-1-3-2.5c-0.1-0.5-0.1-1-0.1-1.4
			c0-2.7,1.6-3.6,3.9-3.9l2.5,2.1l2.5-2.1C15.4,41,17,42,17,44.6z"/>
	</g>
	<g opacity="0.3">
		<path fill="#FFFFFF" d="M13.8,47H7.4c-0.7,0-1.4-0.5-1.5-1.2c-0.1-0.4-0.1-0.8-0.1-1.1h1c0,0.3,0,0.6,0.1,1c0,0.2,0.3,0.4,0.5,0.4
			h6.4c0.2,0,0.5-0.2,0.5-0.4c0.1-0.3,0.1-0.7,0.1-1h1c0,0.3,0,0.7-0.1,1.1C15.2,46.4,14.6,47,13.8,47z"/>
	</g>
	<g>
		<path fill="#525F70" d="M4.1,27.4c0.2,1.8,1.4,3.1,2.9,3.1h36c1.5,0,2.6-1.3,2.9-3.1H4.1z"/>
	</g>
	<g>
		<path fill="#F4F4F4" d="M40.1,4.5H9.9c-1,0-1.8,0.8-1.8,1.8v21.2h33.7V6.3C41.9,5.3,41.1,4.5,40.1,4.5z"/>
	</g>
	<g>
		<path fill="#E5E5E5" d="M28.8,27.4c2.6,0,4.8-2,4.8-4.6l0,0c0-4.7-3.9-5.5-8.6-5.5s-8.6,0.8-8.6,5.5l0,0c0,2.5,2.2,4.6,4.8,4.6
			H28.8z"/>
	</g>
	<g>
		<path fill="#616B77" d="M33.6,22.8L33.6,22.8c0,2.6-2.2,4.6-4.8,4.6h-7.7c-2.6,0-4.8-2-4.8-4.6l0,0c0-4.7,3.9-5.5,8.6-5.5
			c0.7,0,1.4,0,2.1,0.1s1.4,0.1,2.1,0.3C31.8,18.3,33.6,19.6,33.6,22.8z"/>
	</g>
	<g>
		<path fill="#D9BAA8" d="M23.4,12.7c0,0-0.4,4.7-0.4,5.2c0,1.1,0.9,2,2,2s2-0.9,2-2c0-0.4-0.4-5.2-0.4-5.2H23.4z"/>
	</g>
	<g>
		<path fill="#C9A28F" d="M31.6,10.7c-0.3,0.9-0.9,1.4-1.9,1.1c-1-0.3-2-1.3-1.7-2.2s2.1-1.3,3.1-1C32,8.9,31.9,9.8,31.6,10.7z"/>
	</g>
	<g>
		<path fill="#C9A28F" d="M18.4,10.7c0.3,0.9,0.9,1.4,1.9,1.1c1-0.3,2-1.3,1.7-2.2s-2.1-1.3-3.1-1C18,8.9,18.1,9.8,18.4,10.7z"/>
	</g>
	<g>
		<path fill="#E8CEC1" d="M30.1,8c0,3.6-1.4,8.1-5.1,8.1s-5.1-4.5-5.1-8.1s1.4-4.9,5.1-4.9S30.1,4.4,30.1,8z"/>
	</g>
	<g>
		<path fill="#894D47" d="M17.3,6.7c3.3-0.9,2.7-7,5.9-4.3C25.2,4.1,20.9,9.6,17.3,6.7z"/>
	</g>
	<g>
		<path fill="#894D47" d="M30.2,8.3c-2.4-3.7-9.1-0.4-7.4-5.5C24-0.4,32,2.6,30.2,8.3z"/>
	</g>
	<g>
		<polygon fill="#FA4968" points="24.3,19.9 23.4,24.8 24.9,25.9 26.4,24.8 25.5,19.9 		"/>
	</g>
	<g>
		<path fill="#DDEDEB" d="M29.1,17.7L27,21.4l-2-1.6l2.1-2.4C27.8,17.5,28.5,17.6,29.1,17.7z"/>
	</g>
	<g>
		<path fill="#DDEDEB" d="M20.9,17.7l2.1,3.7l2-1.6l-2.1-2.4C22.2,17.5,21.5,17.6,20.9,17.7z"/>
	</g>
</g>
</svg>
