<?xml version="1.0" encoding="utf-8"?>
<!-- Generator: Adobe Illustrator 18.0.0, SVG Export Plug-In . SVG Version: 6.00 Build 0)  -->
<!DOCTYPE svg PUBLIC "-//W3C//DTD SVG 1.1//EN" "http://www.w3.org/Graphics/SVG/1.1/DTD/svg11.dtd">
<svg version="1.1" id="Layer_1" xmlns="http://www.w3.org/2000/svg" xmlns:xlink="http://www.w3.org/1999/xlink" x="0px" y="0px"
	 viewBox="0 0 50 50" enable-background="new 0 0 50 50" xml:space="preserve">
<g>
	<g>
		<path fill="#FFA49F" d="M42.1,28.5c1.7-3.6,3.3-15.5,0.6-16c-1.8-0.3-3,9.2-3,9.2v0.1c-2.8-0.2-8,5.2-9.5,7.5
			c-1.1,1.6-1.6,6.6-1.7,8.7l6,1.8c0.3-1.9,1-5,1.7-6.1C37.4,32.1,41.3,30.3,42.1,28.5z"/>
	</g>
	<g opacity="0.2">
		<path fill="#FFFFFF" d="M35.1,27l-0.7-0.7c0.2-0.2,0.4-0.4,0.6-0.6l0.7,0.7C35.5,26.6,35.3,26.8,35.1,27z"/>
	</g>
	<g opacity="0.2">
		<path fill="#FFFFFF" d="M32.3,30.1l-0.8-0.6c0.5-0.7,1.2-1.5,2-2.3l0.7,0.7C33.4,28.7,32.8,29.5,32.3,30.1z"/>
	</g>
	<g>
		<path fill="#F4F4F4" d="M39.2,25c0.1,0,0.1-0.1,0.2-0.1c0.7-0.7,1.1-1.6,0.7-2c-0.3-0.4-1.2-0.1-2,0.6c-0.1,0.1-0.1,0.1-0.2,0.2
			C38.7,23.9,39.2,24.3,39.2,25z"/>
	</g>
	<g>
		<rect x="27" y="36.5" fill="#559AFF" width="9.8" height="11.9"/>
	</g>
	<g>
		<path fill="#FFA49F" d="M7.9,28.5c-1.7-3.6-3.3-15.5-0.6-16c1.8-0.3,3,9.2,3,9.2v0.1c2.8-0.2,8,5.2,9.5,7.5
			c1.1,1.6,1.6,6.6,1.7,8.7l-6,1.8c-0.3-1.9-1-5-1.7-6.1C12.6,32.1,8.7,30.3,7.9,28.5z"/>
	</g>
	<g opacity="0.2">
		<path fill="#FFFFFF" d="M14.9,27c-0.2-0.2-0.4-0.4-0.6-0.6l0.7-0.7c0.2,0.2,0.4,0.4,0.6,0.6L14.9,27z"/>
	</g>
	<g opacity="0.2">
		<path fill="#FFFFFF" d="M17.7,30.1c-0.5-0.7-1.1-1.4-1.9-2.2l0.7-0.7c0.8,0.8,1.5,1.6,2,2.3L17.7,30.1z"/>
	</g>
	<g>
		<path fill="#F4F4F4" d="M10.8,25c-0.1,0-0.1-0.1-0.2-0.1c-0.7-0.7-1.1-1.6-0.7-2c0.3-0.4,1.2-0.1,2,0.6c0.1,0.1,0.1,0.1,0.2,0.2
			C11.3,23.9,10.8,24.3,10.8,25z"/>
	</g>
	<g>
		<rect x="13.2" y="36.5" fill="#559AFF" width="9.8" height="11.9"/>
	</g>
	<g>
		<rect x="27" y="36.5" fill="#6EB0FF" width="9.8" height="5.1"/>
	</g>
	<g>
		<rect x="13.2" y="36.5" fill="#6EB0FF" width="9.8" height="5.1"/>
	</g>
	<g>
		<g>
			<circle fill="#FFFFFF" cx="30" cy="39" r="0.9"/>
		</g>
		<g>
			<circle fill="#FFFFFF" cx="20" cy="39" r="0.9"/>
		</g>
	</g>
	<g>
		<path fill="#EABE06" d="M23.7,2.6c0-1.3,2.7-1.3,2.7,0v15.2h-2.7V2.6z"/>
	</g>
	<g>
		<path fill="#FECD04" d="M22.4,25.6h5.2c1.1,0,2.1-0.9,2.1-2.1v-5.2c0-1.1-0.9-2.1-2.1-2.1h-5.2c-1.1,0-2.1,0.9-2.1,2.1v5.2
			C20.3,24.6,21.3,25.6,22.4,25.6z M22.4,21.4h5.2v2.2h-5.2C22.4,23.6,22.4,21.4,22.4,21.4z"/>
	</g>
	<g>
		<g>
			<rect x="20.8" y="7.5" fill="#EABE06" width="2.9" height="2.2"/>
		</g>
		<g>
			<rect x="20.8" y="3.4" fill="#EABE06" width="2.9" height="2.2"/>
		</g>
	</g>
	<g>
		<g>
			<g>
				
					<rect x="31.2" y="11.7" transform="matrix(-0.8422 -0.5392 0.5392 -0.8422 51.3508 40.9986)" fill="#425060" width="1" height="2.6"/>
			</g>
			<g>
				
					<rect x="34.3" y="12" transform="matrix(-0.7071 -0.7071 0.7071 -0.7071 49.8604 47.8739)" fill="#425060" width="1" height="3.2"/>
			</g>
			<g>
				
					<rect x="35" y="15.5" transform="matrix(-0.5392 -0.8422 0.8422 -0.5392 40.4816 55.6745)" fill="#425060" width="1" height="2.6"/>
			</g>
		</g>
		<g>
			<g>
				
					<rect x="17" y="12.4" transform="matrix(-0.5387 -0.8425 0.8425 -0.5387 17.31 35.3482)" fill="#425060" width="2.6" height="1"/>
			</g>
			<g>
				
					<rect x="13.6" y="13.2" transform="matrix(-0.7072 -0.707 0.707 -0.7072 16.209 34.1073)" fill="#425060" width="3.2" height="1"/>
			</g>
			<g>
				
					<rect x="13.2" y="16.3" transform="matrix(-0.8426 -0.5385 0.5385 -0.8426 17.6171 38.7619)" fill="#425060" width="2.6" height="1"/>
			</g>
		</g>
	</g>
</g>
</svg>
