<?xml version="1.0" encoding="utf-8"?>
<!-- Generator: Adobe Illustrator 18.0.0, SVG Export Plug-In . SVG Version: 6.00 Build 0)  -->
<!DOCTYPE svg PUBLIC "-//W3C//DTD SVG 1.1//EN" "http://www.w3.org/Graphics/SVG/1.1/DTD/svg11.dtd">
<svg version="1.1" id="Layer_1" xmlns="http://www.w3.org/2000/svg" xmlns:xlink="http://www.w3.org/1999/xlink" x="0px" y="0px"
	 viewBox="0 0 50 50" enable-background="new 0 0 50 50" xml:space="preserve">
<g>
	<g>
		<g>
			<g>
				<polygon fill="#425060" points="36.3,47.7 35.8,46.9 40.3,44.1 44.7,46.9 44.2,47.7 40.3,45.3 				"/>
			</g>
			<g>
				<rect x="39.8" y="41.3" fill="#425060" width="1" height="3.4"/>
			</g>
		</g>
		<g>
			<g>
				<polygon fill="#425060" points="5.8,47.7 5.3,46.9 9.7,44.1 14.2,46.9 13.7,47.7 9.7,45.3 				"/>
			</g>
			<g>
				<rect x="9.2" y="41.3" fill="#425060" width="1" height="3.4"/>
			</g>
		</g>
	</g>
	<g>
		<path fill="#E5E5E5" d="M28.5,44.2c0,1.7,2.5,1.9,2.7,0.1c0.3-3,1.1-8.9,1.1-8.9l7,0.7c1.6,0.2,3-1,3-2.6c0-0.4,0-0.7,0.1-1l0,0
			c0.9-3,1.4-6.4,1.5-10.1c0.1-1.7-1.3-2.2-3.1-2.2c-1.7-0.1-3.2,0.3-3.2,2c-0.1,3.3-0.6,6.2-1.3,8.8l-0.1,0.1l-3.3-0.5
			c-1.7-0.2-3.2,1-3.4,2.6C29.1,37,28.6,42.7,28.5,44.2z"/>
	</g>
	<g>
		<path fill="#E5E5E5" d="M21.5,44.2c0,1.7-2.5,1.9-2.7,0.1c-0.3-3-1.1-8.9-1.1-8.9l-7,0.7c-1.6,0.2-3-1-3-2.6c0-0.4,0-0.7-0.1-1
			l0,0c-0.9-3-1.4-6.4-1.5-10.1c-0.1-1.7,1.3-2.2,3.1-2.2c1.7-0.1,3.2,0.3,3.2,2c0.1,3.3,0.6,6.2,1.3,8.8l0.1,0.1l3.3-0.5
			c1.7-0.2,3.2,1,3.4,2.6C20.9,37,21.4,42.7,21.5,44.2z"/>
	</g>
	<g>
		<path fill="#ABB734" d="M42.4,32.7L42.4,32.7c0,0.1-6.2-1.4-6.2-1.4s0-0.1,0.1-0.1c0.8-2.6,1.2-5.5,1.3-8.8c0.1-1.7,1.5-2.1,3.2-2
			s3.1,0.5,3.1,2.2C43.7,26.2,43.2,29.6,42.4,32.7L42.4,32.7z"/>
	</g>
	<g>
		<path fill="#C6CC4A" d="M42.1,21.9c-1,0.1-1.4,1.1-0.9,3.3c0,0.8,0,1.6,0,2.3c-0.1,1.6-0.3,3.3-0.8,4.7c-0.3,0.6,0,1.2,0.6,1.5
			c1.7,0.6,2-2.2,2.4-3.2c0.5-2.3,0.7-4.5,0.6-6.8C43.9,22.6,43.1,21.8,42.1,21.9z"/>
	</g>
	<g>
		
			<ellipse transform="matrix(-9.174509e-002 0.9958 -0.9958 -9.174509e-002 60.3056 -23.3628)" fill="#616B77" cx="40.8" cy="15.8" rx="2.6" ry="2.7"/>
	</g>
	<g>
		<path fill="#559AFF" d="M36.4,41.7c-0.2,0-0.4,0-0.5-0.1c-0.9-0.1-1.5-0.9-1.4-1.7c0.1-0.9,0.9-1.5,1.7-1.4c2,0.2,5.5,0.2,6.5-0.6
			c1.2-0.9,2.6-6.8,3.1-11.7c0.1-0.9,0.9-1.5,1.7-1.4c0.9,0.1,1.5,0.9,1.4,1.7c-0.3,2.7-1.5,11.6-4.3,13.8
			C42.6,42.1,38.1,41.9,36.4,41.7z"/>
	</g>
	<g>
		<path fill="#FFB95C" d="M7.6,32.7L7.6,32.7c0,0.1,6.2-1.4,6.2-1.4s0-0.1-0.1-0.1c-0.8-2.6-1.2-5.5-1.3-8.8c-0.1-1.7-1.5-2.1-3.2-2
			s-3.1,0.5-3.1,2.2C6.3,26.2,6.8,29.6,7.6,32.7L7.6,32.7z"/>
	</g>
	<g>
		<path fill="#FFCA8A" d="M7.9,21.9c1,0.1,1.4,1.1,0.9,3.3c0,0.8,0,1.6,0,2.3c0.1,1.6,0.3,3.3,0.8,4.7c0.3,0.6,0,1.2-0.6,1.5
			c-1.7,0.6-2-2.2-2.4-3.2C6.1,28.2,5.9,26,6,23.7C6.1,22.6,6.9,21.8,7.9,21.9z"/>
	</g>
	<g>
		
			<ellipse transform="matrix(-9.174675e-002 -0.9958 0.9958 -9.174675e-002 -5.8984 26.4291)" fill="#616B77" cx="9.1" cy="15.9" rx="2.6" ry="2.7"/>
	</g>
	<g>
		<path fill="#FA4968" d="M13.6,41.7c0.2,0,0.4,0,0.5-0.1c0.9-0.1,1.5-0.9,1.4-1.7c-0.1-0.9-0.9-1.5-1.7-1.4c-2,0.2-5.5,0.2-6.5-0.6
			C6.1,37,4.7,31.1,4.1,26.2c-0.1-0.9-0.9-1.5-1.7-1.4C1.5,25,0.9,25.7,1,26.6c0.3,2.7,1.5,11.6,4.3,13.8
			C7.4,42.1,11.9,41.9,13.6,41.7z"/>
	</g>
	<g>
		<g>
			<rect x="15.9" y="24.9" fill="#E8CEC1" width="18.1" height="3"/>
		</g>
		<g>
			<rect x="23.6" y="27.8" fill="#D9BAA8" width="2.8" height="17.8"/>
		</g>
	</g>
	<g>
		<path fill="#6E9583" d="M15.3,17.9c0,0,2.4-0.1,4.5-1.5c1.6,1,3.7,1.5,5.9,1.5c5.5,0,9.9-3.5,9.9-7.8s-4.4-7.8-9.9-7.8
			s-9.9,3.5-9.9,7.8c0,1.5,0.5,2.8,1.4,4C16.8,15.3,16.3,16.6,15.3,17.9z"/>
	</g>
	<g opacity="0.3">
		<path fill="#FFFFFF" d="M21.4,5.8L21,4.9c0.3-0.2,0.6-0.3,0.9-0.4l0.4,1C22,5.5,21.7,5.6,21.4,5.8z"/>
	</g>
	<g opacity="0.3">
		<path fill="#FFFFFF" d="M28.5,5.2c-1.6-0.5-3.3-0.5-5-0.2l-0.2-1c1.8-0.4,3.7-0.3,5.5,0.2L28.5,5.2z"/>
	</g>
	<g>
		<g>
			<ellipse fill="#FFFFFF" cx="30.9" cy="10.1" rx="1.8" ry="1.8"/>
		</g>
		<g>
			<ellipse fill="#FFFFFF" cx="25.7" cy="10.1" rx="1.8" ry="1.8"/>
		</g>
		<g>
			<ellipse fill="#FFFFFF" cx="20.4" cy="10.1" rx="1.8" ry="1.8"/>
		</g>
	</g>
	<g opacity="0.3">
		<rect x="17.6" y="25.6" fill="#FFFFFF" width="4.5" height="1"/>
	</g>
	<g opacity="0.3">
		<rect x="23.6" y="25.6" fill="#FFFFFF" width="1.1" height="1"/>
	</g>
</g>
</svg>
