<?xml version="1.0" encoding="utf-8"?>
<!-- Generator: Adobe Illustrator 18.0.0, SVG Export Plug-In . SVG Version: 6.00 Build 0)  -->
<!DOCTYPE svg PUBLIC "-//W3C//DTD SVG 1.1//EN" "http://www.w3.org/Graphics/SVG/1.1/DTD/svg11.dtd">
<svg version="1.1" id="Layer_1" xmlns="http://www.w3.org/2000/svg" xmlns:xlink="http://www.w3.org/1999/xlink" x="0px" y="0px"
	 viewBox="0 0 50 50" enable-background="new 0 0 50 50" xml:space="preserve">
<g>
	<g>
		<path fill="#525F70" d="M6.9,37.8v-27H43v27h2.6V10.5c0-1.3-1.1-2.4-2.4-2.4H6.7c-1.3,0-2.4,1.1-2.4,2.4v27.3H6.9z"/>
	</g>
	<g>
		<rect x="25" y="10.7" fill="#FFFFFF" width="18.1" height="13.5"/>
	</g>
	<g>
		<rect x="6.9" y="10.7" fill="#F4F4F4" width="18.1" height="13.5"/>
	</g>
	<g>
		<rect x="6.9" y="24.3" fill="#FFFFFF" width="18.1" height="13.5"/>
	</g>
	<g>
		<rect x="25" y="24.3" fill="#F4F4F4" width="18.1" height="13.5"/>
	</g>
	<g>
		<path fill="#525F70" d="M1,37.8c0,2,1.6,4.1,3.6,4.1h40.8c2,0,3.6-2.1,3.6-4.1H1z"/>
	</g>
	<g>
		<rect x="22.4" y="39.3" fill="#425060" width="5.2" height="1"/>
	</g>
	<g>
		<g>
			<path fill="#FA4968" d="M20.3,17.5c0,1.1-0.4,2.1-1.1,2.9c-0.8,0.9-2,1.5-3.3,1.5s-2.5-0.6-3.3-1.5c-0.7-0.8-1.1-1.8-1.1-2.9
				c0-2.4,2-4.4,4.4-4.4C18.4,13.1,20.3,15.1,20.3,17.5z"/>
		</g>
		<g>
			<circle fill="#FFFFFF" cx="16" cy="16.3" r="1.4"/>
		</g>
		<g>
			<path fill="#FFFFFF" d="M19.2,20.4c-0.8,0.9-2,1.5-3.3,1.5s-2.5-0.6-3.3-1.5c0.3-1.6,1.6-2.7,3.3-2.7
				C17.6,17.7,19,18.8,19.2,20.4z"/>
		</g>
	</g>
	<g>
		<g>
			<path fill="#FFB95C" d="M38.4,17.5c0,1.1-0.4,2.1-1.1,2.9c-0.8,0.9-2,1.5-3.3,1.5s-2.5-0.6-3.3-1.5c-0.7-0.8-1.1-1.8-1.1-2.9
				c0-2.4,2-4.4,4.4-4.4C36.5,13.1,38.4,15.1,38.4,17.5z"/>
		</g>
		<g>
			<circle fill="#FFFFFF" cx="34" cy="16.3" r="1.4"/>
		</g>
		<g>
			<path fill="#FFFFFF" d="M37.3,20.4c-0.8,0.9-2,1.5-3.3,1.5s-2.5-0.6-3.3-1.5c0.3-1.6,1.6-2.7,3.3-2.7
				C35.7,17.7,37,18.8,37.3,20.4z"/>
		</g>
	</g>
	<g>
		<g>
			<path fill="#6CD8D5" d="M20.3,31c0,1.1-0.4,2.1-1.1,2.9c-0.8,0.9-2,1.5-3.3,1.5s-2.5-0.6-3.3-1.5c-0.7-0.8-1.1-1.8-1.1-2.9
				c0-2.4,2-4.4,4.4-4.4C18.4,26.7,20.3,28.6,20.3,31z"/>
		</g>
		<g>
			<circle fill="#FFFFFF" cx="16" cy="29.8" r="1.4"/>
		</g>
		<g>
			<path fill="#FFFFFF" d="M19.2,33.9c-0.8,0.9-2,1.5-3.3,1.5s-2.5-0.6-3.3-1.5c0.3-1.6,1.6-2.7,3.3-2.7S19,32.4,19.2,33.9z"/>
		</g>
	</g>
	<g>
		<g>
			<path fill="#559AFF" d="M38.4,31c0,1.1-0.4,2.1-1.1,2.9c-0.8,0.9-2,1.5-3.3,1.5s-2.5-0.6-3.3-1.5c-0.7-0.8-1.1-1.8-1.1-2.9
				c0-2.4,2-4.4,4.4-4.4C36.5,26.7,38.4,28.6,38.4,31z"/>
		</g>
		<g>
			<circle fill="#FFFFFF" cx="34" cy="29.8" r="1.4"/>
		</g>
		<g>
			<path fill="#FFFFFF" d="M37.3,33.9c-0.8,0.9-2,1.5-3.3,1.5s-2.5-0.6-3.3-1.5c0.3-1.6,1.6-2.7,3.3-2.7S37,32.4,37.3,33.9z"/>
		</g>
	</g>
	<g>
		<rect x="12.4" y="8.9" fill="#616B77" width="3" height="1"/>
	</g>
	<g>
		<rect x="10" y="8.9" fill="#616B77" width="1.1" height="1"/>
	</g>
</g>
</svg>
