<?xml version="1.0" encoding="utf-8"?>
<!-- Generator: Adobe Illustrator 18.0.0, SVG Export Plug-In . SVG Version: 6.00 Build 0)  -->
<!DOCTYPE svg PUBLIC "-//W3C//DTD SVG 1.1//EN" "http://www.w3.org/Graphics/SVG/1.1/DTD/svg11.dtd">
<svg version="1.1" id="Layer_1" xmlns="http://www.w3.org/2000/svg" xmlns:xlink="http://www.w3.org/1999/xlink" x="0px" y="0px"
	 viewBox="0 0 50 50" enable-background="new 0 0 50 50" xml:space="preserve">
<g>
	<g>
		<g>
			<g>
				<path fill="#F4F4F4" d="M36.9,49H13.1c-2.3,0-4.2-1.9-4.2-4.2V11.2c0-2.3,1.9-4.2,4.2-4.2H37c2.3,0,4.2,1.9,4.2,4.2v33.6
					C41.1,47.1,39.2,49,36.9,49z"/>
			</g>
		</g>
		<g>
			<path fill="#FECD04" d="M33.4,7.3L33.4,7.3c0,1.2-1,2.2-2.2,2.2H18.8c-1.2,0-2.2-1-2.2-2.2l0,0c0-1.5,1.3-2.8,2.8-2.8H22V4
				c0-1.7,1.3-3,3-3l0,0c1.7,0,3,1.3,3,3v0.5h2.6C32.1,4.5,33.4,5.8,33.4,7.3z"/>
		</g>
	</g>
	<g>
		<g>
			<g>
				<circle fill="#6CD8D5" cx="32.5" cy="21.7" r="2.3"/>
			</g>
			<g>
				<circle fill="#FA4968" cx="24.8" cy="29.4" r="2.3"/>
			</g>
			<g>
				<circle fill="#559AFF" cx="17.1" cy="37.1" r="2.3"/>
			</g>
		</g>
		<g>
			<g>
				<g>
					<path fill="#425060" d="M30,31.4v-1c2,0,3.6-1.6,3.6-3.6h1C34.6,29.4,32.5,31.4,30,31.4z"/>
				</g>
				<g>
					<path fill="#425060" d="M16,32h-1c0-2.6,2.1-4.6,4.6-4.6v1C17.6,28.4,16,30,16,32z"/>
				</g>
			</g>
			<g>
				<g>
					<polygon fill="#425060" points="34.8,28.4 34,27.4 33,28.2 32.4,27.4 34.2,26 35.6,27.8 					"/>
				</g>
			</g>
		</g>
		<g>
			<g>
				
					<rect x="15.6" y="20.5" transform="matrix(-0.7071 -0.7071 0.7071 -0.7071 11.8023 49.2101)" fill="#425060" width="1" height="3.4"/>
			</g>
			<g>
				
					<rect x="14.5" y="21.7" transform="matrix(-0.7071 -0.7071 0.7071 -0.7071 11.873 49.3808)" fill="#425060" width="3.4" height="1"/>
			</g>
		</g>
		<g>
			<g>
				
					<rect x="27" y="36.6" transform="matrix(-0.7072 -0.7071 0.7071 -0.7072 19.9014 84.8414)" fill="#425060" width="1" height="3.4"/>
			</g>
			<g>
				
					<rect x="25.8" y="37.8" transform="matrix(-0.7072 -0.707 0.707 -0.7072 19.909 84.8374)" fill="#425060" width="3.4" height="1"/>
			</g>
		</g>
		<g>
			<polygon fill="#425060" points="23.7,21.2 22.4,19.8 23.1,19.1 23.7,19.8 25.9,17.6 26.6,18.3 			"/>
		</g>
	</g>
</g>
</svg>
