<?xml version="1.0" encoding="utf-8"?>
<!-- Generator: Adobe Illustrator 18.0.0, SVG Export Plug-In . SVG Version: 6.00 Build 0)  -->
<!DOCTYPE svg PUBLIC "-//W3C//DTD SVG 1.1//EN" "http://www.w3.org/Graphics/SVG/1.1/DTD/svg11.dtd">
<svg version="1.1" id="Layer_1" xmlns="http://www.w3.org/2000/svg" xmlns:xlink="http://www.w3.org/1999/xlink" x="0px" y="0px"
	 viewBox="0 0 50 50" enable-background="new 0 0 50 50" xml:space="preserve">
<g>
	<g>
		<g>
			<path fill="#FA4968" d="M38.4,7.8c0,11.4-13,16.4-13,16.4s-13-5-13-16.4c0-3.8,3-6.8,6.7-6.8c2.8,0,5.2,1.7,6.2,4.2
				c1-2.5,3.4-4.2,6.2-4.2C35.4,1,38.4,4,38.4,7.8z"/>
		</g>
		<g opacity="0.2">
			<path fill="#FFFFFF" d="M15.3,7.8h-1.1c0-2.8,2.3-5.1,5-5.1v1.1C17.1,3.8,15.3,5.6,15.3,7.8z"/>
		</g>
		<g opacity="0.2">
			<path fill="#FFFFFF" d="M30.4,19.3l-0.7-0.8c2.7-2.1,5.9-5.7,5.9-10.6h1.1C36.7,13.2,33.3,17,30.4,19.3z"/>
		</g>
	</g>
	<g>
		<path fill="#FFA49F" d="M43.1,28.1c1.8-3.8,3.5-16.4,0.7-16.9c-1.9-0.3-3.1,9.8-3.1,9.8v0.1c-2.9-0.2-8.5,5.5-10.1,8
			c-1.1,1.7-1.6,7-1.8,9.2l6.3,1.9c0.3-2,1-5.3,1.8-6.5C38.1,31.9,42.2,30,43.1,28.1z"/>
	</g>
	<g opacity="0.2">
		<path fill="#FFFFFF" d="M35.7,26.5L35,25.7c0.2-0.2,0.4-0.4,0.7-0.6l0.7,0.8C36.1,26.1,35.9,26.3,35.7,26.5z"/>
	</g>
	<g opacity="0.2">
		<path fill="#FFFFFF" d="M32.7,29.8l-0.9-0.6c0.5-0.8,1.3-1.6,2.1-2.5l0.8,0.7C33.9,28.2,33.3,29,32.7,29.8z"/>
	</g>
	<g>
		<path fill="#F4F4F4" d="M40.1,24.3c0.1-0.1,0.1-0.1,0.2-0.2c0.8-0.8,1.1-1.7,0.7-2.1c-0.4-0.4-1.3-0.1-2.1,0.7
			c-0.1,0.1-0.1,0.1-0.2,0.2C39.5,23.1,40,23.6,40.1,24.3z"/>
	</g>
	<g>
		<rect x="27.1" y="36.5" fill="#559AFF" width="10.4" height="12.5"/>
	</g>
	<g>
		<path fill="#FFA49F" d="M6.9,28.1c-1.8-3.8-3.5-16.4-0.7-16.9C8.1,10.9,9.3,21,9.3,21v0.1c2.9-0.2,8.5,5.5,10.1,8
			c1.1,1.7,1.6,7,1.8,9.2L15,40.1c-0.3-2-1-5.3-1.8-6.5C11.9,31.9,7.8,30,6.9,28.1z"/>
	</g>
	<g opacity="0.2">
		<path fill="#FFFFFF" d="M14.3,26.5c-0.2-0.2-0.4-0.4-0.7-0.6l0.7-0.8c0.2,0.2,0.4,0.4,0.7,0.6L14.3,26.5z"/>
	</g>
	<g opacity="0.2">
		<path fill="#FFFFFF" d="M17.3,29.8c-0.5-0.7-1.2-1.5-2-2.3l0.8-0.7c0.8,0.9,1.6,1.7,2.1,2.5L17.3,29.8z"/>
	</g>
	<g>
		<path fill="#F4F4F4" d="M9.9,24.3c-0.1-0.1-0.1-0.1-0.2-0.2c-0.7-0.7-1.1-1.6-0.7-2s1.3-0.1,2.1,0.7c0.1,0.1,0.1,0.1,0.2,0.2
			C10.5,23.1,10,23.6,9.9,24.3z"/>
	</g>
	<g>
		<rect x="12.5" y="36.5" fill="#559AFF" width="10.4" height="12.5"/>
	</g>
</g>
</svg>
