<?xml version="1.0" encoding="utf-8"?>
<!-- Generator: Adobe Illustrator 18.0.0, SVG Export Plug-In . SVG Version: 6.00 Build 0)  -->
<!DOCTYPE svg PUBLIC "-//W3C//DTD SVG 1.1//EN" "http://www.w3.org/Graphics/SVG/1.1/DTD/svg11.dtd">
<svg version="1.1" id="Layer_1" xmlns="http://www.w3.org/2000/svg" xmlns:xlink="http://www.w3.org/1999/xlink" x="0px" y="0px"
	 viewBox="0 0 50 50" enable-background="new 0 0 50 50" xml:space="preserve">
<g>
	<g>
		<path fill="#ED2F58" d="M16.1,12.7c5,3.8,7.6,3.1,9.3-3c0.6-2.1,3.7-1.3,3.3,0.8c-0.9,5.8-4.8,10.5-11,8.3c-1.6-0.5-3-1.3-4.3-2.2
			C10.7,14.7,13.5,10.7,16.1,12.7L16.1,12.7z"/>
	</g>
	<g>
		<g>
			<path fill="#FFCA8A" d="M42.1,3.7l-3.1,14c-2.5-3.1-5.8-5.6-9.9-7.2l1-4.4C34.5,6.3,38.5,5.5,42.1,3.7z"/>
		</g>
		<g>
			<path fill="#F9A846" d="M29.5,8.4l-0.5,2c4.2,1.7,7.5,4.1,9.9,7.2l1.5-6.9L29.5,8.4z"/>
		</g>
		<g>
			<path fill="#FFB95C" d="M41.2,7.6l-1.4,6.2C37,12,33.5,10.5,29.3,9.2l0.4-1.9C34.1,7.9,38,8,41.2,7.6z"/>
		</g>
	</g>
	<g>
		<path fill="#E5E5E5" d="M41.6,8.7c-0.2,0-0.4,0-0.6,0l-0.9,4.2c0.2,0.1,0.3,0.2,0.5,0.2c1.2,0.3,2.4-0.5,2.6-1.7
			C43.5,10.1,42.7,8.9,41.6,8.7z"/>
	</g>
	<g>
		<path fill="#CCCACA" d="M42,8.8c-0.1-0.1-0.3-0.1-0.5-0.2c-0.2,0-0.4,0-0.6,0L40,12.8c0.2,0.1,0.3,0.2,0.5,0.2s0.3,0,0.5,0L42,8.8
			z"/>
	</g>
	<g>
		<path fill="#E5E5E5" d="M30,6l-1,4.5c-0.2,0.8-1,1.3-1.8,1.1l-4.1-0.9c-0.8-0.2-1.3-1-1.1-1.8l1-4.5c0.2-0.8,1-1.3,1.8-1.1
			l4.1,0.9C29.7,4.4,30.2,5.2,30,6z"/>
	</g>
	<g>
		
			<rect x="20.3" y="4.8" transform="matrix(0.9763 0.2162 -0.2162 0.9763 1.9068 -4.477)" fill="#FFB95C" width="2.3" height="3.3"/>
	</g>
	<g>
		<path fill="#559AFF" d="M18.9,47.2c-0.2,2.5-3.9,2.3-3.9-0.1c0-4.4,0.1-8.6-1.3-12.9c0.1,3-0.2,5.9-1.1,8.8
			c-0.4,1.6-0.8,3.1-1.3,4.6c-0.3,1-1.3,1.6-2.3,1.3c-0.9-0.3-1.5-1.2-1.3-2.2c0.9-4.4,2-8.8,1.1-13.3c-0.2-1.5-0.4-3.1-0.7-4.6l0,0
			c-0.8-4.6-1-9.5-0.7-14.8c0.1-2.5,2.2-3,4.7-2.8c2.5,0.1,4.5,0.8,4.3,3.3c-0.3,4.7,0,9,0.7,12.8c0,0.1,0.1,0.1,0.1,0.2
			c0.8,3.3,1.5,6.3,2,9.8C19.4,40.7,19.1,43.9,18.9,47.2z"/>
	</g>
	<g>
		<path fill="#FA4968" d="M8.2,28.7v0.1c0,0,9-1.4,9-1.3c0-0.1,0-0.1-0.1-0.2c-0.8-3.8-1-8.1-0.7-12.8c0.1-2.5-1.8-3.2-4.3-3.3
			S7.6,11.5,7.4,14C7.1,19.3,7.3,24.2,8.2,28.7L8.2,28.7z"/>
	</g>
	<g>
		<path fill="#FF6989" d="M9.9,13.3c1.4,0.3,1.8,1.8,0.8,4.8c-0.2,1.1-0.3,2.2-0.3,3.4c-0.1,2.3,0,4.8,0.6,6.8
			c0.3,0.9-0.2,1.8-1.1,2c-2.5,0.6-2.6-3.4-2.9-5c-0.4-3.3-0.4-6.6,0-9.9C7.2,14.1,8.5,13,9.9,13.3z"/>
	</g>
	<g>
		<circle fill="#616B77" cx="12.6" cy="4.8" r="3.8"/>
	</g>
	<g>
		
			<rect x="13.7" y="25" transform="matrix(-0.1406 -0.9901 0.9901 -0.1406 -11.5223 46.0052)" fill="#425060" width="1" height="6.1"/>
	</g>
</g>
</svg>
