<?xml version="1.0" encoding="utf-8"?>
<!-- Generator: Adobe Illustrator 18.0.0, SVG Export Plug-In . SVG Version: 6.00 Build 0)  -->
<!DOCTYPE svg PUBLIC "-//W3C//DTD SVG 1.1//EN" "http://www.w3.org/Graphics/SVG/1.1/DTD/svg11.dtd">
<svg version="1.1" id="Layer_1" xmlns="http://www.w3.org/2000/svg" xmlns:xlink="http://www.w3.org/1999/xlink" x="0px" y="0px"
	 viewBox="0 0 50 50" enable-background="new 0 0 50 50" xml:space="preserve">
<g>
	<g>
		<path fill="#F4F4F4" d="M44.1,46H5.9C3.2,46,1,43.8,1,41.2V8.8C1,6.2,3.2,4,5.9,4h38.3C46.8,4,49,6.2,49,8.8v32.3
			C49,43.8,46.8,46,44.1,46z"/>
	</g>
	<g>
		<circle fill="#CCCACA" cx="5.9" cy="8.3" r="1.5"/>
	</g>
	<g>
		<circle fill="#CCCACA" cx="11.4" cy="8.3" r="1.5"/>
	</g>
	<g>
		<circle fill="#CCCACA" cx="16.8" cy="8.3" r="1.5"/>
	</g>
	<g>
		<path fill="#CCCACA" d="M44.1,6.8H22.3c-0.8,0-1.5,0.7-1.5,1.5s0.7,1.5,1.5,1.5h21.8c0.8,0,1.5-0.7,1.5-1.5S44.9,6.8,44.1,6.8z"/>
	</g>
	<g>
		<rect x="5.6" y="26.7" fill="#FF8C83" width="3.6" height="3.6"/>
	</g>
	<g>
		<rect x="11.4" y="23.1" fill="#ABB734" width="3.6" height="7.2"/>
	</g>
	<g>
		<rect x="17.2" y="25.1" fill="#FFB95C" width="3.6" height="5.2"/>
	</g>
	<g>
		<rect x="23" y="20.7" fill="#FA4968" width="3.6" height="9.6"/>
	</g>
	<g>
		
			<rect x="21.3" y="16.2" transform="matrix(-0.5429 -0.8398 0.8398 -0.5429 18.2918 46.3766)" fill="#425060" width="1" height="4.1"/>
	</g>
	<g>
		
			<rect x="9.7" y="18" transform="matrix(-0.5078 -0.8615 0.8615 -0.5078 -2.0715 39.4085)" fill="#425060" width="1" height="4.5"/>
	</g>
	<g>
		
			<rect x="14.4" y="18.8" transform="matrix(-0.9725 -0.233 0.233 -0.9725 27.2694 41.8456)" fill="#425060" width="3.4" height="1"/>
	</g>
	<g>
		<circle fill="#6EB0FF" cx="24.7" cy="16.4" r="1.7"/>
	</g>
	<g>
		<circle fill="#6EB0FF" cx="19" cy="20" r="1.7"/>
	</g>
	<g>
		<circle fill="#6EB0FF" cx="13.2" cy="18.6" r="1.7"/>
	</g>
	<g>
		<circle fill="#6EB0FF" cx="7.4" cy="22.1" r="1.7"/>
	</g>
	<g>
		<circle fill="#FF8C83" cx="32.8" cy="17.9" r="2.2"/>
	</g>
	<g>
		<circle fill="#ABB734" cx="32.8" cy="25" r="2.2"/>
	</g>
	<g>
		<circle fill="#FFB95C" cx="32.8" cy="32.1" r="2.2"/>
	</g>
	<g>
		<circle fill="#6EB0FF" cx="32.8" cy="39.2" r="2.2"/>
	</g>
	<g>
		<line fill="none" x1="37.5" y1="17" x2="44.4" y2="17"/>
		<rect x="37.5" y="16.4" fill="#CCCACA" width="7" height="1"/>
	</g>
	<g>
		<line fill="none" x1="37.5" y1="18.8" x2="42.6" y2="18.8"/>
		<rect x="37.5" y="18.3" fill="#CCCACA" width="5.1" height="1"/>
	</g>
	<g>
		<line fill="none" x1="37.5" y1="24.1" x2="44.4" y2="24.1"/>
		<rect x="37.5" y="23.6" fill="#CCCACA" width="7" height="1"/>
	</g>
	<g>
		<line fill="none" x1="37.5" y1="25.9" x2="42.6" y2="25.9"/>
		<rect x="37.5" y="25.4" fill="#CCCACA" width="5.1" height="1"/>
	</g>
	<g>
		<line fill="none" x1="37.5" y1="31.2" x2="44.4" y2="31.2"/>
		<rect x="37.5" y="30.7" fill="#CCCACA" width="7" height="1"/>
	</g>
	<g>
		<line fill="none" x1="37.5" y1="33" x2="42.6" y2="33"/>
		<rect x="37.5" y="32.5" fill="#CCCACA" width="5.1" height="1"/>
	</g>
	<g>
		<line fill="none" x1="37.5" y1="38.3" x2="44.4" y2="38.3"/>
		<rect x="37.5" y="37.8" fill="#CCCACA" width="7" height="1"/>
	</g>
	<g>
		<line fill="none" x1="37.5" y1="40.2" x2="42.6" y2="40.2"/>
		<rect x="37.5" y="39.6" fill="#CCCACA" width="5.1" height="1"/>
	</g>
	<g>
		<g>
			<path fill="#6CD8D5" d="M9.7,38.4L7.4,35c-1.1,0.7-1.8,2-1.8,3.4c0,2.3,1.9,4.1,4.1,4.1c1.8,0,3.4-1.2,3.9-2.8L9.7,38.4z"/>
		</g>
		<g>
			<path fill="#C5DFDC" d="M9.7,34.3c-0.8,0-1.6,0.3-2.3,0.7l2.3,3.4l2.9-2.9C11.9,34.7,10.9,34.3,9.7,34.3z"/>
		</g>
		<g>
			<path fill="#FECD04" d="M9.7,38.4L9.7,38.4l3.9,1.3c0.1-0.4,0.2-0.8,0.2-1.3c0-1.1-0.5-2.2-1.2-2.9L9.7,38.4z"/>
		</g>
	</g>
	<g>
		<g>
			<path fill="#6CD8D5" d="M24.9,38.4h-2.4c0,1-0.8,1.7-1.7,1.7v2.4C23,42.6,24.9,40.7,24.9,38.4z"/>
		</g>
		<g>
			<path fill="#FF8C83" d="M20.7,40.1c-0.9,0-1.7-0.8-1.7-1.7h-2.4c0,2.3,1.8,4.1,4.1,4.1l0,0V40.1L20.7,40.1z"/>
		</g>
		<g>
			<path fill="#ABB734" d="M19,38.4c0-0.9,0.8-1.7,1.7-1.7l0,0v-2.4l0,0c-2.3,0-4.1,1.9-4.1,4.1l0,0L19,38.4L19,38.4z"/>
		</g>
		<g>
			<path fill="#FA4968" d="M22.5,38.4L22.5,38.4h2.4l0,0c0-2.3-1.8-4.1-4.1-4.1v2.4C21.7,36.7,22.5,37.5,22.5,38.4z"/>
		</g>
	</g>
</g>
</svg>
