<?xml version="1.0" encoding="utf-8"?>
<!-- Generator: Adobe Illustrator 18.0.0, SVG Export Plug-In . SVG Version: 6.00 Build 0)  -->
<!DOCTYPE svg PUBLIC "-//W3C//DTD SVG 1.1//EN" "http://www.w3.org/Graphics/SVG/1.1/DTD/svg11.dtd">
<svg version="1.1" id="Layer_1" xmlns="http://www.w3.org/2000/svg" xmlns:xlink="http://www.w3.org/1999/xlink" x="0px" y="0px"
	 viewBox="0 0 50 50" enable-background="new 0 0 50 50" xml:space="preserve">
<g>
	<g>
		<path fill="#E8CEC1" d="M20,43.7c-0.7,1.4-0.3,3.5,0.3,5c0,0.1,0.1,0.2,0.1,0.3h21.4c-7-7.2,0.7-21.3,2.2-27.1
			c2.1-8.3-1.3-13.6-5.2-16.8C34.6,1.7,29,0.4,23.5,1.3c-15,2.6-14.8,14-14.2,18.2c0.1,1-0.1,2.1-0.6,3l-3.2,5.2
			c-0.6,1-0.2,2.2,0.8,2.7l1.8,0.9V34l1.9,1.1L8.3,37l1.9,1.4L9.9,41c-0.2,1.6,1,3,2.6,3.1c3.2,0.3,8.4,0.3,12.7-1.6"/>
	</g>
</g>
<g>
	<g>
		<path fill="#616B77" d="M22,38.2c0.3,1.4,1.5,2.5,3,2.5s2.8-1.1,3-2.5H22z"/>
	</g>
	<g>
		<g>
			<path fill="#FFB95C" d="M20.6,32.3h8.8c0.5-1.4,1.2-2.7,2.3-3.8c1.8-1.9,2.8-4.7,2.4-7.6c-0.6-4-3.9-7.2-8-7.7
				c-5.5-0.6-10.2,3.7-10.2,9.1c0,2.4,0.9,4.5,2.4,6.1C19.3,29.5,20.1,30.9,20.6,32.3z"/>
		</g>
		<g>
			<path fill="#FFCA8A" d="M18.7,19.8l-0.9-0.4c0.6-1.6,1.8-3,3.3-3.9l0.5,0.9C20.3,17.2,19.3,18.4,18.7,19.8z"/>
		</g>
		<g>
			<path fill="#FFCA8A" d="M23,15.8l-0.3-1c0.4-0.1,0.7-0.2,1.1-0.3l0.2,1C23.6,15.7,23.3,15.7,23,15.8z"/>
		</g>
		<g>
			<path fill="#FFFFFF" d="M26.9,32.3h-1v-8.4h-1.8V32h-1v-8.2h-0.8c-1,0-1.8-0.8-1.8-1.8s0.8-1.8,1.8-1.8s1.8,0.8,1.8,1.8v0.8h1.8
				V22c0-1,0.8-1.8,1.8-1.8s1.8,0.8,1.8,1.8s-0.8,1.8-1.8,1.8h-0.8V32.3z M26.9,22.9h0.8c0.5,0,0.8-0.4,0.8-0.8s-0.4-0.8-0.8-0.8
				s-0.8,0.4-0.8,0.8V22.9z M22.3,21.2c-0.5,0-0.8,0.4-0.8,0.8s0.4,0.8,0.8,0.8h0.8V22C23.1,21.6,22.7,21.2,22.3,21.2z"/>
		</g>
		<g>
			<path fill="#616B77" d="M28.7,32.3h-7.5c-0.8,0-1.5,0.7-1.5,1.5l0,0c0,0.8,0.7,1.5,1.5,1.5h7.5c0.8,0,1.5-0.7,1.5-1.5l0,0
				C30.2,33,29.6,32.3,28.7,32.3z"/>
		</g>
		<g>
			<path fill="#616B77" d="M28.7,35.3h-7.5c-0.8,0-1.5,0.7-1.5,1.5s0.7,1.5,1.5,1.5h7.5c0.8,0,1.5-0.7,1.5-1.5
				C30.2,35.9,29.6,35.3,28.7,35.3z"/>
		</g>
		<g>
			<g>
				<g>
					<g>
						<g>
							<line fill="none" x1="36.5" y1="22.2" x2="38" y2="22.2"/>
							<rect x="36.5" y="21.7" fill="#425060" width="1.4" height="1"/>
						</g>
						<g>
							<line fill="none" x1="12" y1="22.2" x2="13.5" y2="22.2"/>
							<rect x="12" y="21.7" fill="#425060" width="1.4" height="1"/>
						</g>
					</g>
					<g>
						<g>
							<line fill="none" x1="25" y1="9.3" x2="25" y2="10.7"/>
							<rect x="24.5" y="9.3" fill="#425060" width="1" height="1.4"/>
						</g>
					</g>
				</g>
				<g>
					<g>
						<g>
							<line fill="none" x1="36.5" y1="22.2" x2="38" y2="22.2"/>
							<rect x="36.5" y="21.7" fill="#425060" width="1.4" height="1"/>
						</g>
						<g>
							<line fill="none" x1="12" y1="22.2" x2="13.5" y2="22.2"/>
							<rect x="12" y="21.7" fill="#425060" width="1.4" height="1"/>
						</g>
					</g>
					<g>
						<g>
							<line fill="none" x1="25" y1="9.3" x2="25" y2="10.7"/>
							<rect x="24.5" y="9.3" fill="#425060" width="1" height="1.4"/>
						</g>
					</g>
				</g>
				<g>
					<g>
						<g>
							<line fill="none" x1="33.2" y1="30.4" x2="34.2" y2="31.4"/>
							
								<rect x="32.9" y="30.4" transform="matrix(-0.7071 -0.7071 0.7071 -0.7071 35.5523 76.4292)" fill="#425060" width="1.4" height="1"/>
						</g>
						<g>
							<line fill="none" x1="15.8" y1="13.1" x2="16.8" y2="14.1"/>
							
								<rect x="15.6" y="13.1" transform="matrix(-0.7071 -0.7071 0.7071 -0.7071 18.2095 34.6638)" fill="#425060" width="1.4" height="1"/>
						</g>
					</g>
					<g>
						<g>
							<line fill="none" x1="16.8" y1="30.4" x2="15.8" y2="31.4"/>
							
								<rect x="15.8" y="30.2" transform="matrix(-0.7071 -0.7072 0.7072 -0.7071 5.9928 64.2206)" fill="#425060" width="1" height="1.4"/>
						</g>
						<g>
							<line fill="none" x1="34.2" y1="13.1" x2="33.2" y2="14.1"/>
							
								<rect x="33.2" y="12.8" transform="matrix(-0.7071 -0.7071 0.7071 -0.7071 48.0051 46.975)" fill="#425060" width="1" height="1.4"/>
						</g>
					</g>
				</g>
			</g>
			<g>
				<g>
					<g>
						<g>
							<line fill="none" x1="35.7" y1="17.8" x2="37" y2="17.3"/>
							
								<rect x="35.8" y="16.8" transform="matrix(-0.3828 -0.9238 0.9238 -0.3828 34.0809 57.7806)" fill="#425060" width="1" height="1.4"/>
						</g>
						<g>
							<line fill="none" x1="13" y1="27.2" x2="14.3" y2="26.6"/>
							
								<rect x="13.2" y="26.2" transform="matrix(-0.3829 -0.9238 0.9238 -0.3829 -5.925 49.8815)" fill="#425060" width="1" height="1.4"/>
						</g>
					</g>
					<g>
						<g>
							<line fill="none" x1="20" y1="10.2" x2="20.6" y2="11.6"/>
							
								<rect x="19.6" y="10.4" transform="matrix(-0.3824 -0.924 0.924 -0.3824 18.0179 33.8271)" fill="#425060" width="1.4" height="1"/>
						</g>
					</g>
				</g>
				<g>
					<g>
						<g>
							<line fill="none" x1="35.7" y1="17.8" x2="37" y2="17.3"/>
							
								<rect x="35.8" y="16.8" transform="matrix(-0.3828 -0.9238 0.9238 -0.3828 34.0809 57.7806)" fill="#425060" width="1" height="1.4"/>
						</g>
						<g>
							<line fill="none" x1="13" y1="27.2" x2="14.3" y2="26.6"/>
							
								<rect x="13.2" y="26.2" transform="matrix(-0.3829 -0.9238 0.9238 -0.3829 -5.925 49.8815)" fill="#425060" width="1" height="1.4"/>
						</g>
					</g>
					<g>
						<g>
							<line fill="none" x1="20" y1="10.2" x2="20.6" y2="11.6"/>
							
								<rect x="19.6" y="10.4" transform="matrix(-0.3824 -0.924 0.924 -0.3824 18.0179 33.8271)" fill="#425060" width="1.4" height="1"/>
						</g>
					</g>
				</g>
				<g>
					<g>
						<g>
							<line fill="none" x1="35.7" y1="26.6" x2="37" y2="27.2"/>
							
								<rect x="35.6" y="26.4" transform="matrix(-0.924 -0.3824 0.3824 -0.924 59.5694 65.627)" fill="#425060" width="1.4" height="1"/>
						</g>
						<g>
							<line fill="none" x1="13" y1="17.3" x2="14.3" y2="17.8"/>
							
								<rect x="13" y="17" transform="matrix(-0.924 -0.3824 0.3824 -0.924 19.6888 38.9298)" fill="#425060" width="1.4" height="1"/>
						</g>
					</g>
					<g>
						<g>
							<line fill="none" x1="30" y1="10.2" x2="29.4" y2="11.6"/>
							
								<rect x="29.2" y="10.2" transform="matrix(-0.9238 -0.3828 0.3828 -0.9238 52.9646 32.3487)" fill="#425060" width="1" height="1.4"/>
						</g>
					</g>
				</g>
			</g>
		</g>
	</g>
</g>
</svg>
