<?xml version="1.0" encoding="utf-8"?>
<!-- Generator: Adobe Illustrator 18.0.0, SVG Export Plug-In . SVG Version: 6.00 Build 0)  -->
<!DOCTYPE svg PUBLIC "-//W3C//DTD SVG 1.1//EN" "http://www.w3.org/Graphics/SVG/1.1/DTD/svg11.dtd">
<svg version="1.1" id="Layer_1" xmlns="http://www.w3.org/2000/svg" xmlns:xlink="http://www.w3.org/1999/xlink" x="0px" y="0px"
	 viewBox="0 0 50 50" enable-background="new 0 0 50 50" xml:space="preserve">
<g>
	<g>
		<path fill="#525F70" d="M40.1,18.6h-5.3v-3.2c0-1,5.3-1,5.3,0V18.6z"/>
	</g>
	<g>
		<path fill="#EABE06" d="M45.4,32.5c-0.2,4-3.5,7.4-7.5,7.6c-4.6,0.2-8.3-3.4-8.3-7.9c0-2.8,1.4-5.2,3.6-6.6c0.7-0.5,1.1-1.2,1.1-2
			v-2.7h6.5v2.7c0,0.8,0.4,1.6,1.1,2C44,27,45.5,29.6,45.4,32.5z"/>
	</g>
	<g>
		<path fill="#425060" d="M41.5,22.7h-8.1v-4.9c0-1.5,8.1-1.5,8.1,0V22.7z"/>
	</g>
	<g>
		<g>
			<path fill="#425060" d="M39.9,33.2c-1.1,0-1.9-0.9-1.9-1.9v-0.9h-1v0.9c0,1.1-0.9,1.9-1.9,1.9c-1.1,0-1.9-0.9-1.9-1.9
				c0-1.1,0.9-1.9,1.9-1.9H36v-6.7h1v6.7h1v-6.7h1v6.7h0.9c1.1,0,1.9,0.9,1.9,1.9C41.8,32.4,40.9,33.2,39.9,33.2z M39,30.4v0.9
				c0,0.5,0.4,0.9,0.9,0.9s0.9-0.4,0.9-0.9s-0.4-0.9-0.9-0.9C39.9,30.4,39,30.4,39,30.4z M35,30.4c-0.5,0-0.9,0.4-0.9,0.9
				s0.4,0.9,0.9,0.9s0.9-0.4,0.9-0.9v-0.9C35.9,30.4,35,30.4,35,30.4z"/>
		</g>
	</g>
	<g>
		<line fill="none" x1="37.5" y1="14.7" x2="37.5" y2="1.7"/>
		<rect x="36.9" y="1.7" fill="#425060" width="1" height="13"/>
	</g>
	<g>
		<line fill="none" x1="12.5" y1="15.3" x2="12.5" y2="2"/>
		<rect x="12" y="2" fill="#425060" width="1" height="13.3"/>
	</g>
	<g>
		<path fill="#525F70" d="M15.2,18.6H9.9v-3.2c0-1,5.3-1,5.3,0V18.6z"/>
	</g>
	<g>
		<path fill="#FECD04" d="M20.5,32.5c-0.2,4-3.5,7.4-7.5,7.6c-4.6,0.2-8.3-3.4-8.3-7.9c0-2.8,1.4-5.2,3.6-6.6c0.7-0.5,1.1-1.2,1.1-2
			v-2.7h6.5v2.7c0,0.8,0.4,1.6,1.1,2C19.1,27,20.6,29.6,20.5,32.5z"/>
	</g>
	<g>
		<path fill="#425060" d="M16.6,22.7H8.5v-4.9c0-1.5,8.1-1.5,8.1,0V22.7z"/>
	</g>
	<g>
		<g>
			<path fill="#425060" d="M15,33.2c-1.1,0-1.9-0.9-1.9-1.9v-0.9h-1v0.9c0,1.1-0.9,1.9-1.9,1.9c-1.1,0-1.9-0.9-1.9-1.9
				c0-1.1,0.9-1.9,1.9-1.9H11v-6.7h1v6.7h1v-6.7h1v6.7h1c1.1,0,1.9,0.9,1.9,1.9C16.9,32.4,16,33.2,15,33.2z M14.1,30.4v0.9
				c0,0.5,0.4,0.9,0.9,0.9s0.9-0.4,0.9-0.9s-0.4-0.9-0.9-0.9C15,30.4,14.1,30.4,14.1,30.4z M10.1,30.4c-0.5,0-0.9,0.4-0.9,0.9
				s0.4,0.9,0.9,0.9s0.9-0.4,0.9-0.9v-0.9C11,30.4,10.1,30.4,10.1,30.4z"/>
		</g>
	</g>
	<g>
		<path fill="#425060" d="M28.1,19h-6.2v-3.8c0-1.2,6.2-1.2,6.2,0C28.1,15.2,28.1,19,28.1,19z"/>
	</g>
	<g>
		<path fill="#FFD731" d="M34.3,35.3c-0.2,4.7-4.1,8.7-8.8,8.9c-5.4,0.3-9.8-4-9.8-9.3c0-3.2,1.7-6.1,4.2-7.8
			c0.8-0.5,1.3-1.4,1.3-2.4v-3.1h7.6v3.1c0,1,0.5,1.9,1.3,2.4C32.7,28.8,34.4,31.9,34.3,35.3z"/>
	</g>
	<g>
		<path fill="#525F70" d="M29.8,23.8h-9.5V18c0-1.8,9.5-1.8,9.5,0V23.8z"/>
	</g>
	<g>
		<g>
			<path fill="#425060" d="M27.9,36.1c-1.2,0-2.2-1-2.2-2.2v-1.1h-1.4v1.1c0,1.2-1,2.2-2.2,2.2s-2.2-1-2.2-2.2s1-2.2,2.2-2.2h1.1
				v-7.9h1v7.9h1.4v-7.9h1v7.9h1.1c1.2,0,2.2,1,2.2,2.2C30,35.1,29,36.1,27.9,36.1z M26.7,32.7v1.1c0,0.6,0.5,1.1,1.1,1.1
				s1.1-0.5,1.1-1.1s-0.5-1.1-1.1-1.1H26.7z M22.1,32.7c-0.6,0-1.1,0.5-1.1,1.1s0.5,1.1,1.1,1.1s1.1-0.5,1.1-1.1v-1.1H22.1z"/>
		</g>
	</g>
	<g>
		<line fill="none" x1="25" y1="14.3" x2="25" y2="2"/>
		<rect x="24.5" y="2" fill="#525F70" width="1" height="12.3"/>
	</g>
	<g>
		<g>
			<g>
				<g>
					<g>
						<rect x="24.5" y="47" fill="#FFD731" width="1" height="1.3"/>
					</g>
				</g>
			</g>
			<g>
				<g>
					<g>
						
							<rect x="32.9" y="43.6" transform="matrix(-0.7079 -0.7063 0.7063 -0.7079 26.1426 98.9882)" fill="#FFD731" width="1.3" height="1"/>
					</g>
				</g>
				<g>
					<g>
						
							<rect x="15.9" y="43.4" transform="matrix(-0.7072 -0.7071 0.7071 -0.7072 -3.0774 86.792)" fill="#FFD731" width="1" height="1.3"/>
					</g>
				</g>
			</g>
		</g>
		<g>
			<g>
				<g>
					<g>
						
							<rect x="29" y="46.2" transform="matrix(-0.3833 -0.9236 0.9236 -0.3833 -2.1444 92.0031)" fill="#FFD731" width="1.3" height="1"/>
					</g>
				</g>
			</g>
			<g>
				<g>
					<g>
						
							<rect x="19.9" y="46.1" transform="matrix(-0.9238 -0.3828 0.3828 -0.9238 21.3017 97.7532)" fill="#FFD731" width="1" height="1.3"/>
					</g>
				</g>
			</g>
		</g>
	</g>
	<g>
		<g>
			<g>
				<g>
					<g>
						<g>
							<rect x="47.8" y="31.4" fill="#FFD731" width="1.2" height="1"/>
						</g>
					</g>
					<g>
						<g>
							<rect x="36.9" y="42.3" fill="#FFD731" width="1" height="1.2"/>
						</g>
					</g>
				</g>
				<g>
					<g>
						<g>
							
								<rect x="44.6" y="39.2" transform="matrix(-0.7075 -0.7067 0.7067 -0.7075 49.0943 99.689)" fill="#FFD731" width="1.2" height="1"/>
						</g>
					</g>
					<g>
						<g>
							
								<rect x="44.7" y="23.6" transform="matrix(-0.7071 -0.7072 0.7072 -0.7071 60.0459 73.2656)" fill="#FFD731" width="1" height="1.2"/>
						</g>
					</g>
				</g>
			</g>
			<g>
				<g>
					<g>
						<g>
							
								<rect x="47" y="27.2" transform="matrix(-0.3829 -0.9238 0.9238 -0.3829 40.0771 82.3326)" fill="#FFD731" width="1" height="1.2"/>
						</g>
					</g>
					<g>
						<g>
							
								<rect x="41.1" y="41.6" transform="matrix(-0.3836 -0.9235 0.9235 -0.3836 18.8511 96.7195)" fill="#FFD731" width="1.2" height="1"/>
						</g>
					</g>
				</g>
				<g>
					<g>
						<g>
							
								<rect x="47" y="35.6" transform="matrix(-0.924 -0.3823 0.3823 -0.924 77.7872 87.6688)" fill="#FFD731" width="1.2" height="1"/>
						</g>
					</g>
				</g>
			</g>
		</g>
		<g>
			<g>
				<g>
					<g>
						<g>
							<rect x="1" y="31.4" fill="#FFD731" width="1.2" height="1"/>
						</g>
					</g>
					<g>
						<g>
							<rect x="12" y="42.3" fill="#FFD731" width="1" height="1.2"/>
						</g>
					</g>
				</g>
				<g>
					<g>
						<g>
							
								<rect x="4.2" y="23.7" transform="matrix(-0.7075 -0.7067 0.7067 -0.7075 -8.9214 44.7129)" fill="#FFD731" width="1.2" height="1"/>
						</g>
					</g>
					<g>
						<g>
							
								<rect x="4.3" y="39.1" transform="matrix(-0.7072 -0.7071 0.7071 -0.7072 -19.9194 71.1458)" fill="#FFD731" width="1" height="1.2"/>
						</g>
					</g>
				</g>
			</g>
			<g>
				<g>
					<g>
						<g>
							
								<rect x="1.9" y="35.5" transform="matrix(-0.3828 -0.9238 0.9238 -0.3828 -29.9902 52.1586)" fill="#FFD731" width="1" height="1.2"/>
						</g>
					</g>
				</g>
				<g>
					<g>
						<g>
							
								<rect x="1.8" y="27.2" transform="matrix(-0.924 -0.3823 0.3823 -0.924 -5.9372 54.2123)" fill="#FFD731" width="1.2" height="1"/>
						</g>
					</g>
					<g>
						<g>
							
								<rect x="7.8" y="41.5" transform="matrix(-0.9238 -0.3828 0.3828 -0.9238 -0.1807 84.1144)" fill="#FFD731" width="1" height="1.2"/>
						</g>
					</g>
				</g>
			</g>
		</g>
	</g>
</g>
</svg>
