<?xml version="1.0" encoding="utf-8"?>
<!-- Generator: Adobe Illustrator 18.0.0, SVG Export Plug-In . SVG Version: 6.00 Build 0)  -->
<!DOCTYPE svg PUBLIC "-//W3C//DTD SVG 1.1//EN" "http://www.w3.org/Graphics/SVG/1.1/DTD/svg11.dtd">
<svg version="1.1" id="Layer_1" xmlns="http://www.w3.org/2000/svg" xmlns:xlink="http://www.w3.org/1999/xlink" x="0px" y="0px"
	 viewBox="0 0 50 50" enable-background="new 0 0 50 50" xml:space="preserve">
<g>
	<g>
		<g>
			<g>
				<ellipse fill="#559AFF" cx="41.7" cy="28.9" rx="3.5" ry="3.5"/>
			</g>
			<g>
				<path fill="#559AFF" d="M49,37.9c0,0.5-0.1,1.1-0.2,1.6c-0.3,1.7-1.8,2.8-3.5,2.8h-7.5c-1.7,0-3.2-1.2-3.5-2.8
					c-0.1-0.6-0.1-1.1-0.1-1.6c0-3.1,1.9-4.2,4.5-4.5l2.8,2.4l2.8-2.4C47.1,33.8,49,34.9,49,37.9z"/>
			</g>
			<g opacity="0.3">
				<path fill="#FFFFFF" d="M45.4,40.5h-7.5c-0.8,0-1.5-0.6-1.6-1.3c-0.1-0.5-0.1-0.9-0.1-1.3h1c0,0.3,0,0.7,0.1,1.1
					c0,0.3,0.3,0.5,0.7,0.5h7.5c0.3,0,0.6-0.2,0.7-0.5c0.1-0.4,0.1-0.8,0.1-1.1h1c0,0.4,0,0.8-0.1,1.3C46.9,40,46.2,40.5,45.4,40.5z
					"/>
			</g>
		</g>
		<g>
			<g>
				<ellipse fill="#ABB734" cx="25" cy="28.9" rx="3.5" ry="3.5"/>
			</g>
			<g>
				<path fill="#ABB734" d="M32.3,37.9c0,0.5-0.1,1.1-0.2,1.6c-0.3,1.7-1.8,2.8-3.5,2.8h-7.5c-1.7,0-3.2-1.2-3.5-2.8
					c-0.1-0.6-0.1-1.1-0.1-1.6c0-3.1,1.9-4.2,4.5-4.5l2.8,2.4l2.8-2.4C30.5,33.8,32.3,34.9,32.3,37.9z"/>
			</g>
			<g opacity="0.3">
				<path fill="#FFFFFF" d="M28.7,40.5h-7.5c-0.8,0-1.5-0.6-1.6-1.3c-0.1-0.5-0.1-0.9-0.1-1.3h1c0,0.3,0,0.7,0.1,1.1
					c0,0.3,0.3,0.5,0.7,0.5h7.5c0.3,0,0.6-0.2,0.7-0.5c0.1-0.4,0.1-0.8,0.1-1.1h1c0,0.4,0,0.8-0.1,1.3C30.2,40,29.5,40.5,28.7,40.5z
					"/>
			</g>
		</g>
		<g>
			<g>
				<ellipse fill="#FA4968" cx="8.3" cy="28.9" rx="3.5" ry="3.5"/>
			</g>
			<g>
				<path fill="#FA4968" d="M15.7,37.9c0,0.5-0.1,1.1-0.2,1.6c-0.3,1.7-1.8,2.8-3.5,2.8H4.6c-1.7,0-3.2-1.2-3.5-2.8
					c0-0.5-0.1-1-0.1-1.6c0-3.1,1.9-4.2,4.5-4.5l2.8,2.4l2.8-2.4C13.8,33.8,15.7,34.9,15.7,37.9z"/>
			</g>
			<g opacity="0.3">
				<path fill="#FFFFFF" d="M12.1,40.5H4.6c-0.8,0-1.5-0.6-1.6-1.3c-0.1-0.5-0.1-0.9-0.1-1.3h1c0,0.3,0,0.7,0.1,1.1
					c0,0.3,0.3,0.5,0.7,0.5h7.5c0.3,0,0.6-0.2,0.7-0.5c0.1-0.4,0.1-0.8,0.1-1.1h1c0,0.4,0,0.8-0.1,1.3C13.6,40,12.9,40.5,12.1,40.5z
					"/>
			</g>
		</g>
	</g>
	<g>
		<g>
			<path fill="#6CD8D5" d="M46.7,14.2c0,1.8-0.7,3.5-1.9,4.7c-1.2,1.2-2.8,1.9-4.7,1.9c-1.4,0-2.7-0.4-3.8-1.2l-2.8,1.2l1.2-2.8
				c-0.8-1.1-1.2-2.4-1.2-3.8c0-1.8,0.7-3.5,1.9-4.7s2.8-1.9,4.7-1.9c1.8,0,3.5,0.7,4.7,1.9S46.7,12.4,46.7,14.2z"/>
		</g>
		<g opacity="0.3">
			<path fill="#FFFFFF" d="M36,11.9l-0.9-0.5c0.3-0.4,0.6-0.9,0.9-1.2c0.6-0.6,1.4-1.1,2.3-1.4l0.3,0.9c-0.7,0.2-1.4,0.6-1.9,1.1
				C36.5,11.2,36.2,11.6,36,11.9z"/>
		</g>
		<g opacity="0.3">
			<path fill="#FFFFFF" d="M40.5,9.6c-0.2,0-0.5,0-0.7,0l-0.1-1c0.3,0,0.6,0,0.9,0L40.5,9.6z"/>
		</g>
		<g>
			<g>
				<polygon fill="#616B77" points="37.9,12 35.9,14.1 40.2,18.4 48.4,10.2 46.3,8.1 40.2,14.3 				"/>
			</g>
			<g opacity="0.3">
				<g>
					
						<rect x="44.4" y="10" transform="matrix(-0.7061 -0.7081 0.7081 -0.7061 68.4166 51.4557)" fill="#FFFFFF" width="1" height="3"/>
				</g>
				<g>
					
						<rect x="42.1" y="13.5" transform="matrix(-0.7071 -0.7071 0.7071 -0.7071 62.9159 53.6763)" fill="#FFFFFF" width="1" height="0.6"/>
				</g>
			</g>
		</g>
	</g>
	<g>
		<g>
			<path fill="#FA4968" d="M30.8,14.2c0,1.8-0.7,3.5-1.9,4.7c-1.2,1.2-2.8,1.9-4.7,1.9c-1.4,0-2.7-0.4-3.8-1.2l-2.8,1.2l1.2-2.8
				c-0.8-1.1-1.2-2.4-1.2-3.8c0-1.8,0.7-3.5,1.9-4.7c1.2-1.2,2.8-1.9,4.7-1.9c1.8,0,3.5,0.7,4.7,1.9S30.8,12.4,30.8,14.2z"/>
		</g>
		<g opacity="0.3">
			<path fill="#FFFFFF" d="M20.1,11.9l-0.9-0.5c0.3-0.4,0.6-0.9,0.9-1.2c0.6-0.6,1.4-1.1,2.3-1.4l0.3,0.9c-0.7,0.2-1.3,0.6-1.9,1.1
				C20.6,11.2,20.3,11.6,20.1,11.9z"/>
		</g>
		<g opacity="0.3">
			<path fill="#FFFFFF" d="M24.6,9.6c-0.2,0-0.5,0-0.7,0l-0.1-1c0.3,0,0.6,0,0.9,0L24.6,9.6z"/>
		</g>
		<g>
			<g>
				<polygon fill="#FFB95C" points="22,12 20,14.1 24.3,18.4 32.5,10.2 30.4,8.1 24.3,14.3 				"/>
			</g>
			<g opacity="0.3">
				<g>
					
						<rect x="28.4" y="10" transform="matrix(-0.7061 -0.7081 0.7081 -0.7061 41.2032 40.0419)" fill="#FFFFFF" width="1" height="3"/>
				</g>
				<g>
					
						<rect x="26.2" y="13.5" transform="matrix(-0.7061 -0.7081 0.7081 -0.7061 35.714 42.4615)" fill="#FFFFFF" width="1" height="0.6"/>
				</g>
			</g>
		</g>
	</g>
	<g>
		<path fill="#6CD8D5" d="M14.8,14.2c0,1.8-0.7,3.5-1.9,4.7c-1.2,1.2-2.8,1.9-4.7,1.9c-1.4,0-2.7-0.4-3.8-1.2l-2.8,1.2L2.8,18
			c-0.8-1.1-1.2-2.4-1.2-3.8c0-1.8,0.7-3.5,1.9-4.7s2.8-1.9,4.7-1.9s3.5,0.7,4.7,1.9S14.8,12.4,14.8,14.2z"/>
	</g>
	<g>
		<polygon fill="#FFFFFF" points="9.6,14.2 11.6,16.3 10.3,17.6 8.2,15.6 6.2,17.6 4.8,16.3 6.9,14.2 4.8,12.1 6.2,10.8 8.2,12.8 
			10.3,10.8 11.7,12.1 		"/>
	</g>
</g>
</svg>
