<?xml version="1.0" encoding="utf-8"?>
<!-- Generator: Adobe Illustrator 18.0.0, SVG Export Plug-In . SVG Version: 6.00 Build 0)  -->
<!DOCTYPE svg PUBLIC "-//W3C//DTD SVG 1.1//EN" "http://www.w3.org/Graphics/SVG/1.1/DTD/svg11.dtd">
<svg version="1.1" id="Layer_1" xmlns="http://www.w3.org/2000/svg" xmlns:xlink="http://www.w3.org/1999/xlink" x="0px" y="0px"
	 viewBox="0 0 50 50" enable-background="new 0 0 50 50" xml:space="preserve">
<g>
	<g>
		<path fill="#9B9B1B" d="M33.4,13.1c-1,2-2.4,4.1-3.8,5.9c-1.5,1.8-3.1,3.6-4.9,4.7c-0.8,0.5-1,1.5-0.6,2.2
			c1.5,2.1,4.2-0.9,5.5-1.8c3-2.6,5.4-5.6,7.5-9.1C38.5,12.5,34.7,10.5,33.4,13.1L33.4,13.1z"/>
	</g>
	<g>
		<path fill="#6E9583" d="M30.6,47.2c0.2,2.5,3.9,2.3,3.9-0.1c0-4.4-0.1-8.6,1.3-12.9c-0.1,3,0.2,5.9,1.1,8.8
			c0.4,1.6,0.8,3.1,1.3,4.6c0.3,1,1.3,1.6,2.3,1.3c0.9-0.3,1.5-1.2,1.3-2.2c-0.9-4.4-2-8.8-1.1-13.3c0.2-1.5,0.4-3.1,0.7-4.6l0,0
			c0.9-4.4,1.1-9.4,0.8-14.7c-0.1-2.5-2.2-3-4.7-2.8c-2.5,0.1-4.5,0.8-4.3,3.3c0.3,4.7,0,9-0.7,12.8c0,0.1-0.1,0.1-0.1,0.2
			c-0.8,3.3-1.5,6.3-2,9.8C30.1,40.7,30.5,43.9,30.6,47.2z"/>
	</g>
	<g>
		<path fill="#ABB734" d="M41.4,28.7v0.1c0,0-9-1.4-9-1.3c0-0.1,0-0.1,0.1-0.2c0.8-3.8,1-8.1,0.7-12.8c-0.1-2.5,1.8-3.2,4.3-3.3
			s4.5,0.3,4.7,2.8C42.5,19.3,42.2,24.2,41.4,28.7L41.4,28.7z"/>
	</g>
	<g>
		<path fill="#C6CC4A" d="M39.6,13.3c-1.4,0.3-1.8,1.8-0.8,4.8c0.2,1.1,0.3,2.2,0.3,3.4c0.1,2.3,0,4.8-0.6,6.8
			c-0.3,0.9,0.2,1.8,1.1,2c2.5,0.6,2.6-3.4,2.9-5c0.4-3.3,0.4-6.6,0-9.9C42.2,14.1,41,13,39.6,13.3z"/>
	</g>
	<g>
		<circle fill="#616B77" cx="37" cy="4.8" r="3.8"/>
	</g>
	<g opacity="0.3">
		<path fill="#FFFFFF" d="M36,4.8h-1.1c0-1.2,1-2.1,2.1-2.1v1.1C36.4,3.8,36,4.3,36,4.8z"/>
	</g>
	<g>
		<path fill="#ED2F58" d="M16.7,13.1c1,2,2.4,4.1,3.8,5.9c1.5,1.8,3.1,3.6,4.9,4.7c0.8,0.5,1,1.5,0.6,2.2c-1.5,2.1-4.2-0.9-5.5-1.8
			c-3-2.6-5.4-5.6-7.5-9.1C11.6,12.5,15.4,10.5,16.7,13.1L16.7,13.1z"/>
	</g>
	<g>
		<path fill="#559AFF" d="M19.4,47.2c-0.2,2.5-3.9,2.3-3.9-0.1c0-4.4,0.1-8.6-1.3-12.9c0.1,3-0.2,5.9-1.1,8.8
			c-0.4,1.6-0.8,3.1-1.3,4.6c-0.3,1-1.3,1.6-2.3,1.3c-0.9-0.3-1.5-1.2-1.3-2.2c0.9-4.4,2-8.8,1.1-13.3c-0.2-1.5-0.4-3.1-0.7-4.6l0,0
			c-0.7-4.6-1-9.5-0.7-14.8c0.1-2.5,2.2-3,4.7-2.8c2.5,0.1,4.5,0.8,4.3,3.3c-0.3,4.7,0,9,0.7,12.8c0,0.1,0.1,0.1,0.1,0.2
			c0.8,3.3,1.5,6.3,2,9.8C20,40.7,19.6,43.9,19.4,47.2z"/>
	</g>
	<g>
		<path fill="#FA4968" d="M8.7,28.7v0.1c0,0,9-1.4,9-1.3c0-0.1,0-0.1-0.1-0.2c-0.8-3.8-1-8.1-0.7-12.8c0.1-2.5-1.8-3.2-4.3-3.3
			S8,11.6,7.9,14C7.6,19.3,7.9,24.2,8.7,28.7L8.7,28.7z"/>
	</g>
	<g>
		<polygon fill="#6EB0FF" points="15.8,31.5 15.5,30.5 16.6,30.3 16.9,31.3 		"/>
	</g>
	<g>
		<path fill="#6EB0FF" d="M17,39c0-0.5,0-0.9-0.1-1.4c-0.2-1.3-0.4-2.7-0.8-4.3l1.1-0.2c0.3,1.6,0.6,3,0.8,4.4c0,0.5,0.1,1,0.1,1.5
			H17z"/>
	</g>
	<g>
		<path fill="#FF6989" d="M10.4,13.3c1.4,0.3,1.8,1.8,0.8,4.8c-0.2,1.1-0.3,2.2-0.3,3.4c-0.1,2.3,0,4.8,0.6,6.8
			c0.3,0.9-0.2,1.8-1.1,2c-2.5,0.6-2.6-3.4-2.9-5c-0.4-3.3-0.4-6.6,0-9.9C7.8,14.1,9,13,10.4,13.3z"/>
	</g>
	<g>
		<circle fill="#616B77" cx="13.1" cy="4.8" r="3.8"/>
	</g>
	<g opacity="0.3">
		<path fill="#FFFFFF" d="M12.1,4.8H11c0-1.2,1-2.1,2.1-2.1v1.1C12.5,3.8,12.1,4.3,12.1,4.8z"/>
	</g>
</g>
</svg>
