<?xml version="1.0" encoding="utf-8"?>
<!-- Generator: Adobe Illustrator 18.0.0, SVG Export Plug-In . SVG Version: 6.00 Build 0)  -->
<!DOCTYPE svg PUBLIC "-//W3C//DTD SVG 1.1//EN" "http://www.w3.org/Graphics/SVG/1.1/DTD/svg11.dtd">
<svg version="1.1" id="Layer_1" xmlns="http://www.w3.org/2000/svg" xmlns:xlink="http://www.w3.org/1999/xlink" x="0px" y="0px"
	 viewBox="0 0 50 50" enable-background="new 0 0 50 50" xml:space="preserve">
<g>
	<g>
		<g>
			<g>
				<g>
					<path fill="#F9A846" d="M37.3,10.1c0,1.5,0.6,2.9,1.5,3.9c1.1,1.2,2.6,2,4.4,2c1.7,0,3.3-0.8,4.4-2c0.9-1,1.5-2.4,1.5-3.9
						c0-3.2-2.6-5.9-5.9-5.9C39.9,4.3,37.3,6.9,37.3,10.1z"/>
				</g>
				<g>
					<circle fill="#FFCA8A" cx="43.1" cy="8.5" r="1.8"/>
				</g>
				<g>
					<path fill="#FFCA8A" d="M38.8,14c1.1,1.2,2.6,2,4.4,2c1.7,0,3.3-0.8,4.4-2c-0.4-2.1-2.2-3.7-4.4-3.7S39.1,11.9,38.8,14z"/>
				</g>
			</g>
		</g>
	</g>
	<g>
		<g>
			<g>
				<g>
					<path fill="#ED2F58" d="M12.7,10.1c0,1.5-0.6,2.9-1.5,3.9c-1.1,1.2-2.6,2-4.4,2s-3.3-0.8-4.4-2C1.6,13,1,11.6,1,10.1
						c0-3.2,2.6-5.9,5.9-5.9C10.1,4.3,12.7,6.9,12.7,10.1z"/>
				</g>
				<g>
					<circle fill="#FF6989" cx="6.9" cy="8.5" r="1.8"/>
				</g>
				<g>
					<path fill="#FF6989" d="M11.2,14c-1.1,1.2-2.6,2-4.4,2s-3.3-0.8-4.4-2c0.4-2.1,2.2-3.7,4.4-3.7S10.9,11.9,11.2,14z"/>
				</g>
			</g>
		</g>
	</g>
	<g>
		<g>
			<g>
				<g>
					<path fill="#50C9C3" d="M37.3,39.9c0,1.5,0.6,2.9,1.5,3.9c1.1,1.2,2.6,2,4.4,2c1.7,0,3.3-0.8,4.4-2c0.9-1,1.5-2.4,1.5-3.9
						c0-3.2-2.6-5.9-5.9-5.9C39.9,34,37.3,36.6,37.3,39.9z"/>
				</g>
				<g>
					<circle fill="#8CF2ED" cx="43.1" cy="38.3" r="1.8"/>
				</g>
				<g>
					<path fill="#8CF2ED" d="M38.8,43.8c1.1,1.2,2.6,2,4.4,2c1.7,0,3.3-0.8,4.4-2c-0.4-2.1-2.2-3.7-4.4-3.7S39.1,41.7,38.8,43.8z"/>
				</g>
			</g>
		</g>
	</g>
	<g>
		<g>
			<g>
				<g>
					<path fill="#3A8BED" d="M12.7,39.9c0,1.5-0.6,2.9-1.5,3.9c-1.1,1.2-2.6,2-4.4,2s-3.3-0.8-4.4-2c-0.9-1-1.5-2.4-1.5-3.9
						C1,36.6,3.6,34,6.9,34C10.1,34,12.7,36.6,12.7,39.9z"/>
				</g>
				<g>
					<circle fill="#6EB0FF" cx="6.9" cy="38.3" r="1.8"/>
				</g>
				<g>
					<path fill="#6EB0FF" d="M11.2,43.8c-1.1,1.2-2.6,2-4.4,2s-3.3-0.8-4.4-2c0.4-2.1,2.2-3.7,4.4-3.7S10.9,41.7,11.2,43.8z"/>
				</g>
			</g>
		</g>
	</g>
	<g>
		<g>
			<g>
				<path fill="#559AFF" d="M25.9,25.2v4.6c0,1.1-0.8,1.9-1.9,1.9h-7.4l-3.5,2.5v-9c0-1.1,0.8-1.9,1.9-1.9h9
					C25.1,23.2,25.9,24.1,25.9,25.2z"/>
			</g>
			<g>
				<g>
					<rect x="16.5" y="25.8" fill="#FFFFFF" width="6" height="1"/>
				</g>
				<g>
					<rect x="16.5" y="28" fill="#FFFFFF" width="3.4" height="1"/>
				</g>
			</g>
		</g>
		<g>
			<g>
				<path fill="#6CD8D5" d="M21.8,31.2v4.6c0,1.1,0.8,1.9,1.9,1.9h7.4l3.5,2.5v-9c0-1.1-0.8-1.9-1.9-1.9h-9
					C22.6,29.3,21.8,30.1,21.8,31.2z"/>
			</g>
			<g>
				<g>
					<rect x="25.2" y="31.9" fill="#FFFFFF" width="6" height="1"/>
				</g>
				<g>
					<rect x="27.8" y="34" fill="#FFFFFF" width="3.4" height="1"/>
				</g>
			</g>
		</g>
	</g>
	<g>
		<g>
			<g>
				<path fill="#FFB95C" d="M24.3,25.1v-4.6c0-1.1,0.8-1.9,1.9-1.9h7.4l3.5-2.5v9c0,1.1-0.8,1.9-1.9,1.9h-9
					C25.2,27,24.3,26.2,24.3,25.1z"/>
			</g>
			<g>
				<g>
					<rect x="27.7" y="23.4" fill="#FFFFFF" width="6" height="1"/>
				</g>
				<g>
					<rect x="30.4" y="21.2" fill="#FFFFFF" width="3.4" height="1"/>
				</g>
			</g>
		</g>
		<g>
			<g>
				<path fill="#FA4968" d="M28.5,19.1v-4.6c0-1.1-0.8-1.9-1.9-1.9h-7.4l-3.5-2.5v9c0,1.1,0.8,1.9,1.9,1.9h9
					C27.6,21,28.5,20.2,28.5,19.1z"/>
			</g>
			<g>
				<g>
					<rect x="19.1" y="17.4" fill="#FFFFFF" width="6" height="1"/>
				</g>
				<g>
					<rect x="19.1" y="15.2" fill="#FFFFFF" width="3.4" height="1"/>
				</g>
			</g>
		</g>
	</g>
</g>
</svg>
