<?xml version="1.0" encoding="utf-8"?>
<!-- Generator: Adobe Illustrator 18.0.0, SVG Export Plug-In . SVG Version: 6.00 Build 0)  -->
<!DOCTYPE svg PUBLIC "-//W3C//DTD SVG 1.1//EN" "http://www.w3.org/Graphics/SVG/1.1/DTD/svg11.dtd">
<svg version="1.1" id="Layer_1" xmlns="http://www.w3.org/2000/svg" xmlns:xlink="http://www.w3.org/1999/xlink" x="0px" y="0px"
	 viewBox="0 0 50 50" enable-background="new 0 0 50 50" xml:space="preserve">
<g>
	<g>
		<g>
			<circle fill="#559AFF" cx="25" cy="25" r="14"/>
		</g>
		<g>
			<circle fill="#E8CEC1" cx="25" cy="25" r="11.7"/>
		</g>
		<g>
			<g>
				<rect x="24.5" y="13.3" fill="#425060" width="1" height="1.3"/>
			</g>
			<g>
				<rect x="24.5" y="35.4" fill="#425060" width="1" height="1.3"/>
			</g>
		</g>
		<g>
			<g>
				
					<rect x="18.8" y="14.9" transform="matrix(-0.4999 -0.8661 0.8661 -0.4999 15.8577 39.9446)" fill="#425060" width="1.3" height="1"/>
			</g>
			<g>
				<rect x="29.9" y="34.1" transform="matrix(-0.5 -0.866 0.866 -0.5 15.833 78.3609)" fill="#425060" width="1.3" height="1"/>
			</g>
		</g>
		<g>
			<g>
				<rect x="14.7" y="19" transform="matrix(-0.866 -0.5 0.5 -0.866 18.8882 43.997)" fill="#425060" width="1.3" height="1"/>
			</g>
			<g>
				<rect x="33.9" y="30" transform="matrix(-0.866 -0.5 0.5 -0.866 49.2768 74.176)" fill="#425060" width="1.3" height="1"/>
			</g>
		</g>
		<g>
			<g>
				<rect x="13.3" y="24.5" fill="#425060" width="1.3" height="1"/>
			</g>
			<g>
				<rect x="35.4" y="24.5" fill="#425060" width="1.3" height="1"/>
			</g>
		</g>
		<g>
			<g>
				
					<rect x="14.9" y="29.9" transform="matrix(-0.5003 -0.8658 0.8658 -0.5003 -3.3435 59.1454)" fill="#425060" width="1" height="1.3"/>
			</g>
			<g>
				
					<rect x="34.1" y="18.8" transform="matrix(-0.5004 -0.8658 0.8658 -0.5004 35.0764 59.1644)" fill="#425060" width="1" height="1.3"/>
			</g>
		</g>
		<g>
			<g>
				
					<rect x="19" y="33.9" transform="matrix(-0.8661 -0.4999 0.4999 -0.8661 19.1382 74.2782)" fill="#425060" width="1" height="1.3"/>
			</g>
			<g>
				
					<rect x="30" y="14.7" transform="matrix(-0.8661 -0.4999 0.4999 -0.8661 49.3134 43.8864)" fill="#425060" width="1" height="1.3"/>
			</g>
		</g>
		<g>
			<circle fill="#FF6989" cx="25" cy="25" r="1.7"/>
		</g>
		<g>
			<rect x="24.5" y="18.9" fill="#425060" width="1" height="4.3"/>
		</g>
		<g>
			
				<rect x="25.6" y="27.3" transform="matrix(-0.7071 -0.7071 0.7071 -0.7071 27.8178 67.121)" fill="#425060" width="4.4" height="1"/>
		</g>
	</g>
	<g>
		<g>
			<circle fill="#FA4968" cx="25" cy="4.1" r="3.1"/>
		</g>
		<g>
			<circle fill="#ABB734" cx="25" cy="45.9" r="3.1"/>
		</g>
	</g>
	<g>
		<g>
			<circle fill="#6CD8D5" cx="45.9" cy="25" r="3.1"/>
		</g>
		<g>
			<circle fill="#FECD04" cx="4.1" cy="25" r="3.1"/>
		</g>
	</g>
	<g>
		<g>
			<circle fill="#FFB95C" cx="39.8" cy="10.2" r="3.1"/>
		</g>
		<g>
			<circle fill="#6E9583" cx="10.2" cy="39.8" r="3.1"/>
		</g>
	</g>
	<g>
		<g>
			<circle fill="#FF8C83" cx="39.8" cy="39.8" r="3.1"/>
		</g>
		<g>
			<circle fill="#E8CEC1" cx="10.2" cy="10.2" r="3.1"/>
		</g>
	</g>
	<g>
		<g>
			<g>
				<rect x="24.5" y="7.2" fill="#425060" width="1" height="3.7"/>
			</g>
			<g>
				<rect x="24.5" y="39" fill="#425060" width="1" height="3.7"/>
			</g>
		</g>
		<g>
			<g>
				<rect x="39" y="24.5" fill="#425060" width="3.7" height="1"/>
			</g>
			<g>
				<rect x="7.2" y="24.5" fill="#425060" width="3.7" height="1"/>
			</g>
		</g>
	</g>
	<g>
		<g>
			<g>
				
					<rect x="35.7" y="11.9" transform="matrix(-0.7071 -0.7071 0.7071 -0.7071 52.1242 49.0297)" fill="#425060" width="1" height="3.7"/>
			</g>
			<g>
				
					<rect x="13.3" y="34.4" transform="matrix(-0.7072 -0.7071 0.7071 -0.7072 -2.1257 71.6838)" fill="#425060" width="1" height="3.7"/>
			</g>
		</g>
		<g>
			<g>
				
					<rect x="34.4" y="35.7" transform="matrix(-0.7071 -0.7071 0.7071 -0.7071 36.3246 87.4787)" fill="#425060" width="3.7" height="1"/>
			</g>
			<g>
				
					<rect x="11.9" y="13.3" transform="matrix(-0.7072 -0.707 0.707 -0.7072 13.6767 33.2299)" fill="#425060" width="3.7" height="1"/>
			</g>
		</g>
	</g>
</g>
</svg>
