<?xml version="1.0" encoding="utf-8"?>
<!-- Generator: Adobe Illustrator 18.0.0, SVG Export Plug-In . SVG Version: 6.00 Build 0)  -->
<!DOCTYPE svg PUBLIC "-//W3C//DTD SVG 1.1//EN" "http://www.w3.org/Graphics/SVG/1.1/DTD/svg11.dtd">
<svg version="1.1" id="Layer_1" xmlns="http://www.w3.org/2000/svg" xmlns:xlink="http://www.w3.org/1999/xlink" x="0px" y="0px"
	 viewBox="0 0 50 50" enable-background="new 0 0 50 50" xml:space="preserve">
<g>
	<g>
		<path fill="#616B77" d="M30.7,36.1H19.3c-1.2,0-2.2,1-2.2,2.2l0,0c0,1.2,1,2.2,2.2,2.2h11.4c1.2,0,2.2-1,2.2-2.2l0,0
			C32.9,37.1,31.9,36.1,30.7,36.1z"/>
	</g>
	<g>
		<path fill="#616B77" d="M30.7,40.7H19.3c-1.2,0-2.2,1-2.2,2.2s1,2.2,2.2,2.2h11.4c1.2,0,2.2-1,2.2-2.2
			C32.9,41.7,31.9,40.7,30.7,40.7z"/>
	</g>
	<g>
		<path fill="#616B77" d="M20.4,45.1c0.4,2.2,2.3,3.9,4.6,3.9s4.2-1.7,4.6-3.9H20.4z"/>
	</g>
	<g>
		<rect x="42.6" y="20" fill="#E0E0E0" width="2.2" height="1.5"/>
		<rect x="5.2" y="20" fill="#E0E0E0" width="2.2" height="1.5"/>
		<rect x="24.3" y="1" fill="#E0E0E0" width="1.5" height="2.2"/>
		
			<rect x="37.1" y="33.2" transform="matrix(0.707 0.7072 -0.7072 0.707 35.2247 -17.0534)" fill="#E0E0E0" width="2.2" height="1.5"/>
		<rect x="10.7" y="6.8" transform="matrix(0.7072 0.707 -0.707 0.7072 8.7982 -6.1181)" fill="#E0E0E0" width="2.2" height="1.5"/>
		
			<rect x="11.1" y="32.9" transform="matrix(0.7071 0.7071 -0.7071 0.7071 27.4982 1.5717)" fill="#E0E0E0" width="1.5" height="2.2"/>
		
			<rect x="37.1" y="6.8" transform="matrix(-0.7072 0.707 -0.707 -0.7072 70.5463 -14.1045)" fill="#E0E0E0" width="2.2" height="1.5"/>
		
			<rect x="41.1" y="12.9" transform="matrix(0.9238 -0.383 0.383 0.9238 -1.9936 17.1968)" fill="#E0E0E0" width="2.2" height="1.5"/>
		
			<rect x="6.7" y="27.2" transform="matrix(-0.9239 0.3826 -0.3826 -0.9239 25.7143 50.7377)" fill="#E0E0E0" width="2.2" height="1.5"/>
		
			<rect x="16.8" y="2.7" transform="matrix(0.3828 0.9238 -0.9238 0.3828 14.222 -14.3785)" fill="#E0E0E0" width="2.2" height="1.5"/>
		
			<rect x="41.1" y="27.1" transform="matrix(0.9239 0.3827 -0.3827 0.9239 13.8734 -14.0386)" fill="#E0E0E0" width="2.2" height="1.5"/>
		
			<rect x="6.6" y="12.8" transform="matrix(0.9238 0.3829 -0.3829 0.9238 5.7826 -1.9184)" fill="#E0E0E0" width="2.2" height="1.5"/>
		
			<rect x="31.4" y="2.4" transform="matrix(0.9238 0.3828 -0.3828 0.9238 3.7962 -12.0348)" fill="#E0E0E0" width="1.5" height="2.2"/>
	</g>
	<g>
		<path fill="#ABB734" d="M38.9,21.5h-4.3c0.2-0.3,0.3-0.8,0.3-1.2c0-1.3-1.1-2.4-2.4-2.4c-1.3,0-2.4,1.1-2.4,2.4
			c0,0.4,0.1,0.8,0.3,1.2H25v-5.2c-0.3,0.1-0.6,0.2-1,0.2c-1.3,0-2.4-1.1-2.4-2.4s1.1-2.4,2.4-2.4c0.3,0,0.7,0.1,1,0.2V6.8
			c0.6,0,1.1,0,1.7,0.1c6.2,0.7,11.2,5.6,12.1,11.8C38.9,19.6,38.9,20.6,38.9,21.5z"/>
	</g>
	<g>
		<path fill="#FA4968" d="M38.9,21.5c-0.2,3.4-1.6,6.5-3.8,8.8c-1.6,1.7-2.7,3.7-3.4,5.8H25v-5.4c0.4,0.3,0.9,0.5,1.4,0.5
			c1.3,0,2.4-1.1,2.4-2.4s-1.1-2.4-2.4-2.4c-0.5,0-1,0.2-1.4,0.5v-5.4h5.5c-0.2-0.3-0.3-0.8-0.3-1.2c0-1.3,1.1-2.4,2.4-2.4
			c1.3,0,2.4,1.1,2.4,2.4c0,0.4-0.1,0.8-0.3,1.2H38.9z"/>
	</g>
	<g>
		<path fill="#F4F4F4" d="M21.6,14.1c0,1.3,1.1,2.4,2.4,2.4c0.3,0,0.7-0.1,1-0.2v5.2h-5.1c0.2,0.3,0.3,0.8,0.3,1.2
			c0,1.3-1.1,2.4-2.4,2.4s-2.4-1.1-2.4-2.4c0-0.4,0.1-0.8,0.3-1.2H11c0-0.2,0-0.5,0-0.7c0.1-7.8,6.3-14,14-14v5.1
			c-0.3-0.1-0.6-0.2-1-0.2C22.7,11.7,21.6,12.8,21.6,14.1z"/>
	</g>
	<g>
		<path fill="#FFB95C" d="M28.8,28.8c0,1.3-1.1,2.4-2.4,2.4c-0.5,0-1-0.2-1.4-0.5v5.4h-6.7c-0.8-2.2-2-4.3-3.6-6
			c-2.1-2.3-3.4-5.3-3.6-8.6h4.7c-0.2,0.3-0.3,0.8-0.3,1.2c0,1.3,1.1,2.4,2.4,2.4s2.4-1.1,2.4-2.4c0-0.4-0.1-0.8-0.3-1.2h5v5.4
			c0.4-0.3,0.9-0.5,1.4-0.5C27.7,26.4,28.8,27.5,28.8,28.8z"/>
	</g>
</g>
</svg>
