<?xml version="1.0" encoding="utf-8"?>
<!-- Generator: Adobe Illustrator 18.0.0, SVG Export Plug-In . SVG Version: 6.00 Build 0)  -->
<!DOCTYPE svg PUBLIC "-//W3C//DTD SVG 1.1//EN" "http://www.w3.org/Graphics/SVG/1.1/DTD/svg11.dtd">
<svg version="1.1" id="Layer_1" xmlns="http://www.w3.org/2000/svg" xmlns:xlink="http://www.w3.org/1999/xlink" x="0px" y="0px"
	 viewBox="0 0 50 50" enable-background="new 0 0 50 50" xml:space="preserve">
<g>
	<g>
		<g>
			<g>
				<ellipse fill="#559AFF" cx="41.3" cy="32.3" rx="3.4" ry="3.5"/>
			</g>
			<g>
				<path fill="#559AFF" d="M48.5,41.1c0,0.5-0.1,1-0.1,1.6c-0.3,1.6-1.7,2.8-3.4,2.8h-7.3c-1.6,0-3.1-1.2-3.4-2.8
					c-0.1-0.5-0.1-1.1-0.1-1.6c0-3,1.8-4.1,4.4-4.4l2.8,2.4l2.8-2.4C46.7,37.1,48.5,38.1,48.5,41.1z"/>
			</g>
			<g opacity="0.3">
				<path fill="#FFFFFF" d="M45,43.7h-7.3c-0.8,0-1.5-0.6-1.6-1.3C36,42,36,41.5,36,41.1h1c0,0.3,0,0.7,0.1,1.1
					c0,0.3,0.3,0.5,0.6,0.5H45c0.3,0,0.6-0.2,0.6-0.5c0.1-0.4,0.1-0.8,0.1-1.1h1c0,0.4,0,0.8-0.1,1.3C46.5,43.1,45.8,43.7,45,43.7z"
					/>
			</g>
		</g>
		<g>
			<g>
				<ellipse fill="#FF8C83" cx="25" cy="32.3" rx="3.4" ry="3.5"/>
			</g>
			<g>
				<path fill="#FF8C83" d="M32.2,41.1c0,0.5-0.1,1-0.1,1.6c-0.3,1.6-1.7,2.8-3.4,2.8h-7.3c-1.6,0-3.1-1.2-3.4-2.8
					c-0.1-0.5-0.1-1.1-0.1-1.6c0-3,1.8-4.1,4.4-4.4l2.8,2.4l2.8-2.4C30.4,37.1,32.2,38.1,32.2,41.1z"/>
			</g>
			<g opacity="0.3">
				<path fill="#FFFFFF" d="M28.7,43.7h-7.3c-0.8,0-1.5-0.6-1.6-1.3c-0.1-0.5-0.1-0.9-0.1-1.3h1c0,0.3,0,0.7,0.1,1.1
					c0,0.3,0.3,0.5,0.6,0.5h7.3c0.3,0,0.6-0.2,0.6-0.5c0.1-0.4,0.1-0.8,0.1-1.1h1c0,0.4,0,0.8-0.1,1.3
					C30.1,43.1,29.5,43.7,28.7,43.7z"/>
			</g>
		</g>
		<g>
			<g>
				<ellipse fill="#6E9583" cx="8.7" cy="32.3" rx="3.4" ry="3.5"/>
			</g>
			<g>
				<path fill="#6E9583" d="M15.9,41.1c0,0.5-0.1,1-0.1,1.6c-0.3,1.6-1.7,2.8-3.4,2.8H5c-1.6,0-3.1-1.2-3.4-2.8
					c-0.1-0.5-0.1-1.1-0.1-1.6c0-3,1.8-4.1,4.4-4.4l2.8,2.4l2.8-2.4C14.1,37.1,15.9,38.1,15.9,41.1z"/>
			</g>
			<g opacity="0.3">
				<path fill="#FFFFFF" d="M12.3,43.7H5c-0.8,0-1.5-0.6-1.6-1.3c-0.1-0.4-0.1-0.9-0.1-1.3h1c0,0.3,0,0.7,0.1,1.1
					c0,0.3,0.3,0.5,0.6,0.5h7.3c0.3,0,0.6-0.2,0.6-0.5c0.1-0.4,0.1-0.8,0.1-1.1h1c0,0.4,0,0.8-0.1,1.3
					C13.8,43.1,13.1,43.7,12.3,43.7z"/>
			</g>
		</g>
	</g>
	<g>
		<path fill="#F4F4F4" d="M38.3,25H11.7c-1.4,0-2.5-1.1-2.5-2.5V7c0-1.4,1.1-2.5,2.5-2.5h26.6c1.4,0,2.5,1.1,2.5,2.5v15.5
			C40.8,23.9,39.7,25,38.3,25z"/>
	</g>
	<g>
		<g>
			<g>
				<rect x="14.7" y="18.9" fill="#FF8C83" width="3.5" height="3.5"/>
			</g>
			<g>
				<rect x="20.4" y="15.3" fill="#ABB734" width="3.5" height="7.1"/>
			</g>
			<g>
				<rect x="26.1" y="17.3" fill="#FFB95C" width="3.5" height="5.1"/>
			</g>
			<g>
				<rect x="31.8" y="13" fill="#FA4968" width="3.5" height="9.4"/>
			</g>
			<g>
				
					<rect x="30.1" y="8.9" transform="matrix(-0.5422 -0.8402 0.8402 -0.5422 38.3748 41.9225)" fill="#425060" width="1" height="3.3"/>
			</g>
			<g>
				
					<rect x="18.8" y="11" transform="matrix(-0.5086 -0.861 0.861 -0.5086 18.2434 35.6612)" fill="#425060" width="1" height="3.3"/>
			</g>
			<g>
				
					<rect x="23.8" y="11.1" transform="matrix(-0.9724 -0.2331 0.2331 -0.9724 46.7191 28.747)" fill="#425060" width="2.5" height="1"/>
			</g>
			<g>
				<circle fill="#6EB0FF" cx="33.4" cy="8.7" r="1.7"/>
			</g>
			<g>
				<circle fill="#6EB0FF" cx="27.8" cy="12.3" r="1.7"/>
			</g>
			<g>
				<circle fill="#6EB0FF" cx="22.2" cy="11" r="1.7"/>
			</g>
			<g>
				<circle fill="#6EB0FF" cx="16.5" cy="14.3" r="1.7"/>
			</g>
		</g>
	</g>
</g>
</svg>
