<?xml version="1.0" encoding="utf-8"?>
<!-- Generator: Adobe Illustrator 18.0.0, SVG Export Plug-In . SVG Version: 6.00 Build 0)  -->
<!DOCTYPE svg PUBLIC "-//W3C//DTD SVG 1.1//EN" "http://www.w3.org/Graphics/SVG/1.1/DTD/svg11.dtd">
<svg version="1.1" id="Layer_1" xmlns="http://www.w3.org/2000/svg" xmlns:xlink="http://www.w3.org/1999/xlink" x="0px" y="0px"
	 viewBox="0 0 50 50" enable-background="new 0 0 50 50" xml:space="preserve">
<g>
	<g>
		<g>
			<g>
				<g>
					<g>
						<rect x="13.5" y="26.7" fill="#E8CEC1" width="23" height="2.2"/>
					</g>
					<g>
						<polygon fill="#C9A28F" points="34.5,33.2 34.7,28.9 15.3,28.9 15.5,33.2 						"/>
					</g>
				</g>
			</g>
		</g>
	</g>
	<g>
		<g>
			<g>
				<g>
					<ellipse fill="#559AFF" cx="38.8" cy="37.8" rx="2.9" ry="2.9"/>
				</g>
				<g>
					<path fill="#559AFF" d="M44.9,45.3c0,0.4,0,0.9-0.1,1.3C44.5,48,43.3,49,41.9,49h-6.2c-1.4,0-2.6-1-2.9-2.4
						c-0.1-0.5-0.1-0.9-0.1-1.3c0-2.6,1.5-3.4,3.7-3.7l2.4,2l2.4-2C43.4,41.9,44.9,42.8,44.9,45.3z"/>
				</g>
				<g opacity="0.3">
					<path fill="#FFFFFF" d="M41.9,47.5h-6.2c-0.7,0-1.3-0.5-1.5-1.2c-0.1-0.4-0.1-0.8-0.1-1.1h1c0,0.3,0,0.6,0.1,0.9
						c0,0.2,0.2,0.3,0.5,0.3h6.2c0.2,0,0.4-0.1,0.5-0.3c0.1-0.3,0.1-0.6,0.1-0.9h1c0,0.3,0,0.7-0.1,1.1C43.2,47,42.6,47.5,41.9,47.5
						z"/>
				</g>
			</g>
			<g>
				<g>
					<ellipse fill="#ABB734" cx="25" cy="37.8" rx="2.9" ry="2.9"/>
				</g>
				<g>
					<path fill="#ABB734" d="M31.1,45.3c0,0.4,0,0.9-0.1,1.3C30.7,48,29.5,49,28.1,49h-6.2c-1.4,0-2.6-1-2.9-2.4
						c-0.1-0.5-0.1-0.9-0.1-1.3c0-2.6,1.5-3.4,3.7-3.7l2.4,2l2.4-2C29.5,41.9,31.1,42.8,31.1,45.3z"/>
				</g>
				<g opacity="0.3">
					<path fill="#FFFFFF" d="M28.1,47.5h-6.2c-0.7,0-1.3-0.5-1.5-1.2c-0.1-0.4-0.1-0.7-0.1-1.1h1c0,0.3,0,0.6,0.1,0.9
						c0,0.2,0.2,0.3,0.5,0.3h6.2c0.2,0,0.4-0.1,0.5-0.3c0.1-0.3,0.1-0.6,0.1-0.9h1c0,0.3,0,0.7-0.1,1.1C29.4,47,28.8,47.5,28.1,47.5
						z"/>
				</g>
			</g>
		</g>
		<g>
			<g>
				<ellipse fill="#FA4968" cx="11.2" cy="37.8" rx="2.9" ry="2.9"/>
			</g>
			<g>
				<path fill="#FA4968" d="M17.3,45.3c0,0.4,0,0.9-0.1,1.3C16.9,48,15.7,49,14.3,49H8.1c-1.4,0-2.6-1-2.9-2.4
					c-0.1-0.5-0.1-0.9-0.1-1.3c0-2.6,1.5-3.4,3.7-3.7l2.4,2l2.4-2C15.7,41.9,17.3,42.8,17.3,45.3z"/>
			</g>
			<g opacity="0.3">
				<path fill="#FFFFFF" d="M14.3,47.5H8.1c-0.7,0-1.3-0.5-1.5-1.2c-0.1-0.4-0.1-0.7-0.1-1.1h1c0,0.3,0,0.6,0.1,0.9
					c0,0.2,0.2,0.3,0.5,0.3h6.2c0.2,0,0.4-0.1,0.5-0.3c0.1-0.3,0.1-0.6,0.1-0.9h1c0,0.3,0,0.7-0.1,1.1C15.6,47,15,47.5,14.3,47.5z"
					/>
			</g>
		</g>
		<g>
			<g>
				<ellipse fill="#616B77" cx="25" cy="5.9" rx="3.3" ry="3.3"/>
			</g>
			<g>
				<ellipse fill="#616B77" cx="25" cy="5.9" rx="3.3" ry="3.3"/>
			</g>
			<g>
				<path fill="#FA4968" d="M18.2,16.7c1.1,0.8,1.7,2.1,1.8,3.4l0.1,6.5H30V20c0-1.3,0.6-2.5,1.6-3.3c1.5-1.2,3.8-3.2,5.2-5.3
					c1.8-2.5,3.2-5.1,4.3-7.8C42,1.4,38.9-0.1,37.8,2c-1.2,2.4-2.7,4.7-4.4,6.7c-1.3,1.6-2.8,2.9-4.4,4c-0.8,0.5-1.7,0.7-2.7,0.6
					c-0.8-0.1-1.7-0.1-2.6,0s-1.9-0.1-2.7-0.6c-1.6-1.1-3.1-2.4-4.4-4c-1.7-2-3.1-4.3-4.3-6.7C11.2-0.1,8,1.4,8.8,3.6
					C10.9,8.5,13.8,13.4,18.2,16.7z"/>
			</g>
		</g>
	</g>
</g>
</svg>
