<?xml version="1.0" encoding="utf-8"?>
<!-- Generator: Adobe Illustrator 18.0.0, SVG Export Plug-In . SVG Version: 6.00 Build 0)  -->
<!DOCTYPE svg PUBLIC "-//W3C//DTD SVG 1.1//EN" "http://www.w3.org/Graphics/SVG/1.1/DTD/svg11.dtd">
<svg version="1.1" id="Layer_1" xmlns="http://www.w3.org/2000/svg" xmlns:xlink="http://www.w3.org/1999/xlink" x="0px" y="0px"
	 viewBox="0 0 50 50" enable-background="new 0 0 50 50" xml:space="preserve">
<g>
	<g>
		<rect x="19" y="38.1" fill="#CCCACA" width="12" height="5.5"/>
	</g>
	<g>
		<path fill="#E5E5E5" d="M7.2,38.1c-3.1,0-5.7-2.6-5.7-5.7v-24c0-3.1,2.5-5.7,5.7-5.7h35.7c3.1,0,5.7,2.6,5.7,5.7v24
			c0,3.1-2.5,5.7-5.7,5.7H7.2z"/>
	</g>
	<g>
		<path fill="#559AFF" d="M42.8,5.6H7.2c-1.5,0-2.7,1.2-2.7,2.8v19c0,1.5,1.2,2.8,2.7,2.8h35.7c1.5,0,2.7-1.2,2.7-2.8v-19
			C45.6,6.8,44.3,5.6,42.8,5.6z"/>
	</g>
	<g>
		<g>
			<g>
				<ellipse fill="#FFB95C" cx="20.3" cy="9.5" rx="1.6" ry="1.6"/>
			</g>
			<g>
				<path fill="#FFB95C" d="M23.6,14.6c0,0.2,0,0.5-0.1,0.7c-0.1,0.8-0.8,1.3-1.6,1.3h-3.4c-0.8,0-1.4-0.5-1.6-1.3
					c0-0.3-0.1-0.5-0.1-0.7c0-1.4,0.8-1.9,2-2l1.3,1.1l1.3-1.1C22.8,12.7,23.6,13.2,23.6,14.6z"/>
			</g>
		</g>
		<g>
			<g>
				<ellipse fill="#FA4968" cx="10.9" cy="9.5" rx="1.6" ry="1.6"/>
			</g>
			<g>
				<path fill="#FA4968" d="M14.2,14.6c0,0.2,0,0.5-0.1,0.7c-0.1,0.8-0.8,1.3-1.6,1.3H9.2c-0.8,0-1.4-0.5-1.6-1.3
					c0-0.3-0.1-0.5-0.1-0.7c0-1.4,0.8-1.9,2-2l1.3,1.1l1.3-1.1C13.3,12.7,14.2,13.2,14.2,14.6z"/>
			</g>
		</g>
		<g>
			<g>
				<ellipse fill="#6CD8D5" cx="29.7" cy="9.5" rx="1.6" ry="1.6"/>
			</g>
			<g>
				<path fill="#6CD8D5" d="M33,14.6c0,0.2,0,0.5-0.1,0.7c-0.1,0.8-0.8,1.3-1.6,1.3H28c-0.8,0-1.4-0.5-1.6-1.3
					c0-0.3-0.1-0.5-0.1-0.7c0-1.4,0.8-1.9,2-2l1.3,1.1l1.3-1.1C32.2,12.7,33,13.2,33,14.6z"/>
			</g>
		</g>
		<g>
			<g>
				<ellipse fill="#ABB734" cx="20.3" cy="20.8" rx="1.6" ry="1.6"/>
			</g>
			<g>
				<path fill="#ABB734" d="M23.6,25.8c0,0.2,0,0.5-0.1,0.7c-0.1,0.8-0.8,1.3-1.6,1.3h-3.4c-0.8,0-1.4-0.5-1.6-1.3
					c0-0.3-0.1-0.5-0.1-0.7c0-1.4,0.8-1.9,2-2l1.3,1.1l1.3-1.1C22.8,23.9,23.6,24.4,23.6,25.8z"/>
			</g>
		</g>
		<g>
			<g>
				<ellipse fill="#F4F4F4" cx="10.9" cy="20.8" rx="1.6" ry="1.6"/>
			</g>
			<g>
				<path fill="#F4F4F4" d="M14.2,25.8c0,0.2,0,0.5-0.1,0.7c-0.1,0.8-0.8,1.3-1.6,1.3H9.2c-0.8,0-1.4-0.5-1.6-1.3
					c0-0.3-0.1-0.5-0.1-0.7c0-1.4,0.8-1.9,2-2l1.3,1.1l1.3-1.1C13.3,23.9,14.2,24.4,14.2,25.8z"/>
			</g>
		</g>
		<g>
			<g>
				<ellipse fill="#D9BAA8" cx="29.7" cy="20.8" rx="1.6" ry="1.6"/>
			</g>
			<g>
				<path fill="#D9BAA8" d="M33,25.8c0,0.2,0,0.5-0.1,0.7c-0.1,0.8-0.8,1.3-1.6,1.3H28c-0.8,0-1.4-0.5-1.6-1.3
					c0-0.3-0.1-0.5-0.1-0.7c0-1.4,0.8-1.9,2-2l1.3,1.1l1.3-1.1C32.2,23.9,33,24.4,33,25.8z"/>
			</g>
		</g>
		<g>
			<g>
				<ellipse fill="#FECD04" cx="39.1" cy="9.5" rx="1.6" ry="1.6"/>
			</g>
			<g>
				<path fill="#FECD04" d="M42.5,14.6c0,0.2,0,0.5-0.1,0.7c-0.1,0.8-0.8,1.3-1.6,1.3h-3.4c-0.8,0-1.4-0.5-1.6-1.3
					c0-0.3-0.1-0.5-0.1-0.7c0-1.4,0.8-1.9,2-2l1.3,1.1l1.3-1.1C41.6,12.7,42.5,13.2,42.5,14.6z"/>
			</g>
		</g>
		<g>
			<g>
				<ellipse fill="#6E9583" cx="39.1" cy="20.8" rx="1.6" ry="1.6"/>
			</g>
			<g>
				<path fill="#6E9583" d="M42.5,25.8c0,0.2,0,0.5-0.1,0.7c-0.1,0.8-0.8,1.3-1.6,1.3h-3.4c-0.8,0-1.4-0.5-1.6-1.3
					c0-0.3-0.1-0.5-0.1-0.7c0-1.4,0.8-1.9,2-2l1.3,1.1l1.3-1.1C41.6,23.9,42.5,24.4,42.5,25.8z"/>
			</g>
		</g>
	</g>
	<g>
		<rect x="15.3" y="43.6" fill="#E5E5E5" width="19.5" height="3.7"/>
	</g>
	<g>
		<circle fill="#CCCACA" cx="25.3" cy="34.1" r="1.7"/>
	</g>
</g>
</svg>
