<?xml version="1.0" encoding="utf-8"?>
<!-- Generator: Adobe Illustrator 18.0.0, SVG Export Plug-In . SVG Version: 6.00 Build 0)  -->
<!DOCTYPE svg PUBLIC "-//W3C//DTD SVG 1.1//EN" "http://www.w3.org/Graphics/SVG/1.1/DTD/svg11.dtd">
<svg version="1.1" id="Layer_1" xmlns="http://www.w3.org/2000/svg" xmlns:xlink="http://www.w3.org/1999/xlink" x="0px" y="0px"
	 viewBox="0 0 50 50" enable-background="new 0 0 50 50" xml:space="preserve">
<g>
	<g>
		<g>
			<path fill="#8CF2ED" d="M48.5,13.2c0,0.5,0,1-0.1,1.5c-0.3,1.5-1.7,2.6-3.2,2.6h-6.9c-1.6,0-2.9-1.1-3.2-2.6
				c-0.1-0.5-0.1-1-0.1-1.5c0-2.9,1.7-3.9,4.2-4.2l2.6,2.3L44.3,9C46.8,9.3,48.5,10.3,48.5,13.2z"/>
		</g>
		<g opacity="0.3">
			<path fill="#FFFFFF" d="M45.1,15.6h-6.9c-0.8,0-1.4-0.5-1.6-1.3c-0.1-0.4-0.1-0.8-0.1-1.2h1c0,0.3,0,0.7,0.1,1
				c0,0.2,0.3,0.4,0.6,0.4h6.9c0.3,0,0.5-0.2,0.6-0.4c0.1-0.4,0.1-0.7,0.1-1h1c0,0.4,0,0.8-0.1,1.2C46.6,15.1,45.9,15.6,45.1,15.6z"
				/>
		</g>
		<g>
			<ellipse fill="#8CF2ED" cx="41.7" cy="4.8" rx="3.3" ry="3.3"/>
		</g>
	</g>
	<g>
		<g>
			<ellipse fill="#FA4968" cx="8.3" cy="4.8" rx="3.3" ry="3.3"/>
		</g>
		<g>
			<path fill="#FA4968" d="M15.2,13.2c0,0.5,0,1-0.1,1.5c-0.3,1.5-1.7,2.6-3.2,2.6h-7c-1.6,0-2.9-1.1-3.2-2.6
				c-0.1-0.5-0.1-1-0.1-1.5c0-2.9,1.7-3.9,4.2-4.2l2.6,2.3L11,9C13.4,9.3,15.2,10.3,15.2,13.2z"/>
		</g>
		<g opacity="0.3">
			<path fill="#FFFFFF" d="M11.8,15.6H4.9c-0.8,0-1.4-0.5-1.6-1.3c-0.1-0.4-0.1-0.8-0.1-1.2h1c0,0.3,0,0.7,0.1,1
				c0,0.2,0.3,0.4,0.6,0.4h6.9c0.3,0,0.5-0.2,0.6-0.4c0.1-0.4,0.1-0.7,0.1-1h1c0,0.4,0,0.8-0.1,1.2C13.2,15.1,12.6,15.6,11.8,15.6z"
				/>
		</g>
	</g>
	<g>
		<g>
			<path fill="#D9BAA8" d="M48.5,44.3c0,0.5,0,1-0.1,1.5c-0.3,1.5-1.7,2.6-3.2,2.6h-6.9c-1.6,0-2.9-1.1-3.2-2.6
				c-0.1-0.5-0.1-1-0.1-1.5c0-2.9,1.7-3.9,4.2-4.2l2.6,2.3l2.6-2.3C46.8,40.5,48.5,41.5,48.5,44.3z"/>
		</g>
		<g opacity="0.3">
			<path fill="#FFFFFF" d="M45.1,46.8h-6.9c-0.8,0-1.4-0.5-1.6-1.3c-0.1-0.4-0.1-0.8-0.1-1.2h1c0,0.3,0,0.7,0.1,1
				c0,0.2,0.3,0.4,0.6,0.4h6.9c0.3,0,0.5-0.2,0.6-0.4c0.1-0.4,0.1-0.7,0.1-1h1c0,0.4,0,0.8-0.1,1.2C46.6,46.3,45.9,46.8,45.1,46.8z"
				/>
		</g>
		<g>
			<ellipse fill="#D9BAA8" cx="41.7" cy="36" rx="3.3" ry="3.3"/>
		</g>
	</g>
	<g>
		<g>
			<ellipse fill="#ABB734" cx="8.3" cy="36" rx="3.3" ry="3.3"/>
		</g>
		<g>
			<path fill="#ABB734" d="M15.2,44.3c0,0.5,0,1-0.1,1.5c-0.3,1.5-1.7,2.6-3.2,2.6h-7c-1.6,0-2.9-1.1-3.2-2.6
				c-0.1-0.5-0.1-1-0.1-1.5c0-2.9,1.7-3.9,4.2-4.2l2.6,2.3l2.6-2.3C13.4,40.5,15.2,41.5,15.2,44.3z"/>
		</g>
		<g opacity="0.3">
			<path fill="#FFFFFF" d="M11.8,46.8H4.9c-0.8,0-1.4-0.5-1.6-1.3c-0.1-0.4-0.1-0.8-0.1-1.2h1c0,0.3,0,0.7,0.1,1
				c0,0.2,0.3,0.4,0.6,0.4h6.9c0.3,0,0.5-0.2,0.6-0.4c0.1-0.4,0.1-0.7,0.1-1h1c0,0.4,0,0.8-0.1,1.2C13.2,46.3,12.6,46.8,11.8,46.8z"
				/>
		</g>
	</g>
	<g>
		<g>
			<path fill="#616B77" d="M28.6,36.8h-7.3c-0.8,0-1.4,0.6-1.4,1.4l0,0c0,0.8,0.6,1.4,1.4,1.4h7.3c0.8,0,1.4-0.6,1.4-1.4l0,0
				C30.1,37.4,29.4,36.8,28.6,36.8z"/>
		</g>
		<g>
			<path fill="#616B77" d="M28.6,39.7h-7.3c-0.8,0-1.4,0.6-1.4,1.4c0,0.8,0.6,1.4,1.4,1.4h7.3c0.8,0,1.4-0.6,1.4-1.4
				C30.1,40.3,29.4,39.7,28.6,39.7z"/>
		</g>
		<g>
			<path fill="#616B77" d="M22.1,42.5c0.2,1.4,1.5,2.5,2.9,2.5s2.7-1.1,2.9-2.5H22.1z"/>
		</g>
		<g>
			<g>
				<line fill="none" x1="36.2" y1="27" x2="37.6" y2="27"/>
				<rect x="36.2" y="26.5" fill="#616B77" width="1.4" height="1"/>
			</g>
			<g>
				<line fill="none" x1="12.4" y1="27" x2="13.8" y2="27"/>
				<rect x="12.4" y="26.5" fill="#616B77" width="1.4" height="1"/>
			</g>
		</g>
		<g>
			<g>
				<line fill="none" x1="25" y1="14.3" x2="25" y2="15.7"/>
				<rect x="24.5" y="14.3" fill="#616B77" width="1" height="1.4"/>
			</g>
		</g>
		<g>
			<g>
				<line fill="none" x1="36.2" y1="27" x2="37.6" y2="27"/>
				<rect x="36.2" y="26.5" fill="#616B77" width="1.4" height="1"/>
			</g>
			<g>
				<line fill="none" x1="12.4" y1="27" x2="13.8" y2="27"/>
				<rect x="12.4" y="26.5" fill="#616B77" width="1.4" height="1"/>
			</g>
		</g>
		<g>
			<g>
				<line fill="none" x1="25" y1="14.3" x2="25" y2="15.7"/>
				<rect x="24.5" y="14.3" fill="#616B77" width="1" height="1.4"/>
			</g>
		</g>
		<g>
			<g>
				<line fill="none" x1="32.9" y1="34.9" x2="33.9" y2="35.9"/>
				
					<rect x="32.7" y="34.9" transform="matrix(-0.7071 -0.7071 0.7071 -0.7071 32.0238 84.0021)" fill="#616B77" width="1.4" height="1"/>
			</g>
			<g>
				<line fill="none" x1="16.1" y1="18" x2="17.1" y2="19"/>
				
					<rect x="15.9" y="18" transform="matrix(-0.7071 -0.7071 0.7071 -0.7071 15.2299 43.375)" fill="#616B77" width="1.4" height="1"/>
			</g>
		</g>
		<g>
			<g>
				<line fill="none" x1="17.1" y1="34.9" x2="16.1" y2="35.9"/>
				
					<rect x="16.1" y="34.7" transform="matrix(-0.7071 -0.7071 0.7071 -0.7071 3.2606 72.2068)" fill="#616B77" width="1" height="1.4"/>
			</g>
			<g>
				<line fill="none" x1="33.9" y1="18" x2="32.9" y2="19"/>
				
					<rect x="32.9" y="17.8" transform="matrix(-0.7071 -0.7071 0.7071 -0.7071 43.9909 55.1694)" fill="#616B77" width="1" height="1.4"/>
			</g>
		</g>
		<g>
			<g>
				<line fill="none" x1="35.4" y1="22.7" x2="36.7" y2="22.1"/>
				
					<rect x="35.5" y="21.7" transform="matrix(-0.3828 -0.9238 0.9238 -0.3828 29.1286 64.1861)" fill="#616B77" width="1" height="1.4"/>
			</g>
			<g>
				<line fill="none" x1="13.3" y1="31.8" x2="14.6" y2="31.3"/>
				
					<rect x="13.5" y="30.8" transform="matrix(-0.3828 -0.9238 0.9238 -0.3828 -9.7728 56.5544)" fill="#616B77" width="1" height="1.4"/>
			</g>
		</g>
		<g>
			<g>
				<line fill="none" x1="20.2" y1="15.3" x2="20.7" y2="16.6"/>
				
					<rect x="19.7" y="15.4" transform="matrix(-0.3825 -0.924 0.924 -0.3825 13.5826 40.8526)" fill="#616B77" width="1.4" height="1"/>
			</g>
		</g>
		<g>
			<g>
				<line fill="none" x1="35.4" y1="22.7" x2="36.7" y2="22.1"/>
				
					<rect x="35.5" y="21.7" transform="matrix(-0.3828 -0.9238 0.9238 -0.3828 29.1286 64.1861)" fill="#616B77" width="1" height="1.4"/>
			</g>
			<g>
				<line fill="none" x1="13.3" y1="31.8" x2="14.6" y2="31.3"/>
				
					<rect x="13.5" y="30.8" transform="matrix(-0.3828 -0.9238 0.9238 -0.3828 -9.7728 56.5544)" fill="#616B77" width="1" height="1.4"/>
			</g>
		</g>
		<g>
			<g>
				<line fill="none" x1="20.2" y1="15.3" x2="20.7" y2="16.6"/>
				
					<rect x="19.7" y="15.4" transform="matrix(-0.3825 -0.924 0.924 -0.3825 13.5826 40.8526)" fill="#616B77" width="1.4" height="1"/>
			</g>
		</g>
		<g>
			<g>
				<line fill="none" x1="35.4" y1="31.3" x2="36.7" y2="31.8"/>
				
					<rect x="35.3" y="31" transform="matrix(-0.9239 -0.3827 0.3827 -0.9239 57.2338 74.3664)" fill="#616B77" width="1.4" height="1"/>
			</g>
			<g>
				<line fill="none" x1="13.3" y1="22.1" x2="14.6" y2="22.7"/>
				
					<rect x="13.3" y="21.9" transform="matrix(-0.9239 -0.3827 0.3827 -0.9239 18.3451 48.4705)" fill="#616B77" width="1.4" height="1"/>
			</g>
		</g>
		<g>
			<g>
				<line fill="none" x1="29.8" y1="15.3" x2="29.3" y2="16.6"/>
				
					<rect x="29.1" y="15.2" transform="matrix(-0.9238 -0.3828 0.3828 -0.9238 50.8639 41.9493)" fill="#616B77" width="1" height="1.4"/>
			</g>
		</g>
		<g>
			<path fill="#ABB734" d="M33.9,27.4h-2.7c0.1-0.2,0.2-0.5,0.2-0.8c0-0.8-0.7-1.5-1.5-1.5s-1.5,0.7-1.5,1.5c0,0.3,0.1,0.5,0.2,0.8
				H25v-3.3c-0.2,0.1-0.4,0.1-0.6,0.1c-0.8,0-1.5-0.7-1.5-1.5s0.7-1.5,1.5-1.5c0.2,0,0.4,0,0.6,0.1V18c0.4,0,0.7,0,1.1,0.1
				c3.9,0.5,7.2,3.6,7.7,7.5C33.9,26.2,33.9,26.8,33.9,27.4z"/>
		</g>
		<g>
			<path fill="#FA4968" d="M33.9,27.4c-0.1,2.2-1,4.2-2.4,5.7c-1,1.1-1.7,2.3-2.2,3.7H25v-3.4c0.3,0.2,0.6,0.3,0.9,0.3
				c0.8,0,1.5-0.7,1.5-1.5s-0.7-1.5-1.5-1.5c-0.3,0-0.6,0.1-0.9,0.3v-3.5h3.5c-0.1-0.2-0.2-0.5-0.2-0.8c0-0.8,0.7-1.5,1.5-1.5
				s1.5,0.7,1.5,1.5c0,0.3-0.1,0.5-0.2,0.8L33.9,27.4L33.9,27.4z"/>
		</g>
		<g>
			<path fill="#F4F4F4" d="M22.8,22.7c0,0.8,0.7,1.5,1.5,1.5c0.2,0,0.4,0,0.6-0.1v3.3h-3.3c0.1,0.2,0.2,0.5,0.2,0.8
				c0,0.8-0.7,1.5-1.5,1.5s-1.5-0.7-1.5-1.5c0-0.3,0.1-0.5,0.2-0.8h-3c0-0.2,0-0.3,0-0.5c0-4.9,4-8.9,8.9-8.9v3.3
				c-0.2-0.1-0.4-0.1-0.6-0.1C23.5,21.2,22.8,21.9,22.8,22.7z"/>
		</g>
		<g>
			<path fill="#FFB95C" d="M27.4,32.1c0,0.8-0.7,1.5-1.5,1.5c-0.3,0-0.6-0.1-0.9-0.3v3.4h-4.3c-0.5-1.4-1.3-2.7-2.3-3.8
				c-1.3-1.5-2.2-3.4-2.3-5.5h3c-0.1,0.2-0.2,0.5-0.2,0.8c0,0.8,0.7,1.5,1.5,1.5s1.5-0.7,1.5-1.5c0-0.3-0.1-0.5-0.2-0.8H25v3.5
				c0.3-0.2,0.6-0.3,0.9-0.3C26.7,30.6,27.4,31.3,27.4,32.1z"/>
		</g>
	</g>
</g>
</svg>
