<?xml version="1.0" encoding="utf-8"?>
<!-- Generator: Adobe Illustrator 18.0.0, SVG Export Plug-In . SVG Version: 6.00 Build 0)  -->
<!DOCTYPE svg PUBLIC "-//W3C//DTD SVG 1.1//EN" "http://www.w3.org/Graphics/SVG/1.1/DTD/svg11.dtd">
<svg version="1.1" id="Layer_1" xmlns="http://www.w3.org/2000/svg" xmlns:xlink="http://www.w3.org/1999/xlink" x="0px" y="0px"
	 viewBox="0 0 50 50" enable-background="new 0 0 50 50" xml:space="preserve">
<g>
	<g>
		<g>
			<path fill="#559AFF" d="M42.9,13L42.9,13c-1.4-0.8-2.1-2.4-1.6-3.9c0.7-2.6-1.6-4.9-4.1-4.2l0,0c-1.5,0.4-3.1-0.2-3.9-1.6l0,0
				C32,1,28.7,1,27.5,3.3l0,0c-0.8,1.4-2.4,2.1-3.9,1.6l0,0c-2.5-0.8-4.9,1.6-4.1,4.2l0,0c0.4,1.5-0.2,3.1-1.6,3.9l0,0
				c-2.3,1.3-2.3,4.6,0,5.9l0,0c1.4,0.8,2,2.4,1.6,3.9l0,0c-0.7,2.6,1.6,4.9,4.1,4.2l0,0c1.5-0.4,3.1,0.2,3.9,1.6l0,0
				c1.3,2.3,4.6,2.3,5.8,0l0,0c0.8-1.4,2.4-2.1,3.9-1.6l0,0c2.5,0.8,4.9-1.6,4.1-4.2l0,0c-0.4-1.5,0.2-3.1,1.6-3.9l0,0
				C45.2,17.6,45.2,14.3,42.9,13z"/>
		</g>
		<g>
			<ellipse fill="#E5E5E5" cx="30.3" cy="15.9" rx="9.5" ry="9.6"/>
		</g>
		<g>
			<ellipse fill="#FA4968" cx="30.3" cy="15.9" rx="5.3" ry="5.4"/>
		</g>
		<g opacity="0.3">
			<path fill="#FFFFFF" d="M27.1,14.2l-0.9-0.5c0.2-0.4,0.5-0.7,0.8-1c0.5-0.5,1.2-0.9,1.9-1.1l0.3,0.9c-0.6,0.2-1.1,0.5-1.5,0.9
				C27.5,13.6,27.3,13.9,27.1,14.2z"/>
		</g>
		<g opacity="0.3">
			<path fill="#FFFFFF" d="M30.6,12.3c-0.2,0-0.4,0-0.6,0l-0.1-1c0.3,0,0.5,0,0.7,0V12.3z"/>
		</g>
		<g>
			<g>
				<polygon fill="#FFB95C" points="28.6,14.2 26.9,15.9 30.4,19.3 37,12.7 35.4,11 30.4,16 				"/>
			</g>
			<g opacity="0.3">
				<g>
					
						<rect x="33.7" y="12.6" transform="matrix(-0.71 -0.7042 0.7042 -0.71 48.6818 47.6783)" fill="#FFFFFF" width="1" height="2.4"/>
				</g>
				<g>
					
						<rect x="31.8" y="15.4" transform="matrix(-0.7101 -0.7041 0.7041 -0.7101 44.2036 49.4356)" fill="#FFFFFF" width="1" height="0.5"/>
				</g>
			</g>
		</g>
	</g>
	<g>
		<g>
			<path fill="#FFA49F" d="M30.4,43.5l10.6-6c0.7-0.4,1-1.2,0.7-2s-1.2-1.2-2-0.9l-8.9,3.7h-0.1c0-0.1,0.1-0.3,0.1-0.4
				c0-0.8-0.5-1.6-1.2-1.9l-5.2-1.8c-1.7-0.6-3.5-0.5-5.1,0.2l-6.6,2.9l3,6.8l3.2-1.5c1.5-0.7,3.3-0.6,4.7,0.2l1.4,0.8
				C26.5,44.5,28.6,44.4,30.4,43.5z"/>
		</g>
	</g>
	<g>
		<path fill="#F4F4F4" d="M29.7,37.8c0-0.1,0-0.3-0.1-0.4c-0.1-0.2-0.3-0.4-0.5-0.4l-1.2-0.4l-0.5,2.1l1.4-0.1
			C29.3,38.5,29.6,38.2,29.7,37.8z"/>
	</g>
	<g>
		<polygon fill="#559AFF" points="18.8,44.3 14.6,34.8 5.4,38.9 9.7,48.5 		"/>
	</g>
	<g>
		<polygon fill="#6EB0FF" points="14.9,46.1 18.8,44.3 14.6,34.8 10.6,36.6 		"/>
	</g>
	<g>
		<path fill="#FFFFFF" d="M14.2,39.2c-0.4,0.2-0.9,0-1.1-0.4c-0.2-0.4,0-0.9,0.4-1.1c0.4-0.2,0.9,0,1.1,0.4
			C14.8,38.6,14.6,39,14.2,39.2z"/>
	</g>
</g>
</svg>
