<?xml version="1.0" encoding="utf-8"?>
<!-- Generator: Adobe Illustrator 18.0.0, SVG Export Plug-In . SVG Version: 6.00 Build 0)  -->
<!DOCTYPE svg PUBLIC "-//W3C//DTD SVG 1.1//EN" "http://www.w3.org/Graphics/SVG/1.1/DTD/svg11.dtd">
<svg version="1.1" id="Layer_1" xmlns="http://www.w3.org/2000/svg" xmlns:xlink="http://www.w3.org/1999/xlink" x="0px" y="0px"
	 viewBox="0 0 50 50" enable-background="new 0 0 50 50" xml:space="preserve">
<g>
	<g>
		<path fill="#F4F4F4" d="M18.9,7.6l-5.7,5.6c-0.9,0.9-1.4,2.1-1.4,3.3v29.1c0,1.6,1.3,2.8,2.8,2.8h25.5c1.6,0,2.8-1.3,2.8-2.8V9.1
			c0-1.6-1.3-2.8-2.8-2.8H22.2C21,6.3,19.8,6.8,18.9,7.6z"/>
	</g>
	<g>
		<path fill="#E8CEC1" d="M42.9,9.1v36.6c0,1.6-1.3,2.8-2.8,2.8H14.6c-1.5,0-2.8-1.3-2.8-2.8V16.6c0-0.7,0.1-1.4,0.4-2
			c0.2-0.5,0.6-1,1-1.4l5.7-5.6c0.4-0.4,0.9-0.7,1.4-0.9c0.6-0.3,1.3-0.4,1.9-0.4h17.9C41.7,6.3,42.9,7.6,42.9,9.1z"/>
	</g>
	<g>
		<g>
			<path fill="#F4F4F4" d="M14.2,2.8L8.5,8.5c-0.9,0.9-1.4,2.1-1.4,3.3v29.1c0,1.6,1.3,2.8,2.8,2.8h25.5c1.6,0,2.8-1.3,2.8-2.8V4.3
				c0-1.6-1.3-2.8-2.8-2.8h-18C16.2,1.5,15,2,14.2,2.8z"/>
		</g>
		<g>
			<path fill="#F4F4F4" d="M38.2,4.3v36.6c0,1.6-1.3,2.8-2.8,2.8H9.9c-1.5,0-2.8-1.3-2.8-2.8V11.8c0-0.7,0.1-1.4,0.4-2
				c0.2-0.5,0.6-1,1-1.4l5.7-5.6c0.4-0.4,0.9-0.7,1.4-0.9c0.6-0.3,1.3-0.4,1.9-0.4h17.9C36.9,1.5,38.2,2.8,38.2,4.3z"/>
		</g>
		<g>
			<path fill="#FFCA8A" d="M15.5,1.9v5.7c0,1.2-1,2.2-2.2,2.2H7.5c0.2-0.5,0.6-1,1-1.4l5.7-5.6C14.6,2.4,15,2.1,15.5,1.9z"/>
		</g>
		<g>
			<g>
				<line fill="none" x1="19.1" y1="4.1" x2="24.5" y2="4.1"/>
				<rect x="19.1" y="3.6" fill="#FFFFFF" width="5.4" height="1"/>
			</g>
			<g>
				<line fill="none" x1="26.9" y1="4.1" x2="28" y2="4.1"/>
				<rect x="26.9" y="3.6" fill="#FFFFFF" width="1" height="1"/>
			</g>
		</g>
	</g>
	<g>
		<g>
			<rect x="10.5" y="16.4" fill="#FECD04" width="2.6" height="5"/>
		</g>
		<g>
			<rect x="15.9" y="18.4" fill="#ABB734" width="2.6" height="3.1"/>
		</g>
		<g>
			<rect x="21.3" y="15.1" fill="#FFB95C" width="2.6" height="6.4"/>
		</g>
		<g>
			<rect x="26.8" y="17.5" fill="#FA4968" width="2.6" height="4"/>
		</g>
		<g>
			<rect x="32.2" y="15.9" fill="#559AFF" width="2.6" height="5.6"/>
		</g>
	</g>
	<g>
		<g>
			<rect x="10.5" y="20" fill="#EABE06" width="2.6" height="1.5"/>
		</g>
		<g>
			<rect x="15.9" y="20" fill="#9B9B1B" width="2.6" height="1.5"/>
		</g>
		<g>
			<rect x="21.3" y="20" fill="#F9A846" width="2.6" height="1.5"/>
		</g>
		<g>
			<rect x="26.8" y="20" fill="#ED2F58" width="2.6" height="1.5"/>
		</g>
		<g>
			<rect x="32.2" y="20" fill="#3A8BED" width="2.6" height="1.5"/>
		</g>
	</g>
	<g>
		<g>
			<g>
				<path fill="#6CD8D5" d="M17.3,31.8l-3.5-5.2c-1.7,1.1-2.8,3.1-2.8,5.2c0,3.5,2.8,6.3,6.3,6.3c2.8,0,5.1-1.8,5.9-4.3L17.3,31.8z"
					/>
			</g>
			<g>
				<path fill="#C5DFDC" d="M17.3,25.5c-1.3,0-2.5,0.4-3.5,1.1l3.5,5.2l4.4-4.5C20.6,26.2,19,25.5,17.3,25.5z"/>
			</g>
			<g>
				<path fill="#FECD04" d="M17.3,31.8L17.3,31.8l5.9,2c0.2-0.6,0.3-1.3,0.3-2c0-1.7-0.7-3.3-1.8-4.5L17.3,31.8z"/>
			</g>
		</g>
	</g>
	<g>
		<g>
			<line fill="none" x1="27.4" y1="26.2" x2="34.8" y2="26.2"/>
			<rect x="27.4" y="25.7" fill="#CCCACA" width="7.4" height="1"/>
		</g>
		<g>
			<line fill="none" x1="27.4" y1="29" x2="34.8" y2="29"/>
			<rect x="27.4" y="28.5" fill="#CCCACA" width="7.4" height="1"/>
		</g>
		<g>
			<line fill="none" x1="27.4" y1="31.8" x2="34.8" y2="31.8"/>
			<rect x="27.4" y="31.3" fill="#CCCACA" width="7.4" height="1"/>
		</g>
		<g>
			<line fill="none" x1="27.4" y1="34.6" x2="34.8" y2="34.6"/>
			<rect x="27.4" y="34.1" fill="#CCCACA" width="7.4" height="1"/>
		</g>
		<g>
			<line fill="none" x1="27.4" y1="37.4" x2="34.8" y2="37.4"/>
			<rect x="27.4" y="36.9" fill="#CCCACA" width="7.4" height="1"/>
		</g>
	</g>
</g>
</svg>
