<?xml version="1.0" encoding="utf-8"?>
<!-- Generator: Adobe Illustrator 18.0.0, SVG Export Plug-In . SVG Version: 6.00 Build 0)  -->
<!DOCTYPE svg PUBLIC "-//W3C//DTD SVG 1.1//EN" "http://www.w3.org/Graphics/SVG/1.1/DTD/svg11.dtd">
<svg version="1.1" id="Layer_1" xmlns="http://www.w3.org/2000/svg" xmlns:xlink="http://www.w3.org/1999/xlink" x="0px" y="0px"
	 viewBox="0 0 50 50" enable-background="new 0 0 50 50" xml:space="preserve">
<g>
	<g>
		<path fill="#E5E5E5" d="M46.5,28.7h-30c-1.4,0-2.5-1.1-2.5-2.5V8c0-1.4,1.1-2.5,2.5-2.5h30C47.9,5.4,49,6.5,49,8v18.2
			C49,27.6,47.9,28.7,46.5,28.7z"/>
	</g>
	<g opacity="0.3">
		<path fill="#FFFFFF" d="M15.5,8c0-0.6,0.5-1.1,1.1-1.1h6.7v1L15.5,8z"/>
	</g>
	<g opacity="0.3">
		<rect x="25.2" y="6.9" fill="#FFFFFF" width="2.3" height="1"/>
	</g>
	<g>
		<g>
			
				<rect x="17.2" y="17.8" transform="matrix(-0.7066 -0.7076 0.7076 -0.7066 16.8678 44.8874)" fill="#CCCACA" width="1" height="2.3"/>
		</g>
		<g>
			
				<rect x="16.6" y="18.5" transform="matrix(-0.7075 -0.7067 0.7067 -0.7075 16.8495 45.0088)" fill="#CCCACA" width="2.3" height="1"/>
		</g>
	</g>
	<g>
		<g>
			
				<rect x="30" y="21.9" transform="matrix(-0.7067 -0.7075 0.7075 -0.7067 35.7675 60.9682)" fill="#CCCACA" width="1" height="2.3"/>
		</g>
		<g>
			
				<rect x="29.3" y="22.6" transform="matrix(-0.7077 -0.7065 0.7065 -0.7077 35.7006 60.9109)" fill="#CCCACA" width="2.3" height="1"/>
		</g>
	</g>
	<g>
		<g>
			
				<rect x="28.8" y="10.4" transform="matrix(-0.7066 -0.7076 0.7076 -0.7066 41.7625 40.3794)" fill="#CCCACA" width="1" height="2.3"/>
		</g>
		<g>
			
				<rect x="28.1" y="11.1" transform="matrix(-0.7077 -0.7065 0.7065 -0.7077 41.7616 40.4806)" fill="#CCCACA" width="2.3" height="1"/>
		</g>
	</g>
	<g>
		
			<rect x="25.3" y="16.6" transform="matrix(-0.6082 -0.7938 0.7938 -0.6082 25.5923 52.5662)" fill="#425060" width="1" height="6.7"/>
	</g>
	<g>
		<rect x="21.4" y="9.2" transform="matrix(-0.332 -0.9433 0.9433 -0.332 17.862 36.7169)" fill="#425060" width="1" height="5.7"/>
	</g>
	<g>
		
			<rect x="19" y="14.7" transform="matrix(-0.9511 -0.3089 0.3089 -0.9511 41.5746 36.9702)" fill="#425060" width="9.4" height="1"/>
	</g>
	<g>
		<polyline fill="#616B77" points="24.2,13.6 26.5,10.5 22.8,9.4 		"/>
	</g>
	<g>
		<g>
			<rect x="37.6" y="8.4" fill="#FA4968" width="2.9" height="2.9"/>
		</g>
		<g>
			<g>
				<rect x="42.2" y="8.5" fill="#CCCACA" width="3.9" height="1"/>
			</g>
			<g>
				<rect x="42.2" y="10.1" fill="#CCCACA" width="1.8" height="1"/>
			</g>
		</g>
	</g>
	<g>
		<rect x="37.6" y="13.2" fill="#FFB95C" width="2.9" height="2.9"/>
	</g>
	<g>
		<rect x="42.2" y="13.4" fill="#CCCACA" width="3.9" height="1"/>
	</g>
	<g>
		<rect x="42.2" y="14.9" fill="#CCCACA" width="1.8" height="1"/>
	</g>
	<g>
		<rect x="37.6" y="18" fill="#6CD8D5" width="2.9" height="2.9"/>
	</g>
	<g>
		<rect x="42.2" y="18.2" fill="#CCCACA" width="3.9" height="1"/>
	</g>
	<g>
		<rect x="42.2" y="19.8" fill="#CCCACA" width="1.8" height="1"/>
	</g>
	<g>
		<rect x="37.6" y="22.9" fill="#6EB0FF" width="2.9" height="2.9"/>
	</g>
	<g>
		<rect x="42.2" y="23" fill="#CCCACA" width="3.9" height="1"/>
	</g>
	<g>
		<rect x="42.2" y="24.6" fill="#CCCACA" width="1.8" height="1"/>
	</g>
	<g>
		<g>
			<rect x="33.9" y="8.4" fill="#CCCACA" width="1" height="1.5"/>
		</g>
		<g>
			<path fill="#CCCACA" d="M34.9,21.3h-1v-2.9h1V21.3z M34.9,15.6h-1v-2.9h1V15.6z"/>
		</g>
		<g>
			<rect x="33.9" y="24.2" fill="#CCCACA" width="1" height="1.5"/>
		</g>
	</g>
	<g>
		<path fill="#ED2F58" d="M10,13.8c1,1.9,2.2,3.8,3.6,5.6c1.4,1.7,2.9,3.4,4.7,4.4c0.7,0.4,1,1.4,0.5,2.1c-1.4,2-3.9-0.8-5.2-1.7
			c-2.8-2.5-5.1-5.3-7.1-8.6C5.2,13.3,8.7,11.4,10,13.8L10,13.8z"/>
	</g>
	<g>
		<path fill="#559AFF" d="M12.6,45.9c-0.2,2.3-3.6,2.2-3.7-0.1c0-4.1,0.1-8.1-1.2-12.1c0,2.8-0.2,5.6-1.1,8.2
			c-0.4,1.5-0.8,2.9-1.2,4.3c-0.3,0.9-1.3,1.5-2.2,1.2s-1.4-1.2-1.2-2c0.8-4.2,1.9-8.3,1-12.5c-0.2-1.4-0.4-2.9-0.6-4.3l0,0
			c-0.8-4.2-1.1-8.8-0.8-13.8C1.7,12.5,3.7,12,6,12.2c2.4,0.1,4.2,0.8,4.1,3.1c-0.3,4.4,0,8.4,0.7,12c0,0.1,0,0.1,0.1,0.2
			c0.7,3.1,1.5,5.9,1.9,9.2C13,39.8,12.7,42.7,12.6,45.9z"/>
	</g>
	<g>
		<path fill="#FA4968" d="M2.4,28.5v0.1c0,0,8.5-1.3,8.5-1.2c0-0.1,0-0.1-0.1-0.2c-0.7-3.6-1-7.6-0.7-12c0.1-2.4-1.7-3-4.1-3.1
			s-4.3,0.3-4.4,2.6C1.4,19.7,1.6,24.3,2.4,28.5L2.4,28.5z"/>
	</g>
	<g>
		<path fill="#FF6989" d="M4,14c1.3,0.3,1.7,1.7,0.8,4.5c-0.1,1-0.2,2.1-0.3,3.2c-0.1,2.2,0,4.5,0.6,6.4c0.3,0.8-0.2,1.7-1,1.9
			c-2.4,0.6-2.4-3.2-2.8-4.7c-0.4-3.1-0.4-6.2,0-9.3C1.5,14.8,2.7,13.7,4,14z"/>
	</g>
	<g>
		<ellipse fill="#616B77" cx="6.6" cy="6" rx="3.6" ry="3.6"/>
	</g>
	<g opacity="0.3">
		<path fill="#FFFFFF" d="M5.5,6h-1c0-1.1,0.9-2,2.1-2v1C6,5,5.5,5.5,5.5,6z"/>
	</g>
	<g>
		<path fill="#559AFF" d="M47.4,43.5c0,0.4,0,0.9-0.1,1.4c-0.3,1.5-1.6,2.5-3,2.5h-6.6c-1.5,0-2.8-1-3-2.5c-0.1-0.5-0.1-1-0.1-1.4
			c0-2.7,1.6-3.7,4-4l2.5,2.1l2.5-2.1C45.8,39.8,47.4,40.8,47.4,43.5z"/>
	</g>
	<g>
		<ellipse fill="#559AFF" cx="41" cy="35.6" rx="3.1" ry="3.1"/>
	</g>
	<g>
		<path fill="#8CF2ED" d="M32.8,43.5c0,0.4,0,0.9-0.1,1.4c-0.3,1.5-1.6,2.5-3,2.5H23c-1.5,0-2.8-1-3-2.5c-0.1-0.5-0.1-1-0.1-1.4
			c0-2.7,1.6-3.7,4-4l2.5,2.1l2.5-2.1C31.1,39.8,32.8,40.8,32.8,43.5z"/>
	</g>
	<g opacity="0.3">
		<g>
			<path fill="#FFFFFF" d="M44.3,45.9h-6.6c-0.7,0-1.4-0.5-1.5-1.2c-0.1-0.4-0.1-0.8-0.1-1.1h1c0,0.3,0,0.6,0.1,1
				c0,0.2,0.3,0.4,0.5,0.4h6.6c0.3,0,0.5-0.2,0.5-0.4c0.1-0.3,0.1-0.7,0.1-1h1c0,0.4,0,0.7-0.1,1.1C45.6,45.3,45,45.9,44.3,45.9z"/>
		</g>
		<g>
			<path fill="#FFFFFF" d="M29.6,45.9H23c-0.7,0-1.4-0.5-1.5-1.2c-0.1-0.4-0.1-0.8-0.1-1.1h1c0,0.3,0,0.6,0.1,1
				c0,0.2,0.3,0.4,0.5,0.4h6.6c0.3,0,0.5-0.2,0.5-0.4c0.1-0.3,0.1-0.7,0.1-1h1c0,0.4,0,0.7-0.1,1.1C31,45.3,30.3,45.9,29.6,45.9z"/>
		</g>
	</g>
	<g>
		<g>
			<ellipse fill="#8CF2ED" cx="26.3" cy="35.6" rx="3.1" ry="3.1"/>
		</g>
	</g>
	<g>
		<circle fill="#FFB95C" cx="29.5" cy="17.1" r="1.3"/>
		<path fill="#FFB95C" d="M29.5,18.9c-1,0-1.8-0.8-1.8-1.8s0.8-1.8,1.8-1.8s1.8,0.8,1.8,1.8S30.5,18.9,29.5,18.9z M29.5,16.3
			c-0.4,0-0.8,0.4-0.8,0.8s0.4,0.8,0.8,0.8s0.8-0.4,0.8-0.8C30.3,16.7,29.9,16.3,29.5,16.3z"/>
	</g>
	<g>
		<circle fill="#FA4968" cx="18" cy="13.4" r="1.3"/>
		<path fill="#FA4968" d="M18,15.2c-1,0-1.8-0.8-1.8-1.8s0.8-1.8,1.8-1.8s1.8,0.8,1.8,1.8S19,15.2,18,15.2z M18,12.6
			c-0.4,0-0.8,0.3-0.8,0.8c0,0.4,0.3,0.8,0.8,0.8c0.4,0,0.8-0.3,0.8-0.8C18.8,13,18.5,12.6,18,12.6z"/>
	</g>
	<g>
		<circle fill="#6CD8D5" cx="22.2" cy="22.7" r="1.2"/>
		<path fill="#6CD8D5" d="M22.2,24.4c-1,0-1.7-0.8-1.7-1.7c0-0.9,0.8-1.7,1.7-1.7s1.7,0.8,1.7,1.7C23.9,23.6,23.1,24.4,22.2,24.4z
			 M22.2,22c-0.4,0-0.7,0.3-0.7,0.7c0,0.4,0.3,0.7,0.7,0.7c0.4,0,0.7-0.3,0.7-0.7C22.9,22.3,22.5,22,22.2,22z"/>
	</g>
</g>
</svg>
