<?xml version="1.0" encoding="utf-8"?>
<!-- Generator: Adobe Illustrator 18.0.0, SVG Export Plug-In . SVG Version: 6.00 Build 0)  -->
<!DOCTYPE svg PUBLIC "-//W3C//DTD SVG 1.1//EN" "http://www.w3.org/Graphics/SVG/1.1/DTD/svg11.dtd">
<svg version="1.1" id="Layer_1" xmlns="http://www.w3.org/2000/svg" xmlns:xlink="http://www.w3.org/1999/xlink" x="0px" y="0px"
	 viewBox="0 0 50 50" enable-background="new 0 0 50 50" xml:space="preserve">
<g>
	<g>
		<g>
			<g>
				<polygon fill="#425060" points="36.1,41.9 35.6,41.1 39.9,38.4 44.3,41.1 43.8,41.9 39.9,39.5 				"/>
			</g>
			<g>
				<rect x="39.4" y="35.6" fill="#425060" width="1" height="3.3"/>
			</g>
		</g>
		<g>
			<g>
				<polygon fill="#425060" points="13.9,41.9 10.1,39.5 6.2,41.9 5.7,41.1 10.1,38.4 14.4,41.1 				"/>
			</g>
			<g>
				<rect x="9.6" y="35.6" fill="#425060" width="1" height="3.3"/>
			</g>
		</g>
	</g>
	<g>
		<path fill="#FFB95C" d="M21.6,38.5c0,1.7-2.5,1.8-2.7,0.1c-0.3-3-1-8.7-1-8.7L11,30.6c-1.5,0.2-2.9-1-2.9-2.5c0-0.4,0-0.7-0.1-1
			l0,0c-0.9-3-1.3-6.3-1.5-9.9c-0.1-1.7,1.3-2.1,3-2.2c1.7-0.1,3.1,0.3,3.2,2c0.1,3.2,0.6,6.1,1.3,8.6l0.1,0.1l3.2-0.4
			c1.6-0.2,3.1,0.9,3.3,2.6C21,31.4,21.5,37,21.6,38.5z"/>
	</g>
	<g>
		<path fill="#D9BAA8" d="M28.4,38.5c0,1.7,2.5,1.8,2.7,0.1c0.3-3,1-8.7,1-8.7l6.8,0.7c1.5,0.2,2.9-1,2.9-2.5c0-0.4,0-0.7,0.1-1l0,0
			c0.9-3,1.3-6.3,1.5-9.9c0.1-1.7-1.3-2.1-3-2.2c-1.7-0.1-3.1,0.3-3.2,2c-0.1,3.2-0.6,6.1-1.3,8.6l-0.1,0.1l-3.2-0.4
			c-1.6-0.2-3.1,0.9-3.3,2.6C29,31.4,28.5,37,28.4,38.5z"/>
	</g>
	<g>
		<path fill="#773D35" d="M42,27.1C42,27.2,42,27.2,42,27.1c0,0.1-6.1-1.4-6.1-1.4s0-0.1,0.1-0.1c0.8-2.5,1.2-5.4,1.3-8.6
			c0.1-1.7,1.5-2,3.2-2c1.7,0.1,3.1,0.5,3,2.2C43.4,20.8,42.9,24.2,42,27.1L42,27.1z"/>
	</g>
	<g>
		<path fill="#894D47" d="M41.7,16.6c-1,0.1-1.3,1.1-0.9,3.2c0,0.8,0,1.5,0,2.3c-0.1,1.6-0.3,3.2-0.8,4.6c-0.2,0.6,0,1.2,0.6,1.4
			c1.7,0.6,2-2.1,2.3-3.2c0.5-2.2,0.7-4.4,0.6-6.7C43.5,17.3,42.7,16.5,41.7,16.6z"/>
	</g>
	<g>
		<ellipse fill="#616B77" cx="40.5" cy="10.7" rx="2.6" ry="2.6"/>
	</g>
	<g>
		<path fill="#559AFF" d="M36.1,36c-0.2,0-0.4,0-0.5-0.1c-0.8-0.1-1.4-0.9-1.3-1.7c0.1-0.8,0.9-1.4,1.7-1.3c2,0.2,5.4,0.2,6.3-0.6
			c1.2-0.9,2.5-6.7,3.1-11.5c0.1-0.8,0.9-1.4,1.7-1.3s1.5,0.9,1.4,1.7c-0.3,2.6-1.5,11.3-4.2,13.5C42.2,36.4,37.8,36.2,36.1,36z"/>
	</g>
	<g>
		<path fill="#FF8C83" d="M8,27.1C8,27.2,8,27.2,8,27.1c0,0.1,6.1-1.4,6.1-1.4s0-0.1-0.1-0.1c-0.8-2.5-1.2-5.4-1.3-8.6
			c-0.1-1.7-1.5-2-3.2-2c-1.7,0.1-3.1,0.5-3,2.2C6.6,20.8,7.1,24.2,8,27.1L8,27.1z"/>
	</g>
	<g>
		<path fill="#FFA49F" d="M8.3,16.6c1,0.1,1.3,1.1,0.9,3.2c0,0.8,0,1.5,0,2.3c0.1,1.6,0.3,3.2,0.8,4.6c0.2,0.6,0,1.2-0.6,1.4
			c-1.7,0.6-2-2.1-2.3-3.2c-0.5-2.2-0.7-4.4-0.6-6.7C6.5,17.3,7.3,16.5,8.3,16.6z"/>
	</g>
	<g>
		<ellipse fill="#616B77" cx="9.5" cy="10.7" rx="2.6" ry="2.6"/>
	</g>
	<g>
		<g>
			<path fill="#559AFF" d="M13.9,36c0.2,0,0.4,0,0.5-0.1c0.8-0.1,1.4-0.9,1.3-1.7c-0.1-0.8-0.9-1.4-1.7-1.3c-2,0.2-5.4,0.2-6.3-0.6
				c-1.2-0.9-2.5-6.7-3.1-11.5c-0.1-0.8-0.9-1.4-1.7-1.3s-1.5,0.9-1.4,1.7C1.8,23.8,3,32.5,5.7,34.7C7.8,36.4,12.2,36.2,13.9,36z"/>
		</g>
	</g>
	<g>
		<g>
			<rect x="16.1" y="19.5" fill="#E5E5E5" width="17.7" height="2.9"/>
		</g>
		<g>
			<rect x="23.6" y="22.4" fill="#E5E5E5" width="2.8" height="17.4"/>
		</g>
	</g>
	<g>
		<path fill="#8CF2ED" d="M30.4,9.6l-3.9,7.8h2.4l2.5-4.9C31.9,11.4,31.5,10.1,30.4,9.6z"/>
	</g>
	<g>
		<path fill="#6CD8D5" d="M29,17.4h-9.8V18c0,0.9,0.7,1.6,1.6,1.6h6.7c0.9,0,1.6-0.7,1.6-1.6v-0.6H29z"/>
	</g>
</g>
</svg>
