<?xml version="1.0" encoding="utf-8"?>
<!-- Generator: Adobe Illustrator 18.0.0, SVG Export Plug-In . SVG Version: 6.00 Build 0)  -->
<!DOCTYPE svg PUBLIC "-//W3C//DTD SVG 1.1//EN" "http://www.w3.org/Graphics/SVG/1.1/DTD/svg11.dtd">
<svg version="1.1" id="Layer_1" xmlns="http://www.w3.org/2000/svg" xmlns:xlink="http://www.w3.org/1999/xlink" x="0px" y="0px"
	 viewBox="0 0 50 50" enable-background="new 0 0 50 50" xml:space="preserve">
<g>
	<g>
		<g>
			<g>
				<path fill="#E5E5E5" d="M44.7,37.8c2.1,0,3.8-1.6,3.8-3.6l0,0c0-3.7-3.1-4.3-6.9-4.3c-3.8,0-6.9,0.6-6.9,4.3l0,0
					c0,2,1.8,3.6,3.8,3.6H44.7z"/>
			</g>
			<g>
				<path fill="#559AFF" d="M48.5,34.2L48.5,34.2c0,2-1.8,3.6-3.8,3.6h-6.1c-2.1,0-3.8-1.6-3.8-3.6l0,0c0-3.7,3.1-4.3,6.8-4.3
					c0.6,0,1.1,0,1.6,0c0.6,0,1.1,0.1,1.6,0.2C47.1,30.6,48.5,31.7,48.5,34.2z"/>
			</g>
			<g>
				<path fill="#D9BAA8" d="M40.4,26.3c0,0-0.3,3.7-0.3,4.1c0,0.9,0.7,1.5,1.6,1.5c0.9,0,1.6-0.7,1.6-1.5c0-0.4-0.3-4.1-0.3-4.1
					H40.4z"/>
			</g>
			<g>
				<path fill="#C9A28F" d="M46.9,24.7c-0.2,0.7-0.7,1.1-1.5,0.8c-0.8-0.2-1.6-1-1.4-1.7c0.2-0.7,1.6-1,2.4-0.8
					C47.2,23.3,47.1,24,46.9,24.7z"/>
			</g>
			<g>
				<path fill="#C9A28F" d="M36.4,24.7c0.2,0.7,0.7,1.1,1.5,0.8c0.8-0.2,1.6-1,1.4-1.7c-0.2-0.7-1.6-1-2.4-0.8
					C36.1,23.3,36.2,24,36.4,24.7z"/>
			</g>
			<g>
				<path fill="#E8CEC1" d="M45.7,22.6c0,2.8-1.1,6.4-4,6.4s-4-3.6-4-6.4s1.1-3.8,4-3.8C44.5,18.7,45.7,19.7,45.7,22.6z"/>
			</g>
			<g>
				<path fill="#894D47" d="M35.5,21.5c2.6-0.7,2.1-5.5,4.7-3.4C41.8,19.5,38.4,23.8,35.5,21.5z"/>
			</g>
			<g>
				<path fill="#894D47" d="M45.8,22.8c-1.9-2.9-7.2-0.3-5.8-4.3C40.9,15.9,47.2,18.4,45.8,22.8z"/>
			</g>
			<g>
				<polygon fill="#FA4968" points="41.1,31.9 40.4,35.8 41.6,36.6 42.8,35.8 42.1,31.9 				"/>
			</g>
			<g>
				<path fill="#DDEDEB" d="M44.9,30.2l-1.7,2.9l-1.6-1.2l1.6-1.9C43.9,30,44.4,30.1,44.9,30.2z"/>
			</g>
			<g>
				<path fill="#DDEDEB" d="M38.4,30.2l1.7,2.9l1.6-1.2L40,30C39.4,30,38.9,30.1,38.4,30.2z"/>
			</g>
		</g>
		<g>
			<g>
				<path fill="#E5E5E5" d="M11.4,37.8c2.1,0,3.8-1.6,3.8-3.6l0,0c0-3.7-3.1-4.3-6.9-4.3s-6.9,0.6-6.9,4.3l0,0c0,2,1.8,3.6,3.8,3.6
					H11.4z"/>
			</g>
			<g>
				<path fill="#FFB95C" d="M15.2,34.2L15.2,34.2c0,2-1.8,3.6-3.8,3.6H5.3c-2.1,0-3.8-1.6-3.8-3.6l0,0c0-3.7,3.1-4.3,6.8-4.3
					c0.6,0,1.1,0,1.6,0c0.6,0,1.1,0.1,1.6,0.2C13.8,30.6,15.2,31.7,15.2,34.2z"/>
			</g>
			<g>
				<path fill="#D9BAA8" d="M7.1,26.3c0,0-0.3,3.7-0.3,4.1c0,0.9,0.7,1.5,1.6,1.5s1.6-0.7,1.6-1.5c0-0.4-0.3-4.1-0.3-4.1H7.1z"/>
			</g>
			<g>
				<path fill="#C9A28F" d="M13.6,24.7c-0.2,0.7-0.7,1.1-1.5,0.8c-0.8-0.2-1.6-1-1.4-1.7c0.2-0.7,1.6-1,2.4-0.8
					C13.9,23.3,13.8,24,13.6,24.7z"/>
			</g>
			<g>
				<path fill="#C9A28F" d="M3.1,24.7c0.2,0.7,0.7,1.1,1.5,0.8c0.8-0.2,1.6-1,1.4-1.7s-1.6-1-2.4-0.8C2.8,23.3,2.9,24,3.1,24.7z"/>
			</g>
			<g>
				<path fill="#E8CEC1" d="M12.4,22.6c0,2.8-1.1,6.4-4,6.4s-4-3.6-4-6.4s1.1-3.8,4-3.8S12.4,19.7,12.4,22.6z"/>
			</g>
			<g>
				<path fill="#894D47" d="M2.2,21.5c2.6-0.7,2.1-5.5,4.7-3.4C8.5,19.5,5.1,23.8,2.2,21.5z"/>
			</g>
			<g>
				<path fill="#894D47" d="M12.5,22.8c-1.9-2.9-7.2-0.3-5.8-4.3C7.6,15.9,13.9,18.4,12.5,22.8z"/>
			</g>
			<g>
				<polygon fill="#FA4968" points="7.8,31.9 7.1,35.8 8.3,36.6 9.5,35.8 8.8,31.9 				"/>
			</g>
			<g>
				<path fill="#DDEDEB" d="M11.6,30.2l-1.7,2.9l-1.6-1.2L10,30C10.6,30,11.1,30.1,11.6,30.2z"/>
			</g>
			<g>
				<path fill="#DDEDEB" d="M5.1,30.2l1.7,2.9l1.6-1.2L6.7,30C6.1,30,5.6,30.1,5.1,30.2z"/>
			</g>
		</g>
	</g>
	<g>
		<g>
			<g>
				<path fill="#C9A28F" d="M38.5,12.2c-0.2,0.7-0.7,1.1-1.5,0.8c-0.8-0.2-1.6-1-1.4-1.7c0.2-0.7,1.6-1,2.4-0.8
					C38.9,10.8,38.7,11.5,38.5,12.2z"/>
			</g>
			<g>
				<path fill="#C9A28F" d="M28,12.2c0.2,0.7,0.7,1.1,1.5,0.8c0.8-0.2,1.6-1,1.4-1.7s-1.6-1-2.4-0.8C27.7,10.8,27.8,11.5,28,12.2z"
					/>
			</g>
			<g>
				<path fill="#E8CEC1" d="M37.3,10.1c0,2.8-1.1,6.4-4,6.4s-4-3.6-4-6.4s1.1-3.8,4-3.8S37.3,7.3,37.3,10.1z"/>
			</g>
			<g>
				<path fill="#894D47" d="M27.1,9.1c2.6-0.7,2.1-5.5,4.7-3.4C33.4,7.1,30,11.4,27.1,9.1z"/>
			</g>
			<g>
				<path fill="#894D47" d="M37.4,10.4c-1.9-2.9-7.2-0.3-5.8-4.3C32.5,3.5,38.8,5.9,37.4,10.4z"/>
			</g>
		</g>
		<g>
			<g>
				<path fill="#C9A28F" d="M21,12.2c-0.2,0.7-0.7,1.1-1.5,0.8c-0.8-0.2-1.6-1-1.4-1.7s1.6-1,2.4-0.8C21.3,10.8,21.2,11.5,21,12.2z"
					/>
			</g>
			<g>
				<path fill="#C9A28F" d="M10.5,12.2c0.2,0.7,0.7,1.1,1.5,0.8c0.8-0.2,1.6-1,1.4-1.7c-0.2-0.7-1.6-1-2.4-0.8
					C10.1,10.8,10.2,11.5,10.5,12.2z"/>
			</g>
			<g>
				<path fill="#E8CEC1" d="M19.7,10.1c0,2.8-1.1,6.4-4,6.4s-4-3.6-4-6.4s1.1-3.8,4-3.8S19.7,7.3,19.7,10.1z"/>
			</g>
			<g>
				<path fill="#894D47" d="M9.6,9.1c2.6-0.7,2.1-5.5,4.7-3.4C15.9,7.1,12.4,11.4,9.6,9.1z"/>
			</g>
			<g>
				<path fill="#894D47" d="M19.9,10.4c-1.9-2.9-7.2-0.3-5.8-4.3C14.9,3.5,21.3,5.9,19.9,10.4z"/>
			</g>
		</g>
	</g>
	<g>
		<g>
			<path fill="#E5E5E5" d="M28.6,45c2.6,0,4.9-2,4.9-4.6l0,0c0-4.7-3.9-5.5-8.8-5.5s-8.8,0.8-8.8,5.5l0,0c0,2.6,2.3,4.6,4.9,4.6
				H28.6z"/>
		</g>
		<g>
			<path fill="#6CD8D5" d="M33.5,40.4L33.5,40.4c0,2.6-2.3,4.6-4.9,4.6h-7.8c-2.6,0-4.9-2-4.9-4.6l0,0c0-4.7,3.9-5.5,8.8-5.5
				c0.7,0,1.4,0,2.1,0.1s1.5,0.1,2.1,0.3C31.6,35.8,33.5,37.1,33.5,40.4z"/>
		</g>
		<g>
			<path fill="#D9BAA8" d="M23.1,30.2c0,0-0.4,4.8-0.4,5.2c0,1.1,0.9,2,2,2s2-0.9,2-2c0-0.5-0.4-5.2-0.4-5.2H23.1z"/>
		</g>
		<g>
			<path fill="#C9A28F" d="M31.4,28.2c-0.3,0.9-0.9,1.4-1.9,1.1s-2-1.3-1.7-2.2c0.3-0.9,2.1-1.3,3.1-1S31.7,27.3,31.4,28.2z"/>
		</g>
		<g>
			<path fill="#C9A28F" d="M18,28.2c0.3,0.9,0.9,1.4,1.9,1.1s2-1.3,1.7-2.2c-0.3-0.9-2.1-1.3-3.1-1S17.7,27.3,18,28.2z"/>
		</g>
		<g>
			<path fill="#E8CEC1" d="M29.9,25.4c0,3.6-1.5,8.2-5.2,8.2s-5.2-4.6-5.2-8.2s1.5-4.9,5.2-4.9C28.4,20.6,29.9,21.8,29.9,25.4z"/>
		</g>
		<g>
			<path fill="#894D47" d="M16.8,24.1c3.3-0.9,2.7-7.1,6-4.4C24.9,21.5,20.5,27,16.8,24.1z"/>
		</g>
		<g>
			<path fill="#894D47" d="M30,25.8c-2.5-3.7-9.3-0.4-7.5-5.5C23.7,16.9,31.8,20.1,30,25.8z"/>
		</g>
		<g>
			<polygon fill="#FA4968" points="24,37.4 23.1,42.3 24.6,43.4 26.2,42.3 25.2,37.4 			"/>
		</g>
		<g>
			<path fill="#DDEDEB" d="M28.9,35.2L26.7,39l-2-1.6l2.1-2.4C27.6,35,28.3,35.1,28.9,35.2z"/>
		</g>
		<g>
			<path fill="#DDEDEB" d="M20.5,35.2l2.2,3.8l2-1.6L22.6,35C21.8,35,21.1,35.1,20.5,35.2z"/>
		</g>
	</g>
</g>
</svg>
