<?xml version="1.0" encoding="utf-8"?>
<!-- Generator: Adobe Illustrator 18.0.0, SVG Export Plug-In . SVG Version: 6.00 Build 0)  -->
<!DOCTYPE svg PUBLIC "-//W3C//DTD SVG 1.1//EN" "http://www.w3.org/Graphics/SVG/1.1/DTD/svg11.dtd">
<svg version="1.1" id="Layer_1" xmlns="http://www.w3.org/2000/svg" xmlns:xlink="http://www.w3.org/1999/xlink" x="0px" y="0px"
	 viewBox="0 0 50 50" enable-background="new 0 0 50 50" xml:space="preserve">
<g>
	<g>
		<g>
			<line fill="none" x1="5.9" y1="26.7" x2="5.9" y2="22.3"/>
		</g>
		<g>
			<path fill="#FA4968" d="M42.6,1.5l-3.9,5.3H41v20c0,7.9-6.4,14.3-14.3,14.3v1.6h7.2c6-2.8,10.2-8.8,10.2-15.9l0.1-20h2.3
				L42.6,1.5z"/>
		</g>
		<g>
			<path fill="#F76861" d="M48.5,42.6l-5.3-3.9V41H23.3C15.4,41,9,34.6,9,26.7H5.9c0,9.7,7.8,17.5,17.4,17.5l19.9,0.1v2.3L48.5,42.6
				z"/>
		</g>
		<g>
			<path fill="#ABB734" d="M7.4,48.5l3.9-5.3H9.1v-20c0-7.9,6.4-14.3,14.3-14.3V5.8C13.8,5.8,6,13.6,6,23.3l-0.1,20H3.5L7.4,48.5z"
				/>
		</g>
		<g>
			<path fill="#FFB95C" d="M41,13.2v9.3C40.6,15,34.3,9,26.7,9H6.8v2.3l-5.3-4l5.3-3.9v2.3l19.9,0.1C32.6,5.8,37.8,8.7,41,13.2z"/>
		</g>
	</g>
	<g>
		<g>
			<path fill="#559AFF" d="M36.5,27.7c-0.3,1.3-0.8,2.5-1.5,3.6c-1.3-0.5-2.6-0.3-3.3,0.4c-0.8,0.8-0.9,2.1-0.4,3.4
				c-1.1,0.7-2.3,1.2-3.5,1.5c-0.6-1.3-1.6-2.1-2.7-2.1s-2.1,0.8-2.7,2.1c-1.3-0.3-2.5-0.8-3.5-1.5c0.5-1.3,0.3-2.6-0.4-3.4
				c-0.8-0.8-2.1-0.9-3.4-0.4c-0.7-1.1-1.2-2.3-1.5-3.6c1.3-0.6,2.1-1.6,2.1-2.7s-0.8-2.1-2.1-2.7c0.3-1.3,0.8-2.5,1.5-3.6
				c1.3,0.5,2.6,0.3,3.4-0.4c0.8-0.8,0.9-2.1,0.4-3.4c1.1-0.7,2.3-1.2,3.5-1.5c0.6,1.3,1.6,2.1,2.7,2.1s2.1-0.8,2.7-2.1
				c1.3,0.3,2.5,0.8,3.5,1.5c-0.5,1.3-0.3,2.6,0.4,3.4c0.8,0.8,2.1,0.9,3.4,0.4c0.7,1.1,1.2,2.3,1.5,3.6c-1.2,0.6-2.1,1.6-2.1,2.7
				C34.5,26.1,35.3,27.1,36.5,27.7z"/>
		</g>
		<g>
			<ellipse fill="#FFFFFF" cx="25" cy="25" rx="5.3" ry="5.3"/>
		</g>
	</g>
</g>
</svg>
