<?xml version="1.0" encoding="utf-8"?>
<!-- Generator: Adobe Illustrator 18.0.0, SVG Export Plug-In . SVG Version: 6.00 Build 0)  -->
<!DOCTYPE svg PUBLIC "-//W3C//DTD SVG 1.1//EN" "http://www.w3.org/Graphics/SVG/1.1/DTD/svg11.dtd">
<svg version="1.1" id="Layer_1" xmlns="http://www.w3.org/2000/svg" xmlns:xlink="http://www.w3.org/1999/xlink" x="0px" y="0px"
	 viewBox="0 0 50 50" enable-background="new 0 0 50 50" xml:space="preserve">
<g>
	<g>
		<g>
			<polygon fill="#ED2F58" points="33.8,20.3 29.8,23.6 25,20.9 20.2,23.6 16.2,20.3 25,1.5 			"/>
		</g>
		<g>
			<polygon fill="#FA4968" points="25,1.5 26.6,21.8 29.8,23.6 33.8,20.3 			"/>
		</g>
		<g>
			<polygon fill="#FA4968" points="25,1.5 23.4,21.8 20.2,23.6 16.2,20.3 			"/>
		</g>
	</g>
	<g>
		<polygon fill="#50C9C3" points="46.5,41.4 42.5,44.6 37.7,41.9 32.9,44.6 29,41.4 37.7,22.5 		"/>
	</g>
	<g>
		<polygon fill="#6CD8D5" points="37.7,22.5 39.3,42.8 42.5,44.6 46.5,41.4 		"/>
	</g>
	<g>
		<polygon fill="#6CD8D5" points="37.7,22.5 36.2,42.8 32.9,44.6 29,41.4 		"/>
	</g>
	<g>
		<g>
			<polygon fill="#9B9B1B" points="21,41.4 17.1,44.6 12.3,41.9 7.5,44.6 3.5,41.4 12.3,22.5 			"/>
		</g>
		<g>
			<polygon fill="#ABB734" points="12.3,22.5 13.8,42.8 17.1,44.6 21,41.4 			"/>
		</g>
		<g>
			<polygon fill="#ABB734" points="12.3,22.5 10.7,42.8 7.5,44.6 3.5,41.4 			"/>
		</g>
	</g>
	<g>
		<g>
			<line fill="none" x1="24" y1="25" x2="24" y2="26.6"/>
			<rect x="23.5" y="25" fill="#E5E5E5" width="1" height="1.7"/>
		</g>
		<g>
			<line fill="none" x1="26" y1="26.4" x2="26" y2="28"/>
			<rect x="25.5" y="26.4" fill="#E5E5E5" width="1" height="1.7"/>
		</g>
	</g>
	<g>
		<g>
			<line fill="none" x1="36.7" y1="45.4" x2="36.7" y2="47.1"/>
			<rect x="36.2" y="45.4" fill="#E5E5E5" width="1" height="1.7"/>
		</g>
		<g>
			<line fill="none" x1="38.7" y1="46.8" x2="38.7" y2="48.5"/>
			<rect x="38.2" y="46.8" fill="#E5E5E5" width="1" height="1.7"/>
		</g>
	</g>
	<g>
		<g>
			<line fill="none" x1="11.3" y1="45.4" x2="11.3" y2="47.1"/>
			<rect x="10.8" y="45.4" fill="#E5E5E5" width="1" height="1.7"/>
		</g>
		<g>
			<line fill="none" x1="13.3" y1="46.8" x2="13.3" y2="48.5"/>
			<rect x="12.8" y="46.8" fill="#E5E5E5" width="1" height="1.7"/>
		</g>
	</g>
</g>
</svg>
