<?xml version="1.0" encoding="utf-8"?>
<!-- Generator: Adobe Illustrator 18.0.0, SVG Export Plug-In . SVG Version: 6.00 Build 0)  -->
<!DOCTYPE svg PUBLIC "-//W3C//DTD SVG 1.1//EN" "http://www.w3.org/Graphics/SVG/1.1/DTD/svg11.dtd">
<svg version="1.1" id="Layer_1" xmlns="http://www.w3.org/2000/svg" xmlns:xlink="http://www.w3.org/1999/xlink" x="0px" y="0px"
	 viewBox="0 0 50 50" enable-background="new 0 0 50 50" xml:space="preserve">
<g>
	<g>
		<path fill="#FFCA8A" d="M34,25.9v22.8c-4.9-4-10.9-6.7-17.9-7.8v-7.1C23.2,32.5,29.1,29.9,34,25.9z"/>
	</g>
	<g>
		<path fill="#F9A846" d="M16.1,37.5v3.4c7.1,1.2,13,3.8,17.9,7.8V37.5H16.1z"/>
	</g>
	<g>
		<path fill="#FFB95C" d="M34,32.3v10c-4.9-1.8-10.9-2.9-17.9-3.4v-3.1C23.2,35.2,29.1,34,34,32.3z"/>
	</g>
	<g>
		<path fill="#E5E5E5" d="M34.9,33.7c-0.3,0-0.6,0.1-0.9,0.1v6.8c0.3,0.1,0.6,0.1,0.9,0.1c2,0,3.5-1.6,3.5-3.5S36.9,33.7,34.9,33.7z
			"/>
	</g>
	<g>
		<path fill="#CCCACA" d="M35.7,33.8c-0.2-0.1-0.5-0.1-0.8-0.1s-0.6,0.1-0.9,0.1v6.8c0.3,0.1,0.6,0.1,0.9,0.1c0.3,0,0.5,0,0.8-0.1
			V33.8z"/>
	</g>
	<g>
		<path fill="#E5E5E5" d="M16.1,33.6v7.3c0,1.3-1.1,2.4-2.4,2.4H7c-1.3,0-2.4-1.1-2.4-2.4v-7.3c0-1.3,1.1-2.4,2.4-2.4h6.7
			C15,31.2,16.1,32.3,16.1,33.6z"/>
	</g>
	<g>
		<rect x="1" y="34.7" fill="#FFB95C" width="3.6" height="5.2"/>
	</g>
	<g>
		<path fill="#FA4968" d="M49,26.6c0,3.6-5.3,6.8-5.3,6.8s-5.3-3.1-5.3-6.8c0-1.6,1.3-2.9,2.9-2.9c1,0,1.8,0.5,2.4,1.2
			c0.5-0.8,1.4-1.2,2.4-1.2C47.7,23.6,49,24.9,49,26.6z"/>
	</g>
	<g>
		<path fill="#6CD8D5" d="M45.7,10.4c0,5-4,9-9,9c-1.8,0-3.4-0.5-4.8-1.4l-3,0.2l0.2-3c-0.9-1.4-1.4-3.1-1.4-4.8c0-5,4-9,9-9
			C41.6,1.3,45.7,5.4,45.7,10.4z"/>
	</g>
	<g>
		<g>
			<path fill="#FFFFFF" d="M34.6,8.5v3.7c0,1,1.1,1.6,1.9,1.1l3.1-1.8c0.8-0.5,0.8-1.7,0-2.2l-3.1-1.8C35.6,7,34.6,7.6,34.6,8.5z"/>
		</g>
	</g>
	<g>
		<path fill="#ABB734" d="M24.1,13.4v8c0,1.6-1.3,2.8-2.8,2.8h-1.2v3.3l-4.3-3.3h-8c-1.5,0-2.8-1.3-2.8-2.8v-8
			c0-1.6,1.2-2.8,2.8-2.8h13.4C22.8,10.5,24.1,11.8,24.1,13.4z"/>
	</g>
	<g>
		<ellipse fill="#FFFFFF" cx="19.4" cy="17.7" rx="1.3" ry="1.4"/>
	</g>
	<g>
		<ellipse fill="#FFFFFF" cx="14.6" cy="17.7" rx="1.3" ry="1.4"/>
	</g>
	<g>
		<ellipse fill="#FFFFFF" cx="9.7" cy="17.7" rx="1.3" ry="1.4"/>
	</g>
</g>
</svg>
