<?xml version="1.0" encoding="utf-8"?>
<!-- Generator: Adobe Illustrator 18.0.0, SVG Export Plug-In . SVG Version: 6.00 Build 0)  -->
<!DOCTYPE svg PUBLIC "-//W3C//DTD SVG 1.1//EN" "http://www.w3.org/Graphics/SVG/1.1/DTD/svg11.dtd">
<svg version="1.1" id="Layer_1" xmlns="http://www.w3.org/2000/svg" xmlns:xlink="http://www.w3.org/1999/xlink" x="0px" y="0px"
	 viewBox="0 0 50 50" enable-background="new 0 0 50 50" xml:space="preserve">
<g>
	<g>
		<g>
			<g>
				<g>
					<g>
						<polygon fill="#6CD8D5" points="42.5,5 39.7,5 39.7,9.9 37.7,9.9 41.1,14.5 44.5,9.9 42.5,9.9 						"/>
					</g>
				</g>
			</g>
		</g>
		<g>
			<g>
				<g>
					<g>
						<polygon fill="#6CD8D5" points="12,5 9.2,5 9.2,9.9 7.2,9.9 10.6,14.5 14,9.9 12,9.9 						"/>
					</g>
				</g>
			</g>
		</g>
	</g>
	<g>
		<g>
			<g>
				<g>
					<path fill="#E5E5E5" d="M44.7,40.6c2.1,0,3.8-1.6,3.8-3.6l0,0c0-3.7-3.1-4.3-6.9-4.3c-3.8,0-6.9,0.6-6.9,4.3l0,0
						c0,2,1.8,3.6,3.8,3.6H44.7z"/>
				</g>
				<g>
					<path fill="#559AFF" d="M48.5,37L48.5,37c0,2-1.8,3.6-3.8,3.6h-6.1c-2.1,0-3.8-1.6-3.8-3.6l0,0c0-3.7,3.1-4.3,6.8-4.3
						c0.6,0,1.1,0,1.6,0c0.6,0,1.1,0.1,1.6,0.2C47.1,33.4,48.5,34.5,48.5,37z"/>
				</g>
				<g>
					<path fill="#D9BAA8" d="M40.4,29c0,0-0.3,3.7-0.3,4.1c0,0.9,0.7,1.5,1.6,1.5c0.9,0,1.6-0.7,1.6-1.5c0-0.4-0.3-4.1-0.3-4.1
						S40.4,29,40.4,29z"/>
				</g>
				<g>
					<path fill="#C9A28F" d="M46.9,27.4c-0.2,0.7-0.7,1.1-1.5,0.8c-0.8-0.2-1.6-1-1.4-1.7c0.2-0.7,1.6-1,2.4-0.8
						C47.2,26,47.1,26.7,46.9,27.4z"/>
				</g>
				<g>
					<path fill="#C9A28F" d="M36.4,27.4c0.2,0.7,0.7,1.1,1.5,0.8c0.8-0.2,1.6-1,1.4-1.7c-0.2-0.7-1.6-1-2.4-0.8
						C36.1,26,36.2,26.7,36.4,27.4z"/>
				</g>
				<g>
					<path fill="#E8CEC1" d="M45.7,25.3c0,2.8-1.1,6.4-4,6.4s-4-3.6-4-6.4s1.1-3.8,4-3.8C44.5,21.5,45.7,22.5,45.7,25.3z"/>
				</g>
				<g>
					<path fill="#894D47" d="M35.5,24.3c2.6-0.7,2.1-5.5,4.7-3.4C41.8,22.3,38.4,26.6,35.5,24.3z"/>
				</g>
				<g>
					<path fill="#894D47" d="M45.8,25.6c-1.9-2.9-7.2-0.3-5.8-4.3C40.9,18.7,47.2,21.1,45.8,25.6z"/>
				</g>
				<g>
					<polygon fill="#FA4968" points="41.1,34.6 40.4,38.5 41.6,39.4 42.8,38.5 42.1,34.6 					"/>
				</g>
				<g>
					<path fill="#DDEDEB" d="M44.9,32.9l-1.7,2.9l-1.6-1.2l1.6-1.9C43.9,32.8,44.4,32.8,44.9,32.9z"/>
				</g>
				<g>
					<path fill="#DDEDEB" d="M38.4,32.9l1.7,2.9l1.6-1.2L40,32.7C39.4,32.8,38.9,32.8,38.4,32.9z"/>
				</g>
			</g>
			<g>
				<g>
					<path fill="#E5E5E5" d="M11.4,40.6c2.1,0,3.8-1.6,3.8-3.6l0,0c0-3.7-3.1-4.3-6.9-4.3S1.5,33.3,1.5,37l0,0c0,2,1.8,3.6,3.8,3.6
						H11.4z"/>
				</g>
				<g>
					<path fill="#FFB95C" d="M15.2,37L15.2,37c0,2-1.8,3.6-3.8,3.6H5.3c-2.1,0-3.8-1.6-3.8-3.6l0,0c0-3.7,3.1-4.3,6.8-4.3
						c0.6,0,1.1,0,1.6,0c0.6,0,1.1,0.1,1.6,0.2C13.8,33.4,15.2,34.5,15.2,37z"/>
				</g>
				<g>
					<path fill="#D9BAA8" d="M7.1,29c0,0-0.3,3.7-0.3,4.1c0,0.9,0.7,1.5,1.6,1.5s1.6-0.7,1.6-1.5c0-0.4-0.3-4.1-0.3-4.1
						S7.1,29,7.1,29z"/>
				</g>
				<g>
					<path fill="#C9A28F" d="M13.6,27.4c-0.2,0.7-0.7,1.1-1.5,0.8c-0.8-0.2-1.6-1-1.4-1.7c0.2-0.7,1.6-1,2.4-0.8
						C13.9,26,13.8,26.7,13.6,27.4z"/>
				</g>
				<g>
					<path fill="#C9A28F" d="M3.1,27.4c0.2,0.7,0.7,1.1,1.5,0.8c0.8-0.2,1.6-1,1.4-1.7s-1.6-1-2.4-0.8S2.9,26.7,3.1,27.4z"/>
				</g>
				<g>
					<path fill="#E8CEC1" d="M12.4,25.3c0,2.8-1.1,6.4-4,6.4s-4-3.6-4-6.4s1.1-3.8,4-3.8S12.4,22.5,12.4,25.3z"/>
				</g>
				<g>
					<path fill="#894D47" d="M2.2,24.3c2.6-0.7,2.1-5.5,4.7-3.4C8.5,22.3,5.1,26.6,2.2,24.3z"/>
				</g>
				<g>
					<path fill="#894D47" d="M12.5,25.6c-1.9-2.9-7.2-0.3-5.8-4.3C7.6,18.7,13.9,21.1,12.5,25.6z"/>
				</g>
				<g>
					<polygon fill="#FA4968" points="7.8,34.6 7.1,38.5 8.3,39.4 9.5,38.5 8.8,34.6 					"/>
				</g>
				<g>
					<path fill="#DDEDEB" d="M11.6,32.9l-1.7,2.9l-1.6-1.2l1.6-1.9C10.6,32.8,11.1,32.8,11.6,32.9z"/>
				</g>
				<g>
					<path fill="#DDEDEB" d="M5.1,32.9l1.7,2.9l1.6-1.2l-1.6-1.9C6.1,32.8,5.6,32.8,5.1,32.9z"/>
				</g>
			</g>
		</g>
		<g>
			<g>
				<path fill="#E5E5E5" d="M28.6,47.7c2.6,0,4.9-2,4.9-4.6l0,0c0-4.7-3.9-5.5-8.8-5.5s-8.8,0.8-8.8,5.5l0,0c0,2.6,2.3,4.6,4.9,4.6
					H28.6z"/>
			</g>
			<g>
				<path fill="#6CD8D5" d="M33.5,43.1L33.5,43.1c0,2.6-2.3,4.6-4.9,4.6h-7.8c-2.6,0-4.9-2-4.9-4.6l0,0c0-4.7,3.9-5.5,8.8-5.5
					c0.7,0,1.4,0,2.1,0.1s1.5,0.1,2.1,0.3C31.6,38.5,33.5,39.9,33.5,43.1z"/>
			</g>
			<g>
				<path fill="#D9BAA8" d="M23.1,32.9c0,0-0.4,4.8-0.4,5.2c0,1.1,0.9,2,2,2s2-0.9,2-2c0-0.5-0.4-5.2-0.4-5.2H23.1z"/>
			</g>
			<g>
				<path fill="#C9A28F" d="M31.4,30.9c-0.3,0.9-0.9,1.4-1.9,1.1s-2-1.3-1.7-2.2c0.3-0.9,2.1-1.3,3.1-1C31.9,29.1,31.7,30,31.4,30.9
					z"/>
			</g>
			<g>
				<path fill="#C9A28F" d="M18,30.9c0.3,0.9,0.9,1.4,1.9,1.1s2-1.3,1.7-2.2c-0.3-0.9-2.1-1.3-3.1-1C17.5,29.1,17.7,30,18,30.9z"/>
			</g>
			<g>
				<path fill="#E8CEC1" d="M29.9,28.2c0,3.6-1.5,8.2-5.2,8.2s-5.2-4.6-5.2-8.2s1.5-4.9,5.2-4.9C28.4,23.3,29.9,24.6,29.9,28.2z"/>
			</g>
			<g>
				<path fill="#894D47" d="M16.8,26.9c3.3-0.9,2.7-7.1,6-4.4C24.9,24.3,20.5,29.8,16.8,26.9z"/>
			</g>
			<g>
				<path fill="#894D47" d="M30,28.5c-2.5-3.7-9.3-0.4-7.5-5.5C23.7,19.7,31.8,22.8,30,28.5z"/>
			</g>
			<g>
				<polygon fill="#FA4968" points="24,40.1 23.1,45.1 24.6,46.2 26.2,45.1 25.2,40.1 				"/>
			</g>
			<g>
				<path fill="#DDEDEB" d="M28.9,38l-2.2,3.8l-2-1.6l2.1-2.4C27.6,37.7,28.3,37.8,28.9,38z"/>
			</g>
			<g>
				<path fill="#DDEDEB" d="M20.5,38l2.2,3.8l2-1.6l-2.1-2.4C21.8,37.7,21.1,37.8,20.5,38z"/>
			</g>
		</g>
	</g>
	<g>
		<g>
			<ellipse fill="#FECD04" cx="25.9" cy="9.8" rx="7.5" ry="7.5"/>
		</g>
		<g>
			<g>
				<path fill="#425060" d="M27.9,13.9h-4c-1,0-1.8-0.8-1.8-1.8h1c0,0.4,0.4,0.8,0.8,0.8h4c0.4,0,0.8-0.4,0.8-0.8v-1
					c0-0.4-0.4-0.8-0.8-0.8h-4c-1,0-1.8-0.8-1.8-1.8v-1c0-1,0.8-1.8,1.8-1.8h4c1,0,1.8,0.8,1.8,1.8h-1c0-0.4-0.4-0.8-0.8-0.8h-4
					c-0.4,0-0.8,0.4-0.8,0.8v1c0,0.4,0.4,0.8,0.8,0.8h4c1,0,1.8,0.8,1.8,1.8v1C29.7,13,28.9,13.9,27.9,13.9z"/>
			</g>
			<g>
				<rect x="25.3" y="5.2" fill="#425060" width="1" height="9"/>
			</g>
		</g>
	</g>
</g>
</svg>
