<?xml version="1.0" encoding="utf-8"?>
<!-- Generator: Adobe Illustrator 18.0.0, SVG Export Plug-In . SVG Version: 6.00 Build 0)  -->
<!DOCTYPE svg PUBLIC "-//W3C//DTD SVG 1.1//EN" "http://www.w3.org/Graphics/SVG/1.1/DTD/svg11.dtd">
<svg version="1.1" id="Layer_1" xmlns="http://www.w3.org/2000/svg" xmlns:xlink="http://www.w3.org/1999/xlink" x="0px" y="0px"
	 viewBox="0 0 50 50" enable-background="new 0 0 50 50" xml:space="preserve">
<g>
	<g>
		<path fill="#E5E5E5" d="M36.9,48.5H11.4C10.1,48.5,9,47.4,9,46V11.2c0-1.4,1.1-2.5,2.5-2.5H37c1.4,0,2.5,1.1,2.5,2.5V46
			C39.4,47.4,38.3,48.5,36.9,48.5z"/>
	</g>
	<g>
		<path fill="#FECD04" d="M33.4,9.9L33.4,9.9c0,0.9-0.7,1.7-1.7,1.7H16.6c-0.9,0-1.7-0.8-1.7-1.7l0,0c0-2.2,1.7-3.9,3.9-3.9h2.6V4.2
			c0-1.5,1.2-2.7,2.7-2.7l0,0c1.5,0,2.7,1.2,2.7,2.7V6h2.6C31.7,6,33.4,7.7,33.4,9.9z"/>
	</g>
	<g>
		<circle fill="#FFFFFF" cx="24.2" cy="4.2" r="1"/>
	</g>
	<g opacity="0.2">
		<path fill="#FFFFFF" d="M15.7,19.4l-0.9-0.3c0.4-1.2,1.3-2.1,2.5-2.5l0.3,0.9C16.7,17.9,16,18.6,15.7,19.4z"/>
	</g>
	<g opacity="0.2">
		<path fill="#FFFFFF" d="M19.5,17.5c-0.3-0.1-0.6-0.1-0.8-0.1v-1c0.3,0,0.7,0,1.1,0.2L19.5,17.5z"/>
	</g>
	<g>
		<path fill="#616B77" d="M35.3,32.4c0-0.3-0.1-0.7-0.1-1h-3.9c0,0.3-0.1,0.6-0.1,1c-0.3,2.8-1.6,5.5-3.2,7.8
			c-0.8,1.1-1.3,2.4-1.3,3.9c0,0.7,0.1,1.3,0.3,2h12.5c0.2-0.6,0.3-1.3,0.3-2c0-1.5-0.5-2.8-1.3-3.9C36.8,37.8,35.6,35.2,35.3,32.4z
			"/>
	</g>
	<g opacity="0.2">
		<path fill="#FFFFFF" d="M29.1,44h-1c0-1.1,0.3-2.1,1-2.9c0.8-1.1,1.4-2.2,2-3.3l0.9,0.4c-0.6,1.2-1.3,2.3-2.1,3.5
			C29.4,42.3,29.2,43.1,29.1,44z"/>
	</g>
	<g opacity="0.2">
		<path fill="#FFFFFF" d="M32.7,36.6l-0.9-0.4c0.1-0.2,0.1-0.4,0.2-0.6l0.9,0.3C32.8,36.2,32.7,36.4,32.7,36.6z"/>
	</g>
	<g>
		<path fill="#616B77" d="M39.8,46H26.7c-0.7,0-1.3,0.6-1.3,1.3l0,0c0,0.7,0.6,1.3,1.3,1.3h13.1c0.7,0,1.3-0.6,1.3-1.3l0,0
			C41,46.5,40.5,46,39.8,46z"/>
	</g>
	<g>
		<line fill="none" x1="30.8" y1="31.4" x2="35.7" y2="31.4"/>
	</g>
	<g>
		<path fill="#616B77" d="M34.2,27.9h-2c-1.2,0-1.9,1.3-1.4,2.3l0.6,1.2h3.4l0.6-1.2C36.1,29.2,35.4,27.9,34.2,27.9z"/>
	</g>
	<g>
		<path fill="#616B77" d="M34.4,27.9c0.3-0.3,0.4-0.7,0.4-1.1c0-0.9-0.7-1.6-1.6-1.6c-0.9,0-1.6,0.7-1.6,1.6c0,0.4,0.2,0.8,0.4,1.1
			H34.4z"/>
	</g>
	<g opacity="0.3">
		<g>
			<rect x="20.6" y="9.3" fill="#FFFFFF" width="2" height="1"/>
		</g>
		<g>
			<rect x="17.9" y="9.3" fill="#FFFFFF" width="0.8" height="1"/>
		</g>
	</g>
	<g>
		<g>
			<g>
				<circle fill="#FA4968" cx="14.3" cy="19.2" r="1.6"/>
			</g>
			<g>
				<circle fill="#FFB95C" cx="28.2" cy="23.8" r="1.6"/>
			</g>
			<g>
				<circle fill="#8CF2ED" cx="19.3" cy="30.6" r="1.5"/>
			</g>
		</g>
		<g>
			<g>
				
					<rect x="13.4" y="24.6" transform="matrix(-0.7071 -0.7071 0.7071 -0.7071 5.3307 54.3135)" fill="#CCCACA" width="1" height="2.9"/>
			</g>
			<g>
				
					<rect x="12.5" y="25.6" transform="matrix(-0.7071 -0.7071 0.7071 -0.7071 5.2807 54.4342)" fill="#CCCACA" width="2.9" height="1"/>
			</g>
		</g>
		<g>
			<g>
				
					<rect x="22.7" y="34" transform="matrix(-0.7071 -0.7072 0.7072 -0.7071 14.4536 76.9085)" fill="#CCCACA" width="1" height="2.9"/>
			</g>
			<g>
				
					<rect x="21.7" y="34.9" transform="matrix(-0.7071 -0.7071 0.7071 -0.7071 14.5113 76.785)" fill="#CCCACA" width="2.9" height="1"/>
			</g>
		</g>
		<g>
			<g>
				
					<rect x="27.5" y="15.6" transform="matrix(-0.7071 -0.7071 0.7071 -0.7071 35.6998 48.9103)" fill="#CCCACA" width="1" height="2.9"/>
			</g>
			<g>
				
					<rect x="26.6" y="16.6" transform="matrix(-0.7071 -0.7071 0.7071 -0.7071 35.819 48.96)" fill="#CCCACA" width="2.9" height="1"/>
			</g>
		</g>
		<g>
			
				<rect x="23.2" y="23.1" transform="matrix(-0.6094 -0.7929 0.7929 -0.6094 16.6161 62.5523)" fill="#425060" width="1" height="8.2"/>
		</g>
		<g>
			
				<rect x="18.6" y="14.1" transform="matrix(-0.332 -0.9433 0.9433 -0.332 8.8449 41.3533)" fill="#425060" width="1" height="6.9"/>
		</g>
		<g>
			
				<rect x="15.5" y="21" transform="matrix(-0.951 -0.3092 0.3092 -0.951 34.7972 48.5218)" fill="#425060" width="11.5" height="1"/>
		</g>
		<g>
			<polygon fill="#425060" points="21.4,18.5 20.6,17.9 21.5,16.7 20,16.3 20.3,15.3 23.1,16.2 			"/>
		</g>
	</g>
</g>
</svg>
