<?xml version="1.0" encoding="utf-8"?>
<!-- Generator: Adobe Illustrator 18.0.0, SVG Export Plug-In . SVG Version: 6.00 Build 0)  -->
<!DOCTYPE svg PUBLIC "-//W3C//DTD SVG 1.1//EN" "http://www.w3.org/Graphics/SVG/1.1/DTD/svg11.dtd">
<svg version="1.1" id="Layer_1" xmlns="http://www.w3.org/2000/svg" xmlns:xlink="http://www.w3.org/1999/xlink" x="0px" y="0px"
	 viewBox="0 0 50 50" enable-background="new 0 0 50 50" xml:space="preserve">
<g>
	<g>
		<g>
			<path fill="#E8CEC1" d="M20,44.1c-0.7,1.4-0.3,3.1,0.3,4.6c0,0.1,0.1,0.2,0.1,0.3h21.4c-7-7.2,0.7-21.3,2.2-27.1
				c2.1-8.3-1.3-13.6-5.2-16.8C34.6,1.7,29,0.4,23.5,1.3c-15,2.6-14.8,14-14.2,18.2c0.1,1-0.1,2.1-0.6,3l-3.2,5.2
				c-0.6,1-0.2,2.2,0.8,2.7l1.8,0.9V34l1.9,1.1L8.3,37l1.9,1.4L9.9,41c-0.2,1.6,1,3,2.6,3.1c3.2,0.3,8.4,0.3,12.7-1.6"/>
		</g>
	</g>
	<g>
		<g>
			<g>
				<path fill="#FF6989" d="M38.6,23.3c0.3,0.6,0.5,1.2,0.5,1.9c0,2.2-1.8,3.9-3.9,3.9l0,0v0.1c0,1.2-0.5,2.3-1.3,3
					c-0.8,0.8-1.8,1.3-3,1.3c-2.4,0-4.3-1.9-4.3-4.3c0,2.4-1.9,4.3-4.3,4.3c-1.2,0-2.3-0.5-3-1.3c-0.8-0.8-1.3-1.9-1.3-3v-0.1l0,0
					c-2.2,0-3.9-1.8-3.9-3.9c0-0.7,0.2-1.3,0.5-1.9l0.1-0.1c-1.2-0.8-2-2.2-2-3.8c0-2.5,2.1-4.6,4.6-4.6c-0.3-0.4-0.4-0.9-0.4-1.5
					c0-1.6,1.3-2.8,2.8-2.8l0,0v-0.3c0-2,1.7-3.6,3.8-3.4c1.8,0.2,3.1,1.8,3.1,3.6c0-1.8,1.3-3.4,3.1-3.6c2.1-0.2,3.8,1.4,3.8,3.4
					v0.3l0,0c1.5,0,2.8,1.3,2.8,2.8c0,0.5-0.2,1-0.4,1.5c2.5,0,4.6,2.1,4.6,4.6C40.5,22,38.6,23.3,38.6,23.3z"/>
			</g>
		</g>
	</g>
	<g>
		<g>
			<g>
				<path fill="#ABB734" d="M40.5,19.4c0-2.5-2.1-4.6-4.6-4.6c0.3-0.4,0.4-0.9,0.4-1.5c0-1.6-1.3-2.8-2.8-2.8l0,0v-0.3
					c0-2-1.7-3.6-3.8-3.4c-1.4,0.1-2.4,1.1-2.9,2.3v21.4c0.6,1.7,2.2,3,4.1,3c1.2,0,2.3-0.5,3-1.3c0.8-0.8,1.3-1.9,1.3-3v-0.1l0,0
					c2.2,0,3.9-1.8,3.9-3.9c0-0.7-0.2-1.3-0.5-1.9C38.6,23.3,40.5,22,40.5,19.4z"/>
			</g>
		</g>
	</g>
	<g>
		<g>
			<g>
				<path fill="#E8CEC1" d="M31.5,22.5c-0.8,0-1.5-0.7-1.5-1.5s0.7-1.5,1.5-1.5S33,20.2,33,21S32.3,22.5,31.5,22.5z M31.5,20.4
					c-0.3,0-0.5,0.2-0.5,0.5s0.2,0.5,0.5,0.5s0.5-0.2,0.5-0.5S31.7,20.4,31.5,20.4z"/>
			</g>
			<g>
				<path fill="#E8CEC1" d="M32.4,17.7c-0.8,0-1.5-0.7-1.5-1.5c0-0.8,0.7-1.5,1.5-1.5s1.5,0.7,1.5,1.5C33.9,17,33.3,17.7,32.4,17.7z
					 M32.4,15.7c-0.3,0-0.5,0.2-0.5,0.5c0,0.3,0.2,0.5,0.5,0.5s0.5-0.2,0.5-0.5C32.9,15.9,32.7,15.7,32.4,15.7z"/>
			</g>
			<g>
				<path fill="#E8CEC1" d="M34.9,25.5c-0.4,0-0.8-0.2-1.1-0.4c-0.6-0.6-0.6-1.5,0-2.1s1.5-0.6,2.1,0c0.3,0.3,0.4,0.7,0.4,1.1
					s-0.2,0.8-0.4,1.1C35.7,25.4,35.3,25.5,34.9,25.5L34.9,25.5z M34.9,23.5c-0.1,0-0.3,0-0.4,0.1c-0.2,0.2-0.2,0.5,0,0.7
					c0.1,0.1,0.2,0.1,0.4,0.1l0,0c0.1,0,0.3-0.1,0.4-0.1c0.1-0.1,0.1-0.2,0.1-0.4c0-0.1-0.1-0.3-0.1-0.4
					C35.2,23.6,35,23.5,34.9,23.5z"/>
			</g>
			<g>
				<path fill="#E8CEC1" d="M31.5,29.1c-0.4,0-0.8-0.1-1.1-0.4l0,0c-0.6-0.6-0.6-1.5,0-2.1c0.3-0.3,0.7-0.4,1.1-0.4l0,0
					c0.4,0,0.8,0.2,1.1,0.4c0.3,0.3,0.4,0.7,0.4,1.1s-0.2,0.8-0.4,1.1C32.2,29,31.8,29.1,31.5,29.1z M31.1,28c0.2,0.2,0.5,0.2,0.7,0
					c0.1-0.1,0.1-0.2,0.1-0.4c0-0.1-0.1-0.3-0.1-0.4c-0.1-0.1-0.2-0.1-0.4-0.1l0,0c-0.1,0-0.3,0.1-0.4,0.1
					C30.9,27.5,30.9,27.8,31.1,28z"/>
			</g>
			<g>
				<path fill="#E8CEC1" d="M30.9,34c-2.7,0-4.8-2.2-4.8-4.8V10.4c0-2.1,1.6-3.9,3.6-4.1c1.1-0.1,2.2,0.3,3,1C33.5,8,34,9.1,34,10.2
					h-1c0-0.8-0.4-1.6-1-2.2c-0.6-0.6-1.4-0.8-2.3-0.8C28.2,7.3,27,8.7,27,10.3v18.8c0,2.1,1.7,3.8,3.8,3.8s3.8-1.7,3.8-3.8h1
					C35.7,31.9,33.5,34,30.9,34z"/>
			</g>
			<g>
				<path fill="#E8CEC1" d="M33.5,16.7v-1c1.3,0,2.3-1,2.3-2.3s-1-2.3-2.3-2.3c-0.5,0-1.1,0.2-1.5,0.5l-0.6-0.8
					c0.6-0.5,1.3-0.7,2.1-0.7c1.8,0,3.3,1.5,3.3,3.3C36.9,15.2,35.4,16.7,33.5,16.7z"/>
			</g>
			<g>
				<path fill="#E8CEC1" d="M35.9,24.5v-1c2.3,0,4.1-1.8,4.1-4.1s-1.8-4.1-4.1-4.1v-1c2.8,0,5.1,2.3,5.1,5.1S38.7,24.5,35.9,24.5z"
					/>
			</g>
			<g>
				<path fill="#E8CEC1" d="M35.2,29.6c-1.2,0-2.3-0.5-3.1-1.3l0.7-0.7c0.6,0.6,1.5,1,2.4,1c1.9,0,3.4-1.5,3.4-3.4
					c0-0.6-0.1-1.1-0.4-1.6l0.9-0.5c0.4,0.7,0.6,1.4,0.6,2.1C39.6,27.7,37.6,29.6,35.2,29.6z"/>
			</g>
			<g>
				<path fill="#E8CEC1" d="M27.1,28.3h-1c0-1.5,1.2-2.7,2.7-2.7v1C27.8,26.7,27.1,27.4,27.1,28.3z"/>
			</g>
			<g>
				<path fill="#E8CEC1" d="M30.5,21.4c-2.4,0-4.4-2-4.4-4.4h1c0,1.9,1.5,3.4,3.4,3.4V21.4z"/>
			</g>
		</g>
		<g>
			<g>
				<path fill="#E8CEC1" d="M21.7,22.5c-0.8,0-1.5-0.7-1.5-1.5s0.7-1.5,1.5-1.5s1.5,0.7,1.5,1.5S22.5,22.5,21.7,22.5z M21.7,20.4
					c-0.3,0-0.5,0.2-0.5,0.5s0.2,0.5,0.5,0.5s0.5-0.2,0.5-0.5S22,20.4,21.7,20.4z"/>
			</g>
			<g>
				<path fill="#E8CEC1" d="M20.7,17.7c-0.8,0-1.5-0.7-1.5-1.5c0-0.8,0.7-1.5,1.5-1.5s1.5,0.7,1.5,1.5C22.2,17,21.6,17.7,20.7,17.7z
					 M20.7,15.7c-0.3,0-0.5,0.2-0.5,0.5c0,0.3,0.2,0.5,0.5,0.5s0.5-0.2,0.5-0.5C21.2,15.9,21,15.7,20.7,15.7z"/>
			</g>
			<g>
				<path fill="#E8CEC1" d="M18.2,25.5c-0.4,0-0.8-0.2-1.1-0.4c-0.6-0.6-0.6-1.5,0-2.1s1.5-0.6,2.1,0c0.3,0.3,0.4,0.7,0.4,1.1
					s-0.2,0.8-0.4,1.1C19,25.4,18.7,25.5,18.2,25.5L18.2,25.5z M18.2,23.5c-0.1,0-0.3,0-0.4,0.1c-0.2,0.2-0.2,0.5,0,0.7
					c0.1,0.1,0.2,0.1,0.4,0.1l0,0c0.1,0,0.3-0.1,0.4-0.1l0,0c0.1-0.1,0.1-0.2,0.1-0.4c0-0.1-0.1-0.3-0.1-0.4
					C18.5,23.6,18.4,23.5,18.2,23.5z"/>
			</g>
			<g>
				<path fill="#E8CEC1" d="M21.7,29.1c-0.4,0-0.8-0.1-1.1-0.4c-0.6-0.6-0.6-1.5,0-2.1c0.3-0.3,0.7-0.4,1.1-0.4l0,0
					c0.4,0,0.8,0.2,1.1,0.4c0.3,0.3,0.4,0.7,0.4,1.1s-0.2,0.8-0.4,1.1C22.5,29,22.1,29.1,21.7,29.1z M21.7,27.1
					c-0.1,0-0.3,0.1-0.4,0.1c-0.2,0.2-0.2,0.5,0,0.7s0.5,0.2,0.7,0c0.1-0.1,0.1-0.2,0.1-0.4c0-0.1-0.1-0.3-0.1-0.4
					C22,27.2,21.8,27.1,21.7,27.1L21.7,27.1z"/>
			</g>
			<g>
				<path fill="#E8CEC1" d="M22.3,34c-2.7,0-4.8-2.2-4.8-4.8h1c0,2.1,1.7,3.8,3.8,3.8s3.8-1.7,3.8-3.8V10.4c0-1.6-1.2-2.9-2.7-3.1
					c-0.8-0.1-1.7,0.2-2.3,0.8c-0.6,0.6-1,1.4-1,2.2h-1c0-1.1,0.5-2.2,1.3-2.9c0.8-0.8,1.9-1.1,3-1c2,0.2,3.6,2,3.6,4.1v18.8
					C27.1,31.9,24.9,34,22.3,34z"/>
			</g>
			<g>
				<path fill="#E8CEC1" d="M19.6,16.7c-1.8,0-3.3-1.5-3.3-3.3s1.5-3.3,3.3-3.3c0.8,0,1.5,0.3,2.1,0.7l-0.6,0.8
					c-0.4-0.3-0.9-0.5-1.5-0.5c-1.3,0-2.3,1-2.3,2.3s1,2.3,2.3,2.3V16.7z"/>
			</g>
			<g>
				<path fill="#E8CEC1" d="M17.2,24.5c-2.8,0-5.1-2.3-5.1-5.1s2.3-5.1,5.1-5.1v1c-2.3,0-4.1,1.8-4.1,4.1s1.8,4.1,4.1,4.1V24.5z"/>
			</g>
			<g>
				<path fill="#E8CEC1" d="M18,29.6c-2.4,0-4.4-2-4.4-4.4c0-0.7,0.2-1.5,0.5-2.1l0.9,0.5c-0.3,0.5-0.4,1.1-0.4,1.6
					c0,1.9,1.5,3.4,3.4,3.4c0.9,0,1.8-0.4,2.4-1l0.7,0.7C20.2,29.2,19.1,29.6,18,29.6z"/>
			</g>
			<g>
				<path fill="#E8CEC1" d="M27.1,28.3h-1c0-0.9-0.8-1.7-1.7-1.7v-1C25.9,25.7,27.1,26.9,27.1,28.3z"/>
			</g>
			<g>
				<path fill="#E8CEC1" d="M22.7,21.4v-1c1.9,0,3.4-1.5,3.4-3.4h1C27.1,19.5,25.1,21.4,22.7,21.4z"/>
			</g>
		</g>
	</g>
</g>
</svg>
