<?xml version="1.0" encoding="utf-8"?>
<!-- Generator: Adobe Illustrator 18.0.0, SVG Export Plug-In . SVG Version: 6.00 Build 0)  -->
<!DOCTYPE svg PUBLIC "-//W3C//DTD SVG 1.1//EN" "http://www.w3.org/Graphics/SVG/1.1/DTD/svg11.dtd">
<svg version="1.1" id="Layer_1" xmlns="http://www.w3.org/2000/svg" xmlns:xlink="http://www.w3.org/1999/xlink" x="0px" y="0px"
	 viewBox="0 0 50 50" enable-background="new 0 0 50 50" xml:space="preserve">
<g>
	<g>
		<rect x="1" y="32.3" fill="#FF8C83" width="8.2" height="13.8"/>
	</g>
	<g opacity="0.3">
		<polygon fill="#FFFFFF" points="3.6,38.2 2.5,38.2 2.5,33.9 7.1,33.9 7.1,34.9 3.6,34.9 		"/>
	</g>
	<g>
		<rect x="14.3" y="23.8" fill="#ABB734" width="8.2" height="22.3"/>
	</g>
	<g opacity="0.3">
		<polygon fill="#FFFFFF" points="16.8,30.4 15.8,30.4 15.8,25.3 20.4,25.3 20.4,26.3 16.8,26.3 		"/>
	</g>
	<g>
		<rect x="27.6" y="28.7" fill="#FFB95C" width="8.2" height="17.4"/>
	</g>
	<g opacity="0.3">
		<polygon fill="#FFFFFF" points="30.1,35.1 29.1,35.1 29.1,30.2 33.7,30.2 33.7,31.2 30.1,31.2 		"/>
	</g>
	<g>
		<rect x="40.8" y="18.2" fill="#FA4968" width="8.2" height="27.9"/>
	</g>
	<g opacity="0.3">
		<polygon fill="#FFFFFF" points="43.4,24.5 42.4,24.5 42.4,19.7 47,19.7 47,20.8 43.4,20.8 		"/>
	</g>
	<g>
		<g>
			<g>
				<path fill="#E5E5E5" d="M34.9,16c-0.5,0-1-0.2-1.3-0.7c-0.5-0.7-0.3-1.7,0.4-2.1l6.5-4.3c0.7-0.5,1.7-0.3,2.1,0.4
					c0.5,0.7,0.3,1.7-0.4,2.1l-6.5,4.3C35.5,15.9,35.2,16,34.9,16z"/>
			</g>
		</g>
		<g>
			<g>
				<path fill="#E5E5E5" d="M8.4,20.9c-0.5,0-1-0.3-1.3-0.7c-0.4-0.7-0.2-1.7,0.5-2.1l6.6-4c0.7-0.4,1.7-0.2,2.1,0.5
					c0.4,0.7,0.2,1.7-0.5,2.1l-6.6,4C9,20.8,8.7,20.9,8.4,20.9z"/>
			</g>
		</g>
		<g>
			<g>
				<path fill="#E5E5E5" d="M27.8,17.2c-0.1,0-0.2,0-0.4,0l-5.7-1.4c-0.8-0.2-1.3-1-1.1-1.9c0.2-0.8,1-1.3,1.9-1.1l5.7,1.4
					c0.8,0.2,1.3,1,1.1,1.9C29.1,16.7,28.5,17.2,27.8,17.2z"/>
			</g>
		</g>
	</g>
	<g>
		<ellipse fill="#FA4968" cx="44.8" cy="7.9" rx="3.9" ry="4"/>
	</g>
	<g opacity="0.3">
		<path fill="#FFFFFF" d="M43.4,7.9h-1c0-1.4,1.1-2.5,2.4-2.5v1C44,6.5,43.4,7.1,43.4,7.9z"/>
	</g>
	<g>
		<ellipse fill="#FFB95C" cx="31.6" cy="16.6" rx="3.9" ry="4"/>
	</g>
	<g opacity="0.3">
		<path fill="#FFFFFF" d="M30.3,16.6h-1c0-1.4,1.1-2.5,2.4-2.5v1C30.9,15.1,30.3,15.8,30.3,16.6z"/>
	</g>
	<g>
		<ellipse fill="#ABB734" cx="18.4" cy="13.3" rx="3.9" ry="4"/>
	</g>
	<g opacity="0.3">
		<path fill="#FFFFFF" d="M17,13.3h-1c0-1.4,1.1-2.5,2.4-2.5v1C17.6,11.8,17,12.5,17,13.3z"/>
	</g>
	<g>
		<ellipse fill="#FF8C83" cx="5.1" cy="21.4" rx="3.9" ry="4"/>
	</g>
	<g opacity="0.3">
		<path fill="#FFFFFF" d="M3.7,21.4h-1c0-1.4,1.1-2.5,2.4-2.5v1C4.3,19.9,3.7,20.6,3.7,21.4z"/>
	</g>
</g>
</svg>
