<?xml version="1.0" encoding="utf-8"?>
<!-- Generator: Adobe Illustrator 18.0.0, SVG Export Plug-In . SVG Version: 6.00 Build 0)  -->
<!DOCTYPE svg PUBLIC "-//W3C//DTD SVG 1.1//EN" "http://www.w3.org/Graphics/SVG/1.1/DTD/svg11.dtd">
<svg version="1.1" id="Layer_1" xmlns="http://www.w3.org/2000/svg" xmlns:xlink="http://www.w3.org/1999/xlink" x="0px" y="0px"
	 viewBox="0 0 50 50" enable-background="new 0 0 50 50" xml:space="preserve">
<g>
	<g>
		<path fill="#E5E5E5" d="M29,38.5c2.7,0,5-2.1,5-4.7l0,0c0-4.9-4-5.7-8.9-5.7s-8.9,0.8-8.9,5.7l0,0c0,2.6,2.3,4.7,5,4.7H29z"/>
	</g>
	<g>
		<path fill="#616B77" d="M33.9,33.7L33.9,33.7c0,2.7-2.3,4.8-5,4.8H21c-2.7,0-4.9-2.1-5-4.7l0,0c0-4.9,4-5.7,8.9-5.7
			c0.7,0,1.5,0,2.1,0.1c0.8,0.1,1.5,0.1,2.1,0.3C32,28.9,33.9,30.4,33.9,33.7z"/>
	</g>
	<g>
		<path fill="#D9BAA8" d="M23.4,23.2c0,0-0.4,4.9-0.4,5.4c0,1.1,0.9,2,2.1,2s2.1-0.9,2.1-2c0-0.5-0.4-5.4-0.4-5.4H23.4z"/>
	</g>
	<g>
		<path fill="#C9A28F" d="M31.8,21.1c-0.3,0.9-0.9,1.4-2,1.1c-1-0.3-2.1-1.3-1.8-2.3c0.3-0.9,2.1-1.3,3.2-1
			C32.3,19.2,32.1,20.1,31.8,21.1z"/>
	</g>
	<g>
		<path fill="#C9A28F" d="M18.2,21.1c0.3,0.9,0.9,1.4,2,1.1c1-0.3,2.1-1.3,1.8-2.3c-0.3-0.9-2.1-1.3-3.2-1
			C17.7,19.2,17.9,20.1,18.2,21.1z"/>
	</g>
	<g>
		<path fill="#E8CEC1" d="M30.2,18.3c0,3.7-1.5,8.4-5.2,8.4s-5.2-4.7-5.2-8.4s1.5-5.1,5.2-5.1S30.2,14.5,30.2,18.3z"/>
	</g>
	<g>
		<path fill="#894D47" d="M17,16.9c3.4-1,2.8-7.3,6.1-4.5C25.2,14.2,20.7,19.9,17,16.9z"/>
	</g>
	<g>
		<path fill="#894D47" d="M30.4,18.6c-2.5-3.8-9.4-0.4-7.6-5.7C24,9.5,32.3,12.7,30.4,18.6z"/>
	</g>
	<g>
		<polygon fill="#FA4968" points="24.3,30.6 23.3,35.8 24.9,36.9 26.5,35.8 25.6,30.6 		"/>
	</g>
	<g>
		<path fill="#DDEDEB" d="M29.3,28.4l-2.2,3.9L25,30.6l2.1-2.5C27.9,28.2,28.6,28.2,29.3,28.4z"/>
	</g>
	<g>
		<path fill="#DDEDEB" d="M20.7,28.4l2.2,3.9l2.1-1.6l-2.1-2.5C22.1,28.2,21.4,28.2,20.7,28.4z"/>
	</g>
</g>
<g>
	<g>
		<path fill="#559AFF" d="M44.1,25c0-2.3,1.6-4.3,4.2-5.5c-0.6-2.6-1.6-5-3-7.2c-2.7,0.9-5.2,0.7-6.8-0.9s-1.8-4.2-0.9-6.8
			c-2.2-1.4-4.6-2.4-7.2-3c-1.2,2.5-3.2,4.2-5.5,4.2s-4.2-1.7-5.5-4.2c-2.6,0.6-5,1.6-7.2,3c0.9,2.7,0.7,5.3-0.9,6.9
			s-4.2,1.9-6.8,0.9c-1.4,2.2-2.4,4.6-2.9,7.2c2.5,1.2,4.2,3.3,4.2,5.5c0,2.3-1.6,4.3-4.2,5.5c0.6,2.6,1.6,5,3,7.2
			c2.7-0.9,5.2-0.7,6.8,0.9c1.6,1.6,1.8,4.2,0.9,6.9c2.2,1.4,4.6,2.4,7.2,3c1.2-2.5,3.2-4.2,5.5-4.2s4.2,1.7,5.5,4.2
			c2.6-0.6,5-1.6,7.2-3c-0.9-2.6-0.7-5.2,0.9-6.8c1.6-1.6,4.1-1.8,6.8-0.9c1.3-2.2,2.4-4.6,3-7.2C45.8,29.3,44.1,27.3,44.1,25z
			 M25,39.6c-8.1,0-14.6-6.6-14.6-14.6c0-8.1,6.6-14.6,14.6-14.6S39.7,16.9,39.7,25S33.1,39.6,25,39.6z"/>
	</g>
</g>
</svg>
