<?xml version="1.0" encoding="utf-8"?>
<!-- Generator: Adobe Illustrator 18.0.0, SVG Export Plug-In . SVG Version: 6.00 Build 0)  -->
<!DOCTYPE svg PUBLIC "-//W3C//DTD SVG 1.1//EN" "http://www.w3.org/Graphics/SVG/1.1/DTD/svg11.dtd">
<svg version="1.1" id="Layer_1" xmlns="http://www.w3.org/2000/svg" xmlns:xlink="http://www.w3.org/1999/xlink" x="0px" y="0px"
	 viewBox="0 0 50 50" enable-background="new 0 0 50 50" xml:space="preserve">
<g>
	<g>
		<path fill="#F4F4F4" d="M46.2,39.9H3.8c-1.3,0-2.3-1-2.3-2.3V6.1c0-1.3,1-2.3,2.3-2.3h42.3c1.3,0,2.3,1,2.3,2.3v31.5
			C48.5,38.9,47.5,39.9,46.2,39.9z"/>
	</g>
	<g>
		<g>
			<circle fill="#FA4968" cx="5.5" cy="8" r="1.4"/>
		</g>
		<g>
			<circle fill="#FFB95C" cx="10.1" cy="8" r="1.4"/>
		</g>
		<g>
			<circle fill="#559AFF" cx="14.7" cy="8" r="1.4"/>
		</g>
		<g>
			<path fill="#CCCACA" d="M45.9,8c0,0.8-0.6,1.4-1.4,1.4H20.7c-0.8,0-1.4-0.6-1.4-1.4s0.6-1.4,1.4-1.4h23.8
				C45.3,6.6,45.9,7.2,45.9,8z"/>
		</g>
	</g>
	<g>
		<g>
			<g>
				<polygon fill="#FA4968" points="23.8,46.3 26.2,46.3 26.2,42.7 29.6,43.5 25,36.7 20.4,43.5 23.8,42.7 				"/>
			</g>
		</g>
	</g>
	<g>
		<path fill="#425060" d="M28.7,21.3h-7.4v-2.9c0-0.9,0.8-1.7,1.7-1.7h4c0.9,0,1.7,0.8,1.7,1.7C28.7,18.4,28.7,21.3,28.7,21.3z
			 M22.3,20.3h5.5v-1.9c0-0.4-0.3-0.7-0.7-0.7h-4c-0.4,0-0.7,0.3-0.7,0.7L22.3,20.3L22.3,20.3z"/>
	</g>
	<g>
		<path fill="#9B9B1B" d="M31.9,20.3H18.1c-1.3,0-2.4,1.1-2.4,2.4v8.1c0,1.3,1.1,2.4,2.4,2.4h13.8c1.3,0,2.4-1.1,2.4-2.4v-8.1
			C34.3,21.4,33.2,20.3,31.9,20.3z"/>
	</g>
	<g>
		<path fill="#C6CC4A" d="M31.9,20.3H18.1c-1.3,0-2.4,1.1-2.4,2.4V24c0,1.3,1.1,2.4,2.4,2.4h13.8c1.3,0,2.4-1.1,2.4-2.4v-1.2
			C34.3,21.4,33.2,20.3,31.9,20.3z"/>
	</g>
	<g>
		<path fill="#FFFFFF" d="M25.8,24.7h-1.7c-0.4,0-0.8,0.4-0.8,0.8v2.2c0,0.4,0.4,0.8,0.8,0.8h1.7c0.4,0,0.8-0.4,0.8-0.8v-2.2
			C26.6,25,26.3,24.7,25.8,24.7z"/>
	</g>
	<g>
		<g>
			<polygon fill="#CCCACA" points="40.9,20.5 39.9,20.5 39.9,16.8 36.2,16.8 36.2,15.8 40.9,15.8 			"/>
		</g>
		<g>
			<polygon fill="#CCCACA" points="10.1,20.5 9.1,20.5 9.1,15.8 13.8,15.8 13.8,16.8 10.1,16.8 			"/>
		</g>
		<g>
			<polygon fill="#CCCACA" points="40.9,35.8 36.2,35.8 36.2,34.8 39.9,34.8 39.9,31.1 40.9,31.1 			"/>
		</g>
		<g>
			<polygon fill="#CCCACA" points="13.8,35.8 9.1,35.8 9.1,31.1 10.1,31.1 10.1,34.8 13.8,34.8 			"/>
		</g>
	</g>
</g>
</svg>
