<?xml version="1.0" encoding="utf-8"?>
<!-- Generator: Adobe Illustrator 18.0.0, SVG Export Plug-In . SVG Version: 6.00 Build 0)  -->
<!DOCTYPE svg PUBLIC "-//W3C//DTD SVG 1.1//EN" "http://www.w3.org/Graphics/SVG/1.1/DTD/svg11.dtd">
<svg version="1.1" id="Layer_1" xmlns="http://www.w3.org/2000/svg" xmlns:xlink="http://www.w3.org/1999/xlink" x="0px" y="0px"
	 viewBox="0 0 50 50" enable-background="new 0 0 50 50" xml:space="preserve">
<g>
	<g>
		<path fill="#8CF2ED" d="M49.5,13.2c0,0.5,0,1-0.1,1.5c-0.3,1.5-1.7,2.6-3.2,2.6h-6.9c-1.6,0-2.9-1.1-3.2-2.6
			c-0.1-0.5-0.1-1-0.1-1.5c0-2.9,1.7-3.9,4.2-4.2l2.6,2.3L45.3,9C47.7,9.3,49.5,10.3,49.5,13.2z"/>
	</g>
	<g opacity="0.6">
		<path fill="#FFFFFF" d="M46.1,15.6h-6.9c-0.8,0-1.4-0.5-1.6-1.3c-0.1-0.4-0.1-0.8-0.1-1.2h1c0,0.3,0,0.7,0.1,1
			c0,0.2,0.3,0.4,0.6,0.4h6.9c0.3,0,0.5-0.2,0.6-0.4c0.1-0.4,0.1-0.7,0.1-1h1c0,0.4,0,0.8-0.1,1.2C47.6,15.1,46.9,15.6,46.1,15.6z"
			/>
	</g>
	<g>
		<ellipse fill="#8CF2ED" cx="42.6" cy="4.8" rx="3.3" ry="3.3"/>
	</g>
	<g>
		<ellipse fill="#FA4968" cx="9.3" cy="4.8" rx="3.3" ry="3.3"/>
	</g>
	<g>
		<path fill="#FA4968" d="M16.1,13.2c0,0.5,0,1-0.1,1.5c-0.3,1.5-1.7,2.6-3.2,2.6h-7c-1.6,0-2.9-1.1-3.2-2.6c-0.1-0.5-0.1-1-0.1-1.5
			c0-2.9,1.7-3.9,4.2-4.2l2.6,2.3L11.9,9C14.4,9.3,16.1,10.3,16.1,13.2z"/>
	</g>
	<g opacity="0.6">
		<path fill="#FFFFFF" d="M12.8,15.6h-7c-0.8,0-1.4-0.5-1.6-1.3c-0.1-0.4-0.1-0.8-0.1-1.2h1c0,0.3,0,0.7,0.1,1
			c0,0.2,0.3,0.4,0.6,0.4h6.9c0.3,0,0.5-0.2,0.6-0.4c0.1-0.4,0.1-0.7,0.1-1h1c0,0.4,0,0.8-0.1,1.2C14.2,15.1,13.5,15.6,12.8,15.6z"
			/>
	</g>
	<g>
		<path fill="#D9BAA8" d="M49.5,44.3c0,0.5,0,1-0.1,1.5c-0.3,1.5-1.7,2.6-3.2,2.6h-6.9c-1.6,0-2.9-1.1-3.2-2.6
			c-0.1-0.5-0.1-1-0.1-1.5c0-2.9,1.7-3.9,4.2-4.2l2.6,2.3l2.6-2.3C47.7,40.5,49.5,41.5,49.5,44.3z"/>
	</g>
	<g opacity="0.6">
		<path fill="#FFFFFF" d="M46.1,46.8h-6.9c-0.8,0-1.4-0.5-1.6-1.3c-0.1-0.4-0.1-0.8-0.1-1.2h1c0,0.3,0,0.7,0.1,1
			c0,0.2,0.3,0.4,0.6,0.4h6.9c0.3,0,0.5-0.2,0.6-0.4c0.1-0.4,0.1-0.7,0.1-1h1c0,0.4,0,0.8-0.1,1.2C47.6,46.3,46.9,46.8,46.1,46.8z"
			/>
	</g>
	<g>
		<ellipse fill="#D9BAA8" cx="42.6" cy="36" rx="3.3" ry="3.3"/>
	</g>
	<g>
		<ellipse fill="#ABB734" cx="9.3" cy="36" rx="3.3" ry="3.3"/>
	</g>
	<g>
		<path fill="#ABB734" d="M16.1,44.3c0,0.5,0,1-0.1,1.5c-0.3,1.5-1.7,2.6-3.2,2.6h-7c-1.6,0-2.9-1.1-3.2-2.6c-0.1-0.5-0.1-1-0.1-1.5
			c0-2.9,1.7-3.9,4.2-4.2l2.6,2.3l2.6-2.3C14.4,40.5,16.1,41.5,16.1,44.3z"/>
	</g>
	<g opacity="0.6">
		<path fill="#FFFFFF" d="M12.8,46.8h-7c-0.8,0-1.4-0.5-1.6-1.3c-0.1-0.4-0.1-0.8-0.1-1.2h1c0,0.3,0,0.7,0.1,1
			c0,0.2,0.3,0.4,0.6,0.4h6.9c0.3,0,0.5-0.2,0.6-0.4c0.1-0.4,0.1-0.7,0.1-1h1c0,0.4,0,0.8-0.1,1.2C14.2,46.3,13.5,46.8,12.8,46.8z"
			/>
	</g>
	<g>
		<g>
			<circle fill="#559AFF" cx="26.4" cy="29" r="12.1"/>
		</g>
		<g>
			<circle fill="#E8CEC1" cx="26.4" cy="29" r="9.4"/>
		</g>
		<g>
			<rect x="25.9" y="19.5" fill="#425060" width="1" height="1.1"/>
		</g>
		<g>
			<rect x="25.9" y="37.3" fill="#425060" width="1" height="1.1"/>
		</g>
		<g>
			
				<rect x="21.4" y="20.8" transform="matrix(-0.4998 -0.8662 0.8662 -0.4998 14.5179 50.8911)" fill="#425060" width="1.1" height="1"/>
		</g>
		<g>
			
				<rect x="30.3" y="36.2" transform="matrix(-0.5001 -0.866 0.866 -0.5001 14.4347 81.7462)" fill="#425060" width="1.1" height="1"/>
		</g>
		<g>
			
				<rect x="18.1" y="24" transform="matrix(-0.8662 -0.4998 0.4998 -0.8662 22.5513 55.0458)" fill="#425060" width="1.1" height="1"/>
		</g>
		<g>
			
				<rect x="33.6" y="32.9" transform="matrix(-0.8662 -0.4997 0.4997 -0.8662 47.0161 79.456)" fill="#425060" width="1.1" height="1"/>
		</g>
		<g>
			<rect x="16.9" y="28.5" fill="#425060" width="1.1" height="1"/>
		</g>
		<g>
			<rect x="34.7" y="28.5" fill="#425060" width="1.1" height="1"/>
		</g>
		<g>
			
				<rect x="18.1" y="32.8" transform="matrix(-0.5004 -0.8658 0.8658 -0.5004 -1.0218 66.1923)" fill="#425060" width="1" height="1.1"/>
		</g>
		<g>
			
				<rect x="33.5" y="24" transform="matrix(-0.5003 -0.8658 0.8658 -0.5003 29.8355 66.2842)" fill="#425060" width="1" height="1.1"/>
		</g>
		<g>
			
				<rect x="21.4" y="36.1" transform="matrix(-0.8661 -0.4999 0.4999 -0.8661 22.5665 79.3445)" fill="#425060" width="1" height="1.1"/>
		</g>
		<g>
			
				<rect x="30.3" y="20.7" transform="matrix(-0.8661 -0.4999 0.4999 -0.8661 46.8496 55.0227)" fill="#425060" width="1" height="1.1"/>
		</g>
		<g>
			<circle fill="#FF6989" cx="26.4" cy="29" r="1.4"/>
		</g>
		<g>
			<rect x="25.9" y="24" fill="#425060" width="1" height="3.5"/>
		</g>
		<g>
			
				<rect x="26.9" y="30.7" transform="matrix(-0.7071 -0.7071 0.7071 -0.7071 26.8325 73.5608)" fill="#425060" width="3.5" height="1"/>
		</g>
	</g>
</g>
</svg>
