<?xml version="1.0" encoding="utf-8"?>
<!-- Generator: Adobe Illustrator 18.0.0, SVG Export Plug-In . SVG Version: 6.00 Build 0)  -->
<!DOCTYPE svg PUBLIC "-//W3C//DTD SVG 1.1//EN" "http://www.w3.org/Graphics/SVG/1.1/DTD/svg11.dtd">
<svg version="1.1" id="Layer_1" xmlns="http://www.w3.org/2000/svg" xmlns:xlink="http://www.w3.org/1999/xlink" x="0px" y="0px"
	 viewBox="0 0 50 50" enable-background="new 0 0 50 50" xml:space="preserve">
<g>
	<g>
		<g>
			<circle fill="#FA4968" cx="25" cy="4.1" r="3.1"/>
		</g>
		<g>
			<circle fill="#ABB734" cx="25" cy="45.9" r="3.1"/>
		</g>
	</g>
	<g>
		<g>
			<circle fill="#6CD8D5" cx="45.9" cy="25" r="3.1"/>
		</g>
		<g>
			<circle fill="#FECD04" cx="4.1" cy="25" r="3.1"/>
		</g>
	</g>
	<g>
		<g>
			<circle fill="#FFB95C" cx="39.8" cy="10.2" r="3.1"/>
		</g>
		<g>
			<circle fill="#6E9583" cx="10.2" cy="39.8" r="3.1"/>
		</g>
	</g>
	<g>
		<g>
			<circle fill="#FF8C83" cx="39.8" cy="39.8" r="3.1"/>
		</g>
		<g>
			<circle fill="#E8CEC1" cx="10.2" cy="10.2" r="3.1"/>
		</g>
	</g>
	<g>
		<g>
			<g>
				<rect x="24.5" y="7.2" fill="#425060" width="1" height="3.7"/>
			</g>
			<g>
				<rect x="24.5" y="39" fill="#425060" width="1" height="3.7"/>
			</g>
		</g>
		<g>
			<g>
				<rect x="39" y="24.5" fill="#425060" width="3.7" height="1"/>
			</g>
			<g>
				<rect x="7.2" y="24.5" fill="#425060" width="3.7" height="1"/>
			</g>
		</g>
	</g>
	<g>
		<g>
			<g>
				
					<rect x="35.7" y="11.9" transform="matrix(-0.7071 -0.7071 0.7071 -0.7071 52.1242 49.0297)" fill="#425060" width="1" height="3.7"/>
			</g>
			<g>
				
					<rect x="13.3" y="34.4" transform="matrix(-0.7072 -0.7071 0.7071 -0.7072 -2.1257 71.6838)" fill="#425060" width="1" height="3.7"/>
			</g>
		</g>
		<g>
			<g>
				
					<rect x="34.4" y="35.7" transform="matrix(-0.7071 -0.7071 0.7071 -0.7071 36.3246 87.4787)" fill="#425060" width="3.7" height="1"/>
			</g>
			<g>
				
					<rect x="11.9" y="13.3" transform="matrix(-0.7072 -0.707 0.707 -0.7072 13.6767 33.2299)" fill="#425060" width="3.7" height="1"/>
			</g>
		</g>
	</g>
	<g>
		<g>
			<path fill="#E5E5E5" d="M35.8,27.8c-0.3,1.2-0.8,2.3-1.4,3.4c-1.2-0.4-2.4-0.3-3.1,0.4c-0.7,0.8-0.9,2-0.4,3.2
				c-1,0.6-2.1,1.1-3.3,1.4c-0.6-1.2-1.6-2-2.6-2s-2,0.8-2.5,1.9c-1.2-0.3-2.3-0.8-3.3-1.4c0.4-1.2,0.3-2.4-0.4-3.2
				c-0.7-0.7-1.9-0.9-3.2-0.4c-0.6-1-1.1-2.2-1.4-3.4c1.2-0.6,1.9-1.5,1.9-2.6s-0.8-2-1.9-2.6c0.3-1.2,0.7-2.3,1.4-3.4
				c1.2,0.4,2.4,0.3,3.2-0.4c0.7-0.8,0.9-2,0.4-3.2c1-0.6,2.1-1.1,3.3-1.4C23.1,15.3,24,16,25,16s2-0.8,2.5-1.9
				c1.2,0.3,2.3,0.8,3.3,1.4c-0.4,1.2-0.3,2.4,0.4,3.2c0.7,0.7,1.9,0.9,3.2,0.4c0.6,1,1.1,2.2,1.4,3.4c-1.2,0.6-1.9,1.5-1.9,2.6
				C33.9,26.3,34.7,27.2,35.8,27.8z"/>
		</g>
		<g>
			<circle fill="#FFFFFF" cx="25" cy="25.2" r="5.7"/>
		</g>
	</g>
</g>
</svg>
