<?xml version="1.0" encoding="utf-8"?>
<!-- Generator: Adobe Illustrator 18.0.0, SVG Export Plug-In . SVG Version: 6.00 Build 0)  -->
<!DOCTYPE svg PUBLIC "-//W3C//DTD SVG 1.1//EN" "http://www.w3.org/Graphics/SVG/1.1/DTD/svg11.dtd">
<svg version="1.1" id="Layer_1" xmlns="http://www.w3.org/2000/svg" xmlns:xlink="http://www.w3.org/1999/xlink" x="0px" y="0px"
	 viewBox="0 0 50 50" enable-background="new 0 0 50 50" xml:space="preserve">
<g>
	<g>
		<g>
			<path fill="#6CD8D5" d="M48.4,27c0,0-4-0.1-7.3-2.5c-2.7,1.6-6,2.5-9.6,2.5c-8.9,0-16.2-5.7-16.2-12.8S22.6,1.5,31.6,1.5
				s16.2,5.7,16.2,12.8c0,2.4-0.8,4.6-2.3,6.5C46,22.8,46.9,25,48.4,27z"/>
		</g>
		<g>
			<g>
				<ellipse fill="#FFFFFF" cx="23" cy="14.3" rx="2.9" ry="2.9"/>
			</g>
			<g>
				<ellipse fill="#FFFFFF" cx="31.6" cy="14.3" rx="2.9" ry="2.9"/>
			</g>
			<g>
				<ellipse fill="#FFFFFF" cx="40.2" cy="14.3" rx="2.9" ry="2.9"/>
			</g>
		</g>
	</g>
	<g>
		<g>
			<path fill="#FECD04" d="M3.6,48.5c0,0,4-0.1,7.3-2.5c2.7,1.6,6,2.5,9.6,2.5c8.9,0,16.2-5.7,16.2-12.8s-7.2-12.8-16.2-12.8
				S4.2,28.7,4.2,35.7c0,2.4,0.8,4.6,2.3,6.5C6,44.3,5.1,46.5,3.6,48.5z"/>
		</g>
		<g>
			<g>
				<ellipse fill="#FFFFFF" cx="29" cy="35.7" rx="2.9" ry="2.9"/>
			</g>
			<g>
				<ellipse fill="#FFFFFF" cx="20.4" cy="35.7" rx="2.9" ry="2.9"/>
			</g>
			<g>
				<ellipse fill="#FFFFFF" cx="11.8" cy="35.7" rx="2.9" ry="2.9"/>
			</g>
		</g>
	</g>
	<g>
		<path fill="#FF6989" d="M49.1,34.3h-2.4v4.3c0,1.5-0.6,2.9-1.6,3.9s-2.3,1.6-3.8,1.6h-4.5c1.5,0,2.9-0.6,3.8-1.6
			c1-1,1.6-2.3,1.6-3.9v-4.3h-2.4l4.6-5.3L49.1,34.3z"/>
	</g>
	<g>
		<path fill="#559AFF" d="M2.9,15.7h2.4v-4.3c0-1.5,0.6-2.9,1.6-3.9S9.2,6,10.7,6h4.5c-1.5,0-2.9,0.6-3.8,1.6s-1.6,2.3-1.6,3.9v4.3
			h2.4L7.5,21L2.9,15.7z"/>
	</g>
</g>
</svg>
