<?xml version="1.0" encoding="utf-8"?>
<!-- Generator: Adobe Illustrator 18.0.0, SVG Export Plug-In . SVG Version: 6.00 Build 0)  -->
<!DOCTYPE svg PUBLIC "-//W3C//DTD SVG 1.1//EN" "http://www.w3.org/Graphics/SVG/1.1/DTD/svg11.dtd">
<svg version="1.1" id="Layer_1" xmlns="http://www.w3.org/2000/svg" xmlns:xlink="http://www.w3.org/1999/xlink" x="0px" y="0px"
	 viewBox="0 0 50 50" enable-background="new 0 0 50 50" xml:space="preserve">
<g>
	<g>
		<g>
			<path fill="#F4F4F4" d="M45.5,39.1h-41c-1.6,0-3-1.3-3-3V9.3c0-1.6,1.3-3,3-3h41c1.6,0,3,1.3,3,3v26.8
				C48.5,37.7,47.2,39.1,45.5,39.1z"/>
		</g>
	</g>
	<g>
		<path fill="#FA4968" d="M44,35.5h-7.8c-0.9,0-1.6-0.7-1.6-1.6v-4.5c0-0.9,0.7-1.6,1.6-1.6H44c0.9,0,1.6,0.7,1.6,1.6V34
			C45.6,34.8,44.9,35.5,44,35.5z"/>
	</g>
	<g>
		<path fill="#9B9B1B" d="M45.6,29.3v4.8c0,0.8-0.6,1.4-1.4,1.4h-8.1c-0.8,0-1.4-0.6-1.4-1.4v-4.8c0-0.8,0.6-1.4,1.4-1.4h8.1
			C45,27.9,45.6,28.6,45.6,29.3z"/>
	</g>
	<g>
		<path fill="#425060" d="M42.5,28.9h-4.8V27c0-0.7,0.5-1.2,1.2-1.2h2.4c0.7,0,1.2,0.5,1.2,1.2C42.5,27,42.5,28.9,42.5,28.9z
			 M38.7,27.9h2.8V27c0-0.1-0.1-0.2-0.2-0.2h-2.4c-0.1,0-0.2,0.1-0.2,0.2C38.7,27,38.7,27.9,38.7,27.9z"/>
	</g>
	<g>
		<path fill="#C6CC4A" d="M45.6,29.3V30c0,0.8-0.6,1.4-1.4,1.4h-8.1c-0.8,0-1.4-0.6-1.4-1.4v-0.7c0-0.8,0.6-1.4,1.4-1.4h8.1
			C45,27.9,45.6,28.6,45.6,29.3z"/>
	</g>
	<g>
		<path fill="#FFFFFF" d="M40.6,32.7h-1c-0.3,0-0.5-0.2-0.5-0.5v-1.3c0-0.3,0.2-0.5,0.5-0.5h1c0.3,0,0.5,0.2,0.5,0.5v1.3
			C41.1,32.5,40.9,32.7,40.6,32.7z"/>
	</g>
	<g>
		<g>
			<g>
				<polygon fill="#FA4968" points="16.7,15 19.3,27.4 22.1,22.4 20.6,15 				"/>
			</g>
			<g>
				<polygon fill="#ED2F58" points="16.7,15 19.3,27.4 22.1,22.4 20.6,15 				"/>
			</g>
			<g>
				<polygon fill="#FA4968" points="25.9,22.6 23.2,27.4 19.3,27.4 25,17.4 				"/>
			</g>
			<g>
				<polygon fill="#FA4968" points="25.9,22.6 23.2,27.4 19.3,27.4 25,17.4 				"/>
			</g>
			<g>
				<polygon fill="#FA4968" points="25,17.4 28.9,17.4 30.7,27.3 32.4,26.7 29.9,34.6 25.4,29.1 27,28.6 				"/>
			</g>
			<g>
				<polygon fill="#FF6989" points="25,17.4 28.9,17.4 30.7,27.3 32.4,26.7 29.9,34.6 25.4,29.1 27,28.6 				"/>
			</g>
		</g>
		<g>
			<g>
				<ellipse fill="#FECD04" cx="28.2" cy="16" rx="5.1" ry="5.1"/>
			</g>
			<g>
				<g>
					<g>
						<path fill="#425060" d="M29.5,16.5H27c-0.7,0-1.3-0.6-1.3-1.3v-0.8c0-0.7,0.6-1.3,1.3-1.3h2.5c0.7,0,1.3,0.6,1.3,1.3h-1
							c0-0.2-0.1-0.3-0.3-0.3H27c-0.2,0-0.3,0.1-0.3,0.3v0.8c0,0.2,0.1,0.3,0.3,0.3h2.5V16.5z"/>
					</g>
					<g>
						<path fill="#425060" d="M29.5,18.9H27c-0.7,0-1.3-0.6-1.3-1.3h1c0,0.2,0.1,0.3,0.3,0.3h2.5c0.2,0,0.3-0.1,0.3-0.3v-0.8
							c0-0.2-0.1-0.3-0.3-0.3H27v-1h2.5c0.7,0,1.3,0.6,1.3,1.3v0.8C30.8,18.3,30.2,18.9,29.5,18.9z"/>
					</g>
				</g>
				<g>
					<rect x="27.7" y="12.3" fill="#425060" width="1" height="7.3"/>
				</g>
			</g>
		</g>
	</g>
	<g>
		<polygon fill="#6EB0FF" points="17,31.4 13.6,36.5 10.1,31.4 12.2,31.4 12.2,27.6 15,27.6 15,31.4 		"/>
	</g>
	<g>
		<polygon fill="#6CD8D5" points="42.9,16.7 39.5,21.8 36,16.7 38.1,16.7 38.1,12.8 40.9,12.8 40.9,16.7 		"/>
	</g>
	<g>
		<polygon fill="#C6CC4A" points="11.2,16.8 8.3,21.1 5.4,16.8 7.1,16.8 7.1,13.6 9.4,13.6 9.4,16.8 		"/>
	</g>
	<g>
		<polygon fill="#D9BAA8" points="36.9,46.7 34.8,39.1 31,39.1 33,46.7 		"/>
	</g>
	<g>
		<polygon fill="#D9BAA8" points="17,46.7 19,39.1 15.2,39.1 13.1,46.7 		"/>
	</g>
	<g>
		<rect x="22.7" y="3.3" fill="#D9BAA8" width="4.6" height="3.1"/>
	</g>
</g>
</svg>
