<?xml version="1.0" encoding="utf-8"?>
<!-- Generator: Adobe Illustrator 18.0.0, SVG Export Plug-In . SVG Version: 6.00 Build 0)  -->
<!DOCTYPE svg PUBLIC "-//W3C//DTD SVG 1.1//EN" "http://www.w3.org/Graphics/SVG/1.1/DTD/svg11.dtd">
<svg version="1.1" id="Layer_1" xmlns="http://www.w3.org/2000/svg" xmlns:xlink="http://www.w3.org/1999/xlink" x="0px" y="0px"
	 viewBox="0 0 50 50" enable-background="new 0 0 50 50" xml:space="preserve">
<g>
	<g>
		<path fill="#6E9583" d="M48.5,43.8c0,0.5-0.1,1-0.1,1.6c-0.3,1.6-1.7,2.8-3.4,2.8h-7.3c-1.6,0-3.1-1.2-3.4-2.8
			c-0.1-0.5-0.1-1.1-0.1-1.6c0-3,1.8-4.1,4.4-4.4l2.8,2.4l2.8-2.4C46.7,39.8,48.5,40.8,48.5,43.8z"/>
	</g>
	<g opacity="0.3">
		<path fill="#FFFFFF" d="M45,46.4h-7.3c-0.8,0-1.5-0.6-1.6-1.3C36,44.6,36,44.2,36,43.8h1c0,0.3,0,0.7,0.1,1.1
			c0,0.3,0.3,0.5,0.6,0.5H45c0.3,0,0.6-0.2,0.6-0.5c0.1-0.4,0.1-0.8,0.1-1.1h1c0,0.4,0,0.8-0.1,1.3C46.5,45.8,45.8,46.4,45,46.4z"/>
	</g>
	<g>
		<ellipse fill="#6E9583" cx="41.3" cy="35" rx="3.4" ry="3.5"/>
	</g>
	<g>
		<path fill="#D9BAA8" d="M32.2,43.8c0,0.5-0.1,1-0.1,1.6c-0.3,1.6-1.7,2.8-3.4,2.8h-7.3c-1.6,0-3.1-1.2-3.4-2.8
			c-0.1-0.5-0.1-1.1-0.1-1.6c0-3,1.8-4.1,4.4-4.4l2.8,2.4l2.8-2.4C30.4,39.8,32.2,40.8,32.2,43.8z"/>
	</g>
	<g opacity="0.3">
		<path fill="#FFFFFF" d="M28.7,46.4h-7.3c-0.8,0-1.5-0.6-1.6-1.3c-0.1-0.4-0.1-0.9-0.1-1.3h1c0,0.3,0,0.7,0.1,1.1
			c0,0.3,0.3,0.5,0.6,0.5h7.3c0.3,0,0.6-0.2,0.6-0.5c0.1-0.4,0.1-0.8,0.1-1.1h1c0,0.4,0,0.8-0.1,1.3C30.1,45.8,29.5,46.4,28.7,46.4z
			"/>
	</g>
	<g>
		<ellipse fill="#D9BAA8" cx="25" cy="35" rx="3.4" ry="3.5"/>
	</g>
	<g>
		<ellipse fill="#ABB734" cx="8.7" cy="35" rx="3.4" ry="3.5"/>
	</g>
	<g>
		<path fill="#ABB734" d="M15.9,43.8c0,0.5-0.1,1-0.1,1.6c-0.3,1.6-1.7,2.8-3.4,2.8H5c-1.6,0-3.1-1.2-3.4-2.8
			c-0.1-0.5-0.1-1.1-0.1-1.6c0-3,1.8-4.1,4.4-4.4l2.8,2.4l2.8-2.4C14.1,39.8,15.9,40.8,15.9,43.8z"/>
	</g>
	<g opacity="0.3">
		<path fill="#FFFFFF" d="M12.3,46.4H5c-0.8,0-1.5-0.6-1.6-1.3c-0.1-0.4-0.1-0.9-0.1-1.3h1c0,0.3,0,0.7,0.1,1.1
			c0,0.3,0.3,0.5,0.6,0.5h7.3c0.3,0,0.6-0.2,0.6-0.5c0.1-0.4,0.1-0.8,0.1-1.1h1c0,0.4,0,0.8-0.1,1.3C13.8,45.8,13.1,46.4,12.3,46.4z
			"/>
	</g>
	<g>
		<ellipse fill="#559AFF" cx="25" cy="15.9" rx="13.6" ry="13.6"/>
	</g>
	<g>
		<path fill="#425060" d="M25,29.6c-3.8,0-6.8-6-6.8-13.6s3-13.6,6.8-13.6s6.8,6,6.8,13.6S28.8,29.6,25,29.6z M25,3.3
			c-3.1,0-5.8,5.8-5.8,12.6s2.7,12.6,5.8,12.6s5.8-5.8,5.8-12.6S28.1,3.3,25,3.3z"/>
	</g>
	<g>
		<rect x="24.5" y="2.8" fill="#425060" width="1" height="26.3"/>
	</g>
	<g>
		<path fill="#425060" d="M25,22.8c-7.6,0-13.5-3-13.5-6.8S17.4,9.2,25,9.2s13.5,3,13.5,6.8S32.6,22.8,25,22.8z M25,10.1
			c-6.8,0-12.5,2.7-12.5,5.8c0,3.2,5.7,5.8,12.5,5.8s12.5-2.7,12.5-5.8S31.8,10.1,25,10.1z"/>
	</g>
	<g>
		<rect x="12" y="15.4" fill="#425060" width="26.1" height="1"/>
	</g>
</g>
</svg>
