<?xml version="1.0" encoding="utf-8"?>
<!-- Generator: Adobe Illustrator 18.0.0, SVG Export Plug-In . SVG Version: 6.00 Build 0)  -->
<!DOCTYPE svg PUBLIC "-//W3C//DTD SVG 1.1//EN" "http://www.w3.org/Graphics/SVG/1.1/DTD/svg11.dtd">
<svg version="1.1" id="Layer_1" xmlns="http://www.w3.org/2000/svg" xmlns:xlink="http://www.w3.org/1999/xlink" x="0px" y="0px"
	 viewBox="0 0 50 50" enable-background="new 0 0 50 50" xml:space="preserve">
<g>
	<g>
		<g>
			<path fill="#E5E5E5" d="M30.4,38.3c3.6,0,6.7-2.9,6.7-6.5c0,0,0,0,0-0.1c0-6.6-5.4-7.7-12.1-7.7c-6.6,0-12,1.1-12,7.8
				c0,0,0,0,0,0.1c0,3.6,3.1,6.5,6.7,6.5h10.7V38.3z"/>
		</g>
		<g>
			<path fill="#F4F4F4" d="M20.6,24.9c-0.3,4.5,1.5,9,4.4,13.4c2.7-4,4.3-8.3,4.4-13.4H20.6z"/>
		</g>
		<g>
			<path fill="#D9BAA8" d="M22.8,17.4c0,0-0.6,6.7-0.6,7.4c0,1.5,1.3,2.8,2.8,2.8s2.8-1.2,2.8-2.8c0-0.6-0.6-7.4-0.6-7.4H22.8z"/>
		</g>
		<g>
			<g>
				<path fill="#C9A28F" d="M33.5,14.5c-0.4,1.3-1.3,1.9-2.7,1.5c-1.4-0.4-2.8-1.8-2.4-3.1s2.9-1.8,4.3-1.4
					C34.1,12,33.9,13.3,33.5,14.5z"/>
			</g>
			<g>
				<path fill="#C9A28F" d="M16.6,14.5c0.4,1.3,1.3,1.9,2.7,1.5c1.4-0.4,2.8-1.8,2.4-3.1s-2.9-1.8-4.3-1.4
					C16,12,16.2,13.3,16.6,14.5z"/>
			</g>
		</g>
		<g>
			<path fill="#E8CEC1" d="M32.1,10.7c0,5.1-2,11.5-7.1,11.5s-7-6.4-7-11.5s2-6.9,7.1-6.9S32.1,5.6,32.1,10.7z"/>
		</g>
		<g>
			<path fill="#FA4968" d="M14.3,8.9c4.6-1.3,3.7-10,8.2-6.1C25.4,5.2,19.3,13,14.3,8.9z"/>
		</g>
		<g opacity="0.3">
			<path fill="#FFFFFF" d="M18,8.8l-0.2-1c0.7-0.1,1.4-0.5,2-1.1l0.7,0.7C19.8,8.1,18.9,8.6,18,8.8z"/>
		</g>
		<g>
			<path fill="#FA4968" d="M32.4,11.2C29,5.9,19.7,10.7,22.1,3.4C23.7-1.3,34.9,3.1,32.4,11.2z"/>
		</g>
		<g opacity="0.3">
			<path fill="#FFFFFF" d="M29.6,6.2c-0.6-0.8-1.5-1.6-2.6-2l0.4-0.9c1.2,0.5,2.3,1.3,3,2.3L29.6,6.2z"/>
		</g>
		<g opacity="0.3">
			<path fill="#FFFFFF" d="M25.8,3.8c-0.2,0-0.4-0.1-0.6-0.1v-1c0.2,0,0.5,0,0.8,0.1L25.8,3.8z"/>
		</g>
		<g>
			<g>
				<rect x="26.9" y="11.3" fill="#425060" width="1.8" height="1"/>
			</g>
			<g>
				<circle fill="#616B77" cx="27.5" cy="13.3" r="0.5"/>
			</g>
		</g>
		<g>
			<path fill="#E5E5E5" d="M24.1,15.9c0.6,0.4,1.2,0.4,1.8,0"/>
			<path fill="#C9A28F" d="M25,16.8c-0.4,0-0.8-0.1-1.2-0.4l0.6-0.8c0.4,0.3,0.8,0.3,1.3,0l0.5,0.8C25.8,16.6,25.4,16.8,25,16.8z"/>
		</g>
		<g>
			<g>
				<rect x="21.4" y="11.3" fill="#425060" width="1.8" height="1"/>
			</g>
			<g>
				<circle fill="#616B77" cx="22.6" cy="13.3" r="0.5"/>
			</g>
		</g>
		<g>
			<path fill="#425060" d="M25.1,19.8c-1,0-2-0.5-2.7-1.3l0.8-0.6c1,1.2,2.9,1.2,3.9,0l0.8,0.6C27.1,19.3,26.1,19.8,25.1,19.8z"/>
		</g>
		<g opacity="0.2">
			<circle fill="#FFFFFF" cx="28.7" cy="16.4" r="0.7"/>
		</g>
		<g opacity="0.2">
			<circle fill="#FFFFFF" cx="22" cy="16.4" r="0.7"/>
		</g>
		<g>
			<path fill="#F4F4F4" d="M29.8,27.6l1.3,2.6c-0.3,2.9-2.7,6.2-6,8c1.7-4.5,2.8-9.7,2.8-14.2c1.2,0.1,2.4,0.2,3.4,0.5l0.5,2.6
				L29.8,27.6z"/>
		</g>
		<g>
			<path fill="#F4F4F4" d="M20.3,27.6L19,30.3c0.3,2.9,2.7,6.2,6,8c-1.7-4.5-2.8-9.7-2.8-14.2c-1.2,0.1-2.4,0.2-3.4,0.5l-0.5,2.6
				L20.3,27.6z"/>
		</g>
	</g>
	<g>
		<g>
			<path fill="#6CD8D5" d="M39.5,33.1h-29c-1.4,0-2.4,1.5-2.1,3l2.4,10.6c0.2,1.1,1.1,1.8,2.1,1.8h24c1,0,1.9-0.8,2.1-1.8l2.4-10.6
				C41.9,34.5,40.9,33.1,39.5,33.1z"/>
		</g>
		<g>
			<path fill="#DDEDEB" d="M27.6,41.7c-0.1,1.4-1.2,2.5-2.6,2.5s-2.6-1.1-2.6-2.5C22.3,40.2,23.5,39,25,39S27.7,40.2,27.6,41.7z"/>
		</g>
	</g>
</g>
</svg>
