<?xml version="1.0" encoding="utf-8"?>
<!-- Generator: Adobe Illustrator 18.0.0, SVG Export Plug-In . SVG Version: 6.00 Build 0)  -->
<!DOCTYPE svg PUBLIC "-//W3C//DTD SVG 1.1//EN" "http://www.w3.org/Graphics/SVG/1.1/DTD/svg11.dtd">
<svg version="1.1" id="Layer_1" xmlns="http://www.w3.org/2000/svg" xmlns:xlink="http://www.w3.org/1999/xlink" x="0px" y="0px"
	 viewBox="0 0 50 50" enable-background="new 0 0 50 50" xml:space="preserve">
<g>
	<g>
		<g>
			<path fill="#E5E5E5" d="M45.1,26.8H23c-2.2,0-3.9-1.7-3.9-3.9V9.3c0-2.2,1.7-3.9,3.9-3.9h22.1c2.2,0,3.9,1.7,3.9,3.9v13.6
				C49,25.1,47.3,26.8,45.1,26.8z"/>
		</g>
		<g>
			<g>
				<g>
					<g>
						<ellipse fill="#559AFF" cx="41.9" cy="33.2" rx="3.3" ry="3.4"/>
					</g>
					<g>
						<path fill="#559AFF" d="M48.9,41.7c0,0.5-0.1,1-0.1,1.5c-0.3,1.6-1.7,2.7-3.3,2.7h-7.1c-1.6,0-3-1.1-3.3-2.7
							c-0.1-0.5-0.1-1-0.1-1.5c0-2.9,1.8-4,4.3-4.3l2.7,2.3l2.7-2.3C47.1,37.8,48.9,38.8,48.9,41.7z"/>
					</g>
					<g opacity="0.3">
						<path fill="#FFFFFF" d="M45.5,44.2h-7.1c-0.8,0-1.5-0.5-1.6-1.3c-0.1-0.4-0.1-0.9-0.1-1.2h1c0,0.3,0,0.7,0.1,1.1
							c0,0.2,0.3,0.4,0.6,0.4h7.1c0.3,0,0.6-0.2,0.6-0.4c0.1-0.4,0.1-0.7,0.1-1.1h1c0,0.4,0,0.8-0.1,1.2
							C46.9,43.7,46.3,44.2,45.5,44.2z"/>
					</g>
				</g>
				<g>
					<g>
						<ellipse fill="#ABB734" cx="26.1" cy="33.2" rx="3.3" ry="3.4"/>
					</g>
					<g>
						<path fill="#ABB734" d="M33.1,41.7c0,0.5-0.1,1-0.1,1.5c-0.3,1.6-1.7,2.7-3.3,2.7h-7.1c-1.6,0-3-1.1-3.3-2.7
							c-0.1-0.5-0.1-1-0.1-1.5c0-2.9,1.8-4,4.3-4.3l2.7,2.3l2.7-2.3C31.3,37.8,33.1,38.8,33.1,41.7z"/>
					</g>
					<g opacity="0.3">
						<path fill="#FFFFFF" d="M29.6,44.2h-7.1c-0.8,0-1.5-0.5-1.6-1.3c-0.1-0.4-0.1-0.9-0.1-1.2h1c0,0.3,0,0.7,0.1,1.1
							c0,0.3,0.3,0.4,0.6,0.4h7.1c0.3,0,0.6-0.2,0.6-0.4c0.1-0.4,0.1-0.7,0.1-1.1h1c0,0.4,0,0.8-0.1,1.2
							C31.1,43.7,30.4,44.2,29.6,44.2z"/>
					</g>
				</g>
			</g>
			<g>
				<ellipse fill="#616B77" cx="8.7" cy="7.4" rx="3.1" ry="3.1"/>
			</g>
			<g>
				<path fill="#FA4968" d="M24.5,3.8c-1.1,2.5-2.3,5-4,7.4c-1.4,1.9-3.5,3.8-4.9,5c-0.9,0.8-1.5,1.9-1.5,3.1L14,31.2v3l-0.2,12.5
					c0,1.1-1,1.9-2.2,1.9s-2.2-0.9-2.2-1.9c0,1.1-1,1.9-2.2,1.9S5,47.7,5,46.7L4.8,34.2v-3L4.6,19.4c0-1,0.1,6.9,0.1,9.9
					c0,0.7-0.5,1.3-1.2,1.5l0,0c-0.9,0.2-1.8-0.4-1.8-1.4L1,17.9c0-2.4,2-4.4,4.4-4.3c2.5,0.1,5.5-0.1,7.7-1.2
					c1.6-0.8,2.9-2.3,4.2-3.8c1.6-1.9,2.9-4,4.1-6.3C22.4,0.4,25.3,1.8,24.5,3.8z"/>
			</g>
			<g>
				<path fill="#616B77" d="M4.7,27.2v4v3L5,46.7c0,1.1,1,1.9,2.2,1.9s2.2-0.9,2.2-1.9c0,1.1,1,1.9,2.2,1.9s2.2-0.9,2.2-1.9L14,34.2
					v-3v-4H4.7z"/>
			</g>
			<g>
				<rect x="8.8" y="31.1" fill="#425060" width="1" height="15.5"/>
			</g>
		</g>
	</g>
	<g>
		<polygon fill="#425060" points="29.9,14.9 28.2,12.5 25.3,14.5 24.8,13.7 28.5,11.1 30.1,13.5 34.6,10.3 36.5,12.9 41.8,9.2 
			42.4,10 36.2,14.3 34.4,11.7 		"/>
	</g>
	<g>
		<polygon fill="#425060" points="42.2,12.3 41.2,12.2 41.5,10 39.4,9.6 39.5,8.6 42.7,9.2 		"/>
	</g>
	<g>
		<g>
			<rect x="22.8" y="18" fill="#FECD04" width="2.3" height="4.4"/>
		</g>
		<g>
			<rect x="27.6" y="19.7" fill="#ABB734" width="2.3" height="2.7"/>
		</g>
		<g>
			<rect x="32.4" y="16.8" fill="#FFB95C" width="2.3" height="5.6"/>
		</g>
		<g>
			<rect x="37.3" y="18.9" fill="#FA4968" width="2.3" height="3.5"/>
		</g>
		<g>
			<rect x="42.1" y="17.5" fill="#559AFF" width="2.3" height="5"/>
		</g>
	</g>
	<g>
		<g>
			<rect x="22.8" y="21.1" fill="#EABE06" width="2.3" height="1.3"/>
		</g>
		<g>
			<rect x="27.6" y="21.1" fill="#9B9B1B" width="2.3" height="1.3"/>
		</g>
		<g>
			<rect x="32.4" y="21.1" fill="#F9A846" width="2.3" height="1.3"/>
		</g>
		<g>
			<rect x="37.3" y="21.1" fill="#ED2F58" width="2.3" height="1.3"/>
		</g>
		<g>
			<rect x="42.1" y="21.1" fill="#3A8BED" width="2.3" height="1.3"/>
		</g>
	</g>
</g>
</svg>
