<?xml version="1.0" encoding="utf-8"?>
<!-- Generator: Adobe Illustrator 18.0.0, SVG Export Plug-In . SVG Version: 6.00 Build 0)  -->
<!DOCTYPE svg PUBLIC "-//W3C//DTD SVG 1.1//EN" "http://www.w3.org/Graphics/SVG/1.1/DTD/svg11.dtd">
<svg version="1.1" id="Layer_1" xmlns="http://www.w3.org/2000/svg" xmlns:xlink="http://www.w3.org/1999/xlink" x="0px" y="0px"
	 viewBox="0 0 50 50" enable-background="new 0 0 50 50" xml:space="preserve">
<g>
	<g>
		<ellipse fill="#FECD04" cx="24.4" cy="39.6" rx="9.2" ry="9.4"/>
	</g>
	<g opacity="0.3">
		<path fill="#FFFFFF" d="M17.6,39.4h-1c0.1-2.4,1.1-4.5,2.9-6l0.6,0.8C18.6,35.4,17.7,37.3,17.6,39.4z"/>
	</g>
	<g opacity="0.3">
		<path fill="#FFFFFF" d="M21.6,33.2l-0.4-0.9c0.4-0.2,0.9-0.4,1.3-0.5l0.3,1C22.3,32.9,22,33.1,21.6,33.2z"/>
	</g>
	<g>
		<g>
			<path fill="#425060" d="M26.9,44.6h-5c-1.2,0-2.2-1-2.2-2.2h1c0,0.6,0.5,1.1,1.1,1.1h5c0.6,0,1.1-0.5,1.1-1.1v-1.2
				c0-0.6-0.5-1.1-1.1-1.1h-5c-1.2,0-2.2-1-2.2-2.2v-1.2c0-1.2,1-2.2,2.2-2.2h5c1.2,0,2.2,1,2.2,2.2h-1c0-0.6-0.5-1.1-1.1-1.1h-5
				c-0.6,0-1.1,0.5-1.1,1.1v1.2c0,0.6,0.5,1.1,1.1,1.1h5c1.2,0,2.2,1,2.2,2.2v1.2C29,43.6,28.1,44.6,26.9,44.6z"/>
		</g>
		<g>
			<rect x="23.9" y="33.4" fill="#425060" width="1" height="12.4"/>
		</g>
	</g>
	<g>
		<g>
			<g>
				<polygon fill="#6CD8D5" points="23,20.8 27,20.8 27,7.5 29.8,7.5 25,1 20.2,7.5 23,7.5 				"/>
			</g>
			<g opacity="0.3">
				
					<rect x="24" y="4.1" transform="matrix(-0.8046 -0.5938 0.5938 -0.8046 41.3373 23.3995)" fill="#FFFFFF" width="1" height="1.6"/>
			</g>
		</g>
	</g>
	<g>
		<g>
			<path fill="#FA4968" d="M35.9,21v-2.8h-2.4c-3.6,0-6.5,2.9-6.5,6.5v0.7c0,1.1-0.9,2-2,2s-2-0.9-2-2v-0.7
				c0-5.8,4.7-10.5,10.5-10.5h2.4v-2.8l6.5,4.8L35.9,21z"/>
		</g>
		<g opacity="0.3">
			<path fill="#FFFFFF" d="M27.5,19.2l-0.8-0.7c1.7-1.9,4.2-3,6.7-3h0.8v1h-0.8C31.3,16.6,29.1,17.5,27.5,19.2z"/>
		</g>
	</g>
	<g>
		<g>
			<path fill="#FFB95C" d="M27,24.6v0.7c0,1.1-0.9,2-2,2s-2-0.9-2-2v-0.7c0-3.6-2.9-6.5-6.5-6.5h-2.4V21l-6.5-4.8l6.5-4.8v2.8h2.4
				C22.3,14.1,27,18.8,27,24.6z"/>
		</g>
		<g opacity="0.3">
			<path fill="#FFFFFF" d="M24.5,23.8c-0.4-4.1-3.9-7.2-8-7.2h-1.1v-1h1.1c4.6,0,8.5,3.5,9,8.1L24.5,23.8z"/>
		</g>
	</g>
</g>
</svg>
