<?xml version="1.0" encoding="utf-8"?>
<!-- Generator: Adobe Illustrator 18.0.0, SVG Export Plug-In . SVG Version: 6.00 Build 0)  -->
<!DOCTYPE svg PUBLIC "-//W3C//DTD SVG 1.1//EN" "http://www.w3.org/Graphics/SVG/1.1/DTD/svg11.dtd">
<svg version="1.1" id="Layer_1" xmlns="http://www.w3.org/2000/svg" xmlns:xlink="http://www.w3.org/1999/xlink" x="0px" y="0px"
	 viewBox="0 0 50 50" enable-background="new 0 0 50 50" xml:space="preserve">
<g>
	<g>
		<g>
			<path fill="#C5DFDC" d="M48.5,26.7c0,3.7-3,6.7-6.7,6.7c-1.9,0-26.4-0.2-30.3-0.2c-5.5,0-10-4.5-10-10c0-4.5,3-8.4,7.2-9.5
				c0-0.3-0.1-0.7-0.1-1c0-4.7,3.8-8.5,8.5-8.5c3.2,0,5.9,1.7,7.4,4.3c1.9-1.1,4.1-1.7,6.5-1.7c7.3,0,13.1,5.9,13.1,13.1
				c0,0.2,0,0.4,0,0.6C46.7,21.4,48.5,23.9,48.5,26.7z"/>
		</g>
		<g>
			<path fill="#C5DFDC" d="M25.7,12.7c0-4.7-3.8-8.5-8.5-8.5S8.7,8,8.7,12.7c0,1.7,0.5,3.3,1.4,4.6"/>
		</g>
		<g>
			<path fill="#C5DFDC" d="M39.2,20.6c3.4-1.4,7.4,0.2,8.8,3.6c1.4,3.4-0.2,7.3-3.6,8.7"/>
		</g>
	</g>
	<g>
		<path fill="#6EB0FF" d="M34.4,27.8H15.6c-0.7,0-1.3-0.6-1.3-1.3v-4.1c0-0.7,0.6-1.3,1.3-1.3h18.8c0.7,0,1.3,0.6,1.3,1.3v4.1
			C35.7,27.2,35.1,27.8,34.4,27.8z"/>
	</g>
	<g>
		<path fill="#6EB0FF" d="M34.4,36.8H15.6c-0.7,0-1.3-0.6-1.3-1.3v-4.1c0-0.7,0.6-1.3,1.3-1.3h18.8c0.7,0,1.3,0.6,1.3,1.3v4.1
			C35.7,36.2,35.1,36.8,34.4,36.8z"/>
	</g>
	<g>
		<rect x="17.4" y="27.8" fill="#559AFF" width="15.2" height="2.2"/>
	</g>
	<g>
		<path fill="#6EB0FF" d="M34.4,45.8H15.6c-0.7,0-1.3-0.6-1.3-1.3v-4.1c0-0.7,0.6-1.3,1.3-1.3h18.8c0.7,0,1.3,0.6,1.3,1.3v4.1
			C35.7,45.2,35.1,45.8,34.4,45.8z"/>
	</g>
	<g>
		<rect x="17.4" y="36.8" fill="#559AFF" width="15.2" height="2.2"/>
	</g>
	<g>
		<g>
			<circle fill="#FA4968" cx="18.2" cy="24.4" r="1.2"/>
		</g>
		<g>
			<circle fill="#FFD731" cx="22.5" cy="24.4" r="1.2"/>
		</g>
	</g>
	<g>
		<g>
			<circle fill="#FA4968" cx="18.2" cy="33.4" r="1.2"/>
		</g>
		<g>
			<circle fill="#FFD731" cx="22.5" cy="33.4" r="1.2"/>
		</g>
	</g>
	<g>
		<g>
			<circle fill="#FA4968" cx="18.2" cy="42.4" r="1.2"/>
		</g>
		<g>
			<circle fill="#FFD731" cx="22.5" cy="42.4" r="1.2"/>
		</g>
	</g>
	<g>
		<g>
			<line fill="none" x1="26.4" y1="23.1" x2="26.4" y2="25.6"/>
			<rect x="25.9" y="23.1" fill="#3A8BED" width="1" height="2.6"/>
		</g>
		<g>
			<line fill="none" x1="28.6" y1="23.1" x2="28.6" y2="25.6"/>
			<rect x="28.1" y="23.1" fill="#3A8BED" width="1" height="2.6"/>
		</g>
		<g>
			<line fill="none" x1="30.9" y1="23.1" x2="30.9" y2="25.6"/>
			<rect x="30.4" y="23.1" fill="#3A8BED" width="1" height="2.6"/>
		</g>
		<g>
			<line fill="none" x1="33.2" y1="23.1" x2="33.2" y2="25.6"/>
			<rect x="32.7" y="23.1" fill="#3A8BED" width="1" height="2.6"/>
		</g>
	</g>
	<g>
		<g>
			<line fill="none" x1="26.4" y1="32.1" x2="26.4" y2="34.7"/>
			<rect x="25.9" y="32.1" fill="#3A8BED" width="1" height="2.6"/>
		</g>
		<g>
			<line fill="none" x1="28.6" y1="32.1" x2="28.6" y2="34.7"/>
			<rect x="28.1" y="32.1" fill="#3A8BED" width="1" height="2.6"/>
		</g>
		<g>
			<line fill="none" x1="30.9" y1="32.1" x2="30.9" y2="34.7"/>
			<rect x="30.4" y="32.1" fill="#3A8BED" width="1" height="2.6"/>
		</g>
		<g>
			<line fill="none" x1="33.2" y1="32.1" x2="33.2" y2="34.7"/>
			<rect x="32.7" y="32.1" fill="#3A8BED" width="1" height="2.6"/>
		</g>
	</g>
	<g>
		<g>
			<line fill="none" x1="26.4" y1="41.1" x2="26.4" y2="43.7"/>
			<rect x="25.9" y="41.1" fill="#3A8BED" width="1" height="2.6"/>
		</g>
		<g>
			<line fill="none" x1="28.6" y1="41.1" x2="28.6" y2="43.7"/>
			<rect x="28.1" y="41.1" fill="#3A8BED" width="1" height="2.6"/>
		</g>
		<g>
			<line fill="none" x1="30.9" y1="41.1" x2="30.9" y2="43.7"/>
			<rect x="30.4" y="41.1" fill="#3A8BED" width="1" height="2.6"/>
		</g>
		<g>
			<line fill="none" x1="33.2" y1="41.1" x2="33.2" y2="43.7"/>
			<rect x="32.7" y="41.1" fill="#3A8BED" width="1" height="2.6"/>
		</g>
	</g>
</g>
</svg>
