<?xml version="1.0" encoding="utf-8"?>
<!-- Generator: Adobe Illustrator 18.0.0, SVG Export Plug-In . SVG Version: 6.00 Build 0)  -->
<!DOCTYPE svg PUBLIC "-//W3C//DTD SVG 1.1//EN" "http://www.w3.org/Graphics/SVG/1.1/DTD/svg11.dtd">
<svg version="1.1" id="Layer_1" xmlns="http://www.w3.org/2000/svg" xmlns:xlink="http://www.w3.org/1999/xlink" x="0px" y="0px"
	 viewBox="0 0 50 50" enable-background="new 0 0 50 50" xml:space="preserve">
<g>
	<g>
		<g>
			<g>
				<path fill="#425060" d="M35.6,19.2c-1.3,1.1-1.7,3.2-0.8,4.7c0.4,0.7,1,1.1,1.7,1.2s1.4-0.1,2-0.6c0.8-0.7,1-2,0.5-2.8
					c-0.2-0.4-0.6-0.7-1-0.7c-0.4-0.1-0.9,0.1-1.2,0.4c-0.3,0.2-0.3,0.7-0.2,1c0.1,0.1,0.2,0.2,0.3,0.2s0.2,0,0.3-0.1l0.6,0.8
					c-0.3,0.2-0.6,0.4-0.9,0.4c-0.1,0-0.1,0-0.2,0c-0.4-0.1-0.8-0.3-1-0.7c-0.4-0.7-0.3-1.7,0.4-2.3c0.6-0.5,1.3-0.7,2-0.6
					s1.3,0.5,1.7,1.2c0.8,1.3,0.5,3.1-0.7,4.1l0,0c-0.7,0.6-1.5,0.9-2.3,0.9c-0.2,0-0.4,0-0.5-0.1c-1-0.2-1.9-0.8-2.4-1.7
					c-1.1-1.9-0.7-4.5,1-5.9l6.7-5.9c2-2,2.3-5.5,0.7-7.9c-0.8-1.1-1.9-1.8-3.2-1.9c-1.2-0.1-2.5,0.4-3.4,1.3
					c-1.3,1.3-1.5,3.5-0.4,5c0.5,0.7,1.2,1.1,1.9,1.2c0.8,0,1.5-0.2,2.1-0.8c0.5-0.5,0.6-1.4,0.2-1.9c-0.2-0.3-0.4-0.4-0.7-0.4
					S38.3,7.4,38,7.6l-0.7-0.7c0.4-0.4,1-0.6,1.6-0.6C39.5,6.2,40,6.5,40.3,7c0.7,1,0.6,2.4-0.3,3.2c-0.7,0.7-1.7,1.1-2.6,1.1
					c-0.1,0-0.2,0-0.3,0c-1.1-0.1-2-0.7-2.7-1.6c-1.2-1.8-1-4.7,0.6-6.3c1.2-1.2,2.7-1.7,4.2-1.6s2.9,0.9,3.9,2.3
					c2,2.7,1.6,6.8-0.8,9.2L35.6,19.2z"/>
			</g>
		</g>
		<g>
			<path fill="#425060" d="M15.7,24.5c-0.6,0.9-1.5,1.5-2.5,1.7c-0.2,0-0.3,0-0.5,0c-0.8,0-1.7-0.3-2.3-0.9c-1.2-1-1.4-2.9-0.6-4.1
				c0.4-0.6,1-1.1,1.7-1.2s1.4,0.1,2,0.6s0.8,1.5,0.3,2.3c-0.2,0.4-0.6,0.6-1,0.7c-0.1,0-0.1,0-0.2,0c-0.3,0-0.7-0.1-0.9-0.4
				l0.7-0.8c0.1,0.1,0.2,0.1,0.3,0.1s0.2-0.1,0.3-0.2c0.2-0.3,0.1-0.7-0.2-1c-0.4-0.3-0.8-0.4-1.2-0.4c-0.4,0.1-0.8,0.3-1,0.7
				c-0.6,0.9-0.4,2.2,0.4,2.9c0.6,0.5,1.3,0.8,2,0.6c0.7-0.1,1.3-0.5,1.8-1.2c0.9-1.4,0.6-3.5-0.7-4.7l-6.6-6
				C5.2,10.9,4.9,6.7,6.9,4c1-1.3,2.4-2.1,3.9-2.2c1.5-0.1,3,0.5,4.2,1.7c1.6,1.6,1.8,4.4,0.4,6.3c-0.7,0.9-1.6,1.5-2.7,1.5
				c-0.1,0-0.2,0-0.2,0c-1,0-1.9-0.4-2.7-1.2S8.9,7.9,9.7,6.9c0.4-0.5,0.9-0.8,1.4-0.8c0.6,0,1.1,0.2,1.5,0.6l-0.7,0.7
				c-0.2-0.2-0.5-0.3-0.8-0.3s-0.5,0.2-0.7,0.4c-0.4,0.6-0.3,1.4,0.1,1.9c0.6,0.6,1.3,0.9,2.1,0.8c0.8,0,1.5-0.5,2-1.1
				c1.1-1.5,0.9-3.7-0.3-5c-1-1-2.2-1.5-3.4-1.4C9.7,2.9,8.6,3.5,7.7,4.6C6,6.9,6.3,10.5,8.3,12.5l6.6,6
				C16.5,20,16.9,22.6,15.7,24.5z"/>
		</g>
		<g>
			<path fill="#F9A846" d="M31.3,32.5h-0.2c-1.5-0.2-2.7-1.3-3.2-2.8l-1.4-5h-3.2l-1.4,5c-0.4,1.5-1.6,2.6-3.2,2.8h-0.2
				c-2.5,0.4-4,3.1-3,5.4h18.6C35.3,35.5,33.8,32.9,31.3,32.5z"/>
		</g>
		<g>
			<path fill="#FFB95C" d="M25,28L25,28c0,0-9.1-3.8-9.1-8.8V1.5H34v17.7C34,24.2,25,28,25,28z"/>
		</g>
		<g>
			<path fill="#616B77" d="M34.4,37.8H15.6c-1.9,0-3.5,1.6-3.5,3.5v4.4c0,1.5,1.2,2.8,2.8,2.8h20.3c1.5,0,2.8-1.2,2.8-2.8v-4.4
				C37.9,39.4,36.3,37.8,34.4,37.8z"/>
		</g>
		<g>
			<path fill="#616B77" d="M14.8,46.5c-0.4,0-0.8-0.4-0.8-0.8v-4.4c0-0.8,0.7-1.5,1.5-1.5h18.8c0.8,0,1.5,0.7,1.5,1.5v4.4
				c0,0.4-0.4,0.8-0.8,0.8H14.8z"/>
		</g>
		<g>
			<polygon fill="#FFD731" points="25,7.1 26.6,10.4 30.4,11 27.7,13.6 28.3,17.3 25,15.6 21.6,17.3 22.3,13.6 19.6,11 23.3,10.4 
							"/>
		</g>
		<g>
			<rect x="17" y="41.6" fill="#425060" width="15.9" height="1"/>
			<rect x="17" y="43.7" fill="#425060" width="15.9" height="1"/>
		</g>
	</g>
</g>
</svg>
