<?xml version="1.0" encoding="utf-8"?>
<!-- Generator: Adobe Illustrator 18.0.0, SVG Export Plug-In . SVG Version: 6.00 Build 0)  -->
<!DOCTYPE svg PUBLIC "-//W3C//DTD SVG 1.1//EN" "http://www.w3.org/Graphics/SVG/1.1/DTD/svg11.dtd">
<svg version="1.1" id="Layer_1" xmlns="http://www.w3.org/2000/svg" xmlns:xlink="http://www.w3.org/1999/xlink" x="0px" y="0px"
	 viewBox="0 0 50 50" enable-background="new 0 0 50 50" xml:space="preserve">
<g>
	<g>
		<path fill="#9B9B1B" d="M32.4,16.6c-0.9,1.8-2.1,3.6-3.4,5.3c-1.3,1.6-2.8,3.2-4.4,4.2c-0.7,0.4-0.9,1.3-0.5,2
			c1.3,1.8,3.7-0.8,4.9-1.6c2.7-2.3,4.8-5,6.7-8.1C36.9,16.2,33.6,14.4,32.4,16.6L32.4,16.6z"/>
	</g>
	<g>
		<path fill="#6E9583" d="M30,46.9c0.2,2.2,3.4,2.1,3.5-0.1c0-3.9-0.1-7.6,1.1-11.4c0,2.6,0.1,5.3,1,7.8c0.4,1.4,0.7,2.7,1.1,4.1
			c0.3,0.9,1.2,1.4,2,1.1c0.8-0.2,1.3-1.1,1.1-1.9c-0.8-3.9-1.8-7.8-1-11.8c0.2-1.4,0.4-2.7,0.6-4.1l0,0c0.8-3.9,1-8.3,0.7-13
			c-0.1-2.2-2-2.6-4.2-2.5s-4,0.7-3.8,3c0.2,4.2,0,8-0.7,11.4c0,0.1,0,0.1-0.1,0.2c-0.7,3-1.4,5.6-1.8,8.7
			C29.6,41.2,29.8,44,30,46.9z"/>
	</g>
	<g>
		<path fill="#ABB734" d="M39.5,30.5v0.1l-8-1.2c0-0.1,0-0.1,0.1-0.2c0.7-3.4,0.9-7.2,0.7-11.4c-0.1-2.2,1.6-2.8,3.8-3
			c2.2-0.1,4,0.3,4.2,2.5C40.5,22.2,40.3,26.5,39.5,30.5L39.5,30.5z"/>
	</g>
	<g>
		<path fill="#C6CC4A" d="M37.9,16.9c-1.3,0.3-1.6,1.6-0.7,4.3c0.1,1,0.2,2,0.3,3c0.1,2.1,0,4.2-0.5,6c-0.3,0.8,0.2,1.6,0.9,1.8
			c2.2,0.5,2.3-3,2.6-4.4c0.4-2.9,0.4-5.8,0-8.7C40.3,17.6,39.2,16.6,37.9,16.9z"/>
	</g>
	<g>
		<circle fill="#616B77" cx="35.6" cy="9.3" r="3.4"/>
	</g>
	<g>
		<path fill="#ED2F58" d="M17.6,16.6c0.9,1.8,2.1,3.6,3.4,5.3c1.3,1.6,2.8,3.2,4.4,4.2c0.7,0.4,0.9,1.3,0.5,2
			c-1.3,1.8-3.7-0.8-4.9-1.6c-2.7-2.3-4.8-5-6.7-8.1C13.1,16.2,16.5,14.4,17.6,16.6L17.6,16.6z"/>
	</g>
	<g>
		<path fill="#559AFF" d="M20.1,46.9c-0.2,2.2-3.4,2.1-3.5-0.1c0-3.9,0.1-7.6-1.1-11.4c0,2.6-0.1,5.3-1,7.8
			c-0.4,1.4-0.7,2.7-1.1,4.1c-0.3,0.9-1.2,1.4-2,1.1c-0.8-0.2-1.3-1.1-1.1-1.9c0.8-3.9,1.8-7.8,1-11.8c-0.2-1.4-0.4-2.7-0.6-4.1l0,0
			c-0.8-3.9-1-8.3-0.7-13c0.1-2.2,2-2.6,4.2-2.5s4,0.7,3.8,3c-0.2,4.2,0,8,0.7,11.4c0,0.1,0,0.1,0.1,0.2c0.7,3,1.4,5.6,1.8,8.7
			C20.5,41.2,20.2,44,20.1,46.9z"/>
	</g>
	<g>
		<path fill="#FA4968" d="M10.5,30.5v0.1l8-1.2c0-0.1,0-0.1-0.1-0.2c-0.7-3.4-0.9-7.2-0.7-11.4c0.1-2.2-1.6-2.8-3.8-3
			c-2.2-0.1-4,0.3-4.2,2.5C9.6,22.2,9.8,26.5,10.5,30.5L10.5,30.5z"/>
	</g>
	<g>
		<path fill="#FF6989" d="M12.1,16.9c1.3,0.3,1.6,1.6,0.7,4.3c-0.1,1-0.2,2-0.3,3c-0.1,2.1,0,4.2,0.5,6c0.3,0.8-0.2,1.6-0.9,1.8
			c-2.2,0.5-2.3-3-2.6-4.4c-0.4-2.9-0.4-5.8,0-8.7C9.7,17.6,10.8,16.6,12.1,16.9z"/>
	</g>
	<g>
		<circle fill="#616B77" cx="14.4" cy="9.3" r="3.4"/>
	</g>
	<g>
		<g>
			<path fill="#FECD04" d="M29.9,7.4l-2-1.5H25c-0.7,0-1.2-0.5-1.2-1.2v-2c0-0.7,0.5-1.2,1.2-1.2h3.8C29.5,1.5,30,2,30,2.7v4.7H29.9
				z"/>
		</g>
		<g>
			<path fill="#6CD8D5" d="M20.1,13.7l2-1.5H25c0.7,0,1.2-0.5,1.2-1.2V9c0-0.7-0.5-1.2-1.2-1.2h-3.8C20.5,7.8,20,8.3,20,9v4.7H20.1z
				"/>
		</g>
	</g>
</g>
</svg>
