<?xml version="1.0" encoding="utf-8"?>
<!-- Generator: Adobe Illustrator 18.0.0, SVG Export Plug-In . SVG Version: 6.00 Build 0)  -->
<!DOCTYPE svg PUBLIC "-//W3C//DTD SVG 1.1//EN" "http://www.w3.org/Graphics/SVG/1.1/DTD/svg11.dtd">
<svg version="1.1" id="Layer_1" xmlns="http://www.w3.org/2000/svg" xmlns:xlink="http://www.w3.org/1999/xlink" x="0px" y="0px"
	 viewBox="0 0 50 50" enable-background="new 0 0 50 50" xml:space="preserve">
<g>
	<g>
		<path fill="#CCCACA" d="M35.4,45.7V49H5.6c-1.8,0-3.3-1.5-3.3-3.3V33l3-2.3l18.3-0.9L35.4,45.7z"/>
	</g>
	<g>
		<rect x="9" y="4.3" fill="#E5E5E5" width="30.3" height="41.4"/>
	</g>
	<g>
		<path fill="#F4F4F4" d="M9,4.3v41.4c0-1.8-1.5-3.3-3.3-3.3s-3.3,1.5-3.3,3.3V4.3C2.3,2.5,3.8,1,5.6,1C7.5,1,9,2.5,9,4.3z"/>
	</g>
	<g>
		<rect x="13.7" y="8.6" fill="#FFA49F" width="20.9" height="3.3"/>
	</g>
	<g>
		<line fill="none" x1="17" y1="15.3" x2="31.2" y2="15.3"/>
		<rect x="17" y="14.7" fill="#6EB0FF" width="14.2" height="1.2"/>
	</g>
	<g>
		<g>
			<rect x="14.5" y="20.8" fill="#CCCACA" width="19.2" height="1.2"/>
		</g>
		<g>
			<rect x="14.5" y="23.6" fill="#CCCACA" width="19.2" height="1.2"/>
		</g>
		<g>
			<rect x="14.5" y="26.4" fill="#CCCACA" width="19.2" height="1.2"/>
		</g>
	</g>
	<g>
		<g>
			<g>
				<polygon fill="#FA4968" points="19.8,35.1 19.8,41.9 18,40.8 16.1,41.9 16.1,35.1 				"/>
			</g>
		</g>
		<g>
			<circle fill="#FFB95C" cx="18" cy="34.4" r="3.5"/>
		</g>
		<g>
			<circle fill="#FFFFFF" cx="18" cy="34.4" r="1.5"/>
		</g>
	</g>
	<g>
		<rect x="24.9" y="30.8" fill="#CCCACA" width="8.8" height="1.2"/>
	</g>
	<g>
		<rect x="24.9" y="33.5" fill="#CCCACA" width="8.8" height="1.2"/>
	</g>
	<g>
		<path fill="#CCCACA" d="M25.7,43c-0.1,0-0.2,0-0.4-0.1c-0.4-0.2-0.7-0.6-0.8-1.1c0-0.3,0.1-0.6,0.1-0.9c0.1-0.4,0.3-0.8,0.5-1.2
			c-0.3-0.1-0.5-0.2-0.8-0.1c-0.4,0.1-0.7,0.5-0.7,0.9l-1.2,0.1c-0.1-1,0.6-2,1.6-2.2c0.7-0.2,1.5,0.1,2.1,0.5
			c0.2-0.1,0.3-0.1,0.5-0.1c0.6,0,1.1,0.2,1.6,0.7l0.2,0.2c0.2,0.2,0.4,0.4,0.6,0.5s0.4,0.1,0.5,0s0.1-0.4,0.1-0.6
			c0-0.5,0-1.1,0.4-1.5c0.6-0.6,1.5-0.4,2,0s0.7,1,0.9,1.4c0.1,0.4,0.3,0.7,0.5,0.9c0.2,0.1,0.4,0.2,0.4,0.1l0.8,0.9
			c-0.6,0.5-1.5,0.3-2-0.1c-0.4-0.4-0.6-0.9-0.8-1.4c-0.2-0.4-0.3-0.7-0.5-0.9c-0.1-0.1-0.4-0.1-0.4-0.1c0.1,0.3,0.1,0.6,0.1,0.8
			c0,0.4,0,1-0.4,1.5c-0.5,0.6-1.4,0.6-2,0.3c-0.4-0.2-0.7-0.5-0.9-0.8l-0.2-0.2c-0.2-0.2-0.4-0.3-0.5-0.4c0.2,0.6,0.2,1.2,0,1.8
			C26.8,42.5,26.2,43,25.7,43z M25.9,41c0,0.1-0.1,0.2-0.1,0.3s-0.1,0.3-0.1,0.4c0,0,0.1-0.1,0.1-0.2C25.9,41.4,25.9,41.2,25.9,41z"
			/>
	</g>
	<g>
		<path fill="#FA4968" d="M35.5,39.3L35.5,39.3l2.2-1L47.6,13c0.3-0.9-0.1-1.9-1-2.2l0,0c-0.9-0.3-1.9,0.1-2.2,1l-9.9,25.3
			L35.5,39.3z"/>
	</g>
	<g>
		<polygon fill="#525F70" points="35.7,34 34.5,37.1 35.5,39.3 37.7,38.4 38.9,35.3 		"/>
	</g>
	<g>
		<path fill="#FECD04" d="M44.4,11.8l-0.8,2.1l3.2,1.3l0.8-2.1c0.3-0.9-0.1-1.9-1-2.2C45.7,10.5,44.7,10.9,44.4,11.8z"/>
	</g>
	<g>
		<path fill="none" stroke="#425060" stroke-miterlimit="10" d="M35.7,23"/>
	</g>
	<g>
		<g>
			<rect x="4" y="8" fill="#FFFFFF" width="1.2" height="3.9"/>
		</g>
		<g>
			<rect x="4" y="4.7" fill="#FFFFFF" width="1.2" height="0.9"/>
		</g>
	</g>
</g>
</svg>
