<?xml version="1.0" encoding="utf-8"?>
<!-- Generator: Adobe Illustrator 18.0.0, SVG Export Plug-In . SVG Version: 6.00 Build 0)  -->
<!DOCTYPE svg PUBLIC "-//W3C//DTD SVG 1.1//EN" "http://www.w3.org/Graphics/SVG/1.1/DTD/svg11.dtd">
<svg version="1.1" id="Layer_1" xmlns="http://www.w3.org/2000/svg" xmlns:xlink="http://www.w3.org/1999/xlink" x="0px" y="0px"
	 viewBox="0 0 50 50" enable-background="new 0 0 50 50" xml:space="preserve">
<g>
	<g>
		<g>
			<rect x="3.7" y="9.6" fill="#616B77" width="42.6" height="30.7"/>
		</g>
		<g>
			<path fill="#C9A28F" d="M45.8,7.3H4.2c-1.5,0-2.7,1.2-2.7,2.7v30c0,1.5,1.2,2.7,2.7,2.7h41.6c1.5,0,2.7-1.2,2.7-2.7V10
				C48.5,8.5,47.3,7.3,45.8,7.3z M45.5,39.7h-41V10.3h41V39.7z"/>
		</g>
		<g>
			<g>
				<g>
					<path fill="#E8CEC1" d="M45.8,7.3h-4.1v3h3.8v3.8h3V10C48.5,8.5,47.3,7.3,45.8,7.3z"/>
				</g>
				<g>
					<path fill="#E8CEC1" d="M1.5,10v4.1h3v-3.8h3.8v-3H4.2C2.7,7.3,1.5,8.5,1.5,10z"/>
				</g>
			</g>
			<g>
				<g>
					<path fill="#E8CEC1" d="M48.5,40v-4.1h-3v3.8h-3.8v3h4.1C47.3,42.7,48.5,41.5,48.5,40z"/>
				</g>
				<g>
					<path fill="#E8CEC1" d="M4.2,42.7h4.1v-3H4.5v-3.8h-3V40C1.5,41.5,2.7,42.7,4.2,42.7z"/>
				</g>
			</g>
		</g>
	</g>
	<g>
		<g>
			<rect x="20.2" y="29" fill="#FF8C83" width="3.5" height="5.7"/>
		</g>
		<g>
			<rect x="25.8" y="25.4" fill="#ABB734" width="3.5" height="9.3"/>
		</g>
		<g>
			<rect x="31.5" y="27.4" fill="#FFB95C" width="3.5" height="7.2"/>
		</g>
		<g>
			<rect x="37.2" y="23.1" fill="#FA4968" width="3.5" height="11.6"/>
		</g>
		<g>
			
				<rect x="35.6" y="19" transform="matrix(-0.5423 -0.8402 0.8402 -0.5423 38.2629 62.1924)" fill="#425060" width="1" height="3.3"/>
		</g>
		<g>
			
				<rect x="24.2" y="21.1" transform="matrix(-0.5085 -0.861 0.861 -0.5085 17.724 55.5224)" fill="#425060" width="1" height="3.3"/>
		</g>
		<g>
			
				<rect x="29.2" y="21.2" transform="matrix(-0.9724 -0.2331 0.2331 -0.9724 55.0173 49.9161)" fill="#425060" width="2.5" height="1"/>
		</g>
		<g>
			<circle fill="#6EB0FF" cx="38.9" cy="18.8" r="1.7"/>
		</g>
		<g>
			<circle fill="#6EB0FF" cx="33.3" cy="22.4" r="1.7"/>
		</g>
		<g>
			<circle fill="#6EB0FF" cx="27.6" cy="21.1" r="1.7"/>
		</g>
		<g>
			<circle fill="#6EB0FF" cx="21.9" cy="24.4" r="1.7"/>
		</g>
	</g>
	<g>
		<g>
			<g>
				<path fill="#6CD8D5" d="M13.4,19.4L11.1,16c-1.1,0.7-1.8,2-1.8,3.4c0,2.2,1.8,4.1,4.1,4.1c1.8,0,3.3-1.2,3.8-2.8L13.4,19.4z"/>
			</g>
			<g>
				<path fill="#C5DFDC" d="M13.4,15.3c-0.8,0-1.6,0.3-2.2,0.7l2.2,3.4l2.9-2.9C15.5,15.8,14.5,15.3,13.4,15.3z"/>
			</g>
			<g>
				<path fill="#FECD04" d="M13.4,19.4L13.4,19.4l3.8,1.3c0.1-0.4,0.2-0.8,0.2-1.3c0-1.1-0.5-2.1-1.2-2.9L13.4,19.4z"/>
			</g>
		</g>
		<g>
			<g>
				<path fill="#6CD8D5" d="M16.2,33.5l-1.7-1.7c-0.7,0.7-1.7,0.7-2.4,0l-1.7,1.7C12.1,35.1,14.6,35.1,16.2,33.5z"/>
			</g>
			<g>
				<path fill="#FF8C83" d="M12.2,31.8c-0.7-0.7-0.7-1.7,0-2.4l-1.7-1.7c-1.6,1.6-1.6,4.1,0,5.7l0,0L12.2,31.8L12.2,31.8z"/>
			</g>
			<g>
				<path fill="#ABB734" d="M12.2,29.4c0.7-0.7,1.7-0.7,2.4,0l0,0l1.7-1.7l0,0c-1.6-1.6-4.2-1.6-5.7,0l0,0L12.2,29.4L12.2,29.4z"/>
			</g>
			<g>
				<path fill="#FA4968" d="M14.6,31.8L14.6,31.8l1.7,1.7l0,0c1.6-1.6,1.6-4.1,0-5.7l-1.7,1.7C15.2,30.1,15.2,31.2,14.6,31.8z"/>
			</g>
		</g>
	</g>
</g>
</svg>
