<?xml version="1.0" encoding="utf-8"?>
<!-- Generator: Adobe Illustrator 18.0.0, SVG Export Plug-In . SVG Version: 6.00 Build 0)  -->
<!DOCTYPE svg PUBLIC "-//W3C//DTD SVG 1.1//EN" "http://www.w3.org/Graphics/SVG/1.1/DTD/svg11.dtd">
<svg version="1.1" id="Layer_1" xmlns="http://www.w3.org/2000/svg" xmlns:xlink="http://www.w3.org/1999/xlink" x="0px" y="0px"
	 viewBox="0 0 50 50" enable-background="new 0 0 50 50" xml:space="preserve">
<g>
	<g>
		<g>
			<polygon fill="#FA4968" points="26.6,20.7 25,21.8 23.4,20.7 24.4,15.5 25.6,15.5 			"/>
		</g>
		<g>
			<polygon fill="#ED2F58" points="25.9,14.4 24.1,14.4 24.4,15.5 25.6,15.5 			"/>
		</g>
	</g>
	<g>
		<circle fill="#525F70" cx="25" cy="7.6" r="4.7"/>
	</g>
	<g>
		<path fill="#ABB734" d="M34.7,21c0,0.7-0.1,1.4-0.2,2.1c-0.4,2.2-2.4,3.7-4.6,3.7H20c-2.2,0-4.2-1.5-4.6-3.7
			c-0.1-0.7-0.2-1.4-0.2-2.1c0-4,2.5-5.5,6-5.9l3.8,6.3l3.8-6.3C32.3,15.5,34.7,16.9,34.7,21z"/>
	</g>
	<g>
		<circle fill="#525F70" cx="41.6" cy="35.4" r="3.1"/>
	</g>
	<g>
		<path fill="#559AFF" d="M48,43.2c0,0.4,0,0.9-0.1,1.4c-0.3,1.4-1.6,2.5-3,2.5h-6.5c-1.5,0-2.8-1-3-2.5c-0.1-0.5-0.1-1-0.1-1.4
			c0-2.7,1.6-3.6,3.9-3.9l2.5,2.1l2.5-2.1C46.4,39.6,48,40.6,48,43.2z"/>
	</g>
	<g opacity="0.3">
		<path fill="#FFFFFF" d="M44.8,45.6h-6.5c-0.7,0-1.4-0.5-1.5-1.2c-0.1-0.4-0.1-0.8-0.1-1.1h1c0,0.3,0,0.6,0.1,1
			c0,0.2,0.3,0.4,0.5,0.4h6.5c0.3,0,0.5-0.2,0.5-0.4c0.1-0.3,0.1-0.7,0.1-1h1c0,0.3,0,0.7-0.1,1.1C46.2,45,45.6,45.6,44.8,45.6z"/>
	</g>
	<g>
		<circle fill="#525F70" cx="25" cy="35.4" r="3.1"/>
	</g>
	<g>
		<path fill="#FF8C83" d="M31.4,43.2c0,0.4,0,0.9-0.1,1.4c-0.3,1.4-1.6,2.5-3,2.5h-6.5c-1.5,0-2.8-1-3-2.5c-0.1-0.5-0.1-1-0.1-1.4
			c0-2.7,1.6-3.6,3.9-3.9l2.5,2.1l2.5-2.1C29.8,39.6,31.4,40.6,31.4,43.2z"/>
	</g>
	<g opacity="0.3">
		<path fill="#FFFFFF" d="M28.3,45.6h-6.5c-0.7,0-1.4-0.5-1.5-1.2c-0.1-0.4-0.1-0.8-0.1-1.1h1c0,0.3,0,0.6,0.1,1
			c0,0.2,0.3,0.4,0.5,0.4h6.5c0.3,0,0.5-0.2,0.5-0.4c0.1-0.3,0.1-0.7,0.1-1h1c0,0.3,0,0.7-0.1,1.1C29.6,45,29,45.6,28.3,45.6z"/>
	</g>
	<g>
		<circle fill="#525F70" cx="8.4" cy="35.4" r="3.1"/>
	</g>
	<g>
		<path fill="#6E9583" d="M14.8,43.2c0,0.4,0,0.9-0.1,1.4c-0.3,1.4-1.6,2.5-3,2.5H5.2c-1.5,0-2.8-1-3-2.5C2,44.2,2,43.7,2,43.2
			c0-2.7,1.6-3.6,3.9-3.9l2.5,2.1l2.5-2.1C13.2,39.6,14.8,40.6,14.8,43.2z"/>
	</g>
	<g opacity="0.3">
		<path fill="#FFFFFF" d="M11.7,45.6H5.2c-0.7,0-1.4-0.5-1.5-1.2c-0.1-0.4-0.1-0.8-0.1-1.1h1c0,0.3,0,0.6,0.1,1
			c0,0.2,0.3,0.4,0.5,0.4h6.5c0.3,0,0.5-0.2,0.5-0.4c0.1-0.3,0.1-0.7,0.1-1h1c0,0.3,0,0.7-0.1,1.1C13.1,45,12.4,45.6,11.7,45.6z"/>
	</g>
</g>
</svg>
