<?xml version="1.0" encoding="utf-8"?>
<!-- Generator: Adobe Illustrator 18.0.0, SVG Export Plug-In . SVG Version: 6.00 Build 0)  -->
<!DOCTYPE svg PUBLIC "-//W3C//DTD SVG 1.1//EN" "http://www.w3.org/Graphics/SVG/1.1/DTD/svg11.dtd">
<svg version="1.1" id="Layer_1" xmlns="http://www.w3.org/2000/svg" xmlns:xlink="http://www.w3.org/1999/xlink" x="0px" y="0px"
	 viewBox="0 0 50 50" enable-background="new 0 0 50 50" xml:space="preserve">
<g>
	<g>
		<path fill="#FA4968" d="M24.4,35.9h-10c-1.1,0-2-0.9-2-2v-5.7c0-1.1,0.9-2,2-2h10c1.1,0,2,0.9,2,2v5.7
			C26.4,35,25.5,35.9,24.4,35.9z"/>
	</g>
	<g>
		<path fill="#425060" d="M22.3,27.3h-5.9V25c0-0.8,0.6-1.4,1.4-1.4h3c0.8,0,1.4,0.6,1.4,1.4v2.3H22.3z M17.5,26.3h3.8V25
			c0-0.2-0.2-0.4-0.4-0.4h-3c-0.2,0-0.4,0.2-0.4,0.4V26.3z"/>
	</g>
	<g>
		<path fill="#C6CC4A" d="M26.4,28.1V29c0,1-0.8,1.8-1.8,1.8H14.2c-1,0-1.8-0.8-1.8-1.8v-0.9c0-1,0.8-1.8,1.8-1.8h10.3
			C25.5,26.3,26.4,27.1,26.4,28.1z"/>
	</g>
	<g>
		<path fill="#FFFFFF" d="M20,32.4h-1.3c-0.3,0-0.6-0.3-0.6-0.6v-1.7c0-0.3,0.3-0.6,0.6-0.6H20c0.3,0,0.6,0.3,0.6,0.6v1.7
			C20.6,32.1,20.3,32.4,20,32.4z"/>
	</g>
	<g>
		<g>
			<path fill="#E5E5E5" d="M33.9,30.7c0-1.7,1.2-3.2,3.1-4.2c-0.4-2-1.2-3.8-2.2-5.5c-2,0.7-4,0.5-5.2-0.7s-1.4-3.2-0.7-5.2
				c-1.6-1-3.5-1.8-5.4-2.3c-0.9,1.9-2.4,3.2-4.1,3.2s-3.2-1.2-4.1-3.2c-2,0.4-3.8,1.2-5.4,2.3c0.7,2,0.5,4-0.7,5.2
				C7.9,21.6,6,21.8,4,21.1c-1,1.7-1.8,3.5-2.2,5.5C3.7,27.5,5,29.1,5,30.8C5,32.5,3.8,34,1.8,35c0.5,2,1.2,3.8,2.3,5.5
				c2-0.7,3.9-0.5,5.2,0.7c1.2,1.2,1.4,3.2,0.7,5.2c1.6,1,3.5,1.8,5.4,2.3c0.9-1.9,2.4-3.2,4.1-3.2s3.2,1.2,4.1,3.2
				c2-0.4,3.8-1.2,5.4-2.3c-0.7-2-0.5-4,0.7-5.2s3.1-1.4,5.1-0.7c1-1.7,1.8-3.5,2.3-5.5C35.1,33.9,33.9,32.4,33.9,30.7z M19.4,41.3
				c-5.8,0-10.5-4.8-10.5-10.6c0-5.9,4.7-10.6,10.5-10.6s10.5,4.8,10.5,10.6C29.9,36.6,25.2,41.3,19.4,41.3z"/>
		</g>
	</g>
	<g>
		<g>
			<ellipse fill="#FECD04" cx="39.9" cy="10" rx="8.4" ry="8.5"/>
		</g>
		<g>
			<g>
				<g>
					<path fill="#425060" d="M41.6,10.5h-2.8c-1.2,0-2.2-1-2.2-2.2s1-2.2,2.2-2.2h2.8c0.9,0,1.6,0.7,1.6,1.6h-1
						c0-0.3-0.3-0.6-0.6-0.6h-2.8c-0.6,0-1.1,0.5-1.1,1.1s0.5,1.1,1.1,1.1h2.8V10.5z"/>
				</g>
				<g>
					<path fill="#425060" d="M41,13.8h-2.9c-0.9,0-1.6-0.7-1.6-1.6h1c0,0.3,0.3,0.6,0.6,0.6H41c0.6,0,1.1-0.5,1.1-1.1
						s-0.5-1.1-1.1-1.1h-2.9v-1H41c1.2,0,2.1,1,2.1,2.1C43.2,12.8,42.2,13.8,41,13.8z"/>
				</g>
			</g>
			<g>
				<rect x="39.4" y="5.2" fill="#425060" width="1" height="9.6"/>
			</g>
		</g>
	</g>
</g>
</svg>
