<?xml version="1.0" encoding="utf-8"?>
<!-- Generator: Adobe Illustrator 18.0.0, SVG Export Plug-In . SVG Version: 6.00 Build 0)  -->
<!DOCTYPE svg PUBLIC "-//W3C//DTD SVG 1.1//EN" "http://www.w3.org/Graphics/SVG/1.1/DTD/svg11.dtd">
<svg version="1.1" id="Layer_1" xmlns="http://www.w3.org/2000/svg" xmlns:xlink="http://www.w3.org/1999/xlink" x="0px" y="0px"
	 viewBox="0 0 50 50" enable-background="new 0 0 50 50" xml:space="preserve">
<g>
	<g>
		<path fill="#D9BAA8" d="M35.1,30.1c0,0.1-0.1,0.2-0.1,0.3l-0.1,0.1L31.5,30h-1.1c-1.4,0.2-2.5,1.3-2.7,2.8c-0.4,3.8-1,9.8-1,11.5
			c0,1.8,2.7,2,2.9,0.2c0.3-3.2,1.1-9.4,1.1-9.4l7.4,0.7c1.7,0.2,3.1-1,3.2-2.7c0-0.4,0-0.8,0.1-1.1l0,0c0.2-0.6,0.3-1.3,0.5-1.9
			C41.9,30.1,35.1,30.1,35.1,30.1z"/>
	</g>
	<g>
		<path fill="#D9BAA8" d="M19.5,30.1h-1.1L15,30.6c0,0,0-0.1-0.1-0.1c0-0.1-0.1-0.2-0.1-0.3H8c0.1,0.6,0.3,1.3,0.5,1.9l0,0
			c0.1,0.3,0.1,0.7,0.1,1.1c0,1.7,1.5,3,3.2,2.7l7.4-0.7c0,0,0.8,6.2,1.1,9.4c0.2,1.8,2.9,1.7,2.9-0.2c-0.1-1.6-0.6-7.7-1-11.5
			C22,31.4,20.9,30.3,19.5,30.1z"/>
	</g>
	<g>
		<path fill="#FA4968" d="M8.5,32.1L8.5,32.1c0,0.1,6.6-1.5,6.6-1.5s0-0.1-0.1-0.1c-0.8-2.7-1.3-5.9-1.4-9.3
			c-0.1-1.8-1.6-2.2-3.4-2.1s-3.3,0.5-3.3,2.4C7.1,25.2,7.6,28.8,8.5,32.1L8.5,32.1z"/>
	</g>
	<g>
		<path fill="#FF6989" d="M8.8,20.6c1.1,0.1,1.5,1.2,0.9,3.5c0,0.8,0,1.7,0,2.5c0.1,1.7,0.3,3.5,0.9,4.9c0.3,0.6,0,1.3-0.6,1.6
			c-1.8,0.6-2.1-2.3-2.5-3.4c-0.5-2.4-0.7-4.8-0.6-7.2C6.9,21.4,7.8,20.5,8.8,20.6z"/>
	</g>
	<g>
		<ellipse fill="#616B77" cx="10.1" cy="14.2" rx="2.8" ry="2.8"/>
	</g>
	<g>
		
			<rect x="12.4" y="28.9" transform="matrix(-0.2305 -0.9731 0.9731 -0.2305 -14.3368 50.8721)" fill="#425060" width="1" height="4.5"/>
	</g>
	<g>
		<path fill="#616B77" d="M14.9,41.7c0.2,0,0.4,0,0.5-0.1c0.9-0.1,1.6-0.9,1.5-1.8c-0.1-0.9-1-1.6-1.9-1.5c-2.1,0.2-5.8,0.2-6.9-0.6
			c-1.2-1-2.7-7.3-3.3-12.5c-0.1-0.9-0.9-1.5-1.8-1.5c-0.9,0.1-1.6,0.9-1.5,1.8c0.3,3,1.6,12.4,4.5,14.8
			C8.3,42.1,13.1,41.9,14.9,41.7z"/>
	</g>
	<g>
		<g>
			<path fill="#559AFF" d="M26.8,5.8v4c0,0.9-0.7,1.7-1.7,1.7h-6.4l-3.1,2.2V5.8c0-0.9,0.7-1.7,1.7-1.7h7.9
				C26.1,4.2,26.8,4.9,26.8,5.8z"/>
		</g>
		<g>
			<g>
				<rect x="18.6" y="6.4" fill="#FFFFFF" width="5.3" height="1"/>
			</g>
			<g>
				<rect x="18.6" y="8.3" fill="#FFFFFF" width="2.9" height="1"/>
			</g>
		</g>
	</g>
	<g>
		<path fill="#ABB734" d="M41.5,32.1L41.5,32.1c0,0.1-6.6-1.5-6.6-1.5s0-0.1,0.1-0.1c0.8-2.7,1.3-5.9,1.4-9.3
			c0.1-1.8,1.6-2.2,3.4-2.1c1.8,0.1,3.3,0.5,3.3,2.4C42.9,25.2,42.4,28.8,41.5,32.1L41.5,32.1z"/>
	</g>
	<g>
		<path fill="#C6CC4A" d="M41.2,20.6c-1.1,0.1-1.5,1.2-0.9,3.5c0,0.8,0,1.7,0,2.5c-0.1,1.7-0.3,3.5-0.9,4.9c-0.3,0.6,0,1.3,0.6,1.6
			c1.8,0.6,2.1-2.3,2.5-3.4c0.5-2.4,0.7-4.8,0.6-7.2C43.1,21.4,42.2,20.5,41.2,20.6z"/>
	</g>
	<g>
		<ellipse fill="#616B77" cx="39.8" cy="14.3" rx="2.8" ry="2.8"/>
	</g>
	<g>
		
			<rect x="34.8" y="30.6" transform="matrix(-0.9732 -0.2299 0.2299 -0.9732 65.9684 69.8563)" fill="#425060" width="4.5" height="1"/>
	</g>
	<g>
		<path fill="#559AFF" d="M35.1,41.7c-0.2,0-0.4,0-0.5-0.1c-0.9-0.1-1.6-0.9-1.5-1.8c0.1-0.9,1-1.6,1.9-1.5c2.1,0.2,5.8,0.2,6.9-0.6
			c1.2-1,2.7-7.3,3.3-12.5c0.1-0.9,0.9-1.5,1.8-1.5c0.9,0.1,1.6,0.9,1.5,1.8c-0.3,2.8-1.6,12.3-4.5,14.7
			C41.7,42.1,36.9,41.9,35.1,41.7z"/>
	</g>
	<g>
		<path fill="#6CD8D5" d="M23.2,11.1v4c0,0.9,0.7,1.7,1.7,1.7h6.4l3.1,2.2v-7.9c0-0.9-0.7-1.7-1.7-1.7h-7.9
			C23.9,9.4,23.2,10.2,23.2,11.1z"/>
	</g>
	<g>
		<rect x="26.2" y="11.7" fill="#FFFFFF" width="5.3" height="1"/>
	</g>
	<g>
		<rect x="28.5" y="13.6" fill="#FFFFFF" width="2.9" height="1"/>
	</g>
</g>
</svg>
