<?xml version="1.0" encoding="utf-8"?>
<!-- Generator: Adobe Illustrator 18.0.0, SVG Export Plug-In . SVG Version: 6.00 Build 0)  -->
<!DOCTYPE svg PUBLIC "-//W3C//DTD SVG 1.1//EN" "http://www.w3.org/Graphics/SVG/1.1/DTD/svg11.dtd">
<svg version="1.1" id="Layer_1" xmlns="http://www.w3.org/2000/svg" xmlns:xlink="http://www.w3.org/1999/xlink" x="0px" y="0px"
	 viewBox="0 0 50 50" enable-background="new 0 0 50 50" xml:space="preserve">
<g>
	<g>
		<path fill="#FA4968" d="M39.4,20c3.9-2.6,4.8-7.9,1.7-11.1c-3.2-3.2-8.6-2.2-11.2,1.8c-0.6,0.9-1.8,1.1-2.6,0.5
			c-2.1-1.5,0.7-5.5,2-6.9C35.6-2,46.5,1.1,48.6,9.6c1.6,5.7-2,12.6-7.9,13.9C38.6,23.9,37.6,21.1,39.4,20L39.4,20z"/>
	</g>
	<g>
		<path fill="#ABB734" d="M10.6,30C6.7,32.6,5.8,37.9,9,41.1c3.2,3.2,8.6,2.2,11.2-1.8c0.6-0.9,1.8-1.1,2.6-0.5
			c2.1,1.5-0.7,5.5-2,6.9C14.4,52,3.5,48.9,1.4,40.4c-1.6-5.7,2-12.6,7.9-13.9C11.4,26.1,12.4,28.9,10.6,30L10.6,30z"/>
	</g>
	<g>
		<path fill="#FECD04" d="M29.9,39.4c2.6,3.9,7.9,4.8,11.1,1.7c3.2-3.2,2.2-8.6-1.8-11.2c-0.9-0.6-1.1-1.8-0.5-2.6
			c1.5-2.1,5.5,0.6,6.8,2c6.3,6.3,3.2,17.2-5.2,19.3c-5.7,1.6-12.6-2-13.9-7.9C26,38.6,28.8,37.6,29.9,39.4L29.9,39.4z"/>
	</g>
	<g>
		<path fill="#6CD8D5" d="M20.1,10.6C17.5,6.7,12.2,5.8,9,9s-2.2,8.6,1.8,11.2c0.9,0.6,1.1,1.8,0.5,2.6c-1.5,2.1-5.5-0.6-6.8-2
			C-1.9,14.5,1.2,3.5,9.7,1.4c5.7-1.6,12.6,2,13.9,7.9C24,11.4,21.2,12.4,20.1,10.6L20.1,10.6z"/>
	</g>
</g>
<g>
	<path fill="#559AFF" d="M35.8,27.6c-0.3,1.2-0.8,2.3-1.4,3.4c-1.2-0.4-2.4-0.3-3.2,0.4c-0.7,0.8-0.8,2-0.4,3.2
		c-1,0.6-2.1,1.1-3.3,1.4C27,34.7,26,34,25,34s-2,0.8-2.5,1.9c-1.2-0.3-2.3-0.8-3.3-1.4c0.4-1.2,0.3-2.4-0.4-3.2
		c-0.7-0.7-1.9-0.9-3.2-0.4c-0.6-1-1.1-2.2-1.4-3.4c1.2-0.6,1.9-1.5,1.9-2.6c0-1-0.8-2-1.9-2.6c0.3-1.2,0.7-2.3,1.4-3.4
		c1.2,0.4,2.4,0.3,3.2-0.4c0.7-0.8,0.9-2,0.4-3.2c1-0.6,2.1-1.1,3.3-1.4c0.6,1.2,1.5,2,2.5,2s2-0.8,2.5-2c1.2,0.3,2.3,0.8,3.3,1.4
		c-0.4,1.2-0.3,2.4,0.4,3.2c0.7,0.7,1.9,0.9,3.2,0.4c0.6,1,1.1,2.2,1.4,3.4C34.7,23,33.9,24,33.9,25C33.9,26.1,34.7,27,35.8,27.6z"
		/>
</g>
<g>
	<circle fill="#FFFFFF" cx="25" cy="25" r="5"/>
</g>
<g>
	<path fill="#616B77" d="M28.2,28.2c-1.8,1.8-4.7,1.8-6.5,0.1c-1.8-1.8-1.7-4.7,0.1-6.5s4.7-1.8,6.5-0.1C30,23.5,30,26.4,28.2,28.2z
		"/>
</g>
<g>
	<path fill="#616B77" d="M21.8,21.8c1.8-1.8,4.7-1.8,6.5-0.1c1.8,1.8,1.7,4.7-0.1,6.5c-1.8,1.8-4.7,1.8-6.5,0.1
		C20,26.5,20,23.6,21.8,21.8z"/>
</g>
<g>
	<path fill="#616B77" d="M21.8,28.2c-1.8-1.8-1.8-4.7-0.1-6.5c1.8-1.8,4.7-1.7,6.5,0.1c1.8,1.8,1.8,4.7,0.1,6.5
		C26.5,30,23.6,30,21.8,28.2z"/>
</g>
<g>
	<path fill="#616B77" d="M28.2,21.8c1.8,1.8,1.8,4.7,0.1,6.5c-1.8,1.8-4.7,1.7-6.5-0.1c-1.8-1.8-1.8-4.7-0.1-6.5
		C23.5,20,26.4,20,28.2,21.8z"/>
</g>
</svg>
