<?xml version="1.0" encoding="utf-8"?>
<!-- Generator: Adobe Illustrator 18.0.0, SVG Export Plug-In . SVG Version: 6.00 Build 0)  -->
<!DOCTYPE svg PUBLIC "-//W3C//DTD SVG 1.1//EN" "http://www.w3.org/Graphics/SVG/1.1/DTD/svg11.dtd">
<svg version="1.1" id="Layer_1" xmlns="http://www.w3.org/2000/svg" xmlns:xlink="http://www.w3.org/1999/xlink" x="0px" y="0px"
	 viewBox="0 0 50 50" enable-background="new 0 0 50 50" xml:space="preserve">
<g>
	<g>
		<circle fill="#525F70" cx="21.5" cy="13.3" r="12.3"/>
	</g>
	<g>
		<path fill="#616B77" d="M15.1,22.4c-2.4-1.7-4.1-4.5-4.5-7.5l1-0.1c0.4,2.7,1.9,5.2,4.1,6.8L15.1,22.4z"/>
	</g>
	<g>
		<path fill="#616B77" d="M11.5,12.4l-1-0.1c0-0.4,0.1-0.8,0.2-1.2l1,0.2C11.6,11.7,11.5,12,11.5,12.4z"/>
	</g>
	<g>
		<circle fill="#FFFFFF" cx="21.5" cy="13.3" r="8.8"/>
	</g>
	<g>
		<g>
			<path fill="#425060" d="M33.3,17l3,1.4l-1.5,3.1l-3-1.4c0.3-0.5,0.6-1,0.8-1.5C32.9,18.1,33.1,17.5,33.3,17z"/>
		</g>
		<g>
			<path fill="#525F70" d="M45.2,24.5L45.2,24.5c-0.7,1.4-2.3,2-3.8,1.4l-6-2.8c-0.6-0.3-0.9-1-0.6-1.6l1.4-2.9
				c0.3-0.6,1-0.9,1.6-0.6l6,2.8C45.2,21.4,45.8,23.1,45.2,24.5z"/>
		</g>
	</g>
	<g>
		<g>
			<line fill="none" x1="41.4" y1="21.8" x2="39.4" y2="20.8"/>
			
				<rect x="39.2" y="20.8" transform="matrix(-0.905 -0.4254 0.4254 -0.905 67.8194 57.7198)" fill="#616B77" width="2.3" height="1"/>
		</g>
		<g>
			<line fill="none" x1="37.8" y1="20.1" x2="37.4" y2="19.9"/>
			
				<rect x="37.4" y="19.5" transform="matrix(-0.9048 -0.4259 0.4259 -0.9048 63.0796 54.1258)" fill="#616B77" width="0.4" height="1"/>
		</g>
	</g>
	<g>
		<path fill="#559AFF" d="M40.4,39.4L40.4,39.4c0,5.4-4.6,9.6-10,9.6H14.5c-5.4,0-9.9-4.2-10-9.5v-0.1c0-8.3,5.8-10.8,13.6-11.3
			l4.3,5.1l4.3-5.1c1.5,0.1,3,0.3,4.3,0.6C36.6,29.8,40.4,32.7,40.4,39.4z"/>
	</g>
	<g>
		<polygon fill="#FA4968" points="21.1,33.2 19.2,44.7 22.3,47 25.5,44.7 23.6,33.2 		"/>
	</g>
	<g>
		<path fill="#DDEDEB" d="M31.1,28.6l-4.4,7.8l-4.2-3.3l4.3-5.1C28.3,28.2,29.7,28.4,31.1,28.6z"/>
	</g>
	<g>
		<path fill="#DDEDEB" d="M13.9,28.6l4.4,7.8l4.2-3.3L18.2,28C16.7,28.2,15.2,28.4,13.9,28.6z"/>
	</g>
	<g>
		<path fill="#FECD04" d="M25.4,10h-7.8c-0.9,0-1.6,0.7-1.6,1.6v4.5c0,0.9,0.7,1.6,1.6,1.6h7.8c0.9,0,1.6-0.7,1.6-1.6v-4.5
			C27,10.7,26.3,10,25.4,10z"/>
	</g>
	<g>
		<path fill="#425060" d="M23.9,11h-4.8V9.1c0-0.7,0.5-1.2,1.2-1.2h2.4c0.7,0,1.2,0.5,1.2,1.2V11z M20.1,10h2.8V9.1
			c0-0.1-0.1-0.2-0.2-0.2h-2.4c-0.1,0-0.2,0.1-0.2,0.2C20.1,9.1,20.1,10,20.1,10z"/>
	</g>
	<g>
		<path fill="#FFD731" d="M25.6,10h-8.1c-0.8,0-1.4,0.6-1.4,1.4v0.7c0,0.8,0.6,1.4,1.4,1.4h8.1c0.8,0,1.4-0.6,1.4-1.4v-0.7
			C27,10.7,26.3,10,25.6,10z"/>
	</g>
	<g>
		<path fill="#FFFFFF" d="M22,12.6h-1c-0.3,0-0.5,0.2-0.5,0.5v1.3c0,0.3,0.2,0.5,0.5,0.5h1c0.3,0,0.5-0.2,0.5-0.5v-1.3
			C22.5,12.8,22.3,12.6,22,12.6z"/>
	</g>
</g>
</svg>
