<?xml version="1.0" encoding="utf-8"?>
<!-- Generator: Adobe Illustrator 18.0.0, SVG Export Plug-In . SVG Version: 6.00 Build 0)  -->
<!DOCTYPE svg PUBLIC "-//W3C//DTD SVG 1.1//EN" "http://www.w3.org/Graphics/SVG/1.1/DTD/svg11.dtd">
<svg version="1.1" id="Layer_1" xmlns="http://www.w3.org/2000/svg" xmlns:xlink="http://www.w3.org/1999/xlink" x="0px" y="0px"
	 viewBox="0 0 50 50" enable-background="new 0 0 50 50" xml:space="preserve">
<g>
	<g>
		<g>
			<rect x="3.3" y="9.3" fill="#616B77" width="43.5" height="31.4"/>
		</g>
		<g>
			<path fill="#C9A28F" d="M46.3,6.9H3.8C2.2,6.9,1,8.2,1,9.7v30.6C1,41.8,2.2,43,3.8,43h42.5c1.5,0,2.7-1.2,2.7-2.7V9.7
				C49,8.2,47.8,6.9,46.3,6.9z M45.9,40H4.1V10H46L45.9,40L45.9,40z"/>
		</g>
		<g>
			<g>
				<g>
					<path fill="#E8CEC1" d="M46.3,6.9h-4.2V10H46v3.9h3V9.7C49,8.2,47.8,6.9,46.3,6.9z"/>
				</g>
				<g>
					<path fill="#E8CEC1" d="M1,9.7v4.2h3.1V10H8V6.9H3.7C2.2,6.9,1,8.2,1,9.7z"/>
				</g>
			</g>
			<g>
				<g>
					<path fill="#E8CEC1" d="M49,40.3v-4.2h-3.1V40H42v3.1h4.2C47.8,43.1,49,41.8,49,40.3z"/>
				</g>
				<g>
					<path fill="#E8CEC1" d="M3.8,43.1H8V40H4.1v-3.9H1v4.2C1,41.8,2.2,43.1,3.8,43.1z"/>
				</g>
			</g>
		</g>
	</g>
	<g>
		<path fill="#FFFFFF" d="M36.5,16.3L33,15.7c-0.6-0.1-1.1,0.3-1.2,0.8c-0.1,0.6,0.3,1.1,0.8,1.2l1.1,0.2l-4.8,3.4L27,18.7
			c-0.2-0.2-0.4-0.4-0.7-0.4c-0.3,0-0.5,0-0.8,0.2l-5.2,3.6l-1.6-2.3c-0.3-0.5-1-0.6-1.4-0.3l-4.4,3.1c-0.5,0.3-0.6,1-0.3,1.4
			c0.3,0.5,1,0.6,1.4,0.3l3.5-2.5l1.6,2.3c0.2,0.3,0.5,0.4,0.8,0.4c0.2,0,0.4-0.1,0.6-0.2l5.2-3.6l1.9,2.6c0.2,0.2,0.4,0.4,0.7,0.4
			c0.3,0,0.5,0,0.8-0.2l5.6-3.9l-0.2,1.1c-0.1,0.6,0.3,1.1,0.8,1.2c0.1,0,0.1,0,0.2,0c0.5,0,0.9-0.4,1-0.8l0.6-3.5
			C37.4,16.9,37.1,16.4,36.5,16.3z"/>
	</g>
	<g>
		<g>
			<rect x="10.6" y="28.5" fill="#FECD04" width="3" height="5.9"/>
		</g>
		<g>
			<rect x="17.1" y="30.8" fill="#ABB734" width="3" height="3.6"/>
		</g>
		<g>
			<rect x="23.5" y="26.9" fill="#FFB95C" width="3" height="7.5"/>
		</g>
		<g>
			<rect x="29.9" y="29.7" fill="#FA4968" width="3" height="4.7"/>
		</g>
		<g>
			<rect x="36.3" y="27.8" fill="#559AFF" width="3" height="6.6"/>
		</g>
	</g>
	<g>
		<g>
			<rect x="10.6" y="32.6" fill="#EABE06" width="3" height="1.7"/>
		</g>
		<g>
			<rect x="17.1" y="32.6" fill="#9B9B1B" width="3" height="1.7"/>
		</g>
		<g>
			<rect x="23.5" y="32.6" fill="#F9A846" width="3" height="1.7"/>
		</g>
		<g>
			<rect x="29.9" y="32.6" fill="#ED2F58" width="3" height="1.7"/>
		</g>
		<g>
			<rect x="36.3" y="32.6" fill="#3A8BED" width="3" height="1.7"/>
		</g>
	</g>
</g>
</svg>
