<?xml version="1.0" encoding="utf-8"?>
<!-- Generator: Adobe Illustrator 18.0.0, SVG Export Plug-In . SVG Version: 6.00 Build 0)  -->
<!DOCTYPE svg PUBLIC "-//W3C//DTD SVG 1.1//EN" "http://www.w3.org/Graphics/SVG/1.1/DTD/svg11.dtd">
<svg version="1.1" id="Layer_1" xmlns="http://www.w3.org/2000/svg" xmlns:xlink="http://www.w3.org/1999/xlink" x="0px" y="0px"
	 viewBox="0 0 50 50" enable-background="new 0 0 50 50" xml:space="preserve">
<g>
	<g>
		<ellipse fill="#559AFF" cx="41.2" cy="35.1" rx="3.4" ry="3.4"/>
	</g>
	<g>
		<path fill="#559AFF" d="M48.3,43.9c0,0.5-0.1,1-0.1,1.6c-0.3,1.6-1.7,2.8-3.4,2.8h-7.3c-1.6,0-3.1-1.1-3.4-2.8
			C34,45,34,44.4,34,43.9c0-3,1.8-4,4.4-4.4l2.8,2.4l2.8-2.4C46.5,39.9,48.3,40.9,48.3,43.9z"/>
	</g>
	<g>
		<ellipse fill="#FF8C83" cx="25" cy="4.7" rx="3.4" ry="3.4"/>
	</g>
	<g>
		<path fill="#FF8C83" d="M32.1,13.4c0,0.5-0.1,1-0.1,1.6c-0.3,1.6-1.7,2.8-3.4,2.8h-7.3c-1.6,0-3.1-1.1-3.4-2.8
			c-0.1-0.5-0.1-1.1-0.1-1.6c0-3,1.8-4,4.4-4.4l2.8,2.4L27.8,9C30.3,9.4,32.1,10.4,32.1,13.4z"/>
	</g>
	<g>
		<ellipse fill="#6E9583" cx="8.8" cy="35.1" rx="3.4" ry="3.4"/>
	</g>
	<g>
		<path fill="#6E9583" d="M15.9,43.9c0,0.5-0.1,1-0.1,1.6c-0.3,1.6-1.7,2.8-3.4,2.8H5.2c-1.6,0-3.1-1.1-3.4-2.8
			c-0.1-0.5-0.1-1.1-0.1-1.6c0-3,1.8-4,4.4-4.4l2.8,2.4l2.8-2.4C14.1,39.9,15.9,40.9,15.9,43.9z"/>
	</g>
	<g opacity="0.3">
		<g>
			<path fill="#FFFFFF" d="M44.8,46.4h-7.3c-0.8,0-1.5-0.6-1.6-1.3c-0.1-0.4-0.1-0.9-0.1-1.3h1c0,0.3,0,0.7,0.1,1.1
				c0,0.3,0.3,0.5,0.6,0.5h7.3c0.3,0,0.6-0.2,0.6-0.5c0.1-0.4,0.1-0.7,0.1-1.1h1c0,0.4,0,0.8-0.1,1.3C46.3,45.9,45.6,46.4,44.8,46.4
				z"/>
		</g>
		<g>
			<path fill="#FFFFFF" d="M28.6,16h-7.3c-0.8,0-1.5-0.6-1.6-1.3c-0.1-0.4-0.1-0.9-0.1-1.3h1c0,0.3,0,0.7,0.1,1.1
				c0,0.3,0.3,0.5,0.6,0.5h7.3c0.3,0,0.6-0.2,0.6-0.5c0.1-0.4,0.1-0.7,0.1-1.1h1c0,0.4,0,0.8-0.1,1.3C30.1,15.4,29.4,16,28.6,16z"/>
		</g>
		<g>
			<path fill="#FFFFFF" d="M12.4,46.4H5.2c-0.8,0-1.5-0.6-1.6-1.3c-0.1-0.5-0.1-0.9-0.1-1.3h1c0,0.3,0,0.7,0.1,1.1
				c0,0.3,0.3,0.5,0.6,0.5h7.3c0.3,0,0.6-0.2,0.6-0.5c0.1-0.4,0.1-0.7,0.1-1.1h1c0,0.4,0,0.8-0.1,1.3C13.9,45.9,13.2,46.4,12.4,46.4
				z"/>
		</g>
	</g>
	<g>
		<path fill="#425060" d="M7.7,29l-1-0.1c0.4-5.6,3.4-10.7,8.1-13.8l0.6,0.8C10.9,18.9,8.1,23.6,7.7,29z"/>
	</g>
	<g>
		<path fill="#425060" d="M25,48.8c-2.3,0-4.6-0.4-6.7-1.3l0.4-0.9c4.1,1.6,8.7,1.6,12.7,0l0.4,0.9C29.6,48.3,27.3,48.8,25,48.8z"/>
	</g>
	<g>
		<path fill="#425060" d="M42.3,29c-0.4-5.3-3.2-10.1-7.7-13.1l0.6-0.8c4.7,3.2,7.7,8.2,8.1,13.8L42.3,29z"/>
	</g>
	<g>
		<g>
			<path fill="#FA4968" d="M34.3,35.8c0,0-2.2-0.1-4-1.3c-1.5,0.8-3.3,1.3-5.3,1.3c-4.9,0-9-3.1-9-6.9s4-6.9,9-6.9s9,3.1,9,6.9
				c0,1.3-0.5,2.5-1.3,3.6C33,33.5,33.5,34.7,34.3,35.8z"/>
		</g>
		<g>
			<g>
				<circle fill="#FFFFFF" cx="20.2" cy="28.9" r="1.6"/>
			</g>
			<g>
				<circle fill="#FFFFFF" cx="25" cy="28.9" r="1.6"/>
			</g>
			<g>
				<circle fill="#FFFFFF" cx="29.8" cy="28.9" r="1.6"/>
			</g>
		</g>
	</g>
</g>
</svg>
