<?xml version="1.0" encoding="utf-8"?>
<!-- Generator: Adobe Illustrator 18.0.0, SVG Export Plug-In . SVG Version: 6.00 Build 0)  -->
<!DOCTYPE svg PUBLIC "-//W3C//DTD SVG 1.1//EN" "http://www.w3.org/Graphics/SVG/1.1/DTD/svg11.dtd">
<svg version="1.1" id="Layer_1" xmlns="http://www.w3.org/2000/svg" xmlns:xlink="http://www.w3.org/1999/xlink" x="0px" y="0px"
	 viewBox="0 0 50 50" enable-background="new 0 0 50 50" xml:space="preserve">
<g>
	<g>
		<g>
			<g>
				<g>
					<path fill="#FFD731" d="M14.3,11.3C14.5,5.8,19,1.3,24.4,1c6.2-0.3,11.3,4.6,11.3,10.7c0,3.8-1.9,7.1-4.9,9
						c-0.9,0.6-1.5,1.6-1.5,2.8v8.4h-8.8v-8.4c0-1.1-0.6-2.1-1.5-2.8C16.1,18.7,14.1,15.2,14.3,11.3z"/>
				</g>
			</g>
		</g>
		<g>
			<path fill="#616B77" d="M44.3,38.6L44.3,38.6c0,5.8-5,10.4-10.8,10.4H16.4c-5.8,0-10.7-4.6-10.8-10.3v-0.1
				c0-9,6.3-11.6,14.7-12.2l4.7,5.5l4.7-5.5c1.6,0.1,3.2,0.3,4.6,0.6C40.3,28.2,44.3,31.3,44.3,38.6z"/>
		</g>
		<g>
			<polygon fill="#FA4968" points="23.5,31.9 21.4,44.3 24.8,46.8 28.2,44.3 26.2,31.9 			"/>
		</g>
		<g>
			<path fill="#DDEDEB" d="M34.3,27l-4.8,8.4L25,31.9l4.7-5.5C31.3,26.5,32.8,26.7,34.3,27z"/>
		</g>
		<g>
			<path fill="#DDEDEB" d="M15.7,27l4.8,8.4l4.5-3.6l-4.7-5.5C18.7,26.5,17.2,26.7,15.7,27z"/>
		</g>
	</g>
	<g>
		<polygon fill="#425060" points="23.4,20.9 22.7,20.2 27.3,15.9 21.3,9.1 25.8,4.6 26.5,5.3 22.7,9.1 28.7,16 		"/>
	</g>
	<g>
		<circle fill="#6E9583" cx="28" cy="15.9" r="1.8"/>
	</g>
	<g>
		<circle fill="#559AFF" cx="22" cy="9.1" r="1.8"/>
	</g>
	<g>
		<polygon fill="#425060" points="26.5,6.7 25.5,6.5 25.6,5.4 24.5,5.6 24.4,4.6 26.8,4.3 		"/>
	</g>
	<g>
		<g>
			
				<rect x="29.5" y="7.3" transform="matrix(-0.7071 -0.7072 0.7072 -0.7071 44.9482 36.3607)" fill="#425060" width="1" height="3.1"/>
		</g>
		<g>
			
				<rect x="28.4" y="8.4" transform="matrix(-0.7072 -0.707 0.707 -0.7072 44.8358 36.3032)" fill="#425060" width="3.1" height="1"/>
		</g>
	</g>
	<g>
		<g>
			
				<rect x="20.4" y="13.3" transform="matrix(-0.7071 -0.7071 0.7071 -0.7071 25.1747 40.1253)" fill="#425060" width="1" height="3.1"/>
		</g>
		<g>
			
				<rect x="19.3" y="14.3" transform="matrix(-0.7069 -0.7073 0.7073 -0.7069 25.215 40.0054)" fill="#425060" width="3.1" height="1"/>
		</g>
	</g>
</g>
</svg>
