<?xml version="1.0" encoding="utf-8"?>
<!-- Generator: Adobe Illustrator 18.0.0, SVG Export Plug-In . SVG Version: 6.00 Build 0)  -->
<!DOCTYPE svg PUBLIC "-//W3C//DTD SVG 1.1//EN" "http://www.w3.org/Graphics/SVG/1.1/DTD/svg11.dtd">
<svg version="1.1" id="Layer_1" xmlns="http://www.w3.org/2000/svg" xmlns:xlink="http://www.w3.org/1999/xlink" x="0px" y="0px"
	 viewBox="0 0 50 50" enable-background="new 0 0 50 50" xml:space="preserve">
<g>
	<g>
		<g>
			<path fill="#E8CEC1" d="M20,44.1c-0.7,1.4-0.3,3.1,0.3,4.6c0,0.1,0.1,0.2,0.1,0.3h21.4c-7-7.2,0.7-21.3,2.2-27.1
				c2.1-8.3-1.3-13.6-5.2-16.8C34.6,1.7,29,0.4,23.5,1.3c-15,2.6-14.8,14-14.2,18.2c0.1,1-0.1,2.1-0.6,3l-3.2,5.2
				c-0.6,1-0.2,2.2,0.8,2.7l1.8,0.9V34l1.9,1.1L8.3,37l1.9,1.4L9.9,41c-0.2,1.6,1,3,2.6,3.1c3.2,0.3,8.4,0.3,12.7-1.6"/>
		</g>
	</g>
	<g>
		<g>
			<g>
				<circle fill="#6CD8D5" cx="33.4" cy="12.4" r="2.3"/>
			</g>
			<g>
				<circle fill="#FA4968" cx="25.6" cy="20.1" r="2.3"/>
			</g>
			<g>
				<circle fill="#559AFF" cx="17.9" cy="27.8" r="2.3"/>
			</g>
		</g>
		<g>
			<g>
				<g>
					<path fill="#425060" d="M30.8,22.1v-1c2,0,3.6-1.6,3.6-3.6h1C35.4,20.1,33.4,22.1,30.8,22.1z"/>
				</g>
				<g>
					<path fill="#425060" d="M16.8,22.7h-1c0-2.6,2.1-4.6,4.6-4.6v1C18.5,19.1,16.8,20.7,16.8,22.7z"/>
				</g>
			</g>
			<g>
				<g>
					<polygon fill="#425060" points="35.6,19.1 34.9,18.1 33.8,18.9 33.2,18 35.1,16.7 36.4,18.5 					"/>
				</g>
			</g>
		</g>
		<g>
			<g>
				
					<rect x="16.5" y="11.2" transform="matrix(-0.7071 -0.7071 0.7071 -0.7071 19.8454 34.0362)" fill="#425060" width="1" height="3.4"/>
			</g>
			<g>
				
					<rect x="15.3" y="12.4" transform="matrix(-0.7071 -0.7071 0.7071 -0.7071 19.8454 34.0362)" fill="#425060" width="3.4" height="1"/>
			</g>
		</g>
		<g>
			<g>
				
					<rect x="27.8" y="27.3" transform="matrix(-0.7071 -0.7071 0.7071 -0.7071 27.8737 69.4911)" fill="#425060" width="1" height="3.4"/>
			</g>
			<g>
				
					<rect x="26.7" y="28.5" transform="matrix(-0.7072 -0.707 0.707 -0.7072 27.9541 69.6637)" fill="#425060" width="3.4" height="1"/>
			</g>
		</g>
		<g>
			<polygon fill="#425060" points="24.6,11.9 23.2,10.5 23.9,9.8 24.6,10.5 26.8,8.3 27.5,9 			"/>
		</g>
	</g>
</g>
</svg>
