<?xml version="1.0" encoding="utf-8"?>
<!-- Generator: Adobe Illustrator 18.0.0, SVG Export Plug-In . SVG Version: 6.00 Build 0)  -->
<!DOCTYPE svg PUBLIC "-//W3C//DTD SVG 1.1//EN" "http://www.w3.org/Graphics/SVG/1.1/DTD/svg11.dtd">
<svg version="1.1" id="Layer_1" xmlns="http://www.w3.org/2000/svg" xmlns:xlink="http://www.w3.org/1999/xlink" x="0px" y="0px"
	 viewBox="0 0 50 50" enable-background="new 0 0 50 50" xml:space="preserve">
<g>
	<g>
		<path fill="#616B77" d="M27.7,46.9H9.9c-1.6,0-3-1.3-3-3V6c0-1.6,1.3-3,3-3h17.8c1.6,0,3,1.3,3,3v38
			C30.7,45.6,29.4,46.9,27.7,46.9z"/>
	</g>
	<g>
		<path fill="#559AFF" d="M28.4,6.8v33.7c0,0.2-0.2,0.4-0.4,0.4H9.7c-0.2,0-0.4-0.2-0.4-0.4V6.8c0-0.2,0.2-0.4,0.4-0.4H16
			c0.6,0,1.1,0.3,1.4,0.8l0,0c0.6,1.1,2.2,1.1,2.8,0l0,0c0.3-0.5,0.8-0.8,1.4-0.8h6.3C28.2,6.3,28.4,6.5,28.4,6.8z"/>
	</g>
	<g>
		<rect x="13" y="4.1" fill="#FFFFFF" width="1.5" height="1"/>
	</g>
	<g>
		<rect x="10.7" y="4.1" fill="#FFFFFF" width="0.5" height="1"/>
	</g>
	<g>
		<path fill="#FFCA8A" d="M38.6,12.2V35c-4.9-4-10.9-6.7-17.9-7.8v-7.1C27.8,18.9,33.7,16.3,38.6,12.2z"/>
	</g>
	<g>
		<path fill="#F9A846" d="M20.7,23.8v3.4c7.1,1.2,13,3.8,17.9,7.8V23.8H20.7z"/>
	</g>
	<g>
		<path fill="#FFB95C" d="M38.6,18.6v10c-4.9-1.8-10.9-2.9-17.9-3.4V22C27.8,21.5,33.7,20.4,38.6,18.6z"/>
	</g>
	<g>
		<path fill="#E5E5E5" d="M39.5,20.1c-0.3,0-0.6,0.1-0.9,0.1V27c0.3,0.1,0.6,0.1,0.9,0.1c2,0,3.5-1.6,3.5-3.5S41.5,20.1,39.5,20.1z"
			/>
	</g>
	<g>
		<path fill="#CCCACA" d="M40.3,20.2c-0.2-0.1-0.5-0.1-0.8-0.1s-0.6,0.1-0.9,0.1V27c0.3,0.1,0.6,0.1,0.9,0.1c0.3,0,0.5,0,0.8-0.1
			V20.2z"/>
	</g>
	<g>
		<path fill="#E5E5E5" d="M20.7,20v7.3c0,1.3-1.1,2.4-2.4,2.4h-6.7c-1.3,0-2.4-1.1-2.4-2.4V20c0-1.3,1.1-2.4,2.4-2.4h6.7
			C19.6,17.6,20.7,18.6,20.7,20z"/>
	</g>
	<g>
		<circle fill="#FFFFFF" cx="19.2" cy="43.8" r="1.2"/>
	</g>
</g>
</svg>
