<?xml version="1.0" encoding="utf-8"?>
<!-- Generator: Adobe Illustrator 18.0.0, SVG Export Plug-In . SVG Version: 6.00 Build 0)  -->
<!DOCTYPE svg PUBLIC "-//W3C//DTD SVG 1.1//EN" "http://www.w3.org/Graphics/SVG/1.1/DTD/svg11.dtd">
<svg version="1.1" id="Layer_1" xmlns="http://www.w3.org/2000/svg" xmlns:xlink="http://www.w3.org/1999/xlink" x="0px" y="0px"
	 viewBox="0 0 50 50" enable-background="new 0 0 50 50" xml:space="preserve">
<g>
	<g>
		<g>
			<g>
				<g>
					<g>
						<rect x="11.9" y="12.3" fill="#E8CEC1" width="26.1" height="2.5"/>
					</g>
					<g>
						<polygon fill="#C9A28F" points="34.9,34.3 36,14.8 14,14.8 15.1,34.3 						"/>
					</g>
				</g>
			</g>
			<g>
				<rect x="12.9" y="34.3" fill="#E8CEC1" width="24.1" height="3.7"/>
			</g>
		</g>
		<g>
			<circle fill="#D9BAA8" cx="25" cy="22.4" r="3.3"/>
		</g>
	</g>
	<g>
		<g>
			<path fill="#FFB95C" d="M13.2,29.6c-3.2,0-5.9,2.6-5.9,5.9v4.2h11.8v-4.2C19.1,32.2,16.5,29.6,13.2,29.6z"/>
		</g>
		<g>
			<path fill="#F76861" d="M25,29.6c-3.2,0-5.9,2.6-5.9,5.9v4.2h11.8v-4.2C30.9,32.2,28.2,29.6,25,29.6z"/>
		</g>
		<g>
			<path fill="#6E9583" d="M36.7,29.6c-3.2,0-5.9,2.6-5.9,5.9v4.2h11.8v-4.2C42.6,32.2,40,29.6,36.7,29.6z"/>
		</g>
		<g>
			<path fill="#FA4968" d="M7.2,35.1C4,35.2,1.5,38,1.5,41.2V46c0,1.1,0.9,2,2,2h7.8c1.1,0,2-0.9,2-2v-5C13.3,37.7,10.5,35,7.2,35.1
				z"/>
		</g>
		<g>
			<path fill="#6CD8D5" d="M18.9,35.1c-3.2,0.1-5.7,2.9-5.7,6.1V46c0,1.1,0.9,2,2,2H23c1.1,0,2-0.9,2-2v-5
				C25,37.7,22.3,35,18.9,35.1z"/>
		</g>
		<g>
			<path fill="#559AFF" d="M30.7,35.1C27.5,35.2,25,38,25,41.2V46c0,1.1,0.9,2,2,2h7.8c1.1,0,2-0.9,2-2v-5
				C36.8,37.7,34,35,30.7,35.1z"/>
		</g>
		<g>
			<path fill="#FECD04" d="M42.4,35.1c-3.2,0.1-5.7,2.9-5.7,6.1V46c0,1.1,0.9,2,2,2h7.8c1.1,0,2-0.9,2-2v-5
				C48.5,37.7,45.8,35,42.4,35.1z"/>
		</g>
	</g>
	<g>
		<g>
			<g>
				<path fill="#425060" d="M33.7,12.3h-1V7.9c0-0.8-0.3-1.5-0.8-2l-0.5-0.5l0.7-0.7l0.5,0.5c0.7,0.7,1.1,1.7,1.1,2.7V12.3z"/>
			</g>
			<g>
				<circle fill="#ABB734" cx="30.4" cy="3.9" r="1.4"/>
				<path fill="#ABB734" d="M30.4,5.8c-1,0-1.9-0.8-1.9-1.9S29.4,2,30.4,2s1.9,0.8,1.9,1.9S31.4,5.8,30.4,5.8z M30.4,3
					c-0.5,0-0.9,0.4-0.9,0.9s0.4,0.9,0.9,0.9s0.9-0.4,0.9-0.9S30.9,3,30.4,3z"/>
			</g>
		</g>
		<g>
			<g>
				<path fill="#425060" d="M17.3,12.3h-1V7.9c0-1,0.4-2,1.1-2.7l0.5-0.5l0.7,0.7l-0.5,0.5c-0.5,0.5-0.8,1.3-0.8,2
					C17.3,7.9,17.3,12.3,17.3,12.3z"/>
			</g>
			<g>
				<circle fill="#FA4968" cx="19.6" cy="3.9" r="1.4"/>
				<path fill="#FA4968" d="M19.6,5.8c-1,0-1.9-0.8-1.9-1.9S18.6,2,19.6,2s1.9,0.8,1.9,1.9S20.6,5.8,19.6,5.8z M19.6,3
					c-0.5,0-0.9,0.4-0.9,0.9s0.4,0.9,0.9,0.9s0.9-0.4,0.9-0.9S20.1,3,19.6,3z"/>
			</g>
		</g>
	</g>
</g>
</svg>
