<?xml version="1.0" encoding="utf-8"?>
<!-- Generator: Adobe Illustrator 18.0.0, SVG Export Plug-In . SVG Version: 6.00 Build 0)  -->
<!DOCTYPE svg PUBLIC "-//W3C//DTD SVG 1.1//EN" "http://www.w3.org/Graphics/SVG/1.1/DTD/svg11.dtd">
<svg version="1.1" id="Layer_1" xmlns="http://www.w3.org/2000/svg" xmlns:xlink="http://www.w3.org/1999/xlink" x="0px" y="0px"
	 viewBox="0 0 50 50" enable-background="new 0 0 50 50" xml:space="preserve">
<g>
	<g>
		<path fill="#FFB95C" d="M21.6,44.2c0,1.7-2.5,1.8-2.7,0.1c-0.3-3-1-8.7-1-8.7L11,36.4c-1.5,0.2-2.9-1-2.9-2.5c0-0.4,0-0.7-0.1-1
			l0,0c-0.9-3-1.3-6.3-1.5-9.9c-0.1-1.7,1.3-2.1,3-2.2s3.1,0.3,3.2,2c0.1,3.2,0.6,6.1,1.3,8.6l0.1,0.1l3.2-0.4
			c1.6-0.2,3.1,0.9,3.3,2.6C21,37.2,21.5,42.7,21.6,44.2z"/>
	</g>
	<g>
		<path fill="#FA4968" d="M28.4,44.2c0,1.7,2.5,1.8,2.7,0.1c0.3-3,1-8.7,1-8.7l6.8,0.7c1.5,0.2,2.9-1,2.9-2.5c0-0.4,0-0.7,0.1-1l0,0
			c0.9-3,1.4-6.3,1.5-9.9c0.1-1.7-1.3-2.1-3-2.2s-3.1,0.3-3.2,2c-0.1,3.2-0.6,6.1-1.3,8.6l-0.1,0.1L32.7,31
			c-1.6-0.2-3.1,0.9-3.3,2.6C29,37.2,28.5,42.7,28.4,44.2z"/>
	</g>
	<g>
		<path fill="#ABB734" d="M42,32.9L42,32.9c0,0.1-6.1-1.4-6.1-1.4s0-0.1,0.1-0.1c0.8-2.5,1.2-5.4,1.3-8.6c0.1-1.7,1.5-2,3.2-2
			c1.7,0.1,3.1,0.5,3,2.2C43.4,26.6,42.9,29.9,42,32.9L42,32.9z"/>
	</g>
	<g>
		<path fill="#C6CC4A" d="M41.7,22.3c-1,0.1-1.3,1.1-0.9,3.2c0,0.8,0,1.5,0,2.3c-0.1,1.6-0.3,3.2-0.8,4.6c-0.2,0.6,0,1.2,0.6,1.4
			c1.7,0.6,2-2.1,2.3-3.2c0.5-2.2,0.7-4.4,0.6-6.7C43.5,23,42.7,22.2,41.7,22.3z"/>
	</g>
	<g>
		<ellipse fill="#616B77" cx="40.5" cy="16.4" rx="2.6" ry="2.6"/>
	</g>
	<g>
		
			<rect x="35.9" y="31.5" transform="matrix(-0.9733 -0.2296 0.2296 -0.9733 67.6278 71.8765)" fill="#425060" width="4.2" height="1"/>
	</g>
	<g>
		<path fill="#559AFF" d="M36.1,41.7c-0.2,0-0.4,0-0.5-0.1c-0.8-0.1-1.4-0.9-1.3-1.7c0.1-0.8,0.9-1.4,1.7-1.3c2,0.2,5.4,0.2,6.3-0.6
			c1.2-0.9,2.5-6.7,3.1-11.5c0.1-0.8,0.9-1.4,1.7-1.3s1.5,0.9,1.4,1.7c-0.3,2.6-1.5,11.3-4.2,13.5C42.2,42.1,37.8,41.9,36.1,41.7z"
			/>
	</g>
	<g>
		<path fill="#ABB734" d="M8,32.9L8,32.9c0,0.1,6.1-1.4,6.1-1.4s0-0.1-0.1-0.1c-0.8-2.5-1.2-5.4-1.3-8.6c-0.1-1.7-1.5-2-3.2-2
			c-1.7,0.1-3.1,0.5-3,2.2C6.6,26.6,7.1,29.9,8,32.9L8,32.9z"/>
	</g>
	<g>
		<path fill="#C6CC4A" d="M8.3,22.3c1,0.1,1.3,1.1,0.9,3.2c0,0.8,0,1.5,0,2.3c0.1,1.6,0.3,3.2,0.8,4.6c0.2,0.6,0,1.2-0.6,1.4
			c-1.7,0.6-2-2.1-2.3-3.2c-0.5-2.2-0.7-4.4-0.6-6.7C6.5,23,7.3,22.2,8.3,22.3z"/>
	</g>
	<g>
		<ellipse fill="#616B77" cx="9.5" cy="16.4" rx="2.6" ry="2.6"/>
	</g>
	<g>
		
			<rect x="11.5" y="29.9" transform="matrix(-0.2296 -0.9733 0.9733 -0.2296 -16.3602 50.9653)" fill="#425060" width="1" height="4.2"/>
	</g>
	<g>
		<path fill="#559AFF" d="M13.9,41.7c0.2,0,0.4,0,0.5-0.1c0.8-0.1,1.4-0.9,1.3-1.7c-0.1-0.8-0.9-1.4-1.7-1.3c-2,0.2-5.4,0.2-6.3-0.6
			c-1.2-0.9-2.5-6.7-3.1-11.5c-0.1-0.8-0.9-1.4-1.7-1.3s-1.5,0.9-1.4,1.7C1.8,29.5,3,38.3,5.7,40.4C7.8,42.1,12.2,41.9,13.9,41.7z"
			/>
	</g>
	<g>
		<g>
			<rect x="16.1" y="25.2" fill="#E8CEC1" width="17.7" height="2.9"/>
		</g>
		<g>
			<rect x="23.6" y="28.1" fill="#D9BAA8" width="2.8" height="17.4"/>
		</g>
	</g>
	<g>
		<path fill="#F4F4F4" d="M21.1,5l-2.4,2.4c-0.4,0.4-0.6,0.9-0.6,1.4V21c0,0.7,0.5,1.2,1.2,1.2H30c0.7,0,1.2-0.5,1.2-1.2V5.6
			c0-0.7-0.5-1.2-1.2-1.2h-7.5C22,4.5,21.5,4.7,21.1,5z"/>
	</g>
	<g>
		<path fill="#F4F4F4" d="M31.2,5.6V21c0,0.7-0.5,1.2-1.2,1.2H19.3c-0.7,0-1.2-0.5-1.2-1.2V8.8c0-0.3,0.1-0.6,0.2-0.8
			s0.2-0.4,0.4-0.6L21.1,5c0.2-0.2,0.4-0.3,0.6-0.4c0.3-0.1,0.5-0.2,0.8-0.2H30C30.7,4.5,31.2,5,31.2,5.6z"/>
	</g>
	<g>
		<path fill="#CCCACA" d="M21.7,4.6V7c0,0.5-0.4,0.9-0.9,0.9h-2.5c0.1-0.2,0.2-0.4,0.4-0.6L21.1,5C21.3,4.8,21.5,4.7,21.7,4.6z"/>
	</g>
	<g>
		<g>
			<line fill="none" x1="23.7" y1="6" x2="26" y2="6"/>
			<rect x="23.7" y="5.5" fill="#FFFFFF" width="2.3" height="1"/>
		</g>
		<g>
			<line fill="none" x1="27" y1="6" x2="27.9" y2="6"/>
			<rect x="27" y="5.5" fill="#FFFFFF" width="0.9" height="1"/>
		</g>
	</g>
</g>
</svg>
