<?xml version="1.0" encoding="utf-8"?>
<!-- Generator: Adobe Illustrator 18.0.0, SVG Export Plug-In . SVG Version: 6.00 Build 0)  -->
<!DOCTYPE svg PUBLIC "-//W3C//DTD SVG 1.1//EN" "http://www.w3.org/Graphics/SVG/1.1/DTD/svg11.dtd">
<svg version="1.1" id="Layer_1" xmlns="http://www.w3.org/2000/svg" xmlns:xlink="http://www.w3.org/1999/xlink" x="0px" y="0px"
	 viewBox="0 0 50 50" enable-background="new 0 0 50 50" xml:space="preserve">
<g>
	<g>
		<path fill="#425060" d="M28.1,36.9H22v-2.7c0-0.7,0.5-1.2,1.2-1.2h3.7c0.7,0,1.2,0.5,1.2,1.2C28.1,34.2,28.1,36.9,28.1,36.9z
			 M23,35.9h4.2v-1.7c0-0.1-0.1-0.2-0.2-0.2h-3.7c-0.1,0-0.2,0.1-0.2,0.2L23,35.9L23,35.9z"/>
	</g>
	<g>
		<path fill="#9B9B1B" d="M38.8,13.5c-1,2-2.3,4-3.7,5.8s-3.1,3.5-4.8,4.6c-0.8,0.4-1,1.4-0.5,2.2c1.5,2,4.1-0.9,5.4-1.7
			c3-2.6,5.3-5.5,7.4-8.9C43.8,13,40.1,11,38.8,13.5L38.8,13.5z"/>
	</g>
	<g>
		<path fill="#6E9583" d="M36.1,46.9c0.2,2.4,3.8,2.3,3.8-0.1c0-4.3-0.1-8.4,1.3-12.6c-0.1,2.9,0.2,5.8,1.1,8.6
			c0.4,1.5,0.8,3,1.3,4.5c0.3,1,1.3,1.5,2.3,1.2c0.9-0.3,1.5-1.2,1.3-2.1c-0.9-4.3-2-8.6-1.1-13.1c0.2-1.5,0.4-3,0.7-4.5l0,0
			c0.8-4.4,1.1-9.2,0.8-14.3c-0.1-2.4-2.2-2.9-4.6-2.7s-4.4,0.8-4.3,3.3c0.3,4.6,0,8.8-0.7,12.5c0,0.1-0.1,0.1-0.1,0.2
			c-0.8,3.3-1.5,6.2-2,9.6C35.6,40.6,35.9,43.7,36.1,46.9z"/>
	</g>
	<g>
		<path fill="#ABB734" d="M46.6,28.8v0.1l-8.9-1.3c0-0.1,0-0.1,0.1-0.2c0.7-3.7,1-7.9,0.7-12.5c-0.1-2.4,1.8-3.1,4.3-3.3
			c2.5-0.1,4.5,0.3,4.6,2.7C47.7,19.6,47.5,24.5,46.6,28.8L46.6,28.8z"/>
	</g>
	<g>
		<path fill="#C6CC4A" d="M44.9,13.8c-1.4,0.3-1.8,1.8-0.8,4.7c0.2,1.1,0.3,2.2,0.3,3.3c0.1,2.3,0,4.7-0.6,6.7c-0.3,0.8,0.2,1.7,1,2
			c2.4,0.6,2.5-3.3,2.9-4.8c0.4-3.2,0.4-6.4,0-9.6C47.5,14.5,46.2,13.5,44.9,13.8z"/>
	</g>
	<g>
		<ellipse fill="#616B77" cx="42.3" cy="5.4" rx="3.8" ry="3.7"/>
	</g>
	<g>
		
			<rect x="37.7" y="27.6" transform="matrix(-0.9902 -0.1396 0.1396 -0.9902 77.078 61.5924)" fill="#425060" width="6" height="1"/>
	</g>
	<g>
		<path fill="#ED2F58" d="M11.3,13.5c1,2,2.3,4,3.7,5.8s3.1,3.5,4.8,4.6c0.8,0.4,1,1.4,0.5,2.2c-1.5,2-4.1-0.9-5.4-1.7
			c-3-2.6-5.3-5.5-7.4-8.9C6.3,13,10,11,11.3,13.5L11.3,13.5z"/>
	</g>
	<g>
		<path fill="#559AFF" d="M14,46.9c-0.2,2.4-3.8,2.3-3.8-0.1c0-4.3,0.1-8.4-1.3-12.6C9,37.1,8.8,40,7.8,42.8c-0.4,1.5-0.8,3-1.3,4.5
			c-0.3,1-1.3,1.5-2.3,1.2c-0.9-0.3-1.5-1.2-1.3-2.1c0.9-4.3,2-8.6,1.1-13.1c-0.2-1.5-0.4-3-0.7-4.5l0,0c-0.8-4.4-1.1-9.2-0.8-14.3
			c0.1-2.4,2.2-2.9,4.6-2.7c2.5,0.1,4.4,0.8,4.3,3.3c-0.3,4.6,0,8.8,0.7,12.5c0,0.1,0.1,0.1,0.1,0.2c0.8,3.3,1.5,6.2,2,9.6
			C14.5,40.6,14.2,43.7,14,46.9z"/>
	</g>
	<g>
		<path fill="#FA4968" d="M3.4,28.8v0.1l8.9-1.3c0-0.1,0-0.1-0.1-0.2c-0.7-3.7-1-7.9-0.7-12.5c0.1-2.4-1.8-3.1-4.3-3.3
			c-2.5-0.1-4.5,0.3-4.6,2.7C2.3,19.6,2.6,24.5,3.4,28.8L3.4,28.8z"/>
	</g>
	<g>
		<path fill="#FF6989" d="M5.1,13.8c1.4,0.3,1.8,1.8,0.8,4.7c-0.2,1.1-0.3,2.2-0.3,3.3c-0.1,2.3,0,4.7,0.6,6.7c0.3,0.8-0.2,1.7-1,2
			c-2.4,0.6-2.5-3.3-2.9-4.8c-0.4-3.2-0.4-6.4,0-9.6C2.5,14.5,3.8,13.5,5.1,13.8z"/>
	</g>
	<g>
		<ellipse fill="#616B77" cx="7.8" cy="5.4" rx="3.8" ry="3.7"/>
	</g>
	<g>
		
			<rect x="8.8" y="25.1" transform="matrix(-0.1387 -0.9903 0.9903 -0.1387 -17.1822 41.2071)" fill="#425060" width="1" height="6"/>
	</g>
	<g>
		<path fill="#559AFF" d="M16.1,15.1c0,0,2.1-0.1,3.9-1.3c1.4,0.8,3.2,1.3,5.2,1.3C30,15.1,34,12,34,8.2s-3.9-6.9-8.7-6.9
			s-8.7,3.1-8.7,6.9c0,1.3,0.4,2.5,1.2,3.5C17.4,12.8,16.9,14,16.1,15.1z"/>
	</g>
	<g>
		<ellipse fill="#FFFFFF" cx="29.9" cy="8.2" rx="1.5" ry="1.6"/>
	</g>
	<g>
		<ellipse fill="#FFFFFF" cx="25.2" cy="8.2" rx="1.5" ry="1.6"/>
	</g>
	<g>
		<ellipse fill="#FFFFFF" cx="20.6" cy="8.2" rx="1.5" ry="1.6"/>
	</g>
	<g>
		<path fill="#525F70" d="M30.4,35.9H19.7c-1.2,0-2.1,1-2.1,2.1v6.1c0,1.2,1,2.1,2.1,2.1h10.7c1.2,0,2.1-1,2.1-2.1V38
			C32.5,36.8,31.6,35.9,30.4,35.9z"/>
	</g>
	<g>
		<path fill="#616B77" d="M30.6,35.9H19.5c-1.1,0-1.9,0.9-1.9,1.9v1c0,1.1,0.9,1.9,1.9,1.9h11.1c1.1,0,1.9-0.9,1.9-1.9v-1
			C32.5,36.8,31.6,35.9,30.6,35.9z"/>
	</g>
	<g>
		<path fill="#FFFFFF" d="M25.7,39.4h-1.4c-0.4,0-0.6,0.3-0.6,0.6v1.8c0,0.4,0.3,0.6,0.6,0.6h1.4c0.4,0,0.6-0.3,0.6-0.6V40
			C26.4,39.7,26.1,39.4,25.7,39.4z"/>
	</g>
</g>
</svg>
