<?xml version="1.0" encoding="utf-8"?>
<!-- Generator: Adobe Illustrator 18.0.0, SVG Export Plug-In . SVG Version: 6.00 Build 0)  -->
<!DOCTYPE svg PUBLIC "-//W3C//DTD SVG 1.1//EN" "http://www.w3.org/Graphics/SVG/1.1/DTD/svg11.dtd">
<svg version="1.1" id="Layer_1" xmlns="http://www.w3.org/2000/svg" xmlns:xlink="http://www.w3.org/1999/xlink" x="0px" y="0px"
	 viewBox="0 0 50 50" enable-background="new 0 0 50 50" xml:space="preserve">
<g>
	<g>
		<path fill="#ABB734" d="M48.3,36.7c0,0.5-0.1,1-0.1,1.6c-0.3,1.6-1.7,2.8-3.4,2.8h-7.2c-1.6,0-3.1-1.1-3.4-2.8
			c-0.1-0.5-0.1-1.1-0.1-1.6c0-3,1.8-4,4.4-4.4l2.8,2.3l2.8-2.3C46.5,32.6,48.3,33.7,48.3,36.7z"/>
	</g>
	<g opacity="0.3">
		<path fill="#FFFFFF" d="M44.8,39.2h-7.2c-0.8,0-1.5-0.6-1.6-1.3c-0.1-0.4-0.1-0.9-0.1-1.3h1c0,0.3,0,0.7,0.1,1.1
			c0,0.3,0.3,0.5,0.6,0.5h7.2c0.3,0,0.6-0.2,0.6-0.5c0.1-0.4,0.1-0.7,0.1-1.1h1c0,0.4,0,0.8-0.1,1.3C46.3,38.6,45.6,39.2,44.8,39.2z
			"/>
	</g>
	<g>
		<ellipse fill="#ABB734" cx="41.2" cy="27.9" rx="3.4" ry="3.4"/>
	</g>
	<g>
		<path fill="#559AFF" d="M32.1,36.7c0,0.5-0.1,1-0.1,1.6c-0.3,1.6-1.7,2.8-3.4,2.8h-7.2c-1.6,0-3.1-1.1-3.4-2.8
			c-0.1-0.5-0.1-1.1-0.1-1.6c0-3,1.8-4,4.4-4.4l2.8,2.3l2.8-2.3C30.3,32.6,32.1,33.7,32.1,36.7z"/>
	</g>
	<g opacity="0.3">
		<path fill="#FFFFFF" d="M28.6,39.2h-7.2c-0.8,0-1.5-0.6-1.6-1.3c-0.1-0.4-0.1-0.9-0.1-1.3h1c0,0.3,0,0.7,0.1,1.1
			c0,0.3,0.3,0.5,0.6,0.5h7.2c0.3,0,0.6-0.2,0.6-0.5c0.1-0.4,0.1-0.7,0.1-1.1h1c0,0.4,0,0.8-0.1,1.3C30.1,38.6,29.4,39.2,28.6,39.2z
			"/>
	</g>
	<g>
		<g>
			<ellipse fill="#559AFF" cx="25" cy="27.9" rx="3.4" ry="3.4"/>
		</g>
		<g>
			<ellipse fill="#FF8C83" cx="8.8" cy="27.9" rx="3.4" ry="3.4"/>
		</g>
	</g>
	<g>
		<path fill="#FF8C83" d="M16,36.7c0,0.5-0.1,1-0.1,1.6c-0.3,1.6-1.7,2.8-3.4,2.8H5.2c-1.6,0-3.1-1.1-3.4-2.8
			c-0.1-0.5-0.1-1.1-0.1-1.6c0-3,1.8-4,4.4-4.4l2.8,2.3l2.8-2.3C14.2,32.6,16,33.7,16,36.7z"/>
	</g>
	<g opacity="0.3">
		<path fill="#FFFFFF" d="M12.5,39.2H5.2c-0.8,0-1.5-0.6-1.6-1.3c-0.1-0.4-0.1-0.9-0.1-1.3h1c0,0.3,0,0.7,0.1,1.1
			c0,0.3,0.3,0.5,0.6,0.5h7.2c0.3,0,0.6-0.2,0.6-0.5c0.1-0.4,0.1-0.7,0.1-1.1h1c0,0.4,0,0.8-0.1,1.3C14,38.6,13.3,39.2,12.5,39.2z"
			/>
	</g>
	<g>
		<g>
			<ellipse fill="#6CD8D5" cx="33.8" cy="20.4" rx="3.4" ry="3.4"/>
		</g>
		<g>
			<g>
				<ellipse fill="#FFB95C" cx="17.6" cy="20.4" rx="3.4" ry="3.4"/>
			</g>
		</g>
	</g>
	<g>
		<g>
			<g>
				<ellipse fill="#FA4968" cx="25.7" cy="12.5" rx="3.4" ry="3.4"/>
			</g>
		</g>
	</g>
</g>
</svg>
