<?xml version="1.0" encoding="utf-8"?>
<!-- Generator: Adobe Illustrator 18.0.0, SVG Export Plug-In . SVG Version: 6.00 Build 0)  -->
<!DOCTYPE svg PUBLIC "-//W3C//DTD SVG 1.1//EN" "http://www.w3.org/Graphics/SVG/1.1/DTD/svg11.dtd">
<svg version="1.1" id="Layer_1" xmlns="http://www.w3.org/2000/svg" xmlns:xlink="http://www.w3.org/1999/xlink" x="0px" y="0px"
	 viewBox="0 0 50 50" enable-background="new 0 0 50 50" xml:space="preserve">
<g>
	<g>
		<path fill="#9B9B1B" d="M34.7,16.4c-0.9,1.8-2.1,3.6-3.4,5.3c-1.3,1.6-2.8,3.2-4.4,4.2c-0.7,0.4-0.9,1.3-0.5,2
			c1.3,1.9,3.7-0.8,4.9-1.6c2.7-2.4,4.9-5,6.7-8.1C39.3,15.9,35.9,14.1,34.7,16.4L34.7,16.4z"/>
	</g>
	<g>
		<path fill="#6E9583" d="M32.3,46.9c0.2,2.2,3.5,2.1,3.5-0.1c0-3.9-0.1-7.7,1.2-11.5c0,2.7,0.2,5.3,1,7.9c0.4,1.4,0.8,2.8,1.2,4.1
			c0.3,0.9,1.2,1.4,2.1,1.1c0.8-0.2,1.3-1.1,1.2-1.9c-0.8-4-1.8-7.9-1-11.9c0.2-1.4,0.4-2.8,0.6-4.1l0,0c0.8-4,1-8.4,0.7-13.1
			c-0.1-2.2-2-2.6-4.2-2.5s-4,0.7-3.9,3c0.2,4.2,0,8-0.7,11.5c0,0.1,0,0.1-0.1,0.2c-0.7,3-1.4,5.6-1.8,8.8
			C31.8,41.1,32.1,43.9,32.3,46.9z"/>
	</g>
	<g>
		<path fill="#ABB734" d="M41.9,30.4v0.1l-8.1-1.2c0-0.1,0-0.1,0.1-0.2c0.7-3.4,0.9-7.3,0.7-11.5c-0.1-2.2,1.6-2.8,3.9-3
			c2.2-0.1,4.1,0.3,4.2,2.5C42.9,21.9,42.7,26.3,41.9,30.4L41.9,30.4z"/>
	</g>
	<g>
		<path fill="#C6CC4A" d="M40.3,16.6c-1.3,0.3-1.6,1.6-0.8,4.3c0.1,1,0.2,2,0.3,3c0.1,2.1,0,4.3-0.5,6.1c-0.3,0.8,0.2,1.6,0.9,1.8
			c2.2,0.5,2.3-3,2.6-4.4c0.4-3,0.4-5.9,0-8.8C42.7,17.3,41.5,16.3,40.3,16.6z"/>
	</g>
	<g>
		<ellipse fill="#616B77" cx="38" cy="9" rx="3.4" ry="3.4"/>
	</g>
	<g>
		<rect x="33.8" y="29.2" transform="matrix(-0.9902 -0.14 0.14 -0.9902 68.5789 64.2301)" fill="#425060" width="5.5" height="1"/>
	</g>
	<g>
		<path fill="#ED2F58" d="M15.4,16.4c0.9,1.8,2.1,3.6,3.4,5.3c1.3,1.6,2.8,3.2,4.4,4.2c0.7,0.4,0.9,1.3,0.5,2
			c-1.3,1.9-3.7-0.8-4.9-1.6c-2.7-2.4-4.9-5-6.7-8.1C10.8,15.9,14.1,14.1,15.4,16.4L15.4,16.4z"/>
	</g>
	<g>
		<path fill="#559AFF" d="M17.8,46.9c-0.2,2.2-3.5,2.1-3.5-0.1c0-3.9,0.1-7.7-1.2-11.5c0,2.7-0.2,5.3-1,7.9
			c-0.4,1.4-0.8,2.8-1.2,4.1c-0.3,0.9-1.2,1.4-2.1,1.1c-0.8-0.2-1.3-1.1-1.2-1.9c0.8-4,1.8-7.9,1-11.9c-0.2-1.4-0.4-2.8-0.6-4.1l0,0
			c-0.8-4-1-8.4-0.7-13.1c0.1-2.2,2-2.6,4.2-2.5s4,0.7,3.9,3c-0.2,4.2,0,8,0.7,11.5c0,0.1,0,0.1,0.1,0.2c0.7,3,1.4,5.6,1.8,8.8
			C18.3,41.1,18,43.9,17.8,46.9z"/>
	</g>
	<g>
		<path fill="#FA4968" d="M8.2,30.4v0.1l8.1-1.2c0-0.1,0-0.1-0.1-0.2c-0.7-3.4-0.9-7.3-0.7-11.5c0.1-2.2-1.6-2.8-3.9-3
			c-2.2-0.1-4.1,0.3-4.2,2.5C7.2,21.9,7.4,26.3,8.2,30.4L8.2,30.4z"/>
	</g>
	<g>
		<path fill="#FF6989" d="M9.7,16.6c1.3,0.3,1.6,1.6,0.8,4.3c-0.1,1-0.2,2-0.3,3c-0.1,2.1,0,4.3,0.5,6.1c0.3,0.8-0.2,1.6-0.9,1.8
			c-2.2,0.5-2.3-3-2.6-4.4c-0.4-3-0.4-5.9,0-8.8C7.3,17.3,8.5,16.3,9.7,16.6z"/>
	</g>
	<g>
		<ellipse fill="#616B77" cx="12.1" cy="9" rx="3.4" ry="3.4"/>
	</g>
	<g>
		
			<rect x="13.1" y="26.9" transform="matrix(-0.1406 -0.9901 0.9901 -0.1406 -13.8817 47.248)" fill="#425060" width="1" height="5.5"/>
	</g>
	<g>
		<g>
			<g>
				<ellipse fill="#FECD04" cx="25" cy="11.2" rx="6.7" ry="6.8"/>
			</g>
			<g>
				<g>
					<g>
						<path fill="#425060" d="M25.2,11.7h-1.1c-1,0-1.8-0.8-1.8-1.8s0.8-1.8,1.8-1.8h2.3c0.8,0,1.4,0.6,1.4,1.4h-1
							c0-0.2-0.2-0.4-0.4-0.4h-2.3c-0.4,0-0.8,0.4-0.8,0.8c0,0.4,0.4,0.8,0.8,0.8h1.1V11.7z"/>
					</g>
					<g>
						<path fill="#425060" d="M26,14.4h-2.3c-0.8,0-1.4-0.6-1.4-1.4h1c0,0.2,0.2,0.4,0.4,0.4H26c0.4,0,0.8-0.4,0.8-0.8
							c0-0.4-0.4-0.8-0.8-0.8h-1.1v-1H26c1,0,1.8,0.8,1.8,1.8C27.8,13.5,27,14.4,26,14.4z"/>
					</g>
				</g>
				<g>
					<rect x="24.5" y="7.3" fill="#425060" width="1" height="7.9"/>
				</g>
			</g>
		</g>
		<g>
			<g>
				<g>
					<g>
						<g>
							<rect x="24.5" y="1.5" fill="#425060" width="1" height="0.9"/>
						</g>
					</g>
				</g>
				<g>
					<g>
						<g>
							
								<rect x="18.1" y="4.2" transform="matrix(-0.7059 -0.7083 0.7083 -0.7059 28.3826 21.0935)" fill="#425060" width="0.9" height="1"/>
						</g>
					</g>
					<g>
						<g>
							
								<rect x="31.1" y="4.2" transform="matrix(-0.7081 -0.7061 0.7061 -0.7081 50.6847 30.2694)" fill="#425060" width="1" height="0.9"/>
						</g>
					</g>
				</g>
			</g>
			<g>
				<g>
					<g>
						<g>
							
								<rect x="21.1" y="2.2" transform="matrix(-0.3823 -0.924 0.924 -0.3823 27.326 23.6093)" fill="#425060" width="0.9" height="1"/>
						</g>
					</g>
				</g>
				<g>
					<g>
						<g>
							
								<rect x="28.1" y="2.2" transform="matrix(-0.9247 -0.3806 0.3806 -0.9247 54.0258 15.9924)" fill="#425060" width="1" height="0.9"/>
						</g>
					</g>
				</g>
			</g>
		</g>
	</g>
</g>
</svg>
