<?xml version="1.0" encoding="utf-8"?>
<!-- Generator: Adobe Illustrator 18.0.0, SVG Export Plug-In . SVG Version: 6.00 Build 0)  -->
<!DOCTYPE svg PUBLIC "-//W3C//DTD SVG 1.1//EN" "http://www.w3.org/Graphics/SVG/1.1/DTD/svg11.dtd">
<svg version="1.1" id="Layer_1" xmlns="http://www.w3.org/2000/svg" xmlns:xlink="http://www.w3.org/1999/xlink" x="0px" y="0px"
	 viewBox="0 0 50 50" enable-background="new 0 0 50 50" xml:space="preserve">
<g>
	<g>
		<path fill="#F4F4F4" d="M43.8,7.5H6.2c-2.6,0-4.7,2.1-4.7,4.7v29.2c0,2.6,2.1,4.7,4.7,4.7h37.6c2.6,0,4.7-2.1,4.7-4.7V12.2
			C48.5,9.6,46.4,7.5,43.8,7.5z"/>
	</g>
	<g>
		<path fill="#FF6989" d="M48.5,15.6v-3.4c0-2.6-2.1-4.7-4.7-4.7H6.2c-2.6,0-4.7,2.1-4.7,4.7v3.4H48.5z"/>
	</g>
	<g>
		<g>
			<g>
				<circle fill="#FFFFFF" cx="10.1" cy="11.6" r="1.7"/>
			</g>
			<g>
				<path fill="#425060" d="M10.1,12.1v-1c0.6,0,1.1-0.5,1.1-1.1V6c0-0.6-0.5-1.1-1.1-1.1S9,5.4,9,6v1.4H8V6c0-1.2,1-2.1,2.1-2.1
					s2.1,1,2.1,2.1v3.9C12.2,11.1,11.3,12.1,10.1,12.1z"/>
			</g>
		</g>
		<g>
			<g>
				<circle fill="#FFFFFF" cx="17.6" cy="11.6" r="1.7"/>
			</g>
			<g>
				<path fill="#425060" d="M17.6,12.1v-1c0.6,0,1.1-0.5,1.1-1.1V6c0-0.6-0.5-1.1-1.1-1.1S16.5,5.4,16.5,6v1.4h-1V6
					c0-1.2,1-2.1,2.1-2.1c1.2,0,2.1,1,2.1,2.1v3.9C19.7,11.1,18.7,12.1,17.6,12.1z"/>
			</g>
		</g>
		<g>
			<g>
				<circle fill="#FFFFFF" cx="25" cy="11.6" r="1.7"/>
			</g>
			<g>
				<path fill="#425060" d="M25,12.1v-1c0.6,0,1.1-0.5,1.1-1.1V6c0-0.6-0.5-1.1-1.1-1.1S23.9,5.4,23.9,6v1.4h-1V6
					c0-1.2,1-2.1,2.1-2.1s2.1,1,2.1,2.1v3.9C27.1,11.1,26.2,12.1,25,12.1z"/>
			</g>
		</g>
		<g>
			<g>
				<circle fill="#FFFFFF" cx="32.4" cy="11.6" r="1.7"/>
			</g>
			<g>
				<path fill="#425060" d="M32.4,12.1v-1c0.6,0,1.1-0.5,1.1-1.1V6c0-0.6-0.5-1.1-1.1-1.1c-0.6,0-1.1,0.5-1.1,1.1v1.4h-1V6
					c0-1.2,1-2.1,2.1-2.1c1.2,0,2.1,1,2.1,2.1v3.9C34.6,11.1,33.6,12.1,32.4,12.1z"/>
			</g>
		</g>
		<g>
			<g>
				<circle fill="#FFFFFF" cx="39.9" cy="11.6" r="1.7"/>
			</g>
			<g>
				<path fill="#425060" d="M39.9,12.1v-1c0.6,0,1.1-0.5,1.1-1.1V6c0-0.6-0.5-1.1-1.1-1.1S38.8,5.4,38.8,6v1.4h-1V6
					c0-1.2,1-2.1,2.1-2.1c1.2,0,2.1,1,2.1,2.1v3.9C42,11.1,41.1,12.1,39.9,12.1z"/>
			</g>
		</g>
	</g>
	<g>
		<g>
			<line fill="none" x1="9.7" y1="20.5" x2="9.7" y2="41.2"/>
			<rect x="9.2" y="20.5" fill="#CCCACA" width="1" height="20.7"/>
		</g>
		<g>
			<line fill="none" x1="14.8" y1="20.5" x2="14.8" y2="41.2"/>
			<rect x="14.3" y="20.5" fill="#CCCACA" width="1" height="20.7"/>
		</g>
		<g>
			<line fill="none" x1="19.9" y1="20.5" x2="19.9" y2="41.2"/>
			<rect x="19.4" y="20.5" fill="#CCCACA" width="1" height="20.7"/>
		</g>
		<g>
			<line fill="none" x1="25" y1="20.5" x2="25" y2="41.2"/>
			<rect x="24.5" y="20.5" fill="#CCCACA" width="1" height="20.7"/>
		</g>
		<g>
			<line fill="none" x1="30.1" y1="20.5" x2="30.1" y2="41.2"/>
			<rect x="29.6" y="20.5" fill="#CCCACA" width="1" height="20.7"/>
		</g>
		<g>
			<line fill="none" x1="35.2" y1="20.5" x2="35.2" y2="41.2"/>
			<rect x="34.7" y="20.5" fill="#CCCACA" width="1" height="20.7"/>
		</g>
		<g>
			<line fill="none" x1="40.3" y1="20.5" x2="40.3" y2="41.2"/>
			<rect x="39.8" y="20.5" fill="#CCCACA" width="1" height="20.7"/>
		</g>
	</g>
	<g>
		<g>
			<line fill="none" x1="5.1" y1="25.2" x2="44.9" y2="25.2"/>
			<rect x="5.1" y="24.7" fill="#CCCACA" width="39.8" height="1"/>
		</g>
		<g>
			<line fill="none" x1="5.1" y1="30.8" x2="44.9" y2="30.8"/>
			<rect x="5.1" y="30.3" fill="#CCCACA" width="39.8" height="1"/>
		</g>
		<g>
			<line fill="none" x1="5.1" y1="36.4" x2="44.9" y2="36.4"/>
			<rect x="5.1" y="35.9" fill="#CCCACA" width="39.8" height="1"/>
		</g>
	</g>
	<g>
		<circle fill="#FFB95C" cx="9.7" cy="25.2" r="2.4"/>
	</g>
	<g>
		<circle fill="#559AFF" cx="30.1" cy="25.2" r="2.4"/>
	</g>
	<g>
		<circle fill="#ABB734" cx="40.3" cy="25.2" r="2.4"/>
	</g>
	<g>
		<circle fill="#D9BAA8" cx="9.7" cy="36.4" r="2.4"/>
	</g>
	<g>
		<circle fill="#6E9583" cx="19.9" cy="36.4" r="2.4"/>
	</g>
	<g>
		<circle fill="#FECD04" cx="30.1" cy="36.4" r="2.4"/>
	</g>
	<g>
		<polygon fill="#425060" points="30.4,26.3 29.1,25 29.9,24.3 30.4,24.9 33.2,22 33.9,22.7 		"/>
	</g>
	<g>
		<polygon fill="#425060" points="10.1,37.5 8.8,36.2 9.5,35.5 10.1,36.1 12.9,33.3 13.6,34 		"/>
	</g>
</g>
</svg>
