<?xml version="1.0" encoding="utf-8"?>
<!-- Generator: Adobe Illustrator 18.0.0, SVG Export Plug-In . SVG Version: 6.00 Build 0)  -->
<!DOCTYPE svg PUBLIC "-//W3C//DTD SVG 1.1//EN" "http://www.w3.org/Graphics/SVG/1.1/DTD/svg11.dtd">
<svg version="1.1" id="Layer_1" xmlns="http://www.w3.org/2000/svg" xmlns:xlink="http://www.w3.org/1999/xlink" x="0px" y="0px"
	 viewBox="0 0 50 50" enable-background="new 0 0 50 50" xml:space="preserve">
<g>
	<g>
		<g>
			<g>
				<g>
					<g>
						<g>
							<path fill="#FA4968" d="M37.1,4.5h-4c-5.5,0-10,4.5-10,10v0.7c0,1.1,0.9,1.9,1.9,1.9s1.9-0.9,1.9-1.9v-0.7
								c0-3.4,2.8-6.2,6.2-6.2h4V4.5z"/>
						</g>
					</g>
					<g>
						<polygon fill="#FA4968" points="35.4,1.8 35.4,11 41.5,6.4 						"/>
					</g>
				</g>
				<g>
					<g>
						<g>
							<path fill="#FFB95C" d="M12.9,4.5h4c5.5,0,10,4.5,10,10v0.7c0,1.1-0.9,1.9-1.9,1.9s-1.9-0.9-1.9-1.9v-0.7
								c0-3.4-2.8-6.2-6.2-6.2h-4C12.9,8.3,12.9,4.5,12.9,4.5z"/>
						</g>
					</g>
					<g>
						<polygon fill="#FFB95C" points="14.6,1.8 14.6,11 8.5,6.4 						"/>
					</g>
				</g>
			</g>
		</g>
	</g>
	<g>
		<g>
			<g>
				<g>
					<path fill="#E5E5E5" d="M45.1,40.9c2.1,0,3.9-1.6,3.9-3.7l0,0c0-3.8-3.1-4.4-7-4.4s-7,0.6-7,4.4l0,0c0,2,1.8,3.7,3.9,3.7H45.1z
						"/>
				</g>
				<g>
					<path fill="#559AFF" d="M49,37.2L49,37.2c0,2.1-1.8,3.7-3.9,3.7h-6.2c-2.1,0-3.9-1.6-3.9-3.7l0,0c0-3.8,3.1-4.4,7-4.4
						c0.6,0,1.1,0,1.7,0c0.6,0,1.2,0.1,1.7,0.2C47.5,33.5,49,34.6,49,37.2z"/>
				</g>
				<g>
					<path fill="#D9BAA8" d="M40.7,29.1c0,0-0.3,3.8-0.3,4.2c0,0.9,0.7,1.6,1.6,1.6s1.6-0.7,1.6-1.6c0-0.4-0.3-4.2-0.3-4.2
						S40.7,29.1,40.7,29.1z"/>
				</g>
				<g>
					<path fill="#C9A28F" d="M47.4,27.5c-0.2,0.7-0.7,1.1-1.5,0.9s-1.6-1-1.4-1.7c0.2-0.7,1.7-1,2.5-0.8
						C47.7,26,47.6,26.7,47.4,27.5z"/>
				</g>
				<g>
					<path fill="#C9A28F" d="M36.6,27.5c0.2,0.7,0.7,1.1,1.5,0.9s1.6-1,1.4-1.7c-0.2-0.7-1.7-1-2.5-0.8C36.3,26,36.4,26.7,36.6,27.5
						z"/>
				</g>
				<g>
					<path fill="#E8CEC1" d="M46.1,25.3c0,2.9-1.2,6.5-4.1,6.5s-4.1-3.6-4.1-6.5s1.2-3.9,4.1-3.9S46.1,22.4,46.1,25.3z"/>
				</g>
				<g>
					<path fill="#894D47" d="M35.8,24.3c2.7-0.7,2.2-5.6,4.8-3.5C42.2,22.2,38.7,26.6,35.8,24.3z"/>
				</g>
				<g>
					<path fill="#894D47" d="M46.3,25.5c-2-3-7.4-0.3-6-4.4C41.2,18.5,47.7,21,46.3,25.5z"/>
				</g>
				<g>
					<polygon fill="#FA4968" points="41.4,34.8 40.7,38.8 41.9,39.7 43.2,38.8 42.4,34.8 					"/>
				</g>
				<g>
					<path fill="#DDEDEB" d="M45.4,33.1l-1.7,3L42,34.8l1.7-1.9C44.3,32.9,44.8,33,45.4,33.1z"/>
				</g>
				<g>
					<path fill="#DDEDEB" d="M38.6,33.1l1.7,3l1.6-1.3l-1.7-1.9C39.7,32.9,39.2,33,38.6,33.1z"/>
				</g>
			</g>
			<g>
				<g>
					<path fill="#E5E5E5" d="M11.1,40.9c2.1,0,3.9-1.6,3.9-3.7l0,0c0-3.8-3.1-4.4-7-4.4s-7,0.6-7,4.4l0,0c0,2,1.8,3.7,3.9,3.7H11.1z
						"/>
				</g>
				<g>
					<path fill="#FFB95C" d="M15,37.2L15,37.2c0,2.1-1.8,3.7-3.9,3.7H4.9c-2.1,0-3.9-1.6-3.9-3.7l0,0c0-3.8,3.1-4.4,7-4.4
						c0.6,0,1.1,0,1.7,0c0.6,0,1.2,0.1,1.7,0.2C13.5,33.5,15,34.6,15,37.2z"/>
				</g>
				<g>
					<path fill="#D9BAA8" d="M6.7,29.1c0,0-0.3,3.8-0.3,4.2c0,0.9,0.7,1.6,1.6,1.6s1.6-0.7,1.6-1.6c0-0.4-0.3-4.2-0.3-4.2
						S6.7,29.1,6.7,29.1z"/>
				</g>
				<g>
					<path fill="#C9A28F" d="M13.4,27.5c-0.2,0.7-0.7,1.1-1.5,0.9s-1.6-1-1.4-1.7c0.2-0.7,1.7-1,2.5-0.8
						C13.7,26,13.6,26.7,13.4,27.5z"/>
				</g>
				<g>
					<path fill="#C9A28F" d="M2.6,27.5c0.2,0.7,0.7,1.1,1.5,0.9s1.6-1,1.4-1.7s-1.7-1-2.5-0.8C2.3,26,2.4,26.7,2.6,27.5z"/>
				</g>
				<g>
					<path fill="#E8CEC1" d="M12.1,25.3c0,2.9-1.2,6.5-4.1,6.5c-3,0-4.1-3.6-4.1-6.5S5,21.4,8,21.4S12.1,22.4,12.1,25.3z"/>
				</g>
				<g>
					<path fill="#894D47" d="M1.7,24.3c2.7-0.7,2.2-5.6,4.8-3.5C8.2,22.2,4.7,26.6,1.7,24.3z"/>
				</g>
				<g>
					<path fill="#894D47" d="M12.3,25.5c-2-3-7.4-0.3-6-4.4C7.2,18.5,13.7,21,12.3,25.5z"/>
				</g>
				<g>
					<polygon fill="#FA4968" points="7.4,34.8 6.7,38.8 7.9,39.7 9.2,38.8 8.4,34.8 					"/>
				</g>
				<g>
					<path fill="#DDEDEB" d="M11.3,33.1l-1.7,3L8,34.8l1.7-1.9C10.3,32.9,10.8,33,11.3,33.1z"/>
				</g>
				<g>
					<path fill="#DDEDEB" d="M4.6,33.1l1.7,3L8,34.8l-1.7-1.9C5.7,32.9,5.2,33,4.6,33.1z"/>
				</g>
			</g>
		</g>
		<g>
			<g>
				<path fill="#E5E5E5" d="M28.7,48.2c2.7,0,5-2.1,5-4.7l0,0c0-4.8-4-5.6-9-5.6s-9,0.8-9,5.6l0,0c0,2.6,2.3,4.7,5,4.7H28.7z"/>
			</g>
			<g>
				<path fill="#6CD8D5" d="M33.7,43.5L33.7,43.5c0,2.7-2.3,4.7-5,4.7h-8c-2.7,0-5-2.1-5-4.7l0,0c0-4.8,4-5.6,9-5.6
					c0.7,0,1.5,0,2.2,0.1c0.8,0.1,1.5,0.1,2.1,0.3C31.8,38.8,33.7,40.2,33.7,43.5z"/>
			</g>
			<g>
				<path fill="#D9BAA8" d="M23,33.1c0,0-0.4,4.9-0.4,5.3c0,1.1,0.9,2,2.1,2s2.1-0.9,2.1-2c0-0.5-0.4-5.3-0.4-5.3H23z"/>
			</g>
			<g>
				<path fill="#C9A28F" d="M31.6,31c-0.3,0.9-0.9,1.4-2,1.1c-1-0.3-2.1-1.3-1.8-2.2c0.3-0.9,2.1-1.3,3.2-1
					C32,29.2,31.9,30.1,31.6,31z"/>
			</g>
			<g>
				<path fill="#C9A28F" d="M17.8,31c0.3,0.9,0.9,1.4,2,1.1c1-0.3,2.1-1.3,1.8-2.2c-0.3-0.9-2.1-1.3-3.2-1
					C17.4,29.2,17.5,30.1,17.8,31z"/>
			</g>
			<g>
				<path fill="#E8CEC1" d="M30,28.2c0,3.7-1.5,8.3-5.3,8.3s-5.3-4.7-5.3-8.3s1.5-5,5.3-5C28.5,23.3,30,24.6,30,28.2z"/>
			</g>
			<g>
				<path fill="#894D47" d="M16.7,26.9c3.4-1,2.8-7.2,6.1-4.5C24.9,24.2,20.4,29.9,16.7,26.9z"/>
			</g>
			<g>
				<path fill="#894D47" d="M30.2,28.6c-2.5-3.8-9.5-0.4-7.7-5.6C23.6,19.6,32,22.7,30.2,28.6z"/>
			</g>
			<g>
				<polygon fill="#FA4968" points="24,40.4 23,45.5 24.6,46.6 26.2,45.5 25.2,40.4 				"/>
			</g>
			<g>
				<path fill="#DDEDEB" d="M29,38.2L26.8,42l-2.1-1.6l2.2-2.5C27.6,38,28.3,38.1,29,38.2z"/>
			</g>
			<g>
				<path fill="#DDEDEB" d="M20.4,38.2l2.2,3.8l2.1-1.6l-2.2-2.5C21.8,38,21,38.1,20.4,38.2z"/>
			</g>
		</g>
	</g>
</g>
</svg>
