<?xml version="1.0" encoding="utf-8"?>
<!-- Generator: Adobe Illustrator 18.0.0, SVG Export Plug-In . SVG Version: 6.00 Build 0)  -->
<!DOCTYPE svg PUBLIC "-//W3C//DTD SVG 1.1//EN" "http://www.w3.org/Graphics/SVG/1.1/DTD/svg11.dtd">
<svg version="1.1" id="Layer_1" xmlns="http://www.w3.org/2000/svg" xmlns:xlink="http://www.w3.org/1999/xlink" x="0px" y="0px"
	 viewBox="0 0 50 50" enable-background="new 0 0 50 50" xml:space="preserve">
<g>
	<g>
		<g>
			<g>
				<g>
					<g>
						<polygon fill="#6CD8D5" points="23,21.2 27,21.2 27,8 29.8,8 25,1.5 20.2,8 23,8 						"/>
					</g>
				</g>
			</g>
		</g>
		<g>
			<g>
				<g>
					<g>
						<path fill="#FA4968" d="M37.8,14.6h-4.3c-5.8,0-10.5,4.7-10.5,10.5v0.7c0,1.1,0.9,2,2,2s2-0.9,2-2v-0.7c0-3.6,2.9-6.5,6.5-6.5
							h4.3V14.6z"/>
					</g>
				</g>
				<g>
					<polygon fill="#FA4968" points="35.9,11.8 35.9,21.5 42.4,16.6 					"/>
				</g>
			</g>
			<g>
				<g>
					<g>
						<path fill="#FFB95C" d="M12.2,14.6h4.3c5.8,0,10.5,4.7,10.5,10.5v0.7c0,1.1-0.9,2-2,2s-2-0.9-2-2v-0.7c0-3.6-2.9-6.5-6.5-6.5
							h-4.3V14.6z"/>
					</g>
				</g>
				<g>
					<polygon fill="#FFB95C" points="14.1,11.8 14.1,21.5 7.6,16.6 					"/>
				</g>
			</g>
		</g>
	</g>
	<g>
		<g>
			<g>
				<path fill="#E5E5E5" d="M39.3,48.5c2.5,0,4.7-2,4.7-4.5l0,0c0-4.6-3.8-5.4-8.4-5.4c-4.7,0-8.4,0.8-8.4,5.4l0,0
					c0,2.5,2.2,4.5,4.7,4.5H39.3z"/>
			</g>
			<g>
				<path fill="#616B77" d="M44,44L44,44c0,2.5-2.2,4.5-4.7,4.5h-7.5c-2.5,0-4.7-2-4.7-4.5l0,0c0-4.6,3.8-5.4,8.4-5.4
					c0.7,0,1.4,0,2,0.1c0.7,0.1,1.4,0.1,2,0.3C42.3,39.5,44,40.8,44,44z"/>
			</g>
			<g>
				<path fill="#D9BAA8" d="M34,34.1c0,0-0.4,4.7-0.4,5.1c0,1.1,0.9,1.9,2,1.9s2-0.9,2-1.9c0-0.4-0.4-5.1-0.4-5.1H34z"/>
			</g>
			<g>
				<path fill="#C9A28F" d="M42.1,32.1c-0.3,0.9-0.9,1.3-1.9,1s-1.9-1.3-1.7-2.1c0.3-0.9,2-1.2,3-0.9C42.5,30.4,42.3,31.2,42.1,32.1
					z"/>
			</g>
			<g>
				<path fill="#C9A28F" d="M29.2,32.1c0.3,0.9,0.9,1.3,1.9,1c1-0.3,1.9-1.3,1.7-2.1c-0.3-0.9-2-1.2-3-0.9
					C28.7,30.4,28.9,31.2,29.2,32.1z"/>
			</g>
			<g>
				<path fill="#E8CEC1" d="M40.6,29.4c0,3.5-1.4,8-5,8s-5-4.4-5-8s1.4-4.8,5-4.8C39.2,24.7,40.6,25.9,40.6,29.4z"/>
			</g>
			<g>
				<path fill="#894D47" d="M28.1,28.2c3.2-0.9,2.6-6.9,5.7-4.2C35.8,25.6,31.6,31,28.1,28.2z"/>
			</g>
			<g>
				<path fill="#894D47" d="M40.7,29.7c-2.4-3.6-8.9-0.4-7.2-5.4C34.6,21.2,42.5,24.2,40.7,29.7z"/>
			</g>
			<g>
				<polygon fill="#FA4968" points="34.9,41.1 34,45.9 35.5,47 37,45.9 36.1,41.1 				"/>
			</g>
			<g>
				<path fill="#DDEDEB" d="M39.6,39l-2.1,3.7l-2-1.5l2-2.4C38.3,38.8,39,38.8,39.6,39z"/>
			</g>
			<g>
				<path fill="#DDEDEB" d="M31.6,39l2.1,3.7l2-1.5l-2-2.4C32.9,38.8,32.2,38.8,31.6,39z"/>
			</g>
		</g>
		<g>
			<g>
				<path fill="#E5E5E5" d="M18.1,48.5c2.5,0,4.7-2,4.7-4.5l0,0c0-4.6-3.8-5.4-8.4-5.4C9.7,38.6,6,39.4,6,44l0,0
					c0,2.5,2.2,4.5,4.7,4.5H18.1z"/>
			</g>
			<g>
				<path fill="#616B77" d="M22.8,44L22.8,44c0,2.5-2.2,4.5-4.7,4.5h-7.5c-2.5,0-4.7-2-4.7-4.5l0,0c0-4.6,3.8-5.4,8.4-5.4
					c0.7,0,1.4,0,2,0.1c0.7,0.1,1.4,0.1,2,0.3C21.1,39.5,22.8,40.8,22.8,44z"/>
			</g>
			<g>
				<path fill="#D9BAA8" d="M12.8,34.1c0,0-0.4,4.7-0.4,5.1c0,1.1,0.9,1.9,2,1.9s2-0.9,2-1.9c0-0.4-0.4-5.1-0.4-5.1H12.8z"/>
			</g>
			<g>
				<path fill="#C9A28F" d="M20.8,32.1c-0.3,0.9-0.9,1.3-1.9,1S17,31.8,17.2,31c0.3-0.9,2-1.2,3-0.9C21.3,30.4,21.1,31.2,20.8,32.1z
					"/>
			</g>
			<g>
				<path fill="#C9A28F" d="M7.9,32.1c0.3,0.9,0.9,1.3,1.9,1s1.9-1.3,1.7-2.1c-0.3-0.9-2-1.2-3-0.9S7.7,31.2,7.9,32.1z"/>
			</g>
			<g>
				<path fill="#E8CEC1" d="M19.4,29.4c0,3.5-1.4,8-5,8s-5-4.4-5-8s1.4-4.8,5-4.8C18,24.7,19.4,25.9,19.4,29.4z"/>
			</g>
			<g>
				<path fill="#894D47" d="M6.9,28.2c3.2-0.9,2.6-6.9,5.7-4.2C14.6,25.6,10.4,31,6.9,28.2z"/>
			</g>
			<g>
				<path fill="#894D47" d="M19.5,29.7c-2.4-3.6-8.9-0.4-7.2-5.4C13.4,21.2,21.2,24.2,19.5,29.7z"/>
			</g>
			<g>
				<polygon fill="#FA4968" points="13.7,41.1 12.8,45.9 14.3,47 15.8,45.9 14.9,41.1 				"/>
			</g>
			<g>
				<path fill="#DDEDEB" d="M18.4,39l-2.1,3.7l-2-1.5l2-2.4C17.1,38.8,17.8,38.8,18.4,39z"/>
			</g>
			<g>
				<path fill="#DDEDEB" d="M10.4,39l2.1,3.7l2-1.5l-2-2.4C11.7,38.8,11,38.8,10.4,39z"/>
			</g>
		</g>
	</g>
</g>
</svg>
