<?xml version="1.0" encoding="utf-8"?>
<!-- Generator: Adobe Illustrator 18.0.0, SVG Export Plug-In . SVG Version: 6.00 Build 0)  -->
<!DOCTYPE svg PUBLIC "-//W3C//DTD SVG 1.1//EN" "http://www.w3.org/Graphics/SVG/1.1/DTD/svg11.dtd">
<svg version="1.1" id="Layer_1" xmlns="http://www.w3.org/2000/svg" xmlns:xlink="http://www.w3.org/1999/xlink" x="0px" y="0px"
	 viewBox="0 0 50 50" enable-background="new 0 0 50 50" xml:space="preserve">
<g>
	<g>
		<path fill="#F4F4F4" d="M13.5,2.9L7.7,8.6C6.8,9.5,6.2,10.7,6.2,12v29.7c0,1.6,1.3,2.9,2.9,2.9h26c1.6,0,2.9-1.3,2.9-2.9V4.4
			c0-1.6-1.3-2.9-2.9-2.9H16.9C15.6,1.5,14.4,2,13.5,2.9z"/>
	</g>
	<g>
		<path fill="#F4F4F4" d="M38,4.4v37.3c0,1.6-1.3,2.9-2.9,2.9h-26c-1.6,0-2.9-1.3-2.9-2.9V12c0-0.7,0.2-1.4,0.4-2
			c0.2-0.5,0.6-1,1-1.4l5.8-5.7c0.4-0.4,0.9-0.7,1.4-0.9c0.6-0.3,1.3-0.4,2-0.4h18.3C36.7,1.5,38,2.8,38,4.4z"/>
	</g>
	<g>
		<path fill="#CCCACA" d="M14.9,1.9v5.8c0,1.3-1,2.3-2.3,2.3H6.7c0.2-0.5,0.6-1,1-1.4l5.8-5.7C13.9,2.5,14.4,2.2,14.9,1.9z"/>
	</g>
	<g>
		<g>
			<line fill="none" x1="18.5" y1="4.2" x2="24.1" y2="4.2"/>
			<rect x="18.5" y="3.7" fill="#FFFFFF" width="5.5" height="1"/>
		</g>
		<g>
			<line fill="none" x1="26.6" y1="4.2" x2="27.6" y2="4.2"/>
			<rect x="26.6" y="3.7" fill="#FFFFFF" width="1" height="1"/>
		</g>
	</g>
	<g>
		<g>
			<g>
				<path fill="#E5E5E5" d="M25.1,38.8c1.9,0,3.5-1.5,3.5-3.4l0,0c0-3.5-2.8-4-6.3-4S16,32,16,35.4l0,0c0,1.9,1.6,3.4,3.5,3.4H25.1z
					"/>
			</g>
			<g>
				<path fill="#559AFF" d="M28.6,35.4L28.6,35.4c0,1.9-1.6,3.4-3.5,3.4h-5.6c-1.9,0-3.5-1.5-3.5-3.4l0,0c0-3.5,2.8-4,6.3-4
					c0.5,0,1,0,1.5,0s1,0.1,1.5,0.2C27.3,32,28.6,33,28.6,35.4z"/>
			</g>
			<g>
				<path fill="#D9BAA8" d="M21.1,27.9c0,0-0.3,3.5-0.3,3.8c0,0.8,0.7,1.5,1.5,1.5s1.5-0.7,1.5-1.5c0-0.3-0.3-3.8-0.3-3.8
					S21.1,27.9,21.1,27.9z"/>
			</g>
			<g>
				<path fill="#C9A28F" d="M27.1,26.4c-0.2,0.7-0.7,1-1.4,0.8c-0.7-0.2-1.5-0.9-1.3-1.6s1.5-0.9,2.2-0.7
					C27.4,25.1,27.3,25.7,27.1,26.4z"/>
			</g>
			<g>
				<path fill="#C9A28F" d="M17.4,26.4c0.2,0.7,0.7,1,1.4,0.8c0.7-0.2,1.5-0.9,1.3-1.6s-1.5-0.9-2.2-0.7
					C17.1,25.1,17.2,25.7,17.4,26.4z"/>
			</g>
			<g>
				<path fill="#E8CEC1" d="M26,24.4c0,2.6-1,6-3.7,6s-3.7-3.3-3.7-6s1-3.6,3.7-3.6C24.9,20.8,26,21.8,26,24.4z"/>
			</g>
			<g>
				<path fill="#FFB95C" d="M16.6,23.4c2.4-0.7,2-5.2,4.3-3.2C22.4,21.5,19.2,25.6,16.6,23.4z"/>
			</g>
			<g>
				<path fill="#FFB95C" d="M26.1,24.6c-1.8-2.7-6.7-0.3-5.4-4C21.5,18.2,27.4,20.4,26.1,24.6z"/>
			</g>
			<g>
				<polygon fill="#FA4968" points="21.8,33.2 21.1,36.8 22.2,37.6 23.3,36.8 22.6,33.2 				"/>
			</g>
			<g>
				<path fill="#DDEDEB" d="M25.3,31.6l-1.6,2.8l-1.5-1.2l1.5-1.8C24.3,31.4,24.8,31.5,25.3,31.6z"/>
			</g>
			<g>
				<path fill="#DDEDEB" d="M19.2,31.6l1.6,2.8l1.5-1.2l-1.5-1.8C20.2,31.4,19.7,31.5,19.2,31.6z"/>
			</g>
		</g>
		<g>
			<path fill="#525F70" d="M32,17.1c-5.4-5.4-14.1-5.4-19.4,0c-5.4,5.4-5.4,14.1,0,19.5s14.1,5.4,19.4,0
				C37.3,31.3,37.3,22.5,32,17.1z M22.3,36.7c-5.4,0-9.8-4.4-9.8-9.8s4.4-9.8,9.8-9.8s9.8,4.4,9.8,9.8C32,32.3,27.7,36.7,22.3,36.7z
				"/>
		</g>
		<g>
			<path fill="#616B77" d="M12.2,33.9c-1.9-2.8-2.6-6.2-1.9-9.5l1,0.2c-0.6,3,0,6.2,1.8,8.7L12.2,33.9z"/>
		</g>
		<g>
			<path fill="#616B77" d="M12.1,22l-0.9-0.4c0.2-0.4,0.4-0.8,0.6-1.2l0.9,0.5C12.4,21.3,12.2,21.7,12.1,22z"/>
		</g>
		<g>
			<g>
				<path fill="#425060" d="M33.2,35.2l2.6,2.6l-2.7,2.7l-2.6-2.6c0.5-0.4,1-0.8,1.4-1.3C32.4,36.2,32.8,35.7,33.2,35.2z"/>
			</g>
			<g>
				<path fill="#525F70" d="M42.8,47.6L42.8,47.6c-1.2,1.2-3.2,1.2-4.4,0l-5.2-5.2c-0.5-0.5-0.5-1.4,0-1.9l2.5-2.6
					c0.5-0.5,1.4-0.5,1.9,0l5.2,5.2C44.1,44.3,44.1,46.3,42.8,47.6z"/>
			</g>
		</g>
		<g>
			<g>
				<line fill="none" x1="39.9" y1="43.3" x2="38.1" y2="41.5"/>
				
					<rect x="37.7" y="41.9" transform="matrix(-0.7052 -0.709 0.709 -0.7052 36.445 99.8711)" fill="#616B77" width="2.5" height="1"/>
			</g>
			<g>
				<line fill="none" x1="36.7" y1="40.1" x2="36.4" y2="39.8"/>
				
					<rect x="36.4" y="39.5" transform="matrix(-0.7054 -0.7088 0.7088 -0.7054 34.0401 94.2319)" fill="#616B77" width="0.5" height="1"/>
			</g>
		</g>
	</g>
</g>
</svg>
