<?xml version="1.0" encoding="utf-8"?>
<!-- Generator: Adobe Illustrator 18.0.0, SVG Export Plug-In . SVG Version: 6.00 Build 0)  -->
<!DOCTYPE svg PUBLIC "-//W3C//DTD SVG 1.1//EN" "http://www.w3.org/Graphics/SVG/1.1/DTD/svg11.dtd">
<svg version="1.1" id="Layer_1" xmlns="http://www.w3.org/2000/svg" xmlns:xlink="http://www.w3.org/1999/xlink" x="0px" y="0px"
	 viewBox="0 0 50 50" enable-background="new 0 0 50 50" xml:space="preserve">
<g>
	<g>
		<path fill="#F9A846" d="M29.6,15l0.8-0.9c0.5-0.6,1.3-0.9,2.1-0.9H40c1.5,0,2.8,1.2,2.8,2.8v21.4c0,1.5-1.2,2.8-2.8,2.8H10
			c-1.5,0-2.8-1.2-2.8-2.8V18.7c0-1.5,1.2-2.8,2.8-2.8h17.5C28.3,15.9,29,15.6,29.6,15z"/>
	</g>
	<g>
		<path fill="#E5E5E5" d="M19,1.5v4.9c0,1.3-1.1,2.4-2.4,2.4h-4.9v30h26.5V3.9c0-1.3-1.1-2.4-2.4-2.4H19z"/>
	</g>
	<g>
		<g>
			<line fill="none" x1="17.1" y1="12.4" x2="32.9" y2="12.4"/>
			<rect x="17.1" y="11.9" fill="#CCCACA" width="15.8" height="1"/>
		</g>
		<g>
			<line fill="none" x1="17.1" y1="15.5" x2="32.9" y2="15.5"/>
			<rect x="17.1" y="15" fill="#CCCACA" width="15.8" height="1"/>
		</g>
		<g>
			<line fill="none" x1="17.1" y1="18.5" x2="32.9" y2="18.5"/>
			<rect x="17.1" y="18" fill="#CCCACA" width="15.8" height="1"/>
		</g>
		<g>
			<line fill="none" x1="17.1" y1="21.5" x2="32.9" y2="21.5"/>
			<rect x="17.1" y="21" fill="#CCCACA" width="15.8" height="1"/>
		</g>
	</g>
	<g>
		<path fill="#CCCACA" d="M19,1.5l-7.2,7.2h4.9c1.3,0,2.4-1.1,2.4-2.4V1.5H19z"/>
	</g>
	<g>
		<path fill="#FFB95C" d="M20.4,23.4l-0.8-0.9c-0.5-0.6-1.3-0.9-2.1-0.9H10c-1.5,0-2.8,1.2-2.8,2.8v21.4c0,1.5,1.2,2.8,2.8,2.8h30
			c1.5,0,2.8-1.2,2.8-2.8V27.1c0-1.5-1.2-2.8-2.8-2.8H22.5C21.7,24.3,21,24,20.4,23.4z"/>
	</g>
	<g>
		<circle fill="#FA4968" cx="25" cy="36.6" r="8"/>
	</g>
	<g>
		<path fill="#616B77" d="M26.2,36.8l0.5,3.8h-3.4l0.5-3.8c-0.7-0.4-1.1-1.2-1.1-2c0-1.3,1.1-2.4,2.4-2.4s2.4,1.1,2.4,2.4
			C27.4,35.7,26.9,36.4,26.2,36.8z"/>
	</g>
</g>
</svg>
