<?xml version="1.0" encoding="utf-8"?>
<!-- Generator: Adobe Illustrator 18.0.0, SVG Export Plug-In . SVG Version: 6.00 Build 0)  -->
<!DOCTYPE svg PUBLIC "-//W3C//DTD SVG 1.1//EN" "http://www.w3.org/Graphics/SVG/1.1/DTD/svg11.dtd">
<svg version="1.1" id="Layer_1" xmlns="http://www.w3.org/2000/svg" xmlns:xlink="http://www.w3.org/1999/xlink" x="0px" y="0px"
	 viewBox="0 0 50 50" enable-background="new 0 0 50 50" xml:space="preserve">
<g>
	<g>
		<path fill="#F4F4F4" d="M34.4,3l6.4,6.3c1,1,1.6,2.3,1.6,3.7v32.4c0,1.7-1.4,3.1-3.1,3.1H10.8c-1.7,0-3.1-1.4-3.1-3.1V4.6
			c0-1.7,1.4-3.1,3.1-3.1h20C32.1,1.5,33.5,2,34.4,3z"/>
	</g>
	<g>
		<path fill="#F4F4F4" d="M7.6,4.6v40.7c0,1.7,1.4,3.1,3.1,3.1h28.5c1.7,0,3.1-1.4,3.1-3.1V13c0-0.8-0.2-1.5-0.5-2.2
			c-0.3-0.6-0.6-1.1-1.1-1.5L34.4,3c-0.4-0.4-1-0.8-1.5-1c-0.7-0.3-1.4-0.5-2.2-0.5h-20C9,1.5,7.6,2.9,7.6,4.6z"/>
	</g>
	<g>
		<path fill="#CCCACA" d="M32.9,2v6.3c0,1.4,1.1,2.5,2.5,2.5h6.5c-0.3-0.6-0.6-1.1-1.1-1.5L34.4,3C34,2.6,33.5,2.2,32.9,2z"/>
	</g>
	<g>
		<g>
			<g>
				<g>
					<path fill="#E5E5E5" d="M21,25.4c2.1,0,3.8-1.6,3.8-3.6l0,0c0-3.7-3.1-4.3-6.9-4.3S11,18.1,11,21.8l0,0c0,2,1.8,3.6,3.8,3.6H21
						z"/>
				</g>
				<g>
					<path fill="#559AFF" d="M24.8,21.8L24.8,21.8c0,2-1.8,3.6-3.8,3.6h-6.1c-2.1,0-3.8-1.6-3.8-3.6l0,0c0-3.7,3.1-4.3,6.8-4.3
						c0.6,0,1.1,0,1.6,0c0.6,0,1.1,0.1,1.6,0.2C23.4,18.2,24.8,19.2,24.8,21.8z"/>
				</g>
				<g>
					<path fill="#D9BAA8" d="M16.7,13.8c0,0-0.3,3.7-0.3,4.1c0,0.9,0.7,1.5,1.6,1.5s1.6-0.7,1.6-1.5c0-0.4-0.3-4.1-0.3-4.1
						S16.7,13.8,16.7,13.8z"/>
				</g>
				<g>
					<path fill="#C9A28F" d="M23.2,12.2c-0.2,0.7-0.7,1.1-1.5,0.8c-0.8-0.2-1.6-1-1.4-1.7s1.6-1,2.4-0.8
						C23.6,10.8,23.4,11.5,23.2,12.2z"/>
				</g>
				<g>
					<path fill="#C9A28F" d="M12.7,12.2c0.2,0.7,0.7,1.1,1.5,0.8c0.8-0.2,1.6-1,1.4-1.7c-0.2-0.7-1.6-1-2.4-0.8
						C12.4,10.8,12.5,11.5,12.7,12.2z"/>
				</g>
				<g>
					<path fill="#E8CEC1" d="M22,10.1c0,2.8-1.1,6.4-4,6.4s-4-3.6-4-6.4s1.1-3.8,4-3.8S22,7.3,22,10.1z"/>
				</g>
				<g>
					<path fill="#894D47" d="M11.8,9.1c2.6-0.7,2.1-5.5,4.7-3.4C18.1,7.1,14.7,11.4,11.8,9.1z"/>
				</g>
				<g>
					<path fill="#894D47" d="M22.1,10.3C20.2,7.4,14.9,10,16.3,6C17.2,3.5,23.5,5.9,22.1,10.3z"/>
				</g>
				<g>
					<polygon fill="#FA4968" points="17.4,19.4 16.7,23.3 17.9,24.2 19.1,23.3 18.4,19.4 					"/>
				</g>
				<g>
					<path fill="#DDEDEB" d="M21.3,17.7l-1.7,2.9L18,19.4l1.6-1.9C20.2,17.6,20.7,17.6,21.3,17.7z"/>
				</g>
				<g>
					<path fill="#DDEDEB" d="M14.7,17.7l1.7,2.9l1.6-1.2l-1.6-1.9C15.7,17.6,15.2,17.6,14.7,17.7z"/>
				</g>
			</g>
		</g>
		<g>
			<g>
				<rect x="28.5" y="14.2" fill="#CCCACA" width="10.4" height="1"/>
			</g>
			<g>
				<rect x="28.5" y="16.6" fill="#CCCACA" width="10.4" height="1"/>
			</g>
			<g>
				<rect x="28.5" y="18.9" fill="#CCCACA" width="10.4" height="1"/>
			</g>
			<g>
				<rect x="28.5" y="21.3" fill="#CCCACA" width="10.4" height="1"/>
			</g>
			<g>
				<rect x="28.5" y="23.6" fill="#CCCACA" width="5.7" height="1"/>
			</g>
		</g>
	</g>
	<g>
		<g>
			<rect x="12.8" y="34" fill="#FECD04" width="2.6" height="7"/>
		</g>
		<g>
			<rect x="18.3" y="35.9" fill="#ABB734" width="2.6" height="5"/>
		</g>
		<g>
			<rect x="23.7" y="32.6" fill="#FFB95C" width="2.6" height="8.3"/>
		</g>
		<g>
			<rect x="29.2" y="35" fill="#FA4968" width="2.6" height="5.9"/>
		</g>
		<g>
			<rect x="34.6" y="33.4" fill="#559AFF" width="2.6" height="7.6"/>
		</g>
	</g>
	<g>
		<g>
			<rect x="12.8" y="39.4" fill="#EABE06" width="2.6" height="1.5"/>
		</g>
		<g>
			<rect x="18.3" y="39.4" fill="#9B9B1B" width="2.6" height="1.5"/>
		</g>
		<g>
			<rect x="23.7" y="39.4" fill="#F9A846" width="2.6" height="1.5"/>
		</g>
		<g>
			<rect x="29.2" y="39.4" fill="#ED2F58" width="2.6" height="1.5"/>
		</g>
		<g>
			<rect x="34.6" y="39.4" fill="#3A8BED" width="2.6" height="1.5"/>
		</g>
	</g>
</g>
</svg>
