<?xml version="1.0" encoding="utf-8"?>
<!-- Generator: Adobe Illustrator 18.0.0, SVG Export Plug-In . SVG Version: 6.00 Build 0)  -->
<!DOCTYPE svg PUBLIC "-//W3C//DTD SVG 1.1//EN" "http://www.w3.org/Graphics/SVG/1.1/DTD/svg11.dtd">
<svg version="1.1" id="Layer_1" xmlns="http://www.w3.org/2000/svg" xmlns:xlink="http://www.w3.org/1999/xlink" x="0px" y="0px"
	 viewBox="0 0 50 50" enable-background="new 0 0 50 50" xml:space="preserve">
<g>
	<g>
		<ellipse fill="#EABE06" cx="18.6" cy="18.5" rx="17" ry="17"/>
	</g>
	<g>
		<circle fill="#FECD04" cx="18.6" cy="18.5" r="12.6"/>
	</g>
	<g>
		<g>
			<path fill="#425060" d="M22,25h-6.8c-1.5,0-2.7-1.2-2.7-2.7h1c0,0.9,0.8,1.7,1.7,1.7H22c0.9,0,1.7-0.8,1.7-1.7v-1.6
				c0-0.9-0.8-1.7-1.7-1.7h-6.8c-1.5,0-2.7-1.2-2.7-2.7v-1.6c0-1.5,1.2-2.7,2.7-2.7H22c1.5,0,2.7,1.2,2.7,2.7h-1
				c0-0.9-0.8-1.7-1.7-1.7h-6.8c-0.9,0-1.7,0.8-1.7,1.7v1.6c0,0.9,0.8,1.7,1.7,1.7H22c1.5,0,2.7,1.2,2.7,2.7v1.6
				C24.7,23.8,23.5,25,22,25z"/>
		</g>
		<g>
			<rect x="18.1" y="10.9" fill="#425060" width="1" height="15.2"/>
		</g>
	</g>
	<g>
		<ellipse fill="#F4F4F4" cx="37" cy="37.1" rx="11.4" ry="11.4"/>
	</g>
	<g>
		<g>
			<path fill="#559AFF" d="M44.6,31.3l-1.5,1.5l-2.7-2.7c-0.9-0.9-2.2-1.4-3.4-1.4s-2.5,0.5-3.4,1.4L30.7,33
				c0.9-0.9,2.2-1.4,3.4-1.4s2.5,0.5,3.4,1.4l2.7,2.7l-1.5,1.5l6.2,0.4L44.6,31.3z"/>
		</g>
		<g>
			<path fill="#FA4968" d="M29.3,42.9l1.5-1.5l2.7,2.7c0.9,0.9,2.2,1.4,3.4,1.4s2.5-0.5,3.4-1.4l2.8-2.8c-0.9,0.9-2.2,1.4-3.4,1.4
				s-2.5-0.5-3.4-1.4l-2.7-2.7l1.5-1.5l-6.2-0.4L29.3,42.9z"/>
		</g>
	</g>
</g>
</svg>
