<?xml version="1.0" encoding="utf-8"?>
<!-- Generator: Adobe Illustrator 18.0.0, SVG Export Plug-In . SVG Version: 6.00 Build 0)  -->
<!DOCTYPE svg PUBLIC "-//W3C//DTD SVG 1.1//EN" "http://www.w3.org/Graphics/SVG/1.1/DTD/svg11.dtd">
<svg version="1.1" id="Layer_1" xmlns="http://www.w3.org/2000/svg" xmlns:xlink="http://www.w3.org/1999/xlink" x="0px" y="0px"
	 viewBox="0 0 50 50" enable-background="new 0 0 50 50" xml:space="preserve">
<g>
	<g>
		<g>
			<path fill="#616B77" d="M24.1,19.9L24.1,19.9l-2.6,25.6h-3.4L17.6,35h-2.1L15,45.5h-3.4L9.1,20l0,0l0,0c0-4,3.4-4.7,7.5-4.7
				C20.7,15.2,24.1,15.9,24.1,19.9z"/>
		</g>
		<g>
			<path fill="#616B77" d="M24.1,19.9L24.1,19.9L23,30.5l-0.4,4.8l-1.1,10.3h-3.4L17.6,35h-2.1L15,45.5h-3.4L9.1,20l0,0l0,0
				c0-4,3.4-4.7,7.5-4.7C20.7,15.2,24.1,15.9,24.1,19.9z"/>
		</g>
		<g>
			<path fill="#425060" d="M23,30.5l-0.4,4.8h-0.1c-1.3,0-2.4-1.1-2.4-2.4c0-1.3,1.1-2.4,2.4-2.4C22.7,30.4,22.8,30.4,23,30.5z"/>
		</g>
		<g>
			<path fill="#425060" d="M10.2,30.5l0.4,4.8h0.1c1.3,0,2.4-1.1,2.4-2.4c0-1.3-1.1-2.4-2.4-2.4C10.6,30.4,10.4,30.4,10.2,30.5z"/>
		</g>
		<g>
			<path fill="#616B77" d="M10.3,32.1h12.5L24.1,20l0,0c0-4-3.4-4.7-7.5-4.7S9.1,16,9.1,20l0,0l0,0L10.3,32.1z"/>
		</g>
		<g>
			<path fill="#D9BAA8" d="M15.2,11.2c0,0-0.4,4.1-0.4,4.5c0,0.9,0.8,1.7,1.7,1.7c1,0,1.7-0.8,1.7-1.7c0-0.4-0.4-4.5-0.4-4.5H15.2z"
				/>
		</g>
		<g>
			<path fill="#C9A28F" d="M22.3,9.5c-0.2,0.8-0.8,1.2-1.7,0.9c-0.9-0.3-1.7-1.1-1.5-1.9c0.2-0.8,1.8-1.1,2.6-0.8
				C22.7,7.9,22.6,8.7,22.3,9.5z"/>
		</g>
		<g>
			<path fill="#C9A28F" d="M10.9,9.5c0.2,0.8,0.8,1.2,1.7,0.9s1.7-1.1,1.5-1.9c-0.2-0.8-1.8-1.1-2.6-0.8C10.5,7.9,10.6,8.7,10.9,9.5
				z"/>
		</g>
		<g>
			<path fill="#E8CEC1" d="M21,7.1c0,3.1-1.2,7-4.4,7s-4.4-3.9-4.4-7s1.2-4.2,4.4-4.2C19.8,2.9,21,4,21,7.1z"/>
		</g>
		<g>
			<path fill="#894D47" d="M9.9,6c2.9-0.8,2.3-6.1,5.1-3.7C16.8,3.8,13,8.5,9.9,6z"/>
		</g>
		<g>
			<path fill="#894D47" d="M21.2,7.4c-2.1-3.2-7.9-0.3-6.4-4.7C15.7-0.2,22.7,2.5,21.2,7.4z"/>
		</g>
		<g>
			<polygon fill="#FA4968" points="16,17.4 15.2,21.6 16.5,22.6 17.9,21.6 17.1,17.4 			"/>
		</g>
		<g>
			<path fill="#DDEDEB" d="M20.2,15.5l-1.8,3.2l-1.7-1.4l1.8-2.1C19,15.3,19.6,15.4,20.2,15.5z"/>
		</g>
		<g>
			<path fill="#DDEDEB" d="M13,15.5l1.8,3.2l1.7-1.4l-1.8-2.1C14.2,15.3,13.6,15.4,13,15.5z"/>
		</g>
		<g>
			<path fill="#425060" d="M18.2,45.6h5.4c0.8,0,1.5,0.7,1.5,1.5l0,0c0,0.8-0.7,1.5-1.5,1.5h-3.9c-0.8,0-1.5-0.7-1.5-1.5V45.6z"/>
		</g>
		<g>
			<path fill="#425060" d="M15,45.6H9.6c-0.8,0-1.5,0.7-1.5,1.5l0,0c0,0.8,0.7,1.5,1.5,1.5h3.9c0.8,0,1.5-0.7,1.5-1.5V45.6z"/>
		</g>
		<g>
			<path fill="#D9BAA8" d="M22.9,29.5h-0.3c-0.7,0-1.2-0.5-1.2-1.2v-8.8h2.7v8.8C24.1,29,23.6,29.5,22.9,29.5z"/>
		</g>
		<g>
			<path fill="#D9BAA8" d="M10.6,29.5h-0.3c-0.7,0-1.2-0.5-1.2-1.2v-8.8h2.7v8.8C11.8,29,11.3,29.5,10.6,29.5z"/>
		</g>
	</g>
	<g>
		<ellipse fill="#559AFF" cx="34" cy="41.2" rx="6.3" ry="6.3"/>
	</g>
	<g opacity="0.3">
		<path fill="#FFFFFF" d="M30.2,39.1l-0.9-0.5c0.2-0.4,0.5-0.8,0.9-1.2c0.6-0.6,1.4-1.1,2.2-1.3l0.3,0.9c-0.7,0.2-1.3,0.6-1.8,1.1
			C30.6,38.4,30.4,38.7,30.2,39.1z"/>
	</g>
	<g opacity="0.3">
		<path fill="#FFFFFF" d="M34.3,36.9c-0.2,0-0.5,0-0.7,0l-0.1-1c0.3,0,0.6,0,0.9,0L34.3,36.9z"/>
	</g>
	<g>
		<g>
			<ellipse fill="#FA4968" cx="34" cy="25" rx="6.3" ry="6.3"/>
		</g>
		<g opacity="0.3">
			<path fill="#FFFFFF" d="M30.2,22.9l-0.9-0.5c0.2-0.4,0.5-0.8,0.9-1.2c0.6-0.6,1.4-1.1,2.2-1.3l0.3,0.9c-0.7,0.2-1.3,0.6-1.8,1.1
				C30.6,22.2,30.4,22.5,30.2,22.9z"/>
		</g>
		<g opacity="0.3">
			<path fill="#FFFFFF" d="M34.3,20.7c-0.2,0-0.5,0-0.7,0l-0.1-1c0.3,0,0.6,0,0.9,0L34.3,20.7z"/>
		</g>
		<g>
			<g>
				<polygon fill="#FFB95C" points="32,23 30,24.9 34.1,29 41.8,21.2 39.9,19.2 34.1,25.1 				"/>
			</g>
			<g opacity="0.3">
				<g>
					
						<rect x="38" y="21" transform="matrix(-0.7101 -0.7041 0.7041 -0.7101 50.1122 65.4783)" fill="#FFFFFF" width="1" height="2.8"/>
				</g>
				<g>
					
						<rect x="35.8" y="24.4" transform="matrix(-0.71 -0.7042 0.7042 -0.71 44.7218 67.6495)" fill="#FFFFFF" width="1" height="0.5"/>
				</g>
			</g>
		</g>
	</g>
	<g>
		<ellipse fill="#6CD8D5" cx="34" cy="8.8" rx="6.3" ry="6.3"/>
	</g>
	<g opacity="0.3">
		<path fill="#FFFFFF" d="M30.2,6.7l-0.9-0.5c0.2-0.4,0.5-0.8,0.9-1.2c0.6-0.6,1.4-1.1,2.2-1.3l0.3,0.9c-0.7,0.2-1.3,0.6-1.8,1.1
			C30.6,6,30.4,6.3,30.2,6.7z"/>
	</g>
	<g opacity="0.3">
		<path fill="#FFFFFF" d="M34.3,4.5c-0.2,0-0.5,0-0.7,0l-0.1-1c0.3,0,0.6,0,0.9,0L34.3,4.5z"/>
	</g>
</g>
</svg>
