<?xml version="1.0" encoding="utf-8"?>
<!-- Generator: Adobe Illustrator 18.0.0, SVG Export Plug-In . SVG Version: 6.00 Build 0)  -->
<!DOCTYPE svg PUBLIC "-//W3C//DTD SVG 1.1//EN" "http://www.w3.org/Graphics/SVG/1.1/DTD/svg11.dtd">
<svg version="1.1" id="Layer_1" xmlns="http://www.w3.org/2000/svg" xmlns:xlink="http://www.w3.org/1999/xlink" x="0px" y="0px"
	 viewBox="0 0 50 50" enable-background="new 0 0 50 50" xml:space="preserve">
<g>
	<g>
		<g>
			<g>
				<path fill="#F4F4F4" d="M39.3,48.3h-23c-2.3,0-4.2-1.9-4.2-4.2V11.7c0-2.3,1.9-4.2,4.2-4.2h23c2.3,0,4.2,1.9,4.2,4.2v32.4
					C43.5,46.4,41.6,48.3,39.3,48.3z"/>
			</g>
		</g>
		<g>
			<path fill="#FECD04" d="M36,7.9L36,7.9C36,9,35.1,10,33.9,10H21.8c-1.2,0-2.1-0.9-2.1-2.1l0,0c0-1.5,1.2-2.7,2.7-2.7h2.5V4.6
				c0-1.6,1.3-2.9,2.9-2.9l0,0c1.6,0,2.9,1.3,2.9,2.9v0.5h2.5C34.8,5.1,36,6.4,36,7.9z"/>
		</g>
	</g>
	<g>
		<g>
			<g>
				<circle fill="#6CD8D5" cx="18.9" cy="18.5" r="2.9"/>
			</g>
			<g>
				<polygon fill="#425060" points="19,19.8 17.6,18.5 18.3,17.8 19,18.4 22.2,15.2 22.9,15.9 				"/>
			</g>
		</g>
	</g>
	<g>
		<g>
			<g>
				<circle fill="#FF8C83" cx="27.9" cy="18.5" r="2.9"/>
			</g>
			<g>
				<polygon fill="#425060" points="28,19.8 26.6,18.5 27.3,17.8 28,18.4 31.2,15.2 31.9,15.9 				"/>
			</g>
		</g>
	</g>
	<g>
		<circle fill="#ABB734" cx="36.8" cy="18.5" r="2.9"/>
	</g>
	<g>
		<polygon fill="#425060" points="36.9,19.8 35.6,18.5 36.3,17.8 36.9,18.4 40.2,15.2 40.8,15.9 		"/>
	</g>
	<g>
		<g>
			<g>
				<circle fill="#6E9583" cx="28.2" cy="28" r="2.9"/>
			</g>
			<g>
				<polygon fill="#425060" points="28.2,29.3 26.9,27.9 27.6,27.2 28.2,27.9 31.5,24.6 32.2,25.3 				"/>
			</g>
		</g>
	</g>
	<g>
		<g>
			<circle fill="#FA4968" cx="39.2" cy="36.8" r="7.4"/>
		</g>
		<g opacity="0.3">
			<path fill="#FFFFFF" d="M34.6,34.3l-0.9-0.5c0.3-0.5,0.6-0.9,1-1.3c0.7-0.7,1.6-1.2,2.5-1.5l0.3,0.9c-0.8,0.3-1.5,0.7-2.1,1.3
				C35.2,33.5,34.9,33.9,34.6,34.3z"/>
		</g>
		<g opacity="0.3">
			<path fill="#FFFFFF" d="M39.7,31.7c-0.3,0-0.6,0-0.8,0l-0.1-1c0.3,0,0.7,0,1,0L39.7,31.7z"/>
		</g>
		<g>
			<g>
				<polygon fill="#FFB95C" points="36.8,34.5 34.6,36.7 39.3,41.5 48.5,32.4 46.2,30.1 39.3,36.9 				"/>
			</g>
			<g opacity="0.3">
				<g>
					
						<rect x="44.1" y="32.2" transform="matrix(-0.7061 -0.7081 0.7081 -0.7061 52.0763 89.3853)" fill="#FFFFFF" width="1" height="3.3"/>
				</g>
				<g>
					
						<rect x="41.5" y="36.1" transform="matrix(-0.7061 -0.7081 0.7081 -0.7061 45.8806 91.8251)" fill="#FFFFFF" width="1" height="0.6"/>
				</g>
			</g>
		</g>
	</g>
	<g>
		<ellipse fill="#559AFF" cx="12.4" cy="33.7" rx="10.9" ry="10.9"/>
	</g>
	<g>
		<ellipse fill="#E8CEC1" cx="12.4" cy="33.7" rx="8.5" ry="8.5"/>
	</g>
	<g>
		<rect x="11.9" y="25.2" fill="#425060" width="1" height="1"/>
	</g>
	<g>
		<rect x="11.9" y="41.2" fill="#425060" width="1" height="1"/>
	</g>
	<g>
		
			<rect x="7.9" y="26.2" transform="matrix(-0.5007 -0.8656 0.8656 -0.5007 -10.499 47.3906)" fill="#425060" width="1" height="1"/>
	</g>
	<g>
		
			<rect x="15.9" y="40.1" transform="matrix(-0.5007 -0.8656 0.8656 -0.5007 -10.4619 75.1595)" fill="#425060" width="1" height="1"/>
	</g>
	<g>
		<rect x="5" y="29.2" transform="matrix(-0.866 -0.5 0.5 -0.866 -4.6438 58.1977)" fill="#425060" width="1" height="1"/>
	</g>
	<g>
		
			<rect x="18.9" y="37.2" transform="matrix(-0.8659 -0.5002 0.5002 -0.8659 17.3254 80.0767)" fill="#425060" width="1" height="1"/>
	</g>
	<g>
		<rect x="3.9" y="33.2" fill="#425060" width="1" height="1"/>
	</g>
	<g>
		<rect x="20" y="33.2" fill="#425060" width="1" height="1"/>
	</g>
	<g>
		
			<rect x="4.9" y="37.2" transform="matrix(-0.5004 -0.8658 0.8658 -0.5004 -24.4704 61.1977)" fill="#425060" width="1" height="1"/>
	</g>
	<g>
		
			<rect x="18.9" y="29.2" transform="matrix(-0.4995 -0.8663 0.8663 -0.4995 3.2803 61.3169)" fill="#425060" width="1" height="1"/>
	</g>
	<g>
		
			<rect x="7.9" y="40.2" transform="matrix(-0.8658 -0.5004 0.5004 -0.8658 -4.7573 80.1178)" fill="#425060" width="1" height="1"/>
	</g>
	<g>
		
			<rect x="15.9" y="26.2" transform="matrix(-0.8658 -0.5004 0.5004 -0.8658 17.271 58.0148)" fill="#425060" width="1" height="1"/>
	</g>
	<g>
		<rect x="11.9" y="29.2" fill="#425060" width="1" height="3.6"/>
	</g>
	<g>
		
			<rect x="12.5" y="35.1" transform="matrix(-0.7072 -0.707 0.707 -0.7072 -0.802 70.8625)" fill="#425060" width="3.6" height="1"/>
	</g>
	<g>
		<circle fill="#FF6989" cx="12.4" cy="33.7" r="1.3"/>
	</g>
</g>
</svg>
