<?xml version="1.0" encoding="utf-8"?>
<!-- Generator: Adobe Illustrator 18.0.0, SVG Export Plug-In . SVG Version: 6.00 Build 0)  -->
<!DOCTYPE svg PUBLIC "-//W3C//DTD SVG 1.1//EN" "http://www.w3.org/Graphics/SVG/1.1/DTD/svg11.dtd">
<svg version="1.1" id="Layer_1" xmlns="http://www.w3.org/2000/svg" xmlns:xlink="http://www.w3.org/1999/xlink" x="0px" y="0px"
	 viewBox="0 0 50 50" enable-background="new 0 0 50 50" xml:space="preserve">
<g>
	<g>
		<path fill="#616B77" d="M17.4,28.6h15.4c2.8,0,5-2.4,5.2-5.4c0.2-3.9,0.4-7.2,0.5-8.1C39,5.4,32.9,1.5,25,1.5
			c-7.8,0-14,3.9-13.4,13.5c0.1,0.9,0.3,4.3,0.5,8.1C12.3,26.2,14.6,28.6,17.4,28.6z"/>
	</g>
	<g>
		<path fill="#E5E5E5" d="M31.6,48.5c4.5,0,8.3-3.5,8.3-7.9c0,0,0,0,0-0.1c0-8.1-6.7-9.4-14.9-9.4s-14.9,1.4-14.9,9.4c0,0,0,0,0,0.1
			c0,4.4,3.8,7.9,8.3,7.9H31.6z"/>
	</g>
	<g>
		<path fill="#559AFF" d="M39.9,40.5L39.9,40.5c0,4.5-3.8,8-8.3,8H18.4c-4.5,0-8.3-3.5-8.3-7.9v-0.1c0-8.1,6.7-9.4,14.9-9.4
			c1.2,0,2.4,0,3.6,0.1c1.3,0.1,2.5,0.2,3.6,0.5C36.7,32.6,39.9,35,39.9,40.5z"/>
	</g>
	<g>
		<path fill="#D9BAA8" d="M22.3,23c0,0-0.7,8.2-0.7,9c0,1.9,1.5,3.4,3.5,3.4s3.5-1.5,3.5-3.4c0-0.8-0.7-9-0.7-9H22.3z"/>
	</g>
	<g>
		<path fill="#C9A28F" d="M35.4,19.5c-0.5,1.5-1.6,2.4-3.3,1.8c-1.7-0.5-3.4-2.2-2.9-3.8c0.5-1.5,3.5-2.2,5.3-1.7
			C36.2,16.5,35.9,18,35.4,19.5z"/>
	</g>
	<g>
		<path fill="#C9A28F" d="M14.6,19.5c0.5,1.5,1.6,2.4,3.3,1.8c1.7-0.5,3.4-2.2,2.9-3.8c-0.5-1.5-3.5-2.2-5.3-1.7
			C13.8,16.5,14.1,18,14.6,19.5z"/>
	</g>
	<g>
		<path fill="#E8CEC1" d="M33.7,14.9c0,6.2-2.5,14-8.7,14c-6.3,0-8.7-7.8-8.7-14c0-0.9,0.1-1.7,0.2-2.5c2.8,0,5.1-1.5,5.9-3.5
			c1.3,2.3,4.2,3.8,7.6,3.8c1.3,0,2.5-0.2,3.6-0.6C33.7,12.9,33.7,13.8,33.7,14.9z"/>
	</g>
	<g>
		<rect x="27.2" y="15.6" fill="#425060" width="2.3" height="1"/>
	</g>
	<g>
		<circle fill="#616B77" cx="28" cy="18" r="0.6"/>
	</g>
	<g>
		<path fill="#E5E5E5" d="M23.9,21.3c0.7,0.5,1.5,0.5,2.3,0"/>
		<path fill="#C9A28F" d="M25,22.1c-0.5,0-1-0.2-1.4-0.5l0.6-0.8c0.6,0.4,1.1,0.4,1.7,0l0.5,0.8C25.9,22,25.5,22.1,25,22.1z"/>
	</g>
	<g>
		<rect x="20.5" y="15.6" fill="#425060" width="2.3" height="1"/>
	</g>
	<g>
		<circle fill="#616B77" cx="22" cy="18" r="0.6"/>
	</g>
	<g>
		<path fill="#425060" d="M25,25.8c-1.3,0-2.4-0.6-3.2-1.5l0.8-0.6c0.6,0.7,1.5,1.2,2.5,1.2s1.9-0.4,2.5-1.2l0.8,0.6
			C27.4,25.2,26.3,25.8,25,25.8z"/>
	</g>
	<g opacity="0.2">
		<ellipse fill="#FFFFFF" cx="29.5" cy="21.8" rx="0.9" ry="0.9"/>
	</g>
	<g opacity="0.2">
		<ellipse fill="#FFFFFF" cx="21.2" cy="21.8" rx="0.9" ry="0.9"/>
	</g>
	<g>
		<g>
			<polygon fill="#FA4968" points="23.7,35.8 22,46.2 24.9,48.3 27.7,46.2 26,35.8 			"/>
		</g>
		<g>
			<path fill="#DDEDEB" d="M32.8,31.8l-4,7l-3.8-3l3.9-4.6C30.3,31.3,31.6,31.5,32.8,31.8z"/>
		</g>
		<g>
			<path fill="#DDEDEB" d="M17.2,31.8l4,7l3.8-3l-3.9-4.6C19.7,31.3,18.4,31.5,17.2,31.8z"/>
		</g>
	</g>
</g>
</svg>
