<?xml version="1.0" encoding="utf-8"?>
<!-- Generator: Adobe Illustrator 18.0.0, SVG Export Plug-In . SVG Version: 6.00 Build 0)  -->
<!DOCTYPE svg PUBLIC "-//W3C//DTD SVG 1.1//EN" "http://www.w3.org/Graphics/SVG/1.1/DTD/svg11.dtd">
<svg version="1.1" id="Layer_1" xmlns="http://www.w3.org/2000/svg" xmlns:xlink="http://www.w3.org/1999/xlink" x="0px" y="0px"
	 viewBox="0 0 50 50" enable-background="new 0 0 50 50" xml:space="preserve">
<g>
	<g>
		<g>
			<path fill="#E5E5E5" d="M42.3,41.9c3.4,0,6.2-2.6,6.2-5.9c0,0,0,0,0-0.1c0-6.1-5-7.1-11.2-7.1s-11.2,1-11.2,7.1c0,0,0,0,0,0.1
				c0,3.3,2.9,5.9,6.2,5.9H42.3z"/>
		</g>
		<g>
			<path fill="#6CD8D5" d="M48.5,35.9L48.5,35.9c0,3.4-2.9,6-6.3,6h-10c-3.4,0-6.2-2.6-6.2-5.9v-0.1c0-6.1,5-7.1,11.2-7.1
				c0.9,0,1.8,0,2.7,0.1c1,0.1,1.9,0.2,2.7,0.4C46.1,29.9,48.5,31.7,48.5,35.9z"/>
		</g>
		<g>
			<path fill="#D9BAA8" d="M35.2,22.7c0,0-0.5,6.2-0.5,6.8c0,1.4,1.2,2.6,2.6,2.6c1.4,0,2.6-1.1,2.6-2.6c0-0.6-0.5-6.8-0.5-6.8
				S35.2,22.7,35.2,22.7z"/>
		</g>
		<g>
			<path fill="#C9A28F" d="M45.9,20.1c-0.4,1.2-1.2,1.8-2.5,1.4s-2.6-1.7-2.2-2.8c0.4-1.2,2.7-1.7,4-1.3
				C46.4,17.8,46.2,18.9,45.9,20.1z"/>
		</g>
		<g>
			<path fill="#C9A28F" d="M28.7,20.1c0.4,1.2,1.2,1.8,2.5,1.4s2.6-1.7,2.2-2.8c-0.4-1.2-2.7-1.7-4-1.3
				C28.1,17.8,28.3,18.9,28.7,20.1z"/>
		</g>
		<g>
			<path fill="#E8CEC1" d="M43.9,16.6c0,4.7-1.9,10.6-6.6,10.6s-6.6-5.9-6.6-10.6s1.9-6.3,6.6-6.3S43.9,11.9,43.9,16.6z"/>
		</g>
		<g>
			<path fill="#894D47" d="M27.2,14.9c4.3-1.2,3.5-9.2,7.6-5.7C37.6,11.5,31.9,18.6,27.2,14.9z"/>
		</g>
		<g>
			<path fill="#894D47" d="M44.1,17c-3.2-4.8-11.8-0.5-9.6-7.1C36,5.5,46.4,9.6,44.1,17z"/>
		</g>
		<g>
			<polygon fill="#FA4968" points="36.4,32.1 35.2,38.5 37.2,39.9 39.2,38.5 38,32.1 			"/>
		</g>
		<g>
			<path fill="#DDEDEB" d="M42.7,29.2l-2.8,4.9L37.3,32l2.7-3.2C40.9,28.9,41.8,29.1,42.7,29.2z"/>
		</g>
		<g>
			<path fill="#DDEDEB" d="M31.9,29.2l2.8,4.9l2.6-2.1l-2.7-3.2C33.6,28.9,32.7,29.1,31.9,29.2z"/>
		</g>
	</g>
	<g>
		<g>
			<path fill="#E5E5E5" d="M17.7,41.9c3.4,0,6.2-2.6,6.2-5.9c0,0,0,0,0-0.1c0-6.1-5-7.1-11.2-7.1s-11.2,1-11.2,7.1c0,0,0,0,0,0.1
				c0,3.3,2.9,5.9,6.2,5.9H17.7z"/>
		</g>
		<g>
			<path fill="#ABB734" d="M24,35.9L24,35.9c0,3.4-2.9,6-6.3,6h-10c-3.4,0-6.2-2.6-6.2-5.9v-0.1c0-6.1,5-7.1,11.2-7.1
				c0.9,0,1.8,0,2.7,0.1c1,0.1,1.9,0.2,2.7,0.4C21.6,29.9,24,31.7,24,35.9z"/>
		</g>
		<g>
			<path fill="#D9BAA8" d="M10.7,22.7c0,0-0.5,6.2-0.5,6.8c0,1.4,1.2,2.6,2.6,2.6s2.6-1.1,2.6-2.6c0-0.6-0.5-6.8-0.5-6.8
				S10.7,22.7,10.7,22.7z"/>
		</g>
		<g>
			<path fill="#C9A28F" d="M21.3,20.1c-0.4,1.2-1.2,1.8-2.5,1.4s-2.6-1.7-2.2-2.8c0.4-1.2,2.7-1.7,4-1.3
				C21.9,17.8,21.7,18.9,21.3,20.1z"/>
		</g>
		<g>
			<path fill="#C9A28F" d="M4.1,20.1c0.4,1.2,1.2,1.8,2.5,1.4s2.6-1.7,2.2-2.8c-0.4-1.2-2.7-1.7-4-1.3C3.6,17.8,3.8,18.9,4.1,20.1z"
				/>
		</g>
		<g>
			<path fill="#E8CEC1" d="M19.3,16.6c0,4.7-1.9,10.6-6.6,10.6s-6.6-5.9-6.6-10.6s1.9-6.3,6.6-6.3S19.3,11.9,19.3,16.6z"/>
		</g>
		<g>
			<path fill="#894D47" d="M2.7,14.9c4.3-1.2,3.5-9.2,7.6-5.7C13,11.5,7.4,18.6,2.7,14.9z"/>
		</g>
		<g>
			<path fill="#894D47" d="M19.6,17c-3.2-4.8-11.8-0.5-9.6-7.1C11.4,5.5,21.9,9.6,19.6,17z"/>
		</g>
		<g>
			<polygon fill="#FA4968" points="11.8,32.1 10.7,38.5 12.6,39.9 14.6,38.5 13.4,32.1 			"/>
		</g>
		<g>
			<path fill="#DDEDEB" d="M18.1,29.2l-2.8,4.9L12.7,32l2.7-3.2C16.4,28.9,17.3,29.1,18.1,29.2z"/>
		</g>
		<g>
			<path fill="#DDEDEB" d="M7.3,29.2l2.8,4.9l2.6-2.1L10,28.9C9.1,28.9,8.2,29.1,7.3,29.2z"/>
		</g>
	</g>
</g>
</svg>
