<?xml version="1.0" encoding="utf-8"?>
<!-- Generator: Adobe Illustrator 18.0.0, SVG Export Plug-In . SVG Version: 6.00 Build 0)  -->
<!DOCTYPE svg PUBLIC "-//W3C//DTD SVG 1.1//EN" "http://www.w3.org/Graphics/SVG/1.1/DTD/svg11.dtd">
<svg version="1.1" id="Layer_1" xmlns="http://www.w3.org/2000/svg" xmlns:xlink="http://www.w3.org/1999/xlink" x="0px" y="0px"
	 viewBox="0 0 50 50" enable-background="new 0 0 50 50" xml:space="preserve">
<g>
	<g>
		<path fill="#425060" d="M29.1,21h-7.8v-3.6c0-0.7,0.5-1.2,1.2-1.2h5.4c0.7,0,1.2,0.5,1.2,1.2V21z M22.3,20h5.8v-2.6
			c0-0.1-0.1-0.2-0.2-0.2h-5.4c-0.1,0-0.2,0.1-0.2,0.2C22.3,17.4,22.3,20,22.3,20z"/>
	</g>
	<g>
		<path fill="#8CF2ED" d="M48.5,13.2c0,0.5,0,1-0.1,1.5c-0.3,1.5-1.7,2.6-3.2,2.6h-6.9c-1.6,0-2.9-1.1-3.2-2.6
			c-0.1-0.5-0.1-1-0.1-1.5c0-2.9,1.7-3.9,4.2-4.2l2.6,2.3L44.3,9C46.8,9.3,48.5,10.3,48.5,13.2z"/>
	</g>
	<g opacity="0.3">
		<path fill="#FFFFFF" d="M45.1,15.6h-6.9c-0.8,0-1.4-0.5-1.6-1.3c-0.1-0.4-0.1-0.8-0.1-1.2h1c0,0.3,0,0.7,0.1,1
			c0,0.2,0.3,0.4,0.6,0.4h6.9c0.3,0,0.5-0.2,0.6-0.4c0.1-0.4,0.1-0.7,0.1-1h1c0,0.4,0,0.8-0.1,1.2C46.6,15.1,45.9,15.6,45.1,15.6z"
			/>
	</g>
	<g>
		<ellipse fill="#8CF2ED" cx="41.7" cy="4.8" rx="3.3" ry="3.3"/>
	</g>
	<g>
		<ellipse fill="#FA4968" cx="8.3" cy="4.8" rx="3.3" ry="3.3"/>
	</g>
	<g>
		<path fill="#FA4968" d="M15.2,13.2c0,0.5,0,1-0.1,1.5c-0.3,1.5-1.7,2.6-3.2,2.6h-7c-1.6,0-2.9-1.1-3.2-2.6c-0.1-0.5-0.1-1-0.1-1.5
			c0-2.9,1.7-3.9,4.2-4.2l2.6,2.3L11,9C13.4,9.3,15.2,10.3,15.2,13.2z"/>
	</g>
	<g opacity="0.3">
		<path fill="#FFFFFF" d="M11.8,15.6H4.9c-0.8,0-1.4-0.5-1.6-1.3c-0.1-0.4-0.1-0.8-0.1-1.2h1c0,0.3,0,0.7,0.1,1
			c0,0.2,0.3,0.4,0.6,0.4h6.9c0.3,0,0.5-0.2,0.6-0.4c0.1-0.4,0.1-0.7,0.1-1h1c0,0.4,0,0.8-0.1,1.2C13.2,15.1,12.6,15.6,11.8,15.6z"
			/>
	</g>
	<g>
		<path fill="#D9BAA8" d="M48.5,44.3c0,0.5,0,1-0.1,1.5c-0.3,1.5-1.7,2.6-3.2,2.6h-6.9c-1.6,0-2.9-1.1-3.2-2.6
			c-0.1-0.5-0.1-1-0.1-1.5c0-2.9,1.7-3.9,4.2-4.2l2.6,2.3l2.6-2.3C46.8,40.5,48.5,41.5,48.5,44.3z"/>
	</g>
	<g opacity="0.3">
		<path fill="#FFFFFF" d="M45.1,46.8h-6.9c-0.8,0-1.4-0.5-1.6-1.3c-0.1-0.4-0.1-0.8-0.1-1.2h1c0,0.3,0,0.7,0.1,1
			c0,0.2,0.3,0.4,0.6,0.4h6.9c0.3,0,0.5-0.2,0.6-0.4c0.1-0.4,0.1-0.7,0.1-1h1c0,0.4,0,0.8-0.1,1.2C46.6,46.3,45.9,46.8,45.1,46.8z"
			/>
	</g>
	<g>
		<ellipse fill="#D9BAA8" cx="41.7" cy="36" rx="3.3" ry="3.3"/>
	</g>
	<g>
		<ellipse fill="#ABB734" cx="8.3" cy="36" rx="3.3" ry="3.3"/>
	</g>
	<g>
		<path fill="#ABB734" d="M15.2,44.3c0,0.5,0,1-0.1,1.5c-0.3,1.5-1.7,2.6-3.2,2.6h-7c-1.6,0-2.9-1.1-3.2-2.6c-0.1-0.5-0.1-1-0.1-1.5
			c0-2.9,1.7-3.9,4.2-4.2l2.6,2.3l2.6-2.3C13.4,40.5,15.2,41.5,15.2,44.3z"/>
	</g>
	<g opacity="0.3">
		<path fill="#FFFFFF" d="M11.8,46.8H4.9c-0.8,0-1.4-0.5-1.6-1.3c-0.1-0.4-0.1-0.8-0.1-1.2h1c0,0.3,0,0.7,0.1,1
			c0,0.2,0.3,0.4,0.6,0.4h6.9c0.3,0,0.5-0.2,0.6-0.4c0.1-0.4,0.1-0.7,0.1-1h1c0,0.4,0,0.8-0.1,1.2C13.2,46.3,12.6,46.8,11.8,46.8z"
			/>
	</g>
	<g>
		<path fill="#525F70" d="M32.2,20h-14c-1.5,0-2.8,1.2-2.8,2.8v8c0,1.5,1.2,2.8,2.8,2.8h14c1.5,0,2.8-1.2,2.8-2.8v-8
			C35,21.3,33.7,20,32.2,20z"/>
	</g>
	<g>
		<path fill="#616B77" d="M32.4,20H17.9c-1.4,0-2.5,1.1-2.5,2.5v1.3c0,1.4,1.1,2.5,2.5,2.5h14.5c1.4,0,2.5-1.1,2.5-2.5v-1.3
			C35,21.2,33.8,20,32.4,20z"/>
	</g>
	<g>
		<path fill="#FFFFFF" d="M26.1,24.6h-1.8c-0.5,0-0.8,0.4-0.8,0.8v2.4c0,0.5,0.4,0.8,0.8,0.8h1.8c0.5,0,0.8-0.4,0.8-0.8v-2.4
			C26.9,24.9,26.5,24.6,26.1,24.6z"/>
	</g>
</g>
</svg>
