<?xml version="1.0" encoding="utf-8"?>
<!-- Generator: Adobe Illustrator 18.0.0, SVG Export Plug-In . SVG Version: 6.00 Build 0)  -->
<!DOCTYPE svg PUBLIC "-//W3C//DTD SVG 1.1//EN" "http://www.w3.org/Graphics/SVG/1.1/DTD/svg11.dtd">
<svg version="1.1" id="Layer_1" xmlns="http://www.w3.org/2000/svg" xmlns:xlink="http://www.w3.org/1999/xlink" x="0px" y="0px"
	 viewBox="0 0 50 50" enable-background="new 0 0 50 50" xml:space="preserve">
<g>
	<g>
		<g>
			<path fill="#FECD04" d="M19.5,29.6h10.9c0.6-1.8,1.5-3.4,2.8-4.7c2.3-2.4,3.5-5.8,3-9.4c-0.7-5-4.8-9-9.8-9.6
				C19.5,5,13.7,10.3,13.7,17.1c0,2.9,1.1,5.6,2.9,7.6C17.9,26.1,18.9,27.8,19.5,29.6z"/>
		</g>
	</g>
	<g opacity="0.3">
		<g>
			<path fill="#FFFFFF" d="M17.1,14l-0.9-0.4c0.8-2,2.2-3.7,4.1-4.8l0.5,0.9C19.1,10.7,17.8,12.3,17.1,14z"/>
		</g>
	</g>
	<g opacity="0.3">
		<g>
			<path fill="#FFFFFF" d="M22.5,9l-0.3-1c0.4-0.1,0.9-0.2,1.3-0.3l0.2,1C23.3,8.8,22.9,8.9,22.5,9z"/>
		</g>
	</g>
	<g>
		<g>
			<path fill="#FFFFFF" d="M27.2,29.6h-1V19.1h-2.5v10.2h-1V19.1h-1.2c-1.2,0-2.1-1-2.1-2.2s1-2.1,2.2-2.1s2.1,1,2.1,2.2v1.2h2.5V17
				c0-1.2,1-2.1,2.2-2.1s2.1,1,2.1,2.2s-1,2.1-2.2,2.1h-1.2L27.2,29.6z M27.2,18h1.2c0.6,0,1.2-0.5,1.2-1.1s-0.5-1.2-1.1-1.2
				s-1.2,0.5-1.2,1.1L27.2,18z M21.6,15.7c-0.6,0-1.2,0.5-1.2,1.1c0,0.6,0.5,1.2,1.1,1.2h1.2v-1.2C22.8,16.2,22.3,15.7,21.6,15.7z"
				/>
		</g>
	</g>
	<g>
		<g>
			<g>
				<g>
					<g>
						<g>
							<line fill="none" x1="39.3" y1="17.1" x2="41.1" y2="17.1"/>
							<rect x="39.3" y="16.6" fill="#616B77" width="1.8" height="1"/>
						</g>
					</g>
					<g>
						<g>
							<line fill="none" x1="8.9" y1="17.1" x2="10.7" y2="17.1"/>
							<rect x="8.9" y="16.6" fill="#616B77" width="1.8" height="1"/>
						</g>
					</g>
				</g>
				<g>
					<g>
						<g>
							<line fill="none" x1="25" y1="1" x2="25" y2="2.8"/>
							<rect x="24.5" y="1" fill="#616B77" width="1" height="1.8"/>
						</g>
					</g>
				</g>
			</g>
			<g>
				<g>
					<g>
						<g>
							<line fill="none" x1="39.3" y1="17.1" x2="41.1" y2="17.1"/>
							<rect x="39.3" y="16.6" fill="#616B77" width="1.8" height="1"/>
						</g>
					</g>
					<g>
						<g>
							<line fill="none" x1="8.9" y1="17.1" x2="10.7" y2="17.1"/>
							<rect x="8.9" y="16.6" fill="#616B77" width="1.8" height="1"/>
						</g>
					</g>
				</g>
				<g>
					<g>
						<g>
							<line fill="none" x1="25" y1="1" x2="25" y2="2.8"/>
							<rect x="24.5" y="1" fill="#616B77" width="1" height="1.8"/>
						</g>
					</g>
				</g>
			</g>
			<g>
				<g>
					<g>
						<g>
							<line fill="none" x1="13.6" y1="5.7" x2="14.9" y2="6.9"/>
							
								<rect x="13.4" y="5.8" transform="matrix(-0.7059 -0.7084 0.7084 -0.7059 19.9246 20.926)" fill="#616B77" width="1.8" height="1"/>
						</g>
					</g>
				</g>
				<g>
					<g>
						<g>
							<line fill="none" x1="36.4" y1="5.7" x2="35.1" y2="7"/>
							
								<rect x="35.3" y="5.5" transform="matrix(-0.706 -0.7082 0.7082 -0.706 56.4591 36.2645)" fill="#616B77" width="1" height="1.8"/>
						</g>
					</g>
				</g>
			</g>
		</g>
		<g>
			<g>
				<g>
					<g>
						<g>
							<line fill="none" x1="38.2" y1="11.6" x2="39.9" y2="11"/>
							
								<rect x="38.5" y="10.3" transform="matrix(-0.3814 -0.9244 0.9244 -0.3814 43.5054 51.6108)" fill="#616B77" width="1" height="1.8"/>
						</g>
					</g>
					<g>
						<g>
							<line fill="none" x1="10.1" y1="23.2" x2="11.8" y2="22.5"/>
							
								<rect x="10.4" y="22" transform="matrix(-0.3814 -0.9244 0.9244 -0.3814 -6.0716 41.7936)" fill="#616B77" width="1" height="1.8"/>
						</g>
					</g>
				</g>
				<g>
					<g>
						<g>
							<line fill="none" x1="18.9" y1="2.2" x2="19.5" y2="3.9"/>
							
								<rect x="18.3" y="2.5" transform="matrix(-0.3812 -0.9245 0.9245 -0.3812 23.7823 21.9483)" fill="#616B77" width="1.8" height="1"/>
						</g>
					</g>
				</g>
			</g>
			<g>
				<g>
					<g>
						<g>
							<line fill="none" x1="38.2" y1="11.6" x2="39.9" y2="11"/>
							
								<rect x="38.5" y="10.3" transform="matrix(-0.3814 -0.9244 0.9244 -0.3814 43.5054 51.6108)" fill="#616B77" width="1" height="1.8"/>
						</g>
					</g>
					<g>
						<g>
							<line fill="none" x1="10.1" y1="23.2" x2="11.8" y2="22.5"/>
							
								<rect x="10.4" y="22" transform="matrix(-0.3814 -0.9244 0.9244 -0.3814 -6.0716 41.7936)" fill="#616B77" width="1" height="1.8"/>
						</g>
					</g>
				</g>
				<g>
					<g>
						<g>
							<line fill="none" x1="18.9" y1="2.2" x2="19.5" y2="3.9"/>
							
								<rect x="18.3" y="2.5" transform="matrix(-0.3812 -0.9245 0.9245 -0.3812 23.7823 21.9483)" fill="#616B77" width="1.8" height="1"/>
						</g>
					</g>
				</g>
			</g>
			<g>
				<g>
					<g>
						<g>
							<line fill="none" x1="38.2" y1="22.6" x2="39.8" y2="23.3"/>
							
								<rect x="38.1" y="22.4" transform="matrix(-0.9234 -0.3839 0.3839 -0.9234 66.2438 59.0034)" fill="#616B77" width="1.8" height="1"/>
						</g>
					</g>
					<g>
						<g>
							<line fill="none" x1="10.2" y1="10.9" x2="11.8" y2="11.6"/>
							
								<rect x="10.1" y="10.7" transform="matrix(-0.9233 -0.3841 0.3841 -0.9233 16.8786 25.7997)" fill="#616B77" width="1.8" height="1"/>
						</g>
					</g>
				</g>
				<g>
					<g>
						<g>
							<line fill="none" x1="31.2" y1="2.2" x2="30.5" y2="3.9"/>
							
								<rect x="30.3" y="2.2" transform="matrix(-0.9232 -0.3843 0.3843 -0.9232 58.0192 17.76)" fill="#616B77" width="1" height="1.8"/>
						</g>
					</g>
				</g>
			</g>
		</g>
	</g>
	<g>
		<g>
			<path fill="#ED2F58" d="M30.4,29.6H19.5v7.8c0,2.7,0.8,5.3,2.4,7.5l3,4.1l3-4.1c1.6-2.2,2.4-4.8,2.5-7.5V29.6z"/>
		</g>
	</g>
	<g>
		<g>
			<path fill="#FF6989" d="M25,29.6h-5.4v7.8c0,2.7,0.8,5.3,2.4,7.5l3,4.1V29.6z"/>
		</g>
	</g>
	<g>
		<g>
			<path fill="#FA4968" d="M27.5,29.6h-5v9.8c0,1.4,0.2,2.7,0.7,4.1L25,49l1.9-5.5c0.4-1.3,0.7-2.7,0.7-4.1L27.5,29.6z"/>
		</g>
	</g>
	<g>
		<g>
			<rect x="19.5" y="29.6" fill="#FFB95C" width="10.9" height="3"/>
		</g>
	</g>
	<g>
		<g>
			<polygon fill="#616B77" points="22.1,45.1 25,49 27.8,45.1 			"/>
		</g>
	</g>
</g>
</svg>
