<?xml version="1.0" encoding="utf-8"?>
<!-- Generator: Adobe Illustrator 18.0.0, SVG Export Plug-In . SVG Version: 6.00 Build 0)  -->
<!DOCTYPE svg PUBLIC "-//W3C//DTD SVG 1.1//EN" "http://www.w3.org/Graphics/SVG/1.1/DTD/svg11.dtd">
<svg version="1.1" id="Layer_1" xmlns="http://www.w3.org/2000/svg" xmlns:xlink="http://www.w3.org/1999/xlink" x="0px" y="0px"
	 viewBox="0 0 50 50" enable-background="new 0 0 50 50" xml:space="preserve">
<g>
	<g>
		<g>
			<path fill="#E5E5E5" d="M29.3,30.7c2.9,0,5.4-2.3,5.4-5.1l0,0c0-5.3-4.4-6.2-9.7-6.2s-9.7,0.9-9.7,6.2l0,0c0,2.9,2.5,5.1,5.4,5.1
				C20.7,30.7,29.3,30.7,29.3,30.7z"/>
		</g>
		<g>
			<path fill="#616B77" d="M34.7,25.5L34.7,25.5c0,2.9-2.5,5.2-5.4,5.2h-8.6c-2.9,0-5.4-2.3-5.4-5.1l0,0c0-5.3,4.4-6.2,9.7-6.2
				c0.8,0,1.6,0,2.3,0.1c0.8,0.1,1.6,0.2,2.3,0.3C32.7,20.4,34.7,21.9,34.7,25.5z"/>
		</g>
		<g>
			<path fill="#D9BAA8" d="M23.2,14.1c0,0-0.5,5.3-0.5,5.9c0,1.2,1,2.2,2.3,2.2s2.3-1,2.3-2.2c0-0.5-0.5-5.9-0.5-5.9H23.2z"/>
		</g>
		<g>
			<path fill="#C9A28F" d="M32.4,11.9c-0.3,1-1,1.5-2.2,1.2c-1.1-0.3-2.2-1.4-1.9-2.4c0.3-1,2.3-1.4,3.4-1.1
				C32.9,9.9,32.8,10.9,32.4,11.9z"/>
		</g>
		<g>
			<path fill="#C9A28F" d="M17.6,11.9c0.3,1,1,1.5,2.2,1.2c1.1-0.3,2.2-1.4,1.9-2.4c-0.3-1-2.3-1.4-3.4-1.1
				C17.1,9.9,17.2,10.9,17.6,11.9z"/>
		</g>
		<g>
			<path fill="#E8CEC1" d="M30.7,8.8c0,4-1.6,9.1-5.7,9.1s-5.7-5.1-5.7-9.1s1.6-5.5,5.7-5.5S30.7,4.8,30.7,8.8z"/>
		</g>
		<g>
			<path fill="#894D47" d="M16.3,7.4c3.7-1,3-7.9,6.6-4.9C25.2,4.5,20.4,10.6,16.3,7.4z"/>
		</g>
		<g>
			<path fill="#894D47" d="M30.9,9.2C28.2,5,20.7,8.8,22.6,3C23.9-0.7,32.9,2.8,30.9,9.2z"/>
		</g>
		<g>
			<polygon fill="#FA4968" points="24.2,22.2 23.2,27.7 24.9,29 26.6,27.7 25.6,22.2 			"/>
		</g>
		<g>
			<path fill="#DDEDEB" d="M29.7,19.8L27.3,24L25,22.2l2.3-2.7C28.2,19.5,28.9,19.6,29.7,19.8z"/>
		</g>
		<g>
			<path fill="#DDEDEB" d="M20.3,19.8l2.4,4.2l2.3-1.8l-2.3-2.7C21.8,19.5,21.1,19.6,20.3,19.8z"/>
		</g>
	</g>
	<g>
		<g>
			<g>
				<g>
					<path fill="#FA4968" d="M39.7,33.2h-4.9c-6.7,0-12.1,5.4-12.1,12.1v0.8c0,1.3,1,2.3,2.3,2.3s2.3-1,2.3-2.3v-0.8
						c0-4.1,3.4-7.5,7.5-7.5h4.9C39.7,37.8,39.7,33.2,39.7,33.2z"/>
				</g>
			</g>
			<g>
				<polygon fill="#FA4968" points="37.6,30 37.6,41.1 45.1,35.5 				"/>
			</g>
		</g>
		<g>
			<g>
				<g>
					<path fill="#FFB95C" d="M10.3,33.2h4.9c6.7,0,12.1,5.4,12.1,12.1v0.8c0,1.3-1,2.3-2.3,2.3s-2.3-1-2.3-2.3v-0.8
						c0-4.1-3.4-7.5-7.5-7.5h-4.9C10.3,37.8,10.3,33.2,10.3,33.2z"/>
				</g>
			</g>
			<g>
				<polygon fill="#FFB95C" points="12.4,30 12.4,41.1 4.9,35.5 				"/>
			</g>
		</g>
	</g>
</g>
</svg>
