<?xml version="1.0" encoding="utf-8"?>
<!-- Generator: Adobe Illustrator 18.0.0, SVG Export Plug-In . SVG Version: 6.00 Build 0)  -->
<!DOCTYPE svg PUBLIC "-//W3C//DTD SVG 1.1//EN" "http://www.w3.org/Graphics/SVG/1.1/DTD/svg11.dtd">
<svg version="1.1" id="Layer_1" xmlns="http://www.w3.org/2000/svg" xmlns:xlink="http://www.w3.org/1999/xlink" x="0px" y="0px"
	 viewBox="0 0 50 50" enable-background="new 0 0 50 50" xml:space="preserve">
<g>
	<g>
		<g>
			<path fill="#FFB95C" d="M10,27.9h9.3c0.5-1.5,1.3-2.9,2.4-4c1.9-2.1,3-4.9,2.5-8.1c-0.6-4.3-4.1-7.7-8.4-8.2C10,7,5,11.5,5,17.3
				c0,2.5,1,4.8,2.5,6.5C8.6,25,9.5,26.4,10,27.9z"/>
		</g>
		<g>
			<path fill="#FFCA8A" d="M8,14.7l-0.9-0.4c0.7-1.7,1.9-3.2,3.5-4.1l0.5,0.9C9.7,11.9,8.6,13.2,8,14.7z"/>
		</g>
		<g>
			<path fill="#FFCA8A" d="M12.6,10.5l-0.3-1c0.4-0.1,0.8-0.2,1.2-0.3l0.2,1C13.2,10.3,12.9,10.4,12.6,10.5z"/>
		</g>
		<g>
			<path fill="#FFFFFF" d="M16.7,27.9h-1V19h-2v8.7h-1V19h-0.9c-1.1,0-1.9-0.9-1.9-1.9c0-1.1,0.9-1.9,1.9-1.9s1.9,0.9,1.9,1.9V18h2
				v-0.9c0-1.1,0.9-1.9,1.9-1.9c1.1,0,1.9,0.9,1.9,1.9c0,1.1-0.9,1.9-1.9,1.9h-0.9V27.9z M16.7,18h0.9c0.5,0,0.9-0.4,0.9-0.9
				s-0.4-0.9-0.9-0.9s-0.9,0.4-0.9,0.9V18z M11.8,16.2c-0.5,0-0.9,0.4-0.9,0.9s0.4,0.9,0.9,0.9h0.9v-0.9
				C12.7,16.6,12.3,16.2,11.8,16.2z"/>
		</g>
		<g>
			<path fill="#616B77" d="M18.7,27.9h-7.9c-0.9,0-1.6,0.7-1.6,1.6l0,0c0,0.9,0.7,1.6,1.6,1.6h7.9c0.9,0,1.6-0.7,1.6-1.6l0,0
				C20.2,28.6,19.5,27.9,18.7,27.9z"/>
		</g>
		<g>
			<path fill="#616B77" d="M18.7,31.1h-7.9c-0.9,0-1.6,0.7-1.6,1.6c0,0.9,0.7,1.6,1.6,1.6h7.9c0.9,0,1.6-0.7,1.6-1.6
				S19.5,31.1,18.7,31.1z"/>
		</g>
		<g>
			<path fill="#616B77" d="M11.5,34.2c0.3,1.5,1.6,2.7,3.2,2.7s2.9-1.2,3.2-2.7H11.5z"/>
		</g>
		<g>
			<g>
				<g>
					<g>
						<g>
							<line fill="none" x1="26.9" y1="17.3" x2="28.4" y2="17.3"/>
						</g>
						<g>
							<line fill="none" x1="1" y1="17.3" x2="2.5" y2="17.3"/>
						</g>
					</g>
					<g>
						<g>
							<line fill="none" x1="14.7" y1="3.5" x2="14.7" y2="5"/>
						</g>
					</g>
				</g>
				<g>
					<g>
						<g>
							<line fill="none" x1="26.9" y1="17.3" x2="28.4" y2="17.3"/>
						</g>
						<g>
							<line fill="none" x1="1" y1="17.3" x2="2.5" y2="17.3"/>
						</g>
					</g>
					<g>
						<g>
							<line fill="none" x1="14.7" y1="3.5" x2="14.7" y2="5"/>
						</g>
					</g>
				</g>
				<g>
					<g>
						<g>
							<line fill="none" x1="23.3" y1="25.9" x2="24.4" y2="27"/>
						</g>
						<g>
							<line fill="none" x1="5" y1="7.6" x2="6.1" y2="8.6"/>
						</g>
					</g>
					<g>
						<g>
							<line fill="none" x1="6.1" y1="25.9" x2="5" y2="27"/>
						</g>
						<g>
							<line fill="none" x1="24.4" y1="7.6" x2="23.3" y2="8.6"/>
						</g>
					</g>
				</g>
			</g>
			<g>
				<g>
					<g>
						<g>
							<line fill="none" x1="26" y1="12.6" x2="27.4" y2="12"/>
						</g>
						<g>
							<line fill="none" x1="2" y1="22.5" x2="3.4" y2="21.9"/>
						</g>
					</g>
					<g>
						<g>
							<line fill="none" x1="9.4" y1="4.6" x2="10" y2="6"/>
						</g>
					</g>
				</g>
				<g>
					<g>
						<g>
							<line fill="none" x1="26" y1="12.6" x2="27.4" y2="12"/>
						</g>
						<g>
							<line fill="none" x1="2" y1="22.5" x2="3.4" y2="21.9"/>
						</g>
					</g>
					<g>
						<g>
							<line fill="none" x1="9.4" y1="4.6" x2="10" y2="6"/>
						</g>
					</g>
				</g>
				<g>
					<g>
						<g>
							<line fill="none" x1="26" y1="21.9" x2="27.4" y2="22.5"/>
						</g>
						<g>
							<line fill="none" x1="2" y1="12" x2="3.4" y2="12.6"/>
						</g>
					</g>
					<g>
						<g>
							<line fill="none" x1="20" y1="4.6" x2="19.4" y2="6"/>
						</g>
					</g>
				</g>
			</g>
		</g>
	</g>
	<g>
		<g>
			<path fill="#559AFF" d="M49,38.1c-0.3,1.2-0.8,2.3-1.4,3.4c-1.2-0.4-2.4-0.3-3.2,0.4c-0.7,0.8-0.8,2-0.4,3.2
				c-1,0.7-2.1,1.1-3.3,1.4c-0.6-1.2-1.5-2-2.5-2s-2,0.8-2.5,2c-1.2-0.3-2.3-0.8-3.3-1.4c0.4-1.2,0.3-2.4-0.4-3.2
				c-0.7-0.7-1.9-0.9-3.2-0.4c-0.6-1-1.1-2.2-1.4-3.4c1.2-0.6,1.9-1.5,1.9-2.6c0-1-0.8-2-1.9-2.6c0.3-1.2,0.7-2.3,1.4-3.4
				c1.2,0.4,2.4,0.3,3.2-0.4c0.7-0.8,0.8-1.9,0.4-3.2c1-0.6,2.1-1.1,3.3-1.4c0.6,1.2,1.5,2,2.5,2c1.1,0,2-0.8,2.5-2
				c1.2,0.3,2.3,0.8,3.3,1.4c-0.4,1.2-0.3,2.4,0.4,3.2c0.7,0.7,1.9,0.9,3.2,0.4c0.6,1,1.1,2.2,1.4,3.4c-1.2,0.6-1.9,1.5-1.9,2.6
				S47.9,37.5,49,38.1z"/>
		</g>
		<g>
			<circle fill="#FFFFFF" cx="38.2" cy="35.5" r="5"/>
		</g>
	</g>
	<g>
		<path fill="#FA4968" d="M42.7,16.5h-2.4v-4.3c0-1.5-0.6-2.9-1.6-3.9s-2.3-1.6-3.8-1.6h-4.5c1.5,0,2.9,0.6,3.8,1.6
			c1,1,1.6,2.3,1.6,3.9v4.3h-2.4l4.6,5.3L42.7,16.5z"/>
	</g>
</g>
</svg>
