<?xml version="1.0" encoding="utf-8"?>
<!-- Generator: Adobe Illustrator 18.0.0, SVG Export Plug-In . SVG Version: 6.00 Build 0)  -->
<!DOCTYPE svg PUBLIC "-//W3C//DTD SVG 1.1//EN" "http://www.w3.org/Graphics/SVG/1.1/DTD/svg11.dtd">
<svg version="1.1" id="Layer_1" xmlns="http://www.w3.org/2000/svg" xmlns:xlink="http://www.w3.org/1999/xlink" x="0px" y="0px"
	 viewBox="0 0 50 50" enable-background="new 0 0 50 50" xml:space="preserve">
<g>
	<g>
		<g>
			<g>
				<path fill="#425060" d="M12.8,31.6H6.7v-4.5h6.1C12.8,27.1,12.8,31.6,12.8,31.6z M7.7,30.6h4.1v-2.5H7.7V30.6z"/>
			</g>
			<g>
				
					<rect x="9.2" y="26.3" transform="matrix(-0.5687 -0.8226 0.8226 -0.5687 -8.952 54.0229)" fill="#425060" width="1" height="6.2"/>
			</g>
			<g>
				
					<rect x="6.6" y="28.9" transform="matrix(-0.8227 -0.5685 0.5685 -0.8227 0.961 59.05)" fill="#425060" width="6.2" height="1"/>
			</g>
		</g>
		<g>
			<g>
				<path fill="#425060" d="M17.9,31.6h-6.1v-4.5h6.1V31.6z M12.8,30.6h4.1v-2.5h-4.1C12.8,28.1,12.8,30.6,12.8,30.6z"/>
			</g>
			<g>
				
					<rect x="14.3" y="26.3" transform="matrix(-0.5687 -0.8226 0.8226 -0.5687 -0.9673 58.2291)" fill="#425060" width="1" height="6.2"/>
			</g>
			<g>
				
					<rect x="11.7" y="28.9" transform="matrix(-0.8227 -0.5685 0.5685 -0.8227 10.2497 61.96)" fill="#425060" width="6.2" height="1"/>
			</g>
		</g>
		<g>
			<g>
				<path fill="#425060" d="M23,31.6h-6.1v-4.5H23V31.6z M17.9,30.6H22v-2.5h-4.1V30.6z"/>
			</g>
			<g>
				
					<rect x="19.4" y="26.3" transform="matrix(-0.5686 -0.8226 0.8226 -0.5686 7.0175 62.4321)" fill="#425060" width="1" height="6.2"/>
			</g>
			<g>
				
					<rect x="16.8" y="28.9" transform="matrix(-0.8227 -0.5685 0.5685 -0.8227 19.5383 64.8698)" fill="#425060" width="6.2" height="1"/>
			</g>
		</g>
		<g>
			<g>
				<path fill="#425060" d="M28,31.6h-6v-4.5h6V31.6z M23,30.6h4v-2.5h-4V30.6z"/>
			</g>
			<g>
				
					<rect x="24.5" y="26.3" transform="matrix(-0.5686 -0.8226 0.8226 -0.5686 15.0014 66.6383)" fill="#425060" width="1" height="6.2"/>
			</g>
			<g>
				
					<rect x="21.9" y="28.9" transform="matrix(-0.8226 -0.5686 0.5686 -0.8226 28.8159 67.7775)" fill="#425060" width="6.2" height="1"/>
			</g>
		</g>
		<g>
			<g>
				<path fill="#425060" d="M33.1,31.6H27v-4.5h6.1V31.6z M28,30.6h4.1v-2.5H28V30.6z"/>
			</g>
			<g>
				
					<rect x="29.6" y="26.3" transform="matrix(-0.5687 -0.8226 0.8226 -0.5687 22.9863 70.8486)" fill="#425060" width="1" height="6.2"/>
			</g>
			<g>
				
					<rect x="27" y="28.9" transform="matrix(-0.8227 -0.5685 0.5685 -0.8227 38.1155 70.6902)" fill="#425060" width="6.2" height="1"/>
			</g>
		</g>
		<g>
			<g>
				<path fill="#425060" d="M38.2,31.6h-6.1v-4.5h6.1V31.6z M33.1,30.6h4.1v-2.5h-4.1V30.6z"/>
			</g>
			<g>
				
					<rect x="34.7" y="26.3" transform="matrix(-0.5687 -0.8226 0.8226 -0.5687 30.971 75.055)" fill="#425060" width="1" height="6.2"/>
			</g>
			<g>
				
					<rect x="32.1" y="28.9" transform="matrix(-0.8227 -0.5685 0.5685 -0.8227 47.4042 73.6002)" fill="#425060" width="6.2" height="1"/>
			</g>
		</g>
		<g>
			<g>
				<path fill="#425060" d="M43.3,31.6h-6.1v-4.5h6.1V31.6z M38.2,30.6h4.1v-2.5h-4.1V30.6z"/>
			</g>
			<g>
				
					<rect x="39.8" y="26.3" transform="matrix(-0.5687 -0.8226 0.8226 -0.5687 38.9558 79.2613)" fill="#425060" width="1" height="6.2"/>
			</g>
			<g>
				
					<rect x="37.2" y="28.9" transform="matrix(-0.8227 -0.5685 0.5685 -0.8227 56.6929 76.51)" fill="#425060" width="6.2" height="1"/>
			</g>
		</g>
	</g>
	<g>
		<rect x="4.3" y="5.5" fill="#616B77" width="41.4" height="22.6"/>
	</g>
	<g opacity="5.000000e-002">
		<polygon fill="#FFFFFF" points="15.1,27.8 5.7,27.8 8.4,9.9 12.4,9.9 		"/>
	</g>
	<g opacity="5.000000e-002">
		<polygon fill="#FFFFFF" points="22.6,27.8 13.2,27.8 15.9,9.9 19.9,9.9 		"/>
	</g>
	<g opacity="5.000000e-002">
		<polygon fill="#FFFFFF" points="30.2,27.8 20.8,27.8 23.5,9.9 27.4,9.9 		"/>
	</g>
	<g opacity="5.000000e-002">
		<polygon fill="#FFFFFF" points="37.7,27.8 28.4,27.8 31.1,9.9 35,9.9 		"/>
	</g>
	<g opacity="5.000000e-002">
		<polygon fill="#FFFFFF" points="45,27.8 35.7,27.8 38.4,9.9 42.3,9.9 		"/>
	</g>
	<g>
		<rect x="8.4" y="8" fill="#FFB95C" width="4.1" height="2"/>
	</g>
	<g>
		<path fill="#425060" d="M11,8h-1V4.4c0-0.5-0.4-1-1-1c-0.5,0-1,0.4-1,1v1.1H7V4.4c0-1.1,0.9-2,2-2s2,0.9,2,2V8z"/>
	</g>
	<g>
		<rect x="15.8" y="8" fill="#FFB95C" width="4.1" height="2"/>
	</g>
	<g>
		<path fill="#425060" d="M18.5,8h-1V4.4c0-0.5-0.4-1-1-1c-0.5,0-1,0.4-1,1v1.1h-1V4.4c0-1.1,0.9-2,2-2s2,0.9,2,2V8z"/>
	</g>
	<g>
		<rect x="23.3" y="8" fill="#FFB95C" width="4.1" height="2"/>
	</g>
	<g>
		<path fill="#425060" d="M26,8h-1V4.4c0-0.5-0.4-1-1-1s-1,0.4-1,1v1.1h-1V4.4c0-1.1,0.9-2,2-2s2,0.9,2,2V8z"/>
	</g>
	<g>
		<rect x="30.8" y="8" fill="#FFB95C" width="4.1" height="2"/>
	</g>
	<g>
		<path fill="#425060" d="M33.5,8h-1V4.4c0-0.5-0.4-1-1-1c-0.5,0-1,0.4-1,1v1.1h-1V4.4c0-1.1,0.9-2,2-2c1.1,0,2,0.9,2,2V8z"/>
	</g>
	<g>
		<rect x="38.3" y="8" fill="#FFB95C" width="4.1" height="2"/>
	</g>
	<g>
		<path fill="#425060" d="M40.9,8h-1V4.4c0-0.5-0.4-1-1-1c-0.5,0-1,0.4-1,1v1.1h-1V4.4c0-1.1,0.9-2,2-2s2,0.9,2,2V8z"/>
	</g>
	<g>
		<rect x="22.5" y="28.1" fill="#6CD8D5" width="5.1" height="19.5"/>
	</g>
</g>
</svg>
