<?xml version="1.0" encoding="utf-8"?>
<!-- Generator: Adobe Illustrator 18.0.0, SVG Export Plug-In . SVG Version: 6.00 Build 0)  -->
<!DOCTYPE svg PUBLIC "-//W3C//DTD SVG 1.1//EN" "http://www.w3.org/Graphics/SVG/1.1/DTD/svg11.dtd">
<svg version="1.1" id="Layer_1" xmlns="http://www.w3.org/2000/svg" xmlns:xlink="http://www.w3.org/1999/xlink" x="0px" y="0px"
	 viewBox="0 0 50 50" enable-background="new 0 0 50 50" xml:space="preserve">
<g>
	<g>
		<g>
			<path fill="#E8CEC1" d="M20,44.1c-0.7,1.4-0.3,3.1,0.3,4.6c0,0.1,0.1,0.2,0.1,0.3h21.4c-7-7.2,0.7-21.3,2.2-27.1
				c2.1-8.3-1.3-13.6-5.2-16.8C34.6,1.7,29,0.4,23.5,1.3c-15,2.6-14.8,14-14.2,18.2c0.1,1-0.1,2.1-0.6,3l-3.2,5.2
				c-0.6,1-0.2,2.2,0.8,2.7l1.8,0.9V34l1.9,1.1L8.3,37l1.9,1.4L9.9,41c-0.2,1.6,1,3,2.6,3.1c3.2,0.3,8.4,0.3,12.7-1.6"/>
		</g>
	</g>
	<g>
		<g>
			<path fill="#E5E5E5" d="M38.3,17.2c0,2.5-2,4.4-4.4,4.4c-2.5,0-11.5,0-14.4,0s-5.3-2.4-5.3-5.3c0-2.5,1.7-4.6,4.1-5.1v-0.1
				c0-3.1,2.5-5.6,5.6-5.6c2.3,0,4.3,1.4,5.1,3.3c0.6-0.4,1.3-0.6,2-0.6c2,0,3.6,1.6,3.6,3.6c0,0.3,0,0.6-0.1,0.9
				C36.6,13.1,38.3,15,38.3,17.2z"/>
		</g>
		<g>
			<path fill="#F4F4F4" d="M21.6,8.8l-0.7-0.7c1.3-1.3,3.3-1.6,4.9-0.8l-0.4,0.9C24,7.6,22.5,7.8,21.6,8.8z"/>
		</g>
		<g>
			<path fill="#F4F4F4" d="M33.3,11.9h-1c0-0.8-0.8-1.5-1.7-1.2l-0.3-0.9C31.8,9.2,33.3,10.4,33.3,11.9z"/>
		</g>
		<g>
			<path fill="#F4F4F4" d="M36.9,17.2h-1c0-0.5-0.2-1.1-0.6-1.5L36,15C36.6,15.6,36.9,16.4,36.9,17.2z"/>
		</g>
		<g>
			<path fill="#F4F4F4" d="M16.6,16.4h-1c0-1.1,0.5-2.2,1.3-2.9l0.7,0.7C16.9,14.7,16.6,15.5,16.6,16.4z"/>
		</g>
	</g>
	<g>
		<polygon fill="#FA4968" points="21.2,34.2 23.3,27.2 19,27.2 27.6,17.2 25.6,24.3 29.8,24.3 		"/>
	</g>
</g>
</svg>
