<?xml version="1.0" encoding="utf-8"?>
<!-- Generator: Adobe Illustrator 18.0.0, SVG Export Plug-In . SVG Version: 6.00 Build 0)  -->
<!DOCTYPE svg PUBLIC "-//W3C//DTD SVG 1.1//EN" "http://www.w3.org/Graphics/SVG/1.1/DTD/svg11.dtd">
<svg version="1.1" id="Layer_1" xmlns="http://www.w3.org/2000/svg" xmlns:xlink="http://www.w3.org/1999/xlink" x="0px" y="0px"
	 viewBox="0 0 50 50" enable-background="new 0 0 50 50" xml:space="preserve">
<g>
	<g>
		<path fill="#FA4968" d="M40.6,38.3l-4.8,3.2l-4.7-3.2c-3.1,0.8-5.2,2.5-5.2,6.2c0,0.7,0.1,1.5,0.2,2.2c0.2,1.2,1.4,2.1,2.7,2.1
			h14.1c1.3,0,2.5-0.9,2.7-2.1c0.2-0.8,0.2-1.5,0.2-2.2C45.8,40.9,43.7,39.1,40.6,38.3z"/>
	</g>
	<g>
		<g>
			<path fill="#FECD04" d="M37.9,48.9l-1-6.8l0.6-1.5c0-0.9-3.3-0.9-3.3,0l0.6,1.5l-1,6.8H37.9z"/>
		</g>
	</g>
	<g>
		<path fill="#6CD8D5" d="M16.7,40l-4,2.7l-4-2.7c-2.6,0.6-4.4,2.2-4.4,5.3c0,0.6,0.1,1.3,0.2,1.9c0.1,1,1.1,1.8,2.2,1.8h12
			c1.1,0,2.1-0.8,2.3-1.8c0.1-0.7,0.2-1.3,0.2-1.9C21.2,42.1,19.4,40.6,16.7,40z"/>
	</g>
	<g>
		<g>
			<path fill="#559AFF" d="M14.5,49l-0.8-5.8l0.5-1.3c0-0.8-2.8-0.8-2.8,0l0.5,1.3l-1,5.8H14.5z"/>
		</g>
	</g>
	<g>
		<g>
			<path fill="#8CF2ED" d="M7.5,43.1l-0.7-0.8C7,42.2,7.1,42.1,7.3,42l0.5,0.8C7.7,42.9,7.6,43,7.5,43.1z"/>
		</g>
		<g>
			<path fill="#8CF2ED" d="M5.7,46.2c0-0.3-0.1-0.6-0.1-0.9c0-0.6,0.1-1.1,0.2-1.6l1,0.3c-0.1,0.3-0.2,0.7-0.2,1.2
				c0,0.3,0,0.5,0.1,0.8L5.7,46.2z"/>
		</g>
	</g>
	<g>
		<polygon fill="#F4F4F4" points="16,38.6 12.7,41.3 14.6,42.5 16.7,40 		"/>
	</g>
	<g>
		<polygon fill="#F4F4F4" points="9.4,38.6 12.7,41.3 10.8,42.5 8.7,40 		"/>
	</g>
	<g>
		<path fill="#FFFFFF" d="M14.6,42.5"/>
	</g>
	<g>
		<path fill="#525F70" d="M9.9,31.4c0.5-0.1,1.1,0,1.6,0.1c0.5,0.2,1,0.4,1.6,0.5c0.7,0.2,1.4,0.2,2,0c0.5-0.1,1-0.4,1.3-0.8v-1
			c0-1.2-1-2.1-2.2-2.1h-3.1c-1.2,0-2.2,1-2.2,2.1v1.6C9.2,31.6,9.5,31.4,9.9,31.4z"/>
	</g>
	<g>
		<path fill="#FFA49F" d="M16.5,32.6v-1.4c-0.4,0.4-0.8,0.6-1.3,0.8c-0.7,0.2-1.4,0.2-2,0c-0.5-0.1-1.1-0.3-1.6-0.5
			s-1.1-0.2-1.6-0.1c-0.4,0.1-0.7,0.3-0.9,0.5v0.7C8.4,32.6,8,33,8,33.5s0.4,0.9,0.9,0.9l0,0c0.2,1.8,1.8,3.2,3.7,3.2
			s3.5-1.4,3.7-3.2l0,0c0.5,0,0.9-0.4,0.9-0.9C17.4,33,17,32.6,16.5,32.6z"/>
	</g>
	<g>
		<g>
			<path fill="#FF6989" d="M29.6,41.9L29,41.2c0.1-0.1,0.3-0.2,0.5-0.3l0.5,0.8C29.9,41.7,29.7,41.8,29.6,41.9z"/>
		</g>
		<g>
			<path fill="#FF6989" d="M27.7,45.6c0-0.4-0.1-0.7-0.1-1.1c0-0.7,0.1-1.3,0.3-1.8l0.9,0.3c-0.1,0.4-0.2,0.9-0.2,1.5
				c0,0.3,0,0.6,0.1,1L27.7,45.6z"/>
		</g>
	</g>
	<g>
		<polygon fill="#FF6989" points="39.7,36.7 35.8,39.9 38.1,41.2 40.6,38.3 		"/>
	</g>
	<g>
		<polygon fill="#FF6989" points="32,36.7 35.8,39.9 33.5,41.2 31.1,38.3 		"/>
	</g>
	<g>
		<path fill="#FFFFFF" d="M38.1,41.2"/>
	</g>
	<g>
		<path fill="#525F70" d="M32.5,28.2c0.6-0.1,1.3,0,1.9,0.2c0.6,0.2,1.2,0.4,1.9,0.6c0.8,0.2,1.6,0.2,2.4,0c0.6-0.2,1.2-0.5,1.6-0.9
			V27c0-1.4-1.2-2.5-2.6-2.5H34c-1.4,0-2.6,1.1-2.6,2.5v1.9C31.7,28.5,32.1,28.3,32.5,28.2z"/>
	</g>
	<g>
		<path fill="#FFA49F" d="M40.2,29.7V28c-0.4,0.4-1,0.8-1.6,0.9c-0.8,0.2-1.6,0.2-2.4,0c-0.6-0.1-1.2-0.4-1.9-0.6
			c-0.6-0.2-1.3-0.3-1.9-0.2c-0.4,0.1-0.8,0.3-1.1,0.6v0.9c-0.6,0-1.1,0.5-1.1,1.1s0.5,1,1.1,1l0,0c0.3,2.1,2.1,3.8,4.4,3.8
			s4.1-1.7,4.4-3.8l0,0c0.6,0,1.1-0.5,1.1-1C41.3,30.2,40.8,29.7,40.2,29.7z"/>
	</g>
	<g>
		<g>
			<path fill="#F4F4F4" d="M27.4,19.3l1.5,6.3l-6.4-1.5c-1.8,1-3.8,1.5-6,1.5c-6.8,0-12.3-5.5-12.3-12.3C4.3,6.5,9.8,1,16.6,1
				s12.3,5.5,12.3,12.3C28.9,15.5,28.3,17.5,27.4,19.3z"/>
		</g>
		<g>
			<g>
				<g>
					<circle fill="#FA4968" cx="9.4" cy="9.5" r="1.5"/>
				</g>
				<g>
					<circle fill="#FFB95C" cx="22.8" cy="13.9" r="1.5"/>
				</g>
				<g>
					<circle fill="#8CF2ED" cx="14.2" cy="20.4" r="1.4"/>
				</g>
			</g>
			<g>
				<g>
					
						<rect x="8.6" y="14.7" transform="matrix(-0.7072 -0.7071 0.7071 -0.7072 4.1821 33.8623)" fill="#425060" width="1" height="2.7"/>
				</g>
				<g>
					
						<rect x="7.7" y="15.6" transform="matrix(-0.7069 -0.7073 0.7073 -0.7069 4.0561 33.8081)" fill="#425060" width="2.7" height="1"/>
				</g>
			</g>
			<g>
				<g>
					
						<rect x="22" y="6.1" transform="matrix(-0.7071 -0.7071 0.7071 -0.7071 33.1467 28.5809)" fill="#425060" width="1" height="2.7"/>
				</g>
				<g>
					
						<rect x="21.2" y="6.9" transform="matrix(-0.7072 -0.707 0.707 -0.7072 33.2721 28.6292)" fill="#425060" width="2.7" height="1"/>
				</g>
			</g>
			<g>
				
					<rect x="18" y="13.2" transform="matrix(-0.6088 -0.7934 0.7934 -0.6088 16.2011 42.2826)" fill="#425060" width="1" height="7.8"/>
			</g>
			<g>
				
					<rect x="13.5" y="4.7" transform="matrix(-0.332 -0.9433 0.9433 -0.332 11.0598 23.8095)" fill="#425060" width="1" height="6.6"/>
			</g>
			<g>
				
					<rect x="10.6" y="11.2" transform="matrix(-0.951 -0.3092 0.3092 -0.951 27.7776 27.8079)" fill="#425060" width="11" height="1"/>
			</g>
			<g>
				<polygon fill="#425060" points="16.2,8.9 15.4,8.3 16.3,7.1 14.9,6.8 15.2,5.8 17.9,6.6 				"/>
			</g>
		</g>
	</g>
</g>
</svg>
