<?xml version="1.0" encoding="utf-8"?>
<!-- Generator: Adobe Illustrator 18.0.0, SVG Export Plug-In . SVG Version: 6.00 Build 0)  -->
<!DOCTYPE svg PUBLIC "-//W3C//DTD SVG 1.1//EN" "http://www.w3.org/Graphics/SVG/1.1/DTD/svg11.dtd">
<svg version="1.1" id="Layer_1" xmlns="http://www.w3.org/2000/svg" xmlns:xlink="http://www.w3.org/1999/xlink" x="0px" y="0px"
	 viewBox="0 0 50 50" enable-background="new 0 0 50 50" xml:space="preserve">
<g>
	<g>
		<path fill="#E5E5E5" d="M46.2,39.8H3.8c-1.3,0-2.3-1-2.3-2.3V5.9c0-1.3,1-2.3,2.3-2.3h42.3c1.3,0,2.3,1,2.3,2.3v31.5
			C48.5,38.7,47.5,39.8,46.2,39.8z"/>
	</g>
	<g>
		<g>
			<polygon fill="#CCCACA" points="40.9,20.3 39.9,20.3 39.9,16.6 36.2,16.6 36.2,15.6 40.9,15.6 			"/>
		</g>
		<g>
			<polygon fill="#CCCACA" points="10.1,20.3 9.1,20.3 9.1,15.6 13.8,15.6 13.8,16.6 10.1,16.6 			"/>
		</g>
		<g>
			<polygon fill="#CCCACA" points="40.9,35.6 36.2,35.6 36.2,34.6 39.9,34.6 39.9,30.9 40.9,30.9 			"/>
		</g>
		<g>
			<polygon fill="#CCCACA" points="13.8,35.6 9.1,35.6 9.1,30.9 10.1,30.9 10.1,34.6 13.8,34.6 			"/>
		</g>
	</g>
	<g>
		<circle fill="#FA4968" cx="5.5" cy="7.8" r="1.4"/>
	</g>
	<g>
		<circle fill="#FFB95C" cx="10.1" cy="7.8" r="1.4"/>
	</g>
	<g>
		<circle fill="#C6CC4A" cx="14.7" cy="7.8" r="1.4"/>
	</g>
	<g>
		<path fill="#CCCACA" d="M45.9,7.8c0,0.8-0.6,1.4-1.4,1.4H20.7c-0.8,0-1.4-0.6-1.4-1.4s0.6-1.4,1.4-1.4h23.8
			C45.3,6.4,45.9,7.1,45.9,7.8z"/>
	</g>
	<g>
		<path fill="#425060" d="M28.9,42.5c0,2.2-1.8,3.9-3.9,3.9c-2.2,0-3.9-1.8-3.9-3.9c0-1,0.4-1.4,1-5.7c0.9,0.3,1.9,0.4,2.9,0.4
			s2-0.1,2.9-0.4C28.6,41.1,28.9,41.5,28.9,42.5z"/>
	</g>
	<g>
		<path fill="#616B77" d="M33.6,34.2c-4.8,4.8-12.5,4.8-17.2,0s-4.8-12.5,0-17.2c4.8-4.8,12.5-4.8,17.2,0S38.4,29.5,33.6,34.2z"/>
	</g>
	<g opacity="0.2">
		<path fill="#FFFFFF" d="M15.8,21.8l-0.9-0.4c0.5-1.3,1.3-2.5,2.4-3.6c0.6-0.6,1.4-1.2,2.1-1.7l0.5,0.9c-0.7,0.4-1.3,0.9-1.9,1.5
			C17,19.5,16.3,20.6,15.8,21.8z"/>
	</g>
	<g opacity="0.2">
		<path fill="#FFFFFF" d="M21.4,16.3L21,15.4c0.8-0.3,1.7-0.5,2.6-0.6l0.1,1C23,15.8,22.2,16,21.4,16.3z"/>
	</g>
	<g>
		<path fill="#FF6989" d="M31.1,31.7c-3.4,3.4-8.9,3.4-12.2,0c-3.4-3.4-3.4-8.8,0-12.2s8.9-3.4,12.2,0S34.5,28.3,31.1,31.7z"/>
	</g>
	<g>
		<path fill="#EABE06" d="M28.9,22.1h-7.8c-0.9,0-1.6,0.7-1.6,1.6v4.5c0,0.9,0.7,1.6,1.6,1.6h7.8c0.9,0,1.6-0.7,1.6-1.6v-4.5
			C30.5,22.8,29.8,22.1,28.9,22.1z"/>
	</g>
	<g>
		<path fill="#616B77" d="M27.4,23.1h-4.8v-1.9c0-0.7,0.5-1.2,1.2-1.2h2.4c0.7,0,1.2,0.5,1.2,1.2V23.1z M23.6,22.1h2.8v-0.9
			c0-0.1-0.1-0.2-0.2-0.2h-2.4c-0.1,0-0.2,0.1-0.2,0.2C23.6,21.2,23.6,22.1,23.6,22.1z"/>
	</g>
	<g>
		<path fill="#FFD731" d="M29.1,22.1H21c-0.8,0-1.4,0.6-1.4,1.4v0.7c0,0.8,0.6,1.4,1.4,1.4h8.1c0.8,0,1.4-0.6,1.4-1.4v-0.7
			C30.5,22.7,29.8,22.1,29.1,22.1z"/>
	</g>
	<g>
		<path fill="#FFFFFF" d="M25.5,24.6h-1c-0.3,0-0.5,0.2-0.5,0.5v1.3c0,0.3,0.2,0.5,0.5,0.5h1c0.3,0,0.5-0.2,0.5-0.5v-1.3
			C26,24.8,25.8,24.6,25.5,24.6z"/>
	</g>
</g>
</svg>
