<?xml version="1.0" encoding="utf-8"?>
<!-- Generator: Adobe Illustrator 18.0.0, SVG Export Plug-In . SVG Version: 6.00 Build 0)  -->
<!DOCTYPE svg PUBLIC "-//W3C//DTD SVG 1.1//EN" "http://www.w3.org/Graphics/SVG/1.1/DTD/svg11.dtd">
<svg version="1.1" id="Layer_1" xmlns="http://www.w3.org/2000/svg" xmlns:xlink="http://www.w3.org/1999/xlink" x="0px" y="0px"
	 viewBox="0 0 50 50" enable-background="new 0 0 50 50" xml:space="preserve">
<g>
	<g>
		<g>
			<path fill="#FECD04" d="M44.1,32.1L23.5,18.6c-4.1-2-7,3.5-12,0.2c-5.3-3.5-0.1-8.6-4.2-12.9c5.6,2,8.2-4.8,13.5-1.3
				c5,3.3,1.2,8.1,4.6,11.1L46,29.1C47.2,29.9,45.3,32.9,44.1,32.1z"/>
		</g>
		<g>
			<path fill="#FFFFFF" d="M17.5,15.7c-1,1.5-2.9,1.9-4.4,0.9s-1.9-2.9-0.9-4.4c0.6-0.9,1.7-1.5,2.7-1.4c-0.4-1-0.4-2.1,0.2-3.1
				c1-1.5,2.9-1.9,4.4-0.9s1.9,2.9,0.9,4.4c-0.6,0.9-1.7,1.5-2.7,1.4C18.2,13.6,18.1,14.8,17.5,15.7z"/>
		</g>
		<g>
			<g>
				<polygon fill="#FFFFFF" points="12.8,7.3 10.9,8.2 10.9,10.3 12.8,9.5 				"/>
			</g>
			<g>
				<polygon fill="#FFFFFF" points="21.8,13.2 19.9,14.1 19.9,16.2 21.8,15.4 				"/>
			</g>
		</g>
		<g>
			<g>
				
					<rect x="36.3" y="29.1" transform="matrix(-0.836 -0.5488 0.5488 -0.836 54.4128 79.048)" fill="#EABE06" width="5.4" height="4.5"/>
			</g>
			<g>
				<line fill="none" x1="36.7" y1="29.9" x2="37.9" y2="30.8"/>
				
					<rect x="36.6" y="29.8" transform="matrix(-0.8362 -0.5484 0.5484 -0.8362 51.9976 76.1651)" fill="#FFD731" width="1.5" height="1"/>
			</g>
			<g>
				<line fill="none" x1="39.9" y1="32.1" x2="41.2" y2="32.9"/>
				
					<rect x="39.8" y="32" transform="matrix(-0.836 -0.5488 0.5488 -0.836 56.5826 81.8965)" fill="#FFD731" width="1.5" height="1"/>
			</g>
		</g>
		<g>
			<line fill="none" x1="38.3" y1="22.9" x2="35.3" y2="27.4"/>
			
				<rect x="36.3" y="22.5" transform="matrix(-0.8359 -0.5488 0.5488 -0.8359 53.6926 66.4632)" fill="#FFD731" width="1" height="5.4"/>
		</g>
		<g>
			<g>
				<line fill="none" x1="26.7" y1="15.7" x2="24.1" y2="19.7"/>
				
					<rect x="24.9" y="15.3" transform="matrix(-0.8359 -0.5488 0.5488 -0.8359 37.0281 46.3601)" fill="#FFD731" width="1" height="4.7"/>
			</g>
			<g>
				<line fill="none" x1="28.6" y1="16.5" x2="25.6" y2="21.1"/>
				
					<rect x="26.6" y="16.1" transform="matrix(-0.8359 -0.5488 0.5488 -0.8359 39.4543 49.3974)" fill="#FFD731" width="1" height="5.4"/>
			</g>
			<g>
				<line fill="none" x1="30.1" y1="17.9" x2="27.5" y2="21.9"/>
				
					<rect x="28.3" y="17.5" transform="matrix(-0.8359 -0.5489 0.5489 -0.8359 42.026 52.3162)" fill="#FFD731" width="1" height="4.7"/>
			</g>
		</g>
	</g>
	<g>
		<path fill="#FFA49F" d="M27.3,45.8c5.8,0.1,22.6-4.9,21.7-8.6c-0.6-2.6-14,1.5-14,1.5h-0.1c-1.4-3.8-11.6-7.6-15.7-8.2
			c-2.8-0.4-9.8,1.9-12.6,2.9l1.1,9c2.7-0.7,7.3-1.7,9.2-1.3C19.7,41.6,24.4,45.7,27.3,45.8z"/>
	</g>
	<g opacity="0.2">
		<path fill="#FFFFFF" d="M26.4,35.8c-0.4-0.2-0.7-0.3-1.1-0.5l0.4-0.9c0.4,0.2,0.8,0.3,1.1,0.5L26.4,35.8z"/>
	</g>
	<g opacity="0.2">
		<path fill="#FFFFFF" d="M23.5,34.7c-1.5-0.5-2.9-1-4.1-1.2l0.2-1c1.3,0.3,2.7,0.7,4.3,1.3L23.5,34.7z"/>
	</g>
	<g>
		<path fill="#F4F4F4" d="M30.3,39.8c0.1,0,0.2,0.1,0.3,0.1c1.4,0.6,2.7,0.5,3-0.2s-0.6-1.7-2-2.2c-0.1,0-0.2-0.1-0.3-0.1
			C31.5,38.5,31.2,39.3,30.3,39.8z"/>
	</g>
	<g>
		
			<rect x="3.6" y="31.2" transform="matrix(0.9131 -0.4078 0.4078 0.9131 -15.0153 6.3145)" fill="#6EB0FF" width="7.4" height="14.3"/>
	</g>
	<g>
		<g>
			<circle fill="#FFFFFF" cx="6.2" cy="35.8" r="1.4"/>
		</g>
	</g>
</g>
</svg>
