<?xml version="1.0" encoding="utf-8"?>
<!-- Generator: Adobe Illustrator 18.0.0, SVG Export Plug-In . SVG Version: 6.00 Build 0)  -->
<!DOCTYPE svg PUBLIC "-//W3C//DTD SVG 1.1//EN" "http://www.w3.org/Graphics/SVG/1.1/DTD/svg11.dtd">
<svg version="1.1" id="Layer_1" xmlns="http://www.w3.org/2000/svg" xmlns:xlink="http://www.w3.org/1999/xlink" x="0px" y="0px"
	 viewBox="0 0 50 50" enable-background="new 0 0 50 50" xml:space="preserve">
<g>
	<g>
		<g>
			<g>
				<path fill="#525F70" d="M45.5,23.2l-0.9-0.5c1.1-1.9,1.6-4,1.6-6.2c0-7-5.7-12.6-12.6-12.6c-2.1,0-4.1,0.5-6,1.5l-0.5-0.9
					c2-1.1,4.2-1.6,6.5-1.6c7.5,0,13.6,6.1,13.6,13.6C47.2,18.9,46.6,21.2,45.5,23.2z"/>
			</g>
			<g>
				<path fill="#525F70" d="M4.5,23.2c-1.2-2-1.8-4.3-1.8-6.7C2.8,9,8.9,2.9,16.4,2.9c2.3,0,4.5,0.5,6.5,1.6l-0.5,0.9
					c-1.9-1-3.9-1.5-6-1.5c-7,0-12.6,5.7-12.6,12.6c0,2.2,0.6,4.3,1.6,6.2L4.5,23.2z"/>
			</g>
		</g>
		<g>
			<g>
				<path fill="#525F70" d="M33.6,47.1c-2.3,0-4.5-0.5-6.5-1.6l0.5-0.9c1.9,1,3.9,1.5,6,1.5c7,0,12.6-5.7,12.6-12.6
					c0-2.2-0.6-4.3-1.6-6.2l0.9-0.5c1.2,2,1.8,4.3,1.8,6.7C47.2,41,41.1,47.1,33.6,47.1z"/>
			</g>
			<g>
				<path fill="#525F70" d="M16.4,47.1C8.9,47.1,2.8,41,2.8,33.5c0-2.3,0.6-4.7,1.8-6.7l0.9,0.5c-1.1,1.9-1.6,4-1.6,6.2
					c0,7,5.7,12.6,12.6,12.6c2.1,0,4.1-0.5,6-1.5l0.5,0.9C20.8,46.5,18.7,47.1,16.4,47.1z"/>
			</g>
		</g>
	</g>
	<g>
		<g>
			<circle fill="#616B77" cx="25" cy="4.9" r="2"/>
		</g>
		<g>
			<circle fill="#616B77" cx="25" cy="45.1" r="2"/>
		</g>
	</g>
	<g>
		<g>
			<circle fill="#616B77" cx="45.1" cy="25" r="2"/>
		</g>
		<g>
			<circle fill="#616B77" cx="4.9" cy="25" r="2"/>
		</g>
	</g>
	<g>
		<path fill="#F4F4F4" d="M25,4.9c-11.1,0-20.1,9-20.1,20.1s9,20.1,20.1,20.1s20.1-9,20.1-20.1S36.1,4.9,25,4.9z M25,36.3
			c-6.2,0-11.3-5-11.3-11.3s5-11.3,11.3-11.3s11.3,5,11.3,11.3S31.2,36.3,25,36.3z"/>
	</g>
	<g>
		<g>
			<path fill="#FF6989" d="M31.8,6L31,15.5c-1.7-1.1-3.8-1.7-6-1.7s-4.3,0.6-6,1.7L18.2,6c2.1-0.8,4.4-1.2,6.8-1.2S29.7,5.3,31.8,6z
				"/>
		</g>
		<g>
			<path fill="#FF6989" d="M31.8,44c-2.1,0.8-4.4,1.2-6.8,1.2s-4.7-0.4-6.8-1.2l0.8-9.5c1.7,1.1,3.8,1.7,6,1.7s4.3-0.6,6-1.7
				L31.8,44z"/>
		</g>
	</g>
	<g>
		<g>
			<path fill="#FF6989" d="M45.1,25c0,2.4-0.4,4.7-1.2,6.8L34.5,31c1.1-1.7,1.7-3.8,1.7-6s-0.6-4.3-1.7-6l9.5-0.8
				C44.7,20.3,45.1,22.6,45.1,25z"/>
		</g>
		<g>
			<path fill="#FF6989" d="M13.8,25c0,2.2,0.6,4.3,1.7,6L6,31.8c-0.8-2.1-1.2-4.4-1.2-6.8s0.4-4.7,1.2-6.8l9.5,0.8
				C14.4,20.7,13.8,22.8,13.8,25z"/>
		</g>
	</g>
</g>
</svg>
