<?xml version="1.0" encoding="utf-8"?>
<!-- Generator: Adobe Illustrator 18.0.0, SVG Export Plug-In . SVG Version: 6.00 Build 0)  -->
<!DOCTYPE svg PUBLIC "-//W3C//DTD SVG 1.1//EN" "http://www.w3.org/Graphics/SVG/1.1/DTD/svg11.dtd">
<svg version="1.1" id="Layer_1" xmlns="http://www.w3.org/2000/svg" xmlns:xlink="http://www.w3.org/1999/xlink" x="0px" y="0px"
	 viewBox="0 0 50 50" enable-background="new 0 0 50 50" xml:space="preserve">
<g>
	<g>
		<g>
			<path fill="#FFA49F" d="M41.7,29.2c1.7-3.5,3.2-15.1,0.6-15.6c-1.8-0.3-2.9,9-2.9,9v0.1c-2.7-0.1-7.8,5-9.3,7.3
				c-1,1.6-1.5,6.5-1.7,8.5l5.8,1.8c0.3-1.8,0.9-4.9,1.7-6C37,32.8,40.9,31,41.7,29.2z"/>
		</g>
		<g opacity="0.2">
			<path fill="#FFFFFF" d="M34.9,27.8L34.2,27c0.2-0.2,0.4-0.4,0.6-0.6l0.7,0.8C35.3,27.4,35.1,27.6,34.9,27.8z"/>
		</g>
		<g opacity="0.2">
			<path fill="#FFFFFF" d="M32.1,30.8l-0.8-0.6c0.5-0.7,1.2-1.5,1.9-2.3l0.7,0.7C33.2,29.4,32.6,30.1,32.1,30.8z"/>
		</g>
		<g>
			<path fill="#F4F4F4" d="M38.9,25.8c0.1,0,0.1-0.1,0.2-0.1c0.7-0.7,1-1.5,0.7-1.9s-1.2-0.1-1.9,0.6c-0.1,0.1-0.1,0.1-0.1,0.2
				C38.4,24.7,38.8,25.1,38.9,25.8z"/>
		</g>
		<g>
			<rect x="26.9" y="37" fill="#559AFF" width="9.6" height="11.5"/>
		</g>
		<g>
			<path fill="#FFA49F" d="M8.3,29.2c-1.7-3.5-3.2-15.1-0.6-15.6c1.8-0.3,2.9,9,2.9,9v0.1c2.7-0.1,7.8,5,9.3,7.3
				c1,1.6,1.5,6.5,1.7,8.5l-5.8,1.8c-0.3-1.8-0.9-4.9-1.7-6C13,32.8,9.1,31,8.3,29.2z"/>
		</g>
		<g opacity="0.2">
			<path fill="#FFFFFF" d="M15.1,27.8c-0.2-0.2-0.4-0.4-0.6-0.5l0.7-0.8c0.2,0.2,0.4,0.4,0.6,0.6L15.1,27.8z"/>
		</g>
		<g opacity="0.2">
			<path fill="#FFFFFF" d="M17.9,30.8c-0.5-0.7-1.1-1.4-1.8-2.2l0.7-0.7c0.8,0.8,1.4,1.6,1.9,2.3L17.9,30.8z"/>
		</g>
		<g>
			<path fill="#F4F4F4" d="M11.2,25.8c-0.1,0-0.1-0.1-0.2-0.1c-0.7-0.7-1-1.5-0.7-1.9s1.2-0.1,1.9,0.6c0.1,0.1,0.1,0.1,0.1,0.2
				C11.6,24.7,11.2,25.1,11.2,25.8z"/>
		</g>
		<g>
			<rect x="13.5" y="37" fill="#559AFF" width="9.6" height="11.5"/>
		</g>
		<g>
			<rect x="26.9" y="37" fill="#6EB0FF" width="9.6" height="5"/>
		</g>
		<g>
			<rect x="13.5" y="37" fill="#6EB0FF" width="9.6" height="5"/>
		</g>
		<g>
			<g>
				<circle fill="#FFFFFF" cx="29.8" cy="39.4" r="0.9"/>
			</g>
			<g>
				<circle fill="#FFFFFF" cx="20.2" cy="39.4" r="0.9"/>
			</g>
		</g>
	</g>
	<g>
		<g>
			<g>
				<ellipse fill="#FECD04" cx="25" cy="13.3" rx="8.2" ry="8.2"/>
			</g>
			<g>
				<g>
					<g>
						<path fill="#425060" d="M26.1,17.1h-2.8c-0.9,0-1.6-0.7-1.6-1.6h1c0,0.3,0.2,0.6,0.5,0.6H26c0.6,0,1.1-0.5,1.1-1.1
							s-0.5-1.1-1.1-1.1h-2.2c-1.2,0-2.1-0.9-2.1-2.1s0.9-2.1,2.1-2.1h2.8c0.9,0,1.6,0.7,1.6,1.6h-1c0-0.3-0.2-0.6-0.5-0.6h-2.8
							c-0.6,0-1.1,0.5-1.1,1.1s0.5,1.1,1.1,1.1h2.2c1.2,0,2.1,0.9,2.1,2.1C28.2,16.1,27.3,17.1,26.1,17.1z"/>
					</g>
				</g>
				<g>
					<rect x="24.5" y="8.7" fill="#425060" width="1" height="9.4"/>
				</g>
			</g>
		</g>
		<g>
			<g>
				<g>
					<g>
						<g>
							<rect x="35.8" y="12.8" fill="#425060" width="1" height="1"/>
						</g>
						<g>
							<rect x="13.2" y="12.8" fill="#425060" width="1" height="1"/>
						</g>
					</g>
					<g>
						<g>
							<rect x="24.5" y="24.1" fill="#425060" width="1" height="1"/>
						</g>
						<g>
							<rect x="24.5" y="1.5" fill="#425060" width="1" height="1"/>
						</g>
					</g>
				</g>
				<g>
					<g>
						<g>
							
								<rect x="32.5" y="20.8" transform="matrix(-0.7071 -0.7071 0.7071 -0.7071 41.3254 59.7472)" fill="#425060" width="1" height="1"/>
						</g>
						<g>
							
								<rect x="16.5" y="4.8" transform="matrix(-0.7072 -0.7071 0.7071 -0.7072 25.3167 21.112)" fill="#425060" width="1" height="1"/>
						</g>
					</g>
					<g>
						<g>
							
								<rect x="16.5" y="20.8" transform="matrix(-0.7071 -0.7071 0.7071 -0.7071 14.0118 48.4339)" fill="#425060" width="1" height="1"/>
						</g>
						<g>
							
								<rect x="32.5" y="4.8" transform="matrix(-0.7071 -0.7071 0.7071 -0.7071 52.6289 32.4239)" fill="#425060" width="1" height="1"/>
						</g>
					</g>
				</g>
			</g>
			<g>
				<g>
					<g>
						<g>
							
								<rect x="34.9" y="8.5" transform="matrix(-0.3829 -0.9238 0.9238 -0.3829 40.7414 45.138)" fill="#425060" width="1" height="1"/>
						</g>
						<g>
							
								<rect x="14" y="17.1" transform="matrix(-0.3828 -0.9238 0.9238 -0.3828 3.7679 37.8033)" fill="#425060" width="1" height="1"/>
						</g>
					</g>
					<g>
						<g>
							
								<rect x="28.8" y="23.3" transform="matrix(-0.3822 -0.9241 0.9241 -0.3822 18.5576 59.9605)" fill="#425060" width="1" height="1"/>
						</g>
						<g>
							
								<rect x="20.2" y="2.4" transform="matrix(-0.3823 -0.924 0.924 -0.3823 25.8746 23.1392)" fill="#425060" width="1" height="1"/>
						</g>
					</g>
				</g>
				<g>
					<g>
						<g>
							
								<rect x="34.9" y="17.2" transform="matrix(-0.9238 -0.3829 0.3829 -0.9238 61.3268 47.563)" fill="#425060" width="1" height="1"/>
						</g>
						<g>
							
								<rect x="14" y="8.5" transform="matrix(-0.9238 -0.3829 0.3829 -0.9238 24.4749 22.8362)" fill="#425060" width="1" height="1"/>
						</g>
					</g>
					<g>
						<g>
							
								<rect x="20.2" y="23.3" transform="matrix(-0.9238 -0.3829 0.3829 -0.9238 30.7031 53.7358)" fill="#425060" width="1" height="1"/>
						</g>
						<g>
							
								<rect x="28.8" y="2.4" transform="matrix(-0.9238 -0.3829 0.3829 -0.9238 55.256 16.7755)" fill="#425060" width="1" height="1"/>
						</g>
					</g>
				</g>
			</g>
		</g>
	</g>
	<g>
		<g>
			<polygon fill="#6CD8D5" points="38.5,6.5 41.8,1.5 45.2,6.5 43.2,6.5 43.2,10.2 40.5,10.2 40.5,6.5 			"/>
		</g>
		<g>
			<polygon fill="#FA4968" points="4.8,6.5 8.2,1.5 11.5,6.5 9.5,6.5 9.5,10.2 6.8,10.2 6.8,6.5 			"/>
		</g>
	</g>
</g>
</svg>
