<?xml version="1.0" encoding="utf-8"?>
<!-- Generator: Adobe Illustrator 18.0.0, SVG Export Plug-In . SVG Version: 6.00 Build 0)  -->
<!DOCTYPE svg PUBLIC "-//W3C//DTD SVG 1.1//EN" "http://www.w3.org/Graphics/SVG/1.1/DTD/svg11.dtd">
<svg version="1.1" id="Layer_1" xmlns="http://www.w3.org/2000/svg" xmlns:xlink="http://www.w3.org/1999/xlink" x="0px" y="0px"
	 viewBox="0 0 50 50" enable-background="new 0 0 50 50" xml:space="preserve">
<g>
	<g>
		<g>
			<path fill="#FFD731" d="M48.4,30.5c-0.6,2.6-1.6,5-3,7.2c-2.7-0.9-5.2-0.7-6.8,0.9c-1.6,1.6-1.8,4.2-0.9,6.9
				c-2.2,1.4-4.6,2.4-7.2,3c-1.3-2.6-3.2-4.2-5.5-4.2s-4.3,1.6-5.5,4.2c-2.6-0.6-5-1.6-7.2-3c0.9-2.7,0.7-5.3-0.9-6.9
				c-1.6-1.6-4.2-1.8-6.8-0.9c-1.4-2.2-2.4-4.6-3-7.2c2.6-1.3,4.2-3.2,4.2-5.5s-1.7-4.3-4.2-5.5c0.6-2.6,1.6-5,3-7.2
				c2.7,0.9,5.3,0.7,6.9-0.9s1.8-4.2,0.9-6.9c2.2-1.4,4.6-2.4,7.2-3c1.2,2.5,3.2,4.2,5.5,4.2s4.3-1.6,5.5-4.2c2.6,0.6,5,1.6,7.2,3
				c-0.9,2.7-0.7,5.2,0.9,6.8c1.6,1.6,4.2,1.9,6.8,0.9c1.4,2.2,2.4,4.6,3,7.2c-2.5,1.2-4.2,3.2-4.2,5.5S45.9,29.3,48.4,30.5z"/>
		</g>
	</g>
	<g>
		<g>
			<path fill="#616B77" d="M33.8,37.1L33.8,37.1c-1.1,0-1.9-0.9-1.9-1.9V14.8c0-1.1,0.9-1.9,1.9-1.9l0,0c1.1,0,1.9,0.9,1.9,1.9v20.4
				C35.7,36.3,34.9,37.1,33.8,37.1z"/>
		</g>
		<g>
			<circle fill="#E5E5E5" cx="33.8" cy="20.3" r="3.5"/>
		</g>
		<g>
			<path fill="#616B77" d="M25,37.1L25,37.1c-1.1,0-1.9-0.9-1.9-1.9V14.8c0-1.1,0.9-1.9,1.9-1.9l0,0c1.1,0,1.9,0.9,1.9,1.9v20.4
				C26.9,36.3,26.1,37.1,25,37.1z"/>
		</g>
		<g>
			<circle fill="#FA4968" cx="25" cy="28.9" r="3.5"/>
		</g>
		<g>
			<path fill="#616B77" d="M16.2,37.1L16.2,37.1c-1.1,0-1.9-0.9-1.9-1.9V14.8c0-1.1,0.9-1.9,1.9-1.9l0,0c1.1,0,1.9,0.9,1.9,1.9v20.4
				C18.1,36.3,17.3,37.1,16.2,37.1z"/>
		</g>
		<g>
			<circle fill="#559AFF" cx="16.2" cy="22.7" r="3.5"/>
		</g>
	</g>
</g>
</svg>
