<?xml version="1.0" encoding="utf-8"?>
<!-- Generator: Adobe Illustrator 18.0.0, SVG Export Plug-In . SVG Version: 6.00 Build 0)  -->
<!DOCTYPE svg PUBLIC "-//W3C//DTD SVG 1.1//EN" "http://www.w3.org/Graphics/SVG/1.1/DTD/svg11.dtd">
<svg version="1.1" id="Layer_1" xmlns="http://www.w3.org/2000/svg" xmlns:xlink="http://www.w3.org/1999/xlink" x="0px" y="0px"
	 viewBox="0 0 50 50" enable-background="new 0 0 50 50" xml:space="preserve">
<g>
	<g>
		<ellipse fill="#FA4968" cx="25" cy="25" rx="24.3" ry="24"/>
	</g>
	<g>
		<path fill="#FA4968" d="M15.7,4.3c-2.6,1.2-5,2.8-7,4.8"/>
		<path fill="#FF6989" d="M9.1,9.4L8.3,8.6c2.1-2.1,4.5-3.7,7.1-4.9l0.4,1C13.3,5.9,11.1,7.4,9.1,9.4z"/>
	</g>
	<g>
		<ellipse fill="#E5E5E5" cx="25" cy="25" rx="21.6" ry="21.4"/>
	</g>
	<g>
		<g>
			<line fill="none" x1="25" y1="5.6" x2="25" y2="6.4"/>
		</g>
		<g>
			<line fill="none" x1="25" y1="43.6" x2="25" y2="44.4"/>
		</g>
	</g>
	<g>
		<g>
			<line fill="none" x1="5.6" y1="25" x2="6.4" y2="25"/>
		</g>
		<g>
			<line fill="none" x1="43.6" y1="25" x2="44.4" y2="25"/>
		</g>
	</g>
	<g>
		<g>
			<line fill="none" x1="44.2" y1="22.5" x2="43.5" y2="22.6"/>
			
				<rect x="43.3" y="22.1" transform="matrix(0.13 0.9915 -0.9915 0.13 60.4463 -23.913)" fill="#CCCACA" width="1.1" height="0.7"/>
		</g>
		<g>
			<line fill="none" x1="6.5" y1="27.4" x2="5.8" y2="27.5"/>
			
				<rect x="5.6" y="27.2" transform="matrix(0.1299 0.9915 -0.9915 0.1299 32.635 17.8407)" fill="#CCCACA" width="1.1" height="0.7"/>
		</g>
	</g>
	<g>
		<g>
			<line fill="none" x1="22.5" y1="5.8" x2="22.6" y2="6.5"/>
			
				<rect x="22.1" y="5.6" transform="matrix(0.1303 0.9915 -0.9915 0.1303 25.6565 -16.9435)" fill="#CCCACA" width="0.7" height="1.1"/>
		</g>
		<g>
			<line fill="none" x1="27.4" y1="43.5" x2="27.5" y2="44.2"/>
			
				<rect x="27.2" y="43.3" transform="matrix(0.1302 0.9915 -0.9915 0.1302 67.4089 10.8628)" fill="#CCCACA" width="0.7" height="1.1"/>
		</g>
	</g>
	<g>
		<g>
			<line fill="none" x1="7.1" y1="32.4" x2="7.8" y2="32.1"/>
			
				<rect x="6.9" y="32" transform="matrix(0.3828 0.9238 -0.9238 0.3828 34.4409 13.0697)" fill="#CCCACA" width="1.1" height="0.7"/>
		</g>
		<g>
			<line fill="none" x1="42.2" y1="17.9" x2="42.9" y2="17.6"/>
			
				<rect x="42" y="17.3" transform="matrix(0.3829 0.9238 -0.9238 0.3829 42.6099 -28.4019)" fill="#CCCACA" width="1.1" height="0.7"/>
		</g>
	</g>
	<g>
		<g>
			<line fill="none" x1="32.4" y1="42.9" x2="32.1" y2="42.2"/>
			<rect x="32" y="42" transform="matrix(0.3829 0.9238 -0.9238 0.3829 59.255 -3.5817)" fill="#CCCACA" width="0.7" height="1.1"/>
		</g>
		<g>
			<line fill="none" x1="17.9" y1="7.8" x2="17.6" y2="7.1"/>
			
				<rect x="17.3" y="6.9" transform="matrix(0.3829 0.9238 -0.9238 0.3829 17.7887 -11.7526)" fill="#CCCACA" width="0.7" height="1.1"/>
		</g>
	</g>
	<g>
		<g>
			<line fill="none" x1="40.4" y1="13.2" x2="39.8" y2="13.6"/>
			
				<rect x="39.5" y="13.1" transform="matrix(0.6093 0.7929 -0.7929 0.6093 26.3304 -26.4854)" fill="#CCCACA" width="1.1" height="0.7"/>
		</g>
		<g>
			<line fill="none" x1="10.2" y1="36.4" x2="9.6" y2="36.8"/>
			
				<rect x="9.4" y="36.3" transform="matrix(0.6093 0.7929 -0.7929 0.6093 32.9161 6.4314)" fill="#CCCACA" width="1.1" height="0.7"/>
		</g>
	</g>
	<g>
		<g>
			<line fill="none" x1="13.2" y1="9.6" x2="13.6" y2="10.2"/>
			
				<rect x="13" y="9.4" transform="matrix(0.6089 0.7932 -0.7932 0.6089 13.1103 -6.7329)" fill="#CCCACA" width="0.7" height="1.1"/>
		</g>
		<g>
			<line fill="none" x1="36.4" y1="39.8" x2="36.8" y2="40.4"/>
			
				<rect x="36.2" y="39.5" transform="matrix(0.6089 0.7933 -0.7933 0.6089 46.05 -13.3064)" fill="#CCCACA" width="0.7" height="1.1"/>
		</g>
	</g>
	<g>
		<g>
			<line fill="none" x1="13.2" y1="40.4" x2="13.6" y2="39.8"/>
			
				<rect x="12.9" y="39.8" transform="matrix(0.7929 0.6093 -0.6093 0.7929 27.2247 9.740523e-002)" fill="#CCCACA" width="1.1" height="0.7"/>
		</g>
		<g>
			<line fill="none" x1="36.4" y1="10.2" x2="36.8" y2="9.6"/>
			
				<rect x="36.1" y="9.5" transform="matrix(0.7929 0.6094 -0.6094 0.7929 13.6038 -20.2762)" fill="#CCCACA" width="1.1" height="0.7"/>
		</g>
	</g>
	<g>
		<g>
			<line fill="none" x1="40.4" y1="36.8" x2="39.8" y2="36.4"/>
			
				<rect x="39.8" y="36" transform="matrix(0.7931 0.609 -0.609 0.7931 30.5445 -16.8673)" fill="#CCCACA" width="0.7" height="1.1"/>
		</g>
		<g>
			<line fill="none" x1="10.2" y1="13.6" x2="9.6" y2="13.2"/>
			
				<rect x="9.5" y="12.8" transform="matrix(0.7932 0.6089 -0.6089 0.7932 10.1821 -3.2479)" fill="#CCCACA" width="0.7" height="1.1"/>
		</g>
	</g>
	<g>
		<g>
			<line fill="none" x1="32.4" y1="7.1" x2="32.1" y2="7.8"/>
			
				<rect x="31.7" y="7.1" transform="matrix(0.9238 0.3828 -0.3828 0.9238 5.2983 -11.7781)" fill="#CCCACA" width="1.1" height="0.7"/>
		</g>
		<g>
			<line fill="none" x1="17.9" y1="42.2" x2="17.6" y2="42.9"/>
			
				<rect x="17.2" y="42.2" transform="matrix(0.9238 0.3828 -0.3828 0.9238 17.6497 -3.5534)" fill="#CCCACA" width="1.1" height="0.7"/>
		</g>
	</g>
	<g>
		<g>
			<line fill="none" x1="7.1" y1="17.6" x2="7.8" y2="17.9"/>
			
				<rect x="7.1" y="17.2" transform="matrix(0.9238 0.3829 -0.3829 0.9238 7.3643 -1.4902)" fill="#CCCACA" width="0.7" height="1.1"/>
		</g>
		<g>
			<line fill="none" x1="42.2" y1="32.1" x2="42.9" y2="32.4"/>
			
				<rect x="42.2" y="31.7" transform="matrix(0.9238 0.3829 -0.3829 0.9238 15.5915 -13.8426)" fill="#CCCACA" width="0.7" height="1.1"/>
		</g>
	</g>
	<g>
		<g>
			<line fill="none" x1="22.5" y1="44.2" x2="22.6" y2="43.5"/>
			
				<rect x="22" y="43.5" transform="matrix(0.9914 0.1308 -0.1308 0.9914 5.9304 -2.5728)" fill="#CCCACA" width="1.1" height="0.7"/>
		</g>
		<g>
			<line fill="none" x1="27.4" y1="6.5" x2="27.5" y2="5.8"/>
			
				<rect x="26.9" y="5.8" transform="matrix(0.9914 0.1309 -0.1309 0.9914 1.0402 -3.5404)" fill="#CCCACA" width="1.1" height="0.7"/>
		</g>
	</g>
	<g>
		<g>
			<line fill="none" x1="44.2" y1="27.5" x2="43.5" y2="27.4"/>
			
				<rect x="43.5" y="26.9" transform="matrix(0.9914 0.131 -0.131 0.9914 3.9743 -5.5085)" fill="#CCCACA" width="0.7" height="1.1"/>
		</g>
		<g>
			<line fill="none" x1="6.5" y1="22.6" x2="5.8" y2="22.5"/>
			
				<rect x="5.8" y="22" transform="matrix(0.9914 0.1309 -0.1309 0.9914 3.0046 -0.6101)" fill="#CCCACA" width="0.7" height="1.1"/>
		</g>
	</g>
	<g>
		<g>
			<line fill="none" x1="43.7" y1="20" x2="43" y2="20.2"/>
			
				<rect x="42.8" y="19.7" transform="matrix(0.2579 0.9662 -0.9662 0.2579 51.6177 -27.0157)" fill="#CCCACA" width="1.1" height="0.7"/>
		</g>
		<g>
			<line fill="none" x1="7" y1="29.8" x2="6.3" y2="30"/>
			
				<rect x="6.1" y="29.6" transform="matrix(0.2579 0.9662 -0.9662 0.2579 33.7937 15.8145)" fill="#CCCACA" width="1.1" height="0.7"/>
		</g>
	</g>
	<g>
		<g>
			<line fill="none" x1="20" y1="6.3" x2="20.2" y2="7"/>
			
				<rect x="19.7" y="6.1" transform="matrix(0.2583 0.9661 -0.9661 0.2583 21.2826 -14.5141)" fill="#CCCACA" width="0.7" height="1.1"/>
		</g>
		<g>
			<line fill="none" x1="29.8" y1="43" x2="30" y2="43.7"/>
			
				<rect x="29.6" y="42.9" transform="matrix(0.2582 0.9661 -0.9661 0.2582 64.1135 3.3025)" fill="#CCCACA" width="0.7" height="1.1"/>
		</g>
	</g>
	<g>
		<g>
			<line fill="none" x1="34.7" y1="41.8" x2="34.3" y2="41.2"/>
		</g>
		<g>
			<line fill="none" x1="15.7" y1="8.8" x2="15.3" y2="8.2"/>
		</g>
	</g>
	<g>
		<g>
			<line fill="none" x1="41.8" y1="15.3" x2="41.2" y2="15.7"/>
		</g>
		<g>
			<line fill="none" x1="8.8" y1="34.3" x2="8.2" y2="34.7"/>
		</g>
	</g>
	<g>
		<g>
			<line fill="none" x1="11.3" y1="38.7" x2="11.8" y2="38.2"/>
			
				<rect x="11" y="38.1" transform="matrix(0.7071 0.7071 -0.7071 0.7071 30.5661 3.0921)" fill="#CCCACA" width="1.1" height="0.7"/>
		</g>
		<g>
			<line fill="none" x1="38.2" y1="11.8" x2="38.7" y2="11.3"/>
			
				<rect x="37.9" y="11.2" transform="matrix(0.7071 0.7071 -0.7071 0.7071 19.4338 -23.8034)" fill="#CCCACA" width="1.1" height="0.7"/>
		</g>
	</g>
	<g>
		<g>
			<line fill="none" x1="38.7" y1="38.7" x2="38.2" y2="38.2"/>
			
				<rect x="38.1" y="37.9" transform="matrix(0.7071 0.7071 -0.7071 0.7071 38.4478 -15.9218)" fill="#CCCACA" width="0.7" height="1.1"/>
		</g>
		<g>
			<line fill="none" x1="11.8" y1="11.8" x2="11.3" y2="11.3"/>
			
				<rect x="11.2" y="11" transform="matrix(0.7071 0.7071 -0.7071 0.7071 11.5521 -4.7895)" fill="#CCCACA" width="0.7" height="1.1"/>
		</g>
	</g>
	<g>
		<g>
			<line fill="none" x1="8.2" y1="15.3" x2="8.8" y2="15.7"/>
		</g>
		<g>
			<line fill="none" x1="41.2" y1="34.3" x2="41.8" y2="34.7"/>
		</g>
	</g>
	<g>
		<g>
			<line fill="none" x1="15.3" y1="41.8" x2="15.7" y2="41.2"/>
		</g>
		<g>
			<line fill="none" x1="34.3" y1="8.8" x2="34.7" y2="8.2"/>
		</g>
	</g>
	<g>
		<g>
			<line fill="none" x1="30" y1="6.3" x2="29.8" y2="7"/>
			
				<rect x="29.4" y="6.3" transform="matrix(0.9659 0.2588 -0.2588 0.9659 2.7438 -7.521)" fill="#CCCACA" width="1.1" height="0.7"/>
		</g>
		<g>
			<line fill="none" x1="20.2" y1="43" x2="20" y2="43.7"/>
			
				<rect x="19.5" y="43" transform="matrix(0.9659 0.2589 -0.2589 0.9659 11.9043 -3.7158)" fill="#CCCACA" width="1.1" height="0.7"/>
		</g>
	</g>
	<g>
		<g>
			<line fill="none" x1="6.3" y1="20" x2="7" y2="20.2"/>
			
				<rect x="6.3" y="19.5" transform="matrix(0.9659 0.2589 -0.2589 0.9659 5.4214 -1.0409)" fill="#CCCACA" width="0.7" height="1.1"/>
		</g>
		<g>
			<line fill="none" x1="43" y1="29.8" x2="43.7" y2="30"/>
			
				<rect x="43" y="29.4" transform="matrix(0.9659 0.2589 -0.2589 0.9659 9.2282 -10.2001)" fill="#CCCACA" width="0.7" height="1.1"/>
		</g>
	</g>
	<g>
		<path fill="#3A8BED" d="M25,25.1c0.2,0.2,0.4,0.5,0.6,0.7l11-6.7l-1.1-1.7l-11.5,7C24.4,24.6,24.7,24.8,25,25.1z"/>
	</g>
	<g>
		<path fill="#559AFF" d="M24.9,25.5c0.3-0.3,0.7-0.6,1-0.8l-11.6-7.1l-0.8,1.3l11.2,6.9C24.8,25.6,24.8,25.5,24.9,25.5z"/>
	</g>
	<g>
		
			<rect x="22.3" y="18.8" transform="matrix(0.8777 0.4793 -0.4793 0.8777 16.7146 -7.394)" fill="#425060" width="1.1" height="20.4"/>
	</g>
	<g>
		<ellipse fill="#6EB0FF" cx="25" cy="25" rx="2.1" ry="2.1"/>
	</g>
	<g>
		<path fill="#533C65" d="M49.3,33.4v6.5c0,4.3-7.8,9.1-7.8,9.1l0,0c0,0-7.8-4.8-7.8-9.1v-6.5c0.4,0.1,0.8,0.1,1.2,0.1
			c2.6,0,4.9-1.1,6.6-2.7c1.7,1.7,4,2.7,6.6,2.7C48.5,33.5,48.9,33.5,49.3,33.4z"/>
	</g>
	<g opacity="0.3">
		<path fill="#FECD04" d="M40.9,34.3c0.2-0.1,0.4-0.3,0.7-0.4 M36.1,35.8c0.9-0.1,1.8-0.3,2.7-0.6"/>
		<path fill="#FFFFFF" d="M36.2,36.3l-0.1-1.1c0.9-0.1,1.7-0.3,2.6-0.6l0.4,1C38.1,36,37.2,36.2,36.2,36.3z M41.1,34.7l-0.5-0.9
			c0.2-0.1,0.4-0.3,0.6-0.4l0.6,0.9C41.6,34.4,41.4,34.6,41.1,34.7z"/>
	</g>
	<g>
		<polygon fill="#FFFFFF" points="40.1,42.3 38.5,40.7 39.2,39.9 40.1,40.8 43.8,37 44.6,37.7 		"/>
	</g>
</g>
</svg>
