<?xml version="1.0" encoding="utf-8"?>
<!-- Generator: Adobe Illustrator 18.0.0, SVG Export Plug-In . SVG Version: 6.00 Build 0)  -->
<!DOCTYPE svg PUBLIC "-//W3C//DTD SVG 1.1//EN" "http://www.w3.org/Graphics/SVG/1.1/DTD/svg11.dtd">
<svg version="1.1" id="Layer_1" xmlns="http://www.w3.org/2000/svg" xmlns:xlink="http://www.w3.org/1999/xlink" x="0px" y="0px"
	 viewBox="0 0 50 50" enable-background="new 0 0 50 50" xml:space="preserve">
<g>
	<g>
		<path fill="#616B77" d="M4.6,33.2V10.5c0-2,1.6-3.7,3.7-3.7H20c2,0,3.7,1.6,3.7,3.7v22.8c0,2-1.6,3.7-3.7,3.7H8.2
			C6.2,36.9,4.6,35.3,4.6,33.2z"/>
	</g>
	<g>
		<rect x="7.4" y="9.6" fill="#525F70" width="13.5" height="4.6"/>
	</g>
	<g>
		<rect x="7.4" y="16.2" fill="#525F70" width="13.5" height="4.6"/>
	</g>
	<g>
		<rect x="7.4" y="22.9" fill="#525F70" width="13.5" height="4.6"/>
	</g>
	<g>
		<rect x="7.4" y="29.5" fill="#525F70" width="13.5" height="4.6"/>
	</g>
	<g>
		<g>
			<line fill="none" x1="12.7" y1="11.1" x2="9.2" y2="11.1"/>
			<rect x="9.2" y="10.6" fill="#559AFF" width="3.5" height="1"/>
		</g>
		<g>
			<line fill="none" x1="10.2" y1="12.7" x2="9.2" y2="12.7"/>
			<rect x="9.2" y="12.2" fill="#FA4968" width="1" height="1"/>
		</g>
		<g>
			<line fill="none" x1="11.4" y1="12.7" x2="10.4" y2="12.7"/>
			<rect x="10.4" y="12.2" fill="#FECD04" width="1" height="1"/>
		</g>
		<g>
			<line fill="none" x1="12.7" y1="12.7" x2="11.7" y2="12.7"/>
			<rect x="11.7" y="12.2" fill="#ABB734" width="1" height="1"/>
		</g>
	</g>
	<g>
		<g>
			<line fill="none" x1="12.7" y1="17.8" x2="9.2" y2="17.8"/>
			<rect x="9.2" y="17.3" fill="#559AFF" width="3.5" height="1"/>
		</g>
		<g>
			<line fill="none" x1="10.2" y1="19.3" x2="9.2" y2="19.3"/>
			<rect x="9.2" y="18.8" fill="#FA4968" width="1" height="1"/>
		</g>
		<g>
			<line fill="none" x1="11.4" y1="19.3" x2="10.4" y2="19.3"/>
			<rect x="10.4" y="18.8" fill="#FECD04" width="1" height="1"/>
		</g>
		<g>
			<line fill="none" x1="12.7" y1="19.3" x2="11.7" y2="19.3"/>
			<rect x="11.7" y="18.8" fill="#ABB734" width="1" height="1"/>
		</g>
	</g>
	<g>
		<g>
			<line fill="none" x1="12.7" y1="24.4" x2="9.2" y2="24.4"/>
			<rect x="9.2" y="23.9" fill="#559AFF" width="3.5" height="1"/>
		</g>
		<g>
			<line fill="none" x1="10.2" y1="26" x2="9.2" y2="26"/>
			<rect x="9.2" y="25.5" fill="#FA4968" width="1" height="1"/>
		</g>
		<g>
			<line fill="none" x1="11.4" y1="26" x2="10.4" y2="26"/>
			<rect x="10.4" y="25.5" fill="#FECD04" width="1" height="1"/>
		</g>
		<g>
			<line fill="none" x1="12.7" y1="26" x2="11.7" y2="26"/>
			<rect x="11.7" y="25.5" fill="#ABB734" width="1" height="1"/>
		</g>
	</g>
	<g>
		<g>
			<line fill="none" x1="12.7" y1="31.1" x2="9.2" y2="31.1"/>
			<rect x="9.2" y="30.6" fill="#559AFF" width="3.5" height="1"/>
		</g>
		<g>
			<line fill="none" x1="10.2" y1="32.6" x2="9.2" y2="32.6"/>
			<rect x="9.2" y="32.1" fill="#FA4968" width="1" height="1"/>
		</g>
		<g>
			<line fill="none" x1="11.4" y1="32.6" x2="10.4" y2="32.6"/>
			<rect x="10.4" y="32.1" fill="#FECD04" width="1" height="1"/>
		</g>
		<g>
			<line fill="none" x1="12.7" y1="32.6" x2="11.7" y2="32.6"/>
			<rect x="11.7" y="32.1" fill="#ABB734" width="1" height="1"/>
		</g>
	</g>
	<g>
		<line fill="none" x1="14.4" y1="11.1" x2="14.4" y2="12.6"/>
		<rect x="13.9" y="11.1" fill="#425060" width="1" height="1.4"/>
	</g>
	<g>
		<line fill="none" x1="16" y1="11.1" x2="16" y2="12.6"/>
		<rect x="15.5" y="11.1" fill="#425060" width="1" height="1.4"/>
	</g>
	<g>
		<line fill="none" x1="17.5" y1="11.1" x2="17.5" y2="12.6"/>
		<rect x="17" y="11.1" fill="#425060" width="1" height="1.4"/>
	</g>
	<g>
		<line fill="none" x1="19.1" y1="11.1" x2="19.1" y2="12.6"/>
		<rect x="18.6" y="11.1" fill="#425060" width="1" height="1.4"/>
	</g>
	<g>
		<line fill="none" x1="14.4" y1="17.8" x2="14.4" y2="19.2"/>
		<rect x="13.9" y="17.8" fill="#425060" width="1" height="1.4"/>
	</g>
	<g>
		<line fill="none" x1="16" y1="17.8" x2="16" y2="19.2"/>
		<rect x="15.5" y="17.8" fill="#425060" width="1" height="1.4"/>
	</g>
	<g>
		<line fill="none" x1="17.5" y1="17.8" x2="17.5" y2="19.2"/>
		<rect x="17" y="17.8" fill="#425060" width="1" height="1.4"/>
	</g>
	<g>
		<line fill="none" x1="19.1" y1="17.8" x2="19.1" y2="19.2"/>
		<rect x="18.6" y="17.8" fill="#425060" width="1" height="1.4"/>
	</g>
	<g>
		<line fill="none" x1="14.4" y1="24.4" x2="14.4" y2="25.9"/>
		<rect x="13.9" y="24.4" fill="#425060" width="1" height="1.4"/>
	</g>
	<g>
		<line fill="none" x1="16" y1="24.4" x2="16" y2="25.9"/>
		<rect x="15.5" y="24.4" fill="#425060" width="1" height="1.4"/>
	</g>
	<g>
		<line fill="none" x1="17.5" y1="24.4" x2="17.5" y2="25.9"/>
		<rect x="17" y="24.4" fill="#425060" width="1" height="1.4"/>
	</g>
	<g>
		<line fill="none" x1="19.1" y1="24.4" x2="19.1" y2="25.9"/>
		<rect x="18.6" y="24.4" fill="#425060" width="1" height="1.4"/>
	</g>
	<g>
		<line fill="none" x1="14.4" y1="31.1" x2="14.4" y2="32.5"/>
		<rect x="13.9" y="31.1" fill="#425060" width="1" height="1.4"/>
	</g>
	<g>
		<line fill="none" x1="16" y1="31.1" x2="16" y2="32.5"/>
		<rect x="15.5" y="31.1" fill="#425060" width="1" height="1.4"/>
	</g>
	<g>
		<line fill="none" x1="17.5" y1="31.1" x2="17.5" y2="32.5"/>
		<rect x="17" y="31.1" fill="#425060" width="1" height="1.4"/>
	</g>
	<g>
		<line fill="none" x1="19.1" y1="31.1" x2="19.1" y2="32.5"/>
		<rect x="18.6" y="31.1" fill="#425060" width="1" height="1.4"/>
	</g>
	<g>
		<path fill="#616B77" d="M26.3,40.9V18.2c0-2,1.6-3.7,3.7-3.7h11.8c2,0,3.7,1.6,3.7,3.7V41c0,2-1.6,3.7-3.7,3.7H30
			C28,44.6,26.3,43,26.3,40.9z"/>
	</g>
	<g>
		<rect x="29.1" y="17.3" fill="#525F70" width="13.5" height="4.6"/>
	</g>
	<g>
		<g>
			<line fill="none" x1="34.4" y1="18.8" x2="30.9" y2="18.8"/>
			<rect x="30.9" y="18.3" fill="#559AFF" width="3.5" height="1"/>
		</g>
		<g>
			<line fill="none" x1="31.9" y1="20.3" x2="30.9" y2="20.3"/>
			<rect x="30.9" y="19.8" fill="#FA4968" width="1" height="1"/>
		</g>
		<g>
			<line fill="none" x1="33.2" y1="20.3" x2="32.2" y2="20.3"/>
			<rect x="32.2" y="19.8" fill="#FECD04" width="1" height="1"/>
		</g>
		<g>
			<line fill="none" x1="34.4" y1="20.3" x2="33.4" y2="20.3"/>
			<rect x="33.4" y="19.8" fill="#ABB734" width="1" height="1"/>
		</g>
	</g>
	<g>
		<rect x="29.1" y="23.9" fill="#525F70" width="13.5" height="4.6"/>
	</g>
	<g>
		<rect x="29.1" y="30.6" fill="#525F70" width="13.5" height="4.6"/>
	</g>
	<g>
		<rect x="29.1" y="37.2" fill="#525F70" width="13.5" height="4.6"/>
	</g>
	<g>
		<line fill="none" x1="36.2" y1="18.8" x2="36.2" y2="20.3"/>
		<rect x="35.7" y="18.8" fill="#425060" width="1" height="1.4"/>
	</g>
	<g>
		<line fill="none" x1="37.7" y1="18.8" x2="37.7" y2="20.3"/>
		<rect x="37.2" y="18.8" fill="#425060" width="1" height="1.4"/>
	</g>
	<g>
		<line fill="none" x1="39.3" y1="18.8" x2="39.3" y2="20.3"/>
		<rect x="38.8" y="18.8" fill="#425060" width="1" height="1.4"/>
	</g>
	<g>
		<line fill="none" x1="40.8" y1="18.8" x2="40.8" y2="20.3"/>
		<rect x="40.3" y="18.8" fill="#425060" width="1" height="1.4"/>
	</g>
	<g>
		<line fill="none" x1="36.2" y1="25.5" x2="36.2" y2="26.9"/>
		<rect x="35.7" y="25.5" fill="#425060" width="1" height="1.4"/>
	</g>
	<g>
		<line fill="none" x1="37.7" y1="25.5" x2="37.7" y2="26.9"/>
		<rect x="37.2" y="25.5" fill="#425060" width="1" height="1.4"/>
	</g>
	<g>
		<line fill="none" x1="39.3" y1="25.5" x2="39.3" y2="26.9"/>
		<rect x="38.8" y="25.5" fill="#425060" width="1" height="1.4"/>
	</g>
	<g>
		<line fill="none" x1="40.8" y1="25.5" x2="40.8" y2="26.9"/>
		<rect x="40.3" y="25.5" fill="#425060" width="1" height="1.4"/>
	</g>
	<g>
		<line fill="none" x1="36.2" y1="32.1" x2="36.2" y2="33.6"/>
		<rect x="35.7" y="32.1" fill="#425060" width="1" height="1.4"/>
	</g>
	<g>
		<line fill="none" x1="37.7" y1="32.1" x2="37.7" y2="33.6"/>
		<rect x="37.2" y="32.1" fill="#425060" width="1" height="1.4"/>
	</g>
	<g>
		<line fill="none" x1="39.3" y1="32.1" x2="39.3" y2="33.6"/>
		<rect x="38.8" y="32.1" fill="#425060" width="1" height="1.4"/>
	</g>
	<g>
		<line fill="none" x1="40.8" y1="32.1" x2="40.8" y2="33.6"/>
		<rect x="40.3" y="32.1" fill="#425060" width="1" height="1.4"/>
	</g>
	<g>
		<line fill="none" x1="36.2" y1="38.8" x2="36.2" y2="40.2"/>
		<rect x="35.7" y="38.8" fill="#425060" width="1" height="1.4"/>
	</g>
	<g>
		<line fill="none" x1="37.7" y1="38.8" x2="37.7" y2="40.2"/>
		<rect x="37.2" y="38.8" fill="#425060" width="1" height="1.4"/>
	</g>
	<g>
		<line fill="none" x1="39.3" y1="38.8" x2="39.3" y2="40.2"/>
		<rect x="38.8" y="38.8" fill="#425060" width="1" height="1.4"/>
	</g>
	<g>
		<line fill="none" x1="40.8" y1="38.8" x2="40.8" y2="40.2"/>
		<rect x="40.3" y="38.8" fill="#425060" width="1" height="1.4"/>
	</g>
	<g>
		<path fill="#FF6989" d="M30.9,1.5v1.9h3.3c1.2,0,2.2,0.5,3,1.3s1.2,1.8,1.2,3v3.5c0-1.2-0.5-2.3-1.2-3s-1.8-1.3-3-1.3h-3.3v1.9
			l-4.1-3.6L30.9,1.5z"/>
	</g>
	<g>
		<path fill="#6EB0FF" d="M17.7,48.5v-1.9h-3.3c-1.2,0-2.2-0.5-3-1.3s-1.2-1.8-1.2-3v-3.5c0,1.2,0.5,2.3,1.2,3
			c0.8,0.8,1.8,1.3,3,1.3h3.3v-1.9l4.1,3.6L17.7,48.5z"/>
	</g>
	<g>
		<g>
			<line fill="none" x1="34.4" y1="25.5" x2="30.9" y2="25.5"/>
			<rect x="30.9" y="25" fill="#559AFF" width="3.5" height="1"/>
		</g>
		<g>
			<line fill="none" x1="31.9" y1="27" x2="30.9" y2="27"/>
			<rect x="30.9" y="26.5" fill="#FA4968" width="1" height="1"/>
		</g>
		<g>
			<line fill="none" x1="33.2" y1="27" x2="32.2" y2="27"/>
			<rect x="32.2" y="26.5" fill="#FECD04" width="1" height="1"/>
		</g>
		<g>
			<line fill="none" x1="34.4" y1="27" x2="33.4" y2="27"/>
			<rect x="33.4" y="26.5" fill="#ABB734" width="1" height="1"/>
		</g>
	</g>
	<g>
		<g>
			<line fill="none" x1="34.4" y1="32.1" x2="30.9" y2="32.1"/>
			<rect x="30.9" y="31.6" fill="#559AFF" width="3.5" height="1"/>
		</g>
		<g>
			<line fill="none" x1="31.9" y1="33.7" x2="30.9" y2="33.7"/>
			<rect x="30.9" y="33.2" fill="#FA4968" width="1" height="1"/>
		</g>
		<g>
			<line fill="none" x1="33.2" y1="33.7" x2="32.2" y2="33.7"/>
			<rect x="32.2" y="33.2" fill="#FECD04" width="1" height="1"/>
		</g>
		<g>
			<line fill="none" x1="34.4" y1="33.7" x2="33.4" y2="33.7"/>
			<rect x="33.4" y="33.2" fill="#ABB734" width="1" height="1"/>
		</g>
	</g>
	<g>
		<g>
			<line fill="none" x1="34.4" y1="38.8" x2="30.9" y2="38.8"/>
			<rect x="30.9" y="38.3" fill="#559AFF" width="3.5" height="1"/>
		</g>
		<g>
			<line fill="none" x1="31.9" y1="40.3" x2="30.9" y2="40.3"/>
			<rect x="30.9" y="39.8" fill="#FA4968" width="1" height="1"/>
		</g>
		<g>
			<line fill="none" x1="33.2" y1="40.3" x2="32.2" y2="40.3"/>
			<rect x="32.2" y="39.8" fill="#FECD04" width="1" height="1"/>
		</g>
		<g>
			<line fill="none" x1="34.4" y1="40.3" x2="33.4" y2="40.3"/>
			<rect x="33.4" y="39.8" fill="#ABB734" width="1" height="1"/>
		</g>
	</g>
</g>
</svg>
