<?xml version="1.0" encoding="utf-8"?>
<!-- Generator: Adobe Illustrator 18.0.0, SVG Export Plug-In . SVG Version: 6.00 Build 0)  -->
<!DOCTYPE svg PUBLIC "-//W3C//DTD SVG 1.1//EN" "http://www.w3.org/Graphics/SVG/1.1/DTD/svg11.dtd">
<svg version="1.1" id="Layer_1" xmlns="http://www.w3.org/2000/svg" xmlns:xlink="http://www.w3.org/1999/xlink" x="0px" y="0px"
	 viewBox="0 0 50 50" enable-background="new 0 0 50 50" xml:space="preserve">
<g>
	<g>
		<g>
			<ellipse fill="#50C9C3" cx="24.5" cy="25" rx="24.3" ry="24"/>
		</g>
	</g>
	<g>
		<g>
			<ellipse fill="#E5E5E5" cx="24.5" cy="25" rx="21.6" ry="21.4"/>
		</g>
	</g>
	<g>
		<g>
			<g>
				<g>
					<line fill="none" x1="24.5" y1="5.6" x2="24.5" y2="6.4"/>
					<rect x="23.9" y="5.6" fill="#616B77" width="1.1" height="0.7"/>
				</g>
			</g>
			<g>
				<g>
					<line fill="none" x1="24.5" y1="43.6" x2="24.5" y2="44.4"/>
					<rect x="23.9" y="43.6" fill="#616B77" width="1.1" height="0.7"/>
				</g>
			</g>
		</g>
		<g>
			<g>
				<g>
					<line fill="none" x1="5.1" y1="25" x2="5.8" y2="25"/>
					<rect x="5.1" y="24.5" fill="#616B77" width="0.7" height="1.1"/>
				</g>
			</g>
			<g>
				<g>
					<line fill="none" x1="43.1" y1="25" x2="43.9" y2="25"/>
					<rect x="43.1" y="24.5" fill="#616B77" width="0.7" height="1.1"/>
				</g>
			</g>
		</g>
	</g>
	<g>
		<g>
			<g>
				<g>
					<line fill="none" x1="43.7" y1="22.5" x2="43" y2="22.6"/>
				</g>
				<g>
					
						<rect x="42.8" y="22.2" transform="matrix(-0.13 -0.9915 0.9915 -0.13 26.5821 68.4069)" fill="#CCCACA" width="1.1" height="0.7"/>
				</g>
			</g>
			<g>
				<g>
					<line fill="none" x1="6" y1="27.4" x2="5.3" y2="27.5"/>
				</g>
				<g>
					
						<rect x="5.1" y="27.2" transform="matrix(-0.1299 -0.9915 0.9915 -0.1299 -20.8746 36.6887)" fill="#CCCACA" width="1.1" height="0.7"/>
				</g>
			</g>
		</g>
		<g>
			<g>
				<g>
					<line fill="none" x1="21.9" y1="5.8" x2="22" y2="6.5"/>
				</g>
				<g>
					
						<rect x="21.6" y="5.6" transform="matrix(-0.1309 -0.9914 0.9914 -0.1309 18.8136 28.6973)" fill="#CCCACA" width="0.7" height="1.1"/>
				</g>
			</g>
			<g>
				<g>
					<line fill="none" x1="26.9" y1="43.5" x2="27" y2="44.2"/>
				</g>
				<g>
					
						<rect x="26.6" y="43.3" transform="matrix(-0.1308 -0.9914 0.9914 -0.1308 -12.9783 76.3062)" fill="#CCCACA" width="0.7" height="1.1"/>
				</g>
			</g>
		</g>
	</g>
	<g>
		<g>
			<g>
				<g>
					<line fill="none" x1="6.6" y1="32.4" x2="7.2" y2="32.1"/>
				</g>
				<g>
					
						<rect x="6.4" y="32" transform="matrix(-0.3829 -0.9238 0.9238 -0.3829 -20.2322 51.0955)" fill="#CCCACA" width="1.1" height="0.7"/>
				</g>
			</g>
			<g>
				<g>
					<line fill="none" x1="41.7" y1="17.9" x2="42.4" y2="17.6"/>
				</g>
				<g>
					
						<rect x="41.5" y="17.4" transform="matrix(-0.3828 -0.9238 0.9238 -0.3828 41.7253 63.3478)" fill="#CCCACA" width="1.1" height="0.7"/>
				</g>
			</g>
		</g>
		<g>
			<g>
				<g>
					<line fill="none" x1="31.9" y1="42.9" x2="31.6" y2="42.2"/>
				</g>
				<g>
					
						<rect x="31.4" y="42" transform="matrix(-0.3829 -0.9238 0.9238 -0.3829 4.6185 88.2001)" fill="#CCCACA" width="0.7" height="1.1"/>
				</g>
			</g>
			<g>
				<g>
					<line fill="none" x1="17.3" y1="7.8" x2="17.1" y2="7.1"/>
				</g>
				<g>
					
						<rect x="16.8" y="6.8" transform="matrix(-0.3829 -0.9238 0.9238 -0.3829 16.9087 26.0797)" fill="#CCCACA" width="0.7" height="1.1"/>
				</g>
			</g>
		</g>
	</g>
	<g>
		<g>
			<g>
				<g>
					<line fill="none" x1="39.9" y1="13.2" x2="39.3" y2="13.6"/>
				</g>
				<g>
					
						<rect x="39" y="13.1" transform="matrix(-0.6093 -0.7929 0.7929 -0.6093 52.9736 52.9567)" fill="#CCCACA" width="1.1" height="0.7"/>
				</g>
			</g>
			<g>
				<g>
					<line fill="none" x1="9.7" y1="36.4" x2="9.1" y2="36.8"/>
				</g>
				<g>
					
						<rect x="8.9" y="36.3" transform="matrix(-0.6083 -0.7937 0.7937 -0.6083 -13.8584 66.3767)" fill="#CCCACA" width="1.1" height="0.7"/>
				</g>
			</g>
		</g>
		<g>
			<g>
				<g>
					<line fill="none" x1="12.7" y1="9.6" x2="13.1" y2="10.2"/>
				</g>
				<g>
					
						<rect x="12.5" y="9.3" transform="matrix(-0.6089 -0.7933 0.7933 -0.6089 12.8102 26.1075)" fill="#CCCACA" width="0.7" height="1.1"/>
				</g>
			</g>
			<g>
				<g>
					<line fill="none" x1="35.8" y1="39.8" x2="36.3" y2="40.4"/>
				</g>
				<g>
					
						<rect x="35.7" y="39.6" transform="matrix(-0.6085 -0.7935 0.7935 -0.6085 26.0733 93.103)" fill="#CCCACA" width="0.7" height="1.1"/>
				</g>
			</g>
		</g>
	</g>
	<g>
		<g>
			<g>
				<g>
					<line fill="none" x1="12.7" y1="40.4" x2="13.1" y2="39.8"/>
				</g>
				<g>
					
						<rect x="12.4" y="39.7" transform="matrix(-0.7938 -0.6082 0.6082 -0.7938 -1.1294 79.7924)" fill="#CCCACA" width="1.1" height="0.7"/>
				</g>
			</g>
			<g>
				<g>
					<line fill="none" x1="35.8" y1="10.2" x2="36.3" y2="9.6"/>
				</g>
				<g>
					
						<rect x="35.5" y="9.5" transform="matrix(-0.7929 -0.6093 0.6093 -0.7929 58.6993 39.6672)" fill="#CCCACA" width="1.1" height="0.7"/>
				</g>
			</g>
		</g>
		<g>
			<g>
				<g>
					<line fill="none" x1="39.9" y1="36.8" x2="39.3" y2="36.4"/>
				</g>
				<g>
					
						<rect x="39.2" y="36" transform="matrix(-0.7935 -0.6085 0.6085 -0.7935 48.7315 89.6233)" fill="#CCCACA" width="0.7" height="1.1"/>
				</g>
			</g>
			<g>
				<g>
					<line fill="none" x1="9.7" y1="13.6" x2="9.1" y2="13.2"/>
				</g>
				<g>
					
						<rect x="9" y="12.9" transform="matrix(-0.7933 -0.6089 0.6089 -0.7933 8.5829 29.7544)" fill="#CCCACA" width="0.7" height="1.1"/>
				</g>
			</g>
		</g>
	</g>
	<g>
		<g>
			<g>
				<g>
					<line fill="none" x1="31.9" y1="7.1" x2="31.6" y2="7.8"/>
				</g>
				<g>
					
						<rect x="31.2" y="7.1" transform="matrix(-0.9238 -0.3829 0.3829 -0.9238 58.2155 26.4821)" fill="#CCCACA" width="1.1" height="0.7"/>
				</g>
			</g>
			<g>
				<g>
					<line fill="none" x1="17.3" y1="42.2" x2="17.1" y2="42.9"/>
				</g>
				<g>
					
						<rect x="16.7" y="42.2" transform="matrix(-0.9238 -0.3828 0.3828 -0.9238 16.8944 88.4997)" fill="#CCCACA" width="1.1" height="0.7"/>
				</g>
			</g>
		</g>
		<g>
			<g>
				<g>
					<line fill="none" x1="6.6" y1="17.6" x2="7.2" y2="17.9"/>
				</g>
				<g>
					
						<rect x="6.5" y="17.2" transform="matrix(-0.9239 -0.3826 0.3826 -0.9239 6.3863 36.7201)" fill="#CCCACA" width="0.7" height="1.1"/>
				</g>
			</g>
			<g>
				<g>
					<line fill="none" x1="41.7" y1="32.1" x2="42.4" y2="32.4"/>
				</g>
				<g>
					
						<rect x="41.7" y="31.7" transform="matrix(-0.9239 -0.3826 0.3826 -0.9239 68.5801 78.144)" fill="#CCCACA" width="0.7" height="1.1"/>
				</g>
			</g>
		</g>
	</g>
	<g>
		<g>
			<g>
				<g>
					<line fill="none" x1="21.9" y1="44.2" x2="22" y2="43.5"/>
				</g>
				<g>
					
						<rect x="21.5" y="43.5" transform="matrix(-0.9914 -0.1308 0.1308 -0.9914 38.174 90.2208)" fill="#CCCACA" width="1.1" height="0.7"/>
				</g>
			</g>
			<g>
				<g>
					<line fill="none" x1="26.9" y1="6.5" x2="27" y2="5.8"/>
				</g>
				<g>
					
						<rect x="26.4" y="5.8" transform="matrix(-0.9915 -0.13 0.13 -0.9915 52.8699 15.7497)" fill="#CCCACA" width="1.1" height="0.7"/>
				</g>
			</g>
		</g>
		<g>
			<g>
				<g>
					<line fill="none" x1="43.7" y1="27.5" x2="43" y2="27.4"/>
				</g>
				<g>
					
						<rect x="43" y="26.9" transform="matrix(-0.9914 -0.131 0.131 -0.9914 82.743 60.3462)" fill="#CCCACA" width="0.7" height="1.1"/>
				</g>
			</g>
			<g>
				<g>
					<line fill="none" x1="6" y1="22.6" x2="5.3" y2="22.5"/>
				</g>
				<g>
					
						<rect x="5.3" y="22" transform="matrix(-0.9914 -0.1309 0.1309 -0.9914 8.2923 45.6512)" fill="#CCCACA" width="0.7" height="1.1"/>
				</g>
			</g>
		</g>
	</g>
	<g>
		<g>
			<g>
				<g>
					<line fill="none" x1="43.2" y1="20" x2="42.5" y2="20.2"/>
				</g>
				<g>
					
						<rect x="42.3" y="19.7" transform="matrix(-0.2579 -0.9662 0.9662 -0.2579 34.532 66.6772)" fill="#CCCACA" width="1.1" height="0.7"/>
				</g>
			</g>
			<g>
				<g>
					<line fill="none" x1="6.5" y1="29.8" x2="5.8" y2="30"/>
				</g>
				<g>
					
						<rect x="5.5" y="29.6" transform="matrix(-0.2588 -0.9659 0.9659 -0.2588 -21.2754 43.6073)" fill="#CCCACA" width="1.1" height="0.7"/>
				</g>
			</g>
		</g>
		<g>
			<g>
				<g>
					<line fill="none" x1="19.5" y1="6.3" x2="19.7" y2="7"/>
				</g>
				<g>
					
						<rect x="19.2" y="6.1" transform="matrix(-0.2589 -0.9659 0.9659 -0.2589 18.1897 27.2187)" fill="#CCCACA" width="0.7" height="1.1"/>
				</g>
			</g>
			<g>
				<g>
					<line fill="none" x1="29.3" y1="43" x2="29.5" y2="43.7"/>
				</g>
				<g>
					
						<rect x="29.1" y="42.8" transform="matrix(-0.2589 -0.9659 0.9659 -0.2589 -4.823 82.9295)" fill="#CCCACA" width="0.7" height="1.1"/>
				</g>
			</g>
		</g>
	</g>
	<g>
		<g>
			<g>
				<g>
					<line fill="none" x1="34.2" y1="41.8" x2="33.8" y2="41.2"/>
				</g>
			</g>
			<g>
				<g>
					<line fill="none" x1="15.2" y1="8.8" x2="14.8" y2="8.2"/>
					
						<rect x="14.6" y="8" transform="matrix(-0.4998 -0.8661 0.8661 -0.4998 15.0308 25.7267)" fill="#616B77" width="0.7" height="1.1"/>
				</g>
			</g>
		</g>
		<g>
			<g>
				<g>
					<line fill="none" x1="41.3" y1="15.3" x2="40.6" y2="15.7"/>
					
						<rect x="40.4" y="15.1" transform="matrix(-0.4999 -0.8661 0.8661 -0.4999 48.0702 58.7082)" fill="#616B77" width="1.1" height="0.7"/>
				</g>
			</g>
			<g>
				<g>
					<line fill="none" x1="8.3" y1="34.3" x2="7.7" y2="34.7"/>
					
						<rect x="7.5" y="34.2" transform="matrix(-0.4999 -0.8661 0.8661 -0.4999 -17.7748 58.7641)" fill="#616B77" width="1.1" height="0.7"/>
				</g>
			</g>
		</g>
	</g>
	<g>
		<g>
			<g>
				<g>
					<line fill="none" x1="10.8" y1="38.7" x2="11.3" y2="38.2"/>
				</g>
				<g>
					
						<rect x="10.5" y="38.1" transform="matrix(-0.7071 -0.7071 0.7071 -0.7071 -8.3465 73.4665)" fill="#CCCACA" width="1.1" height="0.7"/>
				</g>
			</g>
			<g>
				<g>
					<line fill="none" x1="37.7" y1="11.8" x2="38.2" y2="11.3"/>
				</g>
				<g>
					
						<rect x="37.4" y="11.2" transform="matrix(-0.7071 -0.7072 0.7072 -0.7071 56.5924 46.5878)" fill="#CCCACA" width="1.1" height="0.7"/>
				</g>
			</g>
		</g>
		<g>
			<g>
				<g>
					<line fill="none" x1="38.2" y1="38.7" x2="37.7" y2="38.2"/>
				</g>
				<g>
					
						<rect x="37.6" y="37.9" transform="matrix(-0.7071 -0.7071 0.7071 -0.7071 37.5667 92.4949)" fill="#CCCACA" width="0.7" height="1.1"/>
				</g>
			</g>
			<g>
				<g>
					<line fill="none" x1="11.3" y1="11.8" x2="10.8" y2="11.3"/>
				</g>
				<g>
					
						<rect x="10.7" y="11" transform="matrix(-0.7071 -0.7071 0.7071 -0.7071 10.6816 27.5528)" fill="#CCCACA" width="0.7" height="1.1"/>
				</g>
			</g>
		</g>
	</g>
	<g>
		<g>
			<g>
				<g>
					<line fill="none" x1="7.7" y1="15.3" x2="8.3" y2="15.7"/>
					
						<rect x="7.6" y="15" transform="matrix(-0.8661 -0.4999 0.4999 -0.8661 7.0427 32.9123)" fill="#616B77" width="0.7" height="1.1"/>
				</g>
			</g>
			<g>
				<g>
					<line fill="none" x1="40.6" y1="34.3" x2="41.3" y2="34.7"/>
				</g>
			</g>
		</g>
		<g>
			<g>
				<g>
					<line fill="none" x1="14.8" y1="41.8" x2="15.2" y2="41.2"/>
					<rect x="14.4" y="41.1" transform="matrix(-0.866 -0.5 0.5 -0.866 7.1957 84.8111)" fill="#616B77" width="1.1" height="0.7"/>
				</g>
			</g>
			<g>
				<g>
					<line fill="none" x1="33.8" y1="8.8" x2="34.2" y2="8.2"/>
					
						<rect x="33.5" y="8.2" transform="matrix(-0.8661 -0.4999 0.4999 -0.8661 59.2206 33.0233)" fill="#616B77" width="1.1" height="0.7"/>
				</g>
			</g>
		</g>
	</g>
	<g>
		<g>
			<g>
				<g>
					<line fill="none" x1="29.5" y1="6.3" x2="29.3" y2="7"/>
				</g>
				<g>
					
						<rect x="28.9" y="6.3" transform="matrix(-0.9659 -0.2588 0.2588 -0.9659 56.1598 20.7154)" fill="#CCCACA" width="1.1" height="0.7"/>
				</g>
			</g>
			<g>
				<g>
					<line fill="none" x1="19.7" y1="43" x2="19.5" y2="43.7"/>
				</g>
				<g>
					
						<rect x="19" y="43" transform="matrix(-0.9659 -0.2589 0.2589 -0.9659 27.2166 90.2826)" fill="#CCCACA" width="1.1" height="0.7"/>
				</g>
			</g>
		</g>
		<g>
			<g>
				<g>
					<line fill="none" x1="5.8" y1="20" x2="6.5" y2="20.2"/>
				</g>
				<g>
					
						<rect x="5.7" y="19.5" transform="matrix(-0.9659 -0.2591 0.2591 -0.9659 6.7208 40.9587)" fill="#CCCACA" width="0.7" height="1.1"/>
				</g>
			</g>
			<g>
				<g>
					<line fill="none" x1="42.5" y1="29.8" x2="43.2" y2="30"/>
				</g>
				<g>
					
						<rect x="42.5" y="29.4" transform="matrix(-0.9659 -0.2589 0.2589 -0.9659 76.4718 69.9697)" fill="#CCCACA" width="0.7" height="1.1"/>
				</g>
			</g>
		</g>
	</g>
	<g>
		<g>
			<path fill="#616B77" d="M24.5,25.1c0.2,0.2,0.4,0.5,0.6,0.7l11-6.7L35,17.4l-11.5,7C23.9,24.6,24.2,24.8,24.5,25.1z"/>
		</g>
	</g>
	<g>
		<g>
			<path fill="#616B77" d="M24.4,25.5c0.3-0.3,0.7-0.6,1-0.8l-11.6-7.1L13,18.8l11.2,6.9C24.2,25.6,24.3,25.5,24.4,25.5z"/>
		</g>
	</g>
	<g>
		<g>
			
				<rect x="21.8" y="18.8" transform="matrix(-0.8777 -0.4793 0.4793 -0.8777 28.0475 65.2287)" fill="#425060" width="1.1" height="20.4"/>
		</g>
	</g>
	<g>
		<g>
			<ellipse fill="#FA4968" cx="24.5" cy="25" rx="2.1" ry="2.1"/>
		</g>
	</g>
	<g>
		<g>
			<path fill="#FECD04" d="M49.8,40.8c-0.3,1.1-0.7,2.2-1.3,3.1c-1.1-0.4-2.2-0.3-2.9,0.4s-0.8,1.8-0.4,2.9c-0.9,0.6-2,1-3.1,1.3
				c-0.5-1.1-1.4-1.8-2.3-1.8c-1,0-1.8,0.7-2.3,1.8c-1.1-0.3-2.1-0.7-3.1-1.3c0.4-1.2,0.3-2.3-0.4-3s-1.8-0.8-2.9-0.4
				c-0.6-0.9-1-2-1.3-3.1c1.1-0.5,1.8-1.4,1.8-2.4s-0.7-1.8-1.8-2.4c0.3-1.1,0.7-2.2,1.3-3.1c1.1,0.4,2.2,0.3,2.9-0.4s0.8-1.8,0.4-3
				c0.9-0.6,2-1,3.1-1.3c0.5,1.1,1.4,1.8,2.3,1.8c1,0,1.8-0.7,2.3-1.8c1.1,0.3,2.1,0.7,3.1,1.3c-0.4,1.1-0.3,2.3,0.4,3
				s1.8,0.8,2.9,0.4c0.6,0.9,1,2,1.3,3.1c-1.1,0.5-1.8,1.4-1.8,2.4C48,39.4,48.7,40.3,49.8,40.8z"/>
		</g>
	</g>
	<g>
		<g>
			<circle fill="#FFFFFF" cx="39.9" cy="38.4" r="3.1"/>
		</g>
	</g>
</g>
</svg>
