<?xml version="1.0" encoding="utf-8"?>
<!-- Generator: Adobe Illustrator 18.0.0, SVG Export Plug-In . SVG Version: 6.00 Build 0)  -->
<!DOCTYPE svg PUBLIC "-//W3C//DTD SVG 1.1//EN" "http://www.w3.org/Graphics/SVG/1.1/DTD/svg11.dtd">
<svg version="1.1" id="Layer_1" xmlns="http://www.w3.org/2000/svg" xmlns:xlink="http://www.w3.org/1999/xlink" x="0px" y="0px"
	 viewBox="0 0 50 50" enable-background="new 0 0 50 50" xml:space="preserve">
<g>
	<g>
		<path fill="#6CD8D5" d="M24.2,49c4.8,0,8.8-3.7,8.8-8.4v-0.1c0-8.7-7.1-10.1-15.8-10.1c-8.8,0-15.8,1.4-15.8,10.1v0.1
			c0,4.7,4.1,8.4,8.8,8.4H24.2z"/>
	</g>
	<g opacity="0.3">
		<path fill="#FFFFFF" d="M31.4,41.5l-1-0.1c0.1-0.4,0.1-0.9,0.1-1.3h1C31.5,40.6,31.5,41.1,31.4,41.5z"/>
	</g>
	<g opacity="0.3">
		<path fill="#FFFFFF" d="M25.7,47.3l-0.2-1c1.8-0.4,3.3-1.4,4.2-2.9l0.9,0.5C29.5,45.7,27.8,46.9,25.7,47.3z"/>
	</g>
	<g>
		<path fill="#D9BAA8" d="M14.2,21.7c0,0-0.8,8.8-0.8,9.6c0,2,1.6,3.6,3.7,3.6s3.7-1.6,3.7-3.6c0-0.8-0.8-9.6-0.8-9.6H14.2z"/>
	</g>
	<g>
		<path fill="#C9A28F" d="M28.3,18c-0.5,1.7-1.7,2.5-3.5,2c-1.8-0.6-3.6-2.4-3.1-4c0.5-1.7,3.8-2.3,5.6-1.8
			C29.1,14.8,28.8,16.4,28.3,18z"/>
	</g>
	<g>
		<path fill="#C9A28F" d="M6.1,18c0.5,1.7,1.7,2.5,3.5,2c1.8-0.6,3.6-2.4,3.1-4c-0.5-1.7-3.8-2.3-5.6-1.8C5.3,14.8,5.6,16.4,6.1,18z
			"/>
	</g>
	<g>
		<path fill="#E8CEC1" d="M26.5,13c0,6.6-2.6,15-9.3,15s-9.3-8.4-9.3-15s2.6-9,9.3-9C23.9,4.1,26.5,6.4,26.5,13z"/>
	</g>
	<g>
		<path fill="#616B77" d="M3,10.6c6-1.7,4.9-13,10.8-8C17.6,5.8,9.6,16,3,10.6z"/>
	</g>
	<g opacity="0.3">
		<path fill="#FFFFFF" d="M7.9,10.3l-0.2-1c0.9-0.2,1.8-0.7,2.7-1.5l0.7,0.7C10.1,9.5,9,10.1,7.9,10.3z"/>
	</g>
	<g>
		<path fill="#616B77" d="M26.8,13.6c-4.5-6.8-16.7-0.7-13.5-10.1C15.3-2.6,30,3.1,26.8,13.6z"/>
	</g>
	<g opacity="0.3">
		<path fill="#FFFFFF" d="M23.3,7c-0.8-1.1-2.1-2.1-3.4-2.7l0.4-0.9c1.5,0.7,2.9,1.7,3.9,3L23.3,7z"/>
	</g>
	<g opacity="0.3">
		<path fill="#FFFFFF" d="M18.1,3.8c-0.3,0-0.6-0.1-0.8-0.1v-1c0.3,0,0.6,0,1,0.1L18.1,3.8z"/>
	</g>
	<g>
		<line fill="none" x1="19.6" y1="14.4" x2="22" y2="14.4"/>
	</g>
	<g>
		<circle fill="#616B77" cx="20.4" cy="16.3" r="0.6"/>
	</g>
	<g>
		<path fill="#E5E5E5" d="M16,19.9c0.7,0.5,1.6,0.6,2.4,0"/>
		<path fill="#C9A28F" d="M17.1,20.8c-0.5,0-1-0.2-1.5-0.5l0.6-0.8c0.6,0.4,1.2,0.4,1.9,0l0.5,0.8C18.1,20.6,17.6,20.8,17.1,20.8z"
			/>
	</g>
	<g>
		<line fill="none" x1="14.8" y1="14.4" x2="12.3" y2="14.4"/>
	</g>
	<g>
		<circle fill="#616B77" cx="13.9" cy="16.3" r="0.6"/>
	</g>
	<g>
		<path fill="#425060" d="M17.2,24.7c-1.3,0-2.6-0.6-3.4-1.6l0.8-0.6c0.7,0.8,1.6,1.3,2.7,1.3c1,0,2-0.5,2.7-1.3l0.8,0.6
			C19.7,24.1,18.5,24.7,17.2,24.7z"/>
	</g>
	<g opacity="0.2">
		<circle fill="#FFFFFF" cx="22" cy="20.5" r="1"/>
	</g>
	<g opacity="0.2">
		<circle fill="#FFFFFF" cx="13.2" cy="20.5" r="1"/>
	</g>
	<g>
		<polygon fill="#FA4968" points="15.9,35 14.2,45.2 17,47.2 19.8,45.2 18.1,35 		"/>
	</g>
	<g>
		<path fill="#DDEDEB" d="M24.8,31l-3.9,6.9L17.2,35l3.8-4.5C22.3,30.6,23.6,30.8,24.8,31z"/>
	</g>
	<g>
		<path fill="#DDEDEB" d="M9.6,31l3.9,6.9l3.7-2.9l-3.8-4.5C12,30.6,10.7,30.8,9.6,31z"/>
	</g>
	<g>
		<path fill="#FECD04" d="M45.1,47.3l-5.4-24.5c-1.6-4.3-7.6-2.4-8.9-8.4C29.5,8,36.9,8,37,1.9c2.6,5.5,9.4,2.4,10.8,8.7
			c1.3,6-4.9,6.8-4.5,11.4l5.4,24.5C49,48,45.5,48.7,45.1,47.3z"/>
	</g>
	<g>
		<path fill="#FFFFFF" d="M37.4,16.4c-1.7,0.4-3.5-0.7-3.9-2.5s0.7-3.5,2.5-3.9c1.1-0.2,2.3,0.1,3,0.9c0.4-1,1.2-1.8,2.4-2.1
			c1.7-0.4,3.5,0.7,3.9,2.5c0.4,1.7-0.7,3.5-2.5,3.9c-1.1,0.2-2.3-0.1-3-0.9C39.4,15.4,38.5,16.2,37.4,16.4z"/>
	</g>
	<g>
		<polygon fill="#FFFFFF" points="40,7 38,6.2 36.4,7.7 38.5,8.5 		"/>
	</g>
	<g>
		<polygon fill="#FFFFFF" points="42.3,17.7 40.3,16.9 38.8,18.5 40.8,19.2 		"/>
	</g>
	<g>
		
			<rect x="39.1" y="40.9" transform="matrix(-0.2146 -0.9767 0.9767 -0.2146 8.675 93.2839)" fill="#EABE06" width="5.5" height="4.6"/>
	</g>
	<g>
		<line fill="none" x1="41.3" y1="40.5" x2="41.6" y2="42"/>
		
			<rect x="40.7" y="40.7" transform="matrix(-0.2146 -0.9767 0.9767 -0.2146 10.1282 90.6131)" fill="#FFFFFF" width="1.5" height="1"/>
	</g>
	<g opacity="0.3">
		
			<rect x="43.7" y="43.2" transform="matrix(-0.2146 -0.9767 0.9767 -0.2146 13.5848 98.2499)" fill="#FFFFFF" width="5.2" height="1"/>
	</g>
	<g opacity="0.3">
		
			<rect x="44.8" y="38.5" transform="matrix(-0.2147 -0.9767 0.9767 -0.2147 16.9443 91.53)" fill="#FFFFFF" width="0.9" height="1"/>
	</g>
	<g>
		<line fill="none" x1="42.1" y1="44.4" x2="42.5" y2="45.8"/>
		
			<rect x="41.5" y="44.6" transform="matrix(-0.2146 -0.9767 0.9767 -0.2146 7.3625 96.0271)" fill="#FFFFFF" width="1.5" height="1"/>
	</g>
	<g>
		<line fill="none" x1="47.5" y1="36.5" x2="42" y2="37.7"/>
		
			<rect x="44.2" y="34.2" transform="matrix(-0.2149 -0.9766 0.9766 -0.2149 18.1401 88.6546)" fill="#FECD04" width="1" height="5.6"/>
	</g>
	<g>
		<line fill="none" x1="44.1" y1="23" x2="39.4" y2="24"/>
		
			<rect x="41.3" y="21.2" transform="matrix(-0.2149 -0.9766 0.9766 -0.2149 27.7786 69.4406)" fill="#FECD04" width="1" height="4.8"/>
	</g>
	<g>
		<line fill="none" x1="44.9" y1="24.9" x2="39.5" y2="26.1"/>
		
			<rect x="41.7" y="22.7" transform="matrix(-0.2149 -0.9766 0.9766 -0.2149 26.3842 72.2393)" fill="#FECD04" width="1" height="5.6"/>
	</g>
	<g>
		<line fill="none" x1="45" y1="27" x2="40.3" y2="28"/>
		
			<rect x="42.2" y="25.1" transform="matrix(-0.2148 -0.9767 0.9767 -0.2148 24.978 75.0379)" fill="#FECD04" width="1" height="4.8"/>
	</g>
</g>
</svg>
