<?xml version="1.0" encoding="utf-8"?>
<!-- Generator: Adobe Illustrator 18.0.0, SVG Export Plug-In . SVG Version: 6.00 Build 0)  -->
<!DOCTYPE svg PUBLIC "-//W3C//DTD SVG 1.1//EN" "http://www.w3.org/Graphics/SVG/1.1/DTD/svg11.dtd">
<svg version="1.1" id="Layer_1" xmlns="http://www.w3.org/2000/svg" xmlns:xlink="http://www.w3.org/1999/xlink" x="0px" y="0px"
	 viewBox="0 0 50 50" enable-background="new 0 0 50 50" xml:space="preserve">
<g>
	<g>
		<g>
			<path fill="#ABB734" d="M23.3,13.2v-0.9c0-0.8,0.2-1.5,0.5-2c0.3-0.6,0.9-1.2,1.8-1.8S27,7.4,27.3,7c0.3-0.4,0.4-0.8,0.4-1.3
				s-0.2-0.9-0.6-1.2C26.8,4.1,26.2,4,25.5,4c-1.2,0-2.6,0.4-4.2,1.2L20,2.5c1.8-1,3.7-1.5,5.8-1.5c1.7,0,3,0.4,4,1.2
				s1.5,1.9,1.5,3.2c0,0.9-0.2,1.7-0.6,2.3c-0.4,0.7-1.2,1.4-2.3,2.2c-0.8,0.6-1.3,1-1.5,1.3s-0.3,0.7-0.3,1.2v0.7h-3.3V13.2z
				 M22.9,17.4c0-0.7,0.2-1.2,0.5-1.6c0.4-0.3,0.9-0.5,1.6-0.5s1.2,0.2,1.6,0.5c0.4,0.4,0.6,0.9,0.6,1.5s-0.2,1.1-0.6,1.5
				s-0.9,0.6-1.6,0.6s-1.2-0.2-1.6-0.5C23.1,18.5,22.9,18,22.9,17.4z"/>
		</g>
	</g>
	<g>
		<path fill="#FA4968" d="M41.5,22.2l-6.2-4.6v2.7H33c-5.5,0-10,4.5-10,10V31c0,1.1,0.9,1.9,1.9,1.9s1.9-0.9,1.9-1.9v-0.7
			c0-3.4,2.8-6.2,6.2-6.2h2.3v2.7L41.5,22.2z"/>
	</g>
	<g>
		<path fill="#FFB95C" d="M16.9,20.2h-2.3v-2.7l-6.2,4.6l6.2,4.6V24h2.3c3.4,0,6.2,2.8,6.2,6.2V31c0,1.1,0.9,1.9,1.9,1.9
			s1.9-0.9,1.9-1.9v-0.7C26.9,24.8,22.4,20.2,16.9,20.2z"/>
	</g>
	<g>
		<path fill="#559AFF" d="M38.1,42L38.1,42c0,4-3.4,7-7.3,7H19.2c-3.9,0-7.3-3.1-7.3-7l0,0c0-6.1,4.2-7.9,10-8.3l3.2,3.7l3.2-3.7
			c1.1,0.1,2.2,0.2,3.1,0.4C35.3,34.9,38.1,37,38.1,42z"/>
	</g>
	<g>
		<polygon fill="#FA4968" points="24,37.4 22.6,45.8 24.9,47.5 27.2,45.8 25.8,37.4 		"/>
	</g>
	<g>
		<path fill="#DDEDEB" d="M31.3,34.1L28,39.8l-3-2.4l3.2-3.7C29.3,33.8,30.3,33.9,31.3,34.1z"/>
	</g>
	<g>
		<path fill="#DDEDEB" d="M18.7,34.1l3.2,5.7l3-2.4l-3.2-3.7C20.7,33.8,19.7,33.9,18.7,34.1z"/>
	</g>
	<g opacity="0.3">
		<g>
			<path fill="#FFFFFF" d="M36.4,43.3l-1-0.3c0.1-0.4,0.1-0.7,0.1-1.1h1C36.6,42.4,36.5,42.8,36.4,43.3z"/>
		</g>
		<g>
			<path fill="#FFFFFF" d="M30.8,47.5h-0.2v-1h0.2c1.5,0,2.9-0.7,3.8-1.9l0.8,0.6C34.4,46.6,32.6,47.5,30.8,47.5z"/>
		</g>
	</g>
	<g opacity="0.3">
		<path fill="#FFFFFF" d="M27.9,24.4l-0.7-0.8c0.3-0.3,0.6-0.5,0.9-0.7l0.6,0.9C28.4,23.9,28.2,24.1,27.9,24.4z"/>
	</g>
	<g opacity="0.3">
		<path fill="#FFFFFF" d="M30.3,22.9L29.9,22c1-0.4,2.1-0.6,3.2-0.6h0.1v1h-0.1C32.1,22.4,31.2,22.6,30.3,22.9z"/>
	</g>
	<g opacity="0.3">
		<g>
			<rect x="15.3" y="21.4" fill="#FFFFFF" width="1.2" height="1"/>
		</g>
		<g>
			<path fill="#FFFFFF" d="M21.2,23.7c-0.8-0.5-1.7-0.9-2.7-1.1l0.2-1c1.1,0.2,2.1,0.6,3,1.2L21.2,23.7z"/>
		</g>
	</g>
</g>
</svg>
