<?xml version="1.0" encoding="utf-8"?>
<!-- Generator: Adobe Illustrator 18.0.0, SVG Export Plug-In . SVG Version: 6.00 Build 0)  -->
<!DOCTYPE svg PUBLIC "-//W3C//DTD SVG 1.1//EN" "http://www.w3.org/Graphics/SVG/1.1/DTD/svg11.dtd">
<svg version="1.1" id="Layer_1" xmlns="http://www.w3.org/2000/svg" xmlns:xlink="http://www.w3.org/1999/xlink" x="0px" y="0px"
	 viewBox="0 0 50 50" enable-background="new 0 0 50 50" xml:space="preserve">
<g>
	<g>
		<path fill="#559AFF" d="M36,15.6c-0.8,1.9-1.8,3.8-3,5.5c-1,1.4-2.6,2.9-3.7,3.7c-0.7,0.6-1.1,1.4-1.1,2.3L28.1,36v2.2L28,47.5
			c0,0.8-0.8,1.4-1.7,1.4c-0.9,0-1.6-0.6-1.6-1.4c0,0.8-0.7,1.4-1.6,1.4s-1.6-0.6-1.7-1.4l-0.1-9.3v-2.3l-0.1-8.8
			c0-1-0.5-1.8-1.2-2.4c-3.1-2.4-5.1-5.8-6.6-9.2c-0.6-1.5,1.6-2.6,2.4-1.1c0.9,1.7,1.9,3.3,3,4.7c0.9,1.1,2,2,3.1,2.8
			c0.6,0.4,1.2,0.5,1.9,0.4c0.6-0.1,1.2-0.1,1.8,0c0.7,0.1,1.3-0.1,1.9-0.4c1.1-0.8,2.2-1.7,3.1-2.8c1.2-1.4,2.2-3,3.1-4.7
			C34.3,13.1,36.6,14.1,36,15.6z"/>
	</g>
	<g>
		<path fill="#616B77" d="M21.2,33v3v2.2l0.1,9.3c0,0.8,0.7,1.4,1.7,1.4c0.9,0,1.6-0.6,1.6-1.4c0,0.8,0.7,1.4,1.6,1.4
			s1.6-0.6,1.7-1.4l0.1-9.3V36v-3H21.2z"/>
	</g>
	<g>
		<rect x="24.1" y="36" fill="#425060" width="1" height="11.6"/>
	</g>
	<g>
		<g>
			<path fill="#6CD8D5" d="M22.9,13.8v-0.9c0-0.8,0.2-1.5,0.5-2.1c0.3-0.6,1-1.3,1.9-1.9c0.9-0.6,1.5-1.2,1.8-1.6s0.4-0.8,0.4-1.3
				c0-0.6-0.2-1-0.6-1.3s-1-0.4-1.7-0.4c-1.3,0-2.7,0.4-4.4,1.3l-1.4-2.8C21.3,1.5,23.3,1,25.5,1c1.8,0,3.2,0.4,4.2,1.3
				c1,0.8,1.6,2,1.6,3.4c0,0.9-0.2,1.8-0.6,2.4c-0.4,0.7-1.2,1.5-2.4,2.3c-0.8,0.6-1.3,1.1-1.6,1.4c-0.2,0.3-0.3,0.7-0.3,1.2v0.8
				H22.9z M22.4,18.2c0-0.7,0.2-1.3,0.6-1.6c0.4-0.4,0.9-0.6,1.7-0.6c0.7,0,1.3,0.2,1.6,0.6c0.4,0.4,0.6,0.9,0.6,1.6
				s-0.2,1.2-0.6,1.6s-0.9,0.6-1.6,0.6s-1.3-0.2-1.7-0.6C22.6,19.4,22.4,18.9,22.4,18.2z"/>
		</g>
	</g>
	<g>
		<ellipse fill="#FECD04" cx="39.5" cy="36.1" rx="6.8" ry="6.9"/>
	</g>
	<g>
		<rect x="39" y="26.2" fill="#425060" width="1" height="0.9"/>
	</g>
	<g>
		
			<rect x="35.4" y="26.9" transform="matrix(-0.3817 -0.9243 0.9243 -0.3817 24.243 70.9543)" fill="#425060" width="0.9" height="1"/>
	</g>
	<g>
		
			<rect x="42.6" y="27" transform="matrix(-0.9243 -0.3817 0.3817 -0.9243 72.4166 69.2485)" fill="#425060" width="1" height="0.9"/>
	</g>
	<g>
		<path fill="#425060" d="M41,39.5h-3c-0.8,0-1.5-0.7-1.5-1.6h1c0,0.3,0.2,0.5,0.5,0.5h3c0.3,0,0.5-0.2,0.5-0.5v-0.8
			c0-0.3-0.2-0.5-0.5-0.5h-3c-0.8,0-1.5-0.7-1.5-1.6v-0.8c0-0.9,0.7-1.6,1.5-1.6h3c0.8,0,1.5,0.7,1.5,1.6h-1c0-0.3-0.2-0.5-0.5-0.5
			h-3c-0.3,0-0.5,0.2-0.5,0.5V35c0,0.3,0.2,0.5,0.5,0.5h3c0.8,0,1.5,0.7,1.5,1.6v0.8C42.6,38.8,41.9,39.5,41,39.5z"/>
	</g>
	<g>
		<rect x="39" y="32.1" fill="#425060" width="1" height="8.1"/>
	</g>
	<g>
		<ellipse fill="#FECD04" cx="10.5" cy="36.1" rx="6.8" ry="6.9"/>
	</g>
	<g>
		<g opacity="0.3">
			<path fill="#FFFFFF" d="M7.2,32.8l-0.7-0.7c0.3-0.3,0.7-0.6,1-0.8L8,32.1C7.7,32.3,7.4,32.6,7.2,32.8z"/>
		</g>
		<g opacity="0.3">
			<path fill="#FFFFFF" d="M9.1,31.6l-0.3-1c0.3-0.1,0.6-0.2,0.8-0.2l0.2,1C9.5,31.5,9.3,31.6,9.1,31.6z"/>
		</g>
	</g>
	<g>
		<g opacity="0.3">
			<path fill="#FFFFFF" d="M36.2,32.8l-0.7-0.7c0.3-0.3,0.7-0.6,1-0.8l0.5,0.9C36.8,32.3,36.5,32.6,36.2,32.8z"/>
		</g>
		<g opacity="0.3">
			<path fill="#FFFFFF" d="M38.1,31.6l-0.3-1c0.3-0.1,0.6-0.2,0.8-0.2l0.2,1C38.6,31.5,38.4,31.6,38.1,31.6z"/>
		</g>
	</g>
	<g>
		<rect x="10" y="26.2" fill="#425060" width="1" height="0.9"/>
	</g>
	<g>
		<rect x="6.5" y="27" transform="matrix(-0.3817 -0.9243 0.9243 -0.3817 -15.839 44.311)" fill="#425060" width="0.9" height="1"/>
	</g>
	<g>
		
			<rect x="13.6" y="27" transform="matrix(-0.9241 -0.3821 0.3821 -0.9241 16.6043 58.1695)" fill="#425060" width="1" height="0.9"/>
	</g>
	<g>
		<path fill="#425060" d="M12,39.5H9c-0.8,0-1.5-0.7-1.5-1.6h1c0,0.3,0.2,0.5,0.5,0.5h3c0.3,0,0.5-0.2,0.5-0.5v-0.8
			c0-0.3-0.2-0.5-0.5-0.5H9c-0.8,0-1.5-0.7-1.5-1.6v-0.8c0-0.9,0.7-1.6,1.5-1.6h3c0.8,0,1.5,0.7,1.5,1.6h-1c0-0.3-0.2-0.5-0.5-0.5H9
			c-0.3,0-0.5,0.2-0.5,0.5V35c0,0.3,0.2,0.5,0.5,0.5h3c0.8,0,1.5,0.7,1.5,1.6v0.8C13.6,38.8,12.9,39.5,12,39.5z"/>
	</g>
	<g>
		<rect x="10" y="32.1" fill="#425060" width="1" height="8.1"/>
	</g>
	<g opacity="0.3">
		<g>
			
				<rect x="22.5" y="44.4" transform="matrix(-1.028190e-002 -0.9999 0.9999 -1.028190e-002 -21.629 68.3709)" fill="#FFFFFF" width="1" height="1"/>
		</g>
		<g>
			
				<rect x="21.4" y="40.4" transform="matrix(-1.018594e-002 -0.9999 0.9999 -1.018594e-002 -17.7358 64.2414)" fill="#FFFFFF" width="3" height="1"/>
		</g>
	</g>
</g>
</svg>
