<?xml version="1.0" encoding="utf-8"?>
<!-- Generator: Adobe Illustrator 18.0.0, SVG Export Plug-In . SVG Version: 6.00 Build 0)  -->
<!DOCTYPE svg PUBLIC "-//W3C//DTD SVG 1.1//EN" "http://www.w3.org/Graphics/SVG/1.1/DTD/svg11.dtd">
<svg version="1.1" id="Layer_1" xmlns="http://www.w3.org/2000/svg" xmlns:xlink="http://www.w3.org/1999/xlink" x="0px" y="0px"
	 viewBox="0 0 50 50" enable-background="new 0 0 50 50" xml:space="preserve">
<g>
	<g>
		<path fill="#F4F4F4" d="M43.6,31.9H6.4c-1.6,0-2.9-1.3-2.9-2.9V4C3.4,2.3,4.8,1,6.4,1h37.2c1.6,0,2.9,1.3,2.9,2.9v25
			C46.6,30.6,45.2,31.9,43.6,31.9z"/>
	</g>
	<g>
		<g>
			
				<rect x="36.1" y="5.5" transform="matrix(-0.5418 -0.8405 0.8405 -0.5418 50.3987 41.9159)" fill="#425060" width="1" height="3.5"/>
		</g>
		<g>
			
				<rect x="24.3" y="7.7" transform="matrix(-0.5086 -0.861 0.861 -0.5086 29.2702 35.5171)" fill="#425060" width="1" height="3.4"/>
		</g>
		<g>
			
				<rect x="29.4" y="7.9" transform="matrix(-0.9725 -0.2328 0.2328 -0.9725 58.6108 23.718)" fill="#425060" width="2.6" height="1"/>
		</g>
		<g>
			<circle fill="#6EB0FF" cx="39.6" cy="5.4" r="1.8"/>
		</g>
		<g>
			<circle fill="#6EB0FF" cx="33.7" cy="9.2" r="1.8"/>
		</g>
		<g>
			<circle fill="#6EB0FF" cx="27.7" cy="7.7" r="1.8"/>
		</g>
		<g>
			<circle fill="#6EB0FF" cx="21.7" cy="11.2" r="1.8"/>
		</g>
	</g>
	<g>
		<g>
			<g>
				<path fill="#6CD8D5" d="M12.8,10.5L10.4,7c-1.1,0.8-1.9,2.1-1.9,3.5c0,2.4,1.9,4.3,4.3,4.3c1.9,0,3.5-1.2,4-2.9L12.8,10.5z"/>
			</g>
			<g>
				<path fill="#C5DFDC" d="M12.8,6.3c-0.9,0-1.7,0.3-2.4,0.7l2.4,3.5l3-3C15,6.8,13.9,6.3,12.8,6.3z"/>
			</g>
			<g>
				<path fill="#FECD04" d="M12.8,10.5L12.8,10.5l4,1.3c0.1-0.4,0.2-0.9,0.2-1.3c0-1.2-0.5-2.2-1.2-3L12.8,10.5z"/>
			</g>
		</g>
		<g>
			<g>
				<path fill="#6CD8D5" d="M15.8,25.4L14,23.6c-0.7,0.7-1.8,0.7-2.5,0l-1.8,1.8C11.4,27,14.1,27,15.8,25.4z"/>
			</g>
			<g>
				<path fill="#FF8C83" d="M11.5,23.6c-0.7-0.7-0.7-1.8,0-2.5l-1.8-1.8c-1.7,1.7-1.7,4.4,0,6l0,0L11.5,23.6L11.5,23.6z"/>
			</g>
			<g>
				<path fill="#ABB734" d="M11.5,21.1c0.7-0.7,1.8-0.7,2.5,0l0,0l1.8-1.8l0,0c-1.7-1.7-4.4-1.7-6,0l0,0L11.5,21.1L11.5,21.1z"/>
			</g>
			<g>
				<path fill="#FA4968" d="M14,23.6L14,23.6l1.8,1.8l0,0c1.7-1.7,1.7-4.4,0-6L14,21.1C14.7,21.8,14.7,22.9,14,23.6z"/>
			</g>
		</g>
	</g>
	<g>
		<path fill="#E5E5E5" d="M37,49c3.4,0,6.3-2.7,6.4-6c0,0,0,0,0-0.1c0-6.2-5.1-7.2-11.4-7.2s-11.4,1-11.4,7.2c0,0,0,0,0,0.1
			c0,3.4,2.9,6,6.4,6H37z"/>
	</g>
	<g>
		<path fill="#616B77" d="M43.4,42.9L43.4,42.9c0,3.4-2.9,6.1-6.4,6.1H26.9c-3.4,0-6.3-2.7-6.3-6v-0.1c0-6.2,5.1-7.2,11.4-7.2
			c1,0,1.9,0,2.7,0.1c1,0.1,1.9,0.2,2.7,0.4C41,36.9,43.4,38.7,43.4,42.9z"/>
	</g>
	<g>
		<path fill="#D9BAA8" d="M29.9,29.6c0,0-0.5,6.3-0.5,6.9c0,1.4,1.2,2.6,2.7,2.6c1.5,0,2.7-1.2,2.7-2.6c0-0.6-0.5-6.9-0.5-6.9H29.9z
			"/>
	</g>
	<g>
		<path fill="#C9A28F" d="M40.7,26.9c-0.4,1.2-1.2,1.8-2.5,1.4s-2.6-1.7-2.3-2.9c0.4-1.2,2.7-1.7,4-1.3
			C41.3,24.6,41.1,25.7,40.7,26.9z"/>
	</g>
	<g>
		<path fill="#C9A28F" d="M23.2,26.9c0.4,1.2,1.2,1.8,2.5,1.4s2.6-1.7,2.3-2.9c-0.4-1.2-2.7-1.7-4-1.3
			C22.7,24.6,22.9,25.7,23.2,26.9z"/>
	</g>
	<g>
		<path fill="#E8CEC1" d="M38.7,23.4c0,4.7-1.9,10.7-6.7,10.7s-6.7-6-6.7-10.7S27.1,17,32,17C36.8,17,38.7,18.6,38.7,23.4z"/>
	</g>
	<g>
		<path fill="#894D47" d="M21.8,21.7c4.3-1.2,3.5-9.3,7.8-5.7C32.3,18.2,26.5,25.5,21.8,21.7z"/>
	</g>
	<g>
		<path fill="#894D47" d="M38.9,23.8c-3.2-4.9-12-0.5-9.7-7.2C30.6,12.2,41.3,16.3,38.9,23.8z"/>
	</g>
	<g>
		<polygon fill="#FA4968" points="31.1,39 29.9,45.5 31.9,47 33.9,45.5 32.7,39 		"/>
	</g>
	<g>
		<path fill="#DDEDEB" d="M37.4,36.2l-2.8,4.9L32,39l2.7-3.2C35.7,35.9,36.6,36,37.4,36.2z"/>
	</g>
	<g>
		<path fill="#DDEDEB" d="M26.5,36.2l2.8,4.9L32,39l-2.7-3.2C28.3,35.9,27.3,36,26.5,36.2z"/>
	</g>
	<g>
		<g>
			<rect x="9.6" y="2.1" fill="#FFFFFF" width="1" height="1"/>
		</g>
		<g>
			<rect x="12.6" y="2.1" fill="#FFFFFF" width="3" height="1"/>
		</g>
	</g>
	<g opacity="0.3">
		<g>
			<path fill="#FFFFFF" d="M34.9,31.7L34.2,31c0.2-0.3,0.4-0.5,0.6-0.7l0.9,0.6C35.5,31.1,35.2,31.4,34.9,31.7z"/>
		</g>
		<g>
			<path fill="#FFFFFF" d="M36.6,29l-0.9-0.4c0.3-0.9,0.6-1.9,0.7-2.9l1,0.1C37.2,27,36.9,28,36.6,29z"/>
		</g>
	</g>
	<g opacity="0.3">
		<g>
			<path fill="#FFFFFF" d="M38.9,47.5l-0.3-1c0.3-0.1,0.7-0.3,1-0.5l0.6,0.8C39.8,47.2,39.4,47.4,38.9,47.5z"/>
		</g>
		<g>
			<path fill="#FFFFFF" d="M41.7,45.3l-0.9-0.5c0.3-0.6,0.5-1.2,0.5-1.8c0-0.4,0-0.7-0.1-1l1-0.1c0.1,0.4,0.1,0.7,0.1,1.2
				C42.3,43.8,42,44.6,41.7,45.3z"/>
		</g>
	</g>
</g>
</svg>
