<?xml version="1.0" encoding="utf-8"?>
<!-- Generator: Adobe Illustrator 18.0.0, SVG Export Plug-In . SVG Version: 6.00 Build 0)  -->
<!DOCTYPE svg PUBLIC "-//W3C//DTD SVG 1.1//EN" "http://www.w3.org/Graphics/SVG/1.1/DTD/svg11.dtd">
<svg version="1.1" id="Layer_1" xmlns="http://www.w3.org/2000/svg" xmlns:xlink="http://www.w3.org/1999/xlink" x="0px" y="0px"
	 viewBox="0 0 50 50" enable-background="new 0 0 50 50" xml:space="preserve">
<g>
	<g>
		<path fill="#425060" d="M39.2,40.6h-5.7v-2.3c0-0.8,0.6-1.4,1.4-1.4h3c0.8,0,1.4,0.6,1.4,1.4v2.3H39.2z M34.6,39.5h3.6v-1.2
			c0-0.2-0.1-0.3-0.3-0.3h-3c-0.2,0-0.3,0.1-0.3,0.3V39.5z"/>
	</g>
	<g>
		<path fill="#425060" d="M16.5,40.6h-5.7v-2.3c0-0.8,0.6-1.4,1.4-1.4h3c0.8,0,1.4,0.6,1.4,1.4v2.3H16.5z M11.8,39.5h3.6v-1.2
			c0-0.2-0.1-0.3-0.3-0.3h-3c-0.2,0-0.3,0.1-0.3,0.3C11.8,38.3,11.8,39.5,11.8,39.5z"/>
	</g>
	<g>
		
			<rect x="27.5" y="22.1" transform="matrix(-0.9366 -0.3503 0.3503 -0.9366 41.7248 79.3838)" fill="#425060" width="1.1" height="27.6"/>
	</g>
	<g>
		<path fill="#FA4968" d="M43.2,34.1c-5.7,1.7-7.6-6.7-13.2-5c1.2-3.1,2.3-6.2,3.5-9.3c5.7-1.7,7.6,6.7,13.2,5
			C45.5,27.9,44.3,31,43.2,34.1z"/>
	</g>
	<g>
		
			<rect x="8.2" y="35.4" transform="matrix(-0.3506 -0.9365 0.9365 -0.3506 -3.9774 69.053)" fill="#425060" width="27.6" height="1.1"/>
	</g>
	<g>
		<path fill="#FECD04" d="M6.8,34.1c5.7,1.7,7.6-6.7,13.2-5c-1.2-3.1-2.3-6.2-3.5-9.3c-5.7-1.7-7.6,6.7-13.2,5
			C4.5,27.9,5.7,31,6.8,34.1z"/>
	</g>
	<g>
		<path fill="#F4F4F4" d="M37.4,4.3V12c0,1.9-1.5,3.3-3.4,3.3h-5.3L25,19.1l-3.7-3.7H16c-1.9,0-3.4-1.5-3.4-3.3V4.3
			C12.6,2.5,14.1,1,16,1h18C35.9,1,37.4,2.5,37.4,4.3z"/>
	</g>
	<g>
		<g>
			<polygon fill="#FFFFFF" points="39.7,24.5 39.7,26.4 41.2,27.4 39.5,28 39,29.7 37.9,28.3 36.1,28.3 37.1,26.8 36.5,25.1 
				38.2,25.7 			"/>
		</g>
		<g>
			<polygon fill="#FFFFFF" points="10.3,24.5 10.3,26.4 8.8,27.4 10.5,28 11,29.7 12.1,28.3 13.9,28.3 12.9,26.8 13.5,25.1 
				11.8,25.7 			"/>
		</g>
	</g>
	<g>
		<rect x="24.8" y="4.1" fill="#CCCACA" width="9.2" height="1.1"/>
	</g>
	<g>
		<rect x="16" y="4.1" fill="#CCCACA" width="5.5" height="1.1"/>
	</g>
	<g>
		<rect x="29.1" y="6.6" fill="#CCCACA" width="4.9" height="1.1"/>
	</g>
	<g>
		<rect x="16" y="6.6" fill="#CCCACA" width="9.9" height="1.1"/>
	</g>
	<g>
		<rect x="22" y="9" fill="#CCCACA" width="12" height="1.1"/>
	</g>
	<g>
		<rect x="16" y="9" fill="#CCCACA" width="2.8" height="1.1"/>
	</g>
	<g>
		<rect x="26.6" y="11.4" fill="#CCCACA" width="7.3" height="1.1"/>
	</g>
	<g>
		<rect x="16" y="11.4" fill="#CCCACA" width="7.3" height="1.1"/>
	</g>
	<g>
		<path fill="#FA4968" d="M41.3,48.8h-9.9c-1,0-1.7-0.8-1.7-1.7v-5.8c0-1,0.8-1.7,1.7-1.7h9.9c1,0,1.7,0.8,1.7,1.7v5.8
			C43.1,48,42.3,48.8,41.3,48.8z"/>
	</g>
	<g>
		<path fill="#C6CC4A" d="M43.1,41.3v0.9c0,1-0.8,1.7-1.7,1.7h-9.9c-1,0-1.7-0.8-1.7-1.7v-0.9c0-1,0.8-1.7,1.7-1.7h9.9
			C42.3,39.5,43.1,40.3,43.1,41.3z"/>
	</g>
	<g>
		<path fill="#FFFFFF" d="M37,45.4h-1.3c-0.3,0-0.5-0.2-0.5-0.5v-1.7c0-0.3,0.2-0.5,0.5-0.5H37c0.3,0,0.5,0.2,0.5,0.5v1.7
			C37.5,45.2,37.3,45.4,37,45.4z"/>
	</g>
	<g>
		<path fill="#FA4968" d="M18.6,48.8H8.7c-1,0-1.7-0.8-1.7-1.7v-5.8c0-1,0.8-1.7,1.7-1.7h9.9c1,0,1.7,0.8,1.7,1.7v5.8
			C20.3,48,19.5,48.8,18.6,48.8z"/>
	</g>
	<g>
		<path fill="#6EB0FF" d="M20.3,41.3v0.9c0,1-0.8,1.7-1.7,1.7H8.7c-1,0-1.7-0.8-1.7-1.7v-0.9c0-1,0.8-1.7,1.7-1.7h9.9
			C19.5,39.5,20.3,40.3,20.3,41.3z"/>
	</g>
	<g>
		<path fill="#FFFFFF" d="M14.3,45.4H13c-0.3,0-0.5-0.2-0.5-0.5v-1.7c0-0.3,0.2-0.5,0.5-0.5h1.3c0.3,0,0.5,0.2,0.5,0.5v1.7
			C14.8,45.2,14.6,45.4,14.3,45.4z"/>
	</g>
</g>
</svg>
