<?xml version="1.0" encoding="utf-8"?>
<!-- Generator: Adobe Illustrator 18.0.0, SVG Export Plug-In . SVG Version: 6.00 Build 0)  -->
<!DOCTYPE svg PUBLIC "-//W3C//DTD SVG 1.1//EN" "http://www.w3.org/Graphics/SVG/1.1/DTD/svg11.dtd">
<svg version="1.1" id="Layer_1" xmlns="http://www.w3.org/2000/svg" xmlns:xlink="http://www.w3.org/1999/xlink" x="0px" y="0px"
	 viewBox="0 0 50 50" enable-background="new 0 0 50 50" xml:space="preserve">
<g>
	<g>
		<path fill="#ED2F58" d="M12.1,13.1c1,2,2.4,4.1,3.8,5.9c1.5,1.8,3.1,3.6,5,4.7c0.8,0.5,1,1.5,0.6,2.2C20,28,17.3,25,16,24.1
			c-3-2.6-5.5-5.6-7.6-9.1C7,12.5,10.7,10.5,12.1,13.1L12.1,13.1z"/>
	</g>
	<g>
		<path fill="#559AFF" d="M14.8,47.2c-0.2,2.5-3.9,2.3-3.9-0.1c0-4.4,0.1-8.6-1.3-12.9c0.1,3-0.2,5.9-1.1,8.8
			c-0.4,1.6-0.8,3.1-1.3,4.6c-0.3,1-1.3,1.6-2.3,1.3s-1.5-1.2-1.3-2.2c0.9-4.4,2-8.8,1.1-13.3c-0.2-1.5-0.4-3.1-0.7-4.6l0,0
			C3.2,24.2,2.9,19.3,3.2,14c0.1-2.5,2.2-3,4.7-2.8c2.5,0.1,4.5,0.8,4.4,3.3c-0.3,4.7,0,9,0.7,12.8c0,0.1,0.1,0.1,0.1,0.2
			c0.8,3.3,1.5,6.3,2,9.8C15.3,40.7,15,43.9,14.8,47.2z"/>
	</g>
	<g>
		<path fill="#FA4968" d="M4,28.7v0.1c0,0,9.1-1.4,9.1-1.3c0-0.1,0-0.1-0.1-0.2c-0.8-3.8-1-8.1-0.7-12.8c0.1-2.5-1.9-3.2-4.4-3.3
			S3.3,11.5,3.2,14C2.9,19.3,3.2,24.2,4,28.7L4,28.7z"/>
	</g>
	<g>
		<path fill="#FF6989" d="M5.7,13.3c1.4,0.3,1.8,1.8,0.8,4.8c-0.2,1.1-0.3,2.2-0.3,3.4c-0.1,2.3,0,4.8,0.6,6.8
			c0.3,0.9-0.2,1.8-1.1,2c-2.5,0.6-2.6-3.4-3-5c-0.4-3.3-0.4-6.6,0-9.9C3.1,14.1,4.4,13,5.7,13.3z"/>
	</g>
	<g>
		<ellipse fill="#616B77" cx="8.4" cy="4.8" rx="3.8" ry="3.8"/>
	</g>
	<g>
		<g>
			<g>
				<path fill="#559AFF" d="M47.5,44.7c0,0.5,0,1-0.1,1.5c-0.3,1.6-1.7,2.7-3.2,2.7h-7c-1.6,0-3-1.1-3.2-2.7c-0.1-0.5-0.1-1-0.1-1.5
					c0-2.9,1.7-3.9,4.2-4.2l2.7,2.3l2.7-2.3C45.7,40.8,47.5,41.8,47.5,44.7z"/>
			</g>
			<g opacity="0.2">
				<path fill="#FFFFFF" d="M44.1,47.2h-7c-0.8,0-1.5-0.6-1.6-1.3c-0.1-0.4-0.1-0.8-0.1-1.2h1.1c0,0.3,0,0.7,0.1,1
					c0,0.2,0.3,0.4,0.5,0.4h7c0.3,0,0.5-0.2,0.5-0.4c0.1-0.4,0.1-0.7,0.1-1h1.1c0,0.4,0,0.8-0.1,1.2C45.6,46.6,44.9,47.2,44.1,47.2z
					"/>
			</g>
			<g>
				<ellipse fill="#559AFF" cx="40.6" cy="36.2" rx="3.3" ry="3.3"/>
			</g>
		</g>
		<g>
			<path fill="#8CF2ED" d="M31.9,44.7c0,0.5,0,1-0.1,1.5c-0.3,1.6-1.7,2.7-3.2,2.7h-7c-1.6,0-3-1.1-3.2-2.7c-0.1-0.5-0.1-1-0.1-1.5
				c0-2.9,1.7-3.9,4.2-4.2l2.7,2.3l2.7-2.3C30.1,40.8,31.9,41.8,31.9,44.7z"/>
		</g>
		<g opacity="0.2">
			<path fill="#FFFFFF" d="M28.5,47.2h-7c-0.8,0-1.5-0.6-1.6-1.3c-0.1-0.4-0.1-0.8-0.1-1.2h1.1c0,0.3,0,0.7,0.1,1
				c0,0.2,0.3,0.4,0.5,0.4h7c0.3,0,0.5-0.2,0.5-0.4c0.1-0.4,0.1-0.7,0.1-1h1.1c0,0.4,0,0.8-0.1,1.2C30,46.6,29.3,47.2,28.5,47.2z"/>
		</g>
		<g>
			<g>
				<ellipse fill="#8CF2ED" cx="25" cy="36.2" rx="3.3" ry="3.3"/>
			</g>
		</g>
	</g>
	<g>
		<g>
			<path fill="#559AFF" d="M22.5,20.6c0,0,2.7-0.1,4.9-1.7c1.8,1.1,4.1,1.7,6.5,1.7c6.1,0,11-3.9,11-8.7s-4.9-8.7-11-8.7
				s-11,3.9-11,8.7c0,1.6,0.6,3.1,1.6,4.4C24.1,17.7,23.5,19.2,22.5,20.6z"/>
		</g>
		<g>
			<g>
				<ellipse fill="#FFFFFF" cx="39.8" cy="11.9" rx="2" ry="2"/>
			</g>
			<g>
				<ellipse fill="#FFFFFF" cx="33.9" cy="11.9" rx="2" ry="2"/>
			</g>
			<g>
				<ellipse fill="#FFFFFF" cx="28.1" cy="11.9" rx="2" ry="2"/>
			</g>
		</g>
	</g>
</g>
</svg>
