<?xml version="1.0" encoding="utf-8"?>
<!-- Generator: Adobe Illustrator 18.0.0, SVG Export Plug-In . SVG Version: 6.00 Build 0)  -->
<!DOCTYPE svg PUBLIC "-//W3C//DTD SVG 1.1//EN" "http://www.w3.org/Graphics/SVG/1.1/DTD/svg11.dtd">
<svg version="1.1" id="Layer_1" xmlns="http://www.w3.org/2000/svg" xmlns:xlink="http://www.w3.org/1999/xlink" x="0px" y="0px"
	 viewBox="0 0 50 50" enable-background="new 0 0 50 50" xml:space="preserve">
<g opacity="0.2">
	<path fill="#FFFFFF" d="M24.6,25.6l-0.3-1c0.4-0.1,0.8-0.2,1.2-0.3l0.2,1C25.3,25.4,25,25.5,24.6,25.6z"/>
</g>
<g>
	<g>
		<path fill="#6E9583" d="M13.4,27.2l-4,2.7l-4-2.7C2.8,27.8,1,29.3,1,32.5c0,0.6,0.1,1.2,0.2,1.9c0.2,1.1,1.2,1.8,2.3,1.8h11.9
			c1.1,0,2.1-0.7,2.3-1.8c0.1-0.6,0.2-1.3,0.2-1.9C17.8,29.3,16,27.8,13.4,27.2z"/>
	</g>
	<g>
		<path fill="#525F70" d="M11.2,36.1l-0.8-5.8l0.5-1.3c0-0.8-2.8-0.8-2.8,0l0.5,1.3l-0.8,5.8H11.2z"/>
	</g>
	<g>
		<path fill="#9AB2A5" d="M4.2,30.3l-0.6-0.8c0.1-0.1,0.3-0.2,0.4-0.3L4.5,30C4.4,30.1,4.3,30.2,4.2,30.3z"/>
	</g>
	<g>
		<path fill="#9AB2A5" d="M2.5,33.4c0-0.3-0.1-0.6-0.1-0.9c0-0.6,0.1-1.1,0.2-1.5l0.9,0.3c-0.1,0.3-0.2,0.7-0.2,1.2
			c0,0.3,0,0.5,0.1,0.8L2.5,33.4z"/>
	</g>
	<g>
		<polygon fill="#9AB2A5" points="12.7,25.8 9.4,28.5 11.3,29.7 13.4,27.2 		"/>
	</g>
	<g>
		<polygon fill="#9AB2A5" points="6.1,25.8 9.4,28.5 7.5,29.7 5.4,27.2 		"/>
	</g>
	<g>
		<path fill="#FFFFFF" d="M11.3,29.7"/>
	</g>
	<g>
		<path fill="#525F70" d="M6.6,18.7c0.5-0.1,1.1,0,1.6,0.1c0.5,0.2,1,0.4,1.6,0.5c0.7,0.2,1.4,0.2,2,0c0.5-0.1,1-0.4,1.3-0.8v-1
			c0-1.2-1-2.1-2.2-2.1H7.8c-1.2,0-2.2,1-2.2,2.1v1.6C5.9,18.9,6.2,18.7,6.6,18.7z"/>
	</g>
	<g>
		<path fill="#FFA49F" d="M13.1,19.9v-1.4c-0.3,0.4-0.8,0.6-1.3,0.8c-0.7,0.2-1.4,0.2-2,0c-0.5-0.1-1-0.3-1.6-0.5
			c-0.5-0.2-1.1-0.2-1.6-0.1c-0.4,0.1-0.7,0.3-0.9,0.5v0.7c-0.5,0-0.9,0.4-0.9,0.9s0.4,0.9,0.9,0.9l0,0c0.2,1.8,1.8,3.2,3.7,3.2
			s3.5-1.4,3.7-3.2l0,0c0.5,0,0.9-0.4,0.9-0.9C14,20.3,13.6,19.9,13.1,19.9z"/>
	</g>
	<g>
		<path fill="#ABB734" d="M44.6,27.2l-4,2.7l-4-2.7c-2.6,0.6-4.4,2.1-4.4,5.3c0,0.6,0.1,1.2,0.2,1.9c0.2,1.1,1.2,1.8,2.3,1.8h11.9
			c1.1,0,2.1-0.7,2.3-1.8c0.1-0.6,0.2-1.3,0.2-1.9C49,29.3,47.2,27.8,44.6,27.2z"/>
	</g>
	<g>
		<path fill="#FA4968" d="M42.4,36.1l-0.8-5.8l0.5-1.3c0-0.8-2.8-0.8-2.8,0l0.5,1.3L39,36.1H42.4z"/>
	</g>
	<g>
		<path fill="#C6CC4A" d="M35.4,30.3l-0.6-0.8c0.1-0.1,0.3-0.2,0.4-0.3l0.5,0.8C35.6,30.1,35.5,30.2,35.4,30.3z"/>
	</g>
	<g>
		<path fill="#C6CC4A" d="M33.7,33.4c0-0.3-0.1-0.6-0.1-0.9c0-0.6,0.1-1.1,0.2-1.5l0.9,0.3c-0.1,0.3-0.2,0.7-0.2,1.2
			c0,0.3,0,0.5,0.1,0.8L33.7,33.4z"/>
	</g>
	<g>
		<polygon fill="#C6CC4A" points="43.9,25.8 40.6,28.5 42.5,29.7 44.6,27.2 		"/>
	</g>
	<g>
		<polygon fill="#C6CC4A" points="37.3,25.8 40.6,28.5 38.7,29.7 36.6,27.2 		"/>
	</g>
	<g>
		<path fill="#FFFFFF" d="M42.5,29.7"/>
	</g>
	<g>
		<path fill="#525F70" d="M37.8,18.7c0.5-0.1,1.1,0,1.6,0.1c0.5,0.2,1,0.4,1.6,0.5c0.7,0.2,1.4,0.2,2,0c0.5-0.1,1-0.4,1.3-0.8v-1
			c0-1.2-1-2.1-2.2-2.1H39c-1.2,0-2.2,1-2.2,2.1v1.6C37.1,18.9,37.4,18.7,37.8,18.7z"/>
	</g>
	<g>
		<path fill="#FFA49F" d="M44.3,19.9v-1.4c-0.3,0.4-0.8,0.6-1.3,0.8c-0.7,0.2-1.4,0.2-2,0c-0.5-0.1-1-0.3-1.6-0.5
			c-0.5-0.2-1.1-0.2-1.6-0.1c-0.4,0.1-0.7,0.3-0.9,0.5v0.7c-0.5,0-0.9,0.4-0.9,0.9s0.4,0.9,0.9,0.9l0,0c0.2,1.8,1.8,3.2,3.7,3.2
			s3.5-1.4,3.7-3.2l0,0c0.5,0,0.9-0.4,0.9-0.9C45.2,20.3,44.8,19.9,44.3,19.9z"/>
	</g>
	<g>
		<path fill="#425060" d="M28.7,27.4c0,2.1-1.7,3.7-3.7,3.7s-3.7-1.7-3.7-3.7c0-1,0.4-1.3,1-5.4c0.9,0.2,1.8,0.4,2.8,0.4
			s1.9-0.1,2.8-0.4C28.4,26.1,28.7,26.4,28.7,27.4z"/>
	</g>
	<g>
		<path fill="#616B77" d="M32.5,19.2c-4.2,4.2-10.9,4.2-15.1,0s-4.2-10.9,0-15.1c4.2-4.1,11-4.1,15.1,0C36.7,8.3,36.7,15,32.5,19.2z
			"/>
	</g>
	<g opacity="0.2">
		<path fill="#FFFFFF" d="M17.5,7.4l-0.9-0.5c0.4-0.7,0.9-1.4,1.5-2c0.7-0.7,1.5-1.3,2.3-1.7L21,4c-0.8,0.4-1.5,0.9-2.1,1.5
			S17.9,6.7,17.5,7.4z"/>
	</g>
	<g>
		<path fill="#6CD8D5" d="M30.4,17c-3,3-7.8,3-10.7,0c-3-3-3-7.8,0-10.7c3-3,7.8-3,10.7,0C33.3,9.3,33.3,14.1,30.4,17z"/>
	</g>
	<g>
		<path fill="#559AFF" d="M38.5,41.8L38.5,41.8c0,4.1-3.5,7.2-7.5,7.2H19c-4.1,0-7.5-3.2-7.5-7.2v-0.1c0-6.3,4.4-8.1,10.2-8.5
			l3.2,3.8l3.2-3.8c1.1,0.1,2.2,0.2,3.2,0.4C35.7,34.5,38.5,36.7,38.5,41.8z"/>
	</g>
	<g>
		<polygon fill="#FA4968" points="23.9,37.1 22.5,45.7 24.9,47.5 27.3,45.7 25.8,37.1 		"/>
	</g>
	<g>
		<path fill="#DDEDEB" d="M31.5,33.7l-3.3,5.9L25,37.1l3.2-3.8C29.4,33.3,30.5,33.5,31.5,33.7z"/>
	</g>
	<g>
		<path fill="#DDEDEB" d="M18.5,33.7l3.3,5.9l3.1-2.5l-3.2-3.8C20.6,33.3,19.5,33.5,18.5,33.7z"/>
	</g>
</g>
</svg>
