<?xml version="1.0" encoding="utf-8"?>
<!-- Generator: Adobe Illustrator 18.0.0, SVG Export Plug-In . SVG Version: 6.00 Build 0)  -->
<!DOCTYPE svg PUBLIC "-//W3C//DTD SVG 1.1//EN" "http://www.w3.org/Graphics/SVG/1.1/DTD/svg11.dtd">
<svg version="1.1" id="Layer_1" xmlns="http://www.w3.org/2000/svg" xmlns:xlink="http://www.w3.org/1999/xlink" x="0px" y="0px"
	 viewBox="0 0 50 50" enable-background="new 0 0 50 50" xml:space="preserve">
<g>
	<g>
		<polygon fill="#FA4968" points="25,6.1 21.4,3.6 25,1 28.6,3.6 		"/>
	</g>
	<g>
		<polygon fill="#6CD8D5" points="28.6,8.7 25,6.1 28.6,3.6 32.3,6.1 		"/>
	</g>
	<g>
		<polygon fill="#ABB734" points="32.3,11.3 28.6,8.7 32.3,6.1 35.9,8.7 		"/>
	</g>
	<g>
		<polygon fill="#F76861" points="17.7,11.3 14.1,8.7 17.7,6.1 21.4,8.7 		"/>
	</g>
	<g>
		<polygon fill="#E5E5E5" points="21.4,13.8 17.7,11.3 21.4,8.7 25,11.3 		"/>
	</g>
	<g>
		<polygon fill="#A7CEC8" points="25,16.4 21.4,13.8 25,11.3 28.6,13.8 		"/>
	</g>
	<g>
		<polygon fill="#FFB95C" points="21.4,8.7 17.7,6.1 21.4,3.6 25,6.1 		"/>
	</g>
	<g>
		<polygon fill="#559AFF" points="25,11.3 21.4,8.7 25,6.1 28.6,8.7 		"/>
	</g>
	<g>
		<polygon fill="#D9BAA8" points="28.6,13.8 25,11.3 28.6,8.7 32.3,11.3 		"/>
	</g>
	<g>
		<g>
			<polygon fill="#FFB95C" points="28.7,17.5 25,20 25,16.4 28.7,13.8 			"/>
		</g>
		<g>
			<polygon fill="#6CD8D5" points="32.3,14.9 28.7,17.5 28.7,13.8 32.3,11.3 			"/>
		</g>
		<g>
			<polygon fill="#FF8C83" points="36,12.3 32.3,14.9 32.3,11.3 36,8.7 			"/>
		</g>
	</g>
	<g>
		<g>
			<polygon fill="#6CD8D5" points="28.7,24.7 25,27.3 25,23.7 28.7,21.1 			"/>
		</g>
		<g>
			<polygon fill="#FF8C83" points="32.3,22.2 28.7,24.7 28.7,21.1 32.3,18.5 			"/>
		</g>
		<g>
			<polygon fill="#559AFF" points="36,19.6 32.3,22.2 32.3,18.5 36,16 			"/>
		</g>
	</g>
	<g>
		<polygon fill="#D9BAA8" points="28.7,21.1 25,23.7 25,20 28.7,17.5 		"/>
	</g>
	<g>
		<polygon fill="#C5DFDC" points="32.3,18.5 28.7,21.1 28.7,17.5 32.3,14.9 		"/>
	</g>
	<g>
		<polygon fill="#6E9583" points="36,16 32.3,18.5 32.3,14.9 36,12.3 		"/>
	</g>
	<g>
		<polygon fill="#FA4968" points="21.3,17.5 25,20 25,16.4 21.3,13.8 		"/>
	</g>
	<g>
		<polygon fill="#616B77" points="17.7,14.9 21.3,17.5 21.3,13.8 17.7,11.3 		"/>
	</g>
	<g>
		<polygon fill="#FECD04" points="14,12.3 17.7,14.9 17.7,11.3 14,8.7 		"/>
	</g>
	<g>
		<polygon fill="#FFB95C" points="21.3,24.7 25,27.3 25,23.7 21.3,21.1 		"/>
	</g>
	<g>
		<polygon fill="#FA4968" points="17.7,22.2 21.3,24.7 21.3,21.1 17.7,18.5 		"/>
	</g>
	<g>
		<polygon fill="#525F70" points="14,19.6 17.7,22.2 17.7,18.5 14,16 		"/>
	</g>
	<g>
		<polygon fill="#E5E5E5" points="21.3,21.1 25,23.7 25,20 21.3,17.5 		"/>
	</g>
	<g>
		<polygon fill="#ABB734" points="17.7,18.5 21.3,21.1 21.3,17.5 17.7,14.9 		"/>
	</g>
	<g>
		<polygon fill="#559AFF" points="14,16 17.7,18.5 17.7,14.9 14,12.3 		"/>
	</g>
	<g>
		<path fill="#559AFF" d="M41.9,39.9L41.9,39.9c0,5.1-4.3,9.1-9.4,9.1h-15c-5.1,0-9.4-4-9.4-9v-0.1c0-7.9,5.5-10.2,12.9-10.7l4,4.8
			l4.1-4.8c1.4,0.1,2.8,0.3,4,0.5C38.4,30.8,41.9,33.6,41.9,39.9z"/>
	</g>
	<g>
		<polygon fill="#616B77" points="23.7,34 21.9,44.9 24.8,47.1 27.8,44.9 26,34 		"/>
	</g>
	<g>
		<path fill="#DDEDEB" d="M33.1,29.8l-4.2,7.4L25,34l4.1-4.8C30.5,29.3,31.9,29.5,33.1,29.8z"/>
	</g>
	<g>
		<path fill="#DDEDEB" d="M16.9,29.8l4.2,7.4L25,34l-4.1-4.8C19.5,29.3,18.1,29.5,16.9,29.8z"/>
	</g>
</g>
</svg>
