<?xml version="1.0" encoding="utf-8"?>
<!-- Generator: Adobe Illustrator 18.0.0, SVG Export Plug-In . SVG Version: 6.00 Build 0)  -->
<!DOCTYPE svg PUBLIC "-//W3C//DTD SVG 1.1//EN" "http://www.w3.org/Graphics/SVG/1.1/DTD/svg11.dtd">
<svg version="1.1" id="Layer_1" xmlns="http://www.w3.org/2000/svg" xmlns:xlink="http://www.w3.org/1999/xlink" x="0px" y="0px"
	 viewBox="0 0 50 50" enable-background="new 0 0 50 50" xml:space="preserve">
<g>
	<g>
		<g>
			<g>
				<path fill="#FFA49F" d="M25.4,9.8c-1.6,2.8-4.1,4.4-5.8,3.9c-0.2,0.1-0.4,0.1-0.6,0.1s-0.4,0-0.6-0.1c-1.8,0.5-4.2-1.2-5.8-3.9
					c-1.8-3-1.8-6.3,0-7.4c1-0.6,2.4-0.3,3.7,0.7C17,1.8,18,1,19,1c1.1,0,2,0.8,2.7,2.1c1.3-1,2.7-1.3,3.7-0.7
					C27.2,3.5,27.2,6.8,25.4,9.8z"/>
			</g>
		</g>
	</g>
	<g>
		<path fill="#FFA49F" d="M36.2,38.4C36.2,47.9,28.5,49,19,49S1.8,47.9,1.8,38.4S9.5,14.6,19,14.6S36.2,28.9,36.2,38.4z"/>
	</g>
	<g opacity="0.3">
		<path fill="#FFFFFF" d="M31.6,29.1c-0.9-2.1-2-4.1-3.2-5.8l0.8-0.6c1.3,1.8,2.4,3.9,3.3,6L31.6,29.1z"/>
	</g>
	<g opacity="0.3">
		<path fill="#FFFFFF" d="M9.1,46.5c-3.8-1.1-5.5-3.4-5.7-7.3h1c0.2,3.5,1.6,5.4,5,6.4L9.1,46.5z"/>
	</g>
	<g opacity="0.3">
		<path fill="#FFFFFF" d="M4.4,37.4l-1-0.1c0-0.5,0.1-1,0.2-1.5l1,0.1C4.5,36.5,4.4,37,4.4,37.4z"/>
	</g>
	<g>
		<circle fill="#FECD04" cx="19" cy="34.4" r="8.3"/>
	</g>
	<g opacity="0.3">
		<path fill="#FFFFFF" d="M13.4,33.4l-1-0.2c0.4-2.1,1.7-3.9,3.5-4.8l0.5,0.9C14.8,30.1,13.7,31.7,13.4,33.4z"/>
	</g>
	<g opacity="0.3">
		<path fill="#FFFFFF" d="M17.5,28.9l-0.3-1c0.3-0.1,0.7-0.2,1-0.2l0.1,1C18,28.8,17.7,28.8,17.5,28.9z"/>
	</g>
	<g>
		<g>
			<g>
				<path fill="#425060" d="M20.7,34.9h-3.3c-0.9,0-1.6-0.7-1.6-1.6v-1.1c0-0.9,0.7-1.6,1.6-1.6h3.3c0.9,0,1.6,0.7,1.6,1.6h-1
					c0-0.3-0.3-0.6-0.6-0.6h-3.3c-0.3,0-0.6,0.3-0.6,0.6v1.1c0,0.3,0.3,0.6,0.6,0.6h3.3V34.9z"/>
			</g>
			<g>
				<path fill="#425060" d="M20.7,38.1h-3.3c-0.9,0-1.6-0.7-1.6-1.6h1c0,0.3,0.3,0.6,0.6,0.6h3.3c0.3,0,0.6-0.3,0.6-0.6v-1.1
					c0-0.3-0.3-0.6-0.6-0.6h-3.3v-1h3.3c0.9,0,1.6,0.7,1.6,1.6v1.1C22.3,37.4,21.6,38.1,20.7,38.1z"/>
			</g>
		</g>
		<g>
			<rect x="18.5" y="29.7" fill="#425060" width="1" height="9.4"/>
		</g>
	</g>
	<g>
		<ellipse fill="#E8CEC1" cx="19" cy="14.1" rx="7.2" ry="3.4"/>
	</g>
	<g opacity="0.3">
		<path fill="#FFFFFF" d="M14.3,14.4l-0.8-0.7c0.6-0.6,2.5-1.6,5.5-1.6v1C16.3,13.2,14.6,14,14.3,14.4z"/>
	</g>
	<g>
		<rect x="29" y="38.1" fill="#6CD8D5" width="17.2" height="3.6"/>
	</g>
	<g>
		<rect x="35.7" y="38.1" fill="#F4F4F4" width="3.8" height="3.6"/>
	</g>
	<g>
		<g>
			<rect x="27.3" y="41.7" fill="#50C9C3" width="17.2" height="3.6"/>
		</g>
		<g>
			<rect x="34" y="41.7" fill="#CCCACA" width="3.8" height="3.6"/>
		</g>
	</g>
	<g>
		<g>
			<rect x="31" y="45.4" fill="#6CD8D5" width="17.2" height="3.6"/>
		</g>
		<g>
			<rect x="37.7" y="45.4" fill="#F4F4F4" width="3.8" height="3.6"/>
		</g>
	</g>
</g>
</svg>
