<?xml version="1.0" encoding="utf-8"?>
<!-- Generator: Adobe Illustrator 18.0.0, SVG Export Plug-In . SVG Version: 6.00 Build 0)  -->
<!DOCTYPE svg PUBLIC "-//W3C//DTD SVG 1.1//EN" "http://www.w3.org/Graphics/SVG/1.1/DTD/svg11.dtd">
<svg version="1.1" id="Layer_1" xmlns="http://www.w3.org/2000/svg" xmlns:xlink="http://www.w3.org/1999/xlink" x="0px" y="0px"
	 viewBox="0 0 50 50" enable-background="new 0 0 50 50" xml:space="preserve">
<g>
	<g>
		<ellipse fill="#616B77" cx="25" cy="7.6" rx="3.1" ry="3.1"/>
	</g>
	<g>
		<path fill="#FA4968" d="M40,4.1c-1,2.5-2.3,5-4,7.3c-1.4,1.9-3.5,3.8-4.8,4.9c-0.9,0.8-1.5,1.9-1.5,3.1l-0.1,11.7v3l-0.2,12.3
			c0,1-1,1.9-2.2,1.9S25,47.5,25,46.4c0,1-1,1.9-2.2,1.9s-2.2-0.8-2.2-1.9L20.5,34v-3l-0.1-11.7c0-1.2-0.6-2.3-1.5-3.1
			c-1.4-1.1-3.5-3-4.8-4.9c-1.6-2.3-2.9-4.8-4-7.3c-0.8-2,2.1-3.4,3.1-1.4c1.1,2.2,2.5,4.4,4,6.2c1.2,1.4,2.5,2.9,4.1,3.7
			c1.1,0.5,2.4,0.9,3.7,1c1.3-0.2,2.6-0.5,3.7-1c1.6-0.8,2.9-2.3,4.1-3.7c1.6-1.8,2.9-4,4-6.2C37.8,0.7,40.8,2.1,40,4.1z"/>
	</g>
	<g>
		<path fill="#ABB734" d="M36.8,2.7c-1.1,2.2-2.5,4.4-4,6.2c-1.2,1.4-2.5,2.9-4.1,3.7c-1.1,0.5-2.4,0.9-3.7,1
			c-1.3-0.2-2.6-0.5-3.7-1c-1.6-0.8-2.9-2.3-4.1-3.7c-1.6-1.8-2.9-4-4-6.2c-1-1.9-4-0.6-3.1,1.4c1,2.5,2.3,5,4,7.3
			c1.4,1.9,3.5,3.8,4.8,4.9c0.9,0.8,1.5,1.9,1.5,3.1L20.5,30h9.1l0.1-10.6c0-1.2,0.6-2.3,1.5-3.1c1.4-1.1,3.5-3,4.8-4.9
			c1.6-2.3,2.9-4.8,4-7.3C40.8,2.1,37.8,0.7,36.8,2.7z"/>
	</g>
	<g>
		<rect x="24.5" y="33.7" fill="#ED2F58" width="1" height="12.6"/>
	</g>
	<g>
		<path fill="#616B77" d="M14.7,23.1l-0.6,9.5c0,0.8-0.8,1.3-1.5,1.1c-0.6-0.1-1-0.6-0.9-1.2c0-1.7,0-5.3,0.1-7.1L11.6,34v2.5
			l-0.1,10.2c0,0.9-0.8,1.6-1.8,1.6S8,47.6,7.9,46.8c0,0.8-0.8,1.5-1.8,1.5s-1.8-0.7-1.8-1.6L4.1,36.5V34L4,24.4
			c0,0.9,0,5.9,0.1,8.1c0,0.6-0.4,1.1-1,1.2c-0.7,0.2-1.5-0.4-1.5-1.1L1,23.1c0-2,1.6-3.6,3.6-3.5c1,0,5.4,0,6.5,0
			C13.1,19.6,14.7,21.1,14.7,23.1z"/>
	</g>
	<g>
		<circle fill="#616B77" cx="7.8" cy="15" r="2.9"/>
	</g>
	<g>
		<rect x="7.4" y="38.6" fill="#525F70" width="1" height="8.2"/>
	</g>
	<g>
		<path fill="#894D47" d="M49,23.1l-0.6,9.5c0,0.8-0.8,1.3-1.5,1.1c-0.6-0.1-1-0.6-1-1.2c0-1.7,0-5.3,0.1-7.1L45.9,34v2.5l-0.1,10.2
			c0,0.9-0.8,1.6-1.8,1.6s-1.7-0.7-1.8-1.5c0,0.8-0.8,1.5-1.8,1.5s-1.8-0.7-1.8-1.6l-0.1-10.2V34l-0.1-9.6c0,0.9,0,5.9,0.1,8.1
			c0,0.6-0.4,1.1-1,1.2c-0.7,0.2-1.5-0.4-1.5-1.1l-0.6-9.5c0-2,1.6-3.6,3.6-3.5c1,0,5.4,0,6.5,0C47.4,19.6,49,21.1,49,23.1z"/>
	</g>
	<g>
		<path fill="#6E9583" d="M45.4,19.6c-1,0-5.4,0-6.5,0c-2-0.1-3.7,1.5-3.6,3.5l0.6,9.5c0,0.8,0.8,1.3,1.5,1.1c0.6-0.1,1-0.6,1-1.2
			c0-2.2-0.1-7.2-0.1-8.1l0.1,9.6v0.7h7.5V34l0.1-8.6c0,1.8,0,5.4-0.1,7.1c0,0.6,0.4,1.1,1,1.2c0.7,0.2,1.5-0.4,1.5-1.1l0.6-9.5
			C49,21.1,47.4,19.6,45.4,19.6z"/>
	</g>
	<g>
		<path fill="#559AFF" d="M11.1,19.6c-1,0-5.4,0-6.5,0c-2-0.1-3.7,1.5-3.6,3.5l0.6,9.5c0,0.8,0.8,1.3,1.5,1.1c0.6-0.1,1-0.6,1-1.2
			C4,30.4,4,25.3,4,24.4L4.1,34v0.7h7.5V34l0.1-8.6c0,1.8,0,5.4-0.1,7.1c0,0.6,0.4,1.1,0.9,1.2c0.7,0.2,1.5-0.4,1.5-1.1l0.6-9.5
			C14.7,21.1,13.1,19.6,11.1,19.6z"/>
	</g>
	<g>
		<circle fill="#616B77" cx="42.2" cy="15" r="2.9"/>
	</g>
	<g>
		<rect x="41.7" y="37.3" fill="#773D35" width="1" height="9.5"/>
	</g>
	<g>
		<g>
			<rect x="11.2" y="23.7" fill="#3A8BED" width="1" height="8"/>
		</g>
		<g>
			<rect x="3.5" y="23.7" fill="#3A8BED" width="1" height="8"/>
		</g>
	</g>
	<g>
		<g>
			<rect x="45.5" y="23.7" fill="#56826C" width="1" height="8"/>
		</g>
		<g>
			<rect x="37.8" y="23.7" fill="#56826C" width="1" height="8"/>
		</g>
	</g>
</g>
</svg>
