<?xml version="1.0" encoding="utf-8"?>
<!-- Generator: Adobe Illustrator 18.0.0, SVG Export Plug-In . SVG Version: 6.00 Build 0)  -->
<!DOCTYPE svg PUBLIC "-//W3C//DTD SVG 1.1//EN" "http://www.w3.org/Graphics/SVG/1.1/DTD/svg11.dtd">
<svg version="1.1" id="Layer_1" xmlns="http://www.w3.org/2000/svg" xmlns:xlink="http://www.w3.org/1999/xlink" x="0px" y="0px"
	 viewBox="0 0 50 50" enable-background="new 0 0 50 50" xml:space="preserve">
<g>
	<g>
		<path fill="#9B9B1B" d="M33.1,13.4c-1,2-2.3,4-3.7,5.8c-1.4,1.8-3,3.5-4.8,4.6c-0.8,0.4-1,1.4-0.5,2.2c1.4,2,4.1-0.9,5.3-1.7
			c2.9-2.6,5.3-5.5,7.3-8.9C38.1,12.9,34.4,10.9,33.1,13.4L33.1,13.4z"/>
	</g>
	<g>
		<path fill="#6E9583" d="M30.5,46.6c0.2,2.4,3.8,2.3,3.8-0.1c0-4.3-0.1-8.4,1.2-12.5c-0.1,2.9,0.2,5.8,1.1,8.5
			c0.4,1.5,0.8,3,1.3,4.5c0.3,1,1.3,1.5,2.3,1.2c0.9-0.3,1.5-1.2,1.3-2.1c-0.9-4.3-1.9-8.6-1.1-13c0.2-1.5,0.4-3,0.6-4.5l0,0
			c0.8-4.3,1.1-9.1,0.8-14.3c-0.1-2.4-2.1-2.9-4.6-2.7c-2.4,0.1-4.4,0.8-4.2,3.2c0.3,4.6,0,8.8-0.7,12.5c0,0.1-0.1,0.1-0.1,0.2
			c-0.8,3.3-1.5,6.1-2,9.6C30,40.3,30.3,43.4,30.5,46.6z"/>
	</g>
	<g>
		<path fill="#ABB734" d="M40.9,28.6v0.1l-8.8-1.3c0-0.1,0-0.1,0.1-0.2c0.7-3.7,1-7.9,0.7-12.5c-0.1-2.4,1.8-3.1,4.2-3.2
			c2.4-0.1,4.4,0.3,4.6,2.7C42,19.5,41.8,24.3,40.9,28.6L40.9,28.6z"/>
	</g>
	<g>
		<path fill="#425060" d="M37.2,33.1l-0.5-2.6c-0.1-0.3,0-0.6,0.2-0.9s0.4-0.5,0.8-0.5l3.6-0.7c0.7-0.1,1.3,0.3,1.4,0.9l0.5,2.6
			L37.2,33.1z M41.5,29.3C41.5,29.3,41.4,29.3,41.5,29.3L37.9,30c-0.1,0-0.1,0.1-0.1,0.1s0,0.1,0,0.2l0.3,1.6l4-0.8l-0.3-1.6
			C41.7,29.4,41.6,29.3,41.5,29.3z"/>
	</g>
	<g>
		<path fill="#C6CC4A" d="M39.2,13.6c-1.4,0.3-1.8,1.8-0.8,4.7c0.2,1.1,0.3,2.2,0.3,3.3c0.1,2.3,0,4.6-0.6,6.6c-0.3,0.8,0.2,1.7,1,2
			c2.4,0.6,2.5-3.3,2.9-4.8c0.4-3.2,0.4-6.4,0-9.6C41.8,14.4,40.5,13.3,39.2,13.6z"/>
	</g>
	<g>
		<circle fill="#616B77" cx="36.7" cy="5.3" r="3.7"/>
	</g>
	<g>
		<path fill="#ED2F58" d="M16.9,13.4c1,2,2.3,4,3.7,5.8c1.4,1.8,3,3.5,4.8,4.6c0.8,0.4,1,1.4,0.5,2.2c-1.4,2-4.1-0.9-5.3-1.7
			c-2.9-2.6-5.3-5.5-7.3-8.9C11.9,12.9,15.6,10.9,16.9,13.4L16.9,13.4z"/>
	</g>
	<g>
		<path fill="#559AFF" d="M19.6,46.6c-0.2,2.4-3.8,2.3-3.8-0.1c0-4.3,0.1-8.4-1.2-12.5c0.1,2.9-0.2,5.8-1.1,8.5
			c-0.4,1.5-0.8,3-1.3,4.5c-0.3,1-1.3,1.5-2.3,1.2C9,48,8.5,47,8.7,46.1c0.9-4.3,1.9-8.6,1.1-13c-0.2-1.5-0.4-3-0.6-4.5l0,0
			C8.3,24.3,8,19.5,8.3,14.3c0.1-2.4,2.1-2.9,4.6-2.7c2.4,0.1,4.4,0.8,4.2,3.2c-0.3,4.6,0,8.8,0.7,12.5c0,0.1,0.1,0.1,0.1,0.2
			c0.8,3.3,1.5,6.1,2,9.6C20.1,40.3,19.7,43.4,19.6,46.6z"/>
	</g>
	<g>
		<path fill="#FA4968" d="M9.1,28.6v0.1l8.8-1.3c0-0.1,0-0.1-0.1-0.2c-0.7-3.7-1-7.9-0.7-12.5c0.1-2.4-1.8-3.1-4.2-3.2
			c-2.4-0.1-4.4,0.3-4.6,2.7C8,19.5,8.3,24.3,9.1,28.6L9.1,28.6z"/>
	</g>
	<g>
		<path fill="#425060" d="M12.8,33.1l-6-1.2l0.5-2.6c0.1-0.7,0.8-1.1,1.4-0.9l3.6,0.7c0.3,0.1,0.6,0.3,0.8,0.5
			c0.2,0.3,0.2,0.6,0.2,0.9L12.8,33.1z M8,31.1l4,0.8l0.3-1.6c0-0.1,0-0.1,0-0.2L12.2,30l-3.6-0.7c-0.1,0-0.2,0.1-0.3,0.2L8,31.1z"
			/>
	</g>
	<g>
		<path fill="#FF6989" d="M10.8,13.6c1.4,0.3,1.8,1.8,0.8,4.7c-0.2,1.1-0.3,2.2-0.3,3.3c-0.1,2.3,0,4.6,0.6,6.6c0.3,0.8-0.2,1.7-1,2
			c-2.4,0.6-2.5-3.3-2.9-4.8c-0.4-3.2-0.4-6.4,0-9.6C8.2,14.4,9.4,13.3,10.8,13.6z"/>
	</g>
	<g>
		<circle fill="#616B77" cx="13.4" cy="5.3" r="3.7"/>
	</g>
	<g>
		<path fill="#525F70" d="M45.3,30.4L35,32.5c-1.1,0.2-1.9,1.3-1.6,2.5l1.2,5.9c0.2,1.1,1.3,1.9,2.5,1.6l10.3-2.1
			c1.1-0.2,1.9-1.3,1.6-2.5L47.7,32C47.5,30.9,46.4,30.2,45.3,30.4z"/>
	</g>
	<g>
		<path fill="#616B77" d="M45.4,30.3l-10.7,2.2c-1,0.2-1.7,1.2-1.5,2.3l0.2,0.9c0.2,1,1.2,1.7,2.3,1.5L46.4,35
			c1-0.2,1.7-1.2,1.5-2.3l-0.2-0.9C47.5,30.8,46.5,30.1,45.4,30.3z"/>
	</g>
	<g>
		<path fill="#FFFFFF" d="M41.5,34.7L40.2,35c-0.3,0.1-0.6,0.4-0.5,0.7l0.4,1.7c0.1,0.3,0.4,0.6,0.7,0.5l1.3-0.3
			c0.3-0.1,0.6-0.4,0.5-0.7l-0.4-1.7C42.1,34.8,41.8,34.6,41.5,34.7z"/>
	</g>
	<g>
		<path fill="#F9A846" d="M4.7,30.4L15,32.5c1.1,0.2,1.9,1.3,1.6,2.5l-1.2,5.9c-0.2,1.1-1.3,1.9-2.5,1.6L2.7,40.4
			C1.5,40.1,0.8,39,1,37.9L2.3,32C2.5,30.9,3.6,30.2,4.7,30.4z"/>
	</g>
	<g>
		<path fill="#FFB95C" d="M4.6,30.3l10.7,2.2c1,0.2,1.7,1.2,1.5,2.3l-0.2,0.9c-0.2,1-1.2,1.7-2.3,1.5L3.6,35c-1-0.2-1.7-1.2-1.5-2.3
			l0.2-0.9C2.5,30.8,3.5,30.1,4.6,30.3z"/>
	</g>
	<g>
		<path fill="#FFFFFF" d="M8.5,34.7L9.8,35c0.3,0.1,0.6,0.4,0.5,0.7L10,37.4c-0.1,0.3-0.4,0.6-0.7,0.5L8,37.6
			c-0.3-0.1-0.6-0.4-0.5-0.7l0.4-1.7C7.9,34.8,8.2,34.6,8.5,34.7z"/>
	</g>
</g>
</svg>
