<?xml version="1.0" encoding="utf-8"?>
<!-- Generator: Adobe Illustrator 18.0.0, SVG Export Plug-In . SVG Version: 6.00 Build 0)  -->
<!DOCTYPE svg PUBLIC "-//W3C//DTD SVG 1.1//EN" "http://www.w3.org/Graphics/SVG/1.1/DTD/svg11.dtd">
<svg version="1.1" id="Layer_1" xmlns="http://www.w3.org/2000/svg" xmlns:xlink="http://www.w3.org/1999/xlink" x="0px" y="0px"
	 viewBox="0 0 50 50" enable-background="new 0 0 50 50" xml:space="preserve">
<g>
	<g>
		<path fill="#FECD04" d="M19.5,29.6h10.9c0.6-1.8,1.5-3.4,2.8-4.7c2.3-2.4,3.5-5.8,3-9.5c-0.7-5-4.8-9-9.9-9.6
			C19.5,5,13.7,10.4,13.7,17.1c0,2.9,1.1,5.6,2.9,7.6C17.9,26.1,18.9,27.8,19.5,29.6z"/>
	</g>
	<g>
		<path fill="#FFD731" d="M17.1,14.1l-0.9-0.4c0.8-2,2.2-3.7,4.1-4.8l0.5,0.9C19.1,10.7,17.8,12.3,17.1,14.1z"/>
	</g>
	<g>
		<path fill="#FFD731" d="M22.5,9l-0.3-1c0.4-0.1,0.9-0.2,1.3-0.3l0.2,1C23.3,8.8,22.9,8.9,22.5,9z"/>
	</g>
	<g>
		<path fill="#FFFFFF" d="M27.2,29.6h-1V19h-2.5v10.2h-1V19h-1.2c-1.2,0-2.2-1-2.2-2.2s1-2.2,2.2-2.2s2.2,1,2.2,2.2V18h2.5v-1.2
			c0-1.2,1-2.2,2.2-2.2s2.2,1,2.2,2.2s-1,2.2-2.2,2.2h-1.2V29.6z M27.2,18h1.2c0.6,0,1.2-0.5,1.2-1.2c0-0.6-0.5-1.2-1.2-1.2
			c-0.6,0-1.2,0.5-1.2,1.2V18z M21.6,15.7c-0.6,0-1.2,0.5-1.2,1.2c0,0.6,0.5,1.2,1.2,1.2h1.2v-1.2C22.8,16.2,22.3,15.7,21.6,15.7z"
			/>
	</g>
	<g>
		<g>
			<g>
				<rect x="39.3" y="16.6" fill="#FFD731" width="1.8" height="1"/>
			</g>
			<g>
				<rect x="8.9" y="16.6" fill="#FFD731" width="1.8" height="1"/>
			</g>
		</g>
		<g>
			<g>
				<rect x="24.5" y="1" fill="#FFD731" width="1" height="1.8"/>
			</g>
		</g>
	</g>
	<g>
		<g>
			<g>
				<rect x="39.3" y="16.6" fill="#FFD731" width="1.8" height="1"/>
			</g>
			<g>
				<rect x="8.9" y="16.6" fill="#FFD731" width="1.8" height="1"/>
			</g>
		</g>
		<g>
			<g>
				<rect x="24.5" y="1" fill="#FFD731" width="1" height="1.8"/>
			</g>
		</g>
	</g>
	<g>
		<g>
			<g>
				
					<rect x="13.4" y="5.8" transform="matrix(-0.7071 -0.7071 0.7071 -0.7071 19.9502 20.9472)" fill="#FFD731" width="1.8" height="1"/>
			</g>
		</g>
		<g>
			<g>
				
					<rect x="35.2" y="5.5" transform="matrix(-0.7071 -0.7072 0.7072 -0.7071 56.3981 36.0678)" fill="#FFD731" width="1" height="1.8"/>
			</g>
		</g>
	</g>
	<g>
		<g>
			<g>
				
					<rect x="38.5" y="10.3" transform="matrix(-0.3828 -0.9238 0.9238 -0.3828 43.5341 51.5709)" fill="#FFD731" width="1" height="1.8"/>
			</g>
			<g>
				
					<rect x="10.5" y="22" transform="matrix(-0.3829 -0.9238 0.9238 -0.3829 -6.01 41.851)" fill="#FFD731" width="1" height="1.8"/>
			</g>
		</g>
		<g>
			<g>
				
					<rect x="18.3" y="2.5" transform="matrix(-0.3826 -0.9239 0.9239 -0.3826 23.7792 21.9704)" fill="#FFD731" width="1.8" height="1"/>
			</g>
		</g>
	</g>
	<g>
		<g>
			<g>
				
					<rect x="38.5" y="10.3" transform="matrix(-0.3828 -0.9238 0.9238 -0.3828 43.5341 51.5709)" fill="#FFD731" width="1" height="1.8"/>
			</g>
			<g>
				
					<rect x="10.5" y="22" transform="matrix(-0.3829 -0.9238 0.9238 -0.3829 -6.01 41.851)" fill="#FFD731" width="1" height="1.8"/>
			</g>
		</g>
		<g>
			<g>
				
					<rect x="18.3" y="2.5" transform="matrix(-0.3826 -0.9239 0.9239 -0.3826 23.7792 21.9704)" fill="#FFD731" width="1.8" height="1"/>
			</g>
		</g>
	</g>
	<g>
		<g>
			<g>
				
					<rect x="38.2" y="22.4" transform="matrix(-0.9239 -0.3826 0.3826 -0.9239 66.4451 59.0574)" fill="#FFD731" width="1.8" height="1"/>
			</g>
			<g>
				
					<rect x="10.1" y="10.8" transform="matrix(-0.9239 -0.3826 0.3826 -0.9239 16.8064 25.965)" fill="#FFD731" width="1.8" height="1"/>
			</g>
		</g>
		<g>
			<g>
				
					<rect x="30.3" y="2.2" transform="matrix(-0.9238 -0.3828 0.3828 -0.9238 58.03 17.7265)" fill="#FFD731" width="1" height="1.8"/>
			</g>
		</g>
	</g>
	<g>
		<path fill="#ED2F58" d="M30.5,29.6h-11v7.8c0,2.7,0.9,5.3,2.4,7.5l3,4.1l3-4.1c1.6-2.2,2.4-4.8,2.4-7.5v-7.8H30.5z"/>
	</g>
	<g>
		<path fill="#FF6989" d="M25,29.6h-5.4v7.8c0,2.7,0.9,5.3,2.4,7.5l3,4.1V29.6z"/>
	</g>
	<g>
		<path fill="#FA4968" d="M27.5,29.6h-5v9.8c0,1.4,0.2,2.7,0.7,4.1L25,49l1.9-5.5c0.4-1.3,0.7-2.7,0.7-4.1v-9.8H27.5z"/>
	</g>
	<g>
		<rect x="19.5" y="29.6" fill="#FFB95C" width="10.9" height="3"/>
	</g>
	<g>
		<polygon fill="#616B77" points="22.2,45.1 25,49 27.8,45.1 		"/>
	</g>
</g>
</svg>
