<?xml version="1.0" encoding="utf-8"?>
<!-- Generator: Adobe Illustrator 18.0.0, SVG Export Plug-In . SVG Version: 6.00 Build 0)  -->
<!DOCTYPE svg PUBLIC "-//W3C//DTD SVG 1.1//EN" "http://www.w3.org/Graphics/SVG/1.1/DTD/svg11.dtd">
<svg version="1.1" id="Layer_1" xmlns="http://www.w3.org/2000/svg" xmlns:xlink="http://www.w3.org/1999/xlink" x="0px" y="0px"
	 viewBox="0 0 50 50" enable-background="new 0 0 50 50" xml:space="preserve">
<g>
	<g>
		<g>
			<path fill="#894D47" d="M31.7,29c-0.4,5.4-4.8,7.4-10.1,7.4s-9.8-2-10.1-7.4c-0.1-1.5-1.1-15.9-1.2-17.7C9.7,4,14.9,1,21.5,1
				s11.8,3,11.3,10.3C32.8,13.1,31.8,27.5,31.7,29z"/>
		</g>
		<g>
			<path fill="#E5E5E5" d="M27.1,41c3.8,0,7-3,7-6.7c0,0,0,0,0-0.1c0-6.9-5.6-8-12.6-8c-6.9,0-12.6,1.2-12.6,8c0,0,0,0,0,0.1
				c0,3.7,3.2,6.7,7,6.7H27.1z"/>
		</g>
		<g>
			<path fill="#559AFF" d="M34.1,34.2L34.1,34.2c0,3.8-3.2,6.8-7,6.8H15.9c-3.8,0-7-3-7-6.7v-0.1c0-6.9,5.6-8,12.6-8
				c1,0,2.1,0,3,0.1c1.1,0.1,2.1,0.2,3,0.4C31.4,27.5,34.1,29.5,34.1,34.2z"/>
		</g>
		<g>
			<path fill="#D9BAA8" d="M19.2,19.3c0,0-0.6,7-0.6,7.6c0,1.6,1.3,2.9,2.9,2.9s2.9-1.3,2.9-2.9c0-0.7-0.6-7.6-0.6-7.6H19.2z"/>
		</g>
		<g>
			<path fill="#C9A28F" d="M30.3,16.4c-0.4,1.3-1.3,2-2.8,1.6s-2.9-1.9-2.5-3.2s3-1.9,4.4-1.4C30.9,13.8,30.7,15.1,30.3,16.4z"/>
		</g>
		<g>
			<path fill="#C9A28F" d="M12.7,16.4c0.4,1.3,1.3,2,2.8,1.6s2.9-1.9,2.5-3.2s-3-1.9-4.4-1.4C12.1,13.8,12.3,15.1,12.7,16.4z"/>
		</g>
		<g>
			<path fill="#E8CEC1" d="M28.9,12.4c0,5.3-2.1,11.9-7.4,11.9s-7.4-6.7-7.4-11.9c0-0.8,0-1.5,0.1-2.1c2.4,0,4.4-1.3,5-3
				c1.1,1.9,3.6,3.2,6.4,3.2c1.1,0,2.1-0.2,3.1-0.5C28.8,10.7,28.9,11.5,28.9,12.4z"/>
		</g>
		<g>
			<rect x="23.4" y="13" fill="#425060" width="1.9" height="1"/>
		</g>
		<g>
			<circle fill="#616B77" cx="24.1" cy="15" r="0.5"/>
		</g>
		<g>
			<path fill="#E5E5E5" d="M20.5,17.8c0.6,0.4,1.2,0.4,1.9,0"/>
			<path fill="#C9A28F" d="M21.5,18.7c-0.4,0-0.8-0.1-1.2-0.4l0.6-0.8c0.4,0.3,0.9,0.3,1.4,0l0.5,0.8C22.3,18.5,21.9,18.7,21.5,18.7
				z"/>
		</g>
		<g>
			<rect x="17.7" y="13" fill="#425060" width="1.9" height="1"/>
		</g>
		<g>
			<circle fill="#616B77" cx="18.9" cy="15" r="0.5"/>
		</g>
		<g>
			<path fill="#425060" d="M21.5,21.8c-1.1,0-2.1-0.5-2.8-1.3l0.8-0.6c1,1.2,3.1,1.2,4.1,0l0.8,0.6C23.6,21.3,22.6,21.8,21.5,21.8z"
				/>
		</g>
		<g opacity="0.2">
			<circle fill="#FFFFFF" cx="25.3" cy="18.3" r="0.8"/>
		</g>
		<g opacity="0.2">
			<circle fill="#FFFFFF" cx="18.3" cy="18.3" r="0.8"/>
		</g>
	</g>
	<g>
		<rect x="5.4" y="34.7" fill="#D9BAA8" width="39.1" height="2.4"/>
	</g>
	<g>
		<polygon fill="#C9A28F" points="41.4,49 43.2,37 6.8,37 8.6,49 		"/>
	</g>
	<g>
		<path fill="#FA4968" d="M41.1,32h-3.5c-0.7,0-1.3,0.6-1.3,1.3v1.5h6v-1.5C42.4,32.5,41.8,32,41.1,32z"/>
	</g>
	<g>
		<path fill="#FECD04" d="M40.2,30.1h-1.7c-0.7,0-1.3,0.6-1.3,1.3V32h4.2v-0.6C41.4,30.7,40.9,30.1,40.2,30.1z"/>
	</g>
	<g>
		<rect x="38.8" y="28.2" fill="#425060" width="1" height="1.9"/>
	</g>
	<g>
		<rect x="38.4" y="27.7" fill="#425060" width="1.9" height="1"/>
	</g>
</g>
</svg>
