<?xml version="1.0" encoding="utf-8"?>
<!-- Generator: Adobe Illustrator 18.0.0, SVG Export Plug-In . SVG Version: 6.00 Build 0)  -->
<!DOCTYPE svg PUBLIC "-//W3C//DTD SVG 1.1//EN" "http://www.w3.org/Graphics/SVG/1.1/DTD/svg11.dtd">
<svg version="1.1" id="Layer_1" xmlns="http://www.w3.org/2000/svg" xmlns:xlink="http://www.w3.org/1999/xlink" x="0px" y="0px"
	 viewBox="0 0 50 50" enable-background="new 0 0 50 50" xml:space="preserve">
<g>
	<g>
		<path fill="#E8CEC1" d="M35.8,35.4c-5.9,5.9-15.4,5.9-21.2,0c-5.9-5.9-5.8-15.4,0-21.3c5.9-5.9,15.4-5.9,21.2,0
			C41.7,20,41.7,29.6,35.8,35.4z"/>
	</g>
	<g>
		<path fill="#F4F4F4" d="M42,18.4L31.6,8l2.6-5c1-2,3.7-2.4,5.3-0.8l8.3,8.3c1.6,1.6,1.2,4.3-0.8,5.3L42,18.4z"/>
	</g>
	<g>
		<path fill="#F4F4F4" d="M8,31.6L18.4,42l-2.6,5c-1,2-3.7,2.4-5.3,0.8l-8.3-8.3C0.6,37.9,1,35.3,3,34.2L8,31.6z"/>
	</g>
	<g>
		<path fill="#FA4968" d="M37.2,20.7c3.3-2.2,4.1-6.7,1.4-9.3c-2.7-2.7-7.2-1.8-9.4,1.5c-0.5,0.7-1.5,0.9-2.2,0.4
			c-1.8-1.2,0.6-4.6,1.7-5.8c5.3-5.3,14.4-2.7,16.2,4.4c1.4,4.8-1.7,10.6-6.7,11.7C36.6,23.9,35.7,21.6,37.2,20.7L37.2,20.7z"/>
	</g>
	<g>
		<path fill="#616B77" d="M40.6,14.8c-1.5,1.5-3.9,1.5-5.4,0.1c-1.5-1.5-1.4-3.9,0.1-5.4s3.9-1.5,5.4-0.1S42.1,13.2,40.6,14.8z"/>
	</g>
	<g>
		<path fill="#ABB734" d="M13.1,29c-3.3,2.2-4.1,6.7-1.4,9.3c2.7,2.7,7.2,1.8,9.4-1.5c0.5-0.7,1.5-0.9,2.2-0.4
			c1.8,1.2-0.6,4.6-1.7,5.8c-5.3,5.3-14.4,2.7-16.2-4.4C4,33,7.1,27.2,12,26.1C13.8,25.7,14.6,28.1,13.1,29L13.1,29z"/>
	</g>
	<g>
		<path fill="#616B77" d="M9.8,34.9c1.5-1.5,3.9-1.5,5.4-0.1c1.5,1.5,1.4,3.9-0.1,5.4s-3.9,1.5-5.4,0.1C8.3,38.8,8.3,36.4,9.8,34.9z
			"/>
	</g>
	<g>
		<g>
			<path fill="#F4F4F4" d="M31.8,42.2l10.4-10.4l5,2.6c2,1,2.4,3.7,0.8,5.3L39.6,48c-1.6,1.6-4.3,1.2-5.3-0.8L31.8,42.2z"/>
		</g>
		<g>
			<path fill="#F4F4F4" d="M18.2,7.8L7.8,18.2l-5-2.6c-2-1-2.4-3.7-0.8-5.3L10.4,2c1.6-1.6,4.3-1.2,5.3,0.8L18.2,7.8z"/>
		</g>
	</g>
	<g>
		<path fill="#FECD04" d="M29.3,36.9c2.2,3.3,6.6,4,9.3,1.4c2.7-2.7,1.9-7.2-1.5-9.4c-0.7-0.5-0.9-1.5-0.4-2.2
			c1.3-1.8,4.6,0.5,5.7,1.7c5.3,5.3,2.7,14.4-4.4,16.2C33.3,46,27.5,43,26.4,38C26.1,36.2,28.4,35.4,29.3,36.9L29.3,36.9z"/>
	</g>
	<g>
		<path fill="#616B77" d="M35.2,40.2c-1.5-1.5-1.5-3.9-0.1-5.4c1.5-1.5,3.9-1.5,5.4,0.1c1.5,1.5,1.5,3.9,0.1,5.4
			C39.1,41.7,36.7,41.7,35.2,40.2z"/>
	</g>
	<g>
		<path fill="#6CD8D5" d="M21.1,12.7c-2.2-3.3-6.6-4-9.3-1.4c-2.7,2.7-1.9,7.2,1.5,9.4c0.7,0.5,0.9,1.5,0.4,2.2
			c-1.3,1.8-4.6-0.5-5.7-1.7C2.6,16,5.3,6.8,12.3,5c4.8-1.4,10.5,1.7,11.6,6.6C24.3,13.4,22,14.3,21.1,12.7L21.1,12.7z"/>
	</g>
	<g>
		<path fill="#616B77" d="M15.2,9.4c1.5,1.5,1.5,3.9,0.1,5.4c-1.5,1.5-3.9,1.5-5.4-0.1c-1.5-1.5-1.5-3.9-0.1-5.4
			C11.3,7.9,13.7,7.9,15.2,9.4z"/>
	</g>
	<g>
		<g>
			<g>
				<path fill="#559AFF" d="M26.7,19.3v3.8c0,0.9-0.7,1.6-1.6,1.6h-6.2l-3,2.1v-7.5c0-0.9,0.7-1.6,1.6-1.6h7.6
					C26,17.7,26.7,18.4,26.7,19.3z"/>
			</g>
			<g>
				<g>
					<rect x="18.8" y="19.8" fill="#FFFFFF" width="5.1" height="1"/>
				</g>
				<g>
					<rect x="18.8" y="21.6" fill="#FFFFFF" width="2.8" height="1"/>
				</g>
			</g>
		</g>
		<g>
			<g>
				<path fill="#FF8C83" d="M23.3,24.4v3.8c0,0.9,0.7,1.6,1.6,1.6h6.2l3,2.1v-7.5c0-0.9-0.7-1.6-1.6-1.6h-7.6
					C24,22.8,23.3,23.5,23.3,24.4z"/>
			</g>
			<g>
				<g>
					<rect x="26.1" y="24.9" fill="#FFFFFF" width="5.1" height="1"/>
				</g>
				<g>
					<rect x="28.4" y="26.7" fill="#FFFFFF" width="2.8" height="1"/>
				</g>
			</g>
		</g>
	</g>
</g>
</svg>
