<?xml version="1.0" encoding="utf-8"?>
<!-- Generator: Adobe Illustrator 18.0.0, SVG Export Plug-In . SVG Version: 6.00 Build 0)  -->
<!DOCTYPE svg PUBLIC "-//W3C//DTD SVG 1.1//EN" "http://www.w3.org/Graphics/SVG/1.1/DTD/svg11.dtd">
<svg version="1.1" id="Layer_1" xmlns="http://www.w3.org/2000/svg" xmlns:xlink="http://www.w3.org/1999/xlink" x="0px" y="0px"
	 viewBox="0 0 50 50" enable-background="new 0 0 50 50" xml:space="preserve">
<g>
	<g>
		<path fill="#525F70" d="M25,12.7c-3.2,0-5.8-2.6-5.8-5.8C19.2,3.6,21.8,1,25,1s5.8,2.6,5.8,5.8S28.2,12.7,25,12.7z M25,2
			c-2.6,0-4.8,2.2-4.8,4.8c0,2.7,2.2,4.8,4.8,4.8s4.8-2.2,4.8-4.8S27.6,2,25,2z"/>
	</g>
	<g>
		<g>
			<path fill="#425060" d="M34.7,21.2l-3.3-2.6l5-6.2c0.4-0.5,1.2-0.6,1.7-0.2l1.4,1.1c0.5,0.4,0.6,1.2,0.2,1.7L34.7,21.2z"/>
		</g>
		<g>
			<path fill="#425060" d="M15.3,21.2l3.3-2.6l-5-6.2c-0.4-0.5-1.2-0.6-1.7-0.2l-1.4,1.1c-0.5,0.4-0.6,1.2-0.2,1.7L15.3,21.2z"/>
		</g>
	</g>
	<g>
		<g>
			<rect x="23.4" y="7.8" fill="#425060" width="3.3" height="6.8"/>
		</g>
		<g>
			<rect x="21.7" y="6.4" fill="#616B77" width="6.6" height="2.1"/>
		</g>
	</g>
	<g>
		<ellipse fill="#525F70" cx="25" cy="30.3" rx="18.6" ry="18.7"/>
	</g>
	<g>
		<ellipse fill="#DDEDEB" cx="25" cy="30.3" rx="15.4" ry="15.4"/>
	</g>
	<g>
		<path fill="#FF6989" d="M36.9,33.1c-0.3,1.3-0.8,2.6-1.5,3.7c-1.4-0.5-2.7-0.3-3.5,0.5s-0.9,2.1-0.5,3.5c-1.1,0.7-2.3,1.2-3.6,1.5
			c-0.6-1.3-1.6-2.2-2.8-2.2c-1.1,0-2.2,0.9-2.8,2.2c-1.3-0.3-2.5-0.8-3.6-1.5c0.5-1.4,0.3-2.7-0.5-3.5s-2.1-1-3.5-0.5
			c-0.7-1.1-1.2-2.4-1.5-3.7c1.3-0.6,2.1-1.7,2.1-2.8c0-1.2-0.8-2.2-2.1-2.8c0.3-1.3,0.8-2.6,1.5-3.7c1.3,0.5,2.7,0.3,3.5-0.5
			s0.9-2.2,0.5-3.5c1.1-0.7,2.3-1.2,3.6-1.5c0.6,1.3,1.6,2.1,2.8,2.1c1.1,0,2.2-0.8,2.8-2.1c1.3,0.3,2.5,0.8,3.6,1.5
			c-0.5,1.4-0.3,2.7,0.5,3.5s2.1,0.9,3.5,0.5c0.7,1.1,1.2,2.4,1.5,3.7c-1.3,0.6-2.1,1.6-2.1,2.8C34.8,31.5,35.6,32.5,36.9,33.1z"/>
	</g>
	<g>
		<path fill="#425060" d="M26.7,30.2c0,0.9-0.7,1.6-1.7,1.6c-0.9,0-1.7-0.7-1.7-1.6S24.1,23,25,23S26.7,29.3,26.7,30.2z"/>
	</g>
	<g>
		<ellipse fill="#DDEDEB" cx="25" cy="30.4" rx="3" ry="2.9"/>
	</g>
</g>
</svg>
