<?xml version="1.0" encoding="utf-8"?>
<!-- Generator: Adobe Illustrator 18.0.0, SVG Export Plug-In . SVG Version: 6.00 Build 0)  -->
<!DOCTYPE svg PUBLIC "-//W3C//DTD SVG 1.1//EN" "http://www.w3.org/Graphics/SVG/1.1/DTD/svg11.dtd">
<svg version="1.1" id="Layer_1" xmlns="http://www.w3.org/2000/svg" xmlns:xlink="http://www.w3.org/1999/xlink" x="0px" y="0px"
	 viewBox="0 0 50 50" enable-background="new 0 0 50 50" xml:space="preserve">
<g>
	<g>
		<path fill="#425060" d="M17.3,31.3h-5.1v-2c0-0.7,0.6-1.3,1.3-1.3H16c0.7,0,1.3,0.6,1.3,1.3V31.3z M13.2,30.3h3v-1
			c0-0.1-0.1-0.2-0.2-0.2h-2.5c-0.1,0-0.2,0.1-0.2,0.2v1H13.2z"/>
	</g>
	<g>
		<circle fill="#FFB95C" cx="39.5" cy="35.4" r="7"/>
	</g>
	<g>
		<circle fill="#ABB734" cx="14" cy="9.9" r="7"/>
	</g>
	<g>
		<path fill="#FA4968" d="M19,38.4h-8.6c-0.9,0-1.6-0.7-1.6-1.6v-5c0-0.9,0.7-1.6,1.6-1.6H19c0.9,0,1.6,0.7,1.6,1.6v5
			C20.5,37.7,19.8,38.4,19,38.4z"/>
	</g>
	<g>
		<path fill="#9B9B1B" d="M20.6,31.8v5.1c0,0.8-0.7,1.5-1.5,1.5h-8.7c-0.8,0-1.5-0.7-1.5-1.5v-5.1c0-0.8,0.7-1.5,1.5-1.5H19
			C19.9,30.3,20.6,30.9,20.6,31.8z"/>
	</g>
	<g>
		<path fill="#C6CC4A" d="M20.6,31.8v0.8c0,0.8-0.7,1.5-1.5,1.5h-8.7c-0.8,0-1.5-0.7-1.5-1.5v-0.8c0-0.8,0.7-1.5,1.5-1.5H19
			C19.9,30.3,20.6,30.9,20.6,31.8z"/>
	</g>
	<g>
		<path fill="#FFFFFF" d="M15.3,35.4h-1.1c-0.3,0-0.5-0.2-0.5-0.5v-1.5c0-0.3,0.2-0.5,0.5-0.5h1.1c0.3,0,0.5,0.2,0.5,0.5v1.5
			C15.7,35.2,15.5,35.4,15.3,35.4z"/>
	</g>
	<g>
		<path fill="#559AFF" d="M26.8,34c0-1.5,1-2.7,2.6-3.5c-0.4-1.7-1-3.2-1.9-4.6c-1.7,0.6-3.3,0.4-4.3-0.6s-1.2-2.7-0.6-4.4
			c-1.4-0.9-2.9-1.5-4.5-1.9c-0.8,1.6-2,2.7-3.5,2.7S12,20.6,11.2,19c-1.6,0.4-3.2,1-4.5,1.9c0.6,1.7,0.4,3.4-0.6,4.4
			s-2.6,1.2-4.3,0.6c-0.9,1.4-1.5,3-1.9,4.6c1.6,0.8,2.6,2.1,2.6,3.5s-1,2.7-2.6,3.5c0.4,1.6,1,3.2,1.9,4.6c1.7-0.6,3.3-0.4,4.3,0.6
			s1.2,2.7,0.6,4.4c1.4,0.9,2.9,1.5,4.5,1.9c0.8-1.6,2-2.7,3.5-2.7c1.4,0,2.7,1.1,3.5,2.7c1.6-0.4,3.2-1,4.5-1.9
			c-0.6-1.7-0.4-3.3,0.6-4.4c1-1,2.6-1.2,4.3-0.6c0.9-1.4,1.5-3,1.9-4.6C27.9,36.7,26.8,35.4,26.8,34z M14.7,43c-4.9,0-8.8-4-8.8-9
			c0-4.9,4-9,8.8-9c4.9,0,8.8,4,8.8,9C23.5,38.9,19.6,43,14.7,43z"/>
	</g>
	<g>
		<path fill="#FA4968" d="M45.4,14.3c0,2.7-1.1,5-2.8,6.8c-1.7,1.7-4.1,2.8-6.8,2.8c-2.1,0-4-0.6-5.5-1.7l-4.1,1.7l1.8-4.1
			c-1.1-1.6-1.8-3.5-1.8-5.5c0-2.7,1.1-5,2.8-6.8c1.7-1.7,4.1-2.8,6.8-2.8s5.1,1.1,6.8,2.8C44.3,9.2,45.4,11.6,45.4,14.3z"/>
	</g>
	<g opacity="0.3">
		<path fill="#FFFFFF" d="M29.8,10.9l-0.9-0.5c0.4-0.6,0.8-1.2,1.3-1.7c0.9-0.9,2-1.6,3.2-2l0.3,1c-1.1,0.3-2,0.9-2.8,1.7
			C30.4,9.8,30.1,10.3,29.8,10.9z"/>
	</g>
	<g opacity="0.3">
		<path fill="#FFFFFF" d="M36.4,7.4c-0.4,0-0.7,0-1.1,0l-0.1-1.1c0.4,0,0.9,0,1.3,0L36.4,7.4z"/>
	</g>
	<g>
		<polygon fill="#FFB95C" points="32.7,11.1 29.7,14.1 36,20.3 47.9,8.4 44.9,5.5 36,14.4 		"/>
	</g>
	<g opacity="0.3">
		<g>
			
				<rect x="42.2" y="8.2" transform="matrix(-0.7061 -0.7081 0.7081 -0.7061 65.6182 47.9162)" fill="#FFFFFF" width="1.1" height="4.3"/>
		</g>
		<g>
			
				<rect x="38.9" y="13.2" transform="matrix(-0.7066 -0.7076 0.7076 -0.7066 57.7614 51.1766)" fill="#FFFFFF" width="1.1" height="0.8"/>
		</g>
	</g>
	<g>
		<polygon fill="#ABB734" points="37.4,31.5 34.9,34 40.1,39.2 50.1,29.3 47.6,26.8 40.1,34.2 		"/>
	</g>
	<g opacity="0.3">
		<g>
			
				<rect x="45.3" y="29.1" transform="matrix(-0.7066 -0.7076 0.7076 -0.7066 56.3 85.2198)" fill="#FFFFFF" width="1.1" height="3.6"/>
		</g>
		<g>
			
				<rect x="42.5" y="33.3" transform="matrix(-0.7066 -0.7076 0.7076 -0.7066 49.6156 87.8908)" fill="#FFFFFF" width="1.1" height="0.7"/>
		</g>
	</g>
	<g>
		<polygon fill="#6CD8D5" points="12.1,5.7 9.6,8.2 14.8,13.4 24.7,3.5 22.3,1 14.8,8.4 		"/>
	</g>
	<g opacity="0.3">
		<g>
			
				<rect x="19.9" y="3.3" transform="matrix(-0.7061 -0.7081 0.7081 -0.7061 31.2692 23.1476)" fill="#FFFFFF" width="1.1" height="3.6"/>
		</g>
		<g>
			
				<rect x="17.2" y="7.5" transform="matrix(-0.7066 -0.7076 0.7076 -0.7066 24.6736 25.9828)" fill="#FFFFFF" width="1.1" height="0.7"/>
		</g>
	</g>
</g>
</svg>
