<?xml version="1.0" encoding="utf-8"?>
<!-- Generator: Adobe Illustrator 18.0.0, SVG Export Plug-In . SVG Version: 6.00 Build 0)  -->
<!DOCTYPE svg PUBLIC "-//W3C//DTD SVG 1.1//EN" "http://www.w3.org/Graphics/SVG/1.1/DTD/svg11.dtd">
<svg version="1.1" id="Layer_1" xmlns="http://www.w3.org/2000/svg" xmlns:xlink="http://www.w3.org/1999/xlink" x="0px" y="0px"
	 viewBox="0 0 50 50" enable-background="new 0 0 50 50" xml:space="preserve">
<g>
	<g>
		<g>
			<g>
				<path fill="#E5E5E5" d="M15.3,30.7c3,0,5.5-2.3,5.5-5.2l0,0c0-5.4-4.4-6.3-9.9-6.3S1,20.1,1,25.5l0,0c0,2.9,2.5,5.2,5.5,5.2
					H15.3z"/>
			</g>
			<g>
				<path fill="#616B77" d="M20.8,25.4L20.8,25.4c0,3-2.5,5.3-5.5,5.3H6.5c-3,0-5.5-2.3-5.5-5.2l0,0c0-5.4,4.4-6.3,9.9-6.3
					c0.8,0,1.6,0,2.4,0.1c0.8,0.1,1.6,0.2,2.4,0.3C18.7,20.2,20.8,21.8,20.8,25.4z"/>
			</g>
			<g>
				<path fill="#D9BAA8" d="M9.1,13.8c0,0-0.5,5.4-0.5,5.9c0,1.2,1,2.3,2.3,2.3s2.3-1,2.3-2.3c0-0.5-0.5-5.9-0.5-5.9
					S9.1,13.8,9.1,13.8z"/>
			</g>
			<g>
				<path fill="#C9A28F" d="M18.5,11.5c-0.3,1-1,1.6-2.2,1.2c-1.1-0.4-2.3-1.5-2-2.5s2.4-1.5,3.5-1.1C19,9.5,18.8,10.5,18.5,11.5z"
					/>
			</g>
			<g>
				<path fill="#C9A28F" d="M3.3,11.5c0.3,1,1,1.6,2.2,1.2c1.1-0.4,2.3-1.5,2-2.5S5.1,8.8,4,9.2C2.8,9.5,3,10.5,3.3,11.5z"/>
			</g>
			<g>
				<path fill="#E8CEC1" d="M16.8,8.4c0,4.1-1.6,9.3-5.8,9.3s-5.8-5.2-5.8-9.3S6.8,2.8,11,2.8C15.1,2.9,16.8,4.3,16.8,8.4z"/>
			</g>
			<g>
				<path fill="#894D47" d="M2.1,7c3.8-1.1,3.1-8.1,6.7-5C11.2,4,6.2,10.3,2.1,7z"/>
			</g>
			<g>
				<path fill="#894D47" d="M17,8.8C14.2,4.6,6.5,8.4,8.5,2.5C9.8-1.2,19,2.3,17,8.8z"/>
			</g>
			<g>
				<polygon fill="#559AFF" points="10.1,22 9.1,27.7 10.8,28.9 12.6,27.7 11.5,22 				"/>
			</g>
			<g>
				<path fill="#DDEDEB" d="M15.7,19.6l-2.4,4.3L10.9,22l2.4-2.8C14.1,19.3,14.9,19.4,15.7,19.6z"/>
			</g>
			<g>
				<path fill="#DDEDEB" d="M6.2,19.6l2.4,4.3l2.3-1.8l-2.4-2.8C7.7,19.3,6.9,19.4,6.2,19.6z"/>
			</g>
		</g>
		<g>
			<g>
				<path fill="#E5E5E5" d="M43.5,49c3,0,5.5-2.3,5.5-5.2l0,0c0-5.4-4.4-6.3-9.9-6.3s-9.9,0.9-9.9,6.3l0,0c0,2.9,2.5,5.2,5.5,5.2
					H43.5z"/>
			</g>
			<g>
				<path fill="#616B77" d="M49,43.7L49,43.7c0,3-2.5,5.3-5.5,5.3h-8.8c-3,0-5.5-2.3-5.5-5.2l0,0c0-5.4,4.4-6.3,9.9-6.3
					c0.8,0,1.6,0,2.4,0.1c0.8,0.1,1.6,0.2,2.4,0.3C46.9,38.5,49,40.1,49,43.7z"/>
			</g>
			<g>
				<path fill="#D9BAA8" d="M37.2,32.1c0,0-0.5,5.4-0.5,5.9c0,1.2,1,2.3,2.3,2.3s2.3-1,2.3-2.3c0-0.5-0.5-5.9-0.5-5.9H37.2z"/>
			</g>
			<g>
				<path fill="#C9A28F" d="M46.7,29.8c-0.3,1-1,1.6-2.2,1.2c-1.1-0.4-2.3-1.5-2-2.5s2.4-1.5,3.5-1.1C47.2,27.8,47,28.8,46.7,29.8z"
					/>
			</g>
			<g>
				<path fill="#C9A28F" d="M31.5,29.8c0.3,1,1,1.6,2.2,1.2c1.1-0.4,2.3-1.5,2-2.5s-2.4-1.5-3.5-1.1C31,27.8,31.2,28.8,31.5,29.8z"
					/>
			</g>
			<g>
				<path fill="#E8CEC1" d="M44.9,26.7c0,4.1-1.6,9.3-5.8,9.3s-5.8-5.2-5.8-9.3s1.6-5.6,5.8-5.6C43.3,21.2,44.9,22.6,44.9,26.7z"/>
			</g>
			<g>
				<path fill="#894D47" d="M30.2,25.3c3.8-1.1,3.1-8.1,6.7-5C39.3,22.3,34.3,28.6,30.2,25.3z"/>
			</g>
			<g>
				<path fill="#894D47" d="M45.1,27.1c-2.8-4.2-10.4-0.4-8.5-6.3C37.9,17.1,47.1,20.6,45.1,27.1z"/>
			</g>
			<g>
				<polygon fill="#559AFF" points="38.3,40.3 37.2,46 39,47.2 40.7,46 39.7,40.3 				"/>
			</g>
			<g>
				<path fill="#DDEDEB" d="M43.8,37.9l-2.4,4.3l-2.3-1.8l2.4-2.8C42.3,37.6,43.1,37.7,43.8,37.9z"/>
			</g>
			<g>
				<path fill="#DDEDEB" d="M34.3,37.9l2.4,4.3l2.3-1.8l-2.4-2.8C35.9,37.6,35.1,37.7,34.3,37.9z"/>
			</g>
		</g>
	</g>
	<g>
		<g>
			<path fill="#FA4968" d="M35.4,11.8h-1.7V8.7c0-1.1-0.4-2.1-1.1-2.8c-0.7-0.7-1.7-1.2-2.8-1.2h-3.2c1.1,0,2.1,0.4,2.8,1.2
				c0.7,0.7,1.1,1.7,1.1,2.8v3.1h-1.7l3.3,3.8L35.4,11.8z"/>
		</g>
		<g>
			<path fill="#FA4968" d="M14.6,38.2h1.7v3.1c0,1.1,0.4,2.1,1.1,2.8s1.7,1.2,2.8,1.2h3.2c-1.1,0-2.1-0.4-2.8-1.2
				c-0.7-0.7-1.1-1.7-1.1-2.8v-3.1h1.7l-3.3-3.8L14.6,38.2z"/>
		</g>
	</g>
</g>
</svg>
