<?xml version="1.0" encoding="utf-8"?>
<!-- Generator: Adobe Illustrator 18.0.0, SVG Export Plug-In . SVG Version: 6.00 Build 0)  -->
<!DOCTYPE svg PUBLIC "-//W3C//DTD SVG 1.1//EN" "http://www.w3.org/Graphics/SVG/1.1/DTD/svg11.dtd">
<svg version="1.1" id="Layer_1" xmlns="http://www.w3.org/2000/svg" xmlns:xlink="http://www.w3.org/1999/xlink" x="0px" y="0px"
	 viewBox="0 0 50 50" enable-background="new 0 0 50 50" xml:space="preserve">
<g>
	<g>
		<path fill="#616B77" d="M41.1,39.4H8.9c-2,0-3.6-1.6-3.6-3.6V14.9c0-2,1.6-3.6,3.6-3.6h32.3c2,0,3.6,1.6,3.6,3.6v20.8
			C44.8,37.7,43.1,39.4,41.1,39.4z"/>
	</g>
	<g>
		<path fill="#F4F4F4" d="M8.3,32.5V14.9c0-0.3,0.3-0.6,0.6-0.6h32.2c0.3,0,0.6,0.3,0.6,0.6v17.5c0,0.3-0.3,0.6-0.6,0.6H8.9
			C8.6,33.1,8.3,32.8,8.3,32.5z"/>
	</g>
	<g>
		<circle fill="#F4F4F4" cx="25" cy="36.2" r="1.3"/>
	</g>
	<g>
		<rect x="20.9" y="39.4" fill="#425060" width="8.2" height="3.1"/>
	</g>
	<g>
		<path fill="#616B77" d="M32.4,44.4L32.4,44.4c0-1.1-0.9-1.9-1.9-1.9h-11c-1.1,0-1.9,0.9-1.9,1.9l0,0H32.4z"/>
	</g>
	<g>
		<path fill="#559AFF" d="M1,8.2v6.2C1,15.8,2.1,17,3.6,17h14.9l4.8,3.4V8.2c0-1.4-1.1-2.6-2.6-2.6H3.6C2.1,5.6,1,6.8,1,8.2z"/>
	</g>
	<g>
		<g>
			<g>
				<path fill="#6CD8D5" d="M21.3,25.8c0,1.1-0.4,2.1-1.1,2.9c-0.8,0.9-2,1.5-3.3,1.5s-2.5-0.6-3.3-1.5c-0.7-0.8-1.1-1.8-1.1-2.9
					c0-2.4,2-4.4,4.4-4.4S21.3,23.4,21.3,25.8z"/>
			</g>
			<g>
				<circle fill="#FFFFFF" cx="16.9" cy="24.6" r="1.4"/>
			</g>
			<g>
				<path fill="#FFFFFF" d="M20.1,28.7c-0.8,0.9-2,1.5-3.3,1.5s-2.5-0.6-3.3-1.5c0.3-1.6,1.6-2.7,3.3-2.7
					C18.5,25.9,19.9,27.1,20.1,28.7z"/>
			</g>
		</g>
		<g>
			<g>
				<path fill="#FA4968" d="M37.5,25.8c0,1.1-0.4,2.1-1.1,2.9c-0.8,0.9-2,1.5-3.3,1.5s-2.5-0.6-3.3-1.5c-0.7-0.8-1.1-1.8-1.1-2.9
					c0-2.4,2-4.4,4.4-4.4S37.5,23.4,37.5,25.8z"/>
			</g>
			<g>
				<circle fill="#FFFFFF" cx="33.1" cy="24.6" r="1.4"/>
			</g>
			<g>
				<path fill="#FFFFFF" d="M36.4,28.7c-0.8,0.9-2,1.5-3.3,1.5s-2.5-0.6-3.3-1.5c0.3-1.6,1.6-2.7,3.3-2.7
					C34.7,25.9,36.1,27.1,36.4,28.7z"/>
			</g>
		</g>
	</g>
	<g>
		<g>
			<rect x="6.9" y="8.5" fill="#FFFFFF" width="9.6" height="1"/>
		</g>
		<g>
			<rect x="6.9" y="10.8" fill="#FFFFFF" width="9.6" height="1"/>
		</g>
		<g>
			<rect x="6.9" y="13" fill="#FFFFFF" width="4.6" height="1"/>
		</g>
	</g>
	<g>
		<g>
			<path fill="#FF8C83" d="M49,8.2v6.2c0,1.4-1.1,2.6-2.6,2.6H31.5l-4.8,3.4V8.2c0-1.4,1.1-2.6,2.6-2.6h17.1C47.9,5.6,49,6.8,49,8.2
				z"/>
		</g>
		<g>
			<g>
				<rect x="33.1" y="8.5" fill="#FFFFFF" width="9.6" height="1"/>
			</g>
			<g>
				<rect x="33.1" y="10.8" fill="#FFFFFF" width="9.6" height="1"/>
			</g>
			<g>
				<rect x="33.1" y="13" fill="#FFFFFF" width="4.6" height="1"/>
			</g>
		</g>
	</g>
</g>
</svg>
