<?xml version="1.0" encoding="utf-8"?>
<!-- Generator: Adobe Illustrator 18.0.0, SVG Export Plug-In . SVG Version: 6.00 Build 0)  -->
<!DOCTYPE svg PUBLIC "-//W3C//DTD SVG 1.1//EN" "http://www.w3.org/Graphics/SVG/1.1/DTD/svg11.dtd">
<svg version="1.1" id="Layer_1" xmlns="http://www.w3.org/2000/svg" xmlns:xlink="http://www.w3.org/1999/xlink" x="0px" y="0px"
	 viewBox="0 0 50 50" enable-background="new 0 0 50 50" xml:space="preserve">
<g>
	<g>
		<path fill="#FFA49F" d="M42.5,28.8c1.8-3.7,3.3-15.9,0.7-16.3c-1.8-0.3-3,9.4-3,9.4V22c-2.8-0.2-8.2,5.3-9.7,7.7
			c-1.1,1.6-1.6,6.8-1.8,8.9l6.1,1.8c0.3-1.9,1-5.1,1.8-6.3C37.6,32.5,41.6,30.6,42.5,28.8z"/>
	</g>
	<g opacity="0.2">
		<path fill="#FFFFFF" d="M35.3,27.3l-0.7-0.7c0.2-0.2,0.4-0.4,0.6-0.6l0.7,0.8C35.8,26.9,35.5,27.1,35.3,27.3z"/>
	</g>
	<g opacity="0.2">
		<path fill="#FFFFFF" d="M32.5,30.4l-0.8-0.6c0.5-0.7,1.2-1.5,2-2.4l0.7,0.7C33.6,29,33,29.7,32.5,30.4z"/>
	</g>
	<g>
		<path fill="#F4F4F4" d="M39.5,25.2c0.1,0,0.1-0.1,0.2-0.1c0.8-0.7,1.1-1.6,0.7-2c-0.4-0.4-1.3-0.1-2,0.6c-0.1,0.1-0.1,0.1-0.2,0.2
			C39,24,39.5,24.5,39.5,25.2z"/>
	</g>
	<g>
		<rect x="27" y="36.9" fill="#559AFF" width="10" height="12.1"/>
	</g>
	<g>
		<path fill="#FFA49F" d="M7.5,28.8C5.7,25.1,4.2,13,6.8,12.5c1.8-0.3,3,9.4,3,9.4V22c2.8-0.2,8.2,5.3,9.7,7.7
			c1.1,1.6,1.6,6.8,1.8,8.9l-6.1,1.8c-0.3-1.9-1-5.1-1.8-6.3C12.4,32.5,8.4,30.6,7.5,28.8z"/>
	</g>
	<g opacity="0.2">
		<path fill="#FFFFFF" d="M14.7,27.3c-0.2-0.2-0.4-0.4-0.6-0.6l0.7-0.8c0.2,0.2,0.4,0.4,0.6,0.6L14.7,27.3z"/>
	</g>
	<g opacity="0.2">
		<path fill="#FFFFFF" d="M17.5,30.4c-0.5-0.7-1.2-1.5-1.9-2.3l0.7-0.7c0.8,0.8,1.5,1.6,2,2.4L17.5,30.4z"/>
	</g>
	<g>
		<path fill="#F4F4F4" d="M10.5,25.2c-0.1,0-0.1-0.1-0.2-0.1c-0.8-0.7-1.1-1.6-0.7-2c0.4-0.4,1.3-0.1,2,0.6c0.1,0.1,0.1,0.1,0.2,0.2
			C11,24,10.5,24.5,10.5,25.2z"/>
	</g>
	<g>
		<rect x="12.9" y="36.9" fill="#559AFF" width="10" height="12.1"/>
	</g>
	<g>
		<rect x="27" y="36.9" fill="#6EB0FF" width="10" height="5.2"/>
	</g>
	<g>
		<rect x="12.9" y="36.9" fill="#6EB0FF" width="10" height="5.2"/>
	</g>
	<g>
		<g>
			<circle fill="#FFFFFF" cx="30.1" cy="39.5" r="1"/>
		</g>
		<g>
			<circle fill="#FFFFFF" cx="19.9" cy="39.5" r="1"/>
		</g>
	</g>
	<g>
		<polygon fill="#3A8BED" points="17.7,10.3 14.5,14.6 24.6,28.4 34.6,14.6 31.5,10.3 		"/>
	</g>
	<g>
		<polygon fill="#6EB0FF" points="24.6,10.3 17.7,10.3 14.5,14.6 24.6,28.4 24.6,28.4 		"/>
	</g>
	<g>
		<polygon fill="#6EB0FF" points="31.5,10.3 24.5,10.3 24.5,14.6 34.6,14.6 34.6,14.6 		"/>
	</g>
	<g>
		<polygon fill="#3A8BED" points="14.6,14.7 24.6,28.4 24.7,28.2 24.7,14.7 		"/>
	</g>
	<g>
		<polygon fill="#6EB0FF" points="21.7,10.3 20.4,14.6 24.6,28.4 28.8,14.6 27.4,10.3 		"/>
	</g>
	<g>
		<polygon fill="#559AFF" points="28.7,14.7 28.8,14.6 27.4,10.3 21.7,10.3 20.4,14.6 20.4,14.7 		"/>
	</g>
	<g>
		<g>
			<rect x="24.1" y="1" fill="#425060" width="1" height="2.2"/>
		</g>
	</g>
	<g>
		<g>
			
				<rect x="35.5" y="5.7" transform="matrix(-0.7072 -0.7071 0.7071 -0.7072 56.6638 37.1005)" fill="#425060" width="1" height="2.2"/>
		</g>
	</g>
	<g>
		<g>
			
				<rect x="12.1" y="6.3" transform="matrix(-0.7071 -0.7071 0.7071 -0.7071 17.7067 21.0066)" fill="#425060" width="2.2" height="1"/>
		</g>
	</g>
	<g>
		<g>
			
				<rect x="17.3" y="2.8" transform="matrix(-0.3826 -0.9239 0.9239 -0.3826 22.401 21.6065)" fill="#425060" width="2.2" height="1"/>
		</g>
	</g>
	<g>
		<g>
			
				<rect x="30.2" y="2.2" transform="matrix(-0.9238 -0.3828 0.3828 -0.9238 57.8307 18.0686)" fill="#425060" width="1" height="2.2"/>
		</g>
	</g>
</g>
</svg>
