<?xml version="1.0" encoding="utf-8"?>
<!-- Generator: Adobe Illustrator 18.0.0, SVG Export Plug-In . SVG Version: 6.00 Build 0)  -->
<!DOCTYPE svg PUBLIC "-//W3C//DTD SVG 1.1//EN" "http://www.w3.org/Graphics/SVG/1.1/DTD/svg11.dtd">
<svg version="1.1" id="Layer_1" xmlns="http://www.w3.org/2000/svg" xmlns:xlink="http://www.w3.org/1999/xlink" x="0px" y="0px"
	 viewBox="0 0 50 50" enable-background="new 0 0 50 50" xml:space="preserve">
<g>
	<g>
		<g>
			<path fill="#E5E5E5" d="M22.4,47.5c4.4,0,8.2-3.5,8.3-7.9c0,0,0,0,0-0.1c0-8.1-6.6-9.5-14.8-9.5C7.6,30.1,1,31.4,1,39.6
				c0,0,0,0,0,0.1c0,4.4,3.8,7.9,8.3,7.9L22.4,47.5L22.4,47.5z"/>
		</g>
		<g>
			<path fill="#56826C" d="M10.4,31.2c-0.3,5.5,1.8,11,5.5,16.4c3.3-4.8,5.3-10.2,5.5-16.4C21.4,31.2,10.4,31.2,10.4,31.2z"/>
		</g>
		<g>
			<path fill="#D9BAA8" d="M13.1,21.9c0,0-0.7,8.3-0.7,9c0,1.9,1.5,3.4,3.4,3.4s3.4-1.5,3.4-3.4c0-0.8-0.7-9-0.7-9H13.1z"/>
		</g>
		<g>
			<g>
				<path fill="#C9A28F" d="M26.2,18.4c-0.5,1.6-1.6,2.4-3.3,1.9c-1.7-0.5-3.4-2.2-2.9-3.8c0.5-1.6,3.5-2.2,5.2-1.7
					C27,15.4,26.7,16.9,26.2,18.4z"/>
			</g>
			<g>
				<path fill="#C9A28F" d="M5.5,18.4C5.9,20,7,20.8,8.7,20.3s3.4-2.2,2.9-3.8c-0.5-1.6-3.5-2.2-5.2-1.7C4.7,15.4,5,16.9,5.5,18.4z"
					/>
			</g>
		</g>
		<g>
			<path fill="#E8CEC1" d="M24.6,13.8c0,6.2-2.5,14.1-8.7,14.1c-6.3,0-8.7-7.9-8.7-14.1s2.5-8.4,8.7-8.4
				C22.1,5.3,24.6,7.5,24.6,13.8z"/>
		</g>
		<g>
			<path fill="#FA4968" d="M2.6,11.5C8.2,9.9,7.2-0.7,12.7,4C16.2,7,8.7,16.5,2.6,11.5z"/>
		</g>
		<g opacity="0.3">
			<path fill="#FFFFFF" d="M7.2,11.3l-0.2-1c0.8-0.2,1.7-0.7,2.5-1.4l0.7,0.8C9.3,10.5,8.2,11.1,7.2,11.3z"/>
		</g>
		<g>
			<path fill="#FA4968" d="M24.9,14.3c-4.2-6.4-15.6-0.6-12.7-9.5C14.1-0.9,27.9,4.5,24.9,14.3z"/>
		</g>
		<g opacity="0.3">
			<path fill="#FFFFFF" d="M21.5,8.1c-0.8-1.1-1.9-1.9-3.2-2.5l0.4-1c1.5,0.6,2.7,1.6,3.6,2.8L21.5,8.1z"/>
		</g>
		<g opacity="0.3">
			<path fill="#FFFFFF" d="M16.7,5.2c-0.3,0-0.5-0.1-0.8-0.1V4c0.3,0,0.6,0,0.9,0.1L16.7,5.2z"/>
		</g>
		<g>
			<g>
				<line fill="none" x1="18.1" y1="15" x2="20.3" y2="15"/>
			</g>
			<g>
				<circle fill="#616B77" cx="18.9" cy="16.9" r="0.6"/>
			</g>
		</g>
		<g>
			<path fill="#E5E5E5" d="M14.7,20.2c0.7,0.5,1.5,0.5,2.3,0"/>
			<path fill="#C9A28F" d="M15.8,21.1c-0.5,0-1-0.2-1.4-0.5l0.6-0.9c0.6,0.4,1.1,0.4,1.7,0l0.6,0.9C16.8,20.9,16.3,21.1,15.8,21.1z"
				/>
		</g>
		<g>
			<g>
				<line fill="none" x1="13.6" y1="15" x2="11.3" y2="15"/>
			</g>
			<g>
				<circle fill="#616B77" cx="12.8" cy="16.9" r="0.6"/>
			</g>
		</g>
		<g>
			<path fill="#C9A28F" d="M15.8,24.8c-1.3,0-2.4-0.6-3.3-1.6l0.8-0.7c0.6,0.7,1.5,1.2,2.4,1.2c0.9,0,1.8-0.4,2.4-1.2l0.8,0.7
				C18.3,24.2,17.1,24.8,15.8,24.8z"/>
		</g>
		<g opacity="0.2">
			<circle fill="#FFFFFF" cx="20.3" cy="20.7" r="0.9"/>
		</g>
		<g opacity="0.2">
			<circle fill="#FFFFFF" cx="12.1" cy="20.7" r="0.9"/>
		</g>
		<g>
			<path fill="#F4F4F4" d="M21.7,34.5l1.6,3.2c-0.4,3.5-3.3,7.6-7.4,9.8c2-5.5,3.4-11.9,3.4-17.4c1.5,0.1,2.9,0.3,4.2,0.6l0.6,3.2
				L21.7,34.5z"/>
		</g>
		<g>
			<path fill="#F4F4F4" d="M10,34.5l-1.6,3.2c0.4,3.5,3.3,7.6,7.4,9.8c-2-5.5-3.4-11.9-3.4-17.4c-1.5,0.1-2.9,0.3-4.2,0.6l-0.6,3.2
				L10,34.5z"/>
		</g>
	</g>
	<g>
		<path fill="#6EB0FF" d="M49,24.3c-0.3,1.1-0.7,2.2-1.3,3.1c-1.1-0.4-2.2-0.3-2.9,0.4c-0.7,0.7-0.8,1.8-0.4,2.9c-0.9,0.6-2,1-3,1.3
			c-0.5-1.1-1.4-1.8-2.3-1.8s-1.8,0.7-2.3,1.8c-1.1-0.3-2.1-0.7-3-1.3c0.4-1.2,0.3-2.3-0.4-2.9c-0.7-0.7-1.8-0.8-2.9-0.4
			c-0.6-0.9-1-2-1.3-3.1c1.1-0.5,1.8-1.4,1.8-2.4s-0.7-1.8-1.8-2.4c0.3-1.1,0.7-2.2,1.3-3.1c1.1,0.4,2.2,0.3,2.9-0.4
			c0.7-0.7,0.8-1.8,0.4-2.9c0.9-0.6,2-1,3-1.3c0.5,1.1,1.4,1.8,2.3,1.8c1,0,1.8-0.7,2.3-1.8c1.1,0.3,2.1,0.7,3,1.3
			c-0.4,1.1-0.3,2.3,0.4,2.9c0.7,0.7,1.8,0.8,2.9,0.4c0.6,0.9,1,2,1.3,3.1c-1.1,0.5-1.8,1.4-1.8,2.4S47.9,23.8,49,24.3z"/>
	</g>
	<g opacity="0.3">
		<path fill="#FFFFFF" d="M34.5,21.2L33.4,21c0.3-1.7,1.2-3.1,2.7-4l0.6,0.9C35.5,18.7,34.7,19.9,34.5,21.2z"/>
	</g>
	<g opacity="0.3">
		<path fill="#FFFFFF" d="M38,17.4l-0.3-1c0.3-0.1,0.6-0.1,0.9-0.1l0.1,1.1C38.4,17.3,38.2,17.3,38,17.4z"/>
	</g>
	<g>
		<circle fill="#FFFFFF" cx="39.1" cy="21.9" r="3.1"/>
	</g>
</g>
</svg>
