<?xml version="1.0" encoding="utf-8"?>
<!-- Generator: Adobe Illustrator 18.0.0, SVG Export Plug-In . SVG Version: 6.00 Build 0)  -->
<!DOCTYPE svg PUBLIC "-//W3C//DTD SVG 1.1//EN" "http://www.w3.org/Graphics/SVG/1.1/DTD/svg11.dtd">
<svg version="1.1" id="Layer_1" xmlns="http://www.w3.org/2000/svg" xmlns:xlink="http://www.w3.org/1999/xlink" x="0px" y="0px"
	 viewBox="0 0 50 50" enable-background="new 0 0 50 50" xml:space="preserve">
<g>
	<g>
		<polygon fill="#E5E5E5" points="32.6,49 4.8,40.1 17.1,1 44.9,9.9 		"/>
	</g>
	<g>
		<rect x="10.3" y="4.5" fill="#F4F4F4" width="29.1" height="41"/>
	</g>
	<g>
		<g>
			<rect x="14.4" y="11.7" fill="#ABB734" width="5.9" height="6"/>
		</g>
		<g>
			<polygon fill="#425060" points="17.6,15.8 16.4,14.6 17.1,13.8 17.6,14.3 21.6,10.3 22.3,11 			"/>
		</g>
	</g>
	<g>
		<line fill="none" x1="25.2" y1="12" x2="30.3" y2="12"/>
		<rect x="25.2" y="11.5" fill="#FFA49F" width="5.1" height="1"/>
	</g>
	<g>
		<line fill="none" x1="25.2" y1="14.6" x2="35.2" y2="14.6"/>
		<rect x="25.2" y="14.1" fill="#CCCACA" width="10" height="1"/>
	</g>
	<g>
		<line fill="none" x1="25.2" y1="17.2" x2="35.2" y2="17.2"/>
		<rect x="25.2" y="16.7" fill="#CCCACA" width="10" height="1"/>
	</g>
	<g>
		<g>
			<rect x="14.4" y="22.5" fill="#FA4968" width="5.9" height="6"/>
		</g>
		<g>
			<polygon fill="#425060" points="17.6,26.6 16.4,25.4 17.1,24.7 17.6,25.2 21.6,21.1 22.3,21.9 			"/>
		</g>
	</g>
	<g>
		<line fill="none" x1="25.2" y1="22.9" x2="30.3" y2="22.9"/>
		<rect x="25.2" y="22.3" fill="#8CF2ED" width="5.1" height="1"/>
	</g>
	<g>
		<g>
			<rect x="14.4" y="33.4" fill="#FECD04" width="5.9" height="6"/>
		</g>
		<g>
			<polygon fill="#425060" points="17.6,37.5 16.4,36.3 17.1,35.6 17.6,36 21.6,32 22.3,32.7 			"/>
		</g>
	</g>
	<g>
		<path fill="#FFA49F" d="M32.4,41.2L32.4,41.2c-0.3,1-1.3,1.4-2.2,1.1l-5.8-2.1c-0.9-0.3-1.3-1.3-1-2.2v-0.1c0.3-0.9,1.3-1.3,2.2-1
			l5.8,2.1C32.3,39.3,32.7,40.3,32.4,41.2z"/>
	</g>
	<g>
		<path fill="#FFA49F" d="M36.1,31.1v0.1c-0.3,0.9-1.3,1.3-2.2,1l-5.8-2.1c-0.9-0.3-1.3-1.3-1-2.2v-0.1c0.3-0.9,1.3-1.3,2.2-1
			l5.8,2.1C36,29.3,36.4,30.2,36.1,31.1z"/>
	</g>
	<g>
		
			<rect x="26.1" y="31.3" transform="matrix(-0.3436 0.9391 -0.9391 -0.3436 72.4102 18.5792)" fill="#FF8C83" width="7.2" height="6.5"/>
	</g>
	<g>
		<path fill="#F76861" d="M33.3,34.4l-1,2.7l9.4,4.5c1.3,0.6,2.8,0,3.3-1.4l0,0c0.5-1.3-0.3-2.8-1.7-3.2L33.3,34.4z"/>
	</g>
	<g>
		<rect x="16.6" y="6.3" fill="#FFFFFF" width="3.3" height="1"/>
	</g>
	<g>
		<rect x="12.9" y="6.3" fill="#FFFFFF" width="0.8" height="1"/>
	</g>
	<g>
		<line fill="none" x1="31" y1="29" x2="32.3" y2="29.4"/>
		
			<rect x="30.9" y="28.7" transform="matrix(-0.9422 -0.335 0.335 -0.9422 51.6945 67.3084)" fill="#FFFFFF" width="1.5" height="1"/>
	</g>
	<g>
		<line fill="none" x1="29.2" y1="28.3" x2="29.6" y2="28.5"/>
		
			<rect x="29.2" y="27.9" transform="matrix(-0.9422 -0.335 0.335 -0.9422 47.5968 64.9942)" fill="#FFFFFF" width="0.4" height="1"/>
	</g>
</g>
</svg>
