<?xml version="1.0" encoding="utf-8"?>
<!-- Generator: Adobe Illustrator 18.0.0, SVG Export Plug-In . SVG Version: 6.00 Build 0)  -->
<!DOCTYPE svg PUBLIC "-//W3C//DTD SVG 1.1//EN" "http://www.w3.org/Graphics/SVG/1.1/DTD/svg11.dtd">
<svg version="1.1" id="Layer_1" xmlns="http://www.w3.org/2000/svg" xmlns:xlink="http://www.w3.org/1999/xlink" x="0px" y="0px"
	 viewBox="0 0 50 50" enable-background="new 0 0 50 50" xml:space="preserve">
<g>
	<g>
		<path fill="#FA4968" d="M46.5,13.8c0,2.7-1.1,5.1-2.8,6.9s-4.2,2.8-6.9,2.8c-2.1,0-4-0.7-5.6-1.8L27,23.5l1.8-4.1
			c-1.1-1.6-1.8-3.5-1.8-5.6c0-2.7,1.1-5.1,2.8-6.9c1.8-1.8,4.2-2.8,6.9-2.8s5.1,1.1,6.9,2.8C45.4,8.7,46.5,11.1,46.5,13.8z"/>
	</g>
	<g opacity="0.3">
		<path fill="#FFFFFF" d="M30.7,10.4l-0.9-0.5c0.4-0.6,0.8-1.2,1.3-1.7c0.9-0.9,2.1-1.6,3.3-2l0.3,1c-1.1,0.3-2,0.9-2.8,1.7
			C31.4,9.3,31,9.8,30.7,10.4z"/>
	</g>
	<g opacity="0.3">
		<path fill="#FFFFFF" d="M37.4,6.9c-0.4,0-0.8,0-1.1,0l-0.1-1.1c0.4,0,0.9,0,1.3,0L37.4,6.9z"/>
	</g>
	<g>
		<path fill="#E8CEC1" d="M20.7,29.7h10.6c1.3,0,1.7,1,1.7,2.3c0,0.6-0.1,1.2-0.4,1.6c-0.3,0.4-0.7,0.7-1.3,0.7h-0.8
			c1.3,0,1.7,1,1.7,2.3c0,0.6-0.1,1.2-0.4,1.6c-0.3,0.4-0.7,0.7-1.3,0.7h-0.8c1.3,0,1.7,1,1.7,2.3c0,0.6-0.1,1.2-0.4,1.6
			c-0.3,0.4-0.7,0.7-1.3,0.7h-0.8c1.3,0,1.7,1,1.7,2.3c0,0.6-0.1,1.2-0.4,1.6c-0.3,0.4-0.7,0.7-1.3,0.7H11.2c-1.3,0-2.4-1.1-2.4-2.4
			V32c0-1.3,1.1-2.4,2.4-2.4h1.4c1,0,2-0.5,2.5-1.4l0.9-1.5c0.7-1.2,1.1-2.5,1.1-3.9v-1.2c0-0.7,0.6-1.3,1.3-1.3l0,0
			c2.4,0,4.3,1.9,4.3,4.3l0,0c0,1.1-0.3,2.2-0.9,3.1L20.7,29.7z"/>
	</g>
	<g opacity="0.3">
		<path fill="#FFFFFF" d="M21.2,24.7h-1.1c0-0.6-0.4-1.2-0.9-1.4l0.5-1C20.5,22.7,21.2,23.7,21.2,24.7z"/>
	</g>
	<g>
		<rect x="25.5" y="42.9" fill="#425060" width="3.3" height="1.1"/>
	</g>
	<g>
		<path fill="none" stroke="#425060" stroke-miterlimit="10" d="M30.5,34.3"/>
	</g>
	<g>
		<rect x="27" y="33.7" fill="#425060" width="3.4" height="1.1"/>
	</g>
	<g>
		<rect x="26.2" y="38.3" fill="#425060" width="4.3" height="1.1"/>
	</g>
	<g>
		<path fill="#ABB734" d="M6.3,29.7H3.6c-1.4,0-2.6,1.1-2.6,2.6v13.3c0,1.4,1.1,2.6,2.6,2.6h2.8c1.4,0,2.6-1.1,2.6-2.6V32.2
			C8.9,30.8,7.7,29.7,6.3,29.7z"/>
	</g>
	<g>
		<circle fill="#FFFFFF" cx="4.9" cy="33.6" r="1.3"/>
	</g>
	<g>
		<polygon fill="#FFB95C" points="33.6,10.6 30.6,13.6 36.9,19.9 49,7.9 46,4.9 36.9,13.9 		"/>
	</g>
	<g>
		<g>
			<polygon fill="#FECD04" points="8.3,9.1 9.9,12.4 13.4,12.9 10.8,15.4 11.5,19 8.3,17.3 5.1,19 5.7,15.4 3.1,12.9 6.7,12.4 			
				"/>
		</g>
		<g>
			<polygon fill="#559AFF" points="15.1,1.9 16.5,4.7 19.6,5.1 17.4,7.3 17.9,10.3 15.1,8.9 12.4,10.3 12.9,7.3 10.7,5.1 13.8,4.7 
							"/>
		</g>
		<g>
			<polygon fill="#ABB734" points="19.9,11.5 21,13.6 23.3,13.9 21.6,15.5 22,17.9 19.9,16.8 17.9,17.9 18.3,15.5 16.6,13.9 
				18.9,13.6 			"/>
		</g>
	</g>
	<g opacity="0.3">
		<g>
			
				<rect x="43.3" y="7.6" transform="matrix(-0.7071 -0.7071 0.7071 -0.7071 67.9118 47.8224)" fill="#FFFFFF" width="1.1" height="4.4"/>
		</g>
		<g>
			
				<rect x="39.9" y="12.8" transform="matrix(-0.7071 -0.7071 0.7071 -0.7071 59.7033 51.1157)" fill="#FFFFFF" width="1.1" height="0.8"/>
		</g>
	</g>
	<g opacity="0.3">
		<g>
			<rect x="2.6" y="39.8" fill="#FFFFFF" width="1.1" height="2.2"/>
		</g>
		<g>
			<rect x="2.6" y="44.1" fill="#FFFFFF" width="1.1" height="0.8"/>
		</g>
	</g>
</g>
</svg>
