<?xml version="1.0" encoding="utf-8"?>
<!-- Generator: Adobe Illustrator 18.0.0, SVG Export Plug-In . SVG Version: 6.00 Build 0)  -->
<!DOCTYPE svg PUBLIC "-//W3C//DTD SVG 1.1//EN" "http://www.w3.org/Graphics/SVG/1.1/DTD/svg11.dtd">
<svg version="1.1" id="Layer_1" xmlns="http://www.w3.org/2000/svg" xmlns:xlink="http://www.w3.org/1999/xlink" x="0px" y="0px"
	 viewBox="0 0 50 50" enable-background="new 0 0 50 50" xml:space="preserve">
<g>
	<g>
		<path fill="#E5E5E5" d="M24.7,24.4c5.8,0.2,10.9,17.9,6.9,22.1c-2.7,2.8-13.4,3.8-15.6,0.4C12.8,41.9,18.9,24.2,24.7,24.4z"/>
	</g>
	<g>
		<path fill="#E8CEC1" d="M46.7,19.3v0.6c0,1.7-1.6,3.2-3.8,3.5c-4.7,0.6-10.6,1-16.9,1c-7.3,0-14-0.5-18.9-1.3
			c-2.2-0.4-3.8-1.8-3.8-3.5l0,0c0-1.7,1.5-3.1,3.6-3.5c4.9-0.8,11.6-1.3,19-1.3c6.4,0,12.3,0.4,16.9,1
			C45.1,16.1,46.7,17.5,46.7,19.3z"/>
	</g>
	<g>
		<path fill="#E5E5E5" d="M46.7,12.9c-0.1,1.7-2.3,2.8-6.8,2.3c-0.9-0.1-4.5-0.5-5.4-0.5c-3.7-0.4-5.2-1.7-5.1-3.1s1.7-2.5,5.5-2.3
			c0.8,0,4.5,0.2,5.4,0.3C44.9,9.8,46.8,11.3,46.7,12.9z"/>
	</g>
	<g>
		<path fill="#616B77" d="M5.2,12c0.2,2.3,2,3.9,5.7,3.4c0.8-0.1,3.7-0.4,4.4-0.5c3.1-0.4,4.2-2.1,4.1-4S18,7.5,14.8,7.6
			c-0.7,0-3.7,0.1-4.5,0.1C6.6,7.9,5,9.8,5.2,12z"/>
	</g>
	<g>
		<path fill="#616B77" d="M46.3,6.9c0,1.6-1.9,2.9-5.8,2.7c-0.8,0-3.9-0.2-4.6-0.2c-3.2-0.2-4.5-1.3-4.5-2.6s1.3-2.5,4.5-2.5
			c0.7,0,3.9-0.1,4.7-0.1C44.5,4,46.4,5.3,46.3,6.9z"/>
	</g>
	<g>
		<path fill="#616B77" d="M43,2.4C43,3.3,42,4,39.9,4c-0.4,0-2.1,0-2.5,0c-1.7,0-2.5-0.6-2.5-1.3s0.6-1.4,2.4-1.5
			c0.4,0,2.1-0.2,2.5-0.2C41.9,0.8,42.9,1.5,43,2.4z"/>
	</g>
</g>
</svg>
