<?xml version="1.0" encoding="utf-8"?>
<!-- Generator: Adobe Illustrator 18.0.0, SVG Export Plug-In . SVG Version: 6.00 Build 0)  -->
<!DOCTYPE svg PUBLIC "-//W3C//DTD SVG 1.1//EN" "http://www.w3.org/Graphics/SVG/1.1/DTD/svg11.dtd">
<svg version="1.1" id="Layer_1" xmlns="http://www.w3.org/2000/svg" xmlns:xlink="http://www.w3.org/1999/xlink" x="0px" y="0px"
	 viewBox="0 0 50 50" enable-background="new 0 0 50 50" xml:space="preserve">
<g>
	<g>
		<path fill="#F9A846" d="M29.7,14.8l0.9-1c0.5-0.6,1.3-0.9,2.1-0.9h7.7c1.6,0,2.8,1.3,2.8,2.8v21.9c0,1.6-1.3,2.8-2.8,2.8H9.7
			c-1.6,0-2.8-1.3-2.8-2.8v-19c0-1.6,1.3-2.8,2.8-2.8h17.9C28.4,15.7,29.1,15.4,29.7,14.8z"/>
	</g>
	<g>
		<path fill="#E5E5E5" d="M18.8,1v5c0,1.3-1.1,2.4-2.4,2.4h-5V39h27.1V3.4c0-1.3-1.1-2.4-2.4-2.4H18.8z"/>
	</g>
	<g>
		<g>
			<line fill="none" x1="16.9" y1="12.2" x2="33.1" y2="12.2"/>
			<rect x="16.9" y="11.7" fill="#CCCACA" width="16.1" height="1"/>
		</g>
		<g>
			<line fill="none" x1="16.9" y1="15.2" x2="33.1" y2="15.2"/>
			<rect x="16.9" y="14.7" fill="#CCCACA" width="16.1" height="1"/>
		</g>
		<g>
			<line fill="none" x1="16.9" y1="18.3" x2="33.1" y2="18.3"/>
			<rect x="16.9" y="17.8" fill="#CCCACA" width="16.1" height="1"/>
		</g>
		<g>
			<line fill="none" x1="16.9" y1="21.4" x2="33.1" y2="21.4"/>
			<rect x="16.9" y="20.9" fill="#CCCACA" width="16.1" height="1"/>
		</g>
	</g>
	<g>
		<path fill="#CCCACA" d="M18.8,1l-7.4,7.4h5c1.3,0,2.4-1.1,2.4-2.4V1z"/>
	</g>
	<g>
		<path fill="#FFB95C" d="M20.3,23.4l-0.9-1c-0.5-0.6-1.3-0.9-2.1-0.9H9.7c-1.6,0-2.8,1.3-2.8,2.8v21.9c0,1.6,1.3,2.8,2.8,2.8h30.6
			c1.6,0,2.8-1.3,2.8-2.8v-19c0-1.6-1.3-2.8-2.8-2.8H22.4C21.6,24.3,20.9,24,20.3,23.4z"/>
	</g>
	<g>
		<circle fill="#FFFFFF" cx="25" cy="37.5" r="7.4"/>
	</g>
	<g>
		<polygon fill="#ABB734" points="29,36.3 29,38.8 26.3,38.8 26.3,41.6 23.7,41.6 23.7,38.8 21,38.8 21,36.3 23.7,36.3 23.7,33.5 
			26.3,33.5 26.3,36.3 		"/>
	</g>
</g>
</svg>
