<?xml version="1.0" encoding="utf-8"?>
<!-- Generator: Adobe Illustrator 18.0.0, SVG Export Plug-In . SVG Version: 6.00 Build 0)  -->
<!DOCTYPE svg PUBLIC "-//W3C//DTD SVG 1.1//EN" "http://www.w3.org/Graphics/SVG/1.1/DTD/svg11.dtd">
<svg version="1.1" id="Layer_1" xmlns="http://www.w3.org/2000/svg" xmlns:xlink="http://www.w3.org/1999/xlink" x="0px" y="0px"
	 viewBox="0 0 50 50" enable-background="new 0 0 50 50" xml:space="preserve">
<g>
	<g>
		<path fill="#FECD04" d="M30.2,38.8c0-8.4,7.2-11.4,7.2-19.9c0-6.8-5.5-12.2-12.3-12.2s-12.3,5.5-12.3,12.2
			c0,8.6,7.2,11.6,7.2,19.9"/>
	</g>
	<g>
		<path fill="#CCCACA" d="M21.5,39.6v5.9c0,1.9,1.6,3.5,3.5,3.5s3.5-1.5,3.5-3.5v-5.9H21.5z"/>
	</g>
	<g>
		<path fill="#E5E5E5" d="M32.4,42.9v-4H17.6v4c0,1.4,1.1,2.5,2.5,2.5h9.7C31.3,45.4,32.4,44.3,32.4,42.9z"/>
	</g>
	<g>
		<g>
			<path fill="#FFFFFF" d="M33,21.4c-0.2,0.9-0.6,1.7-1,2.5c-0.9-0.3-1.8-0.2-2.3,0.3c-0.5,0.6-0.6,1.5-0.3,2.4
				c-0.8,0.5-1.6,0.8-2.5,1c-0.4-0.9-1.1-1.5-1.9-1.5s-1.5,0.6-1.9,1.5c-0.9-0.2-1.7-0.6-2.5-1c0.3-0.9,0.2-1.8-0.3-2.4
				s-1.4-0.7-2.3-0.3c-0.5-0.8-0.8-1.6-1-2.5c0.9-0.4,1.4-1.1,1.4-1.9S17.9,18,17,17.6c0.2-0.9,0.5-1.8,1-2.5
				c0.9,0.3,1.8,0.2,2.3-0.3c0.5-0.6,0.6-1.5,0.3-2.4c0.8-0.5,1.6-0.8,2.5-1c0.4,0.9,1.1,1.5,1.9,1.5s1.5-0.6,1.9-1.5
				c0.9,0.2,1.7,0.6,2.5,1c-0.3,0.9-0.2,1.8,0.3,2.4c0.5,0.5,1.4,0.6,2.3,0.3c0.5,0.8,0.8,1.6,1,2.5c-0.9,0.4-1.4,1.1-1.4,1.9
				S32.1,21,33,21.4z"/>
		</g>
		<g>
			<circle fill="#FECD04" cx="25" cy="19.5" r="2.5"/>
			<path fill="#616B77" d="M25,22.5c-1.7,0-3-1.4-3-3c0-1.7,1.4-3,3-3c1.7,0,3,1.4,3,3C28,21.2,26.7,22.5,25,22.5z M25,17.5
				c-1.1,0-2,0.9-2,2s0.9,2,2,2s2-0.9,2-2S26.1,17.5,25,17.5z"/>
		</g>
	</g>
	<g>
		<line fill="none" x1="27.5" y1="19.5" x2="27.5" y2="38.8"/>
		<rect x="27" y="19.5" fill="#616B77" width="1" height="19.3"/>
	</g>
	<g>
		<line fill="none" x1="22.5" y1="19.5" x2="22.5" y2="38.8"/>
		<rect x="22" y="19.5" fill="#616B77" width="1" height="19.3"/>
	</g>
	<g>
		<g>
			<g>
				<g>
					<g>
						<line fill="none" x1="41.1" y1="18.9" x2="42.8" y2="18.9"/>
						<rect x="41.1" y="18.4" fill="#E5E5E5" width="1.7" height="1"/>
					</g>
					<g>
						<line fill="none" x1="7.2" y1="18.9" x2="8.9" y2="18.9"/>
						<rect x="7.2" y="18.4" fill="#E5E5E5" width="1.7" height="1"/>
					</g>
				</g>
				<g>
					<g>
						<line fill="none" x1="25" y1="1" x2="25" y2="2.7"/>
						<rect x="24.5" y="1" fill="#E5E5E5" width="1" height="1.7"/>
					</g>
				</g>
			</g>
			<g>
				<g>
					<g>
						<line fill="none" x1="36.4" y1="30.3" x2="37.6" y2="31.6"/>
						
							<rect x="36.2" y="30.4" transform="matrix(-0.706 -0.7083 0.7083 -0.706 41.2579 78.8883)" fill="#E5E5E5" width="1.7" height="1"/>
					</g>
					<g>
						<line fill="none" x1="12.4" y1="6.2" x2="13.6" y2="7.5"/>
						
							<rect x="12.1" y="6.4" transform="matrix(-0.7058 -0.7084 0.7084 -0.7058 17.2083 20.8606)" fill="#E5E5E5" width="1.7" height="1"/>
					</g>
				</g>
				<g>
					<g>
						<line fill="none" x1="13.6" y1="30.3" x2="12.4" y2="31.6"/>
						
							<rect x="12.5" y="30.1" transform="matrix(-0.7081 -0.7061 0.7061 -0.7081 0.3514 62.0555)" fill="#E5E5E5" width="1" height="1.7"/>
					</g>
					<g>
						<line fill="none" x1="37.6" y1="6.2" x2="36.4" y2="7.5"/>
						
							<rect x="36.5" y="6" transform="matrix(-0.708 -0.7062 0.7062 -0.708 58.3728 37.8357)" fill="#E5E5E5" width="1" height="1.7"/>
					</g>
				</g>
			</g>
		</g>
		<g>
			<g>
				<g>
					<g>
						<line fill="none" x1="7.2" y1="18.9" x2="8.9" y2="18.9"/>
						<rect x="7.2" y="18.4" fill="#E5E5E5" width="1.7" height="1"/>
					</g>
				</g>
				<g>
					<g>
						<line fill="none" x1="25" y1="1" x2="25" y2="2.7"/>
						<rect x="24.5" y="1" fill="#E5E5E5" width="1" height="1.7"/>
					</g>
				</g>
			</g>
			<g>
				<g>
					<g>
						<line fill="none" x1="36.4" y1="30.3" x2="37.6" y2="31.6"/>
						
							<rect x="36.2" y="30.4" transform="matrix(-0.706 -0.7083 0.7083 -0.706 41.2579 78.8883)" fill="#E5E5E5" width="1.7" height="1"/>
					</g>
					<g>
						<line fill="none" x1="12.4" y1="6.2" x2="13.6" y2="7.5"/>
						
							<rect x="12.1" y="6.4" transform="matrix(-0.7058 -0.7084 0.7084 -0.7058 17.2083 20.8606)" fill="#E5E5E5" width="1.7" height="1"/>
					</g>
				</g>
				<g>
					<g>
						<line fill="none" x1="13.6" y1="30.3" x2="12.4" y2="31.6"/>
						
							<rect x="12.5" y="30.1" transform="matrix(-0.7081 -0.7061 0.7061 -0.7081 0.3514 62.0555)" fill="#E5E5E5" width="1" height="1.7"/>
					</g>
					<g>
						<line fill="none" x1="37.6" y1="6.2" x2="36.4" y2="7.5"/>
						
							<rect x="36.5" y="6" transform="matrix(-0.708 -0.7062 0.7062 -0.708 58.3728 37.8357)" fill="#E5E5E5" width="1" height="1.7"/>
					</g>
				</g>
			</g>
		</g>
		<g>
			<g>
				<g>
					<g>
						<line fill="none" x1="39.9" y1="12.7" x2="41.5" y2="12.1"/>
						
							<rect x="40.2" y="11.5" transform="matrix(-0.3837 -0.9235 0.9235 -0.3837 44.9138 54.7522)" fill="#E5E5E5" width="1" height="1.7"/>
					</g>
					<g>
						<line fill="none" x1="8.5" y1="25.8" x2="10.1" y2="25.1"/>
						
							<rect x="8.8" y="24.6" transform="matrix(-0.3836 -0.9235 0.9235 -0.3836 -10.6277 43.7528)" fill="#E5E5E5" width="1" height="1.7"/>
					</g>
				</g>
				<g>
					<g>
						<line fill="none" x1="18.2" y1="2.4" x2="18.8" y2="4"/>
						
							<rect x="17.6" y="2.6" transform="matrix(-0.3815 -0.9244 0.9244 -0.3815 22.5984 21.3859)" fill="#E5E5E5" width="1.7" height="1"/>
					</g>
				</g>
			</g>
			<g>
				<g>
					<g>
						<line fill="none" x1="39.9" y1="25.1" x2="41.5" y2="25.8"/>
						
							<rect x="39.8" y="24.9" transform="matrix(-0.9234 -0.3838 0.3838 -0.9234 68.4683 64.4373)" fill="#E5E5E5" width="1.7" height="1"/>
					</g>
					<g>
						<line fill="none" x1="8.5" y1="12.1" x2="10.1" y2="12.7"/>
						
							<rect x="8.4" y="11.9" transform="matrix(-0.9234 -0.3838 0.3838 -0.9234 13.0435 27.3514)" fill="#E5E5E5" width="1.7" height="1"/>
					</g>
				</g>
				<g>
					<g>
						<line fill="none" x1="31.8" y1="2.4" x2="31.2" y2="4"/>
						
							<rect x="31" y="2.3" transform="matrix(-0.9243 -0.3816 0.3816 -0.9243 59.424 18.0904)" fill="#E5E5E5" width="1" height="1.7"/>
					</g>
				</g>
			</g>
		</g>
	</g>
</g>
</svg>
