<?xml version="1.0" encoding="utf-8"?>
<!-- Generator: Adobe Illustrator 18.0.0, SVG Export Plug-In . SVG Version: 6.00 Build 0)  -->
<!DOCTYPE svg PUBLIC "-//W3C//DTD SVG 1.1//EN" "http://www.w3.org/Graphics/SVG/1.1/DTD/svg11.dtd">
<svg version="1.1" id="Layer_1" xmlns="http://www.w3.org/2000/svg" xmlns:xlink="http://www.w3.org/1999/xlink" x="0px" y="0px"
	 viewBox="0 0 50 50" enable-background="new 0 0 50 50" xml:space="preserve">
<g>
	<g>
		<g>
			<path fill="#8CF2ED" d="M48.9,30.6c-0.6,2.7-1.7,5.1-3.1,7.4c-2.7-1-5.4-0.7-7,1c-1.6,1.6-1.9,4.3-0.9,7
				c-2.2,1.4-4.7,2.5-7.3,3.1c-1.3-2.6-3.3-4.3-5.6-4.3s-4.4,1.7-5.6,4.3c-2.6-0.6-5.1-1.6-7.3-3c0.9-2.7,0.7-5.4-0.9-7
				s-4.3-1.9-7-1c-1.4-2.2-2.4-4.7-3.1-7.3c2.6-1.3,4.3-3.3,4.3-5.6s-1.7-4.4-4.3-5.6c0.6-2.7,1.6-5.2,3.1-7.4c2.7,1,5.4,0.7,7-0.9
				s1.9-4.3,0.9-7c2.2-1.4,4.7-2.4,7.3-3c1.2,2.6,3.3,4.3,5.6,4.3s4.4-1.7,5.6-4.3c2.6,0.6,5.1,1.6,7.3,3c-0.9,2.7-0.7,5.4,0.9,7
				c1.6,1.6,4.3,1.9,7,0.9c1.4,2.2,2.4,4.7,3,7.4c-2.6,1.2-4.3,3.3-4.3,5.6C44.6,27.3,46.3,29.4,48.9,30.6z"/>
		</g>
	</g>
	<g>
		<g>
			<circle fill="#559AFF" cx="25" cy="25" r="16.3"/>
		</g>
		<g>
			<circle fill="#E8CEC1" cx="25" cy="25" r="12.7"/>
		</g>
		<g>
			<rect x="24.5" y="12.3" fill="#425060" width="1" height="1.4"/>
		</g>
		<g>
			<rect x="24.5" y="36.3" fill="#425060" width="1" height="1.4"/>
		</g>
		<g>
			<rect x="18.3" y="14.1" transform="matrix(-0.5 -0.866 0.866 -0.5 15.8797 38.3746)" fill="#425060" width="1.4" height="1"/>
		</g>
		<g>
			
				<rect x="30.3" y="34.9" transform="matrix(-0.4999 -0.8661 0.8661 -0.4999 15.8117 79.9221)" fill="#425060" width="1.4" height="1"/>
		</g>
		<g>
			
				<rect x="13.9" y="18.5" transform="matrix(-0.8661 -0.4999 0.4999 -0.8661 17.7591 42.7432)" fill="#425060" width="1.4" height="1"/>
		</g>
		<g>
			
				<rect x="34.7" y="30.5" transform="matrix(-0.8661 -0.4999 0.4999 -0.8661 50.556 75.5574)" fill="#425060" width="1.4" height="1"/>
		</g>
		<g>
			<rect x="12.3" y="24.5" fill="#425060" width="1.4" height="1"/>
		</g>
		<g>
			<rect x="36.3" y="24.5" fill="#425060" width="1.4" height="1"/>
		</g>
		<g>
			
				<rect x="14.1" y="30.3" transform="matrix(-0.4999 -0.8661 0.8661 -0.4999 -4.9302 59.1221)" fill="#425060" width="1" height="1.4"/>
		</g>
		<g>
			<rect x="34.9" y="18.3" transform="matrix(-0.5 -0.866 0.866 -0.5 36.6289 59.1784)" fill="#425060" width="1" height="1.4"/>
		</g>
		<g>
			<rect x="18.5" y="34.7" transform="matrix(-0.866 -0.5 0.5 -0.866 17.7405 75.5425)" fill="#425060" width="1" height="1.4"/>
		</g>
		<g>
			
				<rect x="30.5" y="13.9" transform="matrix(-0.8661 -0.4999 0.4999 -0.8661 50.5602 42.7555)" fill="#425060" width="1" height="1.4"/>
		</g>
		<g>
			<circle fill="#FF6989" cx="25" cy="25" r="1.9"/>
		</g>
		<g>
			<rect x="24.5" y="18.4" fill="#425060" width="1" height="4.7"/>
		</g>
		<g>
			
				<rect x="25.7" y="27.5" transform="matrix(-0.7071 -0.7071 0.7071 -0.7071 28.1146 67.6891)" fill="#425060" width="4.7" height="1"/>
		</g>
	</g>
</g>
</svg>
