<?xml version="1.0" encoding="utf-8"?>
<!-- Generator: Adobe Illustrator 18.0.0, SVG Export Plug-In . SVG Version: 6.00 Build 0)  -->
<!DOCTYPE svg PUBLIC "-//W3C//DTD SVG 1.1//EN" "http://www.w3.org/Graphics/SVG/1.1/DTD/svg11.dtd">
<svg version="1.1" id="Layer_1" xmlns="http://www.w3.org/2000/svg" xmlns:xlink="http://www.w3.org/1999/xlink" x="0px" y="0px"
	 viewBox="0 0 50 50" enable-background="new 0 0 50 50" xml:space="preserve">
<g>
	<g>
		<g>
			<path fill="#616B77" d="M41,40.6L41,40.6c0,4.7-4.1,8.4-8.9,8.4H17.9C13.1,49,9,45.3,9,40.7v-0.1c0-7.3,5.2-9.4,12.1-9.9l3.8,4.4
				l3.8-4.4c1.4,0.1,2.6,0.2,3.8,0.5C37.6,32.2,41,34.7,41,40.6z"/>
		</g>
		<g>
			<polygon fill="#FA4968" points="23.7,35.2 22,44.2 24.9,46.2 27.7,44.2 26,35.2 			"/>
		</g>
		<g>
			<path fill="#DDEDEB" d="M32.7,31.2l-4,6.8L25,35.2l3.8-4.4C30.2,30.8,31.5,31,32.7,31.2z"/>
		</g>
		<g>
			<path fill="#DDEDEB" d="M17.3,31.2l3.9,6.8l3.7-2.9l-3.8-4.4C19.8,30.8,18.5,31,17.3,31.2z"/>
		</g>
	</g>
	<g>
		<g>
			<path fill="#FFB95C" d="M21,22.3h8c0.4-1.3,1.1-2.5,2.1-3.5c1.7-1.8,2.6-4.3,2.2-7.1C32.8,8,29.7,5,26,4.6C20.9,4,16.6,8,16.6,13
				c0,2.2,0.8,4.2,2.2,5.7C19.7,19.7,20.5,21,21,22.3z"/>
		</g>
		<g>
			<path fill="#FFCA8A" d="M19.3,10.8l-1-0.4c0.6-1.5,1.7-2.8,3.1-3.6l0.5,0.9C20.7,8.4,19.8,9.5,19.3,10.8z"/>
		</g>
		<g>
			<path fill="#FFCA8A" d="M23.2,7.1l-0.3-1c0.3-0.1,0.7-0.2,1-0.2l0.2,1C23.7,7,23.4,7,23.2,7.1z"/>
		</g>
		<g>
			<path fill="#FFFFFF" d="M26.8,22.3h-1v-7.7h-1.5v7.5h-1v-7.5h-0.7c-1,0-1.7-0.8-1.7-1.7s0.8-1.7,1.7-1.7c1,0,1.7,0.8,1.7,1.7v0.7
				h1.5v-0.7c0-1,0.8-1.7,1.7-1.7c1,0,1.7,0.8,1.7,1.7s-0.8,1.7-1.7,1.7h-0.7V22.3z M26.8,13.6h0.7c0.4,0,0.7-0.3,0.7-0.7
				s-0.3-0.7-0.7-0.7c-0.4,0-0.7,0.3-0.7,0.7V13.6z M22.5,12.1c-0.4,0-0.7,0.3-0.7,0.7s0.3,0.7,0.7,0.7h0.7v-0.7
				C23.2,12.5,22.9,12.1,22.5,12.1z"/>
		</g>
		<g>
			<path fill="#616B77" d="M28.4,22.3h-6.9c-0.7,0-1.4,0.6-1.4,1.4l0,0c0,0.8,0.6,1.4,1.4,1.4h6.9c0.7,0,1.4-0.6,1.4-1.4l0,0
				C29.8,22.9,29.2,22.3,28.4,22.3z"/>
		</g>
		<g>
			<path fill="#616B77" d="M28.4,25.1h-6.9c-0.7,0-1.4,0.6-1.4,1.4s0.6,1.4,1.4,1.4h6.9c0.7,0,1.4-0.6,1.4-1.4S29.2,25.1,28.4,25.1z
				"/>
		</g>
		<g>
			<path fill="#616B77" d="M22.2,27.8c0.2,1.3,1.4,2.3,2.8,2.3s2.5-1,2.8-2.3H22.2z"/>
		</g>
		<g>
			<rect x="35.6" y="12.5" fill="#616B77" width="1.3" height="1"/>
			<rect x="13.1" y="12.5" fill="#616B77" width="1.3" height="1"/>
			<rect x="24.5" y="1" fill="#616B77" width="1" height="1.3"/>
			
				<rect x="32.3" y="20.5" transform="matrix(0.7047 0.7095 -0.7095 0.7047 24.669 -17.1757)" fill="#616B77" width="1.3" height="1"/>
			
				<rect x="16.4" y="4.5" transform="matrix(0.7047 0.7095 -0.7095 0.7047 8.5467 -10.619)" fill="#616B77" width="1.3" height="1"/>
			
				<rect x="16.4" y="20.5" transform="matrix(-0.7047 0.7095 -0.7095 -0.7047 43.9252 23.7026)" fill="#616B77" width="1.3" height="1"/>
			
				<rect x="32.3" y="4.5" transform="matrix(-0.7047 0.7095 -0.7095 -0.7047 59.7522 -14.8531)" fill="#616B77" width="1.3" height="1"/>
			<rect x="34.9" y="8" transform="matrix(-0.3849 -0.923 0.923 -0.3849 41.0695 44.6672)" fill="#616B77" width="1" height="1.3"/>
			<rect x="14.1" y="16.7" transform="matrix(0.3848 0.923 -0.923 0.3848 24.9689 -2.808)" fill="#616B77" width="1" height="1.3"/>
			
				<rect x="20" y="2.1" transform="matrix(0.3809 0.9246 -0.9246 0.3809 15.1781 -17.5292)" fill="#616B77" width="1.3" height="1"/>
			
				<rect x="34.7" y="16.9" transform="matrix(0.923 0.3848 -0.3848 0.923 9.4048 -12.2692)" fill="#616B77" width="1.3" height="1"/>
			<rect x="14" y="8.1" transform="matrix(0.923 0.3848 -0.3848 0.923 4.4526 -4.9673)" fill="#616B77" width="1.3" height="1"/>
			
				<rect x="28.7" y="2" transform="matrix(-0.3809 0.9246 -0.9246 -0.3809 42.7597 -23.6679)" fill="#616B77" width="1.3" height="1"/>
		</g>
	</g>
</g>
</svg>
