<?xml version="1.0" encoding="utf-8"?>
<!-- Generator: Adobe Illustrator 18.0.0, SVG Export Plug-In . SVG Version: 6.00 Build 0)  -->
<!DOCTYPE svg PUBLIC "-//W3C//DTD SVG 1.1//EN" "http://www.w3.org/Graphics/SVG/1.1/DTD/svg11.dtd">
<svg version="1.1" id="Layer_1" xmlns="http://www.w3.org/2000/svg" xmlns:xlink="http://www.w3.org/1999/xlink" x="0px" y="0px"
	 viewBox="0 0 50 50" enable-background="new 0 0 50 50" xml:space="preserve">
<g>
	<g>
		<g>
			<g>
				<polygon fill="#FA4968" points="25,10.4 18.4,5.7 25,1 31.6,5.7 				"/>
			</g>
			<g>
				<polygon fill="#6CD8D5" points="31.6,15.1 25,10.4 31.6,5.7 38.3,10.4 				"/>
			</g>
			<g>
				<polygon fill="#ABB734" points="38.3,19.7 31.6,15.1 38.3,10.4 44.9,15.1 				"/>
			</g>
		</g>
		<g>
			<g>
				<polygon fill="#F76861" points="11.7,19.7 5.1,15.1 11.7,10.4 18.4,15.1 				"/>
			</g>
			<g>
				<polygon fill="#E5E5E5" points="18.4,24.4 11.7,19.7 18.4,15.1 25,19.7 				"/>
			</g>
			<g>
				<polygon fill="#A7CEC8" points="25,29.1 18.4,24.4 25,19.7 31.6,24.4 				"/>
			</g>
		</g>
		<g>
			<g>
				<polygon fill="#FFB95C" points="18.4,15.1 11.7,10.4 18.4,5.7 25,10.4 				"/>
			</g>
			<g>
				<polygon fill="#559AFF" points="25,19.7 18.4,15.1 25,10.4 31.6,15.1 				"/>
			</g>
			<g>
				<polygon fill="#D9BAA8" points="31.6,24.4 25,19.7 31.6,15.1 38.3,19.7 				"/>
			</g>
		</g>
	</g>
	<g>
		<g>
			<g>
				<polygon fill="#FFB95C" points="31.7,31.1 25,35.7 25,29.1 31.7,24.4 				"/>
			</g>
			<g>
				<polygon fill="#6CD8D5" points="38.3,26.4 31.7,31.1 31.7,24.4 38.3,19.7 				"/>
			</g>
			<g>
				<polygon fill="#FF8C83" points="45,21.7 38.3,26.4 38.3,19.7 45,15 				"/>
			</g>
		</g>
		<g>
			<g>
				<polygon fill="#6CD8D5" points="31.7,44.3 25,49 25,42.4 31.7,37.7 				"/>
			</g>
			<g>
				<polygon fill="#FF8C83" points="38.3,39.6 31.7,44.3 31.7,37.7 38.3,33 				"/>
			</g>
			<g>
				<polygon fill="#559AFF" points="45,34.9 38.3,39.6 38.3,33 45,28.3 				"/>
			</g>
		</g>
		<g>
			<g>
				<polygon fill="#D9BAA8" points="31.7,37.7 25,42.4 25,35.7 31.7,31.1 				"/>
			</g>
			<g>
				<polygon fill="#C5DFDC" points="38.3,33 31.7,37.7 31.7,31.1 38.3,26.4 				"/>
			</g>
			<g>
				<polygon fill="#6E9583" points="45,28.3 38.3,33 38.3,26.4 45,21.7 				"/>
			</g>
		</g>
	</g>
	<g>
		<g>
			<g>
				<polygon fill="#FA4968" points="18.3,31.1 25,35.7 25,29.1 18.3,24.4 				"/>
			</g>
			<g>
				<polygon fill="#616B77" points="11.7,26.4 18.3,31.1 18.3,24.4 11.7,19.7 				"/>
			</g>
			<g>
				<polygon fill="#FECD04" points="5,21.7 11.7,26.4 11.7,19.7 5,15 				"/>
			</g>
		</g>
		<g>
			<g>
				<polygon fill="#FFB95C" points="18.3,44.3 25,49 25,42.4 18.3,37.7 				"/>
			</g>
			<g>
				<polygon fill="#FA4968" points="11.7,39.6 18.3,44.3 18.3,37.7 11.7,33 				"/>
			</g>
			<g>
				<polygon fill="#525F70" points="5,34.9 11.7,39.6 11.7,33 5,28.3 				"/>
			</g>
		</g>
		<g>
			<g>
				<polygon fill="#E5E5E5" points="18.3,37.7 25,42.4 25,35.7 18.3,31.1 				"/>
			</g>
			<g>
				<polygon fill="#ABB734" points="11.7,33 18.3,37.7 18.3,31.1 11.7,26.4 				"/>
			</g>
			<g>
				<polygon fill="#559AFF" points="5,28.3 11.7,33 11.7,26.4 5,21.7 				"/>
			</g>
		</g>
	</g>
</g>
</svg>
