<?xml version="1.0" encoding="utf-8"?>
<!-- Generator: Adobe Illustrator 18.0.0, SVG Export Plug-In . SVG Version: 6.00 Build 0)  -->
<!DOCTYPE svg PUBLIC "-//W3C//DTD SVG 1.1//EN" "http://www.w3.org/Graphics/SVG/1.1/DTD/svg11.dtd">
<svg version="1.1" id="Layer_1" xmlns="http://www.w3.org/2000/svg" xmlns:xlink="http://www.w3.org/1999/xlink" x="0px" y="0px"
	 viewBox="0 0 50 50" enable-background="new 0 0 50 50" xml:space="preserve">
<g>
	<g>
		<g>
			<ellipse fill="#FECD04" cx="40.5" cy="38.8" rx="8.5" ry="8.5"/>
		</g>
	</g>
	<g>
		<g>
			<g>
				<path fill="#425060" d="M42.7,39.3h-4.4c-1.1,0-2-0.9-2-2v-1.1c0-1.1,0.9-2,2-2h4.4c1.1,0,2,0.9,2,2h-1c0-0.6-0.5-1-1-1h-4.4
					c-0.6,0-1,0.5-1,1v1.1c0,0.6,0.5,1,1,1h4.4V39.3z"/>
			</g>
		</g>
		<g>
			<g>
				<path fill="#425060" d="M42.7,43.5h-4.4c-1.1,0-2-0.9-2-2h1c0,0.6,0.5,1,1,1h4.4c0.6,0,1-0.5,1-1v-1.1c0-0.6-0.5-1-1-1h-4.4v-1
					h4.4c1.1,0,2,0.9,2,2v1.1C44.8,42.6,43.9,43.5,42.7,43.5z"/>
			</g>
		</g>
		<g>
			<g>
				<rect x="40" y="43" fill="#425060" width="1" height="1.6"/>
			</g>
		</g>
		<g>
			<g>
				<rect x="40" y="33" fill="#425060" width="1" height="1.6"/>
			</g>
		</g>
	</g>
	<g>
		<g>
			<path fill="#FFB95C" d="M11.5,31h10.8c0.6-1.7,1.5-3.3,2.8-4.7c2.2-2.4,3.5-5.7,2.9-9.3c-0.7-4.9-4.8-8.9-9.8-9.5
				C11.5,6.7,5.7,12,5.7,18.6c0,2.9,1.1,5.5,2.9,7.5C9.9,27.6,10.9,29.2,11.5,31z"/>
		</g>
	</g>
	<g>
		<g>
			<path fill="#FFCA8A" d="M9.1,15.6l-0.9-0.4c0.8-2,2.2-3.7,4-4.7l0.5,0.9C11.1,12.4,9.8,13.9,9.1,15.6z"/>
		</g>
	</g>
	<g>
		<g>
			<path fill="#FFCA8A" d="M14.4,10.7l-0.3-1c0.4-0.1,0.9-0.2,1.3-0.3l0.2,1C15.2,10.5,14.8,10.6,14.4,10.7z"/>
		</g>
	</g>
	<g>
		<g>
			<path fill="#FFFFFF" d="M19.1,31h-1V20.6h-2.4v10.1h-1V20.6h-1.1c-1.2,0-2.1-1-2.1-2.1s1-2.1,2.1-2.1c1.2,0,2.1,1,2.1,2.1v1.1
				h2.4v-1.1c0-1.2,1-2.1,2.1-2.1c1.2,0,2.1,1,2.1,2.1s-1,2.1-2.1,2.1h-1.1V31z M19.1,19.6h1.1c0.6,0,1.1-0.5,1.1-1.1
				s-0.5-1.1-1.1-1.1s-1.1,0.5-1.1,1.1V19.6z M13.6,17.3c-0.6,0-1.1,0.5-1.1,1.1s0.5,1.1,1.1,1.1h1.1v-1.1
				C14.7,17.8,14.2,17.3,13.6,17.3z"/>
		</g>
	</g>
	<g>
		<g>
			<path fill="#616B77" d="M21.5,31h-9.2c-1,0-1.8,0.8-1.8,1.8l0,0c0,1,0.8,1.8,1.8,1.8h9.2c1,0,1.8-0.8,1.8-1.8l0,0
				C23.3,31.8,22.5,31,21.5,31z"/>
		</g>
	</g>
	<g>
		<g>
			<path fill="#616B77" d="M21.5,34.6h-9.2c-1,0-1.8,0.8-1.8,1.8s0.8,1.8,1.8,1.8h9.2c1,0,1.8-0.8,1.8-1.8
				C23.3,35.4,22.5,34.6,21.5,34.6z"/>
		</g>
	</g>
	<g>
		<g>
			<path fill="#616B77" d="M13.2,38.2c0.3,1.8,1.8,3.1,3.7,3.1c1.8,0,3.4-1.3,3.7-3.1H13.2z"/>
		</g>
	</g>
	<g>
		<g>
			<g>
				<g>
					<g>
						<g>
							<line fill="none" x1="31" y1="18.6" x2="32.8" y2="18.6"/>
							<rect x="31" y="18.1" fill="#FFB95C" width="1.8" height="1"/>
						</g>
					</g>
					<g>
						<g>
							<line fill="none" x1="1" y1="18.6" x2="2.8" y2="18.6"/>
							<rect x="1" y="18.1" fill="#FFB95C" width="1.8" height="1"/>
						</g>
					</g>
				</g>
				<g>
					<g>
						<g>
							<line fill="none" x1="16.9" y1="2.7" x2="16.9" y2="4.5"/>
							<rect x="16.4" y="2.7" fill="#FFB95C" width="1" height="1.8"/>
						</g>
					</g>
				</g>
			</g>
			<g>
				<g>
					<g>
						<g>
							<line fill="none" x1="31" y1="18.6" x2="32.8" y2="18.6"/>
							<rect x="31" y="18.1" fill="#FFB95C" width="1.8" height="1"/>
						</g>
					</g>
					<g>
						<g>
							<line fill="none" x1="1" y1="18.6" x2="2.8" y2="18.6"/>
							<rect x="1" y="18.1" fill="#FFB95C" width="1.8" height="1"/>
						</g>
					</g>
				</g>
				<g>
					<g>
						<g>
							<line fill="none" x1="16.9" y1="2.7" x2="16.9" y2="4.5"/>
							<rect x="16.4" y="2.7" fill="#FFB95C" width="1" height="1.8"/>
						</g>
					</g>
				</g>
			</g>
			<g>
				<g>
					<g>
						<g>
							<line fill="none" x1="26.9" y1="28.6" x2="28.1" y2="29.9"/>
							
								<rect x="26.6" y="28.7" transform="matrix(-0.7071 -0.7071 0.7071 -0.7071 26.3641 69.3153)" fill="#FFB95C" width="1.8" height="1"/>
						</g>
					</g>
					<g>
						<g>
							<line fill="none" x1="5.7" y1="7.4" x2="6.9" y2="8.6"/>
							
								<rect x="5.4" y="7.5" transform="matrix(-0.7071 -0.7071 0.7071 -0.7071 5.0742 18.1348)" fill="#FFB95C" width="1.8" height="1"/>
						</g>
					</g>
				</g>
				<g>
					<g>
						<g>
							<line fill="none" x1="6.9" y1="28.6" x2="5.7" y2="29.9"/>
							
								<rect x="5.8" y="28.4" transform="matrix(-0.7071 -0.7071 0.7071 -0.7071 -10.0423 54.4407)" fill="#FFB95C" width="1" height="1.8"/>
						</g>
					</g>
					<g>
						<g>
							<line fill="none" x1="28.1" y1="7.4" x2="26.9" y2="8.6"/>
							
								<rect x="27" y="7.1" transform="matrix(-0.7071 -0.7071 0.7071 -0.7071 41.3098 33.0802)" fill="#FFB95C" width="1" height="1.8"/>
						</g>
					</g>
				</g>
			</g>
		</g>
		<g>
			<g>
				<g>
					<g>
						<g>
							<line fill="none" x1="30" y1="13.2" x2="31.6" y2="12.5"/>
							
								<rect x="30.3" y="12" transform="matrix(-0.3828 -0.9238 0.9238 -0.3828 30.6173 46.2609)" fill="#FFB95C" width="1" height="1.8"/>
						</g>
					</g>
					<g>
						<g>
							<line fill="none" x1="2.2" y1="24.7" x2="3.8" y2="24"/>
							
								<rect x="2.5" y="23.5" transform="matrix(-0.3828 -0.9238 0.9238 -0.3828 -18.3781 36.4482)" fill="#FFB95C" width="1" height="1.8"/>
						</g>
					</g>
				</g>
				<g>
					<g>
						<g>
							<line fill="none" x1="10.8" y1="3.9" x2="11.5" y2="5.6"/>
							
								<rect x="10.3" y="4.3" transform="matrix(-0.3831 -0.9237 0.9237 -0.3831 11.0961 16.9555)" fill="#FFB95C" width="1.8" height="1"/>
						</g>
					</g>
				</g>
			</g>
			<g>
				<g>
					<g>
						<g>
							<line fill="none" x1="30" y1="13.2" x2="31.6" y2="12.5"/>
							
								<rect x="30.3" y="12" transform="matrix(-0.3828 -0.9238 0.9238 -0.3828 30.6173 46.2609)" fill="#FFB95C" width="1" height="1.8"/>
						</g>
					</g>
					<g>
						<g>
							<line fill="none" x1="2.2" y1="24.7" x2="3.8" y2="24"/>
							
								<rect x="2.5" y="23.5" transform="matrix(-0.3828 -0.9238 0.9238 -0.3828 -18.3781 36.4482)" fill="#FFB95C" width="1" height="1.8"/>
						</g>
					</g>
				</g>
				<g>
					<g>
						<g>
							<line fill="none" x1="10.8" y1="3.9" x2="11.5" y2="5.6"/>
							
								<rect x="10.3" y="4.3" transform="matrix(-0.3831 -0.9237 0.9237 -0.3831 11.0961 16.9555)" fill="#FFB95C" width="1.8" height="1"/>
						</g>
					</g>
				</g>
			</g>
			<g>
				<g>
					<g>
						<g>
							<line fill="none" x1="30" y1="24" x2="31.6" y2="24.7"/>
							
								<rect x="29.9" y="23.9" transform="matrix(-0.9239 -0.3826 0.3826 -0.9239 49.893 58.734)" fill="#FFB95C" width="1.8" height="1"/>
						</g>
					</g>
					<g>
						<g>
							<line fill="none" x1="2.2" y1="12.5" x2="3.8" y2="13.2"/>
							
								<rect x="2.1" y="12.4" transform="matrix(-0.9239 -0.3826 0.3826 -0.9239 0.8231 25.9439)" fill="#FFB95C" width="1.8" height="1"/>
						</g>
					</g>
				</g>
				<g>
					<g>
						<g>
							<line fill="none" x1="23" y1="3.9" x2="22.3" y2="5.6"/>
							
								<rect x="22.1" y="3.9" transform="matrix(-0.9238 -0.3828 0.3828 -0.9238 41.6141 17.8344)" fill="#FFB95C" width="1" height="1.8"/>
						</g>
					</g>
				</g>
			</g>
		</g>
	</g>
	<g>
		<g>
			<path fill="#ABB734" d="M48.4,20.3H46V16c0-1.5-0.6-2.9-1.6-3.9s-2.3-1.6-3.8-1.6H36c1.5,0,2.9,0.6,3.8,1.6c1,1,1.6,2.3,1.6,3.9
				v4.3H39l4.6,5.3L48.4,20.3z"/>
		</g>
	</g>
</g>
</svg>
