<?xml version="1.0" encoding="utf-8"?>
<!-- Generator: Adobe Illustrator 18.0.0, SVG Export Plug-In . SVG Version: 6.00 Build 0)  -->
<!DOCTYPE svg PUBLIC "-//W3C//DTD SVG 1.1//EN" "http://www.w3.org/Graphics/SVG/1.1/DTD/svg11.dtd">
<svg version="1.1" id="Layer_1" xmlns="http://www.w3.org/2000/svg" xmlns:xlink="http://www.w3.org/1999/xlink" x="0px" y="0px"
	 viewBox="0 0 50 50" enable-background="new 0 0 50 50" xml:space="preserve">
<g>
	<g>
		<path fill="#E8CEC1" d="M44.6,43.3H5.4C3,43.3,1,41.4,1,39V22.6c0-2.4,2-4.4,4.4-4.4h39.2c2.4,0,4.4,2,4.4,4.4V39
			C49,41.4,47,43.3,44.6,43.3z"/>
	</g>
	<g opacity="0.3">
		<path fill="#FFFFFF" d="M3.6,25.6h-1v-2.8c0-1.6,1.3-3,3-3H10v1H5.5c-1.1,0-1.9,0.9-1.9,1.9V25.6z"/>
	</g>
	<g opacity="0.3">
		<rect x="11.7" y="19.8" fill="#FFFFFF" width="1.3" height="1"/>
	</g>
	<g>
		<ellipse fill="#6E9583" cx="40" cy="34.8" rx="3.2" ry="3.2"/>
	</g>
	<g opacity="0.3">
		<path fill="#FFFFFF" d="M39.4,34.8h-1c0-0.9,0.7-1.6,1.6-1.6v1C39.7,34.2,39.4,34.5,39.4,34.8z"/>
	</g>
	<g>
		<path fill="#6E9583" d="M46.6,42.9c0,0.5,0,0.9-0.1,1.5c-0.3,1.5-1.6,2.6-3.1,2.6h-6.7c-1.5,0-2.9-1.1-3.1-2.6
			c-0.1-0.5-0.1-1-0.1-1.5c0-2.8,1.7-3.7,4.1-4.1l2.6,2.2l2.6-2.2C44.9,39.2,46.6,40.2,46.6,42.9z"/>
	</g>
	<g>
		<ellipse fill="#ABB734" cx="25" cy="34.8" rx="3.2" ry="3.2"/>
	</g>
	<g opacity="0.3">
		<path fill="#FFFFFF" d="M24.4,34.8h-1c0-0.9,0.7-1.6,1.6-1.6v1C24.7,34.2,24.4,34.5,24.4,34.8z"/>
	</g>
	<g>
		<path fill="#ABB734" d="M31.6,42.9c0,0.5,0,0.9-0.1,1.5c-0.3,1.5-1.6,2.6-3.1,2.6h-6.7c-1.5,0-2.9-1.1-3.1-2.6
			c-0.1-0.5-0.1-1-0.1-1.5c0-2.8,1.7-3.7,4.1-4.1l2.6,2.2l2.6-2.2C29.9,39.2,31.6,40.2,31.6,42.9z"/>
	</g>
	<g>
		<ellipse fill="#559AFF" cx="10" cy="34.8" rx="3.2" ry="3.2"/>
	</g>
	<g opacity="0.3">
		<path fill="#FFFFFF" d="M9.4,34.8h-1c0-0.9,0.7-1.6,1.6-1.6v1C9.7,34.2,9.4,34.5,9.4,34.8z"/>
	</g>
	<g>
		<path fill="#559AFF" d="M16.6,42.9c0,0.5,0,0.9-0.1,1.5c-0.3,1.5-1.6,2.6-3.1,2.6H6.6c-1.5,0-2.9-1.1-3.1-2.6
			c-0.1-0.5-0.1-1-0.1-1.5c0-2.8,1.7-3.7,4.1-4.1l2.6,2.2l2.6-2.2C14.9,39.2,16.6,40.2,16.6,42.9z"/>
	</g>
	<g>
		<circle fill="#6CD8D5" cx="40" cy="6.2" r="3.2"/>
	</g>
	<g opacity="0.3">
		<path fill="#FFFFFF" d="M39.4,6.2h-1c0-0.9,0.7-1.6,1.6-1.6v1C39.7,5.6,39.4,5.9,39.4,6.2z"/>
	</g>
	<g>
		<path fill="#6CD8D5" d="M46.6,14.3c0,0.5,0,0.9-0.1,1.4c-0.3,1.5-1.6,2.5-3.1,2.5h-6.7c-1.5,0-2.9-1.1-3.1-2.5
			c-0.1-0.5-0.1-1-0.1-1.4c0-2.8,1.7-3.7,4.1-4l2.6,2.2l2.6-2.2C44.9,10.6,46.6,11.5,46.6,14.3z"/>
	</g>
	<g>
		<path fill="#50C9C3" d="M43.4,16.7h-6.7c-0.8,0-1.4-0.5-1.5-1.2C35,15,35,14.6,35,14.3h1c0,0.3,0,0.6,0.1,1c0,0.2,0.3,0.4,0.5,0.4
			h6.7c0.3,0,0.5-0.2,0.5-0.4c0.1-0.4,0.1-0.7,0.1-1h1c0,0.4,0,0.8-0.1,1.2C44.8,16.1,44.1,16.7,43.4,16.7z"/>
	</g>
	<g>
		<circle fill="#FFB95C" cx="25" cy="6.2" r="3.2"/>
	</g>
	<g opacity="0.3">
		<path fill="#FFFFFF" d="M24.4,6.2h-1c0-0.9,0.7-1.6,1.6-1.6v1C24.7,5.6,24.4,5.9,24.4,6.2z"/>
	</g>
	<g>
		<path fill="#FFB95C" d="M31.6,14.3c0,0.5,0,0.9-0.1,1.4c-0.3,1.5-1.6,2.5-3.1,2.5h-6.7c-1.5,0-2.9-1.1-3.1-2.5
			c-0.1-0.5-0.1-1-0.1-1.4c0-2.8,1.7-3.7,4.1-4l2.6,2.2l2.6-2.2C29.9,10.6,31.6,11.5,31.6,14.3z"/>
	</g>
	<g>
		<path fill="#F9A846" d="M28.4,16.7h-6.7c-0.8,0-1.4-0.5-1.5-1.2C20,15,20,14.6,20,14.3h1c0,0.3,0,0.6,0.1,1c0,0.2,0.3,0.4,0.5,0.4
			h6.7c0.3,0,0.5-0.2,0.5-0.4c0.1-0.4,0.1-0.7,0.1-1h1c0,0.4,0,0.8-0.1,1.2C29.8,16.1,29.1,16.7,28.4,16.7z"/>
	</g>
	<g>
		<circle fill="#FA4968" cx="10" cy="6.2" r="3.2"/>
	</g>
	<g opacity="0.3">
		<path fill="#FFFFFF" d="M9.4,6.2h-1c0-0.9,0.7-1.6,1.6-1.6v1C9.7,5.6,9.4,5.9,9.4,6.2z"/>
	</g>
	<g>
		<path fill="#FA4968" d="M16.6,14.3c0,0.5,0,0.9-0.1,1.4c-0.3,1.5-1.6,2.5-3.1,2.5H6.6c-1.5,0-2.9-1.1-3.1-2.5
			c-0.1-0.5-0.1-1-0.1-1.4c0-2.8,1.7-3.7,4.1-4l2.6,2.2l2.6-2.2C14.9,10.6,16.6,11.5,16.6,14.3z"/>
	</g>
	<g>
		<path fill="#ED2F58" d="M13.4,16.7H6.6c-0.8,0-1.4-0.5-1.5-1.2C5,15,5,14.6,5,14.3h1c0,0.3,0,0.6,0.1,1c0,0.2,0.3,0.4,0.5,0.4h6.7
			c0.3,0,0.5-0.2,0.5-0.4c0.1-0.4,0.1-0.7,0.1-1h1c0,0.4,0,0.8-0.1,1.2C14.8,16.1,14.1,16.7,13.4,16.7z"/>
	</g>
</g>
</svg>
