<?xml version="1.0" encoding="utf-8"?>
<!-- Generator: Adobe Illustrator 18.0.0, SVG Export Plug-In . SVG Version: 6.00 Build 0)  -->
<!DOCTYPE svg PUBLIC "-//W3C//DTD SVG 1.1//EN" "http://www.w3.org/Graphics/SVG/1.1/DTD/svg11.dtd">
<svg version="1.1" id="Layer_1" xmlns="http://www.w3.org/2000/svg" xmlns:xlink="http://www.w3.org/1999/xlink" x="0px" y="0px"
	 viewBox="0 0 50 50" enable-background="new 0 0 50 50" xml:space="preserve">
<g>
	<g>
		<path fill="#559AFF" d="M34.8,24.9c0,0,1.7-0.1,3.1-1.3c1.1,0.8,2.6,1.3,4.1,1.3c3.8,0,6.9-3.1,6.9-6.9s-3.1-6.9-6.9-6.9
			s-6.9,3.1-6.9,6.9c0,1.3,0.4,2.5,1,3.5C35.9,22.6,35.5,23.8,34.8,24.9z"/>
	</g>
	<g>
		<g>
			<g>
				<path fill="#E5E5E5" d="M29.2,44c4.2,0,7.8-3.3,7.9-7.5c0,0,0,0,0-0.1c0-7.7-6.3-9-14.1-9s-14.1,1.3-14.1,9c0,0,0,0,0,0.1
					c0,4.2,3.6,7.5,7.9,7.5H29.2z"/>
			</g>
			<g>
				<path fill="#616B77" d="M37.1,36.4L37.1,36.4c0,4.3-3.6,7.6-7.9,7.6H16.7c-4.2,0-7.8-3.3-7.9-7.5v-0.1c0-7.7,6.3-9,14.1-9
					c1.2,0,2.3,0,3.4,0.1c1.2,0.1,2.3,0.2,3.4,0.4C34.1,28.8,37.1,31.1,37.1,36.4z"/>
			</g>
			<g>
				<path fill="#D9BAA8" d="M20.4,19.7c0,0-0.7,7.8-0.7,8.6c0,1.8,1.5,3.2,3.3,3.2s3.3-1.5,3.3-3.2c0-0.7-0.7-8.6-0.7-8.6H20.4z"/>
			</g>
			<g>
				<path fill="#C9A28F" d="M32.9,16.3c-0.5,1.5-1.5,2.3-3.1,1.8S26.5,16,27,14.5s3.4-2.1,5-1.6C33.6,13.4,33.3,14.9,32.9,16.3z"/>
			</g>
			<g>
				<path fill="#C9A28F" d="M13.1,16.3c0.5,1.5,1.5,2.3,3.1,1.8s3.3-2.1,2.8-3.6s-3.4-2.1-5-1.6C12.4,13.4,12.6,14.9,13.1,16.3z"/>
			</g>
			<g>
				<path fill="#E8CEC1" d="M31.3,11.9c0,5.9-2.3,13.4-8.3,13.4s-8.3-7.5-8.3-13.4s2.3-8,8.3-8C29,3.9,31.3,6,31.3,11.9z"/>
			</g>
			<g>
				<path fill="#FECD04" d="M10.3,9.8c5.4-1.5,4.4-11.6,9.6-7.2C23.3,5.5,16.2,14.5,10.3,9.8z"/>
			</g>
			<g opacity="0.3">
				<path fill="#FFFFFF" d="M14.7,9.5l-0.2-1c0.8-0.2,1.6-0.6,2.3-1.3l0.7,0.7C16.7,8.8,15.7,9.3,14.7,9.5z"/>
			</g>
			<g>
				<path fill="#FECD04" d="M31.6,12.4c-4-6.1-14.9-0.6-12.1-9C21.3-2.1,34.5,3.1,31.6,12.4z"/>
			</g>
			<g opacity="0.3">
				<path fill="#FFFFFF" d="M28.4,6.5c-0.7-1-1.8-1.8-3-2.4l0.4-0.9c1.4,0.6,2.6,1.5,3.5,2.7L28.4,6.5z"/>
			</g>
			<g opacity="0.3">
				<path fill="#FFFFFF" d="M23.8,3.7c-0.3,0-0.5-0.1-0.7-0.1v-1c0.3,0,0.6,0,0.9,0.1L23.8,3.7z"/>
			</g>
			<g>
				<line fill="none" x1="25.1" y1="13.1" x2="27.3" y2="13.1"/>
			</g>
			<g>
				<circle fill="#616B77" cx="25.9" cy="14.8" r="0.5"/>
			</g>
			<g>
				<path fill="#E5E5E5" d="M21.9,18c0.7,0.5,1.4,0.5,2.2,0"/>
				<path fill="#C9A28F" d="M23,18.8c-0.5,0-0.9-0.1-1.3-0.5l0.6-0.8c0.5,0.4,1,0.4,1.6,0l0.5,0.8C23.9,18.7,23.4,18.8,23,18.8z"/>
			</g>
			<g>
				<line fill="none" x1="20.8" y1="13.1" x2="18.7" y2="13.1"/>
			</g>
			<g>
				<circle fill="#616B77" cx="20.1" cy="14.8" r="0.5"/>
			</g>
			<g>
				<path fill="#425060" d="M23,22.3c-1.2,0-2.3-0.5-3.1-1.5l0.8-0.6c0.6,0.7,1.4,1.1,2.3,1.1s1.8-0.4,2.3-1.1l0.8,0.6
					C25.3,21.8,24.2,22.3,23,22.3z"/>
			</g>
			<g opacity="0.2">
				<circle fill="#FFFFFF" cx="27.3" cy="18.5" r="0.9"/>
			</g>
			<g opacity="0.2">
				<circle fill="#FFFFFF" cx="19.4" cy="18.5" r="0.9"/>
			</g>
			<g>
				<polygon fill="#FA4968" points="21.9,31.5 20.4,40.6 22.8,42.4 25.3,40.6 23.8,31.5 				"/>
			</g>
			<g>
				<path fill="#DDEDEB" d="M29.7,27.9l-3.5,6.2L23,31.5l3.4-4C27.6,27.6,28.7,27.7,29.7,27.9z"/>
			</g>
			<g>
				<path fill="#DDEDEB" d="M16.2,27.9l3.5,6.2l3.3-2.6l-3.4-4C18.4,27.6,17.2,27.7,16.2,27.9z"/>
			</g>
		</g>
		<g>
			<g>
				<rect x="1" y="36.9" fill="#D9BAA8" width="44" height="2.6"/>
			</g>
			<g>
				<polygon fill="#C9A28F" points="39.7,48.8 41.5,39.6 4.4,39.6 6.3,48.8 				"/>
			</g>
		</g>
	</g>
	<g>
		<g>
			<circle fill="#FFFFFF" cx="42" cy="14.7" r="1.3"/>
		</g>
		<g>
			<path fill="#FFFFFF" d="M43.2,18.3c0,0.7-0.6,4.2-1.3,4.2s-1.3-3.5-1.3-4.2s0.6-1.3,1.3-1.3S43.2,17.6,43.2,18.3z"/>
		</g>
	</g>
</g>
</svg>
