<?xml version="1.0" encoding="utf-8"?>
<!-- Generator: Adobe Illustrator 18.0.0, SVG Export Plug-In . SVG Version: 6.00 Build 0)  -->
<!DOCTYPE svg PUBLIC "-//W3C//DTD SVG 1.1//EN" "http://www.w3.org/Graphics/SVG/1.1/DTD/svg11.dtd">
<svg version="1.1" id="Layer_1" xmlns="http://www.w3.org/2000/svg" xmlns:xlink="http://www.w3.org/1999/xlink" x="0px" y="0px"
	 viewBox="0 0 50 50" enable-background="new 0 0 50 50" xml:space="preserve">
<g>
	<g>
		<path fill="#E5E5E5" d="M32,49c4.8,0,8.8-3.7,8.8-8.4v-0.1c0-8.7-7.1-10.1-15.8-10.1c-8.8,0-15.8,1.4-15.8,10.1v0.1
			c0,4.7,4.1,8.4,8.8,8.4H32z"/>
	</g>
	<g>
		<path fill="#616B77" d="M40.8,40.5L40.8,40.5c0,4.8-4.1,8.5-8.8,8.5H18c-4.8,0-8.8-3.7-8.8-8.4v-0.1c0-8.7,7.1-10.1,15.8-10.1
			c1.3,0,2.6,0,3.8,0.1c1.3,0.1,2.6,0.2,3.8,0.5C37.5,32,40.8,34.6,40.8,40.5z"/>
	</g>
	<g>
		<path fill="#D9BAA8" d="M22.1,21.7c0,0-0.8,8.8-0.8,9.6c0,2,1.6,3.6,3.7,3.6s3.7-1.6,3.7-3.6c0-0.8-0.8-9.6-0.8-9.6H22.1z"/>
	</g>
	<g>
		<path fill="#C9A28F" d="M36.1,18c-0.5,1.7-1.7,2.5-3.5,2c-1.8-0.6-3.6-2.4-3.1-4c0.5-1.7,3.8-2.3,5.6-1.8
			C36.9,14.8,36.6,16.4,36.1,18z"/>
	</g>
	<g>
		<path fill="#C9A28F" d="M13.9,18c0.5,1.7,1.7,2.5,3.5,2c1.8-0.6,3.6-2.4,3.1-4c-0.5-1.7-3.8-2.3-5.6-1.8
			C13.1,14.8,13.4,16.4,13.9,18z"/>
	</g>
	<g>
		<path fill="#E8CEC1" d="M34.3,13c0,6.6-2.6,15-9.3,15s-9.3-8.4-9.3-15s2.6-9,9.3-9S34.3,6.4,34.3,13z"/>
	</g>
	<g>
		<path fill="#FECD04" d="M10.8,10.6c6-1.7,4.9-13,10.8-8C25.4,5.8,17.4,16,10.8,10.6z"/>
	</g>
	<g opacity="0.3">
		<path fill="#FFFFFF" d="M15.8,10.3l-0.2-1c0.9-0.2,1.8-0.7,2.7-1.5L19,8.5C18,9.5,16.9,10.1,15.8,10.3z"/>
	</g>
	<g>
		<path fill="#FECD04" d="M34.6,13.6C30.2,6.8,18,12.9,21.1,3.5C23.2-2.6,37.9,3.1,34.6,13.6z"/>
	</g>
	<g opacity="0.3">
		<path fill="#FFFFFF" d="M31.1,7c-0.8-1.1-2.1-2.1-3.4-2.7l0.4-0.9c1.5,0.7,2.9,1.7,3.9,3L31.1,7z"/>
	</g>
	<g opacity="0.3">
		<path fill="#FFFFFF" d="M26,3.8c-0.3,0-0.6-0.1-0.8-0.1v-1c0.3,0,0.6,0,1,0.1L26,3.8z"/>
	</g>
	<g>
		<rect x="27.4" y="13.9" fill="#425060" width="2.4" height="1"/>
	</g>
	<g>
		<circle fill="#616B77" cx="28.2" cy="16.3" r="0.6"/>
	</g>
	<g>
		<path fill="#E5E5E5" d="M23.8,19.9c0.7,0.5,1.6,0.6,2.4,0"/>
		<path fill="#C9A28F" d="M25,20.8c-0.5,0-1-0.2-1.5-0.5l0.6-0.8c0.6,0.4,1.2,0.4,1.9,0l0.6,0.9C26,20.6,25.5,20.8,25,20.8z"/>
	</g>
	<g>
		<rect x="20.2" y="13.9" fill="#425060" width="2.4" height="1"/>
	</g>
	<g>
		<circle fill="#616B77" cx="21.8" cy="16.3" r="0.6"/>
	</g>
	<g>
		<path fill="#425060" d="M25,24.7c-1.3,0-2.6-0.6-3.4-1.6l0.8-0.7c0.7,0.8,1.6,1.3,2.7,1.3c1,0,2-0.5,2.7-1.3l0.8,0.7
			C27.6,24.1,26.3,24.7,25,24.7z"/>
	</g>
	<g opacity="0.2">
		<circle fill="#FFFFFF" cx="29.8" cy="20.5" r="1"/>
	</g>
	<g opacity="0.2">
		<circle fill="#FFFFFF" cx="21" cy="20.5" r="1"/>
	</g>
	<g>
		<polygon fill="#FA4968" points="23.7,35 22.1,45.2 24.9,47.2 27.7,45.2 26,35 		"/>
	</g>
	<g>
		<path fill="#DDEDEB" d="M32.6,31l-3.9,6.9L25,35l3.8-4.5C30.1,30.6,31.4,30.7,32.6,31z"/>
	</g>
	<g>
		<path fill="#DDEDEB" d="M17.4,31l3.9,6.9L25,35l-3.8-4.5C19.8,30.6,18.6,30.7,17.4,31z"/>
	</g>
</g>
</svg>
