<?xml version="1.0" encoding="utf-8"?>
<!-- Generator: Adobe Illustrator 18.0.0, SVG Export Plug-In . SVG Version: 6.00 Build 0)  -->
<!DOCTYPE svg PUBLIC "-//W3C//DTD SVG 1.1//EN" "http://www.w3.org/Graphics/SVG/1.1/DTD/svg11.dtd">
<svg version="1.1" id="Layer_1" xmlns="http://www.w3.org/2000/svg" xmlns:xlink="http://www.w3.org/1999/xlink" x="0px" y="0px"
	 viewBox="0 0 50 50" enable-background="new 0 0 50 50" xml:space="preserve">
<g>
	<g>
		<g>
			<path fill="#E5E5E5" d="M30.6,35.9c3.5,0,6.4-2.7,6.4-6.1c0,0,0,0,0-0.1c0-6.3-5.2-7.3-11.5-7.3c-6.4,0-11.5,1.1-11.5,7.3
				c0,0,0,0,0,0.1c0,3.4,3,6.1,6.4,6.1H30.6z"/>
		</g>
		<g>
			<path fill="#616B77" d="M37,29.7L37,29.7c0,3.5-2.9,6.2-6.4,6.2H20.4c-3.5,0-6.4-2.7-6.4-6.1v-0.1c0-6.3,5.2-7.3,11.5-7.3
				c1,0,1.9,0,2.8,0.1c1,0.1,1.9,0.2,2.8,0.4C34.6,23.5,37,25.4,37,29.7z"/>
		</g>
		<g>
			<path fill="#D9BAA8" d="M23.3,16.1c0,0-0.5,6.4-0.5,7c0,1.5,1.2,2.6,2.7,2.6s2.7-1.2,2.7-2.6c0-0.6-0.5-7-0.5-7H23.3z"/>
		</g>
		<g>
			<path fill="#C9A28F" d="M33.5,13.4c-0.4,1.2-1.2,1.8-2.5,1.4c-1.3-0.4-2.7-1.7-2.3-2.9c0.4-1.2,2.7-1.7,4.1-1.3
				C34.1,11,33.9,12.2,33.5,13.4z"/>
		</g>
		<g>
			<path fill="#C9A28F" d="M17.4,13.4c0.4,1.2,1.2,1.8,2.5,1.4c1.3-0.4,2.7-1.7,2.3-2.9c-0.4-1.2-2.7-1.7-4.1-1.3S17,12.2,17.4,13.4
				z"/>
		</g>
		<g>
			<path fill="#E8CEC1" d="M32.2,9.7c0,4.8-1.9,10.9-6.8,10.9s-6.8-6.1-6.8-10.9s1.9-6.5,6.8-6.5C30.3,3.2,32.2,4.9,32.2,9.7z"/>
		</g>
		<g>
			<path fill="#FECD04" d="M15.2,8c4.4-1.2,3.6-9.5,7.8-5.8C25.8,4.5,20,11.9,15.2,8z"/>
		</g>
		<g opacity="0.3">
			<path fill="#FFFFFF" d="M18.8,7.9l-0.2-1c0.6-0.1,1.3-0.5,1.9-1.1l0.7,0.7C20.4,7.3,19.6,7.7,18.8,7.9z"/>
		</g>
		<g>
			<path fill="#FECD04" d="M32.5,10.2c-3.2-5-12.1-0.5-9.8-7.4C24.1-1.6,34.8,2.5,32.5,10.2z"/>
		</g>
		<g opacity="0.3">
			<path fill="#FFFFFF" d="M29.8,5.4c-0.6-0.8-1.5-1.5-2.4-1.9l0.4-0.9c1.1,0.5,2.2,1.3,2.9,2.2L29.8,5.4z"/>
		</g>
		<g opacity="0.3">
			<path fill="#FFFFFF" d="M26.2,3.2c-0.2,0-0.4-0.1-0.6-0.1v-1c0.2,0,0.5,0,0.7,0.1L26.2,3.2z"/>
		</g>
		<g>
			<rect x="27.2" y="10.2" fill="#425060" width="1.8" height="1"/>
		</g>
		<g>
			<circle fill="#616B77" cx="27.8" cy="12.1" r="0.4"/>
		</g>
		<g>
			<path fill="#E5E5E5" d="M24.6,14.7c0.5,0.4,1.1,0.4,1.8,0"/>
			<path fill="#C9A28F" d="M25.4,15.5c-0.4,0-0.8-0.1-1.1-0.4l0.6-0.8c0.4,0.3,0.8,0.3,1.2,0l0.5,0.8C26.2,15.4,25.8,15.5,25.4,15.5
				z"/>
		</g>
		<g>
			<rect x="22" y="10.2" fill="#425060" width="1.8" height="1"/>
		</g>
		<g>
			<circle fill="#616B77" cx="23.1" cy="12.1" r="0.4"/>
		</g>
		<g>
			<path fill="#425060" d="M25.5,18.3c-1,0-1.9-0.4-2.6-1.2l0.8-0.6c0.9,1.1,2.8,1.1,3.7,0l0.8,0.6C27.4,17.9,26.5,18.3,25.5,18.3z"
				/>
		</g>
		<g opacity="0.2">
			<circle fill="#FFFFFF" cx="28.9" cy="15.1" r="0.7"/>
		</g>
		<g opacity="0.2">
			<circle fill="#FFFFFF" cx="22.6" cy="15.1" r="0.7"/>
		</g>
		<g>
			<polygon fill="#FA4968" points="24.6,25.7 23.3,33.1 25.4,34.6 27.4,33.1 26.2,25.7 			"/>
		</g>
		<g>
			<path fill="#DDEDEB" d="M31,22.8l-2.8,5l-2.7-2.1l2.8-3.3C29.2,22.5,30.1,22.6,31,22.8z"/>
		</g>
		<g>
			<path fill="#DDEDEB" d="M19.9,22.8l2.8,5l2.7-2.1l-2.8-3.3C21.7,22.5,20.8,22.6,19.9,22.8z"/>
		</g>
	</g>
	<g>
		<g>
			<path fill="#FFB95C" d="M13.2,30.5c-3.3,0-5.9,2.7-5.9,5.9v4.2h11.8v-4.2C19.1,33.1,16.4,30.5,13.2,30.5z"/>
		</g>
		<g>
			<path fill="#F76861" d="M25,30.5c-3.3,0-5.9,2.7-5.9,5.9v4.2h11.8v-4.2C30.9,33.1,28.3,30.5,25,30.5z"/>
		</g>
		<g>
			<path fill="#6E9583" d="M36.8,30.5c-3.3,0-5.9,2.7-5.9,5.9v4.2h11.8v-4.2C42.8,33.1,40.1,30.5,36.8,30.5z"/>
		</g>
		<g>
			<path fill="#FA4968" d="M7,36c-3.2,0.1-5.7,2.9-5.7,6.2V47c0,1.1,0.9,2,2,2h7.9c1.1,0,2-0.9,2-2v-5C13.2,38.6,10.4,35.9,7,36z"/>
		</g>
		<g>
			<path fill="#6CD8D5" d="M18.9,36c-3.2,0.1-5.7,2.9-5.7,6.2V47c0,1.1,0.9,2,2,2H23c1.1,0,2-0.9,2-2v-5C25,38.6,22.2,35.9,18.9,36z
				"/>
		</g>
		<g>
			<path fill="#559AFF" d="M30.7,36c-3.2,0.1-5.7,3-5.7,6.2V47c0,1.1,0.9,2,2,2h7.9c1.1,0,2-0.9,2-2v-5C36.8,38.6,34.1,35.9,30.7,36
				z"/>
		</g>
		<g>
			<path fill="#FECD04" d="M42.6,36c-3.2,0.1-5.7,2.9-5.7,6.2V47c0,1.1,0.9,2,2,2h7.9c1.1,0,2-0.9,2-2v-5
				C48.7,38.6,45.9,35.9,42.6,36z"/>
		</g>
	</g>
</g>
</svg>
