<?xml version="1.0" encoding="utf-8"?>
<!-- Generator: Adobe Illustrator 18.0.0, SVG Export Plug-In . SVG Version: 6.00 Build 0)  -->
<!DOCTYPE svg PUBLIC "-//W3C//DTD SVG 1.1//EN" "http://www.w3.org/Graphics/SVG/1.1/DTD/svg11.dtd">
<svg version="1.1" id="Layer_1" xmlns="http://www.w3.org/2000/svg" xmlns:xlink="http://www.w3.org/1999/xlink" x="0px" y="0px"
	 viewBox="0 0 50 50" enable-background="new 0 0 50 50" xml:space="preserve">
<g>
	<g>
		<polygon fill="#425060" points="36.3,48 35.8,47.1 40.3,44.4 44.7,47.1 44.2,48 40.3,45.6 		"/>
	</g>
	<g>
		<rect x="39.8" y="41.6" fill="#425060" width="1" height="3.4"/>
	</g>
	<g>
		<polygon fill="#425060" points="5.8,48 5.3,47.1 9.7,44.4 14.2,47.1 13.7,48 9.7,45.6 		"/>
	</g>
	<g>
		<rect x="9.2" y="41.6" fill="#425060" width="1" height="3.4"/>
	</g>
	<g>
		<path fill="#F76861" d="M28.5,44.5c0,1.7,2.5,1.9,2.7,0.1c0.3-3,1.1-8.9,1.1-8.9l7,0.7c1.6,0.2,3-1,3-2.6c0-0.4,0-0.7,0.1-1l0,0
			c0.9-3,1.4-6.4,1.5-10.1c0.1-1.7-1.3-2.2-3.1-2.2c-1.7-0.1-3.2,0.3-3.2,2c-0.1,3.3-0.6,6.2-1.3,8.8l-0.1,0.1l-3.3-0.5
			c-1.7-0.2-3.2,1-3.4,2.6C29.1,37.3,28.6,43,28.5,44.5z"/>
	</g>
	<g>
		<path fill="#ABB734" d="M42.4,32.9C42.4,32.9,42.4,33,42.4,32.9c0,0.1-6.2-1.4-6.2-1.4s0-0.1,0.1-0.1c0.8-2.6,1.2-5.5,1.3-8.8
			c0.1-1.7,1.5-2.1,3.2-2s3.1,0.5,3.1,2.2C43.7,26.5,43.2,29.9,42.4,32.9L42.4,32.9z"/>
	</g>
	<g>
		<path fill="#C6CC4A" d="M42.1,22.2c-1,0.1-1.4,1.1-0.9,3.3c0,0.8,0,1.6,0,2.3c-0.1,1.6-0.3,3.3-0.8,4.7c-0.3,0.6,0,1.2,0.6,1.5
			c1.7,0.6,2-2.2,2.4-3.2c0.5-2.3,0.7-4.5,0.6-6.8C43.9,22.9,43.1,22,42.1,22.2z"/>
	</g>
	<g>
		
			<ellipse transform="matrix(-9.174509e-002 0.9958 -0.9958 -9.174509e-002 60.5894 -23.0426)" fill="#616B77" cx="40.8" cy="16.1" rx="2.6" ry="2.7"/>
	</g>
	<g>
		<path fill="#559AFF" d="M36.4,42c-0.2,0-0.4,0-0.5-0.1c-0.9-0.1-1.5-0.9-1.4-1.7c0.1-0.9,0.9-1.5,1.7-1.4c2,0.2,5.5,0.2,6.5-0.6
			c1.2-0.9,2.6-6.8,3.1-11.7c0.1-0.9,0.9-1.5,1.7-1.4c0.9,0.1,1.5,0.9,1.4,1.7c-0.3,2.7-1.5,11.6-4.3,13.8
			C42.6,42.4,38.1,42.1,36.4,42z"/>
	</g>
	<g>
		<path fill="#F76861" d="M21.5,44.5c0,1.7-2.5,1.9-2.7,0.1c-0.3-3-1.1-8.9-1.1-8.9l-7,0.7c-1.6,0.2-3-1-3-2.6c0-0.4,0-0.7-0.1-1
			l0,0c-0.9-3-1.4-6.4-1.5-10.1C6,21,7.4,20.5,9.2,20.5c1.7-0.1,3.2,0.3,3.2,2c0.1,3.3,0.6,6.2,1.3,8.8l0.1,0.1l3.3-0.5
			c1.7-0.2,3.2,1,3.4,2.6C20.9,37.3,21.4,43,21.5,44.5z"/>
	</g>
	<g>
		<path fill="#ABB734" d="M7.6,32.9C7.6,32.9,7.6,33,7.6,32.9c0,0.1,6.2-1.4,6.2-1.4s0-0.1-0.1-0.1c-0.8-2.6-1.2-5.5-1.3-8.8
			c-0.1-1.7-1.5-2.1-3.2-2s-3.1,0.5-3.1,2.2C6.3,26.5,6.8,29.9,7.6,32.9L7.6,32.9z"/>
	</g>
	<g>
		<path fill="#C6CC4A" d="M7.9,22.2c1,0.1,1.4,1.1,0.9,3.3c0,0.8,0,1.6,0,2.3c0.1,1.6,0.3,3.3,0.8,4.7c0.3,0.6,0,1.2-0.6,1.5
			c-1.7,0.6-2-2.2-2.4-3.2C6.1,28.5,5.9,26.3,6,24C6.1,22.9,6.9,22,7.9,22.2z"/>
	</g>
	<g>
		
			<ellipse transform="matrix(-9.174675e-002 -0.9958 0.9958 -9.174675e-002 -6.1023 26.6435)" fill="#616B77" cx="9.1" cy="16.1" rx="2.6" ry="2.7"/>
	</g>
	<g>
		<path fill="#559AFF" d="M13.6,42c0.2,0,0.4,0,0.5-0.1c0.9-0.1,1.5-0.9,1.4-1.7c-0.1-0.9-0.9-1.5-1.7-1.4c-2,0.2-5.5,0.2-6.5-0.6
			c-1.2-0.9-2.6-6.8-3.1-11.7C4,25.6,3.3,25,2.4,25.1S0.9,26,1,26.8c0.3,2.7,1.5,11.6,4.3,13.8C7.4,42.4,11.9,42.1,13.6,42z"/>
	</g>
	<g>
		<rect x="15.9" y="25.1" fill="#E5E5E5" width="18.1" height="3"/>
	</g>
	<g>
		<rect x="23.6" y="28.1" fill="#CCCACA" width="2.8" height="17.8"/>
	</g>
	<g>
		<polygon fill="#FA4968" points="25,5.9 22.2,4 25,2 27.8,4 		"/>
	</g>
	<g>
		<polygon fill="#6CD8D5" points="27.8,7.9 25,5.9 27.8,4 30.5,5.9 		"/>
	</g>
	<g>
		<polygon fill="#ABB734" points="30.5,9.8 27.8,7.9 30.5,5.9 33.3,7.9 		"/>
	</g>
	<g>
		<polygon fill="#F76861" points="19.5,9.8 16.7,7.9 19.5,5.9 22.2,7.9 		"/>
	</g>
	<g>
		<polygon fill="#E5E5E5" points="22.2,11.7 19.5,9.8 22.2,7.9 25,9.8 		"/>
	</g>
	<g>
		<polygon fill="#A7CEC8" points="25,13.7 22.2,11.7 25,9.8 27.8,11.7 		"/>
	</g>
	<g>
		<polygon fill="#FFB95C" points="22.2,7.9 19.5,5.9 22.2,4 25,5.9 		"/>
	</g>
	<g>
		<polygon fill="#559AFF" points="25,9.8 22.2,7.9 25,5.9 27.8,7.9 		"/>
	</g>
	<g>
		<polygon fill="#D9BAA8" points="27.8,11.7 25,9.8 27.8,7.9 30.5,9.8 		"/>
	</g>
	<g>
		<polygon fill="#FFB95C" points="27.8,14.5 25,16.4 25,13.7 27.8,11.7 		"/>
	</g>
	<g>
		<polygon fill="#6CD8D5" points="30.5,12.5 27.8,14.5 27.8,11.7 30.5,9.8 		"/>
	</g>
	<g>
		<polygon fill="#FF8C83" points="33.3,10.6 30.5,12.5 30.5,9.8 33.3,7.8 		"/>
	</g>
	<g>
		<polygon fill="#6CD8D5" points="27.8,20 25,22 25,19.2 27.8,17.3 		"/>
	</g>
	<g>
		<polygon fill="#FF8C83" points="30.5,18.1 27.8,20 27.8,17.3 30.5,15.3 		"/>
	</g>
	<g>
		<polygon fill="#559AFF" points="33.3,16.1 30.5,18.1 30.5,15.3 33.3,13.4 		"/>
	</g>
	<g>
		<polygon fill="#D9BAA8" points="27.8,17.3 25,19.2 25,16.4 27.8,14.5 		"/>
	</g>
	<g>
		<polygon fill="#C5DFDC" points="30.5,15.3 27.8,17.3 27.8,14.5 30.5,12.5 		"/>
	</g>
	<g>
		<polygon fill="#6E9583" points="33.3,13.4 30.5,15.3 30.5,12.5 33.3,10.6 		"/>
	</g>
	<g>
		<polygon fill="#FA4968" points="22.2,14.5 25,16.4 25,13.7 22.2,11.7 		"/>
	</g>
	<g>
		<polygon fill="#616B77" points="19.5,12.5 22.2,14.5 22.2,11.7 19.5,9.8 		"/>
	</g>
	<g>
		<polygon fill="#FECD04" points="16.7,10.6 19.5,12.5 19.5,9.8 16.7,7.8 		"/>
	</g>
	<g>
		<polygon fill="#FFB95C" points="22.2,20 25,22 25,19.2 22.2,17.3 		"/>
	</g>
	<g>
		<polygon fill="#FA4968" points="19.5,18.1 22.2,20 22.2,17.3 19.5,15.3 		"/>
	</g>
	<g>
		<polygon fill="#525F70" points="16.7,16.1 19.5,18.1 19.5,15.3 16.7,13.4 		"/>
	</g>
	<g>
		<polygon fill="#E5E5E5" points="22.2,17.3 25,19.2 25,16.4 22.2,14.5 		"/>
	</g>
	<g>
		<polygon fill="#ABB734" points="19.5,15.3 22.2,17.3 22.2,14.5 19.5,12.5 		"/>
	</g>
	<g>
		<polygon fill="#559AFF" points="16.7,13.4 19.5,15.3 19.5,12.5 16.7,10.6 		"/>
	</g>
</g>
</svg>
