<?xml version="1.0" encoding="utf-8"?>
<!-- Generator: Adobe Illustrator 18.0.0, SVG Export Plug-In . SVG Version: 6.00 Build 0)  -->
<!DOCTYPE svg PUBLIC "-//W3C//DTD SVG 1.1//EN" "http://www.w3.org/Graphics/SVG/1.1/DTD/svg11.dtd">
<svg version="1.1" id="Layer_1" xmlns="http://www.w3.org/2000/svg" xmlns:xlink="http://www.w3.org/1999/xlink" x="0px" y="0px"
	 viewBox="0 0 50 50" enable-background="new 0 0 50 50" xml:space="preserve">
<g>
	<g>
		<path fill="#6E9583" d="M13.4,21l-4,2.7l-4-2.7C2.8,21.6,1,23.2,1,26.3c0,0.6,0.1,1.2,0.2,1.9c0.2,1,1.2,1.8,2.3,1.8h11.9
			c1.1,0,2.1-0.7,2.3-1.8c0.1-0.6,0.2-1.3,0.2-1.9C17.8,23.2,16,21.6,13.4,21z"/>
	</g>
	<g>
		<g>
			<path fill="#FECD04" d="M11.1,30l-0.8-5.8l0.5-1.3c0-0.8-2.8-0.8-2.8,0l0.5,1.3L7.6,30H11.1z"/>
		</g>
	</g>
	<g>
		<g>
			<path fill="#9AB2A5" d="M4.2,24.1l-0.6-0.8C3.7,23.2,3.9,23.1,4,23l0.5,0.8C4.4,24,4.3,24,4.2,24.1z"/>
		</g>
		<g>
			<path fill="#9AB2A5" d="M2.5,27.2c0-0.3-0.1-0.6-0.1-0.9c0-0.6,0.1-1.1,0.2-1.5l1,0.2c-0.1,0.3-0.2,0.7-0.2,1.2
				c0,0.3,0,0.5,0.1,0.8L2.5,27.2z"/>
		</g>
	</g>
	<g>
		<polygon fill="#9AB2A5" points="12.7,19.6 9.4,22.3 11.3,23.5 13.4,21 		"/>
	</g>
	<g>
		<polygon fill="#9AB2A5" points="6.1,19.6 9.4,22.3 7.5,23.5 5.4,21 		"/>
	</g>
	<g>
		<path fill="#FFFFFF" d="M11.3,23.5"/>
	</g>
	<g>
		<path fill="#525F70" d="M6.6,12.5c0.5-0.1,1.1,0,1.6,0.1c0.5,0.2,1,0.4,1.6,0.5c0.7,0.2,1.4,0.2,2,0c0.5-0.1,1-0.4,1.3-0.8v-1
			c0-1.2-1-2.1-2.2-2.1H7.8c-1.2,0-2.2,1-2.2,2.1V13C5.9,12.7,6.2,12.6,6.6,12.5z"/>
	</g>
	<g>
		<path fill="#FFA49F" d="M13.1,13.7v-1.4c-0.3,0.4-0.8,0.6-1.3,0.8c-0.7,0.2-1.4,0.2-2,0c-0.5-0.1-1-0.3-1.6-0.5
			c-0.5-0.2-1.1-0.2-1.6-0.1c-0.4,0.1-0.7,0.3-0.9,0.5v0.7c-0.5,0-0.9,0.4-0.9,0.9s0.4,0.9,0.9,0.9l0,0c0.2,1.8,1.8,3.2,3.7,3.2
			s3.5-1.4,3.7-3.2l0,0c0.5,0,0.9-0.4,0.9-0.9C14,14.1,13.6,13.7,13.1,13.7z"/>
	</g>
	<g>
		<path fill="#6E9583" d="M44.6,21l-4,2.7l-4-2.7c-2.6,0.6-4.4,2.1-4.4,5.3c0,0.6,0.1,1.2,0.2,1.9c0.2,1.1,1.2,1.8,2.3,1.8h11.9
			c1.1,0,2.1-0.7,2.3-1.8c0.1-0.6,0.2-1.3,0.2-1.9C49,23.2,47.2,21.6,44.6,21z"/>
	</g>
	<g>
		<g>
			<path fill="#FECD04" d="M42.3,30l-0.8-5.8l0.5-1.3c0-0.8-2.8-0.8-2.8,0l0.5,1.3L38.8,30H42.3z"/>
		</g>
	</g>
	<g>
		<g>
			<path fill="#9AB2A5" d="M35.4,24.1l-0.6-0.8c0.1-0.1,0.3-0.2,0.4-0.3l0.5,0.8C35.6,24,35.5,24,35.4,24.1z"/>
		</g>
		<g>
			<path fill="#9AB2A5" d="M33.7,27.2c0-0.3-0.1-0.6-0.1-0.9c0-0.6,0.1-1.1,0.2-1.5l0.9,0.3c-0.1,0.3-0.2,0.7-0.2,1.2
				c0,0.3,0,0.5,0.1,0.8L33.7,27.2z"/>
		</g>
	</g>
	<g>
		<polygon fill="#9AB2A5" points="43.9,19.6 40.6,22.3 42.5,23.5 44.6,21 		"/>
	</g>
	<g>
		<polygon fill="#9AB2A5" points="37.3,19.6 40.6,22.3 38.7,23.5 36.6,21 		"/>
	</g>
	<g>
		<path fill="#FFFFFF" d="M42.5,23.5"/>
	</g>
	<g>
		<path fill="#525F70" d="M37.8,12.5c0.5-0.1,1.1,0,1.6,0.1c0.5,0.2,1,0.4,1.6,0.5c0.7,0.2,1.4,0.2,2,0c0.5-0.1,1-0.4,1.3-0.8v-1
			c0-1.2-1-2.1-2.2-2.1H39c-1.2,0-2.2,1-2.2,2.1V13C37.1,12.7,37.4,12.6,37.8,12.5z"/>
	</g>
	<g>
		<path fill="#FFA49F" d="M44.3,13.7v-1.4C44,12.7,43.5,13,43,13.1c-0.7,0.2-1.4,0.2-2,0c-0.5-0.1-1-0.3-1.6-0.5
			c-0.5-0.2-1.1-0.2-1.6-0.1c-0.4,0.1-0.7,0.3-0.9,0.5v0.7c-0.5,0-0.9,0.4-0.9,0.9s0.4,0.9,0.9,0.9l0,0c0.2,1.8,1.8,3.2,3.7,3.2
			s3.5-1.4,3.7-3.2l0,0c0.5,0,0.9-0.4,0.9-0.9C45.2,14.1,44.8,13.7,44.3,13.7z"/>
	</g>
	<g>
		<path fill="#559AFF" d="M38.5,35.6L38.5,35.6c0,4.1-3.5,7.2-7.5,7.2H19c-4.1,0-7.5-3.2-7.5-7.2v-0.1c0-6.3,4.4-8.1,10.2-8.5
			l3.2,3.8l3.2-3.8c1.1,0.1,2.2,0.2,3.2,0.4C35.7,28.3,38.5,30.5,38.5,35.6z"/>
	</g>
	<g>
		<polygon fill="#FA4968" points="23.9,30.9 22.5,39.6 24.9,41.3 27.3,39.6 25.8,30.9 		"/>
	</g>
	<g>
		<path fill="#DDEDEB" d="M31.5,27.5l-3.3,5.9L25,30.9l3.2-3.8C29.4,27.1,30.5,27.3,31.5,27.5z"/>
	</g>
	<g>
		<path fill="#DDEDEB" d="M18.5,27.5l3.3,5.9l3.1-2.5l-3.2-3.8C20.6,27.1,19.5,27.3,18.5,27.5z"/>
	</g>
	<g>
		<path fill="#559AFF" d="M33.2,17.5c-0.2,0.9-0.6,1.8-1.1,2.6c-0.9-0.3-1.8-0.2-2.4,0.3c-0.6,0.6-0.6,1.5-0.3,2.4
			c-0.8,0.5-1.6,0.9-2.5,1.1c-0.4-0.9-1.1-1.5-1.9-1.5s-1.5,0.6-1.9,1.5c-0.9-0.2-1.8-0.6-2.5-1.1c0.3-0.9,0.2-1.9-0.3-2.4
			c-0.6-0.6-1.5-0.7-2.4-0.3c-0.5-0.8-0.8-1.6-1.1-2.6c0.9-0.4,1.5-1.1,1.5-2c0-0.8-0.6-1.5-1.5-2c0.2-0.9,0.6-1.8,1-2.6
			c0.9,0.3,1.9,0.2,2.4-0.3c0.6-0.6,0.6-1.5,0.3-2.4c0.8-0.5,1.6-0.9,2.5-1.1c0.4,0.9,1.1,1.5,1.9,1.5s1.5-0.6,1.9-1.5
			c0.9,0.2,1.8,0.6,2.5,1.1c-0.3,0.9-0.2,1.9,0.3,2.4c0.6,0.6,1.5,0.7,2.4,0.3c0.5,0.8,0.8,1.6,1,2.6c-0.9,0.4-1.5,1.2-1.5,2
			C31.8,16.3,32.4,17,33.2,17.5z"/>
	</g>
	<g>
		<circle fill="#FFFFFF" cx="25" cy="15.5" r="3.8"/>
	</g>
</g>
</svg>
