<?xml version="1.0" encoding="utf-8"?>
<!-- Generator: Adobe Illustrator 18.0.0, SVG Export Plug-In . SVG Version: 6.00 Build 0)  -->
<!DOCTYPE svg PUBLIC "-//W3C//DTD SVG 1.1//EN" "http://www.w3.org/Graphics/SVG/1.1/DTD/svg11.dtd">
<svg version="1.1" id="Layer_1" xmlns="http://www.w3.org/2000/svg" xmlns:xlink="http://www.w3.org/1999/xlink" x="0px" y="0px"
	 viewBox="0 0 50 50" enable-background="new 0 0 50 50" xml:space="preserve">
<g>
	<g>
		<path fill="#9B9B1B" d="M38.9,13.5c-1,2-2.3,4-3.8,5.9c-1.5,1.8-3.1,3.6-4.9,4.7c-0.8,0.4-1,1.5-0.6,2.2c1.5,2.1,4.1-0.9,5.4-1.8
			c3-2.6,5.4-5.6,7.5-9C44,12.9,40.2,10.9,38.9,13.5L38.9,13.5z"/>
	</g>
	<g>
		<path fill="#6E9583" d="M36.2,47.2c0.2,2.5,3.8,2.3,3.9-0.1c0-4.4-0.1-8.5,1.3-12.7c-0.1,2.9,0.2,5.9,1.1,8.7
			c0.4,1.5,0.8,3,1.3,4.6c0.3,1,1.3,1.5,2.3,1.2c0.9-0.3,1.5-1.2,1.3-2.2c-0.9-4.4-2-8.7-1.1-13.2c0.2-1.5,0.4-3.1,0.7-4.6l0,0
			c0.8-4.4,1.1-9.3,0.8-14.5c-0.1-2.5-2.2-2.9-4.7-2.8c-2.5,0.1-4.5,0.8-4.3,3.3c0.3,4.6,0,8.9-0.7,12.7c0,0.1-0.1,0.1-0.1,0.2
			c-0.8,3.3-1.5,6.2-2,9.7C35.7,40.8,36,43.9,36.2,47.2z"/>
	</g>
	<g>
		<path fill="#ABB734" d="M46.9,28.9V29c0,0-9-1.4-9-1.3c0-0.1,0-0.1,0.1-0.2c0.8-3.8,1-8,0.7-12.7c-0.1-2.5,1.8-3.2,4.3-3.3
			s4.5,0.3,4.7,2.8C48,19.6,47.7,24.5,46.9,28.9L46.9,28.9z"/>
	</g>
	<g>
		<path fill="#C6CC4A" d="M45.1,13.7c-1.4,0.3-1.8,1.8-0.8,4.7c0.2,1.1,0.3,2.2,0.3,3.3c0.1,2.3,0,4.7-0.6,6.7c-0.3,0.8,0.2,1.8,1,2
			c2.5,0.6,2.5-3.4,2.9-4.9c0.4-3.3,0.4-6.5,0-9.8C47.7,14.5,46.5,13.4,45.1,13.7z"/>
	</g>
	<g>
		<ellipse fill="#616B77" cx="42.5" cy="5.3" rx="3.8" ry="3.8"/>
	</g>
	<g>
		<path fill="#ED2F58" d="M11.2,13.5c1,2,2.3,4,3.8,5.9c1.5,1.8,3.1,3.6,4.9,4.7c0.8,0.4,1,1.5,0.6,2.2c-1.5,2.1-4.1-0.9-5.4-1.8
			c-3-2.6-5.4-5.6-7.5-9C6.1,12.9,9.8,10.9,11.2,13.5L11.2,13.5z"/>
	</g>
	<g>
		<path fill="#559AFF" d="M13.9,47.2c-0.2,2.5-3.8,2.3-3.9-0.1c0-4.4,0.1-8.5-1.3-12.7c0.1,2.9-0.2,5.9-1.1,8.7
			c-0.4,1.5-0.8,3-1.3,4.6C6,48.7,5,49.2,4,48.9c-0.9-0.3-1.5-1.2-1.3-2.2c0.9-4.4,2-8.7,1.1-13.2c-0.2-1.5-0.4-3.1-0.7-4.6l0,0
			C2.3,24.5,2,19.6,2.3,14.4c0.1-2.5,2.2-2.9,4.7-2.8c2.5,0.1,4.5,0.8,4.3,3.3c-0.3,4.6,0,8.9,0.7,12.7c0,0.1,0.1,0.1,0.1,0.2
			c0.8,3.3,1.5,6.2,2,9.7C14.4,40.8,14.1,43.9,13.9,47.2z"/>
	</g>
	<g>
		<path fill="#FA4968" d="M3.2,28.9V29c0,0,9-1.4,9-1.3c0-0.1,0-0.1-0.1-0.2c-0.8-3.8-1-8-0.7-12.7c0.1-2.5-1.8-3.2-4.3-3.3
			s-4.5,0.3-4.7,2.8C2.1,19.6,2.4,24.5,3.2,28.9L3.2,28.9z"/>
	</g>
	<g>
		<path fill="#FF6989" d="M4.9,13.7c1.4,0.3,1.8,1.8,0.8,4.7c-0.2,1.1-0.3,2.2-0.3,3.3c-0.1,2.3,0,4.7,0.6,6.7c0.3,0.8-0.2,1.8-1,2
			C2.5,31,2.5,27,2.1,25.5c-0.4-3.3-0.4-6.5,0-9.8C2.3,14.5,3.5,13.4,4.9,13.7z"/>
	</g>
	<g>
		<ellipse fill="#616B77" cx="7.6" cy="5.3" rx="3.8" ry="3.8"/>
	</g>
	<g>
		<g>
			<ellipse fill="#559AFF" cx="25" cy="10.4" rx="9.3" ry="9.4"/>
		</g>
		<g>
			<path fill="#6EB0FF" d="M25,19.8c-2.7,0-4.8-4.1-4.8-9.4C20.3,5.1,22.4,1,25,1c2.7,0,4.8,4.1,4.8,9.4S27.7,19.8,25,19.8z M25,2
				c-2,0-3.8,3.8-3.8,8.4s1.7,8.4,3.8,8.4c2,0,3.8-3.8,3.8-8.4S27.1,2,25,2z"/>
		</g>
		<g>
			<rect x="24.5" y="1.5" fill="#6EB0FF" width="1" height="17.8"/>
		</g>
		<g>
			<path fill="#6EB0FF" d="M25,15.2c-5.2,0-9.3-2.1-9.3-4.8s4.1-4.8,9.3-4.8s9.3,2.1,9.3,4.8C34.4,13.1,30.3,15.2,25,15.2z M25,6.6
				c-4.5,0-8.3,1.7-8.3,3.8s3.8,3.8,8.3,3.8s8.3-1.7,8.3-3.8C33.4,8.4,29.6,6.6,25,6.6z"/>
		</g>
		<g>
			<rect x="16.2" y="9.9" fill="#6EB0FF" width="17.7" height="1"/>
		</g>
	</g>
</g>
</svg>
