<?xml version="1.0" encoding="utf-8"?>
<!-- Generator: Adobe Illustrator 18.0.0, SVG Export Plug-In . SVG Version: 6.00 Build 0)  -->
<!DOCTYPE svg PUBLIC "-//W3C//DTD SVG 1.1//EN" "http://www.w3.org/Graphics/SVG/1.1/DTD/svg11.dtd">
<svg version="1.1" id="Layer_1" xmlns="http://www.w3.org/2000/svg" xmlns:xlink="http://www.w3.org/1999/xlink" x="0px" y="0px"
	 viewBox="0 0 50 50" enable-background="new 0 0 50 50" xml:space="preserve">
<g>
	<g>
		<path fill="#616B77" d="M32.7,19.8L32.7,19.8L30.1,46h-3.5l-0.5-10.7H24L23.4,46H20l-2.6-26.1l0,0l0,0c0-4.1,3.4-4.8,7.7-4.8
			C29.2,15,32.7,15.7,32.7,19.8z"/>
	</g>
	<g>
		<path fill="#616B77" d="M32.7,19.8L32.7,19.8l-1.1,10.7l-0.4,4.9L30.1,46h-3.5l-0.5-10.7H24L23.4,46H20l-2.6-26.1l0,0l0,0
			c0-4.1,3.4-4.8,7.7-4.8C29.2,15,32.7,15.7,32.7,19.8z"/>
	</g>
	<g>
		<path fill="#425060" d="M31.5,30.6l-0.4,4.9H31c-1.4,0-2.5-1.1-2.5-2.5c0-1.4,1.1-2.5,2.5-2.5C31.2,30.5,31.4,30.5,31.5,30.6z"/>
	</g>
	<g>
		<path fill="#425060" d="M18.5,30.6l0.4,4.9H19c1.4,0,2.5-1.1,2.5-2.5c0-1.4-1.1-2.5-2.5-2.5C18.8,30.5,18.7,30.5,18.5,30.6z"/>
	</g>
	<g>
		<path fill="#616B77" d="M18.6,32.3h12.8l1.2-12.4l0,0c0-4.1-3.4-4.8-7.6-4.8s-7.7,0.7-7.7,4.8l0,0l0,0L18.6,32.3z"/>
	</g>
	<g>
		<path fill="#D9BAA8" d="M23.6,10.9c0,0-0.4,4.2-0.4,4.6c0,1,0.8,1.7,1.8,1.7s1.8-0.8,1.8-1.7c0-0.4-0.4-4.6-0.4-4.6
			S23.6,10.9,23.6,10.9z"/>
	</g>
	<g>
		<path fill="#C9A28F" d="M30.9,9.1c-0.3,0.8-0.8,1.2-1.7,0.9c-0.9-0.3-1.8-1.1-1.5-1.9C28,7.3,29.5,7,30.4,7.3
			C31.3,7.6,31.1,8.3,30.9,9.1z"/>
	</g>
	<g>
		<path fill="#C9A28F" d="M19.1,9.1c0.3,0.8,0.8,1.2,1.7,0.9c0.9-0.3,1.8-1.1,1.5-1.9C22,7.3,20.5,7,19.6,7.3
			C18.8,7.6,18.9,8.3,19.1,9.1z"/>
	</g>
	<g>
		<path fill="#E8CEC1" d="M29.5,6.7c0,3.2-1.3,7.2-4.5,7.2s-4.5-4-4.5-7.2s1.3-4.3,4.5-4.3S29.5,3.6,29.5,6.7z"/>
	</g>
	<g>
		<path fill="#894D47" d="M18.2,5.6c2.9-0.8,2.4-6.2,5.2-3.8C25.2,3.3,21.4,8.2,18.2,5.6z"/>
	</g>
	<g>
		<path fill="#894D47" d="M29.7,7c-2.2-3.3-8.1-0.3-6.5-4.8C24.1-0.7,31.2,2,29.7,7z"/>
	</g>
	<g>
		<polygon fill="#FA4968" points="24.4,17.2 23.6,21.6 24.9,22.6 26.3,21.6 25.5,17.2 		"/>
	</g>
	<g>
		<path fill="#DDEDEB" d="M28.7,15.3l-1.9,3.3L25,17.2l1.8-2.1C27.5,15.1,28.1,15.2,28.7,15.3z"/>
	</g>
	<g>
		<path fill="#DDEDEB" d="M21.3,15.3l1.9,3.3l1.8-1.4l-1.8-2.1C22.5,15.1,21.9,15.2,21.3,15.3z"/>
	</g>
	<g>
		<path fill="#425060" d="M26.6,46h5.5c0.8,0,1.5,0.7,1.5,1.5l0,0c0,0.8-0.7,1.5-1.5,1.5h-4c-0.8,0-1.5-0.7-1.5-1.5
			C26.6,47.5,26.6,46,26.6,46z"/>
	</g>
	<g>
		<path fill="#425060" d="M23.4,46h-5.5c-0.8,0-1.5,0.7-1.5,1.5l0,0c0,0.8,0.7,1.5,1.5,1.5h4c0.8,0,1.5-0.7,1.5-1.5V46z"/>
	</g>
	<g>
		<path fill="#D9BAA8" d="M31.5,29.6h-0.4c-0.7,0-1.2-0.5-1.2-1.2v-9h2.8v9C32.7,29.1,32.1,29.6,31.5,29.6z"/>
	</g>
	<g>
		<path fill="#D9BAA8" d="M18.9,29.6h-0.4c-0.7,0-1.2-0.5-1.2-1.2v-9h2.8v9C20.1,29.1,19.6,29.6,18.9,29.6z"/>
	</g>
</g>
</svg>
