<?xml version="1.0" encoding="utf-8"?>
<!-- Generator: Adobe Illustrator 18.0.0, SVG Export Plug-In . SVG Version: 6.00 Build 0)  -->
<!DOCTYPE svg PUBLIC "-//W3C//DTD SVG 1.1//EN" "http://www.w3.org/Graphics/SVG/1.1/DTD/svg11.dtd">
<svg version="1.1" id="Layer_1" xmlns="http://www.w3.org/2000/svg" xmlns:xlink="http://www.w3.org/1999/xlink" x="0px" y="0px"
	 viewBox="0 0 50 50" enable-background="new 0 0 50 50" xml:space="preserve">
<g>
	<g>
		<g>
			<g>
				<path fill="#F4F4F4" d="M36.9,49H13.1c-2.3,0-4.2-1.9-4.2-4.2V11.2c0-2.3,1.9-4.2,4.2-4.2H37c2.3,0,4.2,1.9,4.2,4.2v33.6
					C41.1,47.1,39.2,49,36.9,49z"/>
			</g>
		</g>
		<g>
			<path fill="#559AFF" d="M33.4,7.3L33.4,7.3c0,1.2-1,2.2-2.2,2.2H18.8c-1.2,0-2.2-1-2.2-2.2l0,0c0-1.5,1.3-2.8,2.8-2.8H22V4
				c0-1.7,1.3-3,3-3l0,0c1.7,0,3,1.3,3,3v0.5h2.6C32.1,4.5,33.4,5.8,33.4,7.3z"/>
		</g>
	</g>
	<g>
		<rect x="13.9" y="13.8" fill="#6CD8D5" width="22.1" height="4.4"/>
	</g>
	<g>
		<g>
			<g>
				<line fill="none" x1="13.9" y1="22.9" x2="17.7" y2="22.9"/>
				<rect x="13.9" y="22.4" fill="#CCCACA" width="3.8" height="1"/>
			</g>
			<g>
				<line fill="none" x1="20.7" y1="22.9" x2="36.1" y2="22.9"/>
				<rect x="20.7" y="22.4" fill="#CCCACA" width="15.4" height="1"/>
			</g>
		</g>
		<g>
			<g>
				<line fill="none" x1="13.9" y1="25.7" x2="24.4" y2="25.7"/>
				<rect x="13.9" y="25.2" fill="#CCCACA" width="10.5" height="1"/>
			</g>
			<g>
				<line fill="none" x1="27.4" y1="25.7" x2="36.1" y2="25.7"/>
				<rect x="27.4" y="25.2" fill="#CCCACA" width="8.6" height="1"/>
			</g>
		</g>
		<g>
			<g>
				<line fill="none" x1="13.9" y1="28.6" x2="28.4" y2="28.6"/>
				<rect x="13.9" y="28.1" fill="#CCCACA" width="14.4" height="1"/>
			</g>
			<g>
				<line fill="none" x1="31.4" y1="28.6" x2="36.1" y2="28.6"/>
				<rect x="31.4" y="28.1" fill="#CCCACA" width="4.7" height="1"/>
			</g>
		</g>
		<g>
			<g>
				<line fill="none" x1="13.9" y1="31.5" x2="17.7" y2="31.5"/>
				<rect x="13.9" y="31" fill="#CCCACA" width="3.8" height="1"/>
			</g>
			<g>
				<line fill="none" x1="20.7" y1="31.5" x2="36.1" y2="31.5"/>
				<rect x="20.7" y="31" fill="#CCCACA" width="15.4" height="1"/>
			</g>
		</g>
		<g>
			<g>
				<line fill="none" x1="13.9" y1="34.4" x2="27.1" y2="34.4"/>
				<rect x="13.9" y="33.9" fill="#CCCACA" width="13.2" height="1"/>
			</g>
			<g>
				<line fill="none" x1="30.1" y1="34.4" x2="36.1" y2="34.4"/>
				<rect x="30.1" y="33.9" fill="#CCCACA" width="5.9" height="1"/>
			</g>
		</g>
		<g>
			<g>
				<line fill="none" x1="13.9" y1="37.3" x2="18.2" y2="37.3"/>
				<rect x="13.9" y="36.8" fill="#CCCACA" width="4.2" height="1"/>
			</g>
			<g>
				<line fill="none" x1="21.2" y1="37.3" x2="36.1" y2="37.3"/>
				<rect x="21.2" y="36.8" fill="#CCCACA" width="14.9" height="1"/>
			</g>
		</g>
		<g>
			<g>
				<line fill="none" x1="13.9" y1="40.2" x2="24.1" y2="40.2"/>
				<rect x="13.9" y="39.7" fill="#CCCACA" width="10.2" height="1"/>
			</g>
			<g>
				<line fill="none" x1="27.1" y1="40.2" x2="36.1" y2="40.2"/>
				<rect x="27.1" y="39.7" fill="#CCCACA" width="8.9" height="1"/>
			</g>
		</g>
		<g>
			<g>
				<line fill="none" x1="13.9" y1="43.1" x2="17.2" y2="43.1"/>
				<rect x="13.9" y="42.6" fill="#CCCACA" width="3.3" height="1"/>
			</g>
			<g>
				<line fill="none" x1="20.2" y1="43.1" x2="36.1" y2="43.1"/>
				<rect x="20.2" y="42.6" fill="#CCCACA" width="15.9" height="1"/>
			</g>
		</g>
	</g>
	<g>
		<g>
			<circle fill="#FA4968" cx="25.4" cy="32.9" r="7.2"/>
		</g>
		<g opacity="0.3">
			<path fill="#FFFFFF" d="M20.9,30.5L20.1,30c0.3-0.5,0.6-0.9,1-1.3c0.7-0.7,1.6-1.2,2.5-1.5l0.3,0.9c-0.8,0.2-1.5,0.7-2.1,1.3
				C21.5,29.7,21.2,30.1,20.9,30.5z"/>
		</g>
		<g opacity="0.3">
			<path fill="#FFFFFF" d="M25.9,27.9c-0.3,0-0.6,0-0.8,0l-0.1-1c0.3,0,0.7,0,1,0L25.9,27.9z"/>
		</g>
		<g>
			<g>
				<polygon fill="#FFB95C" points="23.1,30.6 20.9,32.9 25.5,37.5 34.5,28.6 32.3,26.3 25.5,33.1 				"/>
			</g>
			<g opacity="0.3">
				<g>
					
						<rect x="30.2" y="28.4" transform="matrix(-0.7066 -0.7076 0.7076 -0.7066 31.0548 73.0391)" fill="#FFFFFF" width="1" height="3.3"/>
				</g>
				<g>
					
						<rect x="27.7" y="32.2" transform="matrix(-0.7061 -0.7081 0.7081 -0.7061 25.0665 75.4714)" fill="#FFFFFF" width="1" height="0.6"/>
				</g>
			</g>
		</g>
	</g>
</g>
</svg>
