<?xml version="1.0" encoding="utf-8"?>
<!-- Generator: Adobe Illustrator 18.0.0, SVG Export Plug-In . SVG Version: 6.00 Build 0)  -->
<!DOCTYPE svg PUBLIC "-//W3C//DTD SVG 1.1//EN" "http://www.w3.org/Graphics/SVG/1.1/DTD/svg11.dtd">
<svg version="1.1" id="Layer_1" xmlns="http://www.w3.org/2000/svg" xmlns:xlink="http://www.w3.org/1999/xlink" x="0px" y="0px"
	 viewBox="0 0 50 50" enable-background="new 0 0 50 50" xml:space="preserve">
<g>
	<g>
		<path fill="#525F70" d="M32.9,6.4c7.3,7.4,7.3,19.3,0,26.6c-7.3,7.4-19.2,7.4-26.5,0s-7.3-19.3,0-26.6C13.8-1,25.6-1,32.9,6.4z"/>
	</g>
	<g>
		<path fill="#616B77" d="M6.1,29.2c-2.6-3.7-3.5-8.4-2.6-12.8l1,0.2c-0.9,4.2,0,8.6,2.4,12.1L6.1,29.2z"/>
	</g>
	<g>
		<path fill="#616B77" d="M5.7,13l-0.9-0.4C5,12,5.3,11.5,5.6,11l0.9,0.5C6.2,12,5.9,12.5,5.7,13z"/>
	</g>
	<g>
		<g>
			<path fill="#425060" d="M34.7,31l3.5,3.6l-3.7,3.7L31,34.7c0.7-0.5,1.3-1.1,2-1.7C33.6,32.4,34.1,31.7,34.7,31z"/>
		</g>
		<g>
			<path fill="#525F70" d="M47.7,47.9L47.7,47.9c-1.7,1.7-4.4,1.7-6,0l-7.1-7.1c-0.7-0.7-0.7-1.9,0-2.6l3.5-3.5
				c0.7-0.7,1.9-0.7,2.6,0l7.1,7.1C49.4,43.5,49.4,46.2,47.7,47.9z"/>
		</g>
	</g>
	<g>
		<g>
			<line fill="none" x1="43.8" y1="42.1" x2="41.3" y2="39.6"/>
			
				<rect x="40.8" y="40.3" transform="matrix(-0.7049 -0.7093 0.7093 -0.7049 43.6703 99.8045)" fill="#616B77" width="3.5" height="1"/>
		</g>
		<g>
			<line fill="none" x1="39.4" y1="37.7" x2="39" y2="37.3"/>
			
				<rect x="38.9" y="37" transform="matrix(-0.7054 -0.7088 0.7088 -0.7054 40.3128 91.7282)" fill="#616B77" width="0.6" height="1"/>
		</g>
	</g>
	<g>
		<g>
			<path fill="#6CD8D5" d="M19.7,19.7L12.3,8.5c-3.6,2.4-6,6.5-6,11.2c0,7.4,6,13.4,13.4,13.4c5.9,0,10.9-3.9,12.7-9.2L19.7,19.7z"
				/>
		</g>
		<g>
			<path fill="#C5DFDC" d="M19.7,6.3c-2.8,0-5.3,0.8-7.4,2.3l7.4,11.2l9.5-9.5C26.8,7.8,23.4,6.3,19.7,6.3z"/>
		</g>
		<g>
			<path fill="#FECD04" d="M19.7,19.7L19.7,19.7l12.7,4.2c0.4-1.3,0.7-2.7,0.7-4.2c0-3.7-1.5-7.1-3.9-9.5L19.7,19.7z"/>
		</g>
	</g>
</g>
</svg>
