<?xml version="1.0" encoding="utf-8"?>
<!-- Generator: Adobe Illustrator 18.0.0, SVG Export Plug-In . SVG Version: 6.00 Build 0)  -->
<!DOCTYPE svg PUBLIC "-//W3C//DTD SVG 1.1//EN" "http://www.w3.org/Graphics/SVG/1.1/DTD/svg11.dtd">
<svg version="1.1" id="Layer_1" xmlns="http://www.w3.org/2000/svg" xmlns:xlink="http://www.w3.org/1999/xlink" x="0px" y="0px"
	 viewBox="0 0 50 50" enable-background="new 0 0 50 50" xml:space="preserve">
<g>
	<g>
		<path fill="#616B77" d="M19.3,49.3c-0.3,0-0.5,0-0.8,0c-2-0.2-3.8-1.3-4.9-3l-0.4-0.6L14,45l0.4,0.6c1,1.4,2.5,2.4,4.2,2.6
			c1.7,0.2,3.4-0.3,4.7-1.5l0.7,0.7C22.7,48.6,21,49.3,19.3,49.3z"/>
	</g>
	<g>
		<circle fill="#6CD8D5" cx="25" cy="45.5" r="1.8"/>
	</g>
	<g>
		<path fill="#616B77" d="M39.6,40.6l-0.9-0.5l3.1-5.6c2.2-3.9,2.2-8.8,0-12.7l-2.1-3.7l0.9-0.5l2.1,3.7c2.4,4.2,2.4,9.4,0,13.6
			L39.6,40.6z"/>
	</g>
	<g>
		<path fill="#6EB0FF" d="M32.2,46.5L32.2,46.5c-1.5-0.8-2-2.7-1.1-4.2l5-8.9c0.8-1.5,2.7-2,4.2-1.2l0,0c1.5,0.8,2,2.7,1.1,4.2
			l-5,8.9C35.5,46.8,33.7,47.3,32.2,46.5z"/>
	</g>
	<g opacity="0.3">
		<path fill="#FFFFFF" d="M37.1,36.7l-0.9-0.5l1.2-2.2c0.4-0.7,1.4-1,2.1-0.6l-0.5,1c-0.3-0.1-0.6,0-0.7,0.2L37.1,36.7z"/>
	</g>
	<g>
		<path fill="#3A8BED" d="M41.3,36.6L36.6,45c1.4,0.6,3,0,3.8-1.3l1.8-3.1C42.8,39.2,42.4,37.6,41.3,36.6z"/>
	</g>
	<g>
		<path fill="#616B77" d="M10.4,40.6L7.3,35c-2.4-4.2-2.4-9.4,0-13.6l2.1-3.7l0.9,0.5l-2.1,3.7c-2.2,3.9-2.3,8.7,0,12.7l3.1,5.6
			L10.4,40.6z"/>
	</g>
	<g>
		<path fill="#6EB0FF" d="M17.8,46.5L17.8,46.5c1.5-0.8,2-2.7,1.1-4.2l-5-8.9c-0.8-1.5-2.7-2-4.2-1.2l0,0c-1.5,0.8-2,2.7-1.1,4.2
			l5,8.9C14.5,46.8,16.3,47.3,17.8,46.5z"/>
	</g>
	<g opacity="0.3">
		<path fill="#FFFFFF" d="M16.3,45.4c-0.6,0-1.1-0.3-1.3-0.8l-1.6-2.9l0.9-0.5l1.6,2.9c0.1,0.3,0.5,0.4,0.7,0.2l0.5,0.9
			C16.8,45.3,16.6,45.4,16.3,45.4z"/>
	</g>
	<g>
		<path fill="#3A8BED" d="M8.7,36.6l4.7,8.4c-1.4,0.6-3,0-3.8-1.3l-1.8-3.1C7.2,39.2,7.6,37.6,8.7,36.6z"/>
	</g>
	<g>
		<g>
			<path fill="#FECD04" d="M42.7,24.6c-1,0-1.9-0.6-2.3-1.5c-2.6-6.1-8.7-10-15.2-9.6c-0.1,0-0.2,0-0.3,0
				c-6.6-0.4-12.7,3.5-15.2,9.6c-0.5,1.3-2,1.9-3.2,1.3c-1.3-0.5-1.9-2-1.3-3.3c3.3-8,11.3-13.1,20-12.7c8.6-0.4,16.6,4.6,20,12.7
				c0.5,1.3-0.1,2.7-1.3,3.3C43.3,24.6,43,24.6,42.7,24.6z"/>
		</g>
	</g>
	<g>
		<path fill="#FA4968" d="M32.5,22.9c-0.1,1.6,0,3.2,0.5,5c0,0-2.6-1.1-4.6-3.6c-1.2,0.2-2.4,0.3-3.6,0.3c-8.3,0-15-5.3-15-11.9
			s6.7-11.9,15-11.9s15,5.3,15,11.9C39.8,17,36.9,20.8,32.5,22.9z"/>
	</g>
	<g opacity="0.3">
		<path fill="#FFFFFF" d="M12.9,9.7L12,9.3c1.1-2.6,3.5-4.6,6.6-5.9L19,4.3C16.1,5.5,13.9,7.4,12.9,9.7z"/>
	</g>
	<g opacity="0.3">
		<path fill="#FFFFFF" d="M20.3,3.9l-0.3-1c0.4-0.1,0.8-0.2,1.2-0.3l0.2,1C21.1,3.7,20.7,3.8,20.3,3.9z"/>
	</g>
	<g>
		<ellipse fill="#FFFFFF" cx="16.8" cy="12.7" rx="2.7" ry="2.7"/>
	</g>
	<g opacity="0.3">
		<path fill="#FFFFFF" d="M24.8,17.9c-0.4,0-0.8-0.1-1.2-0.2l0.2-1c1.5,0.4,3.1-0.2,4.1-1.4l0.8,0.6C27.7,17.2,26.3,17.9,24.8,17.9z
			"/>
	</g>
	<g>
		<ellipse fill="#FFFFFF" cx="24.8" cy="12.7" rx="2.7" ry="2.7"/>
	</g>
	<g>
		<ellipse fill="#FFFFFF" cx="32.7" cy="12.7" rx="2.7" ry="2.7"/>
	</g>
</g>
</svg>
