<?xml version="1.0" encoding="utf-8"?>
<!-- Generator: Adobe Illustrator 18.0.0, SVG Export Plug-In . SVG Version: 6.00 Build 0)  -->
<!DOCTYPE svg PUBLIC "-//W3C//DTD SVG 1.1//EN" "http://www.w3.org/Graphics/SVG/1.1/DTD/svg11.dtd">
<svg version="1.1" id="Layer_1" xmlns="http://www.w3.org/2000/svg" xmlns:xlink="http://www.w3.org/1999/xlink" x="0px" y="0px"
	 viewBox="0 0 50 50" enable-background="new 0 0 50 50" xml:space="preserve">
<g>
	<g>
		<g>
			<path fill="#FFB95C" d="M18.4,35.3h13.1c0.7-2.1,1.8-4.1,3.4-5.7c2.7-2.9,4.2-7,3.6-11.4c-0.9-6-5.8-10.8-11.8-11.5
				c-8.2-1-15.3,5.5-15.3,13.5c0,3.5,1.3,6.7,3.5,9.1C16.5,31.2,17.7,33.2,18.4,35.3z"/>
		</g>
	</g>
	<g>
		<g>
			<path fill="#FFCA8A" d="M15.4,16.6l-0.9-0.4c0.9-2.4,2.7-4.4,4.9-5.7l0.5,0.9C17.9,12.6,16.3,14.5,15.4,16.6z"/>
		</g>
	</g>
	<g>
		<g>
			<path fill="#FFCA8A" d="M21.9,10.6l-0.3-1c0.5-0.2,1.1-0.3,1.6-0.4l0.2,1C22.9,10.3,22.4,10.4,21.9,10.6z"/>
		</g>
	</g>
	<g>
		<g>
			<path fill="#FFFFFF" d="M23.4,35.4h-1V22.6h-1.5c-1.4,0-2.5-1.1-2.5-2.5s1.1-2.5,2.5-2.5s2.5,1.1,2.5,2.5v1.5h3.2v-1.5
				c0-1.4,1.1-2.5,2.5-2.5s2.5,1.1,2.5,2.5s-1.1,2.5-2.5,2.5h-1.5v12.8h-1V22.6h-3.2V35.4z M27.6,21.6h1.5c0.8,0,1.5-0.7,1.5-1.5
				s-0.7-1.5-1.5-1.5s-1.5,0.7-1.5,1.5V21.6z M20.9,18.6c-0.8,0-1.5,0.7-1.5,1.5s0.7,1.5,1.5,1.5h1.5v-1.5
				C22.4,19.3,21.8,18.6,20.9,18.6z"/>
		</g>
	</g>
	<g>
		<g>
			<g>
				<g>
					<g>
						<line fill="none" x1="5.7" y1="20.3" x2="7.8" y2="20.3"/>
						<rect x="5.7" y="19.8" fill="#616B77" width="2.1" height="1"/>
					</g>
				</g>
				<g>
					<g>
						<g>
							<line fill="none" x1="25" y1="1" x2="25" y2="3.1"/>
							<rect x="24.5" y="1" fill="#616B77" width="1" height="2.1"/>
						</g>
					</g>
				</g>
			</g>
			<g>
				<g>
					<g>
						<line fill="none" x1="5.7" y1="20.3" x2="7.8" y2="20.3"/>
						<rect x="5.7" y="19.8" fill="#616B77" width="2.1" height="1"/>
					</g>
				</g>
				<g>
					<g>
						<g>
							<line fill="none" x1="25" y1="1" x2="25" y2="3.1"/>
							<rect x="24.5" y="1" fill="#616B77" width="1" height="2.1"/>
						</g>
					</g>
				</g>
			</g>
			<g>
				<g>
					<g>
						<g>
							<line fill="none" x1="11.3" y1="6.7" x2="12.8" y2="8.2"/>
							
								<rect x="11" y="6.9" transform="matrix(-0.707 -0.7072 0.7072 -0.707 15.3932 21.1199)" fill="#616B77" width="2.1" height="1"/>
						</g>
					</g>
				</g>
				<g>
					<g>
						<g>
							<line fill="none" x1="38.7" y1="6.7" x2="37.2" y2="8.2"/>
							
								<rect x="37.4" y="6.3" transform="matrix(-0.7071 -0.7072 0.7072 -0.7071 59.567 39.408)" fill="#616B77" width="1" height="2.1"/>
						</g>
					</g>
				</g>
			</g>
		</g>
		<g>
			<g>
				<g>
					<g>
						<line fill="none" x1="7.2" y1="27.7" x2="9.1" y2="26.9"/>
						
							<rect x="7.7" y="26.2" transform="matrix(-0.3828 -0.9238 0.9238 -0.3828 -13.8706 45.2229)" fill="#616B77" width="1" height="2.1"/>
					</g>
				</g>
				<g>
					<g>
						<g>
							<line fill="none" x1="17.6" y1="2.5" x2="18.4" y2="4.4"/>
							
								<rect x="16.9" y="3" transform="matrix(-0.3826 -0.9239 0.9239 -0.3826 21.6314 21.4614)" fill="#616B77" width="2.1" height="1"/>
						</g>
					</g>
				</g>
			</g>
			<g>
				<g>
					<g>
						<line fill="none" x1="7.2" y1="27.7" x2="9.1" y2="26.9"/>
						
							<rect x="7.7" y="26.2" transform="matrix(-0.3828 -0.9238 0.9238 -0.3828 -13.8706 45.2229)" fill="#616B77" width="1" height="2.1"/>
					</g>
				</g>
				<g>
					<g>
						<g>
							<line fill="none" x1="17.6" y1="2.5" x2="18.4" y2="4.4"/>
							
								<rect x="16.9" y="3" transform="matrix(-0.3826 -0.9239 0.9239 -0.3826 21.6314 21.4614)" fill="#616B77" width="2.1" height="1"/>
						</g>
					</g>
				</g>
			</g>
			<g>
				<g>
					<g>
						<rect x="42.2" y="19.8" fill="#616B77" width="2.1" height="1"/>
						
							<rect x="41.4" y="12.3" transform="matrix(-0.3828 -0.9238 0.9238 -0.3828 45.5288 57.1632)" fill="#616B77" width="1" height="2.1"/>
						
							<rect x="40.8" y="26.8" transform="matrix(0.9239 0.3826 -0.3826 0.9239 13.6334 -13.9421)" fill="#616B77" width="2.1" height="1"/>
					</g>
					<g>
						<g>
							<line fill="none" x1="7.2" y1="12.9" x2="9.1" y2="13.7"/>
							
								<rect x="7.1" y="12.8" transform="matrix(-0.924 -0.3825 0.3825 -0.924 10.6128 28.7246)" fill="#616B77" width="2.1" height="1"/>
						</g>
					</g>
				</g>
				<g>
					<g>
						<g>
							<line fill="none" x1="32.4" y1="2.5" x2="31.6" y2="4.4"/>
							
								<rect x="31.5" y="2.4" transform="matrix(-0.9238 -0.3828 0.3828 -0.9238 60.2374 18.9005)" fill="#616B77" width="1" height="2.1"/>
						</g>
					</g>
				</g>
			</g>
		</g>
	</g>
	<g>
		<g>
			<path fill="#425060" d="M28.9,36.3h-7.8v-3.6c0-0.7,0.5-1.2,1.2-1.2h5.4c0.7,0,1.2,0.5,1.2,1.2V36.3z M22.1,35.3H28v-2.6
				c0-0.1-0.1-0.2-0.2-0.2h-5.4c-0.1,0-0.2,0.1-0.2,0.2L22.1,35.3L22.1,35.3z"/>
		</g>
	</g>
	<g>
		<g>
			<g>
				<path fill="#525F70" d="M32.3,35.3H17.7c-1.4,0-2.6,1.2-2.6,2.6v8.6c0,1.4,1.1,2.5,2.6,2.5h14.6c1.4,0,2.6-1.1,2.6-2.5v-8.6
					C34.9,36.5,33.7,35.3,32.3,35.3z"/>
			</g>
		</g>
		<g>
			<g>
				<path fill="#616B77" d="M32.3,35.3H17.7c-1.4,0-2.6,1.2-2.6,2.6v1.3c0,1.4,1.1,2.6,2.6,2.6h14.6c1.4,0,2.6-1.1,2.6-2.6v-1.3
					C34.9,36.5,33.7,35.3,32.3,35.3z"/>
			</g>
		</g>
		<g>
			<g>
				<path fill="#FFFFFF" d="M25.9,39.9h-1.8c-0.5,0-0.8,0.4-0.8,0.8v2.4c0,0.5,0.4,0.8,0.8,0.8h1.8c0.5,0,0.8-0.4,0.8-0.8v-2.4
					C26.7,40.3,26.4,39.9,25.9,39.9z"/>
			</g>
		</g>
	</g>
</g>
</svg>
