<?xml version="1.0" encoding="utf-8"?>
<!-- Generator: Adobe Illustrator 18.0.0, SVG Export Plug-In . SVG Version: 6.00 Build 0)  -->
<!DOCTYPE svg PUBLIC "-//W3C//DTD SVG 1.1//EN" "http://www.w3.org/Graphics/SVG/1.1/DTD/svg11.dtd">
<svg version="1.1" id="Layer_1" xmlns="http://www.w3.org/2000/svg" xmlns:xlink="http://www.w3.org/1999/xlink" x="0px" y="0px"
	 viewBox="0 0 50 50" enable-background="new 0 0 50 50" xml:space="preserve">
<g>
	<g>
		<g>
			<ellipse fill="#525F70" cx="11.8" cy="33.8" rx="10.3" ry="10.3"/>
		</g>
		<g>
			<g>
				<path fill="#525F70" d="M10.4,25.2c0.4-0.1,0.9-0.1,1.3-0.1"/>
				<path fill="#616B77" d="M10.5,25.7l-0.2-1c0.5-0.1,0.9-0.1,1.4-0.1v1C11.3,25.6,10.9,25.6,10.5,25.7z"/>
			</g>
			<g>
				<path fill="#525F70" d="M3.1,33.8c0-3.5,2.1-6.5,5-7.9"/>
				<path fill="#616B77" d="M3.6,33.8h-1c0-3.6,2.1-6.8,5.3-8.3l0.4,0.9C5.5,27.7,3.6,30.6,3.6,33.8z"/>
			</g>
		</g>
		<g>
			<ellipse fill="#525F70" cx="38.2" cy="33.8" rx="10.3" ry="10.3"/>
		</g>
		<g>
			<g>
				<path fill="#525F70" d="M46.8,32.4c0.1,0.4,0.1,0.9,0.1,1.4"/>
				<path fill="#616B77" d="M47.4,33.8h-1c0-0.4,0-0.9-0.1-1.3l1-0.2C47.4,32.8,47.4,33.3,47.4,33.8z"/>
			</g>
			<g>
				<path fill="#525F70" d="M38.2,25.1c3.6,0,6.7,2.3,8,5.4"/>
				<path fill="#616B77" d="M45.8,30.7c-1.3-3.1-4.2-5.1-7.6-5.1v-1c3.8,0,7.1,2.3,8.5,5.7L45.8,30.7z"/>
			</g>
		</g>
		<g>
			<g>
				<ellipse fill="#559AFF" cx="38.2" cy="33.8" rx="6.9" ry="6.9"/>
			</g>
			<g>
				<path fill="#559AFF" d="M39.1,29.7c-0.3-0.1-0.6-0.1-0.9-0.1"/>
				<path fill="#6EB0FF" d="M39,30.2c-0.3-0.1-0.5-0.1-0.8-0.1v-1c0.3,0,0.6,0,1,0.1L39,30.2z"/>
			</g>
			<g>
				<path fill="#559AFF" d="M36.9,29.9c-1,0.3-1.8,1.1-2.3,2"/>
				<path fill="#6EB0FF" d="M35,32.1l-0.9-0.5c0.6-1.1,1.5-1.9,2.6-2.3l0.3,0.9C36.2,30.6,35.5,31.3,35,32.1z"/>
			</g>
		</g>
		<g>
			<g>
				<ellipse fill="#559AFF" cx="11.8" cy="33.8" rx="6.9" ry="6.9"/>
			</g>
			<g>
				<path fill="#559AFF" d="M12.6,29.7c-0.3-0.1-0.6-0.1-0.9-0.1"/>
				<path fill="#6EB0FF" d="M12.5,30.2c-0.3-0.1-0.5-0.1-0.8-0.1v-1c0.3,0,0.6,0,1,0.1L12.5,30.2z"/>
			</g>
			<g>
				<path fill="#559AFF" d="M10.4,29.9c-1,0.3-1.8,1.1-2.3,2"/>
				<path fill="#6EB0FF" d="M8.6,32.1l-0.9-0.5c0.6-1.1,1.5-1.9,2.6-2.3l0.3,0.9C9.7,30.6,9,31.3,8.6,32.1z"/>
			</g>
		</g>
		<g>
			<circle fill="#616B77" cx="25" cy="30.8" r="4.1"/>
		</g>
		<g>
			<circle fill="#425060" cx="25" cy="30.8" r="1.9"/>
		</g>
	</g>
	<g>
		<g>
			<g>
				<g>
					<g>
						<rect x="35.9" y="13.3" fill="#425060" width="1" height="1"/>
					</g>
				</g>
				<g>
					<g>
						
							<rect x="35.1" y="8.9" transform="matrix(-0.3817 -0.9243 0.9243 -0.3817 40.4512 45.8742)" fill="#425060" width="1" height="1"/>
					</g>
				</g>
				<g>
					<g>
						
							<rect x="35" y="17.6" transform="matrix(-0.9243 -0.3817 0.3817 -0.9243 61.4256 48.3613)" fill="#425060" width="1" height="1"/>
					</g>
				</g>
			</g>
			<g>
				<g>
					<g>
						<rect x="13.1" y="13.3" fill="#425060" width="1" height="1"/>
					</g>
				</g>
				<g>
					<g>
						
							<rect x="14" y="17.6" transform="matrix(-0.3817 -0.9243 0.9243 -0.3817 3.2623 38.4526)" fill="#425060" width="1" height="1"/>
					</g>
				</g>
				<g>
					<g>
						
							<rect x="13.9" y="8.9" transform="matrix(-0.9243 -0.3817 0.3817 -0.9243 24.1831 23.5507)" fill="#425060" width="1" height="1"/>
					</g>
				</g>
			</g>
		</g>
		<g>
			<g>
				<g>
					<ellipse fill="#FECD04" cx="25" cy="13.8" rx="7.7" ry="7.8"/>
				</g>
				<g>
					<g>
						<path fill="#425060" d="M27.1,18H23c-1,0-1.9-0.8-1.9-1.9h1c0,0.5,0.4,0.9,0.8,0.9H27c0.5,0,0.8-0.4,0.8-0.9v-1
							c0-0.5-0.4-0.9-0.8-0.9h-4.1c-1,0-1.9-0.8-1.9-1.9v-1c0-1,0.8-1.9,1.9-1.9H27c1,0,1.9,0.8,1.9,1.9h-1c0-0.5-0.4-0.9-0.8-0.9
							H23c-0.5,0-0.8,0.4-0.8,0.9v1c0,0.5,0.4,0.9,0.8,0.9h4.1c1,0,1.9,0.8,1.9,1.9v1C28.9,17.2,28.1,18,27.1,18z"/>
					</g>
					<g>
						<rect x="24.5" y="8.6" fill="#425060" width="1" height="10.4"/>
					</g>
				</g>
			</g>
		</g>
	</g>
</g>
</svg>
