<?xml version="1.0" encoding="utf-8"?>
<!-- Generator: Adobe Illustrator 18.0.0, SVG Export Plug-In . SVG Version: 6.00 Build 0)  -->
<!DOCTYPE svg PUBLIC "-//W3C//DTD SVG 1.1//EN" "http://www.w3.org/Graphics/SVG/1.1/DTD/svg11.dtd">
<svg version="1.1" id="Layer_1" xmlns="http://www.w3.org/2000/svg" xmlns:xlink="http://www.w3.org/1999/xlink" x="0px" y="0px"
	 viewBox="0 0 50 50" enable-background="new 0 0 50 50" xml:space="preserve">
<g>
	<g>
		<path fill="#D9BAA8" d="M10.1,35.1c-0.8,0.2-1.5,0.5-2.1,1.1c-0.2,0.2-0.4,0.4-0.5,0.6c-1.5-2.3-2.6-5-3.1-7.8
			c-2.2-0.4-3.8-2.5-3.3-4.9c0.3-1.5,1.5-2.7,3-3.1c2.7-0.6,5.1,1.4,5.1,4c0,0.4-0.1,0.8-0.2,1.2C8.1,29.2,8.4,32.4,10.1,35.1
			L10.1,35.1z"/>
	</g>
	<g>
		<path fill="#6CD8D5" d="M42.9,37.6c0.6,1.5,0.3,3.2-0.9,4.4c-1.6,1.6-4.2,1.6-5.8,0s-1.6-4.2,0-5.8c0.4-0.4,0.9-0.7,1.4-0.9
			c2.9-1.1,5.2-3.3,5.9-6.3v-0.1c0.5,0.2,0.9,0.3,1.5,0.3s1.2-0.1,1.7-0.4C46.1,32,44.8,35,42.9,37.6z"/>
	</g>
	<g>
		<path fill="#FFB95C" d="M49,25c0,2.3-1.8,4.1-4.1,4.1s-4.1-1.8-4.1-4.1c0-0.7,0.2-1.3,0.5-1.9c1.4-2.6,1.1-5.9-0.6-8.3
			c0,0,0,0,0-0.1c0,0,0,0,0.1,0c0.2-0.1,0.4-0.2,0.6-0.3c0.2-0.2,0.4-0.3,0.6-0.5c0.4-0.4,0.7-0.8,0.9-1.3c1.8,2.6,3.2,5.5,3.7,8.8
			l0,0C48,21.9,49,23.4,49,25z"/>
	</g>
	<g>
		<path fill="#FF8C83" d="M37.5,42.8c-2.5,1.7-5.5,2.9-8.6,3.4c-0.6,1.8-2.4,3-4.5,2.7c-1.8-0.3-3.3-1.8-3.5-3.6
			c-0.3-2.5,1.7-4.5,4.1-4.5c0.6,0,1.2,0.1,1.7,0.4c2.8,1.2,6,1,8.6-0.6h0.1c0.2,0.5,0.5,1,0.9,1.4C36.6,42.3,37,42.6,37.5,42.8z"/>
	</g>
	<g>
		<path fill="#559AFF" d="M20.9,44.9c0,0.4,0.1,0.8,0.2,1.1c-2.9-0.6-5.6-1.8-8-3.5c-1.6,1-3.7,0.8-5.1-0.6c-1.6-1.6-1.6-4.2,0-5.8
			s4.2-1.6,5.8,0c0.4,0.4,0.7,0.8,0.9,1.3c0.9,2.2,2.4,4,4.7,4.8c0.7,0.2,1.4,0.4,2.1,0.6C21.1,43.5,20.9,44.2,20.9,44.9z"/>
	</g>
	<g>
		<path fill="#6E9583" d="M14.4,13.2c-0.4,0.6-1,1.1-1.6,1.4c-2.4,1.3-4.5,3.2-5.1,5.9c-0.1,0.4-0.2,0.8-0.3,1.2
			C6.7,21.2,5.9,21,5,21c-0.2,0-0.4,0-0.7,0.1c0.5-2.8,1.6-5.4,3.2-7.7C6.4,11.8,6.6,9.6,8,8.2c1.8-1.8,4.9-1.6,6.4,0.8
			C15.3,10.1,15.2,11.9,14.4,13.2z"/>
	</g>
	<g>
		<path fill="#525F70" d="M29.1,5.1c0,2.3-1.8,4.1-4.1,4.1c-0.5,0-1-0.1-1.4-0.3c-2.5-0.9-5.3-1-7.6,0.4c-0.4,0.2-0.7,0.5-1.1,0.7
			c-0.2-0.7-0.5-1.4-1.1-2c-0.2-0.2-0.5-0.4-0.7-0.6c2.3-1.7,5-2.9,7.9-3.5c0.5-1.7,2-3,3.9-3C27.3,1,29.1,2.8,29.1,5.1z"/>
	</g>
	<g>
		<circle fill="#F4F4F4" cx="25" cy="5.1" r="1.5"/>
	</g>
	<g>
		<circle fill="#F4F4F4" cx="25" cy="45" r="1.5"/>
	</g>
	<g>
		<circle fill="#F4F4F4" cx="45" cy="25" r="1.5"/>
	</g>
	<g>
		<circle fill="#F4F4F4" cx="5.1" cy="25" r="1.5"/>
	</g>
	<g>
		<path fill="#ABB734" d="M42.9,12.5c-0.2,0.5-0.5,1-0.9,1.3c-0.2,0.2-0.4,0.4-0.6,0.5c-0.2,0.1-0.4,0.2-0.6,0.3c0,0,0,0-0.1,0
			c-1.5,0.6-3.2,0.3-4.5-0.9c-0.4-0.4-0.7-0.9-0.9-1.3C34.2,9.8,32,7.6,29.1,7c-0.1,0-0.3,0-0.5-0.1c0.3-0.6,0.5-1.2,0.5-1.9
			c0-0.4-0.1-0.8-0.2-1.2C32,4.3,35,5.5,37.5,7.2C39,6.6,40.8,6.8,42,8.1C43.2,9.3,43.5,11,42.9,12.5z"/>
	</g>
	<g>
		<path fill="#F4F4F4" d="M39.1,12.5c-0.4,0-0.8-0.2-1.1-0.5c-0.6-0.6-0.6-1.6,0-2.2c0.3-0.3,0.7-0.5,1.1-0.5l0,0
			c0.4,0,0.8,0.2,1.1,0.5s0.5,0.7,0.5,1.1c0,0.4-0.2,0.8-0.5,1.1C39.9,12.3,39.5,12.5,39.1,12.5z"/>
	</g>
	<g>
		<path fill="#F4F4F4" d="M11,40.7c-0.4,0-0.8-0.2-1.1-0.5c-0.6-0.6-0.6-1.6,0-2.2c0.3-0.3,0.7-0.5,1.1-0.5c0.4,0,0.8,0.2,1.1,0.5
			s0.5,0.7,0.5,1.1c0,0.4-0.2,0.8-0.5,1.1C11.8,40.5,11.4,40.7,11,40.7z"/>
	</g>
	<g>
		<path fill="#F4F4F4" d="M39.1,40.7c-0.4,0-0.8-0.2-1.1-0.5c-0.6-0.6-0.6-1.6,0-2.2c0.3-0.3,0.7-0.5,1.1-0.5c0.4,0,0.8,0.2,1.1,0.5
			s0.5,0.7,0.5,1.1c0,0.4-0.2,0.8-0.5,1.1C39.9,40.5,39.5,40.7,39.1,40.7z"/>
	</g>
	<g>
		<path fill="#F4F4F4" d="M11,12.5c-0.4,0-0.8-0.2-1.1-0.5c-0.6-0.6-0.6-1.6,0-2.2c0.3-0.3,0.7-0.5,1.1-0.5l0,0
			c0.4,0,0.8,0.2,1.1,0.5s0.5,0.7,0.5,1.1c0,0.4-0.2,0.8-0.5,1.1C11.8,12.3,11.4,12.5,11,12.5z"/>
	</g>
	<g>
		<g>
			<ellipse fill="#FA4968" cx="25.7" cy="24.6" rx="9.3" ry="9.4"/>
		</g>
		<g opacity="0.3">
			<path fill="#FFFFFF" d="M19.8,21.3l-0.9-0.5c0.3-0.6,0.8-1.2,1.3-1.7c0.9-0.9,2-1.6,3.1-1.9l0.3,1c-1,0.3-2,0.9-2.7,1.7
				C20.5,20.3,20.1,20.8,19.8,21.3z"/>
		</g>
		<g opacity="0.3">
			<path fill="#FFFFFF" d="M26.3,17.9c-0.4,0-0.7,0-1.1,0l-0.1-1c0.4,0,0.8,0,1.2,0V17.9z"/>
		</g>
		<g>
			<g>
				<polygon fill="#FFB95C" points="22.7,21.6 19.8,24.5 25.8,30.5 37.4,18.9 34.5,16 25.8,24.7 				"/>
			</g>
			<g opacity="0.3">
				<g>
					
						<rect x="31.9" y="18.7" transform="matrix(-0.7101 -0.7041 0.7041 -0.7101 40.7553 58.3503)" fill="#FFFFFF" width="1" height="4.2"/>
				</g>
				<g>
					
						<rect x="28.7" y="23.6" transform="matrix(-0.71 -0.7042 0.7042 -0.71 33.0462 61.6115)" fill="#FFFFFF" width="1" height="0.8"/>
				</g>
			</g>
		</g>
	</g>
</g>
</svg>
