<?xml version="1.0" encoding="utf-8"?>
<!-- Generator: Adobe Illustrator 18.0.0, SVG Export Plug-In . SVG Version: 6.00 Build 0)  -->
<!DOCTYPE svg PUBLIC "-//W3C//DTD SVG 1.1//EN" "http://www.w3.org/Graphics/SVG/1.1/DTD/svg11.dtd">
<svg version="1.1" id="Layer_1" xmlns="http://www.w3.org/2000/svg" xmlns:xlink="http://www.w3.org/1999/xlink" x="0px" y="0px"
	 viewBox="0 0 50 50" enable-background="new 0 0 50 50" xml:space="preserve">
<g>
	<g>
		<g>
			<g>
				<ellipse fill="#616B77" cx="15.8" cy="7.3" rx="3.1" ry="3.1"/>
			</g>
			<g>
				<path fill="#FA4968" d="M31.6,3.8c-1.1,2.5-2.4,5-4,7.4c-1.4,1.9-3.5,3.8-4.9,5c-0.9,0.8-1.5,1.9-1.5,3.1L21,31.2v3l-0.2,12.5
					c0,1.1-1,1.9-2.2,1.9s-2.2-0.9-2.2-1.9c0,1.1-1,1.9-2.2,1.9S12,47.7,12,46.7l-0.2-12.5v-3l-0.1-11.8c0-1,0.1,6.9,0.1,10
					c0,0.7-0.5,1.3-1.2,1.5l0,0c-0.9,0.2-1.8-0.4-1.8-1.4L8,17.9c0-2.4,2-4.4,4.4-4.3c2.5,0.1,5.5-0.1,7.7-1.2
					c1.6-0.8,2.9-2.3,4.2-3.8c1.6-1.9,2.9-4,4.1-6.3C29.4,0.4,32.4,1.7,31.6,3.8z"/>
			</g>
			<g>
				<path fill="#616B77" d="M11.7,27.2v4v3L12,46.7c0,1.1,1,1.9,2.2,1.9s2.2-0.9,2.2-1.9c0,1.1,1,1.9,2.2,1.9s2.2-0.9,2.2-1.9
					L21,34.2v-3v-4H11.7z"/>
			</g>
			<g>
				<rect x="15.9" y="31.2" fill="#525F70" width="1" height="15.5"/>
			</g>
		</g>
		<g>
			<g>
				<path fill="#FECD04" d="M42,37.8c-0.2,1-0.6,2-1.2,2.8c-1-0.4-2-0.3-2.6,0.4c-0.6,0.6-0.7,1.6-0.3,2.7c-0.9,0.5-1.8,1-2.8,1.2
					c-0.5-1-1.3-1.6-2.1-1.6c-0.9,0-1.6,0.6-2.1,1.6c-1-0.2-1.9-0.6-2.8-1.2c0.4-1,0.3-2-0.4-2.7C27,40.3,26,40.2,25,40.6
					c-0.5-0.9-0.9-1.8-1.2-2.8c1-0.5,1.6-1.3,1.6-2.1c0-0.9-0.6-1.7-1.6-2.1c0.2-1,0.6-2,1.1-2.8c1,0.4,2,0.3,2.7-0.4
					c0.6-0.6,0.7-1.6,0.3-2.7c0.8-0.5,1.8-0.9,2.8-1.2c0.5,1,1.2,1.6,2.1,1.6c0.9,0,1.7-0.6,2.1-1.6c1,0.2,1.9,0.6,2.8,1.2
					c-0.4,1-0.3,2,0.4,2.7c0.6,0.6,1.6,0.7,2.7,0.3c0.5,0.9,0.9,1.8,1.2,2.8c-1,0.5-1.6,1.3-1.6,2.1C40.4,36.5,41,37.3,42,37.8z"/>
			</g>
			<g>
				<circle fill="#FFFFFF" cx="32.9" cy="35.6" r="4.2"/>
			</g>
		</g>
		<g>
			<g>
				<path fill="#559AFF" d="M41.3,17.9c-0.2,0.7-0.4,1.4-0.8,2c-0.7-0.3-1.4-0.2-1.8,0.2c-0.4,0.4-0.5,1.1-0.2,1.9
					c-0.6,0.4-1.2,0.7-1.9,0.8c-0.3-0.7-0.9-1.1-1.5-1.1s-1.1,0.4-1.5,1.1c-0.7-0.2-1.4-0.4-1.9-0.8c0.3-0.7,0.2-1.4-0.2-1.9
					c-0.4-0.4-1.1-0.5-1.8-0.2c-0.4-0.6-0.6-1.3-0.8-2c0.7-0.3,1.1-0.9,1.1-1.5s-0.4-1.2-1.1-1.5c0.2-0.7,0.4-1.4,0.8-2
					c0.7,0.3,1.4,0.2,1.9-0.2c0.4-0.4,0.5-1.1,0.2-1.9c0.6-0.4,1.2-0.7,1.9-0.8c0.3,0.7,0.9,1.1,1.5,1.1s1.2-0.4,1.5-1.1
					c0.7,0.2,1.3,0.4,1.9,0.8c-0.3,0.7-0.2,1.4,0.2,1.9c0.4,0.4,1.1,0.5,1.8,0.2c0.4,0.6,0.6,1.3,0.8,2c-0.7,0.3-1.1,0.9-1.1,1.5
					C40.1,17,40.6,17.6,41.3,17.9z"/>
			</g>
			<g>
				<circle fill="#FFFFFF" cx="35" cy="16.4" r="2.9"/>
			</g>
		</g>
	</g>
	<line fill="none" stroke="#ED2F58" stroke-miterlimit="10" x1="11.6" y1="19.4" x2="11.7" y2="27.2"/>
</g>
</svg>
