<?xml version="1.0" encoding="utf-8"?>
<!-- Generator: Adobe Illustrator 18.0.0, SVG Export Plug-In . SVG Version: 6.00 Build 0)  -->
<!DOCTYPE svg PUBLIC "-//W3C//DTD SVG 1.1//EN" "http://www.w3.org/Graphics/SVG/1.1/DTD/svg11.dtd">
<svg version="1.1" id="Layer_1" xmlns="http://www.w3.org/2000/svg" xmlns:xlink="http://www.w3.org/1999/xlink" x="0px" y="0px"
	 viewBox="0 0 50 50" enable-background="new 0 0 50 50" xml:space="preserve">
<g>
	<g>
		<path fill="#CCCACA" d="M24.4,4.9c-9.5,0-17.3,7.8-17.3,17.3c0,9.6,7.7,17.3,17.3,17.3c9.5,0,17.3-7.8,17.3-17.3
			C41.7,12.6,34,4.9,24.4,4.9z M24.4,35.5c-7.3,0-13.3-6-13.3-13.3s6-13.3,13.3-13.3s13.3,6,13.3,13.3S31.8,35.5,24.4,35.5z"/>
	</g>
	<g>
		<g>
			<path fill="#E5E5E5" d="M24.4,12.2L24.4,12.2c-0.9,0-1.5-0.7-1.5-1.5V3c0-0.9,0.7-1.5,1.5-1.5l0,0C25.3,1.5,26,2.2,26,3v7.6
				C26,11.5,25.3,12.2,24.4,12.2z"/>
		</g>
		<g>
			<path fill="#E5E5E5" d="M24.4,42.8L24.4,42.8c-0.9,0-1.5-0.7-1.5-1.5v-7.6c0-0.9,0.7-1.5,1.5-1.5l0,0c0.9,0,1.5,0.7,1.5,1.5v7.6
				C26,42.1,25.3,42.8,24.4,42.8z"/>
		</g>
	</g>
	<g>
		<path fill="#E5E5E5" d="M34.4,22.2L34.4,22.2c0-0.9,0.7-1.5,1.5-1.5h7.6c0.9,0,1.5,0.7,1.5,1.5l0,0c0,0.9-0.7,1.5-1.5,1.5h-7.6
			C35.1,23.7,34.4,23,34.4,22.2z"/>
	</g>
	<g>
		<path fill="#E5E5E5" d="M3.8,22.2L3.8,22.2c0-0.9,0.7-1.5,1.5-1.5h7.6c0.9,0,1.5,0.7,1.5,1.5l0,0c0,0.9-0.7,1.5-1.5,1.5H5.3
			C4.5,23.7,3.8,23,3.8,22.2z"/>
	</g>
	<g>
		<path fill="#FECD04" d="M46,45L31.3,27.9C29,24.4,33.6,21.1,30,17c-3.8-4.4-7.8,1-12.2-2.3c2.5,4.8-3.4,8,0.4,12.5
			c3.6,4.2,7.5,0.1,10.6,2.9l14.8,17.1C44.4,48.2,46.9,46,46,45z M20.3,17.7l1.9-0.3l-0.5,1.9l-1.9,0.3L20.3,17.7z M28.2,26.8
			l-2,0.2l0.5-1.9l1.9-0.3L28.2,26.8z M28,22.8c-0.8,0.7-1.8,0.9-2.8,0.6c0.2,1-0.2,2-1,2.6c-1.2,1.1-3.1,0.9-4.1-0.3
			c-1-1.2-0.9-3.1,0.3-4.1c0.8-0.7,1.8-0.9,2.8-0.6c-0.1-1,0.2-2,1-2.6c1.2-1.1,3-0.9,4.1,0.3C29.4,19.9,29.2,21.8,28,22.8z"/>
	</g>
	<g>
		<polygon fill="#EABE06" points="39.3,48.5 36.1,44.8 39.2,42.1 42.4,45.8 		"/>
	</g>
	<g>
		<line fill="none" x1="37.6" y1="43.4" x2="38.5" y2="44.5"/>
		
			<rect x="37.4" y="43.4" transform="matrix(-0.6524 -0.7579 0.7579 -0.6524 29.6926 101.4908)" fill="#FFD731" width="1.4" height="1"/>
	</g>
	<g>
		<line fill="none" x1="39.9" y1="46.1" x2="40.8" y2="47.1"/>
		
			<rect x="39.7" y="46.1" transform="matrix(-0.6526 -0.7577 0.7577 -0.6526 31.4792 107.6712)" fill="#FFD731" width="1.4" height="1"/>
	</g>
	<g>
		<line fill="none" x1="40.8" y1="37.6" x2="37" y2="40.9"/>
		<rect x="38.4" y="36.7" transform="matrix(-0.654 -0.7565 0.7565 -0.654 34.6961 94.3074)" fill="#FFD731" width="1" height="5"/>
	</g>
	<g>
		<g>
			<line fill="none" x1="32.4" y1="28.4" x2="29.1" y2="31.2"/>
			
				<rect x="30.2" y="27.6" transform="matrix(-0.654 -0.7565 0.7565 -0.654 28.2658 72.439)" fill="#FFD731" width="1" height="4.4"/>
		</g>
		<g>
			<line fill="none" x1="33.8" y1="29.5" x2="30.1" y2="32.8"/>
			
				<rect x="31.4" y="28.7" transform="matrix(-0.654 -0.7565 0.7565 -0.654 29.1901 75.6575)" fill="#FFD731" width="1" height="5"/>
		</g>
		<g>
			<line fill="none" x1="34.8" y1="31.1" x2="31.5" y2="34"/>
			
				<rect x="32.6" y="30.4" transform="matrix(-0.654 -0.7565 0.7565 -0.654 30.1049 78.8703)" fill="#FFD731" width="1" height="4.4"/>
		</g>
	</g>
</g>
</svg>
