<?xml version="1.0" encoding="utf-8"?>
<!-- Generator: Adobe Illustrator 18.0.0, SVG Export Plug-In . SVG Version: 6.00 Build 0)  -->
<!DOCTYPE svg PUBLIC "-//W3C//DTD SVG 1.1//EN" "http://www.w3.org/Graphics/SVG/1.1/DTD/svg11.dtd">
<svg version="1.1" id="Layer_1" xmlns="http://www.w3.org/2000/svg" xmlns:xlink="http://www.w3.org/1999/xlink" x="0px" y="0px"
	 viewBox="0 0 50 50" enable-background="new 0 0 50 50" xml:space="preserve">
<g>
	<g>
		<g>
			<g>
				<g>
					<path fill="#CCCACA" d="M46.6,12.6c-3-2.5-8.3-1.3-12.2,2.7c-2.3,2.4-3.6,5.4-3.4,7.9c0.1,1.6,0.7,3,1.8,4
						c1,0.9,2.4,1.3,3.9,1.3c2.7,0,5.8-1.4,8.3-4c2.3-2.4,3.6-5.4,3.4-7.9C48.4,15,47.8,13.6,46.6,12.6z M42.8,22.4
						c-1.8,1.9-4.1,3.1-6,3.1c-0.8,0-1.4-0.2-1.8-0.6c-0.5-0.4-0.7-1-0.7-1.7c-0.1-1.7,0.9-3.8,2.6-5.6c1.8-1.9,4.1-3.1,6-3.1
						c0.8,0,1.4,0.2,1.8,0.6c0.5,0.4,0.7,1,0.7,1.7C45.4,18.5,44.4,20.6,42.8,22.4z"/>
				</g>
			</g>
			<g>
				<path fill="#E5E5E5" d="M34.4,33.1H21.7c-2.6,0-4.8-2-5-4.6L15.1,9.9C15,9,15.7,8.2,16.6,8.2h22.9c0.9,0,1.7,0.8,1.6,1.7
					l-1.7,18.6C39.2,31.1,37,33.1,34.4,33.1z"/>
			</g>
			<g>
				<path fill="#FF8C83" d="M15.6,16.5l1.1,12c0.2,2.6,2.4,4.6,5,4.6h12.7c2.6,0,4.8-2,5-4.6l1.1-12C40.5,16.5,15.6,16.5,15.6,16.5z
					"/>
			</g>
			<g>
				<path fill="#CCCACA" d="M36.8,38.7H19.3c-0.9,0-1.6-0.7-1.6-1.6v-2h20.6v2C38.4,38,37.7,38.7,36.8,38.7z"/>
			</g>
			<g>
				<path fill="#E5E5E5" d="M45,33.1H11.1v0.2c0,1.9,1.5,3.4,3.4,3.4h27.1c1.9,0,3.4-1.5,3.4-3.4V33.1z"/>
			</g>
			<g>
				<g>
					<path fill="#425060" d="M32.2,5.5c-0.1,0-0.3,0-0.4-0.1c-0.2-0.2-0.2-0.5,0-0.7C31.9,4.5,32,4.3,32,4.1c0-0.2-0.1-0.4-0.2-0.5
						c-0.3-0.3-0.5-0.7-0.5-1.2c0-0.4,0.2-0.9,0.5-1.2C32,1,32.3,1,32.5,1.2s0.2,0.5,0,0.7c-0.1,0.1-0.2,0.3-0.2,0.5
						s0.1,0.4,0.2,0.5C32.8,3.3,33,3.7,33,4.1S32.8,5,32.5,5.3C32.4,5.4,32.3,5.5,32.2,5.5z"/>
				</g>
				<g>
					<path fill="#425060" d="M28.4,5.3c-0.5,0.5-1.2-0.2-0.7-0.7c0.1-0.1,0.2-0.3,0.2-0.5c0-0.2-0.1-0.4-0.2-0.5
						c-0.3-0.3-0.5-0.7-0.5-1.2c0-0.4,0.2-0.9,0.5-1.2c0.2-0.2,0.5-0.2,0.7,0s0.2,0.5,0,0.7c-0.1,0.1-0.2,0.3-0.2,0.5
						s0.1,0.4,0.2,0.5c0.3,0.3,0.5,0.7,0.5,1.2S28.8,5,28.4,5.3z"/>
				</g>
				<g>
					<path fill="#425060" d="M24,5.5c-0.1,0-0.3,0-0.4-0.1c-0.2-0.2-0.2-0.5,0-0.7c0.1-0.1,0.2-0.3,0.2-0.5s-0.1-0.4-0.2-0.5
						c-0.3-0.3-0.5-0.7-0.5-1.2c0-0.4,0.2-0.9,0.5-1.2c0.2-0.2,0.5-0.2,0.7,0s0.2,0.5,0,0.7c-0.1,0.1-0.2,0.3-0.2,0.5
						s0.1,0.4,0.2,0.5c0.3,0.3,0.5,0.7,0.5,1.2c0,0.4-0.2,0.9-0.5,1.2C24.3,5.4,24.1,5.5,24,5.5z"/>
				</g>
			</g>
		</g>
		<g>
			<g>
				<ellipse fill="#559AFF" cx="14.2" cy="36.2" rx="12.7" ry="12.7"/>
			</g>
			<g>
				<ellipse fill="#E8CEC1" cx="14.2" cy="36.2" rx="9.9" ry="9.9"/>
			</g>
			<g>
				<rect x="13.7" y="26.3" fill="#425060" width="1" height="1.1"/>
			</g>
			<g>
				<rect x="13.7" y="45" fill="#425060" width="1" height="1.1"/>
			</g>
			<g>
				
					<rect x="9" y="27.6" transform="matrix(-0.4997 -0.8662 0.8662 -0.4997 -10.0924 50.3916)" fill="#425060" width="1.1" height="1"/>
			</g>
			<g>
				
					<rect x="18.3" y="43.8" transform="matrix(-0.4997 -0.8662 0.8662 -0.4997 -10.0958 82.709)" fill="#425060" width="1.1" height="1"/>
			</g>
			<g>
				
					<rect x="5.5" y="31" transform="matrix(-0.8659 -0.5002 0.5002 -0.8659 -4.4511 61.7575)" fill="#425060" width="1.1" height="1"/>
			</g>
			<g>
				
					<rect x="21.7" y="40.4" transform="matrix(-0.8659 -0.5003 0.5003 -0.8659 21.0287 87.3866)" fill="#425060" width="1.1" height="1"/>
			</g>
			<g>
				<rect x="4.3" y="35.7" fill="#425060" width="1.1" height="1"/>
			</g>
			<g>
				<rect x="23" y="35.7" fill="#425060" width="1.1" height="1"/>
			</g>
			<g>
				
					<rect x="5.6" y="40.3" transform="matrix(-0.4999 -0.8661 0.8661 -0.4999 -26.2359 66.5592)" fill="#425060" width="1" height="1.1"/>
			</g>
			<g>
				
					<rect x="21.8" y="30.9" transform="matrix(-0.4999 -0.8661 0.8661 -0.4999 6.2328 66.5558)" fill="#425060" width="1" height="1.1"/>
			</g>
			<g>
				
					<rect x="9" y="43.7" transform="matrix(-0.8661 -0.4999 0.4999 -0.8661 -4.3622 87.3202)" fill="#425060" width="1" height="1.1"/>
			</g>
			<g>
				
					<rect x="18.4" y="27.5" transform="matrix(-0.8661 -0.4999 0.4999 -0.8661 21.2498 61.8285)" fill="#425060" width="1" height="1.1"/>
			</g>
			<g>
				<circle fill="#FF6989" cx="14.2" cy="36.2" r="1.5"/>
			</g>
			<g>
				<rect x="13.7" y="31" fill="#425060" width="1" height="3.7"/>
			</g>
			<g>
				
					<rect x="14.7" y="38" transform="matrix(-0.7068 -0.7074 0.7074 -0.7068 1.0742 77.4558)" fill="#425060" width="3.7" height="1"/>
			</g>
		</g>
	</g>
</g>
</svg>
