<?xml version="1.0" encoding="utf-8"?>
<!-- Generator: Adobe Illustrator 18.0.0, SVG Export Plug-In . SVG Version: 6.00 Build 0)  -->
<!DOCTYPE svg PUBLIC "-//W3C//DTD SVG 1.1//EN" "http://www.w3.org/Graphics/SVG/1.1/DTD/svg11.dtd">
<svg version="1.1" id="Layer_1" xmlns="http://www.w3.org/2000/svg" xmlns:xlink="http://www.w3.org/1999/xlink" x="0px" y="0px"
	 viewBox="0 0 50 50" enable-background="new 0 0 50 50" xml:space="preserve">
<g>
	<g>
		<path fill="#E5E5E5" d="M7.2,38.1c-3.1,0-5.7-2.6-5.7-5.7v-24c0-3.1,2.5-5.7,5.7-5.7h35.7c3.1,0,5.7,2.6,5.7,5.7v24
			c0,3.1-2.5,5.7-5.7,5.7H7.2z"/>
	</g>
	<g>
		<path fill="#616B77" d="M42.8,5.6H7.2c-1.5,0-2.7,1.2-2.7,2.8v19c0,1.5,1.2,2.8,2.7,2.8h35.7c1.5,0,2.7-1.2,2.7-2.8v-19
			C45.6,6.8,44.3,5.6,42.8,5.6z"/>
	</g>
	<g>
		<rect x="19" y="38.1" fill="#CCCACA" width="12" height="5.5"/>
	</g>
	<g>
		<rect x="15.3" y="43.6" fill="#E5E5E5" width="19.5" height="3.7"/>
	</g>
	<g>
		<circle fill="#CCCACA" cx="25.3" cy="34.1" r="1.7"/>
	</g>
	<g>
		<path fill="#C6CC4A" d="M36.3,8.8l-3.4-0.6c-0.5-0.1-1.1,0.3-1.2,0.8s0.3,1.1,0.8,1.2l1.1,0.2l-4.7,3.3L27,11.1
			c-0.2-0.2-0.4-0.4-0.6-0.4c-0.3,0-0.5,0-0.7,0.2l-5.1,3.5L19,12.1c-0.3-0.5-0.9-0.6-1.4-0.2l-4.3,3c-0.5,0.3-0.6,0.9-0.2,1.4
			c0.3,0.5,0.9,0.6,1.4,0.2l3.5-2.4l1.6,2.3c0.2,0.3,0.5,0.4,0.8,0.4c0.2,0,0.4-0.1,0.6-0.2l5-3.6l1.8,2.6c0.2,0.2,0.4,0.4,0.6,0.4
			c0.3,0,0.5,0,0.7-0.2l5.5-3.9L34.4,13c-0.1,0.5,0.3,1.1,0.8,1.2c0.1,0,0.1,0,0.2,0c0.5,0,0.9-0.3,1-0.8L37,9.9
			C37.2,9.5,36.8,8.9,36.3,8.8z"/>
	</g>
	<g>
		<g>
			<rect x="10.9" y="20.8" fill="#FECD04" width="3" height="5.8"/>
		</g>
		<g>
			<rect x="17.2" y="23" fill="#ABB734" width="3" height="3.5"/>
		</g>
		<g>
			<rect x="23.5" y="19.2" fill="#FFB95C" width="3" height="7.3"/>
		</g>
		<g>
			<rect x="29.8" y="22" fill="#FA4968" width="3" height="4.6"/>
		</g>
		<g>
			<rect x="36.1" y="20.1" fill="#559AFF" width="3" height="6.5"/>
		</g>
	</g>
	<g>
		<g>
			<rect x="10.9" y="24.8" fill="#EABE06" width="3" height="1.7"/>
		</g>
		<g>
			<rect x="17.2" y="24.8" fill="#9B9B1B" width="3" height="1.7"/>
		</g>
		<g>
			<rect x="23.5" y="24.8" fill="#F9A846" width="3" height="1.7"/>
		</g>
		<g>
			<rect x="29.8" y="24.8" fill="#ED2F58" width="3" height="1.7"/>
		</g>
		<g>
			<rect x="36.1" y="24.8" fill="#3A8BED" width="3" height="1.7"/>
		</g>
	</g>
</g>
</svg>
