<?xml version="1.0" encoding="utf-8"?>
<!-- Generator: Adobe Illustrator 18.0.0, SVG Export Plug-In . SVG Version: 6.00 Build 0)  -->
<!DOCTYPE svg PUBLIC "-//W3C//DTD SVG 1.1//EN" "http://www.w3.org/Graphics/SVG/1.1/DTD/svg11.dtd">
<svg version="1.1" id="Layer_1" xmlns="http://www.w3.org/2000/svg" xmlns:xlink="http://www.w3.org/1999/xlink" x="0px" y="0px"
	 viewBox="0 0 50 50" enable-background="new 0 0 50 50" xml:space="preserve">
<g>
	<g>
		<g>
			<g>
				<g>
					<path fill="#E5E5E5" d="M45.1,41.7c2.1,0,3.9-1.6,3.9-3.7l0,0c0-3.8-3.1-4.4-7-4.4s-7,0.6-7,4.4l0,0c0,2,1.8,3.7,3.9,3.7H45.1z
						"/>
				</g>
				<g>
					<path fill="#559AFF" d="M49,38L49,38c0,2.1-1.8,3.7-3.9,3.7h-6.2c-2.1,0-3.9-1.6-3.9-3.7l0,0c0-3.8,3.1-4.4,7-4.4
						c0.6,0,1.1,0,1.7,0c0.6,0,1.2,0.1,1.7,0.2C47.5,34.3,49,35.4,49,38z"/>
				</g>
				<g>
					<path fill="#D9BAA8" d="M40.7,29.9c0,0-0.3,3.8-0.3,4.2c0,0.9,0.7,1.6,1.6,1.6s1.6-0.7,1.6-1.6c0-0.4-0.3-4.2-0.3-4.2
						S40.7,29.9,40.7,29.9z"/>
				</g>
				<g>
					<path fill="#C9A28F" d="M47.4,28.3c-0.2,0.7-0.7,1.1-1.5,0.9s-1.6-1-1.4-1.7c0.2-0.7,1.7-1,2.5-0.8
						C47.7,26.8,47.6,27.5,47.4,28.3z"/>
				</g>
				<g>
					<path fill="#C9A28F" d="M36.6,28.3c0.2,0.7,0.7,1.1,1.5,0.9s1.6-1,1.4-1.7c-0.2-0.7-1.7-1-2.5-0.8
						C36.3,26.8,36.4,27.5,36.6,28.3z"/>
				</g>
				<g>
					<path fill="#E8CEC1" d="M46.1,26.1c0,2.9-1.2,6.5-4.1,6.5s-4.1-3.6-4.1-6.5s1.2-3.9,4.1-3.9S46.1,23.2,46.1,26.1z"/>
				</g>
				<g>
					<path fill="#894D47" d="M35.8,25.1c2.7-0.7,2.2-5.6,4.8-3.5C42.2,23,38.7,27.4,35.8,25.1z"/>
				</g>
				<g>
					<path fill="#894D47" d="M46.3,26.3c-2-3-7.4-0.3-6-4.4C41.2,19.3,47.7,21.8,46.3,26.3z"/>
				</g>
				<g>
					<polygon fill="#FA4968" points="41.4,35.6 40.7,39.6 41.9,40.5 43.2,39.6 42.4,35.6 					"/>
				</g>
				<g>
					<path fill="#DDEDEB" d="M45.4,33.9l-1.7,3L42,35.6l1.7-1.9C44.3,33.7,44.8,33.8,45.4,33.9z"/>
				</g>
				<g>
					<path fill="#DDEDEB" d="M38.6,33.9l1.7,3l1.6-1.3l-1.7-1.9C39.7,33.7,39.2,33.8,38.6,33.9z"/>
				</g>
			</g>
			<g>
				<g>
					<path fill="#E5E5E5" d="M11.1,41.7c2.1,0,3.9-1.6,3.9-3.7l0,0c0-3.8-3.1-4.4-7-4.4S1,34.2,1,38l0,0c0,2,1.8,3.7,3.9,3.7H11.1z"
						/>
				</g>
				<g>
					<path fill="#FFB95C" d="M15,38L15,38c0,2.1-1.8,3.7-3.9,3.7H4.9C2.8,41.7,1,40.1,1,38l0,0c0-3.8,3.1-4.4,7-4.4
						c0.6,0,1.1,0,1.7,0c0.6,0,1.2,0.1,1.7,0.2C13.5,34.3,15,35.4,15,38z"/>
				</g>
				<g>
					<path fill="#D9BAA8" d="M6.7,29.9c0,0-0.3,3.8-0.3,4.2c0,0.9,0.7,1.6,1.6,1.6s1.6-0.7,1.6-1.6c0-0.4-0.3-4.2-0.3-4.2
						S6.7,29.9,6.7,29.9z"/>
				</g>
				<g>
					<path fill="#C9A28F" d="M13.4,28.3c-0.2,0.7-0.7,1.1-1.5,0.9s-1.6-1-1.4-1.7c0.2-0.7,1.7-1,2.5-0.8
						C13.7,26.8,13.6,27.5,13.4,28.3z"/>
				</g>
				<g>
					<path fill="#C9A28F" d="M2.6,28.3c0.2,0.7,0.7,1.1,1.5,0.9s1.6-1,1.4-1.7s-1.7-1-2.5-0.8C2.3,26.8,2.4,27.5,2.6,28.3z"/>
				</g>
				<g>
					<path fill="#E8CEC1" d="M12.1,26.1c0,2.9-1.2,6.5-4.1,6.5S3.9,29,3.9,26.1s1.2-3.9,4.1-3.9S12.1,23.2,12.1,26.1z"/>
				</g>
				<g>
					<path fill="#894D47" d="M1.7,25.1c2.7-0.7,2.2-5.6,4.8-3.5C8.2,23,4.7,27.4,1.7,25.1z"/>
				</g>
				<g>
					<path fill="#894D47" d="M12.3,26.3c-2-3-7.4-0.3-6-4.4C7.2,19.3,13.7,21.8,12.3,26.3z"/>
				</g>
				<g>
					<polygon fill="#FA4968" points="7.4,35.6 6.7,39.6 7.9,40.5 9.2,39.6 8.4,35.6 					"/>
				</g>
				<g>
					<path fill="#DDEDEB" d="M11.3,33.9l-1.7,3L8,35.6l1.7-1.9C10.3,33.7,10.8,33.8,11.3,33.9z"/>
				</g>
				<g>
					<path fill="#DDEDEB" d="M4.6,33.9l1.7,3L8,35.6l-1.7-1.9C5.7,33.7,5.2,33.8,4.6,33.9z"/>
				</g>
			</g>
		</g>
		<g>
			<g>
				<path fill="#E5E5E5" d="M28.7,49c2.7,0,5-2.1,5-4.7l0,0c0-4.8-4-5.6-9-5.6s-9,0.8-9,5.6l0,0c0,2.6,2.3,4.7,5,4.7H28.7z"/>
			</g>
			<g>
				<path fill="#6CD8D5" d="M33.7,44.3L33.7,44.3c0,2.7-2.3,4.7-5,4.7h-8c-2.7,0-5-2.1-5-4.7l0,0c0-4.8,4-5.6,9-5.6
					c0.7,0,1.5,0,2.2,0.1c0.8,0.1,1.5,0.1,2.1,0.3C31.8,39.6,33.7,41,33.7,44.3z"/>
			</g>
			<g>
				<path fill="#D9BAA8" d="M23,33.9c0,0-0.4,4.9-0.4,5.3c0,1.1,0.9,2,2.1,2s2.1-0.9,2.1-2c0-0.5-0.4-5.3-0.4-5.3H23z"/>
			</g>
			<g>
				<path fill="#C9A28F" d="M31.6,31.8c-0.3,0.9-0.9,1.4-2,1.1c-1-0.3-2.1-1.3-1.8-2.2c0.3-0.9,2.1-1.3,3.2-1
					C32,30,31.9,30.9,31.6,31.8z"/>
			</g>
			<g>
				<path fill="#C9A28F" d="M17.8,31.8c0.3,0.9,0.9,1.4,2,1.1c1-0.3,2.1-1.3,1.8-2.2c-0.3-0.9-2.1-1.3-3.2-1
					C17.4,30,17.5,30.9,17.8,31.8z"/>
			</g>
			<g>
				<path fill="#E8CEC1" d="M30,29c0,3.7-1.5,8.3-5.3,8.3s-5.3-4.7-5.3-8.3s1.5-5,5.3-5C28.5,24.1,30,25.4,30,29z"/>
			</g>
			<g>
				<path fill="#894D47" d="M16.7,27.7c3.4-1,2.8-7.2,6.1-4.5C24.9,25,20.4,30.7,16.7,27.7z"/>
			</g>
			<g>
				<path fill="#894D47" d="M30.2,29.4c-2.5-3.8-9.5-0.4-7.7-5.6C23.6,20.4,32,23.5,30.2,29.4z"/>
			</g>
			<g>
				<polygon fill="#FA4968" points="24,41.2 23,46.3 24.6,47.4 26.2,46.3 25.2,41.2 				"/>
			</g>
			<g>
				<path fill="#DDEDEB" d="M29,39l-2.2,3.8l-2.1-1.6l2.2-2.5C27.6,38.8,28.3,38.9,29,39z"/>
			</g>
			<g>
				<path fill="#DDEDEB" d="M20.4,39l2.2,3.8l2.1-1.6l-2.2-2.5C21.8,38.8,21,38.9,20.4,39z"/>
			</g>
		</g>
	</g>
	<g>
		<path fill="#E5E5E5" d="M29.7,17.8L25.1,19l1.1-4.6c-0.7-1.3-1.1-2.8-1.1-4.3c0-5,4-9,9-9s9,4,9,9s-4,9-9,9
			C32.5,19,31,18.6,29.7,17.8z"/>
	</g>
	<g>
		<g>
			<g>
				<path fill="#ABB734" d="M39.1,13.5c-0.4,0.6-0.9,1-1.4,1.4c-0.5-0.5-1.2-0.7-1.7-0.4c-0.5,0.2-0.8,0.8-0.9,1.5
					c-0.7,0.1-1.3,0.1-2,0c-0.1-0.7-0.4-1.3-0.9-1.5s-1.2,0-1.7,0.5c-0.6-0.4-1-0.9-1.4-1.4c0.5-0.5,0.7-1.2,0.4-1.7
					c-0.2-0.5-0.8-0.8-1.5-0.9c-0.1-0.6-0.1-1.3,0-2c0.7,0,1.3-0.4,1.5-0.9s0-1.2-0.5-1.7c0.4-0.6,0.9-1,1.4-1.4
					c0.5,0.5,1.2,0.7,1.7,0.4c0.5-0.2,0.8-0.8,0.9-1.5c0.6-0.1,1.3-0.1,2,0c0,0.7,0.4,1.3,0.9,1.5s1.2,0,1.7-0.5
					c0.5,0.4,1,0.9,1.4,1.4c-0.5,0.5-0.7,1.2-0.4,1.7c0.2,0.5,0.8,0.8,1.5,0.9c0.1,0.6,0.1,1.3,0,2c-0.7,0.1-1.3,0.4-1.5,0.9
					C38.4,12.3,38.6,13,39.1,13.5z"/>
			</g>
		</g>
		<g>
			<ellipse fill="#E5E5E5" cx="34.1" cy="10" rx="2.5" ry="2.5"/>
		</g>
	</g>
</g>
</svg>
