<?xml version="1.0" encoding="utf-8"?>
<!-- Generator: Adobe Illustrator 18.0.0, SVG Export Plug-In . SVG Version: 6.00 Build 0)  -->
<!DOCTYPE svg PUBLIC "-//W3C//DTD SVG 1.1//EN" "http://www.w3.org/Graphics/SVG/1.1/DTD/svg11.dtd">
<svg version="1.1" id="Layer_1" xmlns="http://www.w3.org/2000/svg" xmlns:xlink="http://www.w3.org/1999/xlink" x="0px" y="0px"
	 viewBox="0 0 50 50" enable-background="new 0 0 50 50" xml:space="preserve">
<g>
	<g>
		<rect x="25.3" y="34.6" fill="#F9A846" width="12.3" height="2.6"/>
	</g>
	<g>
		<polygon fill="#FFB95C" points="40.7,40.9 37.5,40.9 33.8,25.8 37,25.8 		"/>
	</g>
	<g>
		<polygon fill="#FFB95C" points="22.3,40.9 25.5,40.9 29.1,25.8 25.9,25.8 		"/>
	</g>
	<g>
		<path fill="#E5E5E5" d="M46.5,29.5h-30c-1.4,0-2.5-1.1-2.5-2.5V8.8c0-1.4,1.1-2.5,2.5-2.5h30c1.4,0,2.5,1.1,2.5,2.5V27
			C49,28.4,47.9,29.5,46.5,29.5z"/>
	</g>
	<g>
		<rect x="26.1" y="4.5" fill="#F9A846" width="10.7" height="1.7"/>
	</g>
	<g>
		<rect x="30" y="1.6" fill="#FFB95C" width="2.9" height="2.9"/>
	</g>
	<g>
		<rect x="30.5" y="29.5" fill="#F9A846" width="2" height="5"/>
	</g>
	<g>
		
			<rect x="17.2" y="18.6" transform="matrix(-0.7066 -0.7076 0.7076 -0.7066 16.3149 46.2664)" fill="#CCCACA" width="1" height="2.3"/>
	</g>
	<g>
		
			<rect x="16.6" y="19.3" transform="matrix(-0.7075 -0.7067 0.7067 -0.7075 16.2988 46.3888)" fill="#CCCACA" width="2.3" height="1"/>
	</g>
	<g>
		
			<rect x="30" y="22.7" transform="matrix(-0.7072 -0.7071 0.7071 -0.7072 35.2342 62.3474)" fill="#CCCACA" width="1" height="2.3"/>
	</g>
	<g>
		
			<rect x="29.3" y="23.4" transform="matrix(-0.7074 -0.7068 0.7068 -0.7074 35.124 62.2898)" fill="#CCCACA" width="2.3" height="1"/>
	</g>
	<g>
		
			<rect x="28.7" y="11.3" transform="matrix(-0.7071 -0.7071 0.7071 -0.7071 41.0605 41.8194)" fill="#CCCACA" width="1" height="2.3"/>
	</g>
	<g>
		
			<rect x="28.1" y="11.9" transform="matrix(-0.7074 -0.7068 0.7068 -0.7074 41.1918 41.8645)" fill="#CCCACA" width="2.3" height="1"/>
	</g>
	<g>
		
			<rect x="25.3" y="17.4" transform="matrix(-0.6077 -0.7942 0.7942 -0.6077 24.953 53.872)" fill="#425060" width="1" height="6.7"/>
	</g>
	<g>
		<rect x="21.4" y="10" transform="matrix(-0.332 -0.9433 0.9433 -0.332 17.1148 37.8048)" fill="#425060" width="1" height="5.7"/>
	</g>
	<g>
		
			<rect x="19" y="15.5" transform="matrix(-0.9511 -0.3089 0.3089 -0.9511 41.3353 38.5337)" fill="#425060" width="9.4" height="1"/>
	</g>
	<g>
		<polygon fill="#FA4968" points="22.9,10.7 24,14 25.8,11.6 		"/>
	</g>
	<g>
		<rect x="37.6" y="9.2" fill="#FA4968" width="2.9" height="2.9"/>
	</g>
	<g>
		<g>
			<rect x="42.2" y="9.4" fill="#CCCACA" width="3.9" height="1"/>
		</g>
		<g>
			<rect x="42.2" y="10.9" fill="#CCCACA" width="1.8" height="1"/>
		</g>
	</g>
	<g>
		<rect x="37.6" y="14" fill="#FFB95C" width="2.9" height="2.9"/>
	</g>
	<g>
		<g>
			<rect x="42.2" y="14.2" fill="#CCCACA" width="3.9" height="1"/>
		</g>
		<g>
			<rect x="42.2" y="15.8" fill="#CCCACA" width="1.8" height="1"/>
		</g>
	</g>
	<g>
		<rect x="37.6" y="18.9" fill="#6CD8D5" width="2.9" height="2.9"/>
	</g>
	<g>
		<g>
			<rect x="42.2" y="19" fill="#CCCACA" width="3.9" height="1"/>
		</g>
		<g>
			<rect x="42.2" y="20.6" fill="#CCCACA" width="1.8" height="1"/>
		</g>
	</g>
	<g>
		<rect x="37.6" y="23.7" fill="#6EB0FF" width="2.9" height="2.9"/>
	</g>
	<g>
		<g>
			<rect x="42.2" y="23.8" fill="#CCCACA" width="3.9" height="1"/>
		</g>
		<g>
			<rect x="42.2" y="25.4" fill="#CCCACA" width="1.8" height="1"/>
		</g>
	</g>
	<g>
		<g>
			<rect x="33.9" y="9.2" fill="#CCCACA" width="1" height="1.5"/>
		</g>
		<g>
			<path fill="#CCCACA" d="M34.9,22.2h-1v-2.9h1V22.2z M34.9,16.5h-1v-2.9h1V16.5z"/>
		</g>
		<g>
			<rect x="33.9" y="25" fill="#CCCACA" width="1" height="1.5"/>
		</g>
	</g>
	<g>
		<path fill="#ED2F58" d="M10,14.6c1,1.9,2.2,3.8,3.6,5.6c1.4,1.7,2.9,3.4,4.7,4.4c0.7,0.4,1,1.4,0.5,2.1c-1.4,2-3.9-0.8-5.2-1.7
			c-2.8-2.5-5.1-5.3-7.1-8.6C5.2,14.1,8.7,12.2,10,14.6L10,14.6z"/>
	</g>
	<g>
		<path fill="#559AFF" d="M12.6,46.7C12.4,49,9,48.9,8.9,46.6c0-4.1,0.1-8.1-1.2-12.1c0,2.8-0.2,5.6-1.1,8.2
			c-0.4,1.5-0.8,2.9-1.2,4.3c-0.3,0.9-1.3,1.5-2.2,1.2S1.8,47,2,46.2c0.8-4.2,1.9-8.3,1-12.5c-0.2-1.4-0.4-2.9-0.6-4.3l0,0
			c-0.8-4.2-1.1-8.8-0.8-13.8C1.7,13.3,3.7,12.8,6,13c2.4,0.1,4.2,0.8,4.1,3.1c-0.3,4.4,0,8.4,0.7,12c0,0.1,0,0.1,0.1,0.2
			c0.7,3.1,1.5,5.9,1.9,9.2C13,40.6,12.7,43.5,12.6,46.7z"/>
	</g>
	<g>
		<path fill="#FA4968" d="M2.4,29.3v0.1c0,0,8.5-1.3,8.5-1.2c0-0.1,0-0.1-0.1-0.2c-0.7-3.6-1-7.6-0.7-12c0.1-2.4-1.7-3-4.1-3.1
			s-4.3,0.3-4.4,2.6C1.4,20.5,1.6,25.1,2.4,29.3L2.4,29.3z"/>
	</g>
	<g>
		<path fill="#FF6989" d="M4,14.8c1.3,0.3,1.7,1.7,0.8,4.5c-0.1,1-0.2,2.1-0.3,3.2c-0.1,2.2,0,4.5,0.6,6.4c0.3,0.8-0.2,1.7-1,1.9
			c-2.4,0.6-2.4-3.2-2.8-4.7c-0.4-3.1-0.4-6.2,0-9.3C1.5,15.6,2.7,14.6,4,14.8z"/>
	</g>
	<g>
		<ellipse fill="#616B77" cx="6.6" cy="6.8" rx="3.6" ry="3.6"/>
	</g>
	<g>
		
			<rect x="7.6" y="25.7" transform="matrix(-0.1387 -0.9903 0.9903 -0.1387 -19.1684 40.6237)" fill="#425060" width="1" height="5.8"/>
	</g>
	<g>
		<circle fill="#FFB95C" cx="29.5" cy="17.9" r="2"/>
	</g>
	<g>
		<circle fill="#6EB0FF" cx="18" cy="14.2" r="1.9"/>
	</g>
	<g>
		<circle fill="#8CF2ED" cx="22.2" cy="23.5" r="2"/>
	</g>
</g>
</svg>
