<?xml version="1.0" encoding="utf-8"?>
<!-- Generator: Adobe Illustrator 18.0.0, SVG Export Plug-In . SVG Version: 6.00 Build 0)  -->
<!DOCTYPE svg PUBLIC "-//W3C//DTD SVG 1.1//EN" "http://www.w3.org/Graphics/SVG/1.1/DTD/svg11.dtd">
<svg version="1.1" id="Layer_1" xmlns="http://www.w3.org/2000/svg" xmlns:xlink="http://www.w3.org/1999/xlink" x="0px" y="0px"
	 viewBox="0 0 50 50" enable-background="new 0 0 50 50" xml:space="preserve">
<g>
	<g>
		<path fill="#525F70" d="M1,36.4c0.3,2,1.6,3.6,3.3,3.6h41.4c1.7,0,3-1.5,3.3-3.6H1z"/>
	</g>
	<g>
		<path fill="#F4F4F4" d="M42.3,10.1H7.7c-1.1,0-2,0.9-2,2v24.2h38.7V12.1C44.3,11,43.4,10.1,42.3,10.1z"/>
	</g>
	<g>
		<rect x="42.4" y="37.6" fill="#DDEDEB" width="0.9" height="1"/>
	</g>
	<g>
		<rect x="39.7" y="37.6" fill="#DDEDEB" width="0.9" height="1"/>
	</g>
	<g>
		<rect x="37" y="37.6" fill="#DDEDEB" width="0.9" height="1"/>
	</g>
	<g opacity="0.2">
		<g>
			<rect x="6.7" y="37.9" fill="#FFFFFF" width="0.9" height="1"/>
		</g>
		<g>
			<rect x="9.6" y="37.9" fill="#FFFFFF" width="3.3" height="1"/>
		</g>
	</g>
	<g>
		<g>
			<g>
				<g>
					<ellipse fill="#FFB95C" cx="25" cy="15.2" rx="1.5" ry="1.5"/>
				</g>
				<g>
					<path fill="#FFB95C" d="M28.2,20.1c0,0.2,0,0.5-0.1,0.7C28,21.5,27.4,22,26.6,22h-3.3c-0.7,0-1.4-0.5-1.5-1.2
						c0-0.2-0.1-0.5-0.1-0.7c0-1.3,0.8-1.8,2-2l1.2,1.1l1.2-1.1C27.4,18.2,28.2,18.7,28.2,20.1z"/>
				</g>
			</g>
			<g>
				<g>
					<g>
						<ellipse fill="#FA4968" cx="15.5" cy="15.2" rx="1.5" ry="1.5"/>
					</g>
					<g>
						<path fill="#FA4968" d="M18.7,20.1c0,0.2,0,0.5-0.1,0.7c-0.1,0.7-0.8,1.2-1.5,1.2h-3.3c-0.7,0-1.4-0.5-1.5-1.2
							c0-0.2-0.1-0.5-0.1-0.7c0-1.3,0.8-1.8,2-2l1.2,1.1l1.2-1.1C17.8,18.2,18.7,18.7,18.7,20.1z"/>
					</g>
				</g>
				<g>
					<g>
						<ellipse fill="#6CD8D5" cx="34.5" cy="15.2" rx="1.5" ry="1.5"/>
					</g>
					<g>
						<path fill="#6CD8D5" d="M37.7,20.1c0,0.2,0,0.5-0.1,0.7c-0.1,0.7-0.8,1.2-1.5,1.2h-3.3c-0.7,0-1.4-0.5-1.5-1.2
							c0-0.2-0.1-0.5-0.1-0.7c0-1.3,0.8-1.8,2-2l1.2,1.1l1.2-1.1C36.9,18.2,37.7,18.7,37.7,20.1z"/>
					</g>
				</g>
			</g>
		</g>
		<g>
			<g>
				<g>
					<ellipse fill="#ABB734" cx="25" cy="26" rx="1.5" ry="1.5"/>
				</g>
				<g>
					<path fill="#ABB734" d="M28.2,30.9c0,0.2,0,0.5-0.1,0.7c-0.1,0.7-0.8,1.2-1.5,1.2h-3.3c-0.7,0-1.4-0.5-1.5-1.2
						c0-0.2-0.1-0.5-0.1-0.7c0-1.3,0.8-1.8,2-2L25,30l1.2-1.1C27.4,29.1,28.2,29.5,28.2,30.9z"/>
				</g>
			</g>
			<g>
				<g>
					<g>
						<ellipse fill="#559AFF" cx="15.5" cy="26" rx="1.5" ry="1.5"/>
					</g>
					<g>
						<path fill="#559AFF" d="M18.7,30.9c0,0.2,0,0.5-0.1,0.7c-0.1,0.7-0.8,1.2-1.5,1.2h-3.3c-0.7,0-1.4-0.5-1.5-1.2
							c0-0.2-0.1-0.5-0.1-0.7c0-1.3,0.8-1.8,2-2l1.2,1.1l1.2-1.1C17.8,29.1,18.7,29.5,18.7,30.9z"/>
					</g>
				</g>
				<g>
					<g>
						<ellipse fill="#D9BAA8" cx="34.5" cy="26" rx="1.5" ry="1.5"/>
					</g>
					<g>
						<path fill="#D9BAA8" d="M37.7,30.9c0,0.2,0,0.5-0.1,0.7c-0.1,0.7-0.8,1.2-1.5,1.2h-3.3c-0.7,0-1.4-0.5-1.5-1.2
							c0-0.2-0.1-0.5-0.1-0.7c0-1.3,0.8-1.8,2-2l1.2,1.1l1.2-1.1C36.9,29.1,37.7,29.5,37.7,30.9z"/>
					</g>
				</g>
			</g>
		</g>
	</g>
</g>
</svg>
