<?xml version="1.0" encoding="utf-8"?>
<!-- Generator: Adobe Illustrator 18.0.0, SVG Export Plug-In . SVG Version: 6.00 Build 0)  -->
<!DOCTYPE svg PUBLIC "-//W3C//DTD SVG 1.1//EN" "http://www.w3.org/Graphics/SVG/1.1/DTD/svg11.dtd">
<svg version="1.1" id="Layer_1" xmlns="http://www.w3.org/2000/svg" xmlns:xlink="http://www.w3.org/1999/xlink" x="0px" y="0px"
	 viewBox="0 0 50 50" enable-background="new 0 0 50 50" xml:space="preserve">
<g>
	<g>
		<path fill="#525F70" d="M1,36.4c0.3,2,1.6,3.6,3.3,3.6h41.4c1.7,0,3-1.5,3.3-3.6H1z"/>
	</g>
	<g>
		<path fill="#559AFF" d="M42.3,10.1H7.7c-1.1,0-2,0.9-2,2v24.2h38.7V12.1C44.3,11,43.4,10.1,42.3,10.1z"/>
	</g>
	<g opacity="0.3">
		<polygon fill="#FFFFFF" points="8.2,14.4 7.2,14.4 7.2,11.6 15.5,11.6 15.5,12.6 8.2,12.6 		"/>
	</g>
	<g>
		<rect x="42.4" y="37.6" fill="#DDEDEB" width="0.9" height="1"/>
	</g>
	<g>
		<rect x="39.7" y="37.6" fill="#DDEDEB" width="0.9" height="1"/>
	</g>
	<g>
		<rect x="37" y="37.6" fill="#DDEDEB" width="0.9" height="1"/>
	</g>
	<g opacity="0.3">
		<rect x="6.7" y="37.9" fill="#FFFFFF" width="0.9" height="1"/>
	</g>
	<g opacity="0.3">
		<rect x="8.5" y="37.9" fill="#FFFFFF" width="3.3" height="1"/>
	</g>
	<g>
		<g>
			<path fill="#616B77" d="M27.8,16.6h-4.1c-0.3,0-0.5-0.2-0.5-0.5v-1.5c0-0.7,0.6-1.3,1.3-1.3H27c0.7,0,1.3,0.6,1.3,1.3v1.5
				C28.3,16.4,28.1,16.6,27.8,16.6z M24.3,15.6h3v-1c0-0.1-0.1-0.3-0.3-0.3h-2.5c-0.1,0-0.3,0.1-0.3,0.3L24.3,15.6L24.3,15.6z"/>
		</g>
	</g>
	<g>
		<path fill="#9B9B1B" d="M30.2,15.6h-8.7c-0.8,0-1.5,0.7-1.5,1.5v5.1c0,0.8,0.7,1.5,1.5,1.5h8.7c0.8,0,1.5-0.7,1.5-1.5v-5.1
			C31.7,16.3,31,15.6,30.2,15.6z"/>
	</g>
	<g>
		<path fill="#C6CC4A" d="M30.2,15.6h-8.7c-0.8,0-1.5,0.7-1.5,1.5v0.8c0,0.8,0.7,1.5,1.5,1.5h8.7c0.8,0,1.5-0.7,1.5-1.5v-0.8
			C31.7,16.3,31,15.6,30.2,15.6z"/>
	</g>
	<g>
		<path fill="#FFFFFF" d="M26.3,18.3h-1.1c-0.3,0-0.5,0.2-0.5,0.5v1.4c0,0.3,0.2,0.5,0.5,0.5h1.1c0.3,0,0.5-0.2,0.5-0.5v-1.4
			C26.8,18.5,26.6,18.3,26.3,18.3z"/>
	</g>
	<g>
		<path fill="#FFFFFF" d="M18.7,33.6h-2.2c-1,0-1.8-0.8-1.8-1.8h1c0,0.4,0.3,0.7,0.7,0.7h2.2c0.4,0,0.7-0.3,0.7-0.7v-5.5h1v5.5
			C20.5,32.9,19.7,33.6,18.7,33.6z"/>
	</g>
	<g>
		<path fill="#FFFFFF" d="M25.7,33.6h-1.4c-1.2,0-2.2-1-2.2-2.2V28c0-1.2,1-2.2,2.2-2.2h1.4c1.2,0,2.2,1,2.2,2.2v3.4
			C27.9,32.7,26.9,33.6,25.7,33.6z M24.3,26.9c-0.6,0-1.2,0.5-1.2,1.2v3.4c0,0.6,0.5,1.2,1.2,1.2h1.4c0.6,0,1.2-0.5,1.2-1.2v-3.4
			c0-0.6-0.5-1.2-1.2-1.2H24.3z"/>
	</g>
	<g>
		<path fill="#FFFFFF" d="M33.1,30.3h-3.6v-2.6c0-1,0.8-1.8,1.8-1.8h1.8c1.2,0,2.2,1,2.2,2.2C35.3,29.3,34.3,30.3,33.1,30.3z
			 M30.5,29.3H33c0.7,0,1.2-0.5,1.2-1.2s-0.5-1.2-1.2-1.2h-1.8c-0.4,0-0.7,0.3-0.7,0.7V29.3z"/>
	</g>
	<g>
		<path fill="#FFFFFF" d="M33.1,33.6h-1.8c-1,0-1.8-0.8-1.8-1.8v-2.6h3.6c1.2,0,2.2,1,2.2,2.2C35.3,32.7,34.3,33.6,33.1,33.6z
			 M30.5,30.3v1.6c0,0.4,0.3,0.7,0.7,0.7H33c0.7,0,1.2-0.5,1.2-1.2s-0.5-1.2-1.2-1.2h-2.5V30.3z"/>
	</g>
</g>
</svg>
