<?xml version="1.0" encoding="utf-8"?>
<!-- Generator: Adobe Illustrator 18.0.0, SVG Export Plug-In . SVG Version: 6.00 Build 0)  -->
<!DOCTYPE svg PUBLIC "-//W3C//DTD SVG 1.1//EN" "http://www.w3.org/Graphics/SVG/1.1/DTD/svg11.dtd">
<svg version="1.1" id="Layer_1" xmlns="http://www.w3.org/2000/svg" xmlns:xlink="http://www.w3.org/1999/xlink" x="0px" y="0px"
	 viewBox="0 0 50 50" enable-background="new 0 0 50 50" xml:space="preserve">
<g>
	<g>
		<path fill="#894D47" d="M28.5,42.6c0,1.7,2.5,1.9,2.7,0.1c0.3-3,1.1-8.9,1.1-8.9l7,0.7c1.6,0.2,3-1,3-2.6c0-0.4,0-0.7,0.1-1l0,0
			c0.9-3,1.4-6.4,1.5-10.1c0.1-1.7-1.3-2.2-3.1-2.2s-3.2,0.3-3.2,2c-0.1,3.3-0.6,6.2-1.3,8.8l-0.1,0.1L32.9,29
			c-1.7-0.2-3.2,1-3.4,2.6C29.1,35.4,28.6,41,28.5,42.6z"/>
	</g>
	<g>
		<path fill="#ABB734" d="M42.4,31L42.4,31c0,0.1-6.2-1.4-6.2-1.4s0-0.1,0.1-0.1c0.8-2.6,1.2-5.5,1.3-8.8c0.1-1.7,1.5-2.1,3.2-2
			s3.1,0.5,3.1,2.2C43.7,24.6,43.2,28,42.4,31L42.4,31z"/>
	</g>
	<g>
		<path fill="#C6CC4A" d="M42.1,20.2c-1,0.1-1.4,1.1-0.9,3.3c0,0.8,0,1.6,0,2.3c-0.1,1.6-0.3,3.3-0.8,4.7c-0.3,0.6,0,1.2,0.6,1.5
			c1.7,0.6,2-2.2,2.4-3.2c0.5-2.3,0.7-4.5,0.6-6.8C43.9,21,43.1,20.1,42.1,20.2z"/>
	</g>
	<g>
		
			<ellipse transform="matrix(-9.174509e-002 0.9958 -0.9958 -9.174509e-002 58.6734 -25.1457)" fill="#616B77" cx="40.8" cy="14.2" rx="2.6" ry="2.7"/>
	</g>
	<g>
		
			<rect x="36.1" y="29.6" transform="matrix(-0.9733 -0.2296 0.2296 -0.9733 68.5642 68.1763)" fill="#425060" width="4.3" height="1"/>
	</g>
	<g>
		<path fill="#559AFF" d="M36.4,40.1c-0.2,0-0.4,0-0.5-0.1c-0.9-0.1-1.5-0.9-1.4-1.7c0.1-0.9,0.9-1.5,1.7-1.4c2,0.2,5.5,0.2,6.5-0.6
			c1.2-0.9,2.6-6.8,3.1-11.7c0.1-0.9,0.9-1.5,1.7-1.4c0.9,0.1,1.5,0.9,1.4,1.7c-0.3,2.7-1.5,11.6-4.3,13.8
			C42.6,40.4,38.1,40.2,36.4,40.1z"/>
	</g>
	<g>
		<path fill="#894D47" d="M21.5,42.6c0,1.7-2.5,1.9-2.7,0.1c-0.3-3-1.1-8.9-1.1-8.9l-7,0.7c-1.6,0.2-3-1-3-2.6c0-0.4,0-0.7-0.1-1
			l0,0c-0.9-3-1.4-6.4-1.5-10.1c-0.1-1.7,1.3-2.2,3.1-2.2s3.2,0.3,3.2,2c0.1,3.3,0.6,6.2,1.3,8.8l0.1,0.1l3.3-0.5
			c1.7-0.2,3.2,1,3.4,2.6C20.9,35.4,21.4,41,21.5,42.6z"/>
	</g>
	<g>
		<path fill="#ABB734" d="M7.6,31L7.6,31c0,0.1,6.2-1.4,6.2-1.4s0-0.1-0.1-0.1c-0.8-2.6-1.2-5.5-1.3-8.8c-0.1-1.7-1.5-2.1-3.2-2
			s-3.1,0.5-3.1,2.2C6.3,24.6,6.8,28,7.6,31L7.6,31z"/>
	</g>
	<g>
		<path fill="#C6CC4A" d="M7.9,20.2c1,0.1,1.4,1.1,0.9,3.3c0,0.8,0,1.6,0,2.3c0.1,1.6,0.3,3.3,0.8,4.7c0.3,0.6,0,1.2-0.6,1.5
			c-1.7,0.6-2-2.2-2.4-3.2C6.1,26.5,5.9,24.3,6,22C6.1,21,6.9,20.1,7.9,20.2z"/>
	</g>
	<g>
		
			<ellipse transform="matrix(-9.174675e-002 -0.9958 0.9958 -9.174675e-002 -4.209 24.5703)" fill="#616B77" cx="9.1" cy="14.2" rx="2.6" ry="2.7"/>
	</g>
	<g>
		
			<rect x="11.3" y="27.9" transform="matrix(-0.2304 -0.9731 0.9731 -0.2304 -14.7405 48.4142)" fill="#425060" width="1" height="4.3"/>
	</g>
	<g>
		<path fill="#559AFF" d="M13.6,40.1c0.2,0,0.4,0,0.5-0.1c0.9-0.1,1.5-0.9,1.4-1.7c-0.1-0.9-0.9-1.5-1.7-1.4c-2,0.2-5.5,0.2-6.5-0.6
			c-1.2-0.9-2.6-6.8-3.1-11.7c-0.1-0.9-0.9-1.5-1.7-1.4c-0.9,0.1-1.5,0.9-1.4,1.7c0.3,2.7,1.5,11.6,4.3,13.8
			C7.4,40.4,11.9,40.2,13.6,40.1z"/>
	</g>
	<g>
		<rect x="15.9" y="23.2" fill="#E5E5E5" width="18.1" height="3"/>
	</g>
	<g>
		<rect x="23.6" y="26.1" fill="#CCCACA" width="2.8" height="17.8"/>
	</g>
	<g>
		<polygon fill="#425060" points="36.3,46.6 35.8,45.7 40.3,43 44.7,45.7 44.2,46.6 40.3,44.2 		"/>
	</g>
	<g>
		<rect x="39.8" y="40.2" fill="#425060" width="1" height="3.4"/>
	</g>
	<g>
		<polygon fill="#425060" points="13.7,46.6 9.7,44.2 5.8,46.6 5.3,45.7 9.7,43 14.2,45.7 		"/>
	</g>
	<g>
		<rect x="9.2" y="40.2" fill="#425060" width="1" height="3.4"/>
	</g>
	<g>
		<path fill="#E5E5E5" d="M32.6,3.4H17.4c-1.5,0-2.7,1.2-2.7,2.7v10.3c0,1.5,1.2,2.7,2.7,2.7h15.2c1.5,0,2.7-1.2,2.7-2.7V6.1
			C35.3,4.6,34.1,3.4,32.6,3.4z"/>
	</g>
	<g>
		<polygon fill="#425060" points="22.3,10.3 21.2,8.7 19.2,10 18.7,9.2 21.4,7.2 22.6,8.9 25.8,6.7 27.1,8.5 30.8,6 31.4,6.8 
			26.8,10 25.5,8.1 		"/>
	</g>
	<g>
		<polygon fill="#425060" points="31.2,8.4 30.2,8.2 30.5,6.8 29.1,6.5 29.3,5.5 31.6,6 		"/>
	</g>
	<g>
		<rect x="17.3" y="12.4" fill="#FECD04" width="1.6" height="3.2"/>
	</g>
	<g>
		<rect x="20.8" y="13.6" fill="#ABB734" width="1.6" height="1.9"/>
	</g>
	<g>
		<rect x="24.2" y="11.5" fill="#FFB95C" width="1.6" height="4"/>
	</g>
	<g>
		<rect x="27.6" y="13" fill="#FA4968" width="1.6" height="2.5"/>
	</g>
	<g>
		<rect x="31.1" y="12" fill="#559AFF" width="1.6" height="3.5"/>
	</g>
	<g>
		<rect x="17.3" y="14.6" fill="#EABE06" width="1.6" height="0.9"/>
	</g>
	<g>
		<rect x="20.8" y="14.6" fill="#9B9B1B" width="1.6" height="0.9"/>
	</g>
	<g>
		<rect x="24.2" y="14.6" fill="#F9A846" width="1.6" height="0.9"/>
	</g>
	<g>
		<rect x="27.6" y="14.6" fill="#ED2F58" width="1.6" height="0.9"/>
	</g>
	<g>
		<rect x="31.1" y="14.6" fill="#3A8BED" width="1.6" height="0.9"/>
	</g>
</g>
</svg>
