<?xml version="1.0" encoding="utf-8"?>
<!-- Generator: Adobe Illustrator 18.0.0, SVG Export Plug-In . SVG Version: 6.00 Build 0)  -->
<!DOCTYPE svg PUBLIC "-//W3C//DTD SVG 1.1//EN" "http://www.w3.org/Graphics/SVG/1.1/DTD/svg11.dtd">
<svg version="1.1" id="Layer_1" xmlns="http://www.w3.org/2000/svg" xmlns:xlink="http://www.w3.org/1999/xlink" x="0px" y="0px"
	 viewBox="0 0 50 50" enable-background="new 0 0 50 50" xml:space="preserve">
<g>
	<g>
		<g>
			<g>
				<g>
					<path fill="#E5E5E5" d="M28.8,27c2.6,0,4.8-2,4.8-4.6l0,0c0-4.7-3.8-5.5-8.6-5.5s-8.6,0.8-8.6,5.5l0,0c0,2.5,2.2,4.6,4.8,4.6
						H28.8z"/>
				</g>
				<g>
					<path fill="#616B77" d="M33.6,22.4L33.6,22.4c0,2.6-2.2,4.6-4.8,4.6h-7.6c-2.6,0-4.8-2-4.8-4.6l0,0c0-4.7,3.8-5.5,8.6-5.5
						c0.7,0,1.4,0,2.1,0.1s1.4,0.1,2.1,0.3C31.8,17.8,33.6,19.2,33.6,22.4z"/>
				</g>
				<g>
					<path fill="#D9BAA8" d="M23.4,12.2c0,0-0.4,4.8-0.4,5.2c0,1.1,0.9,2,2,2s2-0.9,2-2c0-0.4-0.4-5.2-0.4-5.2H23.4z"/>
				</g>
				<g>
					<path fill="#C9A28F" d="M31,10.2c-0.3,0.9-0.9,1.4-1.9,1.1c-1-0.3-2-1.3-1.7-2.2s2-1.3,3-1C31.4,8.4,31.3,9.3,31,10.2z"/>
				</g>
				<g>
					<path fill="#C9A28F" d="M19,10.2c0.3,0.9,0.9,1.4,1.9,1.1c1-0.3,2-1.3,1.7-2.2s-2-1.3-3-1C18.6,8.4,18.7,9.3,19,10.2z"/>
				</g>
				<g>
					<path fill="#E8CEC1" d="M30,7.5c0,3.6-1.4,8.1-5,8.1s-5-4.5-5-8.1s1.4-4.9,5-4.9S30,3.9,30,7.5z"/>
				</g>
				<g>
					<path fill="#FECD04" d="M17.3,6.2c3.3-0.9,2.7-7.1,5.8-4.3C25.2,3.6,20.9,9.1,17.3,6.2z"/>
				</g>
				<g opacity="0.3">
					<path fill="#FFFFFF" d="M20,6.3l-0.2-1c0.4-0.1,0.9-0.4,1.3-0.8l0.7,0.7C21.3,5.8,20.7,6.2,20,6.3z"/>
				</g>
				<g>
					<path fill="#FECD04" d="M30.2,7.8c-2.4-3.7-9-0.4-7.3-5.5C24-1,32,2.2,30.2,7.8z"/>
				</g>
				<g opacity="0.3">
					<path fill="#FFFFFF" d="M28.1,4.4C27.7,3.8,27,3.3,26.3,3l0.4-0.9c0.9,0.4,1.6,1,2.2,1.7L28.1,4.4z"/>
				</g>
				<g opacity="0.3">
					<path fill="#FFFFFF" d="M25.5,2.8c-0.1,0-0.3,0-0.4,0v-1c0.2,0,0.4,0,0.6,0L25.5,2.8z"/>
				</g>
				<g>
					<rect x="26.3" y="7.8" fill="#425060" width="1.3" height="1"/>
				</g>
				<g>
					<circle fill="#616B77" cx="26.8" cy="9.3" r="0.3"/>
				</g>
				<g>
					<path fill="#E5E5E5" d="M24.3,11.2c0.4,0.3,0.8,0.3,1.3,0"/>
					<path fill="#C9A28F" d="M25,11.9c-0.3,0-0.6-0.1-0.9-0.3l0.6-0.8c0.3,0.2,0.5,0.2,0.8,0l0.5,0.8C25.6,11.8,25.3,11.9,25,11.9z"
						/>
				</g>
				<g>
					<rect x="22.4" y="7.8" fill="#425060" width="1.3" height="1"/>
				</g>
				<g>
					<circle fill="#616B77" cx="23.2" cy="9.3" r="0.3"/>
				</g>
				<g>
					<path fill="#425060" d="M25,14c-0.8,0-1.5-0.4-2-1l0.8-0.6c0.6,0.8,1.9,0.8,2.5,0l0.8,0.6C26.5,13.7,25.8,14,25,14z"/>
				</g>
				<g opacity="0.2">
					<circle fill="#FFFFFF" cx="27.6" cy="11.5" r="0.5"/>
				</g>
				<g opacity="0.2">
					<circle fill="#FFFFFF" cx="22.8" cy="11.5" r="0.5"/>
				</g>
				<g>
					<polygon fill="#FA4968" points="24.3,19.4 23.4,24.9 24.9,26 26.4,24.9 25.5,19.4 					"/>
				</g>
				<g>
					<path fill="#DDEDEB" d="M29.1,17.2L27,21l-2-1.6l2.1-2.4C27.8,17,28.5,17.1,29.1,17.2z"/>
				</g>
				<g>
					<path fill="#DDEDEB" d="M20.9,17.2L23,21l2-1.6L22.9,17C22.2,17,21.5,17.1,20.9,17.2z"/>
				</g>
			</g>
			<g>
				<g>
					<rect x="11.7" y="22.7" fill="#E8CEC1" width="26.7" height="2.6"/>
				</g>
				<g>
					<polygon fill="#C9A28F" points="35.1,45.2 36.3,25.3 13.7,25.3 14.9,45.2 					"/>
				</g>
			</g>
		</g>
		<g>
			<rect x="12.7" y="45.2" fill="#E8CEC1" width="24.6" height="3.8"/>
		</g>
	</g>
	<g>
		<circle fill="#D9BAA8" cx="25" cy="35.3" r="3.3"/>
	</g>
</g>
</svg>
