<?xml version="1.0" encoding="utf-8"?>
<!-- Generator: Adobe Illustrator 18.0.0, SVG Export Plug-In . SVG Version: 6.00 Build 0)  -->
<!DOCTYPE svg PUBLIC "-//W3C//DTD SVG 1.1//EN" "http://www.w3.org/Graphics/SVG/1.1/DTD/svg11.dtd">
<svg version="1.1" id="Layer_1" xmlns="http://www.w3.org/2000/svg" xmlns:xlink="http://www.w3.org/1999/xlink" x="0px" y="0px"
	 viewBox="0 0 50 50" enable-background="new 0 0 50 50" xml:space="preserve">
<g>
	<g>
		<g>
			<g>
				<path fill="#F4F4F4" d="M36.9,49H13.1c-2.3,0-4.2-1.9-4.2-4.2V11.2c0-2.3,1.9-4.2,4.2-4.2H37c2.3,0,4.2,1.9,4.2,4.2v33.6
					C41.1,47.1,39.2,49,36.9,49z"/>
			</g>
		</g>
		<g>
			<path fill="#FECD04" d="M33.4,7.3L33.4,7.3c0,1.2-1,2.2-2.2,2.2H18.8c-1.2,0-2.2-1-2.2-2.2l0,0c0-1.5,1.3-2.8,2.8-2.8H22V4
				c0-1.7,1.3-3,3-3l0,0c1.7,0,3,1.3,3,3v0.5h2.6C32.1,4.5,33.4,5.8,33.4,7.3z"/>
		</g>
	</g>
	<g>
		<g>
			<g>
				<g>
					<circle fill="#6CD8D5" cx="17.6" cy="17.5" r="4.5"/>
				</g>
				<g>
					<g>
						<polygon fill="#773D35" points="16.1,16.1 14.7,17.5 17.7,20.4 23.3,14.8 21.9,13.4 17.7,17.6 						"/>
					</g>
				</g>
			</g>
			<g>
				<g>
					<rect x="25.7" y="14.8" fill="#CCCACA" width="11.2" height="1"/>
				</g>
				<g>
					<rect x="25.7" y="17" fill="#CCCACA" width="11.2" height="1"/>
				</g>
				<g>
					<rect x="25.7" y="19.3" fill="#CCCACA" width="5.8" height="1"/>
				</g>
			</g>
		</g>
		<g>
			<g>
				<g>
					<circle fill="#559AFF" cx="17.6" cy="29.2" r="4.5"/>
				</g>
				<g>
					<g>
						<polygon fill="#773D35" points="16.1,27.8 14.7,29.2 17.7,32.1 23.3,26.5 21.9,25.1 17.7,29.3 						"/>
					</g>
				</g>
			</g>
			<g>
				<g>
					<rect x="25.7" y="26.5" fill="#CCCACA" width="11.2" height="1"/>
				</g>
				<g>
					<rect x="25.7" y="28.7" fill="#CCCACA" width="11.2" height="1"/>
				</g>
				<g>
					<rect x="25.7" y="31" fill="#CCCACA" width="5.8" height="1"/>
				</g>
			</g>
		</g>
		<g>
			<g>
				<g>
					<circle fill="#FA4968" cx="17.6" cy="40.9" r="4.5"/>
				</g>
				<g>
					<g>
						<polygon fill="#773D35" points="16.1,39.4 14.7,40.8 17.7,43.8 23.3,38.2 21.9,36.8 17.7,41 						"/>
					</g>
				</g>
			</g>
			<g>
				<g>
					<rect x="25.7" y="38.2" fill="#CCCACA" width="11.2" height="1"/>
				</g>
				<g>
					<rect x="25.7" y="40.4" fill="#CCCACA" width="11.2" height="1"/>
				</g>
				<g>
					<rect x="25.7" y="42.7" fill="#CCCACA" width="5.8" height="1"/>
				</g>
			</g>
		</g>
	</g>
</g>
</svg>
