<?xml version="1.0" encoding="utf-8"?>
<!-- Generator: Adobe Illustrator 18.0.0, SVG Export Plug-In . SVG Version: 6.00 Build 0)  -->
<!DOCTYPE svg PUBLIC "-//W3C//DTD SVG 1.1//EN" "http://www.w3.org/Graphics/SVG/1.1/DTD/svg11.dtd">
<svg version="1.1" id="Layer_1" xmlns="http://www.w3.org/2000/svg" xmlns:xlink="http://www.w3.org/1999/xlink" x="0px" y="0px"
	 viewBox="0 0 50 50" enable-background="new 0 0 50 50" xml:space="preserve">
<g>
	<g>
		<g>
			<path fill="#F4F4F4" d="M20,44.1c-0.7,1.4-0.3,3.1,0.3,4.6c0,0.1,0.1,0.2,0.1,0.3h21.4c-7-7.2,0.7-21.3,2.2-27.1
				c2.1-8.3-1.3-13.6-5.2-16.8C34.6,1.7,29,0.4,23.5,1.3c-15,2.6-14.8,14-14.2,18.2c0.1,1-0.1,2.1-0.6,3l-3.2,5.2
				c-0.6,1-0.2,2.2,0.8,2.7l1.8,0.9V34l1.9,1.1L8.3,37l1.9,1.4L9.9,41c-0.2,1.6,1,3,2.6,3.1c3.2,0.3,8.4,0.3,12.7-1.6"/>
		</g>
	</g>
	<g>
		<circle fill="#FFFFFF" cx="26.8" cy="18.6" r="10"/>
	</g>
	<g>
		<path fill="#425060" d="M26.8,24.3c-3.1,0-5.7-2.6-5.7-5.7s2.6-5.7,5.7-5.7s5.7,2.6,5.7,5.7S29.9,24.3,26.8,24.3z M26.8,13.9
			c-2.6,0-4.7,2.1-4.7,4.7s2.1,4.7,4.7,4.7s4.7-2.1,4.7-4.7S29.4,13.9,26.8,13.9z"/>
	</g>
	<g>
		<circle fill="#FA4968" cx="26.8" cy="18.6" r="1.9"/>
	</g>
	<g>
		<g>
			<rect x="26.3" y="11.5" fill="#425060" width="1" height="3.4"/>
		</g>
		<g>
			<rect x="26.3" y="22.3" fill="#425060" width="1" height="3.4"/>
		</g>
	</g>
	<g>
		<g>
			<rect x="30.5" y="18.1" fill="#425060" width="3.4" height="1"/>
		</g>
		<g>
			<rect x="19.7" y="18.1" fill="#425060" width="3.4" height="1"/>
		</g>
	</g>
</g>
</svg>
