<?xml version="1.0" encoding="utf-8"?>
<!-- Generator: Adobe Illustrator 18.0.0, SVG Export Plug-In . SVG Version: 6.00 Build 0)  -->
<!DOCTYPE svg PUBLIC "-//W3C//DTD SVG 1.1//EN" "http://www.w3.org/Graphics/SVG/1.1/DTD/svg11.dtd">
<svg version="1.1" id="Layer_1" xmlns="http://www.w3.org/2000/svg" xmlns:xlink="http://www.w3.org/1999/xlink" x="0px" y="0px"
	 viewBox="0 0 50 50" enable-background="new 0 0 50 50" xml:space="preserve">
<g>
	<g>
		<path fill="#8CF2ED" d="M49,9.2V40c0,4.1-3.3,7.4-7.4,7.4s-7.4-3.3-7.4-7.4V24.1l-3.5-2.6l3.5-2.6V9.2c0-4.1,3.3-7.4,7.4-7.4
			c2.1,0,3.9,0.8,5.3,2.2C48.2,5.3,49,7.2,49,9.2z"/>
	</g>
	<g>
		<g>
			<path fill="#E5E5E5" d="M23.1,48.2c4.6,0,8.5-3.6,8.5-8.2v-0.1c0-8.4-6.9-9.8-15.3-9.8C7.9,30.2,1,31.6,1,40v0.1
				c0,4.6,3.9,8.2,8.5,8.2L23.1,48.2L23.1,48.2z"/>
		</g>
		<g>
			<path fill="#ABB734" d="M31.7,40L31.7,40c0,4.6-3.9,8.2-8.5,8.2H9.5C4.9,48.2,1,44.6,1,40l0,0c0-8.4,6.9-9.8,15.3-9.8
				c1.3,0,2.5,0,3.7,0.1c1.3,0.1,2.5,0.2,3.7,0.5C28.5,31.8,31.7,34.2,31.7,40z"/>
		</g>
		<g>
			<path fill="#D9BAA8" d="M13.5,21.8c0,0-0.7,8.5-0.7,9.3c0,1.9,1.6,3.5,3.6,3.5S20,33,20,31.1c0-0.8-0.7-9.3-0.7-9.3H13.5z"/>
		</g>
		<g>
			<path fill="#C9A28F" d="M27.1,18.2c-0.5,1.6-1.6,2.5-3.4,1.9c-1.8-0.5-3.5-2.3-3-3.9s3.6-2.3,5.4-1.7
				C27.8,15.1,27.6,16.6,27.1,18.2z"/>
		</g>
		<g>
			<path fill="#C9A28F" d="M5.6,18.2c0.5,1.6,1.6,2.5,3.4,1.9c1.8-0.5,3.5-2.3,3-3.9s-3.6-2.3-5.4-1.7C4.8,15.1,5.1,16.6,5.6,18.2z"
				/>
		</g>
		<g>
			<path fill="#E8CEC1" d="M25.4,13.4c0,6.4-2.5,14.5-9,14.5s-9-8.1-9-14.5s2.5-8.7,9-8.7C22.8,4.7,25.4,7,25.4,13.4z"/>
		</g>
		<g>
			<path fill="#FECD04" d="M2.6,11.1C8.5,9.4,7.4-1.5,13.1,3.3C16.7,6.5,9,16.3,2.6,11.1z"/>
		</g>
		<g opacity="0.3">
			<path fill="#FFFFFF" d="M7.4,10.8l-0.2-1C8.1,9.7,9,9.1,9.8,8.4l0.7,0.7C9.5,10,8.5,10.6,7.4,10.8z"/>
		</g>
		<g>
			<path fill="#FECD04" d="M25.7,14c-4.3-6.6-16.1-0.6-13.1-9.8C14.6-1.7,28.8,3.8,25.7,14z"/>
		</g>
		<g opacity="0.3">
			<path fill="#FFFFFF" d="M22.2,7.6c-0.8-1.1-2-2-3.3-2.6l0.4-0.9C20.8,4.7,22.1,5.7,23,7L22.2,7.6z"/>
		</g>
		<g opacity="0.3">
			<path fill="#FFFFFF" d="M17.3,4.5c-0.3,0-0.5-0.1-0.8-0.1v-1c0.3,0,0.6,0,0.9,0.1L17.3,4.5z"/>
		</g>
		<g>
			<rect x="18.7" y="14.2" fill="#425060" width="2.3" height="1"/>
		</g>
		<g>
			<circle fill="#616B77" cx="19.5" cy="16.6" r="0.6"/>
		</g>
		<g>
			<path fill="#E5E5E5" d="M15.2,20c0.7,0.5,1.5,0.5,2.3,0"/>
			<path fill="#C9A28F" d="M16.3,20.9c-0.5,0-1-0.2-1.4-0.5l0.6-0.8c0.6,0.4,1.1,0.4,1.8,0l0.5,0.8C17.3,20.8,16.8,20.9,16.3,20.9z"
				/>
		</g>
		<g>
			<rect x="11.7" y="14.2" fill="#425060" width="2.3" height="1"/>
		</g>
		<g>
			<circle fill="#616B77" cx="13.2" cy="16.6" r="0.6"/>
		</g>
		<g>
			<path fill="#425060" d="M16.3,24.7c-1.3,0-2.5-0.6-3.3-1.6l0.8-0.6c0.6,0.8,1.6,1.2,2.6,1.2s1.9-0.4,2.6-1.2l0.8,0.6
				C18.8,24.1,17.6,24.7,16.3,24.7z"/>
		</g>
		<g opacity="0.2">
			<circle fill="#FFFFFF" cx="21" cy="20.6" r="0.9"/>
		</g>
		<g opacity="0.2">
			<circle fill="#FFFFFF" cx="12.5" cy="20.6" r="0.9"/>
		</g>
		<g>
			<polygon fill="#FA4968" points="15.1,34.7 13.5,44.5 16.2,46.5 18.9,44.5 17.3,34.7 			"/>
		</g>
		<g>
			<path fill="#DDEDEB" d="M23.7,30.8l-3.8,6.7l-3.6-2.8l3.7-4.3C21.3,30.4,22.6,30.6,23.7,30.8z"/>
		</g>
		<g>
			<path fill="#DDEDEB" d="M9,30.8l3.8,6.7l3.6-2.8l-3.7-4.3C11.4,30.4,10.1,30.6,9,30.8z"/>
		</g>
	</g>
	<g>
		<polygon fill="#FA4968" points="41.6,5.4 43,8.3 46.1,8.7 43.8,10.9 44.4,14 41.6,12.6 38.8,14 39.3,10.9 37,8.7 40.2,8.3 		"/>
	</g>
	<g>
		<polygon fill="#559AFF" points="41.6,15.3 43,18.2 46.1,18.6 43.8,20.8 44.4,23.9 41.6,22.5 38.8,23.9 39.3,20.8 37,18.6 
			40.2,18.2 		"/>
	</g>
	<g>
		<polygon fill="#ABB734" points="41.6,25.2 43,28.1 46.1,28.5 43.8,30.7 44.4,33.8 41.6,32.4 38.8,33.8 39.3,30.7 37,28.5 
			40.2,28.1 		"/>
	</g>
	<g>
		<polygon fill="#FECD04" points="41.6,35.1 43,38 46.1,38.4 43.8,40.6 44.4,43.7 41.6,42.3 38.8,43.7 39.3,40.6 37,38.4 40.2,38 		
			"/>
	</g>
</g>
</svg>
