<?xml version="1.0" encoding="utf-8"?>
<!-- Generator: Adobe Illustrator 18.0.0, SVG Export Plug-In . SVG Version: 6.00 Build 0)  -->
<!DOCTYPE svg PUBLIC "-//W3C//DTD SVG 1.1//EN" "http://www.w3.org/Graphics/SVG/1.1/DTD/svg11.dtd">
<svg version="1.1" id="Layer_1" xmlns="http://www.w3.org/2000/svg" xmlns:xlink="http://www.w3.org/1999/xlink" x="0px" y="0px"
	 viewBox="0 0 50 50" enable-background="new 0 0 50 50" xml:space="preserve">
<g>
	<g>
		<path fill="#616B77" d="M38.9,41.5L38.9,41.5c0,4.2-3.6,7.5-7.8,7.5H18.8c-4.2,0-7.7-3.3-7.8-7.4v-0.1c0-6.5,4.5-8.4,10.6-8.8
			l3.4,4l3.4-4c1.2,0.1,2.3,0.2,3.3,0.4C36,34,38.9,36.3,38.9,41.5z"/>
	</g>
	<g>
		<polygon fill="#FA4968" points="23.9,36.7 22.4,45.6 24.9,47.4 27.3,45.6 25.9,36.7 		"/>
	</g>
	<g>
		<path fill="#DDEDEB" d="M31.7,33.2l-3.4,6.1L25,36.7l3.4-3.9C29.5,32.8,30.6,32.9,31.7,33.2z"/>
	</g>
	<g>
		<path fill="#DDEDEB" d="M18.3,33.2l3.4,6.1l3.2-2.6l-3.4-3.9C20.5,32.8,19.3,32.9,18.3,33.2z"/>
	</g>
	<g>
		<path fill="#425060" d="M22.3,26.8h5.5v3.3c0,1-5.5,1-5.5,0V26.8z"/>
	</g>
	<g>
		<path fill="#FFD731" d="M16.8,12.4c0.2-4.2,3.6-7.6,7.8-7.8c4.7-0.2,8.6,3.5,8.6,8.2c0,2.9-1.5,5.4-3.7,6.8
			c-0.7,0.5-1.1,1.3-1.1,2.1v2.8h-6.7v-2.8c0-0.8-0.4-1.6-1.1-2.1C18.2,18.1,16.7,15.4,16.8,12.4z"/>
	</g>
	<g>
		<path fill="#525F70" d="M20.8,22.5h8.4v5.1c0,1.6-8.4,1.6-8.4,0V22.5z"/>
	</g>
	<g>
		<g>
			<g>
				<g>
					<g>
						<rect x="24.5" y="1" fill="#FFD731" width="1" height="1.1"/>
					</g>
				</g>
			</g>
			<g>
				<g>
					<g>
						
							<rect x="16.9" y="4.2" transform="matrix(-0.7078 -0.7064 0.7064 -0.7078 26.4769 20.3158)" fill="#FFD731" width="1.1" height="1"/>
					</g>
				</g>
				<g>
					<g>
						
							<rect x="32" y="4.1" transform="matrix(-0.7061 -0.7081 0.7081 -0.7061 52.2184 30.9427)" fill="#FFD731" width="1" height="1.1"/>
					</g>
				</g>
			</g>
		</g>
		<g>
			<g>
				<g>
					<g>
						
							<rect x="20.4" y="1.9" transform="matrix(-0.3835 -0.9235 0.9235 -0.3835 26.7047 22.6422)" fill="#FFD731" width="1.1" height="1"/>
					</g>
				</g>
			</g>
			<g>
				<g>
					<g>
						
							<rect x="28.6" y="1.8" transform="matrix(-0.9235 -0.3837 0.3837 -0.9235 55.0825 15.7114)" fill="#FFD731" width="1" height="1.1"/>
					</g>
				</g>
			</g>
		</g>
	</g>
	<g>
		<circle fill="#FFFFFF" cx="25" cy="9.3" r="1.3"/>
	</g>
	<g>
		<path fill="#FFFFFF" d="M26.3,12.8c0,0.7-0.6,4.3-1.3,4.3s-1.3-3.6-1.3-4.3s0.6-1.3,1.3-1.3S26.3,12.1,26.3,12.8z"/>
	</g>
</g>
</svg>
