<?xml version="1.0" encoding="utf-8"?>
<!-- Generator: Adobe Illustrator 18.0.0, SVG Export Plug-In . SVG Version: 6.00 Build 0)  -->
<!DOCTYPE svg PUBLIC "-//W3C//DTD SVG 1.1//EN" "http://www.w3.org/Graphics/SVG/1.1/DTD/svg11.dtd">
<svg version="1.1" id="Layer_1" xmlns="http://www.w3.org/2000/svg" xmlns:xlink="http://www.w3.org/1999/xlink" x="0px" y="0px"
	 viewBox="0 0 50 50" enable-background="new 0 0 50 50" xml:space="preserve">
<g>
	<g>
		<ellipse fill="#559AFF" cx="41.7" cy="33.6" rx="3.5" ry="3.5"/>
	</g>
	<g>
		<path fill="#559AFF" d="M49,42.6c0,0.5-0.1,1.1-0.2,1.6C48.5,45.9,47,47,45.3,47h-7.5c-1.7,0-3.2-1.2-3.5-2.8
			c-0.1-0.6-0.1-1.1-0.1-1.6c0-3.1,1.9-4.2,4.5-4.5l2.8,2.4l2.8-2.4C47.1,38.4,49,39.5,49,42.6z"/>
	</g>
	<g opacity="0.3">
		<path fill="#FFFFFF" d="M45.4,45.2h-7.5c-0.8,0-1.5-0.6-1.7-1.3c-0.1-0.5-0.1-0.9-0.1-1.3h1c0,0.3,0,0.7,0.1,1.1
			c0,0.3,0.3,0.5,0.7,0.5h7.5c0.3,0,0.6-0.2,0.7-0.5c0.1-0.4,0.1-0.8,0.1-1.1h1c0,0.4,0,0.8-0.1,1.3C46.9,44.6,46.2,45.2,45.4,45.2z
			"/>
	</g>
	<g>
		<ellipse fill="#ABB734" cx="25" cy="33.6" rx="3.5" ry="3.5"/>
	</g>
	<g>
		<path fill="#ABB734" d="M32.3,42.6c0,0.5-0.1,1.1-0.2,1.6c-0.3,1.7-1.8,2.8-3.5,2.8h-7.5c-1.7,0-3.2-1.2-3.5-2.8
			c-0.1-0.6-0.1-1.1-0.1-1.6c0-3.1,1.9-4.2,4.5-4.5l2.8,2.4l2.8-2.4C30.5,38.4,32.3,39.5,32.3,42.6z"/>
	</g>
	<g opacity="0.3">
		<path fill="#FFFFFF" d="M28.7,45.2h-7.5c-0.8,0-1.5-0.6-1.7-1.3c-0.1-0.5-0.1-0.9-0.1-1.3h1c0,0.3,0,0.7,0.1,1.1
			c0,0.3,0.3,0.5,0.7,0.5h7.5c0.3,0,0.6-0.2,0.7-0.5c0.1-0.4,0.1-0.8,0.1-1.1h1c0,0.4,0,0.8-0.1,1.3C30.3,44.6,29.5,45.2,28.7,45.2z
			"/>
	</g>
	<g>
		<ellipse fill="#FA4968" cx="8.3" cy="33.6" rx="3.5" ry="3.5"/>
	</g>
	<g>
		<path fill="#FA4968" d="M15.7,42.6c0,0.5-0.1,1.1-0.2,1.6C15.2,45.9,13.7,47,12,47H4.6c-1.7,0-3.2-1.2-3.5-2.8
			c0-0.6-0.1-1.1-0.1-1.6c0-3.1,1.9-4.2,4.5-4.5l2.8,2.4l2.8-2.4C13.8,38.4,15.7,39.5,15.7,42.6z"/>
	</g>
	<g opacity="0.3">
		<path fill="#FFFFFF" d="M12.1,45.2H4.6c-0.8,0-1.5-0.6-1.7-1.3c-0.1-0.5-0.1-0.9-0.1-1.3h1c0,0.3,0,0.7,0.1,1.1
			c0,0.3,0.3,0.5,0.7,0.5h7.5c0.3,0,0.6-0.2,0.7-0.5c0.1-0.4,0.1-0.8,0.1-1.1h1c0,0.4,0,0.8-0.1,1.3C13.6,44.6,12.9,45.2,12.1,45.2z
			"/>
	</g>
	<g>
		<g>
			<path fill="#6CD8D5" d="M41.3,17.1c0,0-2.2-0.1-4.1-1.4c-1.5,0.9-3.4,1.4-5.4,1.4c-5.1,0-9.2-3.2-9.2-7.1s4.2-7,9.2-7
				c5.1,0,9.2,3.2,9.2,7.1c0,1.3-0.5,2.6-1.3,3.6C40,14.8,40.5,16,41.3,17.1z"/>
		</g>
		<g>
			<g>
				<circle fill="#FFFFFF" cx="27" cy="10.1" r="1.6"/>
			</g>
			<g>
				<circle fill="#FFFFFF" cx="31.8" cy="10.1" r="1.6"/>
			</g>
			<g>
				<circle fill="#FFFFFF" cx="36.7" cy="10.1" r="1.6"/>
			</g>
		</g>
	</g>
	<g>
		<g>
			<path fill="#FECD04" d="M10.7,26.4c0,0,2.2-0.1,4.1-1.4c1.5,0.9,3.4,1.4,5.4,1.4c5.1,0,9.2-3.2,9.2-7.1s-4.1-7.1-9.2-7.1
				S11,15.4,11,19.3c0,1.3,0.5,2.6,1.3,3.6C12,24,11.5,25.2,10.7,26.4z"/>
		</g>
		<g>
			<g>
				<circle fill="#FFFFFF" cx="25" cy="19.3" r="1.6"/>
			</g>
			<g>
				<circle fill="#FFFFFF" cx="20.2" cy="19.3" r="1.6"/>
			</g>
			<g>
				<circle fill="#FFFFFF" cx="15.3" cy="19.3" r="1.6"/>
			</g>
		</g>
	</g>
</g>
</svg>
