<?xml version="1.0" encoding="utf-8"?>
<!-- Generator: Adobe Illustrator 18.0.0, SVG Export Plug-In . SVG Version: 6.00 Build 0)  -->
<!DOCTYPE svg PUBLIC "-//W3C//DTD SVG 1.1//EN" "http://www.w3.org/Graphics/SVG/1.1/DTD/svg11.dtd">
<svg version="1.1" id="Layer_1" xmlns="http://www.w3.org/2000/svg" xmlns:xlink="http://www.w3.org/1999/xlink" x="0px" y="0px"
	 viewBox="0 0 50 50" enable-background="new 0 0 50 50" xml:space="preserve">
<g>
	<g>
		<g>
			<ellipse fill="#616B77" cx="25" cy="4.8" rx="2.4" ry="2.4"/>
		</g>
		<g>
			<ellipse fill="#616B77" cx="25" cy="4.8" rx="2.4" ry="2.4"/>
		</g>
		<g>
			<path fill="#FA4968" d="M36.4,3.1c-0.8,1.9-1.8,3.8-3,5.5c-1,1.5-2.6,2.9-3.7,3.7c-0.7,0.6-1.1,1.4-1.1,2.3l-0.1,8.9v2.3
				l-0.1,9.4c0,0.8-0.8,1.4-1.7,1.4S25,36.2,25,35.4c0,0.8-0.7,1.4-1.6,1.4s-1.7-0.6-1.7-1.4L21.6,26v-2.3l-0.1-8.8
				c0-1-0.5-1.8-1.2-2.4c-3.1-2.4-5.2-5.8-6.6-9.3C13,1.6,15.2,0.6,16,2.1c0.9,1.7,1.9,3.3,3.1,4.7c0.9,1.1,2,2.1,3.1,2.8
				c0.6,0.4,1.2,0.5,1.9,0.4c0.6-0.1,1.2-0.1,1.8,0c0.7,0.1,1.3-0.1,1.9-0.4C29,8.9,30,7.9,31,6.8c1.2-1.4,2.2-3,3.1-4.7
				C34.8,0.6,37.1,1.6,36.4,3.1z"/>
		</g>
		<g>
			<path fill="#616B77" d="M21.5,20.7v3V26l0.1,9.4c0,0.8,0.8,1.4,1.7,1.4c0.9,0,1.6-0.6,1.6-1.4c0,0.8,0.7,1.4,1.6,1.4
				s1.7-0.6,1.7-1.4l0.1-9.4v-2.3v-3C28.3,20.7,21.5,20.7,21.5,20.7z"/>
		</g>
		<g>
			<rect x="24.5" y="23.7" fill="#425060" width="1" height="11.7"/>
		</g>
	</g>
	<g>
		<path fill="#FECD04" d="M48.9,7.6c-0.7,1.8-1.6,3.5-2.8,5.1c-1,1.3-2.5,2.7-3.4,3.5c-0.7,0.5-1.1,1.3-1.1,2.2l-0.1,8.3v2.1
			l-0.1,8.7c0,0.7-0.7,1.3-1.5,1.3s-1.5-0.6-1.5-1.3c0,0.7-0.7,1.3-1.5,1.3s-1.5-0.6-1.5-1.3l-0.1-8.7v-2.1L35,18.5
			c0-0.9-0.4-1.7-1.2-2.3c-1.5-1.2-2.7-2.6-3.8-4.1c0.6-0.5,1.4-1.2,2.1-1.9c0.2,0.3,0.4,0.5,0.6,0.8c0.9,1,1.8,1.9,2.9,2.6
			c0.5,0.3,1.1,0.5,1.8,0.4c0.6-0.1,1.1-0.1,1.7,0c0.6,0.1,1.2-0.1,1.8-0.4c1.1-0.7,2-1.6,2.9-2.6c1.1-1.3,2.1-2.8,2.9-4.4
			C47.4,5.2,49.5,6.2,48.9,7.6z"/>
	</g>
	<g>
		<path fill="#616B77" d="M35.1,24.3v2.4v2.1l0.1,8.7c0,0.7,0.7,1.3,1.5,1.3s1.5-0.6,1.5-1.3c0,0.7,0.7,1.3,1.5,1.3s1.5-0.6,1.5-1.3
			l0.1-8.7v-2.1v-2.4H35.1z"/>
	</g>
	<g>
		<ellipse fill="#616B77" cx="38.3" cy="9.2" rx="2.2" ry="2.2"/>
	</g>
	<g>
		<rect x="37.8" y="26.7" fill="#425060" width="1" height="10.8"/>
	</g>
	<g>
		<path fill="#559AFF" d="M20.2,12.4c0.1,0.1,0.3,0.2,0.4,0.4c-0.3,0.6-0.7,1.1-1.1,1.7c-1,1.3-2.5,2.7-3.4,3.5
			c-0.7,0.5-1.1,1.3-1.1,2.2l-0.1,8.3v2.1l-0.1,8.7c0,0.7-0.7,1.3-1.5,1.3s-1.5-0.6-1.5-1.3c0,0.7-0.7,1.3-1.5,1.3S8.7,40,8.7,39.2
			l-0.1-8.7v-2.1l-0.1-8.2c0-0.9-0.4-1.7-1.2-2.3c-2.9-2.2-4.8-5.4-6.2-8.6c-0.6-1.5,1.5-2.4,2.2-1c0.8,1.6,1.7,3.1,2.8,4.4
			c0.9,1,1.8,1.9,2.9,2.6c0.5,0.3,1.1,0.5,1.8,0.4c0.6-0.1,1.1-0.1,1.7,0c0.6,0.1,1.2-0.1,1.8-0.4c1.1-0.7,2-1.6,2.9-2.6
			c0.5-0.5,0.9-1.1,1.3-1.7C19,11.5,19.6,12,20.2,12.4z"/>
	</g>
	<g>
		<path fill="#616B77" d="M8.5,25.7v2.7v2.1l0.1,8.7c0,0.7,0.7,1.3,1.5,1.3s1.5-0.6,1.5-1.3c0,0.7,0.7,1.3,1.5,1.3s1.5-0.6,1.5-1.3
			l0.1-8.7v-2.1v-2.7C14.7,25.7,8.5,25.7,8.5,25.7z"/>
	</g>
	<g>
		<ellipse fill="#616B77" cx="11.7" cy="10.9" rx="2.2" ry="2.2"/>
	</g>
	<g>
		<rect x="11.2" y="28.4" fill="#425060" width="1" height="10.8"/>
	</g>
	<g>
		<rect x="5.1" y="40.6" fill="#D9BAA8" width="13.3" height="8.1"/>
	</g>
	<g>
		<rect x="18.4" y="36.8" fill="#E8CEC1" width="13.3" height="11.9"/>
	</g>
	<g>
		<rect x="31.6" y="38.9" fill="#C9A28F" width="13.3" height="9.8"/>
	</g>
</g>
</svg>
