<?xml version="1.0" encoding="utf-8"?>
<!-- Generator: Adobe Illustrator 18.0.0, SVG Export Plug-In . SVG Version: 6.00 Build 0)  -->
<!DOCTYPE svg PUBLIC "-//W3C//DTD SVG 1.1//EN" "http://www.w3.org/Graphics/SVG/1.1/DTD/svg11.dtd">
<svg version="1.1" id="Layer_1" xmlns="http://www.w3.org/2000/svg" xmlns:xlink="http://www.w3.org/1999/xlink" x="0px" y="0px"
	 viewBox="0 0 50 50" enable-background="new 0 0 50 50" xml:space="preserve">
<g>
	<g>
		<path fill="#FA4968" d="M17.1,25.1c-0.2,0.9-0.6,1.8-1,2.5c-0.9-0.3-1.8-0.2-2.3,0.3c-0.5,0.6-0.6,1.5-0.3,2.4
			c-0.8,0.5-1.6,0.8-2.5,1c-0.4-0.9-1.1-1.5-1.9-1.5c-0.8,0-1.5,0.6-1.9,1.5c-0.9-0.2-1.7-0.6-2.5-1c0.3-0.9,0.2-1.8-0.3-2.4
			S3,27.2,2,27.6c-0.5-0.8-0.8-1.6-1-2.5c0.9-0.4,1.4-1.1,1.4-1.9S1.8,21.7,1,21.3c0.2-0.9,0.5-1.8,1-2.5c0.9,0.3,1.8,0.2,2.4-0.3
			C4.9,17.9,5,17,4.7,16c0.8-0.5,1.6-0.8,2.5-1c0.4,0.9,1.1,1.5,1.9,1.5c0.8,0,1.5-0.6,1.9-1.5c0.9,0.2,1.7,0.6,2.5,1
			c-0.3,0.9-0.2,1.8,0.3,2.4c0.5,0.5,1.4,0.6,2.4,0.3c0.5,0.8,0.8,1.6,1,2.5c-0.9,0.4-1.4,1.1-1.4,1.9C15.7,24,16.2,24.7,17.1,25.1z
			"/>
	</g>
	<g>
		<circle fill="#FFFFFF" cx="9" cy="23.2" r="2.5"/>
		<path fill="#425060" d="M9,26.2c-1.7,0-3-1.4-3-3c0-1.7,1.4-3,3-3c1.7,0,3,1.4,3,3C12.1,24.8,10.7,26.2,9,26.2z M9,21.2
			c-1.1,0-2,0.9-2,2s0.9,2,2,2s2-0.9,2-2S10.1,21.2,9,21.2z"/>
	</g>
	<g>
		<path fill="#ABB734" d="M49,37.2c-0.2,0.9-0.6,1.8-1,2.5c-0.9-0.3-1.8-0.2-2.3,0.3c-0.5,0.6-0.6,1.5-0.3,2.4
			c-0.8,0.5-1.6,0.8-2.5,1C42.4,42.6,41.7,42,41,42c-0.8,0-1.5,0.6-1.9,1.5c-0.9-0.2-1.7-0.6-2.5-1c0.3-0.9,0.2-1.8-0.3-2.4
			c-0.5-0.6-1.4-0.7-2.4-0.3c-0.5-0.8-0.8-1.6-1-2.5c0.9-0.4,1.4-1.1,1.4-1.9c0-0.8-0.6-1.5-1.4-1.9c0.2-0.9,0.5-1.8,1-2.5
			c0.9,0.3,1.8,0.2,2.4-0.3c0.5-0.6,0.6-1.5,0.3-2.4c0.8-0.5,1.6-0.8,2.5-1c0.4,0.9,1.1,1.5,1.9,1.5c0.8,0,1.5-0.6,1.9-1.5
			c0.9,0.2,1.7,0.6,2.5,1c-0.3,0.9-0.2,1.8,0.3,2.4c0.5,0.5,1.4,0.6,2.4,0.3c0.5,0.8,0.8,1.6,1,2.5c-0.9,0.4-1.4,1.1-1.4,1.9
			C47.6,36.1,48.1,36.8,49,37.2z"/>
	</g>
	<g>
		<circle fill="#FFFFFF" cx="41" cy="35.3" r="2.5"/>
		<path fill="#425060" d="M41,38.3c-1.7,0-3-1.4-3-3c0-1.7,1.4-3,3-3c1.7,0,3,1.4,3,3C44,37,42.6,38.3,41,38.3z M41,33.3
			c-1.1,0-2,0.9-2,2s0.9,2,2,2s2-0.9,2-2S42.1,33.3,41,33.3z"/>
	</g>
	<g>
		<path fill="#ABB734" d="M17.4,41.1c-0.1,0.6-0.4,1.2-0.7,1.7c-0.6-0.2-1.2-0.2-1.6,0.2c-0.4,0.4-0.4,1-0.2,1.6
			c-0.5,0.3-1.1,0.6-1.6,0.7c-0.3-0.6-0.7-1-1.2-1s-1,0.4-1.2,1c-0.6-0.1-1.1-0.4-1.6-0.7c0.1-0.7,0-1.3-0.3-1.6
			c-0.4-0.4-1-0.4-1.6-0.2c-0.3-0.5-0.5-1.1-0.7-1.7c0.6-0.3,1-0.7,1-1.3s-0.4-1-1-1.3c0.1-0.6,0.4-1.2,0.7-1.7
			C8,37.1,8.6,37,9,36.7c0.4-0.4,0.4-1,0.2-1.6c0.5-0.3,1.1-0.6,1.6-0.7c0.3,0.6,0.7,1,1.2,1s1-0.4,1.2-1c0.6,0.1,1.1,0.4,1.6,0.7
			c-0.2,0.6-0.2,1.2,0.2,1.6c0.4,0.4,1,0.4,1.6,0.2c0.3,0.5,0.5,1.1,0.7,1.7c-0.6,0.3-1,0.7-1,1.3C16.5,40.3,16.8,40.8,17.4,41.1z"
			/>
	</g>
	<g>
		<circle fill="#FFFFFF" cx="12.1" cy="39.8" r="1.7"/>
		<path fill="#425060" d="M12.1,42c-1.2,0-2.2-1-2.2-2.2s1-2.2,2.2-2.2s2.2,1,2.2,2.2S13.3,42,12.1,42z M12.1,38.7
			c-0.6,0-1.2,0.5-1.2,1.2c0,0.6,0.5,1.2,1.2,1.2c0.6,0,1.2-0.5,1.2-1.2C13.2,39.2,12.7,38.7,12.1,38.7z"/>
	</g>
	<g>
		<path fill="#425060" d="M42,33.6C32.5,30,10.2,21.5,10,21.4l0.5-0.9c0.5,0.2,21.1,8,31.9,12.1L42,33.6z"/>
	</g>
	<g>
		
			<rect x="-0.2" y="31.2" transform="matrix(-0.2248 -0.9744 0.9744 -0.2248 -20.3859 47.0837)" fill="#425060" width="17.4" height="1"/>
	</g>
	<g>
		
			<rect x="26.6" y="25.2" transform="matrix(-0.1211 -0.9926 0.9926 -0.1211 -8.8601 71.2033)" fill="#425060" width="1" height="28.7"/>
	</g>
	<g>
		<g>
			<path fill="#D9BAA8" d="M21.1,32.4v-2.3c0-1.9,0.4-3.6,1.2-5.1c0.8-1.4,2.4-3,4.6-4.6c2.1-1.5,3.5-2.8,4.2-3.7c0.7-1,1-2,1-3.2
				c0-1.3-0.5-2.3-1.5-3s-2.3-1-4.1-1c-3,0-6.5,1-10.4,3l-3.3-6.7C17.4,3.3,22.2,2,27.3,2c4.2,0,7.5,1,10,3S41,9.7,41,13
				c0,2.2-0.5,4.2-1.5,5.8s-2.9,3.5-5.8,5.5c-1.9,1.4-3.2,2.5-3.7,3.3s-0.8,1.7-0.8,3v1.8L21.1,32.4z M20.1,42.8
				c0-1.7,0.5-3,1.4-3.9s2.2-1.3,4-1.3c1.7,0,3,0.4,3.9,1.3c0.9,0.9,1.4,2.2,1.4,3.8s-0.5,2.9-1.4,3.8c-0.9,0.9-2.2,1.4-3.9,1.4
				c-1.7,0-3-0.5-4-1.4C20.6,45.7,20.1,44.5,20.1,42.8z"/>
		</g>
	</g>
</g>
</svg>
