<?xml version="1.0" encoding="utf-8"?>
<!-- Generator: Adobe Illustrator 18.0.0, SVG Export Plug-In . SVG Version: 6.00 Build 0)  -->
<!DOCTYPE svg PUBLIC "-//W3C//DTD SVG 1.1//EN" "http://www.w3.org/Graphics/SVG/1.1/DTD/svg11.dtd">
<svg version="1.1" id="Layer_1" xmlns="http://www.w3.org/2000/svg" xmlns:xlink="http://www.w3.org/1999/xlink" x="0px" y="0px"
	 viewBox="0 0 50 50" enable-background="new 0 0 50 50" xml:space="preserve">
<g>
	<g>
		<polygon fill="#C9A28F" points="27.6,49 22.4,49 23.8,30 26.2,30 		"/>
	</g>
	<g>
		<g>
			<polygon fill="#D9BAA8" points="37,49 31.7,49 20.3,29.6 25.6,29.6 			"/>
		</g>
		<g>
			<polygon fill="#D9BAA8" points="13,49 18.3,49 29.7,29.6 24.4,29.6 			"/>
		</g>
	</g>
	<g>
		<ellipse fill="#FF8C83" cx="25" cy="19.9" rx="19" ry="18.9"/>
	</g>
	<g>
		<path fill="#F4F4F4" d="M25,34.7c-8.2,0-14.9-6.6-14.9-14.8S16.8,5.1,25,5.1s14.9,6.6,14.9,14.8C39.9,28,33.2,34.7,25,34.7z"/>
	</g>
	<g>
		<path fill="#FF8C83" d="M25,30.6c-6,0-10.8-4.8-10.8-10.7S19,9.2,25,9.2S35.8,14,35.8,19.9S31,30.6,25,30.6z"/>
	</g>
	<g>
		<path fill="#F4F4F4" d="M25,26.5c-3.7,0-6.7-3-6.7-6.6c0-3.7,3-6.6,6.7-6.6s6.7,3,6.7,6.6S28.7,26.5,25,26.5z"/>
	</g>
	<g>
		<ellipse fill="#FF8C83" cx="25" cy="19.9" rx="2.6" ry="2.5"/>
	</g>
	<g>
		<g>
			
				<rect x="8" y="12" transform="matrix(-0.7071 -0.7071 0.7071 -0.7071 21.8595 34.0639)" fill="#425060" width="19.9" height="1"/>
		</g>
		<g>
			<polygon fill="#FFB95C" points="15.9,6.9 12.5,3.5 11.8,6.4 15.2,9.8 			"/>
		</g>
		<g>
			<polygon fill="#FFB95C" points="11.8,6.4 15.2,9.8 12.3,10.5 8.9,7.1 			"/>
		</g>
	</g>
</g>
</svg>
