<?xml version="1.0" encoding="utf-8"?>
<!-- Generator: Adobe Illustrator 18.0.0, SVG Export Plug-In . SVG Version: 6.00 Build 0)  -->
<!DOCTYPE svg PUBLIC "-//W3C//DTD SVG 1.1//EN" "http://www.w3.org/Graphics/SVG/1.1/DTD/svg11.dtd">
<svg version="1.1" id="Layer_1" xmlns="http://www.w3.org/2000/svg" xmlns:xlink="http://www.w3.org/1999/xlink" x="0px" y="0px"
	 viewBox="0 0 50 50" enable-background="new 0 0 50 50" xml:space="preserve">
<g>
	<g>
		<path fill="#525F70" d="M9.4,33.7v-2.9C9.4,30.8,9.4,34.3,9.4,33.7z"/>
	</g>
	<g>
		<path fill="#525F70" d="M9.4,23.6v22.8c0,1.4,1.2,2.6,2.6,2.6s2.6-1.2,2.6-2.6c0,1.4,1.2,2.6,2.6,2.6s2.6-1.2,2.6-2.6V23.6H9.4z"
			/>
	</g>
	<g>
		<path fill="#8CF2ED" d="M32.7,12.2H11.6c-3.6,0-6.4,2.9-6.4,6.4v15c0,1.2,1,2.1,2.1,2.1c1.2,0,2.1-1,2.1-2.1v-2.9v-9.4v8.1h10.5
			V17.6l12.9-1.1c1.2,0,2.1-1,2.1-2.1S33.9,12.2,32.7,12.2z"/>
	</g>
	<g>
		<polyline fill="#FA4968" points="13.1,12.2 13.6,13.9 12.7,18.5 14.6,20.1 16.6,18.5 15.6,13.9 16.2,12.2 		"/>
	</g>
	<g opacity="0.5">
		<path fill="#FFFFFF" d="M7.6,20.4h-1v-1.8c0-2.4,1.8-4.5,4.2-4.9l0.1,1C9,15,7.5,16.6,7.5,18.6v1.8H7.6z"/>
	</g>
	<g opacity="0.2">
		<rect x="10.9" y="36.9" fill="#FFFFFF" width="1" height="1"/>
	</g>
	<g opacity="0.2">
		<rect x="10.9" y="40.2" fill="#FFFFFF" width="1" height="4.6"/>
	</g>
	<g opacity="0.5">
		<rect x="29.9" y="13.7" fill="#FFFFFF" width="1.1" height="1"/>
	</g>
	<g opacity="0.5">
		<rect x="22.9" y="13.7" fill="#FFFFFF" width="5.3" height="1"/>
	</g>
	<g>
		<circle fill="#616B77" cx="14.6" cy="5.2" r="4.2"/>
	</g>
	<g opacity="0.2">
		<path fill="#FFFFFF" d="M12.9,5.2h-1c0-1.5,1.2-2.7,2.7-2.7v1C13.7,3.5,12.9,4.2,12.9,5.2z"/>
	</g>
	<g>
		<rect x="14.1" y="37" fill="#425060" width="1" height="9.4"/>
	</g>
	<g>
		<path fill="#FFB95C" d="M30.7,38.9h7.2c0.4-1.2,1-2.2,1.8-3.1c1.5-1.6,2.3-3.8,2-6.2c-0.5-3.3-3.2-5.9-6.5-6.3
			c-4.5-0.5-8.4,3-8.4,7.4c0,1.9,0.7,3.7,1.9,5C29.6,36.6,30.2,37.7,30.7,38.9z"/>
	</g>
	<g>
		<path fill="#FFCA8A" d="M29.2,28.7l-0.9-0.4c0.5-1.4,1.5-2.5,2.8-3.2l0.5,0.9C30.5,26.6,29.7,27.6,29.2,28.7z"/>
	</g>
	<g>
		<path fill="#FFCA8A" d="M32.6,25.5l-0.3-1c0.3-0.1,0.6-0.2,0.9-0.2l0.2,1C33.1,25.3,32.9,25.4,32.6,25.5z"/>
	</g>
	<g>
		<path fill="#FFFFFF" d="M35.9,38.9h-1v-6.8h-1.3v6.6h-1v-6.6H32c-0.9,0-1.6-0.7-1.6-1.6s0.7-1.6,1.6-1.6c0.9,0,1.6,0.7,1.6,1.6
			v0.6h1.3v-0.6c0-0.9,0.7-1.6,1.6-1.6c0.9,0,1.6,0.7,1.6,1.6s-0.7,1.6-1.6,1.6h-0.6C35.9,32.1,35.9,38.9,35.9,38.9z M35.9,31.1h0.6
			c0.3,0,0.6-0.3,0.6-0.6c0-0.3-0.3-0.6-0.6-0.6s-0.6,0.3-0.6,0.6V31.1z M32,29.9c-0.3,0-0.6,0.3-0.6,0.6c0,0.3,0.3,0.6,0.6,0.6h0.6
			v-0.6C32.6,30.2,32.4,29.9,32,29.9z"/>
	</g>
	<g>
		<path fill="#616B77" d="M37.3,38.5h-6.1c-0.7,0-1.2,0.5-1.2,1.2l0,0c0,0.7,0.5,1.2,1.2,1.2h6.1c0.7,0,1.2-0.5,1.2-1.2l0,0
			C38.5,39.1,38,38.5,37.3,38.5z"/>
	</g>
	<g>
		<path fill="#525F70" d="M37.3,40.9h-6.1c-0.7,0-1.2,0.5-1.2,1.2s0.5,1.2,1.2,1.2h6.1c0.7,0,1.2-0.5,1.2-1.2
			C38.5,41.5,38,40.9,37.3,40.9z"/>
	</g>
	<g>
		<path fill="#616B77" d="M31.8,43.4c0.2,1.2,1.2,2.1,2.5,2.1s2.3-0.9,2.5-2.1H31.8z"/>
	</g>
	<g>
		<g>
			<g>
				<g>
					<g>
						<line fill="none" x1="43.7" y1="30.6" x2="44.9" y2="30.6"/>
						<rect x="43.7" y="30.1" fill="#CCCACA" width="1.2" height="1"/>
					</g>
					<g>
						<line fill="none" x1="23.6" y1="30.6" x2="24.8" y2="30.6"/>
						<rect x="23.6" y="30.1" fill="#CCCACA" width="1.2" height="1"/>
					</g>
				</g>
				<g>
					<g>
						<line fill="none" x1="34.3" y1="20" x2="34.3" y2="21.2"/>
						<rect x="33.8" y="20" fill="#CCCACA" width="1" height="1.2"/>
					</g>
				</g>
			</g>
			<g>
				<g>
					<g>
						<line fill="none" x1="43.7" y1="30.6" x2="44.9" y2="30.6"/>
						<rect x="43.7" y="30.1" fill="#CCCACA" width="1.2" height="1"/>
					</g>
					<g>
						<line fill="none" x1="23.6" y1="30.6" x2="24.8" y2="30.6"/>
						<rect x="23.6" y="30.1" fill="#CCCACA" width="1.2" height="1"/>
					</g>
				</g>
				<g>
					<g>
						<line fill="none" x1="34.3" y1="20" x2="34.3" y2="21.2"/>
						<rect x="33.8" y="20" fill="#CCCACA" width="1" height="1.2"/>
					</g>
				</g>
			</g>
			<g>
				<g>
					<g>
						<line fill="none" x1="40.9" y1="37.3" x2="41.8" y2="38.1"/>
						
							<rect x="40.8" y="37.2" transform="matrix(-0.7073 -0.7069 0.7069 -0.7073 44.0041 93.7039)" fill="#CCCACA" width="1.2" height="1"/>
					</g>
					<g>
						<line fill="none" x1="26.8" y1="23.1" x2="27.6" y2="24"/>
						
							<rect x="26.6" y="23" transform="matrix(-0.7073 -0.7069 0.7069 -0.7073 29.8376 59.4227)" fill="#CCCACA" width="1.2" height="1"/>
					</g>
				</g>
				<g>
					<g>
						<line fill="none" x1="27.6" y1="37.3" x2="26.8" y2="38.1"/>
						
							<rect x="26.7" y="37.1" transform="matrix(-0.7072 -0.7071 0.7071 -0.7072 19.7687 83.6509)" fill="#CCCACA" width="1" height="1.2"/>
					</g>
					<g>
						<line fill="none" x1="41.8" y1="23.1" x2="40.9" y2="24"/>
						
							<rect x="40.8" y="23" transform="matrix(-0.7071 -0.7072 0.7072 -0.7071 53.8758 69.5612)" fill="#CCCACA" width="1" height="1.2"/>
					</g>
				</g>
			</g>
		</g>
		<g>
			<g>
				<g>
					<g>
						<line fill="none" x1="43" y1="27" x2="44.1" y2="26.6"/>
						
							<rect x="43" y="26.2" transform="matrix(-0.3828 -0.9238 0.9238 -0.3828 35.4328 77.221)" fill="#CCCACA" width="1" height="1.2"/>
					</g>
					<g>
						<line fill="none" x1="24.5" y1="34.7" x2="25.5" y2="34.2"/>
						
							<rect x="24.5" y="33.9" transform="matrix(-0.3828 -0.9238 0.9238 -0.3828 2.6732 70.7575)" fill="#CCCACA" width="1" height="1.2"/>
					</g>
				</g>
				<g>
					<g>
						<line fill="none" x1="30.2" y1="20.8" x2="30.6" y2="21.9"/>
						
							<rect x="29.8" y="20.9" transform="matrix(-0.383 -0.9237 0.9237 -0.383 22.2932 57.6072)" fill="#CCCACA" width="1.2" height="1"/>
					</g>
				</g>
			</g>
			<g>
				<g>
					<g>
						<line fill="none" x1="43" y1="27" x2="44.1" y2="26.6"/>
						
							<rect x="43" y="26.2" transform="matrix(-0.3828 -0.9238 0.9238 -0.3828 35.4328 77.221)" fill="#CCCACA" width="1" height="1.2"/>
					</g>
					<g>
						<line fill="none" x1="24.5" y1="34.7" x2="25.5" y2="34.2"/>
						
							<rect x="24.5" y="33.9" transform="matrix(-0.3828 -0.9238 0.9238 -0.3828 2.6732 70.7575)" fill="#CCCACA" width="1" height="1.2"/>
					</g>
				</g>
				<g>
					<g>
						<line fill="none" x1="30.2" y1="20.8" x2="30.6" y2="21.9"/>
						
							<rect x="29.8" y="20.9" transform="matrix(-0.383 -0.9237 0.9237 -0.383 22.2932 57.6072)" fill="#CCCACA" width="1.2" height="1"/>
					</g>
				</g>
			</g>
			<g>
				<g>
					<g>
						<line fill="none" x1="43" y1="34.2" x2="44.1" y2="34.7"/>
						
							<rect x="42.9" y="34" transform="matrix(-0.924 -0.3824 0.3824 -0.924 70.4883 82.9871)" fill="#CCCACA" width="1.2" height="1"/>
					</g>
					<g>
						<line fill="none" x1="24.5" y1="26.6" x2="25.5" y2="27"/>
						
							<rect x="24.4" y="26.3" transform="matrix(-0.9237 -0.383 0.383 -0.9237 37.8231 61.1307)" fill="#CCCACA" width="1.2" height="1"/>
					</g>
				</g>
				<g>
					<g>
						<line fill="none" x1="38.3" y1="20.8" x2="37.9" y2="21.9"/>
						
							<rect x="37.6" y="20.8" transform="matrix(-0.9242 -0.382 0.382 -0.9242 65.1125 55.7281)" fill="#CCCACA" width="1" height="1.2"/>
					</g>
				</g>
			</g>
		</g>
	</g>
	<g>
		<rect x="8.9" y="21.3" fill="#50C9C3" width="1" height="8.1"/>
	</g>
</g>
</svg>
