<?xml version="1.0" encoding="utf-8"?>
<!-- Generator: Adobe Illustrator 18.0.0, SVG Export Plug-In . SVG Version: 6.00 Build 0)  -->
<!DOCTYPE svg PUBLIC "-//W3C//DTD SVG 1.1//EN" "http://www.w3.org/Graphics/SVG/1.1/DTD/svg11.dtd">
<svg version="1.1" id="Layer_1" xmlns="http://www.w3.org/2000/svg" xmlns:xlink="http://www.w3.org/1999/xlink" x="0px" y="0px"
	 viewBox="0 0 50 50" enable-background="new 0 0 50 50" xml:space="preserve">
<g>
	<g>
		<g>
			<g>
				<path fill="#FFB95C" d="M25,1c-5.9,0-10.8,7.7-12,18.4c1.1-1.2,2.3-2.3,3.6-3.4C18.2,8.6,21.7,4,25,4c4.5,0,9.4,8.4,9.4,21
					S29.5,46,25,46s-9.4-8.4-9.4-21c0-1.5,0.1-2.9,0.2-4.2c-1.2,1.2-2.3,2.4-3.2,3.6c0,0.2,0,0.4,0,0.6c0,13.5,5.4,24,12.4,24
					s12.4-10.5,12.4-24S31.9,1,25,1z"/>
			</g>
		</g>
		<g>
			<g>
				<path fill="#ABB734" d="M46.9,28.8c-1-2.7-3.1-5.5-5.9-8.1c-2.9-2.6-6.5-5-10.7-6.9c-4.1-1.9-8.1-3.1-11.8-3.6
					c-0.4,0.9-0.8,1.8-1.1,2.8c1.2,0.1,2.4,0.4,3.6,0.7c2.5,0.6,5.2,1.5,8,2.8c7.5,3.5,13.4,8.7,15,13.3c0.6,1.6,0.6,2.9,0.1,4
					c-1,2.1-4.1,3.4-8.4,3.3c-0.3,1-0.7,2-1,2.9c0.4,0,0.8,0,1.2,0c5.3,0,9.4-1.7,11-5C47.7,33.3,47.7,31.1,46.9,28.8z M6,20.2
					c-0.6-1.6-0.6-2.9-0.1-4c1-2.1,4-3.3,8.2-3.3h0.2c0.3-1,0.7-2,1-2.9C9.4,9.7,4.8,11.4,3.1,15c-0.9,1.8-0.9,4,0,6.3
					c2,5.4,8.3,11.1,16.6,15c4.1,1.9,8.1,3.1,11.8,3.6C32,39,32.3,38,32.6,37c-3.4-0.4-7.4-1.6-11.6-3.5C13.6,30,7.6,24.8,6,20.2z"
					/>
			</g>
		</g>
		<g>
			<path fill="#50C9C3" d="M15.3,40c-3,0.4-5.3-0.1-6.5-1.5c-0.8-1-1.1-2.3-1-3.9c0.1-1.5,0.7-3.3,1.5-5c-0.8-0.7-1.6-1.5-2.3-2.2
				c-1.3,2.4-2.1,4.8-2.3,7c-0.2,2.4,0.4,4.6,1.7,6.1c1.6,1.8,4,2.7,6.9,2.7c1,0,2.1-0.1,3.2-0.3C16.2,42,15.7,41.1,15.3,40z
				 M43.5,9.6c-4.5-5.3-16.1-2.7-26.4,6c-3.4,2.8-6.2,6-8.3,9.1c0.6,0.7,1.4,1.5,2.1,2.2c1.9-3.1,4.7-6.2,8.1-9
				c6.5-5.5,13.1-8,17.5-8c2.1,0,3.7,0.6,4.7,1.7c0.8,0.9,1.1,2.3,1,3.9c-0.1,1.5-0.7,3.3-1.5,5c0.1,0.1,0.2,0.2,0.3,0.3
				c0.7,0.6,1.3,1.3,2,1.9c1.3-2.4,2.1-4.8,2.3-7C45.3,13.2,44.8,11.1,43.5,9.6z M39.1,23.1c-2,3.1-4.7,6.2-8.1,9
				c-4.5,3.8-9,6.1-12.8,7.3c0.4,1,0.9,1.9,1.4,2.7c4.2-1.3,8.9-3.9,13.3-7.6c3.4-2.8,6.2-6,8.3-9.1C40.6,24.6,39.9,23.9,39.1,23.1z
				"/>
		</g>
		<g>
			<path fill="#FA4968" d="M30.1,23.2c0,4.5-5.1,6.4-5.1,6.4s-5.1-1.9-5.1-6.4c0-1.5,1.2-2.7,2.7-2.7c1.1,0,2.1,0.7,2.5,1.6
				c0.4-1,1.3-1.6,2.5-1.6C28.9,20.6,30.1,21.8,30.1,23.2z"/>
		</g>
	</g>
</g>
</svg>
