<?xml version="1.0" encoding="utf-8"?>
<!-- Generator: Adobe Illustrator 18.0.0, SVG Export Plug-In . SVG Version: 6.00 Build 0)  -->
<!DOCTYPE svg PUBLIC "-//W3C//DTD SVG 1.1//EN" "http://www.w3.org/Graphics/SVG/1.1/DTD/svg11.dtd">
<svg version="1.1" id="Layer_1" xmlns="http://www.w3.org/2000/svg" xmlns:xlink="http://www.w3.org/1999/xlink" x="0px" y="0px"
	 viewBox="0 0 50 50" enable-background="new 0 0 50 50" xml:space="preserve">
<g>
	<g>
		<path fill="#FECD04" d="M23.1,48.3c4.6,0,8.5-3.6,8.5-8.2V40c0-8.4-6.9-9.8-15.3-9.8S1,31.6,1,40v0.1c0,4.6,3.9,8.2,8.5,8.2H23.1z
			"/>
	</g>
	<g>
		<path fill="#F4F4F4" d="M10.7,31.4c-0.3,5.7,1.9,11.3,5.6,16.9c3.4-5,5.5-10.5,5.6-16.9H10.7z"/>
	</g>
	<g>
		<path fill="#D9BAA8" d="M13.5,21.8c0,0-0.7,8.5-0.7,9.3c0,1.9,1.6,3.5,3.6,3.5S20,33,20,31.1c0-0.8-0.7-9.3-0.7-9.3H13.5z"/>
	</g>
	<g>
		<g>
			<path fill="#C9A28F" d="M27,18.2c-0.5,1.6-1.6,2.5-3.4,1.9s-3.5-2.3-3-3.9s3.6-2.3,5.4-1.7C27.8,15.1,27.5,16.6,27,18.2z"/>
		</g>
		<g>
			<path fill="#C9A28F" d="M5.6,18.2c0.5,1.6,1.6,2.5,3.4,1.9c1.8-0.5,3.5-2.3,3-3.9s-3.6-2.3-5.4-1.7C4.8,15.1,5.1,16.6,5.6,18.2z"
				/>
		</g>
	</g>
	<g>
		<path fill="#E8CEC1" d="M25.3,13.4c0,6.4-2.5,14.5-9,14.5s-9-8.1-9-14.5s2.5-8.7,9-8.7S25.3,7,25.3,13.4z"/>
	</g>
	<g>
		<path fill="#FA4968" d="M2.6,11.1C8.5,9.4,7.4-1.5,13,3.3C16.7,6.4,9,16.3,2.6,11.1z"/>
	</g>
	<g opacity="0.3">
		<path fill="#FFFFFF" d="M7.4,10.8l-0.2-1C8,9.6,8.9,9.1,9.7,8.3l0.8,0.8C9.6,10,8.5,10.6,7.4,10.8z"/>
	</g>
	<g>
		<path fill="#FA4968" d="M25.6,14c-4.3-6.6-16.1-0.7-13.1-9.8C14.5-1.8,28.7,3.8,25.6,14z"/>
	</g>
	<g opacity="0.3">
		<path fill="#FFFFFF" d="M22.1,7.6c-0.8-1.1-2-2-3.3-2.6l0.4-1c1.5,0.6,2.8,1.7,3.7,2.9L22.1,7.6z"/>
	</g>
	<g opacity="0.3">
		<path fill="#FFFFFF" d="M17.2,4.5c-0.3,0-0.5-0.1-0.8-0.1v-1c0.3,0,0.6,0,1,0.1L17.2,4.5z"/>
	</g>
	<g>
		<path fill="#616B77" d="M40,16.3c-2,1.9-4.7,3.2-7.7,3.2c-0.5,0-0.9,0-1.4-0.1v7.5c0,5,9,10.5,9,10.5l0,0l0,0L40,16.3L40,16.3z"/>
	</g>
	<g opacity="0.3">
		<path fill="#FFFFFF" d="M37.2,21.3l-0.4-1c0.3-0.1,0.5-0.2,0.8-0.3l0.5,1C37.8,21.1,37.5,21.2,37.2,21.3z"/>
	</g>
	<g opacity="0.3">
		<path fill="#FFFFFF" d="M33.7,26.9h-1.1v-5.7h0.5c0.7,0,1.4-0.2,2.1-0.3l0.3,1.1c-0.6,0.1-1.2,0.2-1.8,0.3V26.9z"/>
	</g>
	<g>
		<path fill="#525F70" d="M47.7,19.5c-3,0-5.7-1.2-7.7-3.2v21.1c0,0,9-5.6,9-10.5v-7.5C48.6,19.5,48.1,19.5,47.7,19.5z"/>
	</g>
	<g>
		<g>
			<rect x="18.6" y="14.2" fill="#425060" width="2.3" height="1.1"/>
		</g>
		<g>
			<circle fill="#616B77" cx="19.4" cy="16.6" r="0.6"/>
		</g>
	</g>
	<g>
		<path fill="#E5E5E5" d="M15.1,20c0.7,0.5,1.5,0.5,2.3,0"/>
		<path fill="#C9A28F" d="M16.3,21c-0.5,0-1-0.2-1.5-0.5l0.6-0.9c0.6,0.4,1.1,0.4,1.7,0l0.6,0.9C17.3,20.8,16.8,21,16.3,21z"/>
	</g>
	<g>
		<g>
			<rect x="11.6" y="14.2" fill="#425060" width="2.3" height="1.1"/>
		</g>
		<g>
			<circle fill="#616B77" cx="13.2" cy="16.6" r="0.6"/>
		</g>
	</g>
	<g>
		<path fill="#425060" d="M16.3,24.7c-1.3,0-2.5-0.6-3.4-1.6l0.8-0.7c0.6,0.8,1.6,1.2,2.5,1.2c1,0,1.9-0.4,2.5-1.2l0.8,0.7
			C18.8,24.2,17.6,24.7,16.3,24.7z"/>
	</g>
	<g opacity="0.2">
		<circle fill="#FFFFFF" cx="20.9" cy="20.6" r="0.9"/>
	</g>
	<g opacity="0.2">
		<circle fill="#FFFFFF" cx="12.4" cy="20.6" r="0.9"/>
	</g>
	<g>
		<path fill="#FFD731" d="M22.3,34.8l1.6,3.3c-0.4,3.6-3.4,7.8-7.6,10.2c2.1-5.7,3.5-12.3,3.5-17.9c1.6,0.1,3,0.3,4.4,0.6l0.6,3.3
			L22.3,34.8z"/>
	</g>
	<g>
		<path fill="#FFD731" d="M10.3,34.8l-1.6,3.3c0.4,3.6,3.4,7.8,7.6,10.2c-2.1-5.7-3.5-12.3-3.5-17.9c-1.6,0.1-3,0.3-4.4,0.6
			l-0.6,3.3L10.3,34.8z"/>
	</g>
</g>
</svg>
