<?xml version="1.0" encoding="utf-8"?>
<!-- Generator: Adobe Illustrator 18.0.0, SVG Export Plug-In . SVG Version: 6.00 Build 0)  -->
<!DOCTYPE svg PUBLIC "-//W3C//DTD SVG 1.1//EN" "http://www.w3.org/Graphics/SVG/1.1/DTD/svg11.dtd">
<svg version="1.1" id="Layer_1" xmlns="http://www.w3.org/2000/svg" xmlns:xlink="http://www.w3.org/1999/xlink" x="0px" y="0px"
	 viewBox="0 0 50 50" enable-background="new 0 0 50 50" xml:space="preserve">
<g opacity="0.3">
	<g>
		<g>
			<g>
				<polygon fill="#FFFFFF" points="22,25.6 21.9,24.4 22,24.4 				"/>
			</g>
			<g>
				<polygon fill="#FFFFFF" points="28.1,25.6 28,24.4 28.1,24.4 				"/>
			</g>
		</g>
	</g>
</g>
<g>
	<g>
		<path fill="#616B77" d="M19.5,42.8l-0.2,2.7c0,0.7-0.6,1.2-1.3,1.2h-3.5c-0.7,0-1.3-0.6-1.3-1.3l0,0c0-0.5,0.3-1,0.8-1.2l3.9-1.6"
			/>
	</g>
	<g>
		<path fill="#616B77" d="M30.5,42.8l0.2,2.7c0,0.7,0.6,1.2,1.3,1.2h3.5c0.7,0,1.3-0.6,1.3-1.3l0,0c0-0.5-0.3-1-0.8-1.2l-3.9-1.6"/>
	</g>
	<g>
		<g>
			<path fill="#425060" d="M43.4,43.3l0.2,2.4c0,0.6,0.5,1.1,1.1,1.1h3.1c0.6,0,1.1-0.5,1.1-1.2l0,0c0-0.5-0.3-0.9-0.7-1.1L44.8,43"
				/>
		</g>
	</g>
	<g>
		<g>
			<ellipse fill="#525F70" cx="39.3" cy="11.6" rx="2.2" ry="2.3"/>
		</g>
	</g>
	<g>
		<path fill="#D9BAA8" d="M39.3,27.4l-0.6,16.3L33.6,43l2.6-23.7l-0.7,6.5c-0.1,1-1.2,1.6-2.1,1.1l0,0c-0.5-0.3-0.8-0.8-0.8-1.4
			l1-7.8c0.2-1.3,1.3-2.2,2.5-2.2l2.8,0.1h0.4h0.4l2.8-0.1c1.3,0,2.4,0.9,2.5,2.2l1,7.8c0.1,0.6-0.2,1.2-0.8,1.4l0,0
			c-0.9,0.5-2-0.1-2.1-1.1l-0.7-6.5L45.1,43L40,43.7L39.3,27.4z"/>
	</g>
	<g>
		<path fill="#6CD8D5" d="M45.1,17.6c-0.2-1.3-1.3-2.2-2.5-2.2l-2.8,0.1h-0.4H39l-2.8-0.1c-1.3,0-2.4,0.9-2.5,2.2l-1,7.8
			c-0.1,0.6,0.2,1.2,0.8,1.4c0.9,0.5,2-0.1,2.1-1.1l0.7-6.5l-0.7,6.5c2.5,0.6,5,0.6,7.7,0l-0.7-6.5l0.7,6.5c0.1,1,1.2,1.6,2.1,1.1
			c0.5-0.3,0.8-0.8,0.8-1.4L45.1,17.6z"/>
	</g>
	<g>
		<path fill="#425060" d="M39.2,26.7c-1.3,0-2.5-0.1-3.8-0.3l0.2-1.1c2.5,0.4,5,0.4,7.5-0.1l0.2,1.1C41.9,26.5,40.6,26.7,39.2,26.7z
			"/>
	</g>
	<g>
		<g>
			<path fill="#425060" d="M6.6,43.3l-0.2,2.4c0,0.6-0.5,1.1-1.1,1.1H2.1c-0.6,0-1.1-0.5-1.1-1.2l0,0c0-0.5,0.3-0.9,0.7-1.1L5.1,43"
				/>
		</g>
	</g>
	<g>
		<g>
			<ellipse fill="#525F70" cx="10.7" cy="11.6" rx="2.2" ry="2.3"/>
		</g>
	</g>
	<g>
		<path fill="#559AFF" d="M10.7,27.4l-0.6,16.3L4.9,43l2.6-23.7l-0.7,6.5c-0.1,1-1.2,1.6-2.1,1.1l0,0C4.2,26.6,3.9,26,4,25.5l1-7.8
			c0.2-1.3,1.3-2.2,2.5-2.2l2.8,0.1h0.4h0.4l2.8-0.1c1.3,0,2.4,0.9,2.5,2.2l1,7.8c0.1,0.6-0.2,1.2-0.8,1.4l0,0
			c-0.9,0.5-2-0.1-2.1-1.1l-0.7-6.5L16.4,43l-5.1,0.7L10.7,27.4z"/>
	</g>
	<g>
		<path fill="#FA4968" d="M16.4,17.6c-0.2-1.3-1.3-2.2-2.5-2.2l-2.8,0.1h-0.4h-0.4l-2.8-0.1c-1.3,0-2.4,0.9-2.5,2.2l-1,7.8
			c-0.1,0.6,0.2,1.2,0.8,1.4c0.9,0.5,2-0.1,2.1-1.1l0.7-6.5l-0.7,6.5c2.5,0.6,5,0.6,7.7,0l-0.7-6.5l0.7,6.5c0.1,1,1.2,1.6,2.1,1.1
			c0.5-0.3,0.8-0.8,0.8-1.4L16.4,17.6z"/>
	</g>
	<g>
		<path fill="#425060" d="M10.5,26.7c-1.3,0-2.5-0.1-3.8-0.3l0.2-1.1c2.5,0.4,5,0.4,7.5-0.1l0.2,1.1C13.2,26.5,11.9,26.7,10.5,26.7z
			"/>
	</g>
	<g>
		<path fill="#FFB95C" d="M25,25.1l2.3,18.2l5.7-0.8L28.2,16l4.5-1.7c1.1-0.4,1.9-1.3,2.3-2.3l2.5-7.2c0.3-0.8-0.3-1.6-1.1-1.6l0,0
			c-0.5,0-0.9,0.2-1.1,0.7l-3.5,7.2l-6.6,0.8h-0.5l-6.6-0.8l-3.5-7.2c-0.2-0.4-0.6-0.7-1.1-0.7l0,0c-0.8,0-1.4,0.8-1.1,1.6L15,12
			c0.4,1.1,1.2,1.9,2.3,2.3l4.5,1.7L17,42.5l5.7,0.8L25,25.1v-2.6"/>
	</g>
	<g>
		<path fill="#E5E5E5" d="M29.2,21.4c-3,1.4-5.8,1.4-8.4,0L17,42.5l5.7,0.8L25,25.1l2.3,18.2l5.7-0.8L29.2,21.4z"/>
	</g>
	<g>
		<g>
			<ellipse fill="#525F70" cx="25" cy="6.9" rx="2.5" ry="2.5"/>
		</g>
	</g>
	<g>
		<path fill="#425060" d="M25,23c-1.5,0-3-0.2-4.5-0.5l0.3-1.1c2.8,0.6,5.6,0.6,8.4,0l0.3,1.1C28,22.9,26.5,23,25,23z"/>
	</g>
	<g>
		<g opacity="0.3">
			
				<rect x="6.9" y="33.4" transform="matrix(-0.995 -9.965318e-002 9.965318e-002 -0.995 11.3158 71.8507)" fill="#FFFFFF" width="1.1" height="4.5"/>
		</g>
		<g opacity="0.3">
			
				<rect x="7.5" y="30" transform="matrix(-0.995 -9.965318e-002 9.965318e-002 -0.995 13.0092 61.8538)" fill="#FFFFFF" width="1.1" height="1.2"/>
		</g>
	</g>
	<g>
		<g opacity="0.3">
			
				<rect x="36.4" y="31.4" transform="matrix(-0.995 -9.956754e-002 9.956754e-002 -0.995 70.3545 70.8135)" fill="#FFFFFF" width="1.1" height="4.5"/>
		</g>
		<g opacity="0.3">
			
				<rect x="36.9" y="27.9" transform="matrix(-0.995 -9.956754e-002 9.956754e-002 -0.995 71.8799 60.5891)" fill="#FFFFFF" width="1.1" height="1.2"/>
		</g>
	</g>
	<g>
		<g opacity="0.5">
			
				<rect x="26.5" y="29.1" transform="matrix(-0.1812 -0.9834 0.9834 -0.1812 4.8623 63.2531)" fill="#FFFFFF" width="4.5" height="1.1"/>
		</g>
		<g opacity="0.5">
			
				<rect x="27.3" y="24.1" transform="matrix(-0.1814 -0.9834 0.9834 -0.1814 8.7644 56.59)" fill="#FFFFFF" width="1.2" height="1.1"/>
		</g>
	</g>
</g>
</svg>
