<?xml version="1.0" encoding="utf-8"?>
<!-- Generator: Adobe Illustrator 18.0.0, SVG Export Plug-In . SVG Version: 6.00 Build 0)  -->
<!DOCTYPE svg PUBLIC "-//W3C//DTD SVG 1.1//EN" "http://www.w3.org/Graphics/SVG/1.1/DTD/svg11.dtd">
<svg version="1.1" id="Layer_1" xmlns="http://www.w3.org/2000/svg" xmlns:xlink="http://www.w3.org/1999/xlink" x="0px" y="0px"
	 viewBox="0 0 50 50" enable-background="new 0 0 50 50" xml:space="preserve">
<g>
	<g>
		<path fill="#FFA49F" d="M42.8,28.5c1.8-3.8,3.4-16.1,0.7-16.6c-1.9-0.3-3.1,9.6-3.1,9.6v0.1c-2.9-0.2-8.3,5.4-9.9,7.8
			c-1.1,1.7-1.6,6.9-1.8,9l6.2,1.9c0.3-1.9,1-5.2,1.8-6.4C37.9,32.2,41.9,30.3,42.8,28.5z"/>
	</g>
	<g opacity="0.2">
		<path fill="#FFFFFF" d="M35.5,26.9l-0.7-0.8c0.2-0.2,0.4-0.4,0.7-0.6l0.7,0.8C35.9,26.5,35.7,26.7,35.5,26.9z"/>
	</g>
	<g opacity="0.2">
		<path fill="#FFFFFF" d="M32.6,30.1l-0.8-0.6c0.5-0.8,1.2-1.6,2.1-2.4l0.8,0.7C33.8,28.6,33.1,29.4,32.6,30.1z"/>
	</g>
	<g>
		<path fill="#F4F4F4" d="M39.8,24.8c0.1,0,0.1-0.1,0.2-0.2c0.8-0.7,1.1-1.7,0.7-2c-0.4-0.4-1.3-0.1-2,0.7c-0.1,0.1-0.1,0.1-0.2,0.2
			C39.3,23.6,39.7,24.1,39.8,24.8z"/>
	</g>
	<g>
		<rect x="27.1" y="36.7" fill="#559AFF" width="10.2" height="12.3"/>
	</g>
	<g>
		<path fill="#FFA49F" d="M7.2,28.5c-1.8-3.8-3.4-16.1-0.7-16.6c1.9-0.3,3.1,9.6,3.1,9.6v0.1c2.9-0.2,8.3,5.4,9.9,7.8
			c1.1,1.7,1.6,6.9,1.8,9l-6.2,1.9c-0.3-1.9-1-5.2-1.8-6.4C12.1,32.2,8.1,30.3,7.2,28.5z"/>
	</g>
	<g opacity="0.2">
		<path fill="#FFFFFF" d="M14.5,26.9c-0.2-0.2-0.4-0.4-0.6-0.6l0.7-0.8c0.2,0.2,0.4,0.4,0.7,0.6L14.5,26.9z"/>
	</g>
	<g opacity="0.2">
		<path fill="#FFFFFF" d="M17.4,30.1c-0.5-0.7-1.2-1.5-2-2.3l0.8-0.7c0.8,0.9,1.5,1.7,2.1,2.4L17.4,30.1z"/>
	</g>
	<g>
		<path fill="#F4F4F4" d="M10.2,24.8c-0.1,0-0.1-0.1-0.2-0.2c-0.8-0.7-1.1-1.7-0.7-2s1.3-0.1,2,0.7c0.1,0.1,0.1,0.1,0.2,0.2
			C10.7,23.6,10.3,24.1,10.2,24.8z"/>
	</g>
	<g>
		<rect x="12.7" y="36.7" fill="#559AFF" width="10.2" height="12.3"/>
	</g>
	<g>
		<g>
			<circle fill="#8CF2ED" cx="25" cy="12.4" r="11.4"/>
		</g>
		<g>
			<path fill="#C6CC4A" d="M36.4,12.4c0,0.4,0,0.8-0.1,1.1c-1-0.1-1.9-0.2-2.7,0.2c-0.4,0.3-0.8,0.6-1.1,1s-0.8,0.7-1.2,0.8
				c-0.5,0.1-1.1-0.1-1.2-0.6c-0.2-0.7,0.6-1.4,0.5-2.1c-0.1-0.7-0.8-1-1.5-1.3c-0.6-0.2-1.4-0.5-1.6-1.2c-0.1-0.6,0.2-1.1,0.6-1.6
				c0.3-0.5,0.6-1.1,0.4-1.6c-0.3-0.7-1.2-0.7-1.9-0.9c-1.1-0.4-1.7-1.7-1.7-2.8c0-0.8,0.2-1.7,0.5-2.5C31.5,1.2,36.4,6.2,36.4,12.4
				z"/>
		</g>
		<g>
			<path fill="#C6CC4A" d="M22.7,17.8c-1,0.3-2.1,0.1-3,0.6c-1,0.6-1.3,2-2,2.8c-2.5-2.1-4.1-5.2-4.1-8.8c0-0.8,0.1-1.5,0.2-2.2
				c1.2,0.3,2.2,1.1,2.8,2.2c0.4,0.8,0.6,1.8,1.5,2.1c0.5,0.1,1.1-0.1,1.5-0.4c0.4-0.3,0.8-0.7,1.3-0.9c1.2-0.6,2.9,0,3.4,1.3
				C24.8,15.7,24,17.3,22.7,17.8z"/>
		</g>
		<g>
			<path fill="#C6CC4A" d="M22,5.9c0.4,0.5,0.2,1.3-0.3,1.7c-0.2,0.1-0.4,0.2-0.5,0.4c-0.3,0.4-0.1,1.1-0.4,1.6
				c-0.3,0.4-0.9,0.4-1.4,0.3c-0.2,0-0.4-0.1-0.6-0.1c-0.2-0.1-0.3-0.2-0.3-0.4c0-0.4,0.5-0.7,0.7-1.1c0.1-0.3,0-0.6-0.2-0.8
				S18.7,7,18.6,6.7c-0.1-0.4,0.1-0.8,0.5-1c0.3-0.2,1.1-0.1,1.5-0.2C21.2,5.4,21.7,5.4,22,5.9z"/>
		</g>
		<g>
			<path fill="#C6CC4A" d="M29.3,19.6c-0.1,0.2-0.2,0.4-0.3,0.6c-0.5,1.1-1,2.2-1.5,3.2l0,0c-0.8,0.2-1.7,0.3-2.6,0.3
				c-1,0-2-0.1-3-0.4c0.3-0.9,0.8-1.7,1.7-2.2c0.4-0.3,0.9-0.4,1.4-0.6c1.5-0.7,2.3-2.5,1.9-4.1c0.8,0,1.5,0.4,2,1
				C29.4,18.1,29.5,18.9,29.3,19.6z"/>
		</g>
	</g>
</g>
</svg>
