<?xml version="1.0" encoding="utf-8"?>
<!-- Generator: Adobe Illustrator 18.0.0, SVG Export Plug-In . SVG Version: 6.00 Build 0)  -->
<!DOCTYPE svg PUBLIC "-//W3C//DTD SVG 1.1//EN" "http://www.w3.org/Graphics/SVG/1.1/DTD/svg11.dtd">
<svg version="1.1" id="Layer_1" xmlns="http://www.w3.org/2000/svg" xmlns:xlink="http://www.w3.org/1999/xlink" x="0px" y="0px"
	 viewBox="0 0 50 50" enable-background="new 0 0 50 50" xml:space="preserve">
<g>
	<g>
		<path fill="#FFCA8A" d="M30,38.5c0-8.2,7-11.1,7-19.5c0-6.6-5.4-12-12.1-12s-12.1,5.4-12.1,12c0,8.4,7,11.3,7,19.5"/>
	</g>
	<g>
		<path fill="#CCCACA" d="M21.6,39.3v5.8c0,1.9,1.5,3.4,3.4,3.4s3.4-1.5,3.4-3.4v-5.8H21.6z"/>
	</g>
	<g>
		<path fill="#E5E5E5" d="M32.2,42.5v-4H17.8v4c0,1.3,1.1,2.4,2.5,2.4h9.5C31.1,44.9,32.2,43.9,32.2,42.5z"/>
	</g>
	<g>
		<g>
			<g>
				<g>
					<rect x="40.8" y="18.5" fill="#425060" width="1.7" height="1"/>
				</g>
				<g>
					<rect x="7.5" y="18.5" fill="#425060" width="1.7" height="1"/>
				</g>
			</g>
			<g>
				<g>
					<rect x="24.5" y="1.5" fill="#425060" width="1" height="1.7"/>
				</g>
			</g>
		</g>
		<g>
			<g>
				<g>
					
						<rect x="35.9" y="30.3" transform="matrix(-0.706 -0.7083 0.7083 -0.706 40.9127 78.6016)" fill="#425060" width="1.7" height="1"/>
				</g>
				<g>
					
						<rect x="12.4" y="6.7" transform="matrix(-0.7058 -0.7084 0.7084 -0.7058 17.534 21.7128)" fill="#425060" width="1.7" height="1"/>
				</g>
			</g>
			<g>
				<g>
					
						<rect x="36.3" y="6.4" transform="matrix(-0.7081 -0.7062 0.7062 -0.7081 57.6826 38.4083)" fill="#425060" width="1" height="1.7"/>
				</g>
			</g>
		</g>
	</g>
	<g>
		<g>
			<g>
				<g>
					<rect x="40.8" y="18.5" fill="#425060" width="1.7" height="1"/>
				</g>
				<g>
					<rect x="7.5" y="18.5" fill="#425060" width="1.7" height="1"/>
				</g>
			</g>
			<g>
				<g>
					<rect x="24.5" y="1.5" fill="#425060" width="1" height="1.7"/>
				</g>
			</g>
		</g>
		<g>
			<g>
				<g>
					
						<rect x="35.9" y="30.3" transform="matrix(-0.706 -0.7083 0.7083 -0.706 40.9127 78.6016)" fill="#425060" width="1.7" height="1"/>
				</g>
				<g>
					
						<rect x="12.4" y="6.7" transform="matrix(-0.7058 -0.7084 0.7084 -0.7058 17.534 21.7128)" fill="#425060" width="1.7" height="1"/>
				</g>
			</g>
			<g>
				<g>
					
						<rect x="36.3" y="6.4" transform="matrix(-0.7081 -0.7062 0.7062 -0.7081 57.6826 38.4083)" fill="#425060" width="1" height="1.7"/>
				</g>
			</g>
		</g>
	</g>
	<g>
		<g>
			<g>
				<g>
					
						<rect x="39.9" y="11.8" transform="matrix(-0.3837 -0.9235 0.9235 -0.3837 44.1504 54.8461)" fill="#425060" width="1" height="1.7"/>
				</g>
				<g>
					
						<rect x="9.1" y="24.5" transform="matrix(-0.3837 -0.9235 0.9235 -0.3837 -10.1729 43.9986)" fill="#425060" width="1" height="1.7"/>
				</g>
			</g>
			<g>
				<g>
					
						<rect x="17.8" y="3.1" transform="matrix(-0.3815 -0.9244 0.9244 -0.3815 22.4321 22.2622)" fill="#425060" width="1.7" height="1"/>
				</g>
			</g>
		</g>
		<g>
			<g>
				<g>
					
						<rect x="39.5" y="24.9" transform="matrix(-0.9234 -0.3838 0.3838 -0.9234 67.8763 64.3389)" fill="#425060" width="1.7" height="1"/>
				</g>
				<g>
					
						<rect x="8.8" y="12.2" transform="matrix(-0.9234 -0.3838 0.3838 -0.9234 13.6502 28.1227)" fill="#425060" width="1.7" height="1"/>
				</g>
			</g>
			<g>
				<g>
					
						<rect x="30.9" y="2.8" transform="matrix(-0.9243 -0.3816 0.3816 -0.9243 58.9996 19.0246)" fill="#425060" width="1" height="1.7"/>
				</g>
			</g>
		</g>
	</g>
	<g>
		<circle fill="#425060" cx="20.4" cy="19.2" r="1.7"/>
	</g>
	<g>
		<path fill="#425060" d="M31.2,15.3c-1.2-1.4-3.5-1.4-4.7,0l-0.7-0.7c0.8-0.9,1.9-1.4,3.1-1.4s2.3,0.5,3.1,1.4L31.2,15.3z"/>
	</g>
	<g>
		<path fill="#425060" d="M30.5,18.5c0,0.9-0.8,1.7-1.7,1.7c-0.9,0-1.7-0.8-1.7-1.7c0-0.2,0-0.9,0-1.1c0-1,0.8-1.7,1.7-1.7
			c1,0,1.7,0.8,1.7,1.7C30.5,17.6,30.5,18.3,30.5,18.5z"/>
	</g>
	<g>
		<rect x="18.5" y="14.5" fill="#425060" width="3.6" height="1"/>
	</g>
	<g>
		<path fill="#425060" d="M24.8,27.7c-0.6,0-1.2-0.1-1.8-0.4c-1.2-0.6-2-1.8-2.2-3.2l1-0.1c0.1,1,0.7,1.9,1.6,2.4s2,0.4,2.9-0.1
			l0.5,0.9C26.3,27.5,25.5,27.7,24.8,27.7z"/>
	</g>
	<g>
		<path fill="#425060" d="M24.8,27.7c-0.6,0-1.2-0.1-1.8-0.4c-1.2-0.6-2-1.8-2.2-3.2v-0.4l0.4-0.1c0.6-0.2,1.9-0.2,2.3,1l-0.9,0.3
			c-0.1-0.3-0.4-0.4-0.7-0.4c0.2,0.8,0.8,1.5,1.5,1.9c0.9,0.5,2,0.4,2.9-0.1l0.5,0.9C26.3,27.5,25.5,27.7,24.8,27.7z"/>
	</g>
	<g>
		<path fill="#FFB95C" d="M22,39.4c-1.5,1.8-4.1,2-5.9,0.5s-2-4.1-0.5-5.9c0.9-1,1.3-1.6,2.1,0l3.6-4.3c0.5-0.5,1.3-0.6,1.8-0.2
			c0.3,0.2,0.4,0.5,0.5,0.9s-0.1,0.7-0.3,0.9l-2.4,2.9C22.6,35.8,23.4,37.6,22,39.4z"/>
	</g>
</g>
</svg>
