<?xml version="1.0" encoding="utf-8"?>
<!-- Generator: Adobe Illustrator 18.0.0, SVG Export Plug-In . SVG Version: 6.00 Build 0)  -->
<!DOCTYPE svg PUBLIC "-//W3C//DTD SVG 1.1//EN" "http://www.w3.org/Graphics/SVG/1.1/DTD/svg11.dtd">
<svg version="1.1" id="Layer_1" xmlns="http://www.w3.org/2000/svg" xmlns:xlink="http://www.w3.org/1999/xlink" x="0px" y="0px"
	 viewBox="0 0 50 50" enable-background="new 0 0 50 50" xml:space="preserve">
<g>
	<g>
		<g>
			<path fill="#E8CEC1" d="M20,44.1c-0.7,1.4-0.3,3.1,0.3,4.6c0,0.1,0.1,0.2,0.1,0.3h21.4c-7-7.2,0.7-21.3,2.2-27.1
				c2.1-8.3-1.3-13.6-5.2-16.8C34.6,1.7,29,0.4,23.5,1.3c-15,2.6-14.8,14-14.2,18.2c0.1,1-0.1,2.1-0.6,3l-3.2,5.2
				c-0.6,1-0.2,2.2,0.8,2.7l1.8,0.9V34l1.9,1.1L8.3,37l1.9,1.4L9.9,41c-0.2,1.6,1,3,2.6,3.1c3.2,0.3,8.4,0.3,12.7-1.6"/>
		</g>
	</g>
	<g>
		<g>
			<g>
				<circle fill="#FA4968" cx="18.3" cy="12.9" r="1.6"/>
			</g>
			<g>
				<circle fill="#FFB95C" cx="33" cy="17.7" r="1.7"/>
			</g>
			<g>
				<circle fill="#8CF2ED" cx="23.6" cy="24.9" r="1.6"/>
			</g>
		</g>
		<g>
			<g>
				
					<rect x="17.4" y="18.6" transform="matrix(-0.7071 -0.7071 0.7071 -0.7071 16.3359 47.0479)" fill="#425060" width="1" height="3"/>
			</g>
			<g>
				
					<rect x="16.4" y="19.6" transform="matrix(-0.7071 -0.7071 0.7071 -0.7071 16.3359 47.0479)" fill="#425060" width="3" height="1"/>
			</g>
		</g>
		<g>
			<g>
				
					<rect x="33.8" y="23.9" transform="matrix(-0.7072 -0.7071 0.7071 -0.7072 40.6292 67.6115)" fill="#425060" width="1" height="3"/>
			</g>
			<g>
				
					<rect x="32.8" y="24.9" transform="matrix(-0.7071 -0.7071 0.7071 -0.7071 40.6255 67.6058)" fill="#425060" width="3" height="1"/>
			</g>
		</g>
		<g>
			<g>
				
					<rect x="32.2" y="9.1" transform="matrix(-0.7071 -0.7071 0.7071 -0.7071 48.3386 41.1755)" fill="#425060" width="1" height="3"/>
			</g>
			<g>
				
					<rect x="31.2" y="10.1" transform="matrix(-0.7071 -0.7071 0.7071 -0.7071 48.3386 41.1755)" fill="#425060" width="3" height="1"/>
			</g>
		</g>
		<g>
			
				<rect x="27.7" y="17" transform="matrix(-0.6083 -0.7937 0.7937 -0.6083 28.5339 56.6532)" fill="#425060" width="1" height="8.6"/>
		</g>
		<g>
			
				<rect x="22.8" y="7.5" transform="matrix(-0.3321 -0.9433 0.9433 -0.3321 20.5053 36.8966)" fill="#425060" width="1" height="7.3"/>
		</g>
		<g>
			
				<rect x="19.5" y="14.8" transform="matrix(-0.951 -0.3092 0.3092 -0.951 45.2067 37.7605)" fill="#425060" width="12.2" height="1"/>
		</g>
		<g>
			<polygon fill="#425060" points="25.7,12.2 24.9,11.6 25.9,10.2 24.3,9.8 24.6,8.8 27.6,9.7 			"/>
		</g>
	</g>
</g>
</svg>
