<?xml version="1.0" encoding="utf-8"?>
<!-- Generator: Adobe Illustrator 18.0.0, SVG Export Plug-In . SVG Version: 6.00 Build 0)  -->
<!DOCTYPE svg PUBLIC "-//W3C//DTD SVG 1.1//EN" "http://www.w3.org/Graphics/SVG/1.1/DTD/svg11.dtd">
<svg version="1.1" id="Layer_1" xmlns="http://www.w3.org/2000/svg" xmlns:xlink="http://www.w3.org/1999/xlink" x="0px" y="0px"
	 viewBox="0 0 50 50" enable-background="new 0 0 50 50" xml:space="preserve">
<g>
	<g>
		<g>
			<path fill="#ABB734" d="M26.2,19c0,0-2.2-0.1-4-1.4c-1.5,0.9-3.3,1.4-5.3,1.4c-4.9,0-9-3.1-9-6.9s4-6.9,9-6.9s9,3.1,9,6.9
				c0,1.3-0.5,2.5-1.3,3.6C24.8,16.7,25.3,17.9,26.2,19z"/>
		</g>
		<g>
			<g>
				<circle fill="#FFFFFF" cx="12.1" cy="12.1" r="1.6"/>
			</g>
			<g>
				<circle fill="#FFFFFF" cx="16.9" cy="12.1" r="1.6"/>
			</g>
			<g>
				<circle fill="#FFFFFF" cx="21.6" cy="12.1" r="1.6"/>
			</g>
		</g>
	</g>
	<g>
		<path fill="#559AFF" d="M16.4,35.4l-4.2,2.8L8,35.4c-2.8,0.7-4.7,2.3-4.7,5.6c0,0.6,0.1,1.3,0.2,2c0.2,1.1,1.2,1.9,2.4,1.9h12.5
			c1.2,0,2.2-0.8,2.4-1.9c0.1-0.7,0.2-1.4,0.2-2C21,37.6,19.1,36,16.4,35.4z"/>
	</g>
	<g>
		<g>
			<path fill="#6EB0FF" d="M6.7,38.6L6,37.9c0.1-0.1,0.3-0.2,0.4-0.3L7,38.4C6.9,38.5,6.7,38.5,6.7,38.6z"/>
		</g>
		<g>
			<path fill="#6EB0FF" d="M4.8,41.9c0-0.3-0.1-0.7-0.1-1c0-0.6,0.1-1.2,0.2-1.6L6,39.6c-0.1,0.4-0.2,0.8-0.2,1.3
				c0,0.3,0,0.6,0.1,0.9L4.8,41.9z"/>
		</g>
	</g>
	<g>
		<g>
			<path fill="#FA4968" d="M14,44.8l-0.9-6.1l0.5-1.4c0-0.8-3-0.8-3,0l0.5,1.4l-0.9,6.1H14z"/>
		</g>
	</g>
	<g>
		<polygon fill="#6EB0FF" points="15.6,33.9 12.1,36.8 14.2,38 16.4,35.4 		"/>
	</g>
	<g>
		<polygon fill="#6EB0FF" points="8.7,33.9 12.1,36.8 10.1,38 7.9,35.4 		"/>
	</g>
	<g>
		<path fill="#FFFFFF" d="M14.2,38"/>
	</g>
	<g>
		<path fill="#525F70" d="M9.2,26.4c0.6-0.1,1.2,0,1.7,0.1c0.6,0.2,1.1,0.4,1.7,0.5c0.7,0.2,1.4,0.2,2.1,0c0.5-0.1,1-0.4,1.4-0.8v-1
			c0-1.2-1-2.2-2.3-2.2h-3.3c-1.3,0-2.3,1-2.3,2.2v1.7C8.4,26.6,8.8,26.4,9.2,26.4z"/>
	</g>
	<g>
		<path fill="#FFA49F" d="M16.1,27.7v-1.5c-0.4,0.4-0.9,0.7-1.4,0.8c-0.7,0.2-1.4,0.2-2.1,0c-0.6-0.1-1.1-0.4-1.7-0.5
			c-0.6-0.2-1.2-0.3-1.7-0.1c-0.4,0.1-0.7,0.3-1,0.5v0.8c-0.5,0-1,0.4-1,0.9s0.4,0.9,1,0.9l0,0c0.2,1.9,1.9,3.4,3.9,3.4
			s3.7-1.5,3.9-3.4l0,0c0.5,0,1-0.4,1-0.9C17,28.1,16.6,27.7,16.1,27.7z"/>
	</g>
	<g>
		<path fill="#6E9583" d="M41.3,33.6l-5,3.3l-5-3.3c-3.3,0.8-5.5,2.7-5.5,6.5c0,0.8,0.1,1.5,0.2,2.3c0.3,1.3,1.5,2.2,2.8,2.2h14.7
			c1.4,0,2.6-0.9,2.8-2.2c0.2-0.8,0.2-1.6,0.2-2.3C46.8,36.3,44.5,34.4,41.3,33.6z"/>
	</g>
	<g>
		<g>
			<path fill="#FECD04" d="M38.5,44.8l-1-7.2l0.6-1.6c0-1-3.5-1-3.5,0l0.6,1.6l-1,7.2H38.5z"/>
		</g>
	</g>
	<g>
		<g>
			<path fill="#9AB2A5" d="M29.8,37.4l-0.6-0.8c0.2-0.1,0.3-0.2,0.5-0.4l0.5,0.8C30.1,37.2,29.9,37.3,29.8,37.4z"/>
		</g>
		<g>
			<path fill="#9AB2A5" d="M27.9,41.3c-0.1-0.4-0.1-0.8-0.1-1.1c0-0.7,0.1-1.3,0.3-1.9l0.9,0.3c-0.2,0.4-0.2,0.9-0.2,1.6
				c0,0.3,0,0.7,0.1,1L27.9,41.3z"/>
		</g>
	</g>
	<g>
		<polygon fill="#9AB2A5" points="40.4,31.9 36.3,35.3 38.7,36.7 41.3,33.6 		"/>
	</g>
	<g>
		<polygon fill="#9AB2A5" points="32.3,31.9 36.3,35.3 33.9,36.7 31.4,33.6 		"/>
	</g>
	<g>
		<path fill="#FFFFFF" d="M38.7,36.7"/>
	</g>
	<g>
		<path fill="#525F70" d="M32.8,23.1c0.7-0.1,1.4,0,2,0.2c0.7,0.2,1.3,0.4,2,0.6c0.8,0.2,1.7,0.2,2.5,0c0.6-0.2,1.2-0.5,1.7-1v-1.2
			c0-1.5-1.2-2.6-2.7-2.6h-3.9c-1.5,0-2.7,1.2-2.7,2.6v2C32,23.4,32.4,23.1,32.8,23.1z"/>
	</g>
	<g>
		<path fill="#FFA49F" d="M41,24.6v-1.7c-0.4,0.5-1,0.8-1.7,1c-0.8,0.2-1.7,0.2-2.5,0c-0.7-0.2-1.3-0.4-2-0.6s-1.4-0.3-2-0.2
			c-0.4,0.1-0.9,0.3-1.1,0.6v0.9c-0.6,0-1.1,0.5-1.1,1.1s0.5,1.1,1.1,1.1l0,0c0.3,2.2,2.2,4,4.6,4s4.3-1.7,4.6-4l0,0
			c0.6,0,1.1-0.5,1.1-1.1C42.1,25.1,41.6,24.6,41,24.6z"/>
	</g>
</g>
</svg>
