<?xml version="1.0" encoding="utf-8"?>
<!-- Generator: Adobe Illustrator 18.0.0, SVG Export Plug-In . SVG Version: 6.00 Build 0)  -->
<!DOCTYPE svg PUBLIC "-//W3C//DTD SVG 1.1//EN" "http://www.w3.org/Graphics/SVG/1.1/DTD/svg11.dtd">
<svg version="1.1" id="Layer_1" xmlns="http://www.w3.org/2000/svg" xmlns:xlink="http://www.w3.org/1999/xlink" x="0px" y="0px"
	 viewBox="0 0 50 50" enable-background="new 0 0 50 50" xml:space="preserve">
<g>
	<g>
		<path fill="#E5E5E5" d="M29.8,38.9c3.3,0,6-2.6,6-5.8c0,0,0,0,0-0.1c0-5.9-4.9-6.9-10.8-6.9s-10.8,1-10.8,6.9c0,0,0,0,0,0.1
			c0,3.2,2.8,5.8,6,5.8H29.8z"/>
	</g>
	<g>
		<path fill="#D9BAA8" d="M22.4,19.1c0,0-0.7,7.8-0.7,8.5c0,1.8,1.4,3.2,3.2,3.2s3.2-1.4,3.2-3.2c0-0.7-0.7-8.5-0.7-8.5H22.4z"/>
	</g>
	<g>
		<g>
			<path fill="#C9A28F" d="M34.8,15.9c-0.5,1.5-1.5,2.2-3.1,1.7s-3.2-2.1-2.8-3.6c0.5-1.5,3.3-2.1,4.9-1.6
				C35.5,13,35.2,14.4,34.8,15.9z"/>
		</g>
		<g>
			<path fill="#C9A28F" d="M15.3,15.9c0.5,1.5,1.5,2.2,3.1,1.7s3.2-2.1,2.8-3.6c-0.5-1.5-3.3-2.1-4.9-1.6
				C14.6,13,14.8,14.4,15.3,15.9z"/>
		</g>
	</g>
	<g>
		<path fill="#E8CEC1" d="M33.2,11.5c0,5.8-2.3,13.2-8.2,13.2s-8.2-7.4-8.2-13.2s2.3-7.9,8.2-7.9S33.2,5.6,33.2,11.5z"/>
	</g>
	<g>
		<path fill="#FA4968" d="M12.6,9.3c5.3-1.5,4.3-11.5,9.5-7.1C25.4,5.1,18.4,14.1,12.6,9.3z"/>
	</g>
	<g opacity="0.3">
		<path fill="#FFFFFF" d="M16.9,9.1l-0.2-1C17.5,8,18.3,7.5,19,6.8l0.7,0.7C18.9,8.4,17.9,8.9,16.9,9.1z"/>
	</g>
	<g>
		<path fill="#FA4968" d="M33.5,12c-3.9-6-14.7-0.6-11.9-8.9C23.4-2.3,36.3,2.7,33.5,12z"/>
	</g>
	<g opacity="0.3">
		<path fill="#FFFFFF" d="M30.3,6.2c-0.7-1-1.8-1.8-3-2.3L27.7,3c1.4,0.6,2.6,1.5,3.4,2.7L30.3,6.2z"/>
	</g>
	<g>
		<g>
			<rect x="27.1" y="12.2" fill="#425060" width="2.1" height="1"/>
		</g>
		<g>
			<circle fill="#616B77" cx="27.9" cy="14.4" r="0.5"/>
		</g>
	</g>
	<g>
		<path fill="#E5E5E5" d="M23.9,17.5c0.7,0.5,1.4,0.5,2.1,0"/>
		<path fill="#C9A28F" d="M25,18.3c-0.5,0-0.9-0.1-1.3-0.4l0.6-0.8c0.5,0.4,1,0.4,1.6,0l0.5,0.8C25.9,18.2,25.4,18.3,25,18.3z"/>
	</g>
	<g>
		<g>
			<rect x="20.8" y="12.2" fill="#425060" width="2.1" height="1"/>
		</g>
		<g>
			<circle fill="#616B77" cx="22.2" cy="14.4" r="0.5"/>
		</g>
	</g>
	<g>
		<path fill="#425060" d="M25,21.8c-1.2,0-2.3-0.5-3.1-1.5l0.8-0.6c0.6,0.7,1.4,1.1,2.3,1.1s1.7-0.4,2.3-1.1l0.8,0.6
			C27.3,21.3,26.2,21.8,25,21.8z"/>
	</g>
	<g opacity="0.2">
		<circle fill="#FFFFFF" cx="29.2" cy="18" r="0.8"/>
	</g>
	<g opacity="0.2">
		<circle fill="#FFFFFF" cx="21.5" cy="18" r="0.8"/>
	</g>
	<g>
		<g>
			<g>
				<ellipse fill="#559AFF" cx="41.3" cy="36" rx="3.4" ry="3.5"/>
			</g>
			<g>
				<path fill="#559AFF" d="M48.5,44.8c0,0.5-0.1,1-0.1,1.6c-0.3,1.6-1.7,2.8-3.4,2.8h-7.3c-1.6,0-3.1-1.2-3.4-2.8
					c-0.1-0.5-0.1-1.1-0.1-1.6c0-3,1.8-4.1,4.4-4.4l2.8,2.4l2.8-2.4C46.7,40.7,48.5,41.8,48.5,44.8z"/>
			</g>
			<g opacity="0.3">
				<path fill="#FFFFFF" d="M45,47.4h-7.3c-0.8,0-1.5-0.6-1.6-1.3C36,45.6,36,45.2,36,44.8h1c0,0.3,0,0.7,0.1,1.1
					c0,0.3,0.3,0.5,0.6,0.5H45c0.3,0,0.6-0.2,0.6-0.5c0.1-0.4,0.1-0.8,0.1-1.1h1c0,0.4,0,0.8-0.1,1.3C46.5,46.8,45.8,47.4,45,47.4z"
					/>
			</g>
		</g>
		<g>
			<g>
				<ellipse fill="#FF8C83" cx="25" cy="36" rx="3.4" ry="3.5"/>
			</g>
			<g>
				<path fill="#FF8C83" d="M32.2,44.8c0,0.5-0.1,1-0.1,1.6c-0.3,1.6-1.7,2.8-3.4,2.8h-7.3c-1.6,0-3.1-1.2-3.4-2.8
					c-0.1-0.5-0.1-1.1-0.1-1.6c0-3,1.8-4.1,4.4-4.4l2.8,2.4l2.8-2.4C30.4,40.7,32.2,41.8,32.2,44.8z"/>
			</g>
			<g opacity="0.3">
				<path fill="#FFFFFF" d="M28.7,47.4h-7.3c-0.8,0-1.5-0.6-1.6-1.3c-0.1-0.4-0.1-0.9-0.1-1.3h1c0,0.3,0,0.7,0.1,1.1
					c0,0.3,0.3,0.5,0.6,0.5h7.3c0.3,0,0.6-0.2,0.6-0.5c0.1-0.4,0.1-0.8,0.1-1.1h1c0,0.4,0,0.8-0.1,1.3
					C30.2,46.8,29.5,47.4,28.7,47.4z"/>
			</g>
		</g>
		<g>
			<g>
				<ellipse fill="#6E9583" cx="8.7" cy="36" rx="3.4" ry="3.5"/>
			</g>
			<g>
				<path fill="#6E9583" d="M15.9,44.8c0,0.5-0.1,1-0.1,1.6c-0.3,1.6-1.7,2.8-3.4,2.8H5c-1.6,0-3.1-1.2-3.4-2.8
					c-0.1-0.5-0.1-1.1-0.1-1.6c0-3,1.8-4.1,4.4-4.4l2.8,2.4l2.8-2.4C14.1,40.7,15.9,41.8,15.9,44.8z"/>
			</g>
			<g opacity="0.3">
				<path fill="#FFFFFF" d="M12.3,47.4H5c-0.8,0-1.5-0.6-1.6-1.3c-0.1-0.4-0.1-0.9-0.1-1.3h1c0,0.3,0,0.7,0.1,1.1
					c0,0.3,0.3,0.5,0.6,0.5h7.3c0.3,0,0.6-0.2,0.6-0.5c0.1-0.4,0.1-0.8,0.1-1.1h1c0,0.4,0,0.8-0.1,1.3
					C13.8,46.8,13.1,47.4,12.3,47.4z"/>
			</g>
		</g>
	</g>
</g>
</svg>
