<?xml version="1.0" encoding="utf-8"?>
<!-- Generator: Adobe Illustrator 18.0.0, SVG Export Plug-In . SVG Version: 6.00 Build 0)  -->
<!DOCTYPE svg PUBLIC "-//W3C//DTD SVG 1.1//EN" "http://www.w3.org/Graphics/SVG/1.1/DTD/svg11.dtd">
<svg version="1.1" id="Layer_1" xmlns="http://www.w3.org/2000/svg" xmlns:xlink="http://www.w3.org/1999/xlink" x="0px" y="0px"
	 viewBox="0 0 50 50" enable-background="new 0 0 50 50" xml:space="preserve">
<g>
	<g>
		<circle fill="#525F70" cx="21" cy="26.8" r="14.2"/>
	</g>
	<g>
		<path fill="#616B77" d="M10.6,34c-2-2.8-2.7-6.4-2-9.8l1,0.2c-0.6,3.1,0,6.4,1.8,9L10.6,34z"/>
	</g>
	<g>
		<path fill="#616B77" d="M10.4,21.8l-0.9-0.4c0.2-0.4,0.4-0.8,0.7-1.2l0.9,0.5C10.8,21,10.6,21.4,10.4,21.8z"/>
	</g>
	<g>
		<circle fill="#E5E5E5" cx="21" cy="26.8" r="10.1"/>
	</g>
	<g>
		<path fill="#425060" d="M32.3,35.3L35,38l-2.8,2.8l-2.7-2.7c0.5-0.4,1-0.8,1.5-1.3S31.9,35.8,32.3,35.3z"/>
	</g>
	<g>
		<path fill="#525F70" d="M42.3,48L42.3,48c-1.3,1.3-3.3,1.3-4.6,0l-5.4-5.4c-0.5-0.5-0.5-1.4,0-2l2.6-2.6c0.5-0.5,1.4-0.5,2,0
			l5.4,5.4C43.5,44.7,43.5,46.8,42.3,48z"/>
	</g>
	<g>
		<line fill="none" x1="39.2" y1="43.7" x2="37.4" y2="41.8"/>
		
			<rect x="37" y="42.2" transform="matrix(-0.707 -0.7072 0.7072 -0.707 35.2476 100.0055)" fill="#616B77" width="2.6" height="1"/>
	</g>
	<g>
		<line fill="none" x1="36" y1="40.4" x2="35.6" y2="40.1"/>
		
			<rect x="35.6" y="39.7" transform="matrix(-0.7076 -0.7066 0.7066 -0.7076 32.7786 94.0564)" fill="#616B77" width="0.5" height="1"/>
	</g>
	<g>
		<g>
			<path fill="#FFD731" d="M12.7,12.6c0.2-4.3,3.6-7.8,7.9-8c4.8-0.2,8.8,3.6,8.8,8.3c0,2.9-1.5,5.5-3.8,7c-0.7,0.5-1.2,1.3-1.2,2.1
				v2.8h-6.8V22c0-0.9-0.4-1.7-1.2-2.1C14.1,18.4,12.5,15.7,12.7,12.6z"/>
		</g>
		<g>
			<path fill="#525F70" d="M16.7,22.9h8.5v5.2c0,1.6-8.5,1.6-8.5,0V22.9z"/>
		</g>
	</g>
	<g>
		<g>
			<g>
				<g>
					<g>
						<rect x="20.5" y="1" fill="#FFD731" width="1" height="1.1"/>
					</g>
				</g>
			</g>
			<g>
				<g>
					<g>
						
							<rect x="12.8" y="4.2" transform="matrix(-0.7075 -0.7067 0.7067 -0.7075 19.418 17.3618)" fill="#FFD731" width="1.1" height="1"/>
					</g>
				</g>
				<g>
					<g>
						
							<rect x="28.1" y="4.2" transform="matrix(-0.7067 -0.7076 0.7076 -0.7067 45.4845 28.4922)" fill="#FFD731" width="1" height="1.2"/>
					</g>
				</g>
			</g>
		</g>
		<g>
			<g>
				<g>
					<g>
						
							<rect x="16.3" y="1.9" transform="matrix(-0.3832 -0.9237 0.9237 -0.3832 21.0695 18.8889)" fill="#FFD731" width="1.1" height="1"/>
					</g>
				</g>
			</g>
			<g>
				<g>
					<g>
						
							<rect x="24.6" y="1.8" transform="matrix(-0.9238 -0.3828 0.3828 -0.9238 47.4324 14.1165)" fill="#FFD731" width="1" height="1.1"/>
					</g>
				</g>
			</g>
		</g>
	</g>
	<g>
		<circle fill="#FFFFFF" cx="21" cy="9.4" r="1.3"/>
	</g>
	<g>
		<path fill="#FFFFFF" d="M22.3,13c0,0.7-0.6,4.3-1.3,4.3c-0.7,0-1.3-3.6-1.3-4.3s0.6-1.3,1.3-1.3C21.7,11.7,22.3,12.3,22.3,13z"/>
	</g>
	<g>
		<path fill="#FA4968" d="M24.9,30.5h-7.8c-0.9,0-1.6-0.7-1.6-1.6v-4.5c0-0.9,0.7-1.6,1.6-1.6h7.8c0.9,0,1.6,0.7,1.6,1.6v4.5
			C26.5,29.8,25.8,30.5,24.9,30.5z"/>
	</g>
	<g>
		<path fill="#425060" d="M23.4,23.9h-4.8V22c0-0.7,0.5-1.2,1.2-1.2h2.4c0.7,0,1.2,0.5,1.2,1.2V23.9z M19.6,22.9h2.8V22
			c0-0.1-0.1-0.2-0.2-0.2h-2.4c-0.1,0-0.2,0.1-0.2,0.2C19.6,22,19.6,22.9,19.6,22.9z"/>
	</g>
	<g>
		<path fill="#559AFF" d="M26.5,24.3V25c0,0.8-0.6,1.4-1.4,1.4H17c-0.8,0-1.4-0.6-1.4-1.4v-0.7c0-0.8,0.6-1.4,1.4-1.4h8
			C25.8,22.9,26.5,23.5,26.5,24.3z"/>
	</g>
	<g>
		<path fill="#FFFFFF" d="M21.5,27.7h-1c-0.3,0-0.5-0.2-0.5-0.5v-1.3c0-0.3,0.2-0.5,0.5-0.5h1c0.3,0,0.5,0.2,0.5,0.5v1.3
			C22,27.5,21.7,27.7,21.5,27.7z"/>
	</g>
</g>
</svg>
