<?xml version="1.0" encoding="utf-8"?>
<!-- Generator: Adobe Illustrator 18.0.0, SVG Export Plug-In . SVG Version: 6.00 Build 0)  -->
<!DOCTYPE svg PUBLIC "-//W3C//DTD SVG 1.1//EN" "http://www.w3.org/Graphics/SVG/1.1/DTD/svg11.dtd">
<svg version="1.1" id="Layer_1" xmlns="http://www.w3.org/2000/svg" xmlns:xlink="http://www.w3.org/1999/xlink" x="0px" y="0px"
	 viewBox="0 0 50 50" enable-background="new 0 0 50 50" xml:space="preserve">
<g>
	<g>
		<g>
			<path fill="#FECD04" d="M23.8,49.1c4.7,0,8.8-3.7,8.8-8.4v-0.1c0-8.7-7.1-10.1-15.8-10.1C8.1,30.4,1,31.9,1,40.5v0.1
				C1,45.3,5.1,49,9.8,49L23.8,49.1L23.8,49.1z"/>
		</g>
		<g>
			<path fill="#F4F4F4" d="M11,31.6c-0.3,5.9,1.9,11.7,5.8,17.5c3.5-5.2,5.7-10.9,5.8-17.5C22.6,31.6,11,31.6,11,31.6z"/>
		</g>
		<g>
			<path fill="#D9BAA8" d="M13.9,21.7c0,0-0.8,8.8-0.8,9.6c0,2,1.6,3.6,3.7,3.6s3.7-1.6,3.7-3.6c0-0.8-0.8-9.6-0.8-9.6H13.9z"/>
		</g>
		<g>
			<g>
				<path fill="#C9A28F" d="M27.9,18c-0.5,1.7-1.7,2.5-3.5,2c-1.8-0.6-3.6-2.4-3.1-4c0.5-1.7,3.8-2.3,5.6-1.8S28.4,16.3,27.9,18z"/>
			</g>
			<g>
				<path fill="#C9A28F" d="M5.8,18c0.5,1.7,1.7,2.5,3.5,2c1.8-0.6,3.6-2.4,3.1-4c-0.5-1.7-3.8-2.3-5.6-1.8S5.2,16.3,5.8,18z"/>
			</g>
		</g>
		<g>
			<path fill="#E8CEC1" d="M26.1,13c0,6.6-2.6,15-9.3,15s-9.3-8.4-9.3-15s2.6-9,9.3-9S26.1,6.4,26.1,13z"/>
		</g>
		<g>
			<path fill="#FA4968" d="M2.7,10.6c6-1.7,4.9-13.1,10.8-8C17.2,5.8,9.3,16,2.7,10.6z"/>
		</g>
		<g opacity="0.3">
			<path fill="#FFFFFF" d="M7.6,10.4L7.4,9.2C8.3,9.1,9.2,8.5,10,7.7l0.8,0.8C9.8,9.5,8.7,10.1,7.6,10.4z"/>
		</g>
		<g>
			<path fill="#FA4968" d="M26.5,13.6C22,6.7,9.8,12.9,12.9,3.4C15-2.7,29.7,3.1,26.5,13.6z"/>
		</g>
		<g opacity="0.3">
			<path fill="#FFFFFF" d="M22.9,7c-0.8-1.1-2-2.1-3.4-2.6l0.4-1c1.6,0.7,2.9,1.7,3.9,3L22.9,7z"/>
		</g>
		<g opacity="0.3">
			<path fill="#FFFFFF" d="M17.8,3.8c-0.3,0-0.6-0.1-0.8-0.1V2.6c0.3,0,0.6,0,1,0.1L17.8,3.8z"/>
		</g>
		<g>
			<g>
				<rect x="19.2" y="13.8" fill="#425060" width="2.4" height="1.1"/>
			</g>
			<g>
				<circle fill="#616B77" cx="20.1" cy="16.3" r="0.6"/>
			</g>
		</g>
		<g>
			<path fill="#E5E5E5" d="M15.6,19.8c0.7,0.5,1.5,0.6,2.4,0"/>
			<path fill="#C9A28F" d="M16.8,20.8c-0.5,0-1-0.2-1.5-0.5l0.6-0.9c0.6,0.4,1.1,0.4,1.8,0l0.6,1C17.8,20.7,17.3,20.8,16.8,20.8z"/>
		</g>
		<g>
			<g>
				<rect x="12" y="13.8" fill="#425060" width="2.4" height="1.1"/>
			</g>
			<g>
				<circle fill="#616B77" cx="13.6" cy="16.3" r="0.6"/>
			</g>
		</g>
		<g>
			<path fill="#425060" d="M16.8,24.7c-1.3,0-2.6-0.6-3.5-1.7l0.9-0.7c0.7,0.8,1.6,1.2,2.6,1.2s2-0.5,2.6-1.2l0.9,0.7
				C19.4,24.1,18.2,24.7,16.8,24.7z"/>
		</g>
		<g opacity="0.2">
			<circle fill="#FFFFFF" cx="21.6" cy="20.4" r="1"/>
		</g>
		<g opacity="0.2">
			<circle fill="#FFFFFF" cx="12.8" cy="20.4" r="1"/>
		</g>
		<g>
			<path fill="#FFD731" d="M23,35.1l1.7,3.4c-0.4,3.8-3.5,8.1-7.9,10.5c2.2-5.9,3.6-12.7,3.6-18.6c1.6,0.1,3.1,0.3,4.5,0.6l0.6,3.4
				L23,35.1z"/>
		</g>
		<g>
			<path fill="#FFD731" d="M10.6,35.1l-1.7,3.4c0.4,3.8,3.5,8.1,7.9,10.5c-2.2-5.9-3.6-12.7-3.6-18.6c-1.6,0.1-3.1,0.3-4.5,0.6
				l-0.6,3.4L10.6,35.1z"/>
		</g>
	</g>
	<g>
		<g>
			<path fill="#616B77" d="M42.8,11.2h-5.3c-0.6,2.6-1.8,4.9-3.4,7.1c-0.9,1.2-1.4,2.7-1.4,4.4c0,0.8,0.1,1.5,0.3,2.2h14.2
				c0.2-0.7,0.3-1.5,0.3-2.2c0-1.6-0.5-3.2-1.4-4.4C44.6,16.1,43.4,13.8,42.8,11.2z"/>
		</g>
		<g>
			<path fill="#616B77" d="M47.7,24.9H32.5c-0.7,0-1.3,0.6-1.3,1.3v0.3c0,0.7,0.6,1.3,1.3,1.3h15.3c0.7,0,1.3-0.6,1.3-1.3v-0.3
				C49,25.5,48.4,24.9,47.7,24.9z"/>
		</g>
		<g>
			<g>
				<path fill="#616B77" d="M45.5,6.4v3.7c0,0.6-0.5,1.1-1.1,1.1h-8.5c-0.6,0-1.1-0.5-1.1-1.1V6.4h2v2.2H39V6.4h2.4v2.2h2.2V6.4
					H45.5z"/>
			</g>
		</g>
	</g>
</g>
</svg>
