<?xml version="1.0" encoding="utf-8"?>
<!-- Generator: Adobe Illustrator 18.0.0, SVG Export Plug-In . SVG Version: 6.00 Build 0)  -->
<!DOCTYPE svg PUBLIC "-//W3C//DTD SVG 1.1//EN" "http://www.w3.org/Graphics/SVG/1.1/DTD/svg11.dtd">
<svg version="1.1" id="Layer_1" xmlns="http://www.w3.org/2000/svg" xmlns:xlink="http://www.w3.org/1999/xlink" x="0px" y="0px"
	 viewBox="0 0 50 50" enable-background="new 0 0 50 50" xml:space="preserve">
<g>
	<g>
		<path fill="#616B77" d="M20.4,45.1c0.4,2.2,2.3,3.9,4.6,3.9s4.2-1.7,4.6-3.9H20.4z"/>
	</g>
	<g>
		<path fill="#525F70" d="M30.8,40.7H19.3c-1.2,0-2.3,1-2.3,2.3c0,1.2,1,2.3,2.3,2.3h11.4c1.2,0,2.3-1,2.3-2.3S32,40.7,30.8,40.7z"
			/>
	</g>
	<g opacity="0.2">
		<rect x="19.3" y="42.1" fill="#FFFFFF" width="3.8" height="1"/>
	</g>
	<g>
		<path fill="#FFCA8A" d="M15.2,17.1l-0.9-0.4c0.9-2.4,2.7-4.5,5-5.8l0.5,0.9C17.7,12.9,16,14.8,15.2,17.1z"/>
	</g>
	<g>
		<path fill="#FFCA8A" d="M21.8,10.8l-0.3-1c0.5-0.2,1.1-0.3,1.6-0.4l0.2,1C22.8,10.5,22.3,10.7,21.8,10.8z"/>
	</g>
	<g>
		<path fill="#616B77" d="M30.7,36.3H19.3c-1.2,0-2.3,1-2.3,2.3l0,0c0,1.2,1,2.3,2.3,2.3h11.4c1.2,0,2.3-1,2.3-2.3l0,0
			C33,37.3,32,36.3,30.7,36.3z"/>
	</g>
	<g opacity="0.2">
		<rect x="19.3" y="37.8" fill="#FFFFFF" width="3.8" height="1"/>
	</g>
	<g>
		<g>
			<g>
				<line fill="none" x1="42.7" y1="20.9" x2="44.9" y2="20.9"/>
				<rect x="42.7" y="20.4" fill="#CCCACA" width="2.2" height="1"/>
			</g>
			<g>
				<line fill="none" x1="5.1" y1="20.9" x2="7.3" y2="20.9"/>
				<rect x="5.1" y="20.4" fill="#CCCACA" width="2.2" height="1"/>
			</g>
		</g>
		<g>
			<g>
				<line fill="none" x1="25" y1="1" x2="25" y2="3.2"/>
				<rect x="24.5" y="1" fill="#CCCACA" width="1" height="2.2"/>
			</g>
		</g>
	</g>
	<g>
		<g>
			<g>
				<line fill="none" x1="42.7" y1="20.9" x2="44.9" y2="20.9"/>
				<rect x="42.7" y="20.4" fill="#CCCACA" width="2.2" height="1"/>
			</g>
			<g>
				<line fill="none" x1="5.1" y1="20.9" x2="7.3" y2="20.9"/>
				<rect x="5.1" y="20.4" fill="#CCCACA" width="2.2" height="1"/>
			</g>
		</g>
		<g>
			<g>
				<line fill="none" x1="25" y1="1" x2="25" y2="3.2"/>
				<rect x="24.5" y="1" fill="#CCCACA" width="1" height="2.2"/>
			</g>
		</g>
	</g>
	<g>
		<g>
			<g>
				<line fill="none" x1="37.5" y1="33.3" x2="39" y2="34.9"/>
				
					<rect x="37.2" y="33.6" transform="matrix(-0.7072 -0.707 0.707 -0.7072 41.2599 85.3466)" fill="#CCCACA" width="2.2" height="1"/>
			</g>
			<g>
				<line fill="none" x1="11" y1="6.8" x2="12.5" y2="8.4"/>
				
					<rect x="10.6" y="7.1" transform="matrix(-0.7072 -0.707 0.707 -0.7072 14.6249 21.1995)" fill="#CCCACA" width="2.2" height="1"/>
			</g>
		</g>
		<g>
			<g>
				<line fill="none" x1="12.5" y1="33.3" x2="11" y2="34.9"/>
				
					<rect x="11.2" y="33" transform="matrix(-0.7072 -0.7071 0.7071 -0.7072 -4.0869 66.4707)" fill="#CCCACA" width="1" height="2.2"/>
			</g>
			<g>
				<line fill="none" x1="39" y1="6.8" x2="37.5" y2="8.4"/>
				
					<rect x="37.8" y="6.5" transform="matrix(-0.7071 -0.7071 0.7071 -0.7071 59.962 40.0801)" fill="#CCCACA" width="1" height="2.2"/>
			</g>
		</g>
	</g>
	<g>
		<g>
			<g>
				<line fill="none" x1="41.3" y1="14.1" x2="43.3" y2="13.3"/>
				
					<rect x="41.8" y="12.6" transform="matrix(-0.3829 -0.9238 0.9238 -0.3829 45.8764 57.9591)" fill="#CCCACA" width="1" height="2.2"/>
			</g>
			<g>
				<line fill="none" x1="6.7" y1="28.5" x2="8.7" y2="27.6"/>
				
					<rect x="7.2" y="26.9" transform="matrix(-0.3828 -0.9238 0.9238 -0.3828 -15.2475 45.9092)" fill="#CCCACA" width="1" height="2.2"/>
			</g>
		</g>
		<g>
			<g>
				<line fill="none" x1="17.4" y1="2.5" x2="18.2" y2="4.5"/>
				
					<rect x="16.7" y="3" transform="matrix(-0.3825 -0.9239 0.9239 -0.3825 21.4273 21.3073)" fill="#CCCACA" width="2.2" height="1"/>
			</g>
		</g>
	</g>
	<g>
		<g>
			<g>
				<line fill="none" x1="41.3" y1="14.1" x2="43.3" y2="13.3"/>
				
					<rect x="41.8" y="12.6" transform="matrix(-0.3829 -0.9238 0.9238 -0.3829 45.8764 57.9591)" fill="#CCCACA" width="1" height="2.2"/>
			</g>
			<g>
				<line fill="none" x1="6.7" y1="28.5" x2="8.7" y2="27.6"/>
				
					<rect x="7.2" y="26.9" transform="matrix(-0.3828 -0.9238 0.9238 -0.3828 -15.2475 45.9092)" fill="#CCCACA" width="1" height="2.2"/>
			</g>
		</g>
		<g>
			<g>
				<line fill="none" x1="17.4" y1="2.5" x2="18.2" y2="4.5"/>
				
					<rect x="16.7" y="3" transform="matrix(-0.3825 -0.9239 0.9239 -0.3825 21.4273 21.3073)" fill="#CCCACA" width="2.2" height="1"/>
			</g>
		</g>
	</g>
	<g>
		<g>
			<g>
				<line fill="none" x1="41.3" y1="27.6" x2="43.3" y2="28.5"/>
				
					<rect x="41.2" y="27.5" transform="matrix(-0.9239 -0.3827 0.3827 -0.9239 70.6926 70.0481)" fill="#CCCACA" width="2.2" height="1"/>
			</g>
			<g>
				<line fill="none" x1="6.7" y1="13.3" x2="8.7" y2="14.1"/>
				
					<rect x="6.6" y="13.2" transform="matrix(-0.924 -0.3825 0.3825 -0.924 9.5483 29.3187)" fill="#CCCACA" width="2.2" height="1"/>
			</g>
		</g>
		<g>
			<g>
				<line fill="none" x1="32.6" y1="2.5" x2="31.8" y2="4.5"/>
				
					<rect x="31.7" y="2.4" transform="matrix(-0.9238 -0.3828 0.3828 -0.9238 60.6158 19.0805)" fill="#CCCACA" width="1" height="2.2"/>
			</g>
		</g>
	</g>
	<g>
		<path fill="#FFB95C" d="M11.3,19.9c0-0.3,0-0.6,0.1-0.8v-0.2c0-0.2,0.1-0.4,0.2-0.6l0,0l0.1-0.1c0.1-0.2,0.3-0.4,0.4-0.6l0.1-0.1
			c0.2-0.2,0.4-0.4,0.6-0.6l0.1-0.1c-0.1,0.1-0.2,0.1-0.2,0.1l-0.2-0.4c-0.1-0.3-0.2-0.6-0.2-0.9c0-0.2,0.1-0.4,0.1-0.6v-0.1
			c0.1-0.2,0.1-0.3,0.3-0.4c0,0,0-0.1,0.1-0.1c0.1-0.1,0.2-0.2,0.3-0.3s0.2-0.1,0.3-0.2c0.1,0,0.2-0.1,0.3-0.1
			c0.2-0.1,0.4-0.1,0.6-0.1h-0.5v-0.5V13c0-0.1,0-0.1,0.1-0.2h0.4l-0.4-0.1c0-0.1,0-0.1,0.1-0.2c0,0,0.1-0.1,0.1-0.2
			c0.2-0.5,0.7-0.9,1.2-1.1c0,0,0.1-0.1,0.2-0.1c0.1,0,0.1,0,0.2-0.1l0.3-0.1c0.2,0,0.4-0.1,0.5-0.1c0.2,0,0.3,0,0.5,0.1
			c0.1,0,0.2,0.1,0.3,0.1l-0.4-0.1l0.3-0.4c0.4-0.6,1-0.9,1.7-0.9l0,0c0.5,0,1.1,0.2,1.4,0.6l0.3,0.3h0.2c0.2-0.1,0.4-0.3,0.7-0.3
			l0,0c0.1,0,0.2-0.1,0.3-0.1c0.2,0,0.3,0,0.4,0h0.1c0.7,0,1.4,0.3,1.9,0.8c0.4,0.5,0.7,1,0.8,1.7c0.1-0.6,0.3-1.2,0.8-1.7
			s1.2-0.8,1.9-0.8c0.2,0,0.3,0,0.5,0c0.1,0,0.1,0,0.2,0.1c0.1,0,0.1,0,0.2,0.1c0.1,0,0.2,0.1,0.2,0.1c0.2,0.1,0.2,0.1,0.3,0.2
			c0.1,0,0.1,0.1,0.2,0.1s0.2,0.1,0.3,0.2l-0.2-0.2l0.3-0.3c0.4-0.4,0.9-0.6,1.4-0.6c0.7,0,1.3,0.3,1.7,0.9l0.3,0.4L32.9,11
			c0.1,0,0.2-0.1,0.3-0.1s0.3-0.1,0.5-0.1c0.4,0,0.7,0.1,1.1,0.2c0.9,0.4,1.4,1.1,1.6,2.1l0.1,0.5H36c0.2,0,0.4,0.1,0.6,0.1
			c0.2,0.1,0.3,0.1,0.4,0.2l0,0.1c0.1,0.1,0.2,0.2,0.3,0.3c0,0,0.1,0.1,0.1,0.2c0.1,0.1,0.2,0.3,0.2,0.4V15c0.1,0.2,0.1,0.4,0.1,0.6
			c0,0.3-0.1,0.6-0.2,0.9l-0.2,0.4l-0.2-0.1l0.1,0.1c0.2,0.2,0.4,0.3,0.6,0.6l-0.3,0.3l0.3-0.3c0.1,0.2,0.3,0.4,0.4,0.6l0.1,0.1l0,0
			c0.1,0.2,0.2,0.5,0.2,0.6V19c0,0.2,0.1,0.5,0.1,0.8c0,0.6-0.1,1.1-0.3,1.5c0,0.1-0.1,0.2-0.1,0.2c-0.1,0.2-0.1,0.3-0.2,0.5
			c0,0.1-0.1,0.1-0.1,0.1c-0.1,0.1-0.2,0.3-0.3,0.4l0.3,0.3c0.3,0.3,0.5,0.8,0.5,1.2c0,0.5-0.2,1-0.6,1.4c-0.3,0.3-0.7,0.5-1.2,0.6
			h-0.3l-0.1-0.1c0,0.1,0,0.1,0.1,0.2c0.1,0.2,0.1,0.4,0.1,0.6s0,0.3,0,0.4l-0.1,0.4c0,0.1-0.1,0.2-0.1,0.2L36.1,28
			c0,0.1-0.1,0.1-0.1,0.2l-0.1,0.1c0,0.1-0.1,0.1-0.2,0.2c-0.1,0.1-0.1,0.1-0.1,0.1c-0.1,0.1-0.1,0.1-0.2,0.2l-0.1,0.1
			c-0.2,0.1-0.4,0.2-0.6,0.3l0,0h-0.1c-0.1,0-0.2,0-0.3,0h0.4l-0.2,0.5c-0.3,0.9-1.1,1.5-2.1,1.5c-0.3,0-0.6-0.1-0.8-0.2L31,30.8
			l0.2-0.3c-0.1,0.1-0.2,0.2-0.3,0.2l0.1,0c-0.1,0.1-0.2,0.1-0.3,0.2h-0.1c-0.1,0-0.2,0.1-0.3,0.1h-0.1h-0.1c-0.2,0-0.3,0.1-0.5,0.1
			s-0.3,0-0.5-0.1H29h-0.1c-1-0.1-2-0.5-2.7-1.2c-0.8-0.8-1.3-1.8-1.3-3H25c0,1.1-0.5,2.2-1.3,3C23,30.5,22.1,30.9,21,31l0,0h-0.1
			c-0.2,0-0.4,0-0.5,0c-0.2,0-0.3,0-0.5-0.1h-0.1h-0.1c-0.1,0-0.2-0.1-0.3-0.1h-0.1c-0.1-0.1-0.2-0.1-0.3-0.2l0,0
			c-0.1-0.1-0.2-0.2-0.3-0.2l0.3,0.3l-0.6,0.2c-0.3,0.1-0.6,0.2-0.8,0.2c-0.9,0-1.8-0.6-2.1-1.5l-0.2-0.5h0.4c-0.1,0-0.2,0-0.3,0
			h-0.1c-0.2-0.1-0.4-0.1-0.6-0.2l0.1-0.4l-0.2,0.4c-0.1-0.1-0.2-0.1-0.2-0.2c-0.1,0-0.1-0.1-0.1-0.1l-0.2-0.2L14,28.3
			c0-0.2,0-0.3-0.1-0.3l-0.1-0.2l-0.1-0.2l-0.1-0.2c0-0.1,0-0.1,0-0.2s0-0.3,0-0.4s0-0.3,0.1-0.5c0-0.1,0-0.1,0.1-0.2l-0.1,0.1h-0.3
			c-0.4-0.1-0.8-0.2-1.2-0.6s-0.6-0.9-0.6-1.4s0.2-0.9,0.5-1.2l0.3-0.3l0.1,0.1c-0.3-0.3-0.6-0.7-0.8-1.2l-0.1-0.1v-0.1
			c-0.1-0.2-0.1-0.4-0.2-0.5c0-0.1,0-0.1,0-0.2C11.4,20.4,11.3,20.2,11.3,19.9z"/>
	</g>
	<g>
		<path fill="#FFCA8A" d="M33.4,15.6c0-0.7,0.2-1.3,0.7-1.7c0.5-0.5,1.1-0.7,1.7-0.7l0,0c1.3,0,2.4,1.1,2.5,2.4h-1
			c0-0.8-0.7-1.4-1.5-1.4l0,0c-0.4,0-0.8,0.2-1,0.4c-0.3,0.3-0.4,0.6-0.4,1H33.4z"/>
	</g>
	<g>
		<path fill="#FFCA8A" d="M31.9,18.1c-1.3,0-2.4-1.1-2.5-2.4c0-0.7,0.2-1.3,0.7-1.7c0.5-0.5,1.1-0.7,1.7-0.7v1c-0.4,0-0.8,0.2-1,0.4
			c-0.3,0.3-0.4,0.6-0.4,1c0,0.8,0.6,1.4,1.5,1.4c0.4,0,0.8-0.2,1-0.4c0.3-0.3,0.4-0.6,0.4-1h1c0,0.7-0.2,1.3-0.7,1.7
			C33.2,17.8,32.6,18.1,31.9,18.1L31.9,18.1z"/>
	</g>
	<g>
		<path fill="#FFCA8A" d="M34.2,29.6c-0.2,0-0.5,0-0.8-0.1l0.3-1c0.2,0.1,0.4,0.1,0.5,0.1c0.5,0,0.9-0.2,1.2-0.5s0.5-0.8,0.5-1.2
			c0-0.4-0.2-0.8-0.5-1.1l0.7-0.7c0.5,0.5,0.7,1.1,0.7,1.8c0,0.7-0.3,1.4-0.8,1.9C35.7,29.3,35,29.5,34.2,29.6L34.2,29.6z"/>
	</g>
	<g>
		<path fill="#FFCA8A" d="M29.7,31.6v-1c0.5,0,1-0.2,1.4-0.6s0.6-0.9,0.6-1.4h1c0,0.8-0.3,1.5-0.8,2.1
			C31.2,31.3,30.5,31.6,29.7,31.6z"/>
	</g>
	<g>
		<path fill="#FFCA8A" d="M34.8,24.3v-1c0.9,0,1.8-0.4,2.5-1c0.7-0.7,1-1.5,1-2.5c0-1.3-0.8-2.5-2-3.1l0.4-0.9
			c1.5,0.7,2.5,2.3,2.5,4c0,1.2-0.4,2.3-1.3,3.2C37.1,23.9,36,24.3,34.8,24.3z"/>
	</g>
	<g>
		<path fill="#FFCA8A" d="M32.6,25.6c0-0.6,0.2-1.2,0.6-1.6c0.4-0.4,1-0.7,1.6-0.7v1c-0.3,0-0.6,0.1-0.9,0.4
			c-0.2,0.2-0.4,0.5-0.4,0.9L32.6,25.6z"/>
	</g>
	<g>
		<path fill="#FFCA8A" d="M27.8,15.9c-1.8,0-3.2-1.4-3.3-3.2c0-0.9,0.3-1.7,0.9-2.3s1.4-1,2.3-1l0,0c1.8,0,3.2,1.4,3.3,3.2h-1
			c0-1.2-1-2.2-2.3-2.2l0,0c-0.6,0-1.2,0.2-1.6,0.7c-0.4,0.4-0.6,1-0.6,1.6c0,1.2,1,2.2,2.3,2.2l0,0L27.8,15.9L27.8,15.9z"/>
	</g>
	<g>
		<path fill="#FFCA8A" d="M27.4,27c-1.6,0-2.9-1.3-2.9-2.8h1c0,1,0.9,1.8,1.9,1.8l0,0c0.5,0,1-0.2,1.3-0.6c0.4-0.4,0.5-0.8,0.5-1.3
			h1c0,0.8-0.3,1.5-0.8,2S28.2,27,27.4,27L27.4,27z"/>
	</g>
	<g>
		<path fill="#FFCA8A" d="M29.3,24.1c0-0.8,0.3-1.5,0.8-2s1.3-0.9,2-0.9v1c-0.5,0-1,0.2-1.3,0.6c-0.4,0.4-0.5,0.8-0.5,1.3H29.3z"/>
	</g>
	<g>
		<path fill="#FFCA8A" d="M32.2,22.2v-1c0.5,0,1-0.2,1.3-0.6c0.4-0.4,0.5-0.8,0.5-1.3h1c0,0.8-0.3,1.5-0.8,2
			C33.7,21.9,32.9,22.2,32.2,22.2z"/>
	</g>
	<g>
		<path fill="#FFCA8A" d="M27.4,27c-1.6,0-2.9-1.3-2.9-2.8c0-0.8,0.3-1.5,0.8-2s1.3-0.9,2-0.9v1c-0.5,0-1,0.2-1.3,0.6
			c-0.4,0.4-0.5,0.8-0.5,1.3c0,1,0.9,1.8,1.9,1.8l0,0V27L27.4,27z"/>
	</g>
	<g>
		<path fill="#FFCA8A" d="M27.4,22.2v-1c0.5,0,1-0.2,1.3-0.6c0.4-0.4,0.5-0.8,0.5-1.3c0-1-0.9-1.8-1.9-1.8l0,0v-1
			c1.6,0,2.9,1.3,2.9,2.8c0,0.8-0.3,1.5-0.8,2C28.9,21.9,28.2,22.2,27.4,22.2z"/>
	</g>
	<g>
		<path fill="#FFCA8A" d="M24.5,24.1c0-1,0.5-1.9,1.4-2.5l0.5,0.9c-0.6,0.3-0.9,1-0.9,1.6H24.5z"/>
	</g>
	<g>
		<path fill="#FFCA8A" d="M29.6,31.6c-0.2,0-0.4,0-0.6-0.1l0.2-1c0.1,0,0.3,0,0.4,0c0.4,0,0.8-0.1,1.1-0.4l0.3-0.2l0.3,0.2
			c0.3,0.2,0.7,0.4,1.1,0.4l0,0c0.9,0,1.7-0.7,1.7-1.6v-0.4l0.4-0.1c0.8-0.2,1.4-0.9,1.4-1.7c0-0.2,0-0.4-0.1-0.5l-0.2-0.8l0.8,0.1
			c0.4,0,0.8-0.2,1.1-0.4c0.3-0.3,0.4-0.6,0.4-1c0-0.5-0.2-0.9-0.6-1.1l-0.5-0.3l0.4-0.4c0.7-0.7,1-1.5,1-2.5s-0.5-2-1.2-2.6
			l-0.4-0.3l0.3-0.4c0.2-0.3,0.4-0.6,0.3-0.9c0-0.6-0.5-1.2-1.1-1.4l-0.4-0.1v-0.4c0-0.1,0-0.1,0-0.2c0-1.2-1-2.1-2.1-2.1l0,0
			c-0.1,0-0.3,0-0.4,0l-0.4,0.1l-0.1-0.4c-0.2-0.6-0.8-1-1.5-1c-0.5,0-1,0.3-1.3,0.7l-0.3,0.5L29.2,11c-0.4-0.3-0.9-0.5-1.4-0.5v-1
			c0.6,0,1.1,0.1,1.6,0.4c0.5-0.5,1.1-0.8,1.8-0.8l0,0c1,0,1.8,0.5,2.3,1.3c0.1,0,0.1,0,0.2,0c1.7,0,3,1.3,3.1,2.9
			c0.9,0.4,1.5,1.2,1.5,2.2c0,0.4-0.1,0.8-0.3,1.2c0.8,0.8,1.3,1.9,1.3,3.1c0,1-0.3,2-0.9,2.8c0.4,0.4,0.6,1,0.6,1.6
			c0,0.7-0.2,1.3-0.7,1.7c-0.3,0.3-0.8,0.6-1.2,0.7c0,0.1,0,0.1,0,0.2c0,1.2-0.7,2.2-1.8,2.6c-0.2,1.2-1.3,2.2-2.7,2.2l0,0
			c-0.5,0-1-0.1-1.4-0.4C30.7,31.5,30.2,31.6,29.6,31.6C29.7,31.6,29.7,31.6,29.6,31.6z"/>
	</g>
	<g>
		<path fill="#FFCA8A" d="M35.8,13.5c0-0.6-0.2-1.1-0.6-1.5c-0.4-0.4-0.9-0.6-1.5-0.6l0,0c-0.4,0-0.9,0.1-1.2,0.4L31.9,11
			c0.5-0.4,1.1-0.6,1.8-0.6c0.9,0,1.6,0.3,2.2,0.9c0.6,0.6,0.9,1.4,0.9,2.2L35.8,13.5z"/>
	</g>
	<g>
		<path fill="#FFCA8A" d="M34,19.3c-0.1-0.9,0.5-1.7,1.4-1.9l0.1,1c-0.4,0-0.6,0.4-0.6,0.7L34,19.3z"/>
	</g>
	<g>
		<path fill="#FFCA8A" d="M32,27.3l-0.1-1c0.2,0,0.3-0.1,0.5-0.2c0.1-0.1,0.2-0.3,0.2-0.5l1-0.1c0,0.4-0.1,0.9-0.4,1.2
			C32.9,27.1,32.5,27.3,32,27.3z"/>
	</g>
	<g>
		<path fill="#FFCA8A" d="M29.3,31.6c-1.3,0-2.4-0.5-3.3-1.4s-1.4-2.1-1.4-3.3h1c0,1,0.4,1.9,1.1,2.6s1.7,1.1,2.7,1.1L29.3,31.6
			C29.4,31.6,29.3,31.6,29.3,31.6z"/>
	</g>
	<g>
		<path fill="none" stroke="#425060" stroke-miterlimit="10" d="M25,12.7"/>
	</g>
	<g>
		<path fill="#FFCA8A" d="M16.7,15.6h-1c0-0.8-0.6-1.4-1.4-1.5l0,0c-0.8,0-1.4,0.6-1.5,1.4h-1c0-1.3,1.1-2.4,2.5-2.4l0,0
			C15.6,13.2,16.7,14.3,16.7,15.6z"/>
	</g>
	<g>
		<path fill="#FFCA8A" d="M18.2,18.1C18.2,18.1,18.1,18.1,18.2,18.1c-0.7,0-1.3-0.3-1.8-0.7c-0.5-0.5-0.7-1.1-0.7-1.7h1
			c0,0.4,0.1,0.7,0.4,1c0.3,0.3,0.6,0.4,1,0.4c0.8,0,1.5-0.6,1.5-1.4c0-0.4-0.1-0.7-0.4-1s-0.6-0.4-1-0.4v-1c0.7,0,1.3,0.3,1.7,0.7
			c0.5,0.5,0.7,1.1,0.7,1.7C20.6,17,19.5,18.1,18.2,18.1z"/>
	</g>
	<g>
		<path fill="#FFCA8A" d="M15.9,29.6C15.8,29.6,15.8,29.6,15.9,29.6c-0.8,0-1.4-0.3-1.9-0.8s-0.8-1.2-0.8-1.9c0-0.7,0.3-1.3,0.7-1.8
			l0.7,0.7c-0.3,0.3-0.5,0.7-0.5,1.1c0,0.5,0.2,0.9,0.5,1.2c0.3,0.3,0.8,0.5,1.2,0.5c0.2,0,0.3,0,0.5-0.1l0.3,1
			C16.4,29.5,16.1,29.6,15.9,29.6z"/>
	</g>
	<g>
		<path fill="#FFCA8A" d="M20.4,31.6c-0.8,0-1.5-0.3-2.1-0.9s-0.9-1.3-0.8-2.1h1c0,0.5,0.2,1,0.6,1.4s0.9,0.6,1.4,0.6L20.4,31.6z"/>
	</g>
	<g>
		<path fill="#FFCA8A" d="M15.3,24.3c-1.2,0-2.3-0.5-3.2-1.3c-0.8-0.9-1.3-2-1.3-3.2c0-1.7,1-3.2,2.5-4l0.4,0.9
			c-1.2,0.6-1.9,1.8-2,3.1c0,0.9,0.3,1.8,1,2.5s1.5,1,2.5,1L15.3,24.3z"/>
	</g>
	<g>
		<path fill="#FFCA8A" d="M17.5,25.6h-1c0-0.3-0.1-0.6-0.4-0.9c-0.2-0.2-0.5-0.4-0.9-0.4v-1c0.6,0,1.2,0.2,1.6,0.7
			C17.3,24.4,17.5,25,17.5,25.6z"/>
	</g>
	<g>
		<path fill="#FFCA8A" d="M22.3,15.9L22.3,15.9v-1c1.2,0,2.3-1,2.3-2.2c0-0.6-0.2-1.2-0.6-1.6c-0.4-0.4-1-0.7-1.6-0.7l0,0
			c-1.2,0-2.2,1-2.3,2.2h-1c0-1.8,1.5-3.2,3.3-3.2l0,0c0.9,0,1.7,0.4,2.3,1c0.6,0.6,0.9,1.4,0.9,2.3C25.5,14.5,24.1,15.9,22.3,15.9z
			"/>
	</g>
	<g>
		<path fill="#FFCA8A" d="M22.7,27L22.7,27c-0.8,0-1.5-0.3-2.1-0.9c-0.5-0.5-0.8-1.3-0.8-2h1c0,0.5,0.2,1,0.5,1.3
			c0.4,0.4,0.8,0.6,1.3,0.6l0,0c1,0,1.9-0.8,1.9-1.8h1C25.5,25.7,24.3,27,22.7,27z"/>
	</g>
	<g>
		<path fill="#FFCA8A" d="M20.8,24.1h-1c0-0.5-0.2-1-0.5-1.3c-0.4-0.4-0.8-0.6-1.3-0.6v-1c0.8,0,1.5,0.3,2,0.9
			C20.5,22.6,20.8,23.3,20.8,24.1z"/>
	</g>
	<g>
		<path fill="#FFCA8A" d="M17.9,22.2c-0.8,0-1.5-0.3-2-0.9c-0.5-0.5-0.8-1.3-0.8-2h1c0,0.5,0.2,1,0.5,1.3c0.4,0.4,0.8,0.6,1.3,0.6
			L17.9,22.2z"/>
	</g>
	<g>
		<path fill="#FFCA8A" d="M22.7,27L22.7,27v-1l0,0c1,0,1.9-0.8,1.9-1.8c0-0.5-0.2-1-0.5-1.3c-0.4-0.4-0.8-0.6-1.3-0.6v-1
			c0.8,0,1.5,0.3,2,0.9c0.5,0.5,0.8,1.3,0.8,2C25.5,25.7,24.3,27,22.7,27z"/>
	</g>
	<g>
		<path fill="#FFCA8A" d="M22.7,22.2c-0.8,0-1.5-0.3-2-0.9c-0.5-0.5-0.8-1.3-0.8-2c0-0.8,0.3-1.5,0.9-2s1.3-0.8,2.1-0.8v1
			c-0.5,0-1,0.2-1.3,0.5c-0.4,0.3-0.6,0.8-0.6,1.3s0.2,1,0.5,1.3c0.4,0.4,0.8,0.6,1.3,0.6L22.7,22.2z"/>
	</g>
	<g>
		<path fill="#FFCA8A" d="M25.6,24.1h-1c0-0.7-0.3-1.3-0.9-1.6l0.5-0.9C25.1,22.2,25.6,23.1,25.6,24.1z"/>
	</g>
	<g>
		<path fill="#FFCA8A" d="M20.4,31.6L20.4,31.6c-0.5,0-1-0.1-1.4-0.4c-0.4,0.2-0.9,0.4-1.4,0.4c-1.3,0-2.4-1-2.7-2.2
			c-1.1-0.4-1.8-1.4-1.8-2.6c0-0.1,0-0.1,0-0.2c-0.5-0.1-0.9-0.3-1.2-0.7c-0.5-0.5-0.7-1.1-0.7-1.7s0.2-1.1,0.6-1.6
			c-0.6-0.8-1-1.8-0.9-2.8c0-1.2,0.5-2.2,1.3-3.1c-0.2-0.4-0.3-0.8-0.3-1.2c0-1,0.6-1.8,1.5-2.2c0.1-1.6,1.5-2.9,3.1-2.9
			c0.1,0,0.1,0,0.2,0C17.1,9.6,18,9,19,9.1c0.7,0,1.3,0.3,1.8,0.8c0.5-0.3,1.1-0.4,1.6-0.4v1c-0.5,0-1,0.2-1.4,0.5l-0.4,0.3
			l-0.3-0.5c-0.3-0.4-0.8-0.7-1.3-0.7l0,0c-0.7,0-1.3,0.4-1.5,1l-0.1,0.4L17,11.4c-0.1,0-0.3,0-0.4,0c-1.2,0-2.1,0.9-2.1,2.1
			c0,0.1,0,0.1,0,0.2v0.4l-0.4,0.1c-0.6,0.2-1.1,0.7-1.1,1.4c0,0.3,0.1,0.7,0.3,0.9l0.3,0.4l-0.4,0.3c-0.8,0.6-1.2,1.6-1.2,2.6
			c0,0.9,0.3,1.8,1,2.5l0.4,0.4L12.9,23c-0.4,0.3-0.6,0.7-0.6,1.1s0.1,0.7,0.4,1c0.3,0.3,0.6,0.4,1,0.4l0.8-0.1l-0.2,0.8
			c-0.1,0.2-0.1,0.3-0.1,0.5c0,0.8,0.6,1.5,1.4,1.7l0.4,0.1v0.4c0.1,0.9,0.8,1.6,1.7,1.6c0.4,0,0.8-0.1,1.1-0.4L19,30l0.3,0.2
			c0.3,0.2,0.7,0.4,1.1,0.4c0.1,0,0.3,0,0.4,0l0.2,1C20.8,31.6,20.6,31.6,20.4,31.6z"/>
	</g>
	<g>
		<path fill="#FFCA8A" d="M14.3,13.5h-1c0-1.7,1.4-3.1,3.1-3.1l0,0c0.6,0,1.3,0.2,1.8,0.6l-0.6,0.8c-0.4-0.2-0.8-0.4-1.2-0.4l0,0
			C15.2,11.4,14.3,12.4,14.3,13.5z"/>
	</g>
	<g>
		<path fill="#FFCA8A" d="M16.1,19.3l-1-0.1c0-0.2,0-0.3-0.1-0.5c-0.1-0.1-0.3-0.2-0.4-0.3l0.1-1c0.4,0.1,0.8,0.3,1.1,0.6
			C16,18.5,16.1,18.9,16.1,19.3z"/>
	</g>
	<g>
		<path fill="#FFCA8A" d="M18,27.3c-0.4,0-0.8-0.2-1.1-0.6c-0.3-0.3-0.4-0.8-0.4-1.2l1,0.1c0,0.4,0.2,0.7,0.6,0.7L18,27.3z"/>
	</g>
	<g>
		<path fill="#FFCA8A" d="M20.8,31.6C20.7,31.6,20.7,31.6,20.8,31.6v-1c1,0,2-0.4,2.7-1.1s1.1-1.6,1.1-2.6h1c0,1.3-0.5,2.4-1.4,3.3
			C23.2,31.1,22,31.6,20.8,31.6z"/>
	</g>
	<g>
		<path fill="none" stroke="#425060" stroke-miterlimit="10" d="M25.1,12.7"/>
	</g>
</g>
</svg>
