<?xml version="1.0" encoding="utf-8"?>
<!-- Generator: Adobe Illustrator 18.0.0, SVG Export Plug-In . SVG Version: 6.00 Build 0)  -->
<!DOCTYPE svg PUBLIC "-//W3C//DTD SVG 1.1//EN" "http://www.w3.org/Graphics/SVG/1.1/DTD/svg11.dtd">
<svg version="1.1" id="Layer_1" xmlns="http://www.w3.org/2000/svg" xmlns:xlink="http://www.w3.org/1999/xlink" x="0px" y="0px"
	 viewBox="0 0 50 50" enable-background="new 0 0 50 50" xml:space="preserve">
<g>
	<g>
		<g>
			<path fill="#D9BAA8" d="M45.6,37.9L45.6,37.9c0,6.2-5.3,11.1-11.5,11.1H15.9C9.7,49,4.4,44.1,4.4,38v-0.1c0-9.6,6.7-12.4,15.7-13
				l5,5.8l5-5.8c1.7,0.1,3.4,0.3,4.9,0.7C41.3,26.9,45.6,30.2,45.6,37.9z"/>
		</g>
		<g>
			<polygon fill="#FA4968" points="23.4,30.8 21.2,44 24.8,46.7 28.5,44 26.3,30.8 			"/>
		</g>
		<g>
			<path fill="#DDEDEB" d="M34.9,25.6l-5.1,9L25,30.8l5-5.8C31.7,25.1,33.4,25.2,34.9,25.6z"/>
		</g>
		<g>
			<path fill="#DDEDEB" d="M15.1,25.6l5.1,9l4.8-3.8L20,25C18.3,25.1,16.6,25.2,15.1,25.6z"/>
		</g>
	</g>
	<g>
		<g>
			<path fill="#559AFF" d="M31.2,19.2c0,0,2.6-2.4,3.1-5.4c-0.5,0.1-1,0.2-1.6,0.2c-3.6,0-6.5-2.9-6.5-6.5S29.1,1,32.7,1
				s6.5,2.9,6.5,6.5C39.2,7.5,39.7,17.5,31.2,19.2z"/>
		</g>
		<g>
			<path fill="#559AFF" d="M15.7,19.2c0,0,2.6-2.4,3.1-5.4c-0.5,0.1-1,0.2-1.6,0.2c-3.6,0-6.5-2.9-6.5-6.5S13.6,1,17.2,1
				s6.5,2.9,6.5,6.5C23.7,7.5,24.3,17.5,15.7,19.2z"/>
		</g>
	</g>
</g>
</svg>
