<?xml version="1.0" encoding="utf-8"?>
<!-- Generator: Adobe Illustrator 18.0.0, SVG Export Plug-In . SVG Version: 6.00 Build 0)  -->
<!DOCTYPE svg PUBLIC "-//W3C//DTD SVG 1.1//EN" "http://www.w3.org/Graphics/SVG/1.1/DTD/svg11.dtd">
<svg version="1.1" id="Layer_1" xmlns="http://www.w3.org/2000/svg" xmlns:xlink="http://www.w3.org/1999/xlink" x="0px" y="0px"
	 viewBox="0 0 50 50" enable-background="new 0 0 50 50" xml:space="preserve">
<g>
	<g>
		<rect x="17.5" y="41.3" fill="#F9A846" width="15.1" height="3.1"/>
	</g>
	<g>
		<g>
			<g>
				<polygon fill="#FFB95C" points="36.2,49 32.3,49 27.9,30.6 31.8,30.6 				"/>
			</g>
			<g>
				<polygon fill="#FFB95C" points="13.8,49 17.7,49 22.1,30.6 18.2,30.6 				"/>
			</g>
		</g>
		<g>
			<path fill="#E5E5E5" d="M43.9,35.1H6.1c-1.4,0-2.5-1.1-2.5-2.5V9.2c0-1.4,1.1-2.5,2.5-2.5h37.7c1.4,0,2.5,1.1,2.5,2.5v23.4
				C46.4,34,45.3,35.1,43.9,35.1z"/>
		</g>
		<g>
			<rect x="18.5" y="4.5" fill="#F9A846" width="13.1" height="2.1"/>
		</g>
		<g>
			<rect x="23.2" y="1" fill="#FFB95C" width="3.5" height="3.5"/>
		</g>
	</g>
	<g>
		<rect x="23.8" y="35.1" fill="#F9A846" width="2.4" height="6.2"/>
	</g>
	<g>
		<g>
			<g>
				<g>
					<circle fill="#FA4968" cx="8.6" cy="16.4" r="1.6"/>
				</g>
				<g>
					<circle fill="#FFB95C" cx="22.5" cy="20.9" r="1.6"/>
				</g>
				<g>
					<circle fill="#8CF2ED" cx="13.6" cy="27.7" r="1.5"/>
				</g>
			</g>
			<g>
				<g>
					
						<rect x="7.7" y="21.8" transform="matrix(-0.7072 -0.7071 0.7071 -0.7072 -2.4525 45.4459)" fill="#CCCACA" width="1" height="2.9"/>
				</g>
				<g>
					
						<rect x="6.8" y="22.7" transform="matrix(-0.7071 -0.7071 0.7071 -0.7071 -2.3316 45.4922)" fill="#CCCACA" width="2.9" height="1"/>
				</g>
			</g>
			<g>
				<g>
					
						<rect x="23.3" y="26.8" transform="matrix(-0.7071 -0.7071 0.7071 -0.7071 20.6203 65.0233)" fill="#CCCACA" width="1" height="2.9"/>
				</g>
				<g>
					
						<rect x="22.4" y="27.7" transform="matrix(-0.7071 -0.7071 0.7071 -0.7071 20.741 65.0733)" fill="#CCCACA" width="2.9" height="1"/>
				</g>
			</g>
			<g>
				<g>
					
						<rect x="21.8" y="12.8" transform="matrix(-0.7071 -0.7071 0.7071 -0.7071 27.9169 40.0388)" fill="#CCCACA" width="1" height="2.9"/>
				</g>
				<g>
					
						<rect x="20.9" y="13.7" transform="matrix(-0.7071 -0.7071 0.7071 -0.7071 28.0376 40.0888)" fill="#CCCACA" width="2.9" height="1"/>
				</g>
			</g>
			<g>
				
					<rect x="17.5" y="20.3" transform="matrix(-0.6082 -0.7938 0.7938 -0.6082 9.5917 53.4391)" fill="#425060" width="1" height="8.2"/>
			</g>
			<g>
				
					<rect x="12.9" y="11.3" transform="matrix(-0.332 -0.9433 0.9433 -0.332 3.8467 32.3124)" fill="#425060" width="1" height="6.9"/>
			</g>
			<g>
				
					<rect x="9.8" y="18.1" transform="matrix(-0.951 -0.3092 0.3092 -0.951 24.6057 41.1035)" fill="#425060" width="11.5" height="1"/>
			</g>
			<g>
				<polygon fill="#425060" points="15.7,15.7 14.9,15.1 15.8,13.9 14.3,13.5 14.6,12.5 17.5,13.3 				"/>
			</g>
		</g>
		<g>
			<g>
				<g>
					<rect x="32.5" y="10.3" fill="#FA4968" width="3.5" height="3.5"/>
				</g>
				<g>
					<g>
						<rect x="38.2" y="10.6" fill="#CCCACA" width="4.8" height="1"/>
					</g>
					<g>
						<rect x="38.2" y="12.5" fill="#CCCACA" width="2.2" height="1"/>
					</g>
				</g>
			</g>
			<g>
				<g>
					<rect x="32.5" y="16.2" fill="#FFB95C" width="3.5" height="3.5"/>
				</g>
				<g>
					<g>
						<rect x="38.2" y="16.5" fill="#CCCACA" width="4.8" height="1"/>
					</g>
					<g>
						<rect x="38.2" y="18.4" fill="#CCCACA" width="2.2" height="1"/>
					</g>
				</g>
			</g>
			<g>
				<g>
					<rect x="32.5" y="22.1" fill="#6CD8D5" width="3.5" height="3.5"/>
				</g>
				<g>
					<g>
						<rect x="38.2" y="22.3" fill="#CCCACA" width="4.8" height="1"/>
					</g>
					<g>
						<rect x="38.2" y="24.3" fill="#CCCACA" width="2.2" height="1"/>
					</g>
				</g>
			</g>
			<g>
				<g>
					<rect x="32.5" y="28" fill="#6EB0FF" width="3.5" height="3.5"/>
				</g>
				<g>
					<g>
						<rect x="38.2" y="28.2" fill="#CCCACA" width="4.8" height="1"/>
					</g>
					<g>
						<rect x="38.2" y="30.2" fill="#CCCACA" width="2.2" height="1"/>
					</g>
				</g>
			</g>
		</g>
		<g>
			<g>
				<rect x="28.1" y="10.3" fill="#CCCACA" width="1" height="1.5"/>
			</g>
			<g>
				<path fill="#CCCACA" d="M29.1,27.4h-1v-2.6h1V27.4z M29.1,22.2h-1v-2.6h1V22.2z M29.1,17h-1v-2.6h1V17z"/>
			</g>
			<g>
				<rect x="28.1" y="30" fill="#CCCACA" width="1" height="1.5"/>
			</g>
		</g>
	</g>
</g>
</svg>
