<?xml version="1.0" encoding="utf-8"?>
<!-- Generator: Adobe Illustrator 18.0.0, SVG Export Plug-In . SVG Version: 6.00 Build 0)  -->
<!DOCTYPE svg PUBLIC "-//W3C//DTD SVG 1.1//EN" "http://www.w3.org/Graphics/SVG/1.1/DTD/svg11.dtd">
<svg version="1.1" id="Layer_1" xmlns="http://www.w3.org/2000/svg" xmlns:xlink="http://www.w3.org/1999/xlink" x="0px" y="0px"
	 viewBox="0 0 50 50" enable-background="new 0 0 50 50" xml:space="preserve">
<g>
	<g>
		<g>
			<path fill="#E8CEC1" d="M18.4,44.8c-0.6,1.2-0.2,2.7,0.3,3.9c0,0.1,0.1,0.2,0.1,0.3h18.5c-6-6.2,0.6-18.4,1.9-23.4
				c1.8-7.1-1.1-11.7-4.5-14.5C31,8.1,26.2,7,21.5,7.8C8.5,10.1,8.7,19.9,9.2,23.5c0.1,0.9-0.1,1.8-0.5,2.6L6,30.6
				c-0.5,0.8-0.2,1.9,0.7,2.4l1.6,0.7L8.1,36l1.6,1l-1.4,1.6l1.6,1.2L9.7,42c-0.2,1.4,0.8,2.6,2.2,2.7c2.7,0.2,7.3,0.2,10.9-1.4"/>
		</g>
	</g>
	<g>
		<path fill="#FA4968" d="M26.3,23.8L20,25.3l1.5-6.3c-1-1.7-1.5-3.7-1.5-5.9C20,6.4,25.4,1,32.1,1s12.1,5.4,12.1,12.1
			s-5.4,12.1-12.1,12.1C30,25.3,28,24.7,26.3,23.8z"/>
	</g>
	<g>
		<g>
			<g>
				<path fill="#FFB95C" d="M38.8,17.9c-0.5,0.7-1.2,1.4-1.9,1.9c-0.7-0.6-1.6-0.9-2.3-0.6s-1.1,1.1-1.2,2.1c-0.9,0.2-1.8,0.2-2.7,0
					c-0.1-1-0.5-1.7-1.2-2s-1.6,0-2.3,0.6c-0.7-0.5-1.4-1.2-1.9-1.9c0.6-0.7,0.9-1.6,0.6-2.3C25.8,15,25,14.6,24,14.6
					c-0.2-0.9-0.2-1.8,0-2.7c1-0.1,1.7-0.5,2-1.2s0-1.6-0.6-2.3c0.5-0.7,1.2-1.4,1.9-1.9c0.7,0.6,1.6,0.9,2.3,0.6
					C30.3,6.7,30.7,6,30.7,5c0.9-0.2,1.8-0.2,2.7,0c0.1,1,0.5,1.7,1.2,2s1.6,0,2.3-0.6c0.7,0.5,1.4,1.2,1.9,1.9
					c-0.6,0.7-0.9,1.6-0.6,2.3c0.3,0.7,1.1,1.1,2.1,1.2c0.2,0.9,0.2,1.8,0,2.7c-1,0.1-1.7,0.5-2,1.2C37.9,16.3,38.2,17.2,38.8,17.9z
					"/>
			</g>
		</g>
		<g>
			<circle fill="#FFFFFF" cx="32.1" cy="13.1" r="4"/>
		</g>
	</g>
</g>
</svg>
