<?xml version="1.0" encoding="utf-8"?>
<!-- Generator: Adobe Illustrator 18.0.0, SVG Export Plug-In . SVG Version: 6.00 Build 0)  -->
<!DOCTYPE svg PUBLIC "-//W3C//DTD SVG 1.1//EN" "http://www.w3.org/Graphics/SVG/1.1/DTD/svg11.dtd">
<svg version="1.1" id="Layer_1" xmlns="http://www.w3.org/2000/svg" xmlns:xlink="http://www.w3.org/1999/xlink" x="0px" y="0px"
	 viewBox="0 0 50 50" enable-background="new 0 0 50 50" xml:space="preserve">
<g>
	<g>
		<g>
			<g>
				<path fill="#F4F4F4" d="M34.1,49H10.2C7.9,49,6,47.1,6,44.8V11.2C6,8.9,7.9,7,10.2,7h23.9c2.3,0,4.2,1.9,4.2,4.2v33.6
					C38.2,47.1,36.4,49,34.1,49z"/>
			</g>
		</g>
		<g>
			<path fill="#559AFF" d="M30.5,7.3L30.5,7.3c0,1.2-1,2.2-2.2,2.2H15.9c-1.2,0-2.2-1-2.2-2.2l0,0c0-1.5,1.3-2.8,2.8-2.8h2.6V4
				c0-1.7,1.3-3,3-3l0,0c1.7,0,3,1.3,3,3v0.5h2.6C29.3,4.5,30.5,5.8,30.5,7.3z"/>
		</g>
	</g>
	<g>
		<g>
			<g>
				<g>
					<rect x="15.6" y="16.3" fill="#CCCACA" width="4.9" height="1"/>
				</g>
				<g>
					<rect x="15.6" y="18" fill="#CCCACA" width="2.5" height="1"/>
				</g>
			</g>
			<g>
				<rect x="10.5" y="16.3" fill="#FA4968" width="2.7" height="2.7"/>
			</g>
		</g>
	</g>
	<g>
		<g>
			<g>
				<g>
					<rect x="15.6" y="22.8" fill="#CCCACA" width="4.9" height="1"/>
				</g>
				<g>
					<rect x="15.6" y="24.5" fill="#CCCACA" width="2.5" height="1"/>
				</g>
			</g>
			<g>
				<rect x="10.5" y="22.8" fill="#6CD8D5" width="2.7" height="2.7"/>
			</g>
		</g>
	</g>
	<g>
		<g>
			<g>
				<g>
					<rect x="15.6" y="29.3" fill="#CCCACA" width="4.9" height="1"/>
				</g>
				<g>
					<rect x="15.6" y="30.9" fill="#CCCACA" width="2.5" height="1"/>
				</g>
			</g>
			<g>
				<rect x="10.5" y="29.2" fill="#559AFF" width="2.7" height="2.7"/>
			</g>
		</g>
	</g>
	<g>
		<g>
			<g>
				<g>
					<rect x="15.6" y="35.7" fill="#CCCACA" width="4.9" height="1"/>
				</g>
				<g>
					<rect x="15.6" y="37.4" fill="#CCCACA" width="2.5" height="1"/>
				</g>
			</g>
			<g>
				<rect x="10.5" y="35.7" fill="#E5E5E5" width="2.7" height="2.7"/>
			</g>
		</g>
		<g>
			<g>
				<g>
					<rect x="28.8" y="35.7" fill="#CCCACA" width="4.9" height="1"/>
				</g>
				<g>
					<rect x="28.8" y="37.4" fill="#CCCACA" width="2.5" height="1"/>
				</g>
			</g>
			<g>
				<rect x="23.7" y="35.7" fill="#6CD8D5" width="2.7" height="2.7"/>
			</g>
		</g>
	</g>
	<g>
		<g>
			<g>
				<g>
					<rect x="15.6" y="42.2" fill="#CCCACA" width="4.9" height="1"/>
				</g>
				<g>
					<rect x="15.6" y="43.9" fill="#CCCACA" width="2.5" height="1"/>
				</g>
			</g>
			<g>
				<rect x="10.5" y="42.2" fill="#616B77" width="2.7" height="2.7"/>
			</g>
		</g>
		<g>
			<g>
				<g>
					<rect x="28.8" y="42.2" fill="#CCCACA" width="4.9" height="1"/>
				</g>
				<g>
					<rect x="28.8" y="43.9" fill="#CCCACA" width="2.5" height="1"/>
				</g>
			</g>
			<g>
				<rect x="23.7" y="42.2" fill="#FECD04" width="2.7" height="2.7"/>
			</g>
		</g>
	</g>
	<g>
		<g>
			<path fill="#ABB734" d="M29.2,30.7L24.1,32l1.2-5.1c-0.8-1.4-1.2-3.1-1.2-4.8c0-5.5,4.5-10,10-10s10,4.5,10,10s-4.5,10-10,10
				C32.3,32,30.6,31.5,29.2,30.7z"/>
		</g>
		<g>
			<g>
				<path fill="#FA4968" d="M32.3,24.3v-0.7c0-0.6,0.1-1.1,0.4-1.5c0.2-0.4,0.7-0.9,1.3-1.3s1-0.8,1.2-1.1c0.2-0.3,0.3-0.6,0.3-0.9
					c0-0.4-0.1-0.7-0.4-0.9c-0.3-0.2-0.7-0.3-1.2-0.3c-0.9,0-1.9,0.3-3,0.9l-1-1.9c1.3-0.7,2.7-1.1,4.2-1.1c1.2,0,2.2,0.3,2.9,0.9
					c0.7,0.6,1.1,1.4,1.1,2.3c0,0.6-0.1,1.2-0.4,1.7s-0.9,1-1.7,1.6c-0.6,0.4-0.9,0.7-1.1,1c-0.2,0.2-0.2,0.5-0.2,0.9v0.5h-2.4V24.3
					z M32.1,27.3c0-0.5,0.1-0.9,0.4-1.1c0.3-0.3,0.7-0.4,1.2-0.4s0.9,0.1,1.1,0.4c0.3,0.3,0.4,0.6,0.4,1.1s-0.1,0.8-0.4,1.1
					c-0.3,0.3-0.6,0.4-1.1,0.4s-0.9-0.1-1.2-0.4C32.2,28.2,32.1,27.8,32.1,27.3z"/>
			</g>
		</g>
	</g>
</g>
</svg>
