<?xml version="1.0" encoding="utf-8"?>
<!-- Generator: Adobe Illustrator 18.0.0, SVG Export Plug-In . SVG Version: 6.00 Build 0)  -->
<!DOCTYPE svg PUBLIC "-//W3C//DTD SVG 1.1//EN" "http://www.w3.org/Graphics/SVG/1.1/DTD/svg11.dtd">
<svg version="1.1" id="Layer_1" xmlns="http://www.w3.org/2000/svg" xmlns:xlink="http://www.w3.org/1999/xlink" x="0px" y="0px"
	 viewBox="0 0 50 50" enable-background="new 0 0 50 50" xml:space="preserve">
<g>
	<g>
		<g>
			<g>
				<g>
					<g>
						<path fill="#E5E5E5" d="M28.8,27.2c2.6,0,4.8-2,4.8-4.6l0,0c0-4.7-3.9-5.5-8.7-5.5s-8.7,0.8-8.7,5.5l0,0
							c0,2.6,2.2,4.6,4.8,4.6H28.8z"/>
					</g>
					<g>
						<path fill="#616B77" d="M33.7,22.6L33.7,22.6c0,2.6-2.2,4.6-4.8,4.6h-7.7c-2.6,0-4.8-2-4.8-4.6l0,0c0-4.7,3.9-5.5,8.6-5.5
							c0.7,0,1.4,0,2.1,0.1s1.4,0.1,2.1,0.3C31.8,17.9,33.7,19.3,33.7,22.6z"/>
					</g>
					<g>
						<path fill="#D9BAA8" d="M23.4,12.3c0,0-0.4,4.8-0.4,5.2c0,1.1,0.9,2,2,2s2-0.9,2-2c0-0.5-0.4-5.2-0.4-5.2H23.4z"/>
					</g>
					<g>
						<path fill="#C9A28F" d="M31.1,10.3c-0.3,0.9-0.9,1.4-1.9,1.1c-1-0.3-2-1.3-1.7-2.2s2.1-1.3,3.1-1C31.5,8.5,31.3,9.4,31.1,10.3
							z"/>
					</g>
					<g>
						<path fill="#C9A28F" d="M18.9,10.3c0.3,0.9,0.9,1.4,1.9,1.1c1-0.3,2-1.3,1.7-2.2s-2.1-1.3-3.1-1C18.5,8.5,18.7,9.4,18.9,10.3z
							"/>
					</g>
					<g>
						<path fill="#E8CEC1" d="M30.1,7.6c0,3.6-1.4,8.2-5.1,8.2s-5.1-4.6-5.1-8.2s1.4-4.9,5.1-4.9S30.1,4,30.1,7.6z"/>
					</g>
					<g>
						<path fill="#FECD04" d="M17.3,6.3c3.3-0.9,2.7-7.1,5.9-4.4C25.2,3.6,20.9,9.2,17.3,6.3z"/>
					</g>
					<g opacity="0.3">
						<path fill="#FFFFFF" d="M20,6.3l-0.2-1c0.5-0.1,0.9-0.4,1.3-0.8l0.7,0.7C21.3,5.8,20.6,6.2,20,6.3z"/>
					</g>
					<g>
						<path fill="#FECD04" d="M30.3,7.9c-2.4-3.7-9.1-0.4-7.4-5.5C24-1,32,2.2,30.3,7.9z"/>
					</g>
					<g opacity="0.3">
						<path fill="#FFFFFF" d="M28.1,4.4C27.7,3.8,27,3.3,26.3,3l0.4-0.9c0.9,0.4,1.7,1,2.2,1.7L28.1,4.4z"/>
					</g>
					<g opacity="0.3">
						<path fill="#FFFFFF" d="M25.5,2.8c-0.1,0-0.3,0-0.4,0v-1c0.2,0,0.4,0,0.6,0L25.5,2.8z"/>
					</g>
					<g>
						<rect x="26.3" y="7.8" fill="#425060" width="1.3" height="1"/>
					</g>
					<g>
						<circle fill="#616B77" cx="26.8" cy="9.4" r="0.3"/>
					</g>
					<g>
						<path fill="#E5E5E5" d="M24.3,11.3c0.4,0.3,0.8,0.3,1.3,0"/>
						<path fill="#C9A28F" d="M25,12c-0.3,0-0.6-0.1-0.9-0.3l0.6-0.8c0.3,0.2,0.5,0.2,0.8,0l0.5,0.8C25.6,11.9,25.3,12,25,12z"/>
					</g>
					<g>
						<rect x="22.4" y="7.8" fill="#425060" width="1.3" height="1"/>
					</g>
					<g>
						<circle fill="#616B77" cx="23.2" cy="9.4" r="0.3"/>
					</g>
					<g>
						<path fill="#425060" d="M25,14.2c-0.8,0-1.5-0.4-2.1-1l0.8-0.6c0.6,0.8,1.9,0.8,2.6,0l0.8,0.6C26.5,13.8,25.8,14.2,25,14.2z"
							/>
					</g>
					<g opacity="0.2">
						<circle fill="#FFFFFF" cx="27.6" cy="11.6" r="0.5"/>
					</g>
					<g opacity="0.2">
						<circle fill="#FFFFFF" cx="22.8" cy="11.6" r="0.5"/>
					</g>
					<g>
						<polygon fill="#FA4968" points="24.3,19.6 23.4,25.1 24.9,26.2 26.4,25.1 25.5,19.6 						"/>
					</g>
					<g>
						<path fill="#DDEDEB" d="M29.1,17.4L27,21.2l-2-1.6l2.1-2.5C27.8,17.2,28.5,17.2,29.1,17.4z"/>
					</g>
					<g>
						<path fill="#DDEDEB" d="M20.9,17.4l2.1,3.8l2-1.6l-2.1-2.5C22.2,17.2,21.5,17.2,20.9,17.4z"/>
					</g>
				</g>
				<g>
					<g>
						<rect x="11.6" y="22.9" fill="#E8CEC1" width="26.9" height="2.6"/>
					</g>
					<g>
						<polygon fill="#C9A28F" points="36.1,30.5 36.4,25.5 13.6,25.5 13.9,30.5 						"/>
					</g>
				</g>
			</g>
		</g>
	</g>
	<g>
		<g>
			<g>
				<ellipse fill="#559AFF" cx="41.2" cy="35.9" rx="3.4" ry="3.4"/>
			</g>
			<g>
				<path fill="#559AFF" d="M48.3,44.7c0,0.5-0.1,1-0.1,1.6c-0.3,1.6-1.7,2.8-3.4,2.8h-7.2c-1.6,0-3.1-1.1-3.4-2.8
					c-0.1-0.5-0.1-1.1-0.1-1.6c0-3,1.8-4,4.4-4.4l2.8,2.3l2.8-2.3C46.5,40.6,48.3,41.7,48.3,44.7z"/>
			</g>
			<g opacity="0.3">
				<path fill="#FFFFFF" d="M44.8,47.2h-7.2c-0.8,0-1.5-0.6-1.6-1.3c-0.1-0.4-0.1-0.9-0.1-1.3h1c0,0.3,0,0.7,0.1,1.1
					c0,0.3,0.3,0.5,0.6,0.5h7.2c0.3,0,0.6-0.2,0.6-0.5c0.1-0.4,0.1-0.7,0.1-1.1h1c0,0.4,0,0.8-0.1,1.3
					C46.3,46.7,45.6,47.2,44.8,47.2z"/>
			</g>
		</g>
		<g>
			<g>
				<ellipse fill="#ABB734" cx="25" cy="35.9" rx="3.4" ry="3.4"/>
			</g>
			<g>
				<path fill="#ABB734" d="M32.1,44.7c0,0.5-0.1,1-0.1,1.6c-0.3,1.6-1.7,2.8-3.4,2.8h-7.2c-1.6,0-3.1-1.1-3.4-2.8
					c-0.1-0.5-0.1-1.1-0.1-1.6c0-3,1.8-4,4.4-4.4l2.8,2.3l2.8-2.3C30.3,40.6,32.1,41.7,32.1,44.7z"/>
			</g>
			<g opacity="0.3">
				<path fill="#FFFFFF" d="M28.6,47.2h-7.2c-0.8,0-1.5-0.6-1.6-1.3c-0.1-0.4-0.1-0.9-0.1-1.3h1c0,0.3,0,0.7,0.1,1.1
					c0,0.3,0.3,0.5,0.6,0.5h7.2c0.3,0,0.6-0.2,0.6-0.5c0.1-0.4,0.1-0.7,0.1-1.1h1c0,0.4,0,0.8-0.1,1.3
					C30.1,46.7,29.4,47.2,28.6,47.2z"/>
			</g>
		</g>
	</g>
	<g>
		<g>
			<ellipse fill="#FA4968" cx="8.8" cy="35.9" rx="3.4" ry="3.4"/>
		</g>
		<g>
			<path fill="#FA4968" d="M16,44.7c0,0.5-0.1,1-0.1,1.6c-0.3,1.6-1.7,2.8-3.4,2.8H5.2c-1.6,0-3.1-1.1-3.4-2.8
				c-0.1-0.5-0.1-1.1-0.1-1.6c0-3,1.8-4,4.4-4.4l2.8,2.3l2.8-2.3C14.2,40.6,16,41.7,16,44.7z"/>
		</g>
		<g opacity="0.3">
			<path fill="#FFFFFF" d="M12.5,47.2H5.2c-0.8,0-1.5-0.6-1.6-1.3c-0.1-0.4-0.1-0.9-0.1-1.3h1c0,0.3,0,0.7,0.1,1.1
				c0,0.3,0.3,0.5,0.6,0.5h7.2c0.3,0,0.6-0.2,0.6-0.5c0.1-0.4,0.1-0.7,0.1-1.1h1c0,0.4,0,0.8-0.1,1.3C13.9,46.7,13.3,47.2,12.5,47.2
				z"/>
		</g>
	</g>
</g>
</svg>
