<?xml version="1.0" encoding="utf-8"?>
<!-- Generator: Adobe Illustrator 18.0.0, SVG Export Plug-In . SVG Version: 6.00 Build 0)  -->
<!DOCTYPE svg PUBLIC "-//W3C//DTD SVG 1.1//EN" "http://www.w3.org/Graphics/SVG/1.1/DTD/svg11.dtd">
<svg version="1.1" id="Layer_1" xmlns="http://www.w3.org/2000/svg" xmlns:xlink="http://www.w3.org/1999/xlink" x="0px" y="0px"
	 viewBox="0 0 50 50" enable-background="new 0 0 50 50" xml:space="preserve">
<g>
	<g>
		<g>
			<g>
				<polygon fill="#425060" points="36.3,45.6 35.8,44.7 40.3,42 44.7,44.7 44.2,45.6 40.3,43.2 				"/>
			</g>
			<g>
				<rect x="39.8" y="39.2" fill="#425060" width="1" height="3.4"/>
			</g>
		</g>
		<g>
			<g>
				<polygon fill="#425060" points="5.8,45.6 5.3,44.7 9.7,42 14.2,44.7 13.7,45.6 9.7,43.2 				"/>
			</g>
			<g>
				<rect x="9.2" y="39.2" fill="#425060" width="1" height="3.4"/>
			</g>
		</g>
	</g>
	<g>
		<path fill="#E5E5E5" d="M28.5,42.1c0,1.7,2.5,1.9,2.7,0.1c0.3-3,1.1-8.9,1.1-8.9l7,0.7c1.6,0.2,3-1,3-2.6c0-0.4,0-0.7,0.1-1l0,0
			c0.9-3,1.4-6.4,1.5-10.1c0.1-1.7-1.3-2.2-3.1-2.2s-3.2,0.3-3.2,2c-0.1,3.3-0.6,6.2-1.3,8.8L36.2,29l-3.3-0.5
			c-1.7-0.2-3.2,1-3.4,2.6C29.1,34.9,28.6,40.5,28.5,42.1z"/>
	</g>
	<g>
		<path fill="#E5E5E5" d="M21.5,42.1c0,1.7-2.5,1.9-2.7,0.1c-0.3-3-1.1-8.9-1.1-8.9l-7,0.7c-1.6,0.2-3-1-3-2.6c0-0.4,0-0.7-0.1-1
			l0,0c-0.9-3-1.4-6.4-1.5-10.1c-0.1-1.7,1.3-2.2,3.1-2.2s3.2,0.3,3.2,2c0.1,3.3,0.6,6.2,1.3,8.8l0.1,0.1l3.3-0.5
			c1.7-0.2,3.2,1,3.4,2.6C20.9,34.9,21.4,40.5,21.5,42.1z"/>
	</g>
	<g>
		<path fill="#ABB734" d="M42.4,30.5L42.4,30.5c0,0.1-6.2-1.4-6.2-1.4s0-0.1,0.1-0.1c0.8-2.6,1.2-5.5,1.3-8.8c0.1-1.7,1.5-2.1,3.2-2
			s3.1,0.5,3.1,2.2C43.7,24.1,43.2,27.5,42.4,30.5L42.4,30.5z"/>
	</g>
	<g>
		<path fill="#C6CC4A" d="M42.1,19.7c-1,0.1-1.4,1.1-0.9,3.3c0,0.8,0,1.6,0,2.3c-0.1,1.6-0.3,3.3-0.8,4.7c-0.3,0.6,0,1.2,0.6,1.5
			c1.7,0.6,2-2.2,2.4-3.2c0.5-2.3,0.7-4.5,0.6-6.8C43.9,20.5,43.1,19.6,42.1,19.7z"/>
	</g>
	<g>
		
			<ellipse transform="matrix(-9.172657e-002 0.9958 -0.9958 -9.172657e-002 58.1759 -25.6908)" fill="#616B77" cx="40.8" cy="13.7" rx="2.6" ry="2.7"/>
	</g>
	<g>
		<path fill="#559AFF" d="M36.4,39.6c-0.2,0-0.4,0-0.5-0.1c-0.9-0.1-1.5-0.9-1.4-1.7c0.1-0.9,0.9-1.5,1.7-1.4c2,0.2,5.5,0.2,6.5-0.6
			c1.2-0.9,2.6-6.8,3.1-11.7c0.1-0.9,0.9-1.5,1.7-1.4c0.9,0.1,1.5,0.9,1.4,1.7c-0.3,2.7-1.5,11.6-4.3,13.8
			C42.6,39.9,38.1,39.7,36.4,39.6z"/>
	</g>
	<g>
		<path fill="#ABB734" d="M7.6,30.5L7.6,30.5c0,0.1,6.2-1.4,6.2-1.4s0-0.1-0.1-0.1c-0.8-2.6-1.2-5.5-1.3-8.8c-0.1-1.7-1.5-2.1-3.2-2
			s-3.1,0.5-3.1,2.2C6.3,24.1,6.8,27.5,7.6,30.5L7.6,30.5z"/>
	</g>
	<g>
		<path fill="#C6CC4A" d="M7.9,19.7c1,0.1,1.4,1.1,0.9,3.3c0,0.8,0,1.6,0,2.3C8.9,27,9.1,28.6,9.6,30c0.3,0.6,0,1.2-0.6,1.5
			c-1.7,0.6-2-2.2-2.4-3.2C6.2,26,6,23.7,6.1,21.4C6.1,20.5,6.9,19.6,7.9,19.7z"/>
	</g>
	<g>
		
			<ellipse transform="matrix(-9.172835e-002 -0.9958 0.9958 -9.172835e-002 -3.7113 24.0241)" fill="#616B77" cx="9.1" cy="13.7" rx="2.6" ry="2.7"/>
	</g>
	<g>
		<path fill="#559AFF" d="M13.6,39.6c0.2,0,0.4,0,0.5-0.1c0.9-0.1,1.5-0.9,1.4-1.7c-0.1-0.9-0.9-1.5-1.7-1.4c-2,0.2-5.5,0.2-6.5-0.6
			C6.1,34.9,4.7,29,4.1,24.1c-0.1-0.9-0.9-1.5-1.7-1.4c-0.9,0.1-1.5,0.9-1.4,1.7C1.3,27.1,2.5,36,5.3,38.2
			C7.4,39.9,11.9,39.7,13.6,39.6z"/>
	</g>
	<g>
		<g>
			<rect x="15.9" y="22.7" fill="#FFA49F" width="18.1" height="3"/>
		</g>
		<g>
			<rect x="23.6" y="25.6" fill="#FF8C83" width="2.8" height="17.8"/>
		</g>
	</g>
	<g>
		<g>
			<circle fill="#FA4968" cx="24.7" cy="11.8" r="7.4"/>
		</g>
		<g opacity="0.3">
			<path fill="#FFFFFF" d="M20.2,9.3l-0.9-0.5c0.3-0.5,0.6-0.9,1-1.3C21,6.8,21.9,6.3,22.8,6l0.3,1c-0.8,0.3-1.5,0.7-2.1,1.3
				C20.7,8.5,20.4,8.9,20.2,9.3z"/>
		</g>
		<g opacity="0.3">
			<path fill="#FFFFFF" d="M25.2,6.7c-0.3,0-0.6,0-0.8,0l-0.1-1c0.3,0,0.7,0,1,0L25.2,6.7z"/>
		</g>
		<g>
			<g>
				<polygon fill="#FFB95C" points="22.4,9.4 20.1,11.7 24.9,16.5 34.1,7.4 31.8,5.1 24.9,11.9 				"/>
			</g>
			<g opacity="0.3">
				<g>
					
						<rect x="29.6" y="7.2" transform="matrix(-0.7071 -0.7071 0.7071 -0.7071 45.1106 36.3675)" fill="#FFFFFF" width="1" height="3.3"/>
				</g>
				<g>
					
						<rect x="27.1" y="11.1" transform="matrix(-0.7061 -0.7081 0.7081 -0.7061 38.9465 38.9987)" fill="#FFFFFF" width="1" height="0.6"/>
				</g>
			</g>
		</g>
	</g>
</g>
</svg>
