<?xml version="1.0" encoding="utf-8"?>
<!-- Generator: Adobe Illustrator 18.0.0, SVG Export Plug-In . SVG Version: 6.00 Build 0)  -->
<!DOCTYPE svg PUBLIC "-//W3C//DTD SVG 1.1//EN" "http://www.w3.org/Graphics/SVG/1.1/DTD/svg11.dtd">
<svg version="1.1" id="Layer_1" xmlns="http://www.w3.org/2000/svg" xmlns:xlink="http://www.w3.org/1999/xlink" x="0px" y="0px"
	 viewBox="0 0 50 50" enable-background="new 0 0 50 50" xml:space="preserve">
<g>
	<g>
		<path fill="#559AFF" d="M49,18.8c0,0.5-0.1,1.1-0.2,1.6c-0.3,1.7-1.8,2.8-3.5,2.8h-7.5c-1.7,0-3.2-1.2-3.5-2.8
			c-0.1-0.6-0.1-1.1-0.1-1.6c0-3.1,1.9-4.2,4.5-4.5l2.8,2.4l2.8-2.4C47.1,14.6,49,15.7,49,18.8z"/>
	</g>
	<g opacity="0.3">
		<path fill="#FFFFFF" d="M45.4,21.4h-7.5c-0.8,0-1.5-0.6-1.7-1.3c-0.1-0.5-0.1-0.9-0.1-1.3h1c0,0.3,0,0.7,0.1,1.1
			c0,0.3,0.3,0.5,0.7,0.5h7.5c0.3,0,0.6-0.2,0.7-0.5c0.1-0.4,0.1-0.8,0.1-1.1h1c0,0.4,0,0.8-0.1,1.3C46.9,20.8,46.2,21.4,45.4,21.4z
			"/>
	</g>
	<g>
		<ellipse fill="#559AFF" cx="41.7" cy="9.8" rx="3.5" ry="3.5"/>
	</g>
	<g>
		<path fill="#8CF2ED" d="M32.3,18.8c0,0.5-0.1,1.1-0.2,1.6c-0.3,1.7-1.8,2.8-3.5,2.8h-7.5c-1.7,0-3.2-1.2-3.5-2.8
			c-0.1-0.6-0.1-1.1-0.1-1.6c0-3.1,1.9-4.2,4.5-4.5l2.8,2.4l2.8-2.4C30.5,14.6,32.3,15.7,32.3,18.8z"/>
	</g>
	<g opacity="0.3">
		<path fill="#FFFFFF" d="M28.7,21.4h-7.5c-0.8,0-1.5-0.6-1.7-1.3c-0.1-0.5-0.1-0.9-0.1-1.3h1c0,0.3,0,0.7,0.1,1.1
			c0,0.3,0.3,0.5,0.7,0.5h7.5c0.3,0,0.6-0.2,0.7-0.5c0.1-0.4,0.1-0.8,0.1-1.1h1c0,0.4,0,0.8-0.1,1.3C30.3,20.8,29.5,21.4,28.7,21.4z
			"/>
	</g>
	<g>
		<ellipse fill="#8CF2ED" cx="25" cy="9.8" rx="3.5" ry="3.5"/>
	</g>
	<g>
		<ellipse fill="#FA4968" cx="8.3" cy="9.8" rx="3.5" ry="3.5"/>
	</g>
	<g>
		<path fill="#FA4968" d="M15.7,18.8c0,0.5-0.1,1.1-0.2,1.6c-0.3,1.7-1.8,2.8-3.5,2.8H4.6c-1.7,0-3.2-1.2-3.5-2.8
			c0-0.6-0.1-1.1-0.1-1.6c0-3.1,1.9-4.2,4.5-4.5l2.8,2.4l2.8-2.4C13.8,14.6,15.7,15.7,15.7,18.8z"/>
	</g>
	<g opacity="0.3">
		<path fill="#FFFFFF" d="M12.1,21.4H4.6c-0.8,0-1.5-0.6-1.7-1.3c-0.1-0.5-0.1-0.9-0.1-1.3h1c0,0.3,0,0.7,0.1,1.1
			c0,0.3,0.3,0.5,0.7,0.5h7.5c0.3,0,0.6-0.2,0.7-0.5c0.1-0.4,0.1-0.8,0.1-1.1h1c0,0.4,0,0.8-0.1,1.3C13.6,20.8,12.9,21.4,12.1,21.4z
			"/>
	</g>
	<g>
		<path fill="#6E9583" d="M49,39.3c0,0.5-0.1,1.1-0.2,1.6c-0.3,1.7-1.8,2.8-3.5,2.8h-7.5c-1.7,0-3.2-1.2-3.5-2.8
			c-0.1-0.6-0.1-1.1-0.1-1.6c0-3.1,1.9-4.2,4.5-4.5l2.8,2.4l2.8-2.4C47.1,35.1,49,36.2,49,39.3z"/>
	</g>
	<g opacity="0.3">
		<path fill="#FFFFFF" d="M45.4,41.9h-7.5c-0.8,0-1.5-0.6-1.7-1.3c-0.1-0.5-0.1-0.9-0.1-1.3h1c0,0.3,0,0.7,0.1,1.1
			c0,0.3,0.3,0.5,0.7,0.5h7.5c0.3,0,0.6-0.2,0.7-0.5c0.1-0.4,0.1-0.8,0.1-1.1h1c0,0.4,0,0.8-0.1,1.3C46.9,41.3,46.2,41.9,45.4,41.9z
			"/>
	</g>
	<g>
		<ellipse fill="#6E9583" cx="41.7" cy="30.3" rx="3.5" ry="3.5"/>
	</g>
	<g>
		<path fill="#D9BAA8" d="M32.3,39.3c0,0.5-0.1,1.1-0.2,1.6c-0.3,1.7-1.8,2.8-3.5,2.8h-7.5c-1.7,0-3.2-1.2-3.5-2.8
			c-0.1-0.6-0.1-1.1-0.1-1.6c0-3.1,1.9-4.2,4.5-4.5l2.8,2.4l2.8-2.4C30.5,35.1,32.3,36.2,32.3,39.3z"/>
	</g>
	<g opacity="0.3">
		<path fill="#FFFFFF" d="M28.7,41.9h-7.5c-0.8,0-1.5-0.6-1.7-1.3c-0.1-0.5-0.1-0.9-0.1-1.3h1c0,0.3,0,0.7,0.1,1.1
			c0,0.3,0.3,0.5,0.7,0.5h7.5c0.3,0,0.6-0.2,0.7-0.5c0.1-0.4,0.1-0.8,0.1-1.1h1c0,0.4,0,0.8-0.1,1.3C30.3,41.3,29.5,41.9,28.7,41.9z
			"/>
	</g>
	<g>
		<ellipse fill="#D9BAA8" cx="25" cy="30.3" rx="3.5" ry="3.5"/>
	</g>
	<g>
		<ellipse fill="#ABB734" cx="8.3" cy="30.3" rx="3.5" ry="3.5"/>
	</g>
	<g>
		<path fill="#ABB734" d="M15.7,39.3c0,0.5-0.1,1.1-0.2,1.6c-0.3,1.7-1.8,2.8-3.5,2.8H4.6c-1.7,0-3.2-1.2-3.5-2.8
			c0-0.6-0.1-1.1-0.1-1.6c0-3.1,1.9-4.2,4.5-4.5l2.8,2.4l2.8-2.4C13.8,35.1,15.7,36.2,15.7,39.3z"/>
	</g>
	<g opacity="0.3">
		<path fill="#FFFFFF" d="M12.1,41.9H4.6c-0.8,0-1.5-0.6-1.7-1.3c-0.1-0.5-0.1-0.9-0.1-1.3h1c0,0.3,0,0.7,0.1,1.1
			c0,0.3,0.3,0.5,0.7,0.5h7.5c0.3,0,0.6-0.2,0.7-0.5c0.1-0.4,0.1-0.8,0.1-1.1h1c0,0.4,0,0.8-0.1,1.3C13.6,41.3,12.9,41.9,12.1,41.9z
			"/>
	</g>
</g>
</svg>
