<?xml version="1.0" encoding="utf-8"?>
<!-- Generator: Adobe Illustrator 18.0.0, SVG Export Plug-In . SVG Version: 6.00 Build 0)  -->
<!DOCTYPE svg PUBLIC "-//W3C//DTD SVG 1.1//EN" "http://www.w3.org/Graphics/SVG/1.1/DTD/svg11.dtd">
<svg version="1.1" id="Layer_1" xmlns="http://www.w3.org/2000/svg" xmlns:xlink="http://www.w3.org/1999/xlink" x="0px" y="0px"
	 viewBox="0 0 50 50" enable-background="new 0 0 50 50" xml:space="preserve">
<g>
	<g>
		<g>
			<polygon fill="#E5E5E5" points="35.5,29.7 28.1,31.5 31.3,49 35,43.6 42,45.8 			"/>
		</g>
		<g>
			<polygon fill="#E5E5E5" points="17.5,29.7 24.9,31.5 21.7,49 18,43.6 11,45.8 			"/>
		</g>
	</g>
	<g>
		<path fill="#559AFF" d="M41.6,16.1L41.6,16.1c-1.9-1-2.7-3.1-2.2-5.1c1-3.3-2.1-6.5-5.5-5.5l0,0c-2,0.6-4.1-0.3-5.1-2.1l0,0
			c-1.7-3.1-6-3.1-7.7,0l0,0C20.1,5.2,18,6,16,5.5l0,0c-3.3-1-6.4,2.1-5.5,5.5l0,0c0.6,2-0.3,4.1-2.1,5.1l0,0c-3,1.7-3,6.1,0,7.7
			l0,0c1.8,1,2.7,3.1,2.1,5.1l0,0c-1,3.3,2.1,6.5,5.5,5.5l0,0c2-0.6,4.1,0.3,5.1,2.1l0,0c1.7,3.1,6,3.1,7.7,0l0,0
			c1-1.8,3.1-2.7,5.1-2.1l0,0c3.3,1,6.4-2.1,5.5-5.5l0,0c-0.6-2,0.3-4.1,2.1-5.1l0,0C44.6,22.1,44.6,17.7,41.6,16.1z"/>
	</g>
	<g>
		<ellipse fill="#E5E5E5" cx="25" cy="19.9" rx="12.5" ry="12.6"/>
	</g>
	<g>
		<ellipse fill="#FA4968" cx="25" cy="19.9" rx="7" ry="7.1"/>
	</g>
	<g opacity="0.3">
		<path fill="#FFFFFF" d="M20.7,17.5L19.8,17c0.3-0.5,0.6-0.9,1-1.3c0.7-0.7,1.5-1.2,2.4-1.5l0.3,1c-0.8,0.2-1.4,0.7-2,1.2
			C21.2,16.8,20.9,17.1,20.7,17.5z"/>
	</g>
	<g opacity="0.3">
		<path fill="#FFFFFF" d="M25.4,15c-0.3,0-0.5,0-0.8,0l-0.1-1c0.3,0,0.6,0,1,0L25.4,15z"/>
	</g>
	<g>
		<g>
			<polygon fill="#FFB95C" points="22.8,17.7 20.6,19.8 25.1,24.4 33.9,15.7 31.7,13.5 25.1,20 			"/>
		</g>
		<g opacity="0.3">
			<g>
				
					<rect x="29.6" y="15.5" transform="matrix(-0.7081 -0.7061 0.7061 -0.7081 39.3271 50.4485)" fill="#FFFFFF" width="1" height="3.2"/>
			</g>
			<g>
				
					<rect x="27.2" y="19.2" transform="matrix(-0.7076 -0.7066 0.7066 -0.7076 33.5186 52.9058)" fill="#FFFFFF" width="1" height="0.6"/>
			</g>
		</g>
	</g>
</g>
</svg>
