<?xml version="1.0" encoding="utf-8"?>
<!-- Generator: Adobe Illustrator 18.0.0, SVG Export Plug-In . SVG Version: 6.00 Build 0)  -->
<!DOCTYPE svg PUBLIC "-//W3C//DTD SVG 1.1//EN" "http://www.w3.org/Graphics/SVG/1.1/DTD/svg11.dtd">
<svg version="1.1" id="Layer_1" xmlns="http://www.w3.org/2000/svg" xmlns:xlink="http://www.w3.org/1999/xlink" x="0px" y="0px"
	 viewBox="0 0 50 50" enable-background="new 0 0 50 50" xml:space="preserve">
<g>
	<g>
		<path fill="#ED2F58" d="M17.6,11.6c2.2,0.7,4.5,1.2,6.9,1.5c2.3,0.3,4.8,0.3,6.8-0.1c0.9-0.2,1.8,0.3,2,1.2
			c0.4,2.5-3.6,2.3-5.2,2.6c-4,0.2-7.8-0.2-11.8-1.1C13.6,14.9,14.8,10.8,17.6,11.6L17.6,11.6z"/>
	</g>
	<g>
		<path fill="#559AFF" d="M22.5,47.2c-0.2,2.5-3.9,2.3-3.9-0.1c0-4.4,0.1-8.6-1.3-12.9c0.1,3-0.2,5.9-1.1,8.8
			c-0.4,1.6-0.8,3.1-1.3,4.6c-0.3,1-1.3,1.6-2.3,1.3s-1.5-1.2-1.3-2.2c0.9-4.4,2-8.8,1.1-13.3c-0.2-1.5-0.4-3.1-0.7-4.6l0,0
			c-0.9-4.4-1.1-9.4-0.8-14.7c0.1-2.5,2.2-3,4.7-2.8s4.5,0.8,4.4,3.3c-0.3,4.7,0,9,0.7,12.8c0,0.1,0.1,0.1,0.1,0.2
			c0.8,3.3,1.5,6.3,2,9.8C23,40.7,22.7,43.9,22.5,47.2z"/>
	</g>
	<g>
		<path fill="#FA4968" d="M11.7,28.7v0.1c0,0,9.1-1.4,9.1-1.3c0-0.1,0-0.1-0.1-0.2c-0.8-3.8-1-8.1-0.7-12.8c0.1-2.5-1.8-3.2-4.4-3.3
			c-2.5-0.1-4.6,0.3-4.7,2.8C10.6,19.3,10.8,24.2,11.7,28.7L11.7,28.7z"/>
	</g>
	<g>
		<path fill="#FF6989" d="M13.4,13.3c1.4,0.3,1.8,1.8,0.8,4.8c-0.2,1.1-0.3,2.2-0.3,3.4c-0.1,2.3,0,4.8,0.6,6.8
			c0.3,0.9-0.2,1.8-1.1,2c-2.5,0.6-2.6-3.4-3-5c-0.4-3.3-0.4-6.6,0-9.9C10.7,14.1,12,13,13.4,13.3z"/>
	</g>
	<g>
		<ellipse fill="#616B77" cx="16.1" cy="4.8" rx="3.8" ry="3.8"/>
	</g>
	<g>
		<g>
			<g>
				<path fill="#6CD8D5" d="M33.9,25.7l-3.3-4.9C29,21.9,28,23.7,28,25.7c0,3.3,2.7,5.9,5.9,5.9c2.6,0,4.8-1.7,5.6-4.1L33.9,25.7z"
					/>
			</g>
			<g>
				<path fill="#C5DFDC" d="M33.9,19.8c-1.2,0-2.3,0.4-3.3,1l3.3,4.9l4.2-4.2C37,20.5,35.5,19.8,33.9,19.8z"/>
			</g>
			<g>
				<path fill="#FECD04" d="M33.9,25.7L33.9,25.7l5.6,1.9c0.2-0.6,0.3-1.2,0.3-1.9c0-1.6-0.7-3.1-1.7-4.2L33.9,25.7z"/>
			</g>
		</g>
		<g>
			<g>
				<path fill="#6CD8D5" d="M38.1,46.4L35.7,44c-1,1-2.5,1-3.5,0l-2.5,2.5C32,48.7,35.8,48.7,38.1,46.4z"/>
			</g>
			<g>
				<path fill="#FF8C83" d="M32.1,43.9c-1-1-1-2.5,0-3.5L29.7,38c-2.3,2.3-2.3,6.1,0,8.4l0,0L32.1,43.9L32.1,43.9z"/>
			</g>
			<g>
				<path fill="#ABB734" d="M32.1,40.4c1-1,2.5-1,3.5,0l0,0L38,38l0,0c-2.3-2.3-6.1-2.3-8.4,0l0,0L32.1,40.4L32.1,40.4z"/>
			</g>
			<g>
				<path fill="#FA4968" d="M35.6,43.9L35.6,43.9l2.4,2.4l0,0c2.3-2.3,2.3-6.1,0-8.4l-2.4,2.4C36.6,41.4,36.6,43,35.6,43.9z"/>
			</g>
		</g>
	</g>
</g>
</svg>
