<?xml version="1.0" encoding="utf-8"?>
<!-- Generator: Adobe Illustrator 18.0.0, SVG Export Plug-In . SVG Version: 6.00 Build 0)  -->
<!DOCTYPE svg PUBLIC "-//W3C//DTD SVG 1.1//EN" "http://www.w3.org/Graphics/SVG/1.1/DTD/svg11.dtd">
<svg version="1.1" id="Layer_1" xmlns="http://www.w3.org/2000/svg" xmlns:xlink="http://www.w3.org/1999/xlink" x="0px" y="0px"
	 viewBox="0 0 50 50" enable-background="new 0 0 50 50" xml:space="preserve">
<g>
	<g>
		<g>
			<g>
				<g>
					<g>
						<rect x="36.1" y="8.5" fill="#425060" width="1.1" height="1"/>
					</g>
				</g>
				<g>
					<g>
						
							<rect x="35.2" y="4" transform="matrix(-0.3825 -0.9239 0.9239 -0.3825 45.1478 39.2755)" fill="#425060" width="1" height="1.1"/>
					</g>
				</g>
				<g>
					<g>
						
							<rect x="35.2" y="12.9" transform="matrix(-0.9242 -0.3819 0.3819 -0.9242 63.7189 39.4387)" fill="#425060" width="1.1" height="1"/>
					</g>
				</g>
			</g>
			<g>
				<g>
					<g>
						<rect x="12.8" y="8.5" fill="#425060" width="1.1" height="1"/>
					</g>
				</g>
				<g>
					<g>
						
							<rect x="13.7" y="12.9" transform="matrix(-0.3825 -0.9239 0.9239 -0.3825 7.2598 31.706)" fill="#425060" width="1" height="1.1"/>
					</g>
				</g>
				<g>
					<g>
						
							<rect x="13.7" y="4.1" transform="matrix(-0.9242 -0.3819 0.3819 -0.9242 25.6571 14.3088)" fill="#425060" width="1.1" height="1"/>
					</g>
				</g>
			</g>
		</g>
		<g>
			<g>
				<g>
					<ellipse fill="#FECD04" cx="25" cy="9" rx="7.9" ry="8"/>
				</g>
				<g>
					<g>
						<path fill="#425060" d="M27.1,13.4h-4.2c-1.1,0-1.9-0.9-1.9-1.9h1c0,0.5,0.4,0.9,0.9,0.9h4.2c0.5,0,0.9-0.4,0.9-0.9v-1
							c0-0.5-0.4-0.9-0.9-0.9h-4.2c-1.1,0-1.9-0.9-1.9-1.9v-1c0-1.1,0.9-1.9,1.9-1.9h4.2c1.1,0,1.9,0.9,1.9,1.9h-1
							c0-0.5-0.4-0.9-0.9-0.9h-4.2c-0.5,0-0.9,0.4-0.9,0.9v1c0,0.5,0.4,0.9,0.9,0.9h4.2c1.1,0,1.9,0.9,1.9,1.9v1
							C29,12.5,28.2,13.4,27.1,13.4z"/>
					</g>
					<g>
						<rect x="24.5" y="3.7" fill="#425060" width="1" height="10.7"/>
					</g>
				</g>
			</g>
		</g>
	</g>
	<g>
		<g>
			<g>
				<g>
					<g>
						<g>
							<path fill="#FA4968" d="M37.2,20.2h-4.1c-5.5,0-10,4.5-10,10.1V31c0,1.1,0.9,1.9,1.9,1.9c1.1,0,1.9-0.9,1.9-1.9v-0.7
								c0-3.4,2.8-6.2,6.2-6.2h4.1V20.2z"/>
						</g>
					</g>
					<g>
						<polygon fill="#FA4968" points="35.4,17.5 35.4,26.7 41.6,22.1 						"/>
					</g>
				</g>
				<g>
					<g>
						<g>
							<path fill="#FFB95C" d="M12.8,20.2h4.1c5.5,0,10,4.5,10,10.1V31c0,1.1-0.9,1.9-1.9,1.9c-1.1,0-1.9-0.9-1.9-1.9v-0.7
								c0-3.4-2.8-6.2-6.2-6.2h-4.1C12.8,24.1,12.8,20.2,12.8,20.2z"/>
						</g>
					</g>
					<g>
						<polygon fill="#FFB95C" points="14.6,17.5 14.6,26.7 8.4,22.1 						"/>
					</g>
				</g>
			</g>
		</g>
	</g>
	<g>
		<g>
			<g>
				<g>
					<path fill="#559AFF" d="M38.1,41.9L38.1,41.9c0,4-3.4,7.1-7.3,7.1H19.2c-3.9,0-7.3-3.1-7.3-7v-0.1c0-6.1,4.2-7.9,10-8.3
						l3.2,3.7l3.2-3.7c1.1,0.1,2.2,0.2,3.1,0.4C35.4,34.9,38.1,37,38.1,41.9z"/>
				</g>
				<g>
					<polygon fill="#FA4968" points="24,37.4 22.6,45.8 24.9,47.5 27.2,45.8 25.8,37.4 					"/>
				</g>
				<g>
					<path fill="#DDEDEB" d="M31.3,34.1L28,39.8l-3-2.4l3.2-3.7C29.3,33.7,30.3,33.9,31.3,34.1z"/>
				</g>
				<g>
					<path fill="#DDEDEB" d="M18.7,34.1l3.2,5.7l3.1-2.4l-3.2-3.7C20.7,33.7,19.7,33.9,18.7,34.1z"/>
				</g>
			</g>
		</g>
	</g>
</g>
</svg>
